<?xml version="1.0" encoding="UTF-8" ?>
<!DOCTYPE svg PUBLIC "-//W3C//DTD SVG 1.1//EN" "http://www.w3.org/Graphics/SVG/1.1/DTD/svg11.dtd">
<svg width="840pt" height="525pt" viewBox="0 0 840 525" version="1.1" xmlns="http://www.w3.org/2000/svg">
<g id="#000000ff">
<path fill="#000000" opacity="1.00" d=" M 646.03 221.08 C 657.05 221.24 668.03 219.00 679.04 220.21 C 682.08 220.65 683.50 225.04 681.17 227.14 C 676.81 231.52 673.21 236.57 669.45 241.46 C 666.66 244.77 663.41 247.68 660.95 251.26 C 667.01 251.54 673.08 251.44 679.15 251.54 C 681.73 248.01 684.47 244.59 687.42 241.36 C 691.90 236.42 694.95 230.35 699.37 225.39 C 703.28 221.47 709.05 222.85 714.00 222.68 C 723.68 222.48 733.30 220.63 743.00 220.79 C 745.97 221.39 746.42 224.78 747.59 227.05 C 742.22 236.50 732.81 242.66 725.70 250.69 C 728.79 250.86 731.99 250.45 735.00 251.33 C 737.90 252.45 738.31 256.99 735.51 258.47 C 733.12 259.63 730.33 259.06 727.78 259.28 C 735.90 265.32 745.30 270.29 750.93 279.03 C 752.38 282.26 748.95 285.18 745.95 285.38 C 739.97 285.77 733.96 285.14 727.97 285.37 C 721.33 285.05 714.64 285.98 708.05 285.20 C 701.15 280.49 696.49 273.25 690.23 267.79 C 686.92 264.96 683.72 261.88 679.89 259.78 C 676.06 259.26 672.18 259.60 668.35 259.66 C 675.33 266.00 684.76 270.03 689.37 278.69 C 691.18 282.31 688.03 286.70 684.00 285.92 C 674.00 285.52 664.02 286.95 654.04 286.22 C 646.53 283.12 639.16 279.28 632.74 274.22 C 627.55 269.85 621.96 265.98 616.82 261.56 C 605.54 262.35 594.28 261.02 583.01 260.99 C 575.08 262.19 567.07 262.53 559.10 263.38 C 549.43 264.39 539.66 263.30 530.03 264.73 C 519.37 265.60 508.67 266.17 497.98 266.34 C 481.75 268.03 465.39 268.81 449.06 268.50 C 425.10 266.36 401.02 267.01 377.00 266.87 C 365.01 265.87 353.00 266.81 341.01 266.71 C 325.05 267.91 309.03 266.61 293.07 267.70 C 286.23 267.88 279.47 269.13 272.63 269.20 C 272.44 273.32 272.86 277.49 272.32 281.59 C 271.05 284.01 269.13 287.13 266.11 287.28 C 259.50 286.24 253.63 282.67 247.09 281.36 C 241.93 280.19 236.88 278.44 232.28 275.81 C 228.85 273.84 224.88 273.22 221.38 271.46 C 218.54 269.77 218.95 265.07 221.99 263.84 C 231.52 260.49 239.31 253.85 248.08 249.03 C 251.27 247.16 254.72 245.76 257.96 243.99 C 260.51 242.62 261.81 239.80 264.22 238.28 C 266.68 236.81 270.60 238.00 271.11 241.02 C 272.18 246.24 272.58 251.60 272.51 256.92 C 279.39 257.07 286.18 255.62 293.05 255.55 C 306.71 254.61 320.41 255.48 334.08 254.91 C 341.73 254.24 349.41 254.77 357.06 254.34 C 364.38 253.99 371.70 254.37 379.00 254.78 C 400.34 254.95 421.71 254.51 443.02 255.94 C 456.00 257.28 469.04 256.09 482.04 255.64 C 489.06 255.56 495.95 253.86 502.99 254.16 C 512.99 253.68 523.02 253.47 532.97 252.25 C 538.96 251.58 545.00 251.99 551.01 251.71 C 560.05 251.35 568.94 249.17 578.01 249.21 C 590.74 248.75 603.32 251.58 616.06 250.62 C 625.17 242.99 630.32 231.91 638.23 223.22 C 640.13 220.87 643.31 221.09 646.03 221.08 M 643.62 229.40 C 638.98 235.59 634.22 241.75 630.20 248.34 C 629.88 248.61 629.23 249.14 628.91 249.41 C 636.54 249.89 644.19 249.50 651.84 249.70 C 653.99 246.33 656.49 243.19 659.27 240.31 C 662.90 236.65 665.72 232.30 668.95 228.30 C 660.50 228.54 652.09 229.67 643.62 229.40 M 728.60 229.86 C 720.81 230.68 713.00 231.00 705.17 230.95 C 702.67 234.50 700.08 237.99 697.63 241.57 C 695.29 245.21 691.89 248.01 689.62 251.70 C 698.62 251.65 707.87 252.76 716.56 249.81 C 717.38 248.00 718.31 246.19 719.76 244.79 C 724.76 239.89 729.92 235.16 734.87 230.20 C 734.27 227.86 729.82 228.44 728.60 229.86 M 233.89 267.35 C 238.37 270.00 243.21 272.42 248.41 273.07 C 248.69 274.81 252.01 274.87 252.94 273.52 C 255.84 276.41 260.41 276.96 264.24 278.12 C 264.32 273.77 264.98 269.24 263.96 265.01 C 263.71 264.81 263.20 264.41 262.95 264.21 L 263.82 264.35 L 264.34 264.02 C 264.53 259.75 265.53 255.29 264.12 251.14 L 263.85 250.18 C 253.27 254.84 243.71 261.34 233.89 267.35 M 628.29 259.09 L 629.47 259.68 C 628.94 261.29 629.50 262.01 631.16 261.85 L 631.22 262.54 C 635.93 265.91 640.11 270.04 645.28 272.75 C 649.88 275.18 654.58 278.24 660.00 278.04 C 665.48 278.05 671.05 278.08 676.42 276.85 C 675.33 275.48 674.01 274.30 672.58 273.32 C 666.31 269.12 660.42 264.38 654.79 259.37 C 651.02 259.14 647.25 259.32 643.51 259.71 C 638.45 259.26 633.36 259.19 628.29 259.09 M 694.37 259.95 C 698.86 263.99 703.51 267.86 707.99 271.92 C 709.70 273.38 710.78 275.38 711.79 277.36 C 720.51 276.85 729.26 277.37 738.00 276.94 C 731.73 271.10 723.54 267.74 717.68 261.41 C 716.38 260.21 715.01 258.28 712.95 259.13 C 706.83 260.40 700.56 259.76 694.37 259.95 Z" />
</g>
<g id="#79cfc9ff">
<path fill="#79cfc9" opacity="1.00" d=" M 643.62 229.40 C 652.09 229.67 660.50 228.54 668.95 228.30 C 665.72 232.30 662.90 236.65 659.27 240.31 C 656.49 243.19 653.99 246.33 651.84 249.70 C 644.19 249.50 636.54 249.89 628.91 249.41 C 629.23 249.14 629.88 248.61 630.20 248.34 C 634.22 241.75 638.98 235.59 643.62 229.40 Z" />
<path fill="#79cfc9" opacity="1.00" d=" M 705.17 230.95 C 713.00 231.00 720.81 230.68 728.60 229.86 C 730.68 229.96 732.76 230.40 734.87 230.20 C 729.92 235.16 724.76 239.89 719.76 244.79 C 718.31 246.19 717.38 248.00 716.56 249.81 C 707.87 252.76 698.62 251.65 689.62 251.70 C 691.89 248.01 695.29 245.21 697.63 241.57 C 700.08 237.99 702.67 234.50 705.17 230.95 Z" />
<path fill="#79cfc9" opacity="1.00" d=" M 628.29 259.09 C 633.36 259.19 638.45 259.26 643.51 259.71 C 647.26 260.37 651.05 259.90 654.79 259.37 C 660.42 264.38 666.31 269.12 672.58 273.32 C 674.01 274.30 675.33 275.48 676.42 276.85 C 671.05 278.08 665.48 278.05 660.00 278.04 C 654.58 278.24 649.88 275.18 645.28 272.75 C 640.11 270.04 635.93 265.91 631.22 262.54 L 631.16 261.85 C 631.11 260.75 630.55 260.03 629.47 259.68 L 628.29 259.09 Z" />
<path fill="#79cfc9" opacity="1.00" d=" M 694.37 259.95 C 700.56 259.76 706.83 260.40 712.95 259.13 C 715.01 258.28 716.38 260.21 717.68 261.41 C 723.54 267.74 731.73 271.10 738.00 276.94 C 729.26 277.37 720.51 276.85 711.79 277.36 C 710.78 275.38 709.70 273.38 707.99 271.92 C 703.51 267.86 698.86 263.99 694.37 259.95 Z" />
</g>
<g id="#142322ad">
<path fill="#142322" opacity="0.68" d=" M 728.60 229.86 C 729.82 228.44 734.27 227.86 734.87 230.20 C 732.76 230.40 730.68 229.96 728.60 229.86 Z" />
</g>
<g id="#ffffffff">
<path fill="#ffffff" opacity="1.00" d=" M 233.89 267.35 C 243.71 261.34 253.27 254.84 263.85 250.18 L 264.12 251.14 C 264.39 253.99 264.28 256.87 264.42 259.73 C 263.16 260.91 261.90 262.08 260.65 263.27 C 261.22 263.50 262.38 263.97 262.95 264.21 C 263.20 264.41 263.71 264.81 263.96 265.01 C 264.98 269.24 264.32 273.77 264.24 278.12 C 260.41 276.96 255.84 276.41 252.94 273.52 L 252.66 273.13 C 251.25 272.88 249.82 273.01 248.41 273.07 C 243.21 272.42 238.37 270.00 233.89 267.35 Z" />
</g>
<g id="#375d5bcf">
<path fill="#375d5b" opacity="0.81" d=" M 643.51 259.71 C 647.25 259.32 651.02 259.14 654.79 259.37 C 651.05 259.90 647.26 260.37 643.51 259.71 Z" />
</g>
<g id="#538d8ac0">
<path fill="#538d8a" opacity="0.75" d=" M 629.47 259.68 C 630.55 260.03 631.11 260.75 631.16 261.85 C 629.50 262.01 628.94 261.29 629.47 259.68 Z" />
</g>
<g id="#3a3a3a8a">
<path fill="#3a3a3a" opacity="0.54" d=" M 248.41 273.07 C 249.82 273.01 251.25 272.88 252.66 273.13 L 252.94 273.52 C 252.01 274.87 248.69 274.81 248.41 273.07 Z" />
</g>
</svg>
