<?xml version="1.0" encoding="UTF-8" ?>
<!DOCTYPE svg PUBLIC "-//W3C//DTD SVG 1.1//EN" "http://www.w3.org/Graphics/SVG/1.1/DTD/svg11.dtd">
<svg width="840pt" height="525pt" viewBox="0 0 840 525" version="1.1" xmlns="http://www.w3.org/2000/svg">
<g id="#000000ff">
<path fill="#000000" opacity="1.00" d=" M 567.66 243.45 C 568.94 241.00 570.87 237.83 573.95 237.72 C 580.54 238.79 586.42 242.35 592.96 243.64 C 598.13 244.83 603.21 246.58 607.81 249.24 C 611.20 251.19 615.14 251.78 618.62 253.53 C 621.72 255.39 620.84 260.51 617.42 261.46 C 609.85 263.83 603.79 269.09 596.96 272.88 C 592.46 275.91 587.59 278.28 582.72 280.63 C 580.01 281.78 578.59 284.50 576.42 286.33 C 573.99 288.32 569.52 287.28 568.87 284.01 C 567.89 278.78 567.37 273.44 567.50 268.11 C 560.98 267.80 554.55 269.35 548.03 269.40 C 531.68 270.54 515.27 269.25 498.92 270.45 C 486.95 270.24 474.97 271.37 463.02 270.28 C 438.69 269.95 414.32 270.65 390.05 268.54 C 377.07 268.25 364.08 269.03 351.12 269.80 C 342.79 271.19 334.34 270.65 325.96 271.37 C 315.61 271.39 305.40 273.51 295.04 273.17 C 285.87 272.99 276.81 274.63 267.72 275.59 C 260.18 275.92 252.58 275.94 245.07 275.11 C 238.07 274.04 230.98 274.30 223.93 274.36 C 214.86 282.02 209.67 293.07 201.77 301.78 C 199.91 304.11 196.75 303.92 194.07 303.92 C 183.05 303.76 172.06 305.97 161.05 304.82 C 157.91 304.41 156.47 299.91 158.87 297.79 C 163.26 293.47 166.78 288.39 170.54 283.53 C 173.28 280.19 176.67 277.41 178.98 273.72 C 172.94 273.47 166.89 273.55 160.85 273.47 C 158.27 276.97 155.58 280.37 152.64 283.57 C 148.12 288.54 145.04 294.64 140.60 299.64 C 136.12 303.95 129.61 301.86 124.07 302.34 C 115.41 302.89 106.77 304.05 98.08 304.31 C 94.45 304.52 93.54 300.56 92.46 297.95 C 97.69 288.45 107.28 282.42 114.23 274.27 C 110.31 273.92 103.14 275.71 102.59 270.03 C 102.62 264.99 108.74 265.79 112.20 265.72 C 104.10 259.67 94.71 254.71 89.07 245.98 C 88.05 243.94 89.41 241.46 91.31 240.51 C 94.95 238.70 99.10 239.69 102.99 239.62 C 111.02 239.61 119.06 239.75 127.10 239.46 C 129.40 239.46 132.11 239.18 133.84 241.03 C 142.65 249.03 149.72 259.19 160.16 265.20 C 163.88 265.76 167.66 265.43 171.40 265.27 C 164.62 258.82 155.12 254.95 150.62 246.29 C 149.35 243.57 150.71 239.54 153.98 239.24 C 160.33 238.76 166.72 239.39 173.06 238.72 C 177.69 238.68 182.46 238.06 187.01 239.08 C 194.47 242.63 202.06 246.28 208.39 251.69 C 213.19 255.75 218.43 259.27 223.14 263.44 C 234.10 262.72 245.06 263.82 256.01 264.04 C 270.29 262.55 284.63 260.79 299.03 261.09 C 305.70 261.07 312.28 259.77 318.94 259.58 C 326.30 259.40 333.63 258.56 341.01 258.71 C 357.58 257.08 374.26 256.15 390.92 256.50 C 414.88 258.64 438.97 258.00 463.01 258.12 C 469.87 258.57 476.75 258.80 483.63 258.49 C 490.75 258.12 497.90 258.63 505.01 257.95 C 518.98 257.38 532.99 258.25 546.96 257.29 C 553.79 257.15 560.53 255.84 567.36 255.81 C 567.59 251.70 567.13 247.54 567.66 243.45 M 163.68 248.15 C 164.61 249.61 165.96 250.71 167.39 251.65 C 173.73 255.85 179.55 260.75 185.37 265.63 C 194.08 264.76 202.79 265.90 211.52 265.91 C 207.50 260.75 201.91 257.01 196.56 253.34 C 191.39 250.52 186.14 246.81 179.99 246.96 C 174.55 246.97 169.00 246.88 163.68 248.15 M 575.54 262.07 C 575.69 265.79 574.45 269.62 575.70 273.25 L 575.75 274.71 C 586.68 270.60 596.11 263.56 606.10 257.68 C 601.67 254.93 596.79 252.66 591.62 251.90 C 591.31 250.19 588.14 250.24 587.11 251.37 C 584.78 249.28 581.61 248.51 578.71 247.61 L 579.55 247.62 C 578.53 247.37 576.48 246.87 575.46 246.62 C 574.87 251.75 575.33 256.93 575.54 262.07 M 102.09 248.29 C 108.51 253.89 116.55 257.39 122.40 263.67 C 123.64 264.83 124.98 266.71 126.96 265.90 C 133.05 264.52 139.30 265.31 145.47 265.01 C 140.94 260.69 135.99 256.83 131.44 252.52 C 129.96 251.18 129.08 249.36 128.19 247.61 C 119.50 248.33 110.75 247.32 102.09 248.29 M 123.37 275.24 C 121.84 279.73 117.71 282.36 114.57 285.63 C 111.64 288.66 108.44 291.39 105.48 294.37 L 104.58 294.19 C 105.37 297.66 109.64 295.26 112.08 295.25 C 119.63 294.07 127.25 294.16 134.86 294.01 C 137.64 290.05 140.51 286.16 143.25 282.17 C 145.39 279.04 148.53 276.68 150.26 273.26 C 141.28 273.40 132.03 272.20 123.37 275.24 M 188.18 275.28 C 183.17 282.96 176.14 289.02 171.10 296.70 C 179.52 296.34 187.95 295.57 196.37 295.43 C 201.62 289.10 206.13 282.18 210.85 275.45 C 203.30 275.25 195.74 275.46 188.18 275.28 Z" />
</g>
<g id="#79cfc9ff">
<path fill="#79cfc9" opacity="1.00" d=" M 163.68 248.15 C 169.00 246.88 174.55 246.97 179.99 246.96 C 186.14 246.81 191.39 250.52 196.56 253.34 C 201.91 257.01 207.50 260.75 211.52 265.91 C 202.79 265.90 194.08 264.76 185.37 265.63 C 179.55 260.75 173.73 255.85 167.39 251.65 C 165.96 250.71 164.61 249.61 163.68 248.15 Z" />
<path fill="#79cfc9" opacity="1.00" d=" M 102.09 248.29 C 110.75 247.32 119.50 248.33 128.19 247.61 C 129.08 249.36 129.96 251.18 131.44 252.52 C 135.99 256.83 140.94 260.69 145.47 265.01 C 139.30 265.31 133.05 264.52 126.96 265.90 C 124.98 266.71 123.64 264.83 122.40 263.67 C 116.55 257.39 108.51 253.89 102.09 248.29 Z" />
<path fill="#79cfc9" opacity="1.00" d=" M 123.37 275.24 C 132.03 272.20 141.28 273.40 150.26 273.26 C 148.53 276.68 145.39 279.04 143.25 282.17 C 140.51 286.16 137.64 290.05 134.86 294.01 C 127.25 294.16 119.63 294.07 112.08 295.25 C 109.84 295.26 107.65 294.83 105.48 294.37 C 108.44 291.39 111.64 288.66 114.57 285.63 C 117.71 282.36 121.84 279.73 123.37 275.24 Z" />
<path fill="#79cfc9" opacity="1.00" d=" M 188.18 275.28 C 195.74 275.46 203.30 275.25 210.85 275.45 C 206.13 282.18 201.62 289.10 196.37 295.43 C 187.95 295.57 179.52 296.34 171.10 296.70 C 176.14 289.02 183.17 282.96 188.18 275.28 Z" />
</g>
<g id="#ffffffff">
<path fill="#ffffff" opacity="1.00" d=" M 575.65 249.78 C 575.45 248.02 577.24 247.28 578.71 247.61 C 581.61 248.51 584.78 249.28 587.11 251.37 C 588.30 252.59 590.12 251.94 591.62 251.90 C 596.79 252.66 601.67 254.93 606.10 257.68 C 596.11 263.56 586.68 270.60 575.75 274.71 L 575.70 273.25 C 575.68 270.58 575.69 267.92 575.62 265.27 C 576.85 264.07 578.07 262.88 579.28 261.66 C 578.06 261.11 576.86 260.57 575.66 260.02 C 575.77 256.61 575.51 253.19 575.65 249.78 Z" />
</g>
<g id="#3a3a3a8a">
<path fill="#3a3a3a" opacity="0.54" d=" M 587.11 251.37 C 588.14 250.24 591.31 250.19 591.62 251.90 C 590.12 251.94 588.30 252.59 587.11 251.37 Z" />
</g>
<g id="#162625ac">
<path fill="#162625" opacity="0.67" d=" M 104.58 294.19 L 105.48 294.37 C 107.65 294.83 109.84 295.26 112.08 295.25 C 109.64 295.26 105.37 297.66 104.58 294.19 Z" />
</g>
</svg>
