<?xml version="1.0" encoding="UTF-8" ?>
<!DOCTYPE svg PUBLIC "-//W3C//DTD SVG 1.1//EN" "http://www.w3.org/Graphics/SVG/1.1/DTD/svg11.dtd">
<svg width="187pt" height="313pt" viewBox="0 0 187 313" version="1.1" xmlns="http://www.w3.org/2000/svg">
<g id="#000000ff">
<path fill="#000000" opacity="1.00" d=" M 158.64 11.47 C 165.45 8.95 170.94 3.15 178.32 2.26 C 180.56 6.66 181.49 11.55 182.72 16.29 C 185.02 25.70 184.16 35.44 184.07 45.02 C 184.06 51.01 183.35 56.97 183.36 62.96 C 183.19 75.43 180.72 87.70 179.21 100.03 C 179.12 103.34 177.08 106.10 176.07 109.15 C 175.75 110.63 174.15 110.91 173.03 111.57 C 167.26 107.72 161.51 103.59 155.04 100.99 C 149.77 99.88 144.31 99.86 138.96 99.29 C 133.30 98.20 127.73 96.48 121.93 96.25 C 115.69 95.95 109.42 96.20 103.19 96.65 C 103.94 109.76 105.75 122.81 105.61 135.98 C 105.69 149.67 105.48 163.37 105.71 177.07 C 106.77 185.11 105.55 193.41 108.35 201.18 C 109.11 210.79 109.07 220.46 109.44 230.10 C 110.60 241.01 109.93 252.00 110.06 262.95 C 109.62 271.02 109.95 279.23 107.74 287.08 C 106.59 289.84 108.83 293.13 106.62 295.53 C 105.92 299.10 105.88 302.84 104.72 306.31 C 103.68 309.18 100.20 309.38 97.63 309.07 C 96.52 308.91 95.41 308.90 94.31 309.04 C 90.79 309.41 87.30 308.69 83.82 308.32 C 82.29 306.17 80.73 303.83 80.75 301.08 C 80.54 295.73 80.73 290.37 80.75 285.01 C 80.86 280.29 79.21 275.75 79.33 271.03 C 79.38 254.35 79.04 237.66 79.99 221.01 C 81.74 205.72 81.05 190.30 82.33 174.99 C 82.16 167.93 82.74 160.82 81.82 153.80 C 81.54 145.51 82.15 137.15 80.62 128.96 C 79.91 116.54 77.65 104.31 76.81 91.91 C 66.81 91.46 56.86 92.68 47.05 94.48 C 41.64 94.50 36.79 97.02 31.64 98.28 C 25.95 99.50 21.47 103.47 16.93 106.85 C 14.65 108.47 12.20 111.55 9.08 110.19 C 6.81 107.77 7.40 104.07 6.80 101.03 C 5.57 83.36 5.04 65.64 4.88 47.94 C 4.04 35.95 4.82 23.93 4.35 11.93 C 3.81 8.78 6.83 7.04 8.89 5.33 C 14.31 8.67 20.54 10.50 25.52 14.60 C 29.00 17.66 33.76 17.70 38.02 18.81 C 43.55 20.40 49.38 19.20 54.96 20.46 C 61.41 22.06 68.27 21.11 74.55 23.58 C 74.86 17.56 73.67 11.31 75.76 5.51 C 81.59 5.88 87.25 4.34 92.99 3.73 C 97.67 4.64 104.04 3.31 106.85 8.19 C 108.09 12.56 107.34 17.21 107.55 21.70 C 113.69 21.89 119.72 20.56 125.83 20.27 C 128.09 20.12 130.23 19.30 132.39 18.69 C 135.87 17.74 139.63 18.33 143.04 17.03 C 148.09 14.74 153.71 14.11 158.64 11.47 M 83.74 9.61 C 82.03 14.20 79.65 18.67 80.19 23.75 C 87.06 24.19 93.80 22.32 100.67 22.78 C 100.69 18.34 100.65 13.90 100.72 9.46 C 95.26 8.11 89.08 7.62 83.74 9.61 M 156.24 20.10 C 156.41 22.76 155.91 25.64 157.31 28.04 C 157.48 30.03 157.39 32.08 158.19 33.94 C 158.47 35.95 158.28 38.10 159.21 39.96 C 159.73 44.26 159.16 48.66 160.16 52.91 C 159.91 56.58 160.97 60.52 159.59 64.00 C 159.75 64.77 160.06 66.31 160.22 67.08 C 159.38 70.69 159.99 74.46 159.20 78.09 C 158.53 80.01 158.43 82.05 158.17 84.05 C 157.40 87.08 156.76 90.14 156.10 93.19 C 157.28 94.26 158.71 94.84 160.31 94.87 C 164.11 97.23 168.11 99.49 172.45 100.65 C 173.13 98.44 173.64 96.20 173.87 93.91 C 175.72 87.07 176.25 79.96 176.86 72.93 C 177.71 69.69 177.35 66.31 177.52 63.01 C 177.91 51.02 177.63 39.03 177.69 27.04 C 177.88 22.83 175.85 19.00 174.74 15.04 C 174.51 13.78 174.31 12.53 174.13 11.27 C 168.72 15.27 162.40 17.54 156.24 20.10 M 10.71 70.43 L 11.31 70.58 C 11.11 76.73 11.59 82.87 11.58 89.02 C 11.76 91.91 11.29 94.92 12.25 97.71 C 12.42 99.04 12.58 100.37 12.73 101.70 C 13.40 99.22 15.62 97.87 17.66 96.64 C 18.27 96.57 19.49 96.44 20.10 96.38 C 23.49 94.84 27.09 93.82 30.67 92.81 C 30.48 92.11 30.09 90.70 29.90 89.99 C 29.59 88.99 29.26 88.00 28.93 87.00 C 28.57 85.70 28.23 84.39 27.84 83.10 C 27.37 76.69 25.41 70.46 25.31 64.01 C 24.29 55.33 24.57 46.53 25.93 37.90 C 26.48 32.91 27.48 27.96 27.75 22.95 C 26.51 22.67 25.29 22.35 24.08 21.98 C 19.35 19.72 15.43 16.13 10.57 14.11 C 10.07 32.88 10.85 51.66 10.71 70.43 M 127.08 26.18 C 123.02 26.37 119.01 26.92 115.01 27.55 C 110.43 37.32 105.06 46.68 99.57 55.96 C 100.47 58.29 101.25 60.67 101.79 63.11 C 104.30 71.61 108.87 79.29 112.99 87.08 C 120.10 86.96 126.84 89.80 133.93 89.88 C 138.44 89.89 142.90 90.53 147.33 91.30 C 149.78 88.64 152.55 85.84 153.08 82.09 C 155.57 71.70 154.48 60.94 154.52 50.37 C 154.74 40.46 151.27 30.95 150.78 21.13 C 142.90 22.94 135.02 24.68 127.08 26.18 M 33.56 24.19 C 32.09 30.35 31.40 36.67 31.34 42.99 C 29.88 53.59 29.91 64.51 32.11 75.01 C 32.42 80.50 33.81 85.83 35.92 90.90 C 45.76 88.16 56.02 87.30 66.14 86.21 C 68.56 82.58 70.64 78.73 73.27 75.24 C 77.75 69.28 80.35 62.19 84.57 56.08 C 83.68 51.07 80.65 46.92 78.75 42.30 C 76.79 37.86 73.57 33.74 73.57 28.67 C 66.36 27.85 59.12 27.22 51.99 25.84 C 47.70 25.07 43.18 26.34 39.01 24.87 C 37.20 24.58 35.38 24.37 33.56 24.19 M 103.68 28.44 C 98.22 40.27 91.21 51.28 84.60 62.47 C 80.74 70.81 75.47 78.33 70.23 85.84 C 73.20 86.09 76.19 86.24 79.17 86.26 C 87.92 65.69 102.08 47.98 110.92 27.46 C 108.48 27.55 106.05 27.84 103.68 28.44 M 92.48 42.17 C 95.14 37.73 97.38 33.05 99.93 28.55 C 96.40 28.59 92.88 28.64 89.35 28.67 C 88.41 33.49 91.14 37.74 92.48 42.17 M 76.77 29.64 C 79.90 36.91 83.42 44.01 86.87 51.13 C 88.24 49.70 89.66 48.13 89.93 46.08 C 88.81 40.46 85.33 35.47 85.17 29.62 C 82.37 29.65 79.57 29.65 76.77 29.64 M 94.68 64.55 C 98.00 71.71 101.08 79.00 103.57 86.50 C 105.34 86.59 107.11 86.68 108.89 86.79 C 104.34 78.17 99.87 69.48 97.25 60.05 C 96.46 61.53 94.91 62.89 94.68 64.55 M 92.07 68.05 C 90.06 72.93 87.22 77.38 84.61 81.95 C 84.53 82.71 84.45 83.48 84.38 84.25 C 89.51 83.64 94.72 85.97 99.70 84.56 C 96.86 79.19 95.16 73.30 92.07 68.05 M 84.54 91.85 C 84.49 103.27 84.45 114.70 85.52 126.07 C 88.66 148.91 86.36 172.07 88.27 195.01 C 88.31 202.54 88.24 210.07 88.29 217.60 C 92.99 217.02 97.76 217.49 102.43 216.71 C 101.99 209.83 102.83 202.88 101.71 196.04 C 100.78 186.36 100.80 176.63 99.59 166.99 C 98.42 155.69 98.66 144.33 98.62 132.99 C 98.71 119.46 99.72 105.72 96.66 92.41 C 92.61 92.31 88.58 92.03 84.54 91.85 M 90.69 222.34 C 92.02 224.81 93.74 227.03 95.83 228.90 C 98.26 226.74 100.75 224.66 103.15 222.48 C 99.00 222.53 94.84 222.50 90.69 222.34 M 88.49 225.36 C 87.77 229.38 87.23 233.44 87.25 237.54 C 89.48 235.63 91.59 233.58 93.48 231.33 C 91.67 229.46 90.01 227.46 88.49 225.36 M 98.08 231.12 C 99.51 233.37 101.22 235.44 103.31 237.13 C 103.44 233.92 103.14 230.72 102.45 227.60 C 100.95 228.73 99.50 229.90 98.08 231.12 M 87.96 242.06 C 91.40 245.45 94.71 249.02 98.50 252.04 C 100.30 248.70 102.05 245.33 103.67 241.91 C 100.84 239.54 98.20 236.94 95.98 233.99 C 93.05 236.42 90.43 239.17 87.96 242.06 M 86.57 247.11 C 86.52 251.08 86.30 255.05 85.74 258.99 C 85.34 260.74 85.70 262.51 86.73 263.98 C 89.19 260.33 92.06 256.96 95.55 254.25 C 92.68 251.80 90.59 247.69 86.57 247.11 M 99.94 255.04 C 101.25 256.72 102.65 258.34 104.15 259.85 C 104.28 256.36 104.14 252.86 104.25 249.37 C 102.79 251.24 101.34 253.12 99.94 255.04 M 97.24 257.13 C 93.43 259.92 90.72 263.81 88.39 267.85 C 90.81 270.40 93.37 272.82 96.02 275.13 C 98.65 271.90 102.26 269.10 103.72 265.12 C 102.07 262.08 99.52 259.69 97.24 257.13 M 85.45 269.60 C 85.11 275.21 85.20 280.90 86.54 286.39 C 89.34 283.88 91.42 280.73 93.75 277.82 C 91.05 275.01 88.25 272.30 85.45 269.60 M 98.45 277.77 C 99.47 279.91 101.14 281.61 102.67 283.38 C 103.50 279.55 103.46 275.63 103.48 271.74 C 101.71 273.65 99.69 275.43 98.45 277.77 M 89.04 289.02 C 90.55 290.40 92.11 291.72 93.73 292.98 C 96.01 291.06 98.54 289.46 101.19 288.11 C 99.79 285.29 98.00 282.69 96.02 280.24 C 93.68 283.16 91.38 286.10 89.04 289.02 M 87.50 297.71 C 87.92 299.65 88.40 301.58 88.95 303.50 C 92.73 303.75 96.52 303.72 100.30 303.49 C 100.47 301.48 100.64 299.46 100.82 297.46 C 96.37 297.29 91.94 297.51 87.50 297.71 Z" />
</g>
<g id="#9f7c53ff">
<path fill="#9f7c53" opacity="1.00" d=" M 83.74 9.61 C 89.08 7.62 95.26 8.11 100.72 9.46 C 100.65 13.90 100.69 18.34 100.67 22.78 C 93.80 22.32 87.06 24.19 80.19 23.75 C 79.65 18.67 82.03 14.20 83.74 9.61 Z" />
<path fill="#9f7c53" opacity="1.00" d=" M 84.54 91.85 C 88.58 92.03 92.61 92.31 96.66 92.41 C 99.72 105.72 98.71 119.46 98.62 132.99 C 98.66 144.33 98.42 155.69 99.59 166.99 C 100.80 176.63 100.78 186.36 101.71 196.04 C 102.83 202.88 101.99 209.83 102.43 216.71 C 97.76 217.49 92.99 217.02 88.29 217.60 C 88.24 210.07 88.31 202.54 88.27 195.01 C 86.36 172.07 88.66 148.91 85.52 126.07 C 84.45 114.70 84.49 103.27 84.54 91.85 Z" />
<path fill="#9f7c53" opacity="1.00" d=" M 87.50 297.71 C 91.94 297.51 96.37 297.29 100.82 297.46 C 100.64 299.46 100.47 301.48 100.30 303.49 C 96.52 303.72 92.73 303.75 88.95 303.50 C 88.40 301.58 87.92 299.65 87.50 297.71 Z" />
</g>
<g id="#ffffffff">
<path fill="#ffffff" opacity="1.00" d=" M 156.24 20.10 C 162.40 17.54 168.72 15.27 174.13 11.27 C 174.31 12.53 174.51 13.78 174.74 15.04 C 175.85 19.00 177.88 22.83 177.69 27.04 C 177.63 39.03 177.91 51.02 177.52 63.01 C 177.35 66.31 177.71 69.69 176.86 72.93 C 176.25 79.96 175.72 87.07 173.87 93.91 C 173.64 96.20 173.13 98.44 172.45 100.65 C 168.11 99.49 164.11 97.23 160.31 94.87 C 158.71 94.84 157.28 94.26 156.10 93.19 C 156.76 90.14 157.40 87.08 158.17 84.05 C 158.43 82.05 158.53 80.01 159.20 78.09 C 159.99 74.46 159.38 70.69 160.22 67.08 C 160.06 66.31 159.75 64.77 159.59 64.00 C 160.97 60.52 159.91 56.58 160.16 52.91 C 159.16 48.66 159.73 44.26 159.21 39.96 C 158.28 38.10 158.47 35.95 158.19 33.94 C 157.39 32.08 157.48 30.03 157.31 28.04 C 155.91 25.64 156.41 22.76 156.24 20.10 Z" />
<path fill="#ffffff" opacity="1.00" d=" M 10.71 70.43 C 10.85 51.66 10.07 32.88 10.57 14.11 C 15.43 16.13 19.35 19.72 24.08 21.98 C 25.29 22.35 26.51 22.67 27.75 22.95 C 27.48 27.96 26.48 32.91 25.93 37.90 C 24.57 46.53 24.29 55.33 25.31 64.01 C 25.41 70.46 27.37 76.69 27.84 83.10 C 28.23 84.39 28.57 85.70 28.93 87.00 C 29.26 88.00 29.59 88.99 29.90 89.99 C 30.09 90.70 30.48 92.11 30.67 92.81 C 27.09 93.82 23.49 94.84 20.10 96.38 C 19.49 96.44 18.27 96.57 17.66 96.64 C 15.62 97.87 13.40 99.22 12.73 101.70 C 12.58 100.37 12.42 99.04 12.25 97.71 C 11.29 94.92 11.76 91.91 11.58 89.02 C 11.59 82.87 11.11 76.73 11.31 70.58 L 10.71 70.43 Z" />
</g>
<g id="#cdcdcdff">
<path fill="#cdcdcd" opacity="1.00" d=" M 127.08 26.18 C 135.02 24.68 142.90 22.94 150.78 21.13 C 151.27 30.95 154.74 40.46 154.52 50.37 C 154.48 60.94 155.57 71.70 153.08 82.09 C 152.55 85.84 149.78 88.64 147.33 91.30 C 142.90 90.53 138.44 89.89 133.93 89.88 C 126.84 89.80 120.10 86.96 112.99 87.08 C 108.87 79.29 104.30 71.61 101.79 63.11 C 101.25 60.67 100.47 58.29 99.57 55.96 C 105.06 46.68 110.43 37.32 115.01 27.55 C 119.01 26.92 123.02 26.37 127.08 26.18 Z" />
<path fill="#cdcdcd" opacity="1.00" d=" M 33.56 24.19 C 35.38 24.37 37.20 24.58 39.01 24.87 C 43.18 26.34 47.70 25.07 51.99 25.84 C 59.12 27.22 66.36 27.85 73.57 28.67 C 73.57 33.74 76.79 37.86 78.75 42.30 C 80.65 46.92 83.68 51.07 84.57 56.08 C 80.35 62.19 77.75 69.28 73.27 75.24 C 70.64 78.73 68.56 82.58 66.14 86.21 C 56.02 87.30 45.76 88.16 35.92 90.90 C 33.81 85.83 32.42 80.50 32.11 75.01 C 29.91 64.51 29.88 53.59 31.34 42.99 C 31.40 36.67 32.09 30.35 33.56 24.19 Z" />
<path fill="#cdcdcd" opacity="1.00" d=" M 92.48 42.17 C 91.14 37.74 88.41 33.49 89.35 28.67 C 92.88 28.64 96.40 28.59 99.93 28.55 C 97.38 33.05 95.14 37.73 92.48 42.17 Z" />
<path fill="#cdcdcd" opacity="1.00" d=" M 92.07 68.05 C 95.16 73.30 96.86 79.19 99.70 84.56 C 94.72 85.97 89.51 83.64 84.38 84.25 C 84.45 83.48 84.53 82.71 84.61 81.95 C 87.22 77.38 90.06 72.93 92.07 68.05 Z" />
</g>
<g id="#684722ff">
<path fill="#684722" opacity="1.00" d=" M 103.68 28.44 C 106.05 27.84 108.48 27.55 110.92 27.46 C 102.08 47.98 87.92 65.69 79.17 86.26 C 76.19 86.24 73.20 86.09 70.23 85.84 C 75.47 78.33 80.74 70.81 84.60 62.47 C 91.21 51.28 98.22 40.27 103.68 28.44 Z" />
<path fill="#684722" opacity="1.00" d=" M 76.77 29.64 C 79.57 29.65 82.37 29.65 85.17 29.62 C 85.33 35.47 88.81 40.46 89.93 46.08 C 89.66 48.13 88.24 49.70 86.87 51.13 C 83.42 44.01 79.90 36.91 76.77 29.64 Z" />
<path fill="#684722" opacity="1.00" d=" M 94.68 64.55 C 94.91 62.89 96.46 61.53 97.25 60.05 C 99.87 69.48 104.34 78.17 108.89 86.79 C 107.11 86.68 105.34 86.59 103.57 86.50 C 101.08 79.00 98.00 71.71 94.68 64.55 Z" />
<path fill="#684722" opacity="1.00" d=" M 90.69 222.34 C 94.84 222.50 99.00 222.53 103.15 222.48 C 100.75 224.66 98.26 226.74 95.83 228.90 C 93.74 227.03 92.02 224.81 90.69 222.34 Z" />
<path fill="#684722" opacity="1.00" d=" M 88.49 225.36 C 90.01 227.46 91.67 229.46 93.48 231.33 C 91.59 233.58 89.48 235.63 87.25 237.54 C 87.23 233.44 87.77 229.38 88.49 225.36 Z" />
<path fill="#684722" opacity="1.00" d=" M 98.08 231.12 C 99.50 229.90 100.95 228.73 102.45 227.60 C 103.14 230.72 103.44 233.92 103.31 237.13 C 101.22 235.44 99.51 233.37 98.08 231.12 Z" />
<path fill="#684722" opacity="1.00" d=" M 87.96 242.06 C 90.43 239.17 93.05 236.42 95.98 233.99 C 98.20 236.94 100.84 239.54 103.67 241.91 C 102.05 245.33 100.30 248.70 98.50 252.04 C 94.71 249.02 91.40 245.45 87.96 242.06 Z" />
<path fill="#684722" opacity="1.00" d=" M 86.57 247.11 C 90.59 247.69 92.68 251.80 95.55 254.25 C 92.06 256.96 89.19 260.33 86.73 263.98 C 85.70 262.51 85.34 260.74 85.74 258.99 C 86.30 255.05 86.52 251.08 86.57 247.11 Z" />
<path fill="#684722" opacity="1.00" d=" M 99.94 255.04 C 101.34 253.12 102.79 251.24 104.25 249.37 C 104.14 252.86 104.28 256.36 104.15 259.85 C 102.65 258.34 101.25 256.72 99.94 255.04 Z" />
<path fill="#684722" opacity="1.00" d=" M 97.24 257.13 C 99.52 259.69 102.07 262.08 103.72 265.12 C 102.26 269.10 98.65 271.90 96.02 275.13 C 93.37 272.82 90.81 270.40 88.39 267.85 C 90.72 263.81 93.43 259.92 97.24 257.13 Z" />
<path fill="#684722" opacity="1.00" d=" M 85.45 269.60 C 88.25 272.30 91.05 275.01 93.75 277.82 C 91.42 280.73 89.34 283.88 86.54 286.39 C 85.20 280.90 85.11 275.21 85.45 269.60 Z" />
<path fill="#684722" opacity="1.00" d=" M 98.45 277.77 C 99.69 275.43 101.71 273.65 103.48 271.74 C 103.46 275.63 103.50 279.55 102.67 283.38 C 101.14 281.61 99.47 279.91 98.45 277.77 Z" />
<path fill="#684722" opacity="1.00" d=" M 89.04 289.02 C 91.38 286.10 93.68 283.16 96.02 280.24 C 98.00 282.69 99.79 285.29 101.19 288.11 C 98.54 289.46 96.01 291.06 93.73 292.98 C 92.11 291.72 90.55 290.40 89.04 289.02 Z" />
<path fill="#684722" opacity="1.00" d=" M 94.31 309.04 C 95.41 308.90 96.52 308.91 97.63 309.07 C 98.02 310.92 93.89 310.88 94.31 309.04 Z" />
</g>
</svg>
