<?xml version="1.0" encoding="UTF-8" ?>
<!DOCTYPE svg PUBLIC "-//W3C//DTD SVG 1.1//EN" "http://www.w3.org/Graphics/SVG/1.1/DTD/svg11.dtd">
<svg width="960pt" height="600pt" viewBox="0 0 960 600" version="1.1" xmlns="http://www.w3.org/2000/svg">
<g id="#e3ca88ff">
<path fill="#e1c25e" opacity="" d=" M 597.83 229.68 C 602.38 227.04 607.78 226.62 612.93 226.63 C 619.32 226.84 625.65 225.78 632.04 225.58 C 635.88 225.41 639.63 226.44 643.46 226.61 C 645.68 228.12 648.25 228.88 650.85 229.49 C 654.49 230.52 656.14 235.04 660.11 235.26 C 661.23 235.39 662.35 235.57 663.47 235.79 C 666.24 239.15 667.56 243.49 669.95 247.05 C 673.66 249.54 677.15 252.40 679.44 256.31 C 683.95 256.46 688.57 256.03 693.03 256.86 C 695.54 258.61 697.45 261.31 700.79 261.53 C 705.51 263.92 710.86 262.45 715.83 263.29 C 719.23 266.15 723.74 264.79 727.66 264.05 C 732.20 265.92 737.11 264.50 741.74 263.82 C 747.10 262.76 752.56 262.41 757.99 261.82 C 764.38 263.31 770.99 263.15 777.43 264.38 C 780.99 265.35 784.73 266.86 788.39 265.32 C 792.13 266.47 795.55 264.01 796.26 260.31 C 799.96 252.58 802.99 244.53 804.56 236.07 C 809.45 236.14 814.27 235.23 819.12 234.76 C 825.04 233.91 831.04 233.76 836.93 232.63 C 841.45 233.27 846.64 232.25 850.33 235.65 C 854.69 239.09 853.34 245.13 853.39 249.96 C 853.48 252.99 851.04 255.16 849.70 257.66 C 845.94 262.86 842.29 268.18 837.99 272.95 C 829.90 280.44 819.17 284.00 809.23 288.26 C 803.90 291.43 797.98 293.57 791.86 294.51 C 784.03 296.35 776.21 298.18 768.43 300.20 C 759.28 300.86 750.44 303.44 741.51 305.38 C 731.88 307.85 721.87 305.65 712.12 306.96 C 707.96 307.34 703.82 306.60 699.69 306.32 C 705.57 311.19 712.34 314.89 717.89 320.16 C 719.33 321.29 719.48 323.84 717.92 324.94 C 714.06 328.40 709.94 331.58 706.31 335.27 C 701.34 341.25 696.48 347.45 690.25 352.16 C 686.62 355.90 683.09 359.74 678.66 362.55 C 675.55 360.99 672.26 361.82 669.08 362.50 C 666.12 361.25 663.27 359.55 659.92 359.86 C 657.44 357.33 654.99 354.74 652.97 351.84 C 651.08 348.89 651.53 345.30 652.26 342.07 C 651.43 341.89 649.78 341.54 648.96 341.37 C 648.36 342.90 647.59 344.37 647.13 345.95 C 647.13 348.87 648.66 352.74 645.82 354.82 C 644.44 355.18 643.03 355.29 641.64 355.47 C 641.91 356.93 642.63 358.39 642.33 359.92 C 641.36 364.74 641.06 369.73 641.41 374.64 C 640.52 376.87 639.50 379.05 638.43 381.20 C 633.96 382.68 629.46 384.13 625.22 386.21 C 622.12 387.79 618.52 387.35 615.24 388.24 C 608.16 389.91 601.06 391.54 594.10 393.65 C 586.43 394.21 578.72 394.35 571.11 395.53 C 561.69 395.19 552.45 397.72 543.02 397.47 C 538.28 397.34 533.54 397.61 528.86 398.37 C 520.97 399.68 512.95 399.07 505.00 399.22 C 500.41 399.14 495.52 399.79 491.31 397.55 C 487.63 396.12 484.97 393.02 481.40 391.42 C 478.34 389.98 475.02 389.16 471.74 388.45 C 469.72 388.74 468.01 390.09 465.96 390.27 C 464.07 390.06 462.42 389.06 460.72 388.32 C 456.45 389.45 452.99 392.23 449.16 394.26 C 441.44 397.26 432.98 396.30 425.02 397.96 C 419.06 396.98 413.09 396.04 407.12 395.13 C 400.38 394.44 393.54 394.55 386.86 393.27 C 376.04 391.33 364.95 391.90 354.16 389.78 C 347.11 388.80 340.20 386.89 333.07 386.74 C 332.36 385.12 332.55 383.30 332.42 381.59 C 329.56 378.98 327.54 375.13 323.45 374.33 C 321.41 371.68 322.18 367.65 319.18 365.64 C 315.89 367.88 311.32 370.30 311.77 374.97 C 310.28 377.16 309.57 379.76 308.18 382.01 C 297.25 381.31 287.05 376.61 276.20 375.56 C 265.58 373.27 255.83 368.17 246.90 362.14 C 243.41 357.92 248.61 353.24 249.95 349.11 C 251.58 342.28 257.26 337.63 262.60 333.66 C 266.78 326.76 273.21 321.07 275.09 312.96 C 277.35 307.05 279.18 301.00 280.84 294.89 C 271.91 299.58 261.82 301.03 252.32 304.16 C 247.32 305.97 241.88 305.42 236.85 307.05 C 231.77 308.40 226.49 308.35 221.29 308.64 C 214.31 310.40 207.07 310.35 199.92 310.61 C 189.38 312.18 178.61 311.71 168.10 310.16 C 162.61 309.88 157.01 309.74 151.85 307.63 C 140.96 303.72 128.54 304.00 118.73 297.30 C 113.33 292.47 108.59 285.59 109.33 278.01 C 109.16 272.25 111.05 266.32 115.20 262.20 C 119.06 258.49 121.54 252.84 127.07 251.27 C 129.71 250.92 132.43 251.05 134.97 250.08 C 140.16 248.24 145.71 249.09 151.08 248.61 C 152.81 248.39 153.63 250.25 154.60 251.32 C 159.93 254.77 161.35 261.22 163.33 266.82 C 165.05 272.36 167.79 277.49 170.75 282.46 C 183.21 282.79 195.63 281.68 208.03 280.61 C 215.39 280.40 222.69 279.29 229.96 278.15 C 239.04 276.51 247.29 272.33 255.82 269.02 C 262.99 265.44 270.26 261.85 278.12 260.06 C 284.40 259.29 290.25 256.61 296.20 254.64 C 301.20 254.29 306.39 252.76 311.30 254.33 C 315.35 254.57 319.42 254.51 323.43 255.29 C 323.86 253.76 324.10 252.18 324.75 250.73 C 327.22 247.65 331.44 247.36 334.87 245.98 C 336.58 242.63 337.99 239.13 339.63 235.75 C 342.41 232.33 346.39 229.27 351.07 229.92 C 359.56 228.80 369.14 228.14 376.39 233.60 C 381.16 235.62 384.47 239.68 388.90 242.22 C 393.50 245.20 396.77 249.70 400.23 253.86 C 402.05 255.80 402.32 258.54 402.85 261.03 C 403.51 264.03 400.53 265.81 399.08 267.98 C 392.46 277.43 386.88 287.66 382.67 298.42 C 386.99 300.09 391.55 301.00 396.07 301.94 C 401.22 303.09 406.67 302.34 411.69 304.17 C 417.30 306.11 423.26 304.29 429.03 304.60 C 439.38 304.29 449.56 307.21 459.93 306.34 C 468.97 306.10 478.11 305.55 487.04 306.99 C 495.92 305.64 504.88 304.97 513.86 304.78 C 525.17 306.06 535.87 300.63 547.12 300.95 C 557.05 299.72 566.99 298.09 577.03 297.99 C 581.08 297.83 584.91 296.24 588.92 295.72 C 584.16 290.55 581.40 284.02 577.89 278.03 C 574.91 271.71 571.74 265.48 569.35 258.92 C 568.81 256.55 570.20 254.41 571.81 252.83 C 574.51 250.07 575.83 246.30 578.55 243.56 C 582.04 239.81 586.78 237.68 590.98 234.89 C 593.29 233.20 595.27 231.05 597.83 229.68 M 618.06 233.68 C 607.24 233.79 595.53 238.05 589.43 247.44 C 588.40 248.66 588.69 250.26 589.09 251.67 C 593.55 253.27 598.32 253.73 602.93 254.78 C 609.84 256.42 616.99 255.99 624.03 256.37 C 631.29 256.76 638.63 255.34 645.81 257.02 C 650.36 258.07 656.30 257.48 659.12 262.01 C 663.36 268.97 665.21 277.22 670.23 283.76 C 673.07 287.33 676.03 291.52 680.81 292.48 C 687.43 294.15 694.13 295.96 701.02 295.90 C 708.15 295.86 715.30 295.98 722.43 295.58 C 735.37 294.40 748.51 294.75 761.26 291.85 C 752.55 290.97 743.74 291.69 735.08 290.30 C 727.67 289.15 720.16 287.86 713.21 284.94 C 704.43 281.51 695.44 278.19 685.90 277.92 C 696.35 276.75 706.38 280.71 716.20 283.65 C 722.20 284.96 728.35 285.44 734.42 286.37 C 743.24 287.70 752.16 286.83 761.03 287.02 C 769.37 287.17 777.76 287.43 786.04 286.18 C 793.64 285.02 801.64 285.82 808.89 282.83 C 819.54 279.36 827.52 271.21 835.89 264.17 C 830.61 267.80 824.24 269.19 817.95 269.59 C 807.00 271.25 795.84 271.08 784.88 269.69 C 777.57 269.31 770.26 268.99 763.03 267.90 C 756.69 266.83 750.30 268.06 743.94 267.97 C 740.23 267.87 736.62 268.73 733.00 269.38 C 725.66 270.60 718.35 268.85 711.03 268.54 C 703.84 268.64 695.86 267.55 690.55 262.22 C 685.57 261.80 680.48 262.52 675.57 261.49 C 673.81 259.21 672.96 256.25 670.63 254.42 C 668.43 252.58 666.18 250.80 664.29 248.64 C 660.37 244.15 654.11 243.05 649.61 239.31 C 644.67 234.98 638.19 233.19 631.95 231.70 C 627.23 231.32 622.77 233.66 618.06 233.68 M 812.56 242.35 C 811.27 245.48 810.42 248.75 809.73 252.05 C 813.06 251.29 816.36 250.37 819.60 249.26 C 816.90 248.99 814.19 248.80 811.52 248.38 C 811.70 248.09 812.05 247.50 812.23 247.21 C 816.89 245.93 821.77 245.47 826.31 243.70 C 821.91 241.94 817.21 240.93 812.56 242.35 M 342.66 243.89 C 340.78 245.94 339.82 248.82 337.47 250.44 C 335.07 251.78 332.36 252.38 329.79 253.28 C 328.49 255.79 327.50 259.69 324.06 259.83 C 318.54 259.66 313.08 258.65 307.67 257.60 C 300.64 261.43 292.35 262.22 285.66 266.73 C 279.58 270.48 272.61 272.30 266.00 274.86 C 257.25 278.18 247.94 279.51 238.97 282.07 C 231.80 284.06 224.37 284.78 217.13 286.40 C 206.60 288.58 195.81 288.25 185.13 288.62 C 171.44 289.74 157.32 291.23 143.89 287.50 C 139.26 286.33 134.06 286.04 130.27 282.79 C 125.18 278.45 120.53 273.04 119.34 266.24 C 115.15 272.00 113.76 280.18 117.47 286.52 C 119.32 290.13 123.17 291.84 126.57 293.66 C 133.95 297.83 142.56 298.50 150.66 300.49 C 167.69 302.61 184.87 304.06 202.05 303.18 C 208.75 302.82 215.34 301.38 222.05 301.16 C 231.18 300.91 240.24 299.48 249.17 297.61 C 255.85 296.34 262.60 294.88 268.70 291.76 C 272.20 289.96 275.90 288.63 279.66 287.50 C 281.58 282.33 282.53 275.64 288.29 273.27 C 298.25 269.03 309.36 269.75 319.94 269.23 C 331.01 268.19 342.27 268.52 353.13 265.81 C 356.42 264.89 359.19 262.74 362.42 261.66 C 365.64 260.58 369.01 260.08 372.34 259.44 C 367.09 259.27 361.84 259.00 356.61 258.44 C 360.07 257.96 363.55 257.56 367.05 257.61 C 370.48 257.60 374.10 258.00 377.25 256.32 C 369.87 256.51 362.38 257.61 355.20 255.17 C 360.28 251.91 365.82 249.13 371.91 248.51 C 364.78 247.11 357.32 248.22 350.39 245.82 C 352.71 244.59 355.08 243.44 357.43 242.23 C 352.50 242.60 347.44 242.53 342.66 243.89 M 371.75 242.28 C 371.59 243.93 375.28 243.92 375.17 242.28 C 374.36 241.31 372.55 241.33 371.75 242.28 M 808.25 255.72 C 808.29 256.69 808.34 257.67 808.41 258.65 C 813.20 257.02 818.32 257.16 823.23 256.17 C 827.76 254.29 832.23 252.18 837.10 251.27 C 827.26 251.03 817.85 254.10 808.25 255.72 M 131.82 258.46 C 138.63 258.68 145.51 259.31 152.27 258.07 C 151.17 257.28 150.61 255.25 148.97 255.52 C 143.16 255.73 137.36 256.68 131.82 258.46 M 387.55 260.41 C 379.15 265.13 369.73 267.59 360.37 269.54 C 352.87 271.55 345.25 273.43 337.43 273.34 C 332.62 273.18 327.84 273.82 323.08 274.48 C 331.11 274.65 338.93 276.84 346.98 276.80 C 354.61 277.63 362.28 276.87 369.89 276.14 C 380.10 274.31 390.61 269.86 396.33 260.73 C 386.63 268.17 375.12 274.48 362.51 273.85 C 374.53 269.76 386.53 265.23 397.19 258.21 C 396.35 257.49 395.48 256.80 394.60 256.15 C 392.11 257.34 389.95 259.08 387.55 260.41 M 574.40 259.80 C 577.13 260.80 579.98 261.52 582.90 261.65 C 590.71 262.14 598.68 262.61 606.06 265.47 C 611.68 265.47 617.31 265.40 622.94 265.51 C 623.97 264.71 625.03 263.92 626.09 263.13 C 616.38 263.08 606.75 261.76 597.06 261.24 C 589.52 260.72 581.98 259.08 574.40 259.80 M 139.15 265.50 C 141.50 266.34 143.80 267.31 146.00 268.50 C 140.01 270.33 133.72 270.31 127.53 270.50 C 137.26 270.89 147.08 270.10 156.69 272.13 C 154.56 273.11 152.42 274.06 150.31 275.06 C 153.84 275.28 157.36 275.53 160.89 275.83 C 159.46 274.54 158.02 273.27 156.57 272.01 C 156.21 270.13 155.84 268.25 155.49 266.37 C 150.90 266.54 146.13 266.99 141.80 265.11 C 146.16 264.41 150.57 264.40 154.97 264.44 C 154.17 262.98 153.36 261.53 152.56 260.08 C 147.47 260.05 143.34 263.06 139.15 265.50 M 128.19 265.72 C 132.16 265.92 136.09 265.08 139.56 263.11 C 135.63 263.16 131.71 263.94 128.19 265.72 M 577.33 264.02 C 578.48 265.35 579.49 267.13 581.40 267.46 C 586.49 268.81 591.78 269.22 597.02 269.52 C 605.81 269.77 614.77 270.53 623.40 268.31 C 615.31 268.76 607.20 269.99 599.10 268.96 C 591.59 268.39 584.95 263.99 577.33 264.02 M 597.78 265.98 C 597.41 267.41 599.84 267.73 600.32 266.55 C 600.67 265.11 598.25 264.79 597.78 265.98 M 635.71 267.56 C 639.00 267.71 642.30 267.76 645.59 267.44 C 642.42 265.98 638.95 266.84 635.71 267.56 M 580.89 269.96 C 581.66 271.83 582.42 273.70 583.20 275.58 C 591.40 277.17 600.09 276.16 607.94 279.37 C 600.12 280.42 592.45 278.20 584.71 277.58 C 585.65 279.38 586.59 281.19 587.53 283.00 C 595.04 282.86 602.57 282.88 610.04 283.81 C 608.18 283.17 606.32 282.52 604.50 281.84 C 610.28 279.28 616.79 280.48 622.73 278.54 C 611.83 277.10 600.04 278.40 590.18 272.63 C 594.22 272.65 598.37 272.98 602.28 271.70 C 595.11 271.65 587.91 271.61 580.89 269.96 M 631.90 290.93 C 617.63 297.52 602.16 300.57 586.97 304.15 C 578.89 305.96 570.52 305.69 562.48 307.67 C 551.81 310.39 540.82 311.35 529.89 312.31 C 512.06 314.55 493.98 315.00 476.07 313.45 C 472.05 313.14 468.01 313.38 463.99 313.28 C 448.34 312.24 432.64 312.28 416.99 311.14 C 407.48 311.27 398.26 308.78 388.88 307.74 C 378.54 306.72 369.28 301.18 358.85 300.59 C 345.80 300.02 332.57 299.83 319.94 296.07 C 312.21 293.47 303.98 293.68 295.94 293.45 C 304.04 295.26 312.34 296.50 320.02 299.80 C 319.03 299.94 317.04 300.21 316.05 300.35 C 316.61 300.88 317.74 301.96 318.31 302.49 C 307.82 303.83 297.08 303.96 286.65 302.11 C 286.54 302.92 286.31 304.54 286.20 305.35 C 294.17 307.98 302.61 308.25 310.75 310.11 C 302.36 310.63 293.95 308.86 285.98 306.39 C 283.55 310.46 283.38 315.35 281.40 319.62 C 286.92 321.73 292.66 323.27 298.55 323.87 C 298.44 324.22 298.22 324.93 298.11 325.28 C 293.70 324.95 289.19 324.70 285.11 322.82 C 283.05 321.81 280.80 321.29 278.60 322.21 C 281.93 323.84 285.38 325.22 288.63 327.02 C 284.16 327.10 279.23 323.98 275.22 327.15 C 281.52 330.12 288.59 330.42 295.23 332.29 C 288.45 334.54 281.38 332.78 275.02 330.12 C 272.94 331.70 270.85 333.26 268.78 334.85 C 274.87 334.72 281.22 334.03 287.04 336.28 C 286.49 339.42 281.73 337.80 279.41 338.64 C 281.04 339.35 282.67 340.06 284.30 340.79 C 278.35 341.23 272.49 340.02 266.95 337.89 C 265.95 340.04 264.97 342.21 264.00 344.39 C 267.19 345.82 270.37 347.32 273.68 348.46 C 278.92 350.30 284.62 349.87 289.93 351.47 C 282.51 353.19 274.85 352.24 267.37 351.64 C 268.02 350.92 268.68 350.21 269.34 349.50 C 267.32 348.40 265.31 347.29 263.31 346.18 C 262.57 347.54 261.82 348.91 261.21 350.34 C 263.98 352.62 267.32 354.09 270.66 355.33 C 275.82 357.31 281.58 356.44 286.72 358.48 C 288.65 359.05 289.40 361.08 290.46 362.58 C 282.05 362.17 273.61 361.46 265.31 360.00 C 266.49 359.10 267.67 358.21 268.87 357.33 C 265.13 355.88 261.48 354.24 257.80 352.67 C 258.14 355.31 257.52 359.13 260.65 360.31 C 267.48 363.42 275.15 363.71 282.29 365.80 C 287.02 367.28 290.91 371.01 296.01 371.40 C 298.17 371.94 299.91 370.40 301.65 369.39 C 301.68 365.74 304.36 361.20 308.57 362.24 C 308.89 363.58 309.16 364.94 309.38 366.31 C 312.55 363.46 316.71 359.26 321.32 361.74 C 325.39 363.11 326.66 367.31 327.20 371.15 C 327.69 369.14 328.22 367.13 328.77 365.14 C 331.69 367.59 334.80 369.84 337.61 372.42 C 339.76 374.07 339.28 377.02 339.72 379.40 C 350.18 382.41 361.20 382.21 371.98 382.91 C 378.15 383.24 383.81 386.17 389.98 386.49 C 399.42 386.93 408.48 390.13 417.94 390.32 C 424.63 390.43 431.33 390.66 438.02 390.79 C 445.08 391.16 450.93 386.60 457.38 384.54 C 460.18 383.54 463.14 384.40 465.97 384.81 C 468.65 383.89 471.49 382.73 474.37 383.49 C 478.47 384.11 481.73 386.79 485.01 389.10 C 488.14 391.47 492.27 391.43 496.01 391.65 C 503.69 391.77 511.38 392.70 519.05 391.91 C 524.03 391.38 529.04 391.67 534.01 392.16 C 540.90 392.82 547.73 391.49 554.49 390.32 C 561.09 389.15 567.98 389.65 574.37 387.36 C 580.71 385.15 587.51 386.17 594.04 385.05 C 599.23 384.37 604.24 382.77 609.20 381.16 C 609.57 381.40 610.30 381.88 610.66 382.12 C 614.61 381.44 618.65 381.16 622.52 380.09 C 625.89 378.58 628.36 375.28 632.17 374.70 C 633.97 373.92 637.24 374.49 637.67 371.97 C 638.33 366.83 638.55 361.36 636.59 356.45 C 635.95 354.63 635.07 352.41 636.81 350.89 C 638.44 350.25 640.17 349.97 641.88 349.56 C 642.52 344.30 645.95 340.02 650.61 337.67 C 649.67 330.88 648.96 323.93 650.35 317.14 C 651.23 321.74 651.56 326.41 652.17 331.05 C 652.55 334.85 654.69 338.13 656.74 341.24 C 659.24 344.94 660.55 349.24 662.35 353.29 C 662.84 352.30 663.35 351.32 663.86 350.34 C 663.04 348.70 661.34 347.08 662.14 345.09 C 662.42 342.98 664.54 342.18 666.10 341.20 C 666.60 344.46 666.92 347.75 667.22 351.04 C 670.13 352.32 673.07 353.55 676.03 354.75 C 679.64 351.46 683.44 348.36 686.94 344.95 C 692.79 338.83 699.36 333.46 705.23 327.36 C 699.27 333.65 690.97 336.81 684.81 342.84 C 681.98 345.55 678.19 346.77 674.46 347.63 C 676.75 344.25 679.25 341.00 682.13 338.10 C 685.74 334.32 690.41 331.80 694.12 328.14 C 697.58 324.79 701.71 322.29 705.66 319.59 C 704.42 318.62 703.18 317.66 701.95 316.71 C 698.73 320.28 695.48 323.83 691.83 326.97 C 692.53 325.50 693.28 324.05 694.01 322.60 C 688.24 325.97 682.53 329.56 676.13 331.64 C 676.31 330.98 676.69 329.68 676.88 329.02 C 676.20 328.96 674.85 328.84 674.17 328.78 C 680.46 323.41 687.43 318.91 694.61 314.82 C 696.25 315.12 697.91 315.44 699.60 315.46 C 696.26 313.03 692.47 311.32 689.09 308.97 C 686.32 307.22 683.65 305.07 680.42 304.27 C 676.19 308.31 672.91 314.00 666.63 315.08 C 669.56 310.12 674.32 306.75 678.77 303.28 C 676.42 301.28 674.15 299.21 671.91 297.11 C 669.62 299.70 667.45 302.50 664.57 304.47 C 662.20 306.10 659.26 306.34 656.51 306.75 C 660.47 302.16 665.38 298.55 669.72 294.35 C 668.58 293.36 667.44 292.37 666.30 291.38 C 661.36 295.66 656.29 300.12 649.87 301.98 C 655.02 297.63 660.49 293.64 666.28 290.19 C 664.85 288.15 663.44 286.11 662.04 284.06 C 656.56 291.25 649.96 299.19 640.43 300.50 C 644.09 297.11 648.29 294.38 651.96 290.99 C 655.12 288.08 658.07 284.93 661.26 282.05 C 660.38 281.41 659.50 280.77 658.53 280.30 C 653.96 284.82 649.91 289.89 644.80 293.87 C 647.45 290.67 650.31 287.67 653.01 284.52 C 648.71 286.42 644.41 288.38 639.82 289.48 C 645.20 284.57 652.03 281.80 657.93 277.66 C 657.43 276.25 656.72 274.94 656.09 273.60 C 649.23 280.84 641.48 287.63 631.90 290.93 M 370.97 277.15 C 365.97 276.89 361.08 278.06 356.12 278.41 C 356.05 279.02 355.90 280.23 355.83 280.84 C 358.21 280.53 360.61 280.19 362.98 279.78 C 362.77 280.14 362.33 280.84 362.12 281.20 C 360.92 281.42 359.73 281.65 358.54 281.88 C 359.67 283.43 360.86 284.94 362.10 286.42 C 357.41 288.03 352.52 288.84 347.62 289.52 C 351.83 289.88 356.09 289.99 360.27 289.30 C 366.20 288.26 372.39 287.75 377.79 284.86 C 382.11 282.74 385.77 279.53 389.05 276.05 C 384.80 278.71 380.25 281.09 375.15 281.48 C 378.02 279.16 381.12 277.16 384.20 275.13 C 379.91 276.41 375.48 277.35 370.97 277.15 M 323.91 276.54 C 325.04 277.35 326.17 278.16 327.31 278.99 C 318.57 281.68 309.38 279.96 300.47 281.27 C 306.27 283.24 312.28 281.54 318.15 281.00 C 324.15 280.43 330.24 279.70 336.23 280.76 C 342.64 281.87 349.20 282.05 355.68 281.33 C 355.05 280.72 354.42 280.12 353.78 279.55 C 343.78 280.65 333.60 279.04 323.91 276.54 M 315.92 284.31 C 322.12 284.70 328.26 287.52 334.46 285.47 C 328.54 283.05 322.11 283.49 315.92 284.31 M 589.70 285.89 C 590.55 287.57 591.40 289.25 592.27 290.93 C 598.76 289.75 605.31 288.56 611.63 286.66 C 611.72 286.30 611.90 285.57 612.00 285.20 C 604.57 285.74 597.15 286.49 589.70 285.89 M 609.62 291.04 C 613.29 290.66 616.84 289.54 620.21 288.03 C 616.53 288.42 612.94 289.43 609.62 291.04 M 362.28 291.69 L 362.20 292.14 C 363.98 292.63 365.74 293.34 367.60 293.49 C 370.35 292.86 372.81 291.40 375.34 290.19 C 370.99 290.72 366.63 291.23 362.28 291.69 M 371.90 295.85 C 373.03 296.11 374.19 296.39 375.34 296.66 C 376.32 295.07 377.31 293.48 378.28 291.89 C 376.15 293.20 374.02 294.53 371.90 295.85 M 288.64 294.19 C 288.41 295.75 288.19 297.32 287.97 298.89 C 294.14 299.30 300.36 299.46 306.51 298.71 C 300.51 297.37 294.48 296.13 288.64 294.19 M 652.12 338.98 C 652.28 342.32 655.07 337.42 652.12 338.98 M 302.88 371.63 C 303.97 372.16 305.09 372.60 306.21 373.08 C 306.65 371.39 307.08 369.70 307.51 368.01 C 305.95 369.19 304.38 370.36 302.88 371.63 Z" />
<path fill="#e1c25e" opacity="1.00" d=" M 692.46 244.96 C 691.08 246.59 687.71 243.97 689.82 242.65 C 690.99 242.48 692.95 243.57 692.46 244.96 Z" />
<path fill="#e1c25e" opacity="1.00" d=" M 219.22 290.28 C 229.31 289.34 239.32 287.48 249.47 287.21 C 236.42 291.66 222.65 293.52 208.94 294.28 C 197.33 294.90 185.55 296.75 174.03 294.38 C 180.22 292.80 186.65 293.78 192.95 293.17 C 201.72 292.39 210.45 291.09 219.22 290.28 Z" />
<path fill="#e1c25e" opacity="1.00" d=" M 285.22 311.21 C 291.94 308.49 299.53 310.80 305.94 313.43 C 304.34 314.27 302.73 315.12 301.13 315.97 C 304.21 316.44 307.26 317.09 310.25 318.00 C 301.41 319.84 292.68 316.13 284.87 312.38 C 284.96 312.09 285.13 311.50 285.22 311.21 Z" />
<path fill="#e1c25e" opacity="1.00" d=" M 667.47 319.59 C 672.65 312.90 681.83 312.55 689.33 310.29 C 685.28 316.25 680.49 323.46 672.63 324.19 C 673.62 322.54 674.67 320.93 675.73 319.34 C 672.98 319.53 670.22 319.61 667.47 319.59 Z" />
<path fill="#e1c25e" opacity="1.00" d=" M 532.42 320.65 C 535.00 320.17 538.19 319.75 540.15 321.97 C 537.08 324.17 532.37 322.65 529.89 325.86 C 525.67 331.24 524.03 338.26 524.22 345.01 C 524.33 352.66 523.69 361.07 528.27 367.70 C 530.00 370.71 533.32 373.36 537.01 372.27 C 539.74 371.13 542.09 369.27 544.77 368.01 C 546.56 370.03 544.13 371.54 542.73 372.81 C 539.29 375.73 533.89 376.47 530.01 374.04 C 526.10 371.06 523.59 366.51 522.29 361.84 C 520.85 355.66 521.23 349.24 521.20 342.94 C 521.12 336.74 523.03 330.60 526.37 325.40 C 527.78 323.21 529.80 321.24 532.42 320.65 Z" />
<path fill="#e1c25e" opacity="1.00" d=" M 548.18 320.22 C 548.82 320.25 550.11 320.32 550.75 320.35 C 551.62 327.73 551.83 335.16 552.70 342.53 C 557.15 336.63 558.99 329.39 560.38 322.28 C 561.04 322.27 562.37 322.25 563.03 322.25 C 562.47 330.74 559.38 338.94 554.32 345.77 C 556.88 348.28 559.35 351.06 560.35 354.60 C 562.58 361.86 564.33 369.28 565.33 376.82 C 564.61 376.79 563.17 376.73 562.45 376.69 C 560.02 367.25 559.76 356.56 553.31 348.73 C 553.09 357.67 554.42 366.55 554.68 375.48 C 553.67 375.54 552.67 375.60 551.68 375.66 C 550.69 357.17 548.57 338.73 548.18 320.22 Z" />
<path fill="#e1c25e" opacity="1.00" d=" M 379.35 326.37 C 382.59 324.63 385.64 322.44 389.13 321.21 C 392.23 321.97 395.04 323.66 397.58 325.55 C 398.76 326.24 398.52 327.76 398.78 328.92 C 399.06 331.89 399.32 334.91 398.83 337.88 C 395.94 340.13 392.53 341.81 388.98 342.72 C 385.46 341.80 382.44 339.63 379.24 337.97 C 379.27 334.10 379.30 330.23 379.35 326.37 M 385.45 327.45 C 388.07 327.46 390.69 327.44 393.31 327.38 C 391.93 326.17 390.59 324.92 389.08 323.88 C 387.78 324.97 386.62 326.22 385.45 327.45 M 384.68 329.29 C 386.06 331.37 386.90 334.40 388.98 335.68 C 391.03 334.42 391.81 331.32 393.14 329.22 C 390.32 329.22 387.49 329.24 384.68 329.29 M 381.17 336.38 C 383.21 336.73 385.24 337.08 387.28 337.44 C 386.05 335.13 384.80 332.84 383.55 330.55 C 382.75 332.49 381.96 334.43 381.17 336.38 M 390.49 337.47 C 392.64 337.16 394.79 336.84 396.94 336.50 C 396.22 334.54 395.55 332.58 394.74 330.67 C 393.09 332.78 391.75 335.11 390.49 337.47 M 385.68 339.00 C 384.84 340.21 386.94 341.47 387.73 340.31 C 388.55 339.08 386.46 337.81 385.68 339.00 M 390.25 339.06 C 389.14 340.25 391.30 341.49 392.12 340.33 C 393.24 339.13 391.05 337.87 390.25 339.06 Z" />
<path fill="#e1c25e" opacity="1.00" d=" M 405.30 320.69 C 413.53 322.27 419.11 329.60 421.79 337.08 C 424.92 346.29 425.00 357.22 419.40 365.53 C 416.03 370.25 411.97 374.74 406.68 377.32 C 406.16 358.45 405.15 339.58 405.30 320.69 M 408.44 324.60 C 408.29 340.23 409.13 355.85 409.57 371.48 C 414.51 367.53 418.83 362.41 420.19 356.08 C 422.58 344.53 418.58 331.27 408.44 324.60 Z" />
<path fill="#e1c25e" opacity="1.00" d=" M 448.23 321.29 C 454.78 321.20 461.38 320.15 467.89 321.02 C 468.34 321.26 469.23 321.72 469.67 321.96 C 469.48 323.83 467.30 323.37 466.05 323.77 C 463.51 324.08 460.96 324.21 458.41 324.38 C 459.41 336.91 459.54 349.49 460.35 362.03 C 460.44 366.67 461.10 371.37 460.34 375.98 L 458.79 376.85 C 457.12 373.11 457.62 368.93 457.38 364.97 C 456.73 351.41 455.99 337.86 455.42 324.30 C 453.01 324.20 450.60 324.10 448.20 323.97 C 448.21 323.30 448.23 321.96 448.23 321.29 Z" />
<path fill="#e1c25e" opacity="1.00" d=" M 474.90 321.98 C 476.01 320.29 478.23 320.49 479.99 320.53 C 486.77 321.04 491.86 328.43 490.41 334.97 C 489.62 340.03 486.55 344.29 483.28 348.07 C 486.01 350.57 489.00 353.28 489.73 357.10 C 490.98 363.26 490.27 369.59 490.16 375.83 C 489.45 375.80 488.04 375.74 487.33 375.70 C 487.11 369.35 488.19 362.79 486.35 356.60 C 485.44 353.35 482.38 351.64 479.63 350.16 C 479.76 358.64 480.80 367.08 480.72 375.57 C 480.04 375.60 478.66 375.67 477.98 375.70 C 477.09 361.15 476.08 346.60 475.25 332.05 C 475.06 328.69 474.56 325.33 474.90 321.98 M 478.14 323.20 C 478.26 331.24 478.64 339.27 479.47 347.27 C 483.94 343.09 488.17 337.47 487.43 331.00 C 486.69 326.42 482.42 323.84 478.14 323.20 Z" />
<path fill="#e1c25e" opacity="1.00" d=" M 504.13 320.50 C 509.24 326.07 511.67 333.46 513.34 340.68 C 515.32 350.38 516.37 360.24 518.07 369.99 C 518.07 372.06 519.51 375.15 516.87 376.13 C 515.16 374.21 515.08 371.53 514.66 369.14 C 513.69 361.86 512.65 354.60 511.43 347.36 C 508.04 348.08 504.67 348.80 501.28 349.51 C 500.17 356.29 499.49 363.13 499.13 369.99 C 498.79 372.32 499.09 375.16 497.04 376.79 C 495.13 375.47 495.78 372.95 495.74 371.02 C 496.56 360.44 497.89 349.89 499.77 339.45 C 500.98 333.08 501.93 326.63 504.13 320.50 M 505.41 327.62 C 503.88 333.70 502.66 339.87 501.97 346.10 C 504.95 345.55 507.93 344.96 510.91 344.37 C 509.87 338.56 508.17 332.86 505.41 327.62 Z" />
<path fill="#e1c25e" opacity="1.00" d=" M 573.46 320.62 C 578.05 320.65 582.85 320.07 587.21 321.89 C 585.07 325.50 580.01 323.20 576.57 323.71 C 577.03 331.44 577.64 339.17 578.22 346.90 C 580.01 347.06 581.80 347.23 583.60 347.40 C 583.58 347.92 583.56 348.94 583.54 349.46 C 581.79 349.84 580.04 350.22 578.29 350.61 C 578.96 358.31 579.51 366.02 579.93 373.74 C 583.66 373.68 587.39 373.64 591.12 373.83 C 590.18 374.83 589.80 376.83 588.05 376.65 C 584.58 377.03 581.01 377.15 577.59 376.39 C 576.29 371.71 576.46 366.80 576.03 362.01 C 575.25 348.21 573.95 334.43 573.46 320.62 Z" />
<path fill="#e1c25e" opacity="1.00" d=" M 595.69 320.11 C 603.67 325.95 608.70 335.05 611.62 344.34 C 614.62 353.73 613.65 364.66 607.72 372.74 C 605.49 375.79 601.65 377.50 597.90 377.26 C 596.08 372.06 597.02 366.42 596.54 361.03 C 596.35 347.39 594.87 333.74 595.69 320.11 M 598.64 327.27 C 598.42 335.49 599.26 343.69 599.38 351.91 C 599.66 359.41 599.54 366.94 600.32 374.43 C 607.93 370.94 610.28 361.71 610.10 354.03 C 609.54 344.18 605.42 334.46 598.64 327.27 Z" />
<path fill="#e1c25e" opacity="1.00" d=" M 356.75 339.24 C 353.89 333.31 355.37 323.21 363.04 321.96 C 367.26 321.23 371.91 320.95 375.86 322.95 C 375.52 323.32 374.84 324.07 374.50 324.45 C 370.08 325.34 365.10 323.69 361.03 326.04 C 358.10 328.95 357.98 333.98 359.47 337.62 C 363.91 344.39 372.86 348.01 374.73 356.45 C 376.64 362.76 374.09 369.88 368.94 373.86 C 365.85 376.15 361.85 376.05 358.21 376.30 C 358.19 375.62 358.14 374.28 358.12 373.60 C 362.02 372.95 366.81 372.91 369.24 369.22 C 372.93 364.94 373.15 358.46 370.34 353.67 C 366.53 348.21 360.54 344.71 356.75 339.24 Z" />
<path fill="#e1c25e" opacity="1.00" d=" M 431.91 321.69 C 434.92 321.17 438.01 321.22 441.03 321.71 C 442.57 321.64 443.47 322.79 444.11 324.02 C 441.04 324.99 437.79 324.70 434.63 324.64 C 435.06 331.47 435.37 338.31 435.57 345.16 C 438.13 345.52 440.69 345.93 443.14 346.80 C 441.52 349.43 438.13 348.42 435.58 348.82 C 436.36 356.78 435.89 364.84 436.94 372.77 C 439.21 373.16 441.52 373.24 443.83 373.40 C 443.86 374.02 443.93 375.28 443.96 375.91 C 440.63 375.86 436.99 376.85 433.88 375.36 C 433.05 363.60 432.70 351.77 432.34 339.97 C 432.27 333.88 431.13 327.78 431.91 321.69 Z" />
<path fill="#e1c25e" opacity="1.00" d=" M 317.51 326.37 C 320.33 325.10 323.45 322.92 326.64 324.25 C 328.10 327.59 328.41 331.33 328.16 334.93 C 326.40 334.51 324.69 333.92 322.99 333.35 C 321.75 333.80 320.51 334.25 319.27 334.71 C 318.71 331.92 318.12 329.14 317.51 326.37 M 319.82 327.93 C 321.08 330.40 323.87 330.83 326.29 331.50 C 326.00 329.57 325.70 327.66 325.40 325.74 C 323.52 326.42 321.66 327.14 319.82 327.93 Z" />
<path fill="#e1c25e" opacity="1.00" d=" M 304.34 335.22 C 306.73 333.23 309.92 334.63 312.60 335.10 C 316.65 335.14 320.66 336.67 322.80 340.30 C 325.53 343.36 321.88 346.68 320.04 349.10 C 318.44 351.42 315.33 350.66 312.94 351.15 C 309.10 351.17 307.84 356.27 304.09 356.57 C 301.84 356.72 298.61 357.19 297.43 354.68 C 296.12 352.16 297.79 349.49 298.51 347.05 C 297.29 342.16 300.90 338.13 304.34 335.22 M 307.18 338.47 C 305.78 340.88 303.94 343.00 302.57 345.42 C 302.19 347.15 302.48 348.94 302.47 350.70 C 304.43 350.66 306.68 350.78 308.15 349.22 C 310.31 346.73 313.75 347.43 316.67 347.08 C 317.28 346.04 317.90 344.99 318.52 343.95 C 316.35 341.42 313.01 340.57 310.62 338.33 C 309.47 338.37 308.32 338.42 307.18 338.47 Z" />
<path fill="#e1c25e" opacity="1.00" d=" M 387.67 354.02 C 387.62 351.00 387.74 347.93 388.77 345.05 C 391.42 345.87 390.73 348.85 390.92 350.98 C 390.83 359.23 390.80 367.47 390.70 375.72 C 389.97 375.79 388.52 375.91 387.80 375.97 C 387.53 368.66 387.77 361.34 387.67 354.02 Z" />
</g>
<g id="#ffffffff">
<path fill="#ffffff" opacity="1.00" d=" M 618.06 233.68 C 622.77 233.66 627.23 231.32 631.95 231.70 C 638.19 233.19 644.67 234.98 649.61 239.31 C 654.11 243.05 660.37 244.15 664.29 248.64 C 666.18 250.80 668.43 252.58 670.63 254.42 C 672.96 256.25 673.81 259.21 675.57 261.49 C 680.48 262.52 685.57 261.80 690.55 262.22 C 695.86 267.55 703.84 268.64 711.03 268.54 C 718.35 268.85 725.66 270.60 733.00 269.38 C 736.62 268.73 740.23 267.87 743.94 267.97 C 750.30 268.06 756.69 266.83 763.03 267.90 C 770.26 268.99 777.57 269.31 784.88 269.69 C 795.84 271.08 807.00 271.25 817.95 269.59 C 824.24 269.19 830.61 267.80 835.89 264.17 C 827.52 271.21 819.54 279.36 808.89 282.83 C 801.64 285.82 793.64 285.02 786.04 286.18 C 777.76 287.43 769.37 287.17 761.03 287.02 C 752.16 286.83 743.24 287.70 734.42 286.37 C 728.35 285.44 722.20 284.96 716.20 283.65 C 706.38 280.71 696.35 276.75 685.90 277.92 C 695.44 278.19 704.43 281.51 713.21 284.94 C 720.16 287.86 727.67 289.15 735.08 290.30 C 743.74 291.69 752.55 290.97 761.26 291.85 C 748.51 294.75 735.37 294.40 722.43 295.58 C 715.30 295.98 708.15 295.86 701.02 295.90 C 694.13 295.96 687.43 294.15 680.81 292.48 C 676.03 291.52 673.07 287.33 670.23 283.76 C 665.21 277.22 663.36 268.97 659.12 262.01 C 656.30 257.48 650.36 258.07 645.81 257.02 C 638.63 255.34 631.29 256.76 624.03 256.37 C 616.99 255.99 609.84 256.42 602.93 254.78 C 598.32 253.73 593.55 253.27 589.09 251.67 C 588.69 250.26 588.40 248.66 589.43 247.44 C 595.53 238.05 607.24 233.79 618.06 233.68 Z" />
<path fill="#ffffff" opacity="1.00" d=" M 812.56 242.35 C 817.21 240.93 821.91 241.94 826.31 243.70 C 821.77 245.47 816.89 245.93 812.23 247.21 C 812.05 247.50 811.70 248.09 811.52 248.38 C 814.19 248.80 816.90 248.99 819.60 249.26 C 816.36 250.37 813.06 251.29 809.73 252.05 C 810.42 248.75 811.27 245.48 812.56 242.35 Z" />
<path fill="#ffffff" opacity="1.00" d=" M 342.66 243.89 C 347.44 242.53 352.50 242.60 357.43 242.23 C 355.08 243.44 352.71 244.59 350.39 245.82 C 357.32 248.22 364.78 247.11 371.91 248.51 C 365.82 249.13 360.28 251.91 355.20 255.17 C 362.38 257.61 369.87 256.51 377.25 256.32 C 374.10 258.00 370.48 257.60 367.05 257.61 C 363.55 257.56 360.07 257.96 356.61 258.44 C 361.84 259.00 367.09 259.27 372.34 259.44 C 369.01 260.08 365.64 260.58 362.42 261.66 C 359.19 262.74 356.42 264.89 353.13 265.81 C 342.27 268.52 331.01 268.19 319.94 269.23 C 309.36 269.75 298.25 269.03 288.29 273.27 C 282.53 275.64 281.58 282.33 279.66 287.50 C 275.90 288.63 272.20 289.96 268.70 291.76 C 262.60 294.88 255.85 296.34 249.17 297.61 C 240.24 299.48 231.18 300.91 222.05 301.16 C 215.34 301.38 208.75 302.82 202.05 303.18 C 184.87 304.06 167.69 302.61 150.66 300.49 C 142.56 298.50 133.95 297.83 126.57 293.66 C 123.17 291.84 119.32 290.13 117.47 286.52 C 113.76 280.18 115.15 272.00 119.34 266.24 C 120.53 273.04 125.18 278.45 130.27 282.79 C 134.06 286.04 139.26 286.33 143.89 287.50 C 157.32 291.23 171.44 289.74 185.13 288.62 C 195.81 288.25 206.60 288.58 217.13 286.40 C 224.37 284.78 231.80 284.06 238.97 282.07 C 247.94 279.51 257.25 278.18 266.00 274.86 C 272.61 272.30 279.58 270.48 285.66 266.73 C 292.35 262.22 300.64 261.43 307.67 257.60 C 313.08 258.65 318.54 259.66 324.06 259.83 C 327.50 259.69 328.49 255.79 329.79 253.28 C 332.36 252.38 335.07 251.78 337.47 250.44 C 339.82 248.82 340.78 245.94 342.66 243.89 M 219.22 290.28 C 210.45 291.09 201.72 292.39 192.95 293.17 C 186.65 293.78 180.22 292.80 174.03 294.38 C 185.55 296.75 197.33 294.90 208.94 294.28 C 222.65 293.52 236.42 291.66 249.47 287.21 C 239.32 287.48 229.31 289.34 219.22 290.28 Z" />
<path fill="#ffffff" opacity="1.00" d=" M 371.75 242.28 C 372.55 241.33 374.36 241.31 375.17 242.28 C 375.28 243.92 371.59 243.93 371.75 242.28 Z" />
<path fill="#ffffff" opacity="1.00" d=" M 808.25 255.72 C 817.85 254.10 827.26 251.03 837.10 251.27 C 832.23 252.18 827.76 254.29 823.23 256.17 C 818.32 257.16 813.20 257.02 808.41 258.65 C 808.34 257.67 808.29 256.69 808.25 255.72 Z" />
<path fill="#ffffff" opacity="1.00" d=" M 131.82 258.46 C 137.36 256.68 143.16 255.73 148.97 255.52 C 150.61 255.25 151.17 257.28 152.27 258.07 C 145.51 259.31 138.63 258.68 131.82 258.46 Z" />
<path fill="#ffffff" opacity="1.00" d=" M 387.55 260.41 C 389.95 259.08 392.11 257.34 394.60 256.15 C 395.48 256.80 396.35 257.49 397.19 258.21 C 386.53 265.23 374.53 269.76 362.51 273.85 C 375.12 274.48 386.63 268.17 396.33 260.73 C 390.61 269.86 380.10 274.31 369.89 276.14 C 362.28 276.87 354.61 277.63 346.98 276.80 C 338.93 276.84 331.11 274.65 323.08 274.48 C 327.84 273.82 332.62 273.18 337.43 273.34 C 345.25 273.43 352.87 271.55 360.37 269.54 C 369.73 267.59 379.15 265.13 387.55 260.41 Z" />
<path fill="#ffffff" opacity="1.00" d=" M 574.40 259.80 C 581.98 259.08 589.52 260.72 597.06 261.24 C 606.75 261.76 616.38 263.08 626.09 263.13 C 625.03 263.92 623.97 264.71 622.94 265.51 C 617.31 265.40 611.68 265.47 606.06 265.47 C 598.68 262.61 590.71 262.14 582.90 261.65 C 579.98 261.52 577.13 260.80 574.40 259.80 Z" />
<path fill="#ffffff" opacity="1.00" d=" M 139.15 265.50 C 143.34 263.06 147.47 260.05 152.56 260.08 C 153.36 261.53 154.17 262.98 154.97 264.44 C 150.57 264.40 146.16 264.41 141.80 265.11 C 146.13 266.99 150.90 266.54 155.49 266.37 C 155.84 268.25 156.21 270.13 156.57 272.01 C 158.02 273.27 159.46 274.54 160.89 275.83 C 157.36 275.53 153.84 275.28 150.31 275.06 C 152.42 274.06 154.56 273.11 156.69 272.13 C 147.08 270.10 137.26 270.89 127.53 270.50 C 133.72 270.31 140.01 270.33 146.00 268.50 C 143.80 267.31 141.50 266.34 139.15 265.50 Z" />
<path fill="#ffffff" opacity="1.00" d=" M 128.19 265.72 C 131.71 263.94 135.63 263.16 139.56 263.11 C 136.09 265.08 132.16 265.92 128.19 265.72 Z" />
<path fill="#ffffff" opacity="1.00" d=" M 577.33 264.02 C 584.95 263.99 591.59 268.39 599.10 268.96 C 607.20 269.99 615.31 268.76 623.40 268.31 C 614.77 270.53 605.81 269.77 597.02 269.52 C 591.78 269.22 586.49 268.81 581.40 267.46 C 579.49 267.13 578.48 265.35 577.33 264.02 Z" />
<path fill="#ffffff" opacity="1.00" d=" M 597.78 265.98 C 598.25 264.79 600.67 265.11 600.32 266.55 C 599.84 267.73 597.41 267.41 597.78 265.98 Z" />
<path fill="#ffffff" opacity="1.00" d=" M 635.71 267.56 C 638.95 266.84 642.42 265.98 645.59 267.44 C 642.30 267.76 639.00 267.71 635.71 267.56 Z" />
<path fill="#ffffff" opacity="1.00" d=" M 580.89 269.96 C 587.91 271.61 595.11 271.65 602.28 271.70 C 598.37 272.98 594.22 272.65 590.18 272.63 C 600.04 278.40 611.83 277.10 622.73 278.54 C 616.79 280.48 610.28 279.28 604.50 281.84 C 606.32 282.52 608.18 283.17 610.04 283.81 C 602.57 282.88 595.04 282.86 587.53 283.00 C 586.59 281.19 585.65 279.38 584.71 277.58 C 592.45 278.20 600.12 280.42 607.94 279.37 C 600.09 276.16 591.40 277.17 583.20 275.58 C 582.42 273.70 581.66 271.83 580.89 269.96 Z" />
<path fill="#ffffff" opacity="1.00" d=" M 631.90 290.93 C 641.48 287.63 649.23 280.84 656.09 273.60 C 656.72 274.94 657.43 276.25 657.93 277.66 C 652.03 281.80 645.20 284.57 639.82 289.48 C 644.41 288.38 648.71 286.42 653.01 284.52 C 650.31 287.67 647.45 290.67 644.80 293.87 C 649.91 289.89 653.96 284.82 658.53 280.30 C 659.50 280.77 660.38 281.41 661.26 282.05 C 658.07 284.93 655.12 288.08 651.96 290.99 C 648.29 294.38 644.09 297.11 640.43 300.50 C 649.96 299.19 656.56 291.25 662.04 284.06 C 663.44 286.11 664.85 288.15 666.28 290.19 C 660.49 293.64 655.02 297.63 649.87 301.98 C 656.29 300.12 661.36 295.66 666.30 291.38 C 667.44 292.37 668.58 293.36 669.72 294.35 C 665.38 298.55 660.47 302.16 656.51 306.75 C 659.26 306.34 662.20 306.10 664.57 304.47 C 667.45 302.50 669.62 299.70 671.91 297.11 C 674.15 299.21 676.42 301.28 678.77 303.28 C 674.32 306.75 669.56 310.12 666.63 315.08 C 672.91 314.00 676.19 308.31 680.42 304.27 C 683.65 305.07 686.32 307.22 689.09 308.97 C 692.47 311.32 696.26 313.03 699.60 315.46 C 697.91 315.44 696.25 315.12 694.61 314.82 C 687.43 318.91 680.46 323.41 674.17 328.78 C 674.85 328.84 676.20 328.96 676.88 329.02 C 676.69 329.68 676.31 330.98 676.13 331.64 C 682.53 329.56 688.24 325.97 694.01 322.60 C 693.28 324.05 692.53 325.50 691.83 326.97 C 695.48 323.83 698.73 320.28 701.95 316.71 C 703.18 317.66 704.42 318.62 705.66 319.59 C 701.71 322.29 697.58 324.79 694.12 328.14 C 690.41 331.80 685.74 334.32 682.13 338.10 C 679.25 341.00 676.75 344.25 674.46 347.63 C 678.19 346.77 681.98 345.55 684.81 342.84 C 690.97 336.81 699.27 333.65 705.23 327.36 C 699.36 333.46 692.79 338.83 686.94 344.95 C 683.44 348.36 679.64 351.46 676.03 354.75 C 673.07 353.55 670.13 352.32 667.22 351.04 C 666.92 347.75 666.60 344.46 666.10 341.20 C 664.54 342.18 662.42 342.98 662.14 345.09 C 661.34 347.08 663.04 348.70 663.86 350.34 C 663.35 351.32 662.84 352.30 662.35 353.29 C 660.55 349.24 659.24 344.94 656.74 341.24 C 654.69 338.13 652.55 334.85 652.17 331.05 C 651.56 326.41 651.23 321.74 650.35 317.14 C 648.96 323.93 649.67 330.88 650.61 337.67 C 645.95 340.02 642.52 344.30 641.88 349.56 C 640.17 349.97 638.44 350.25 636.81 350.89 C 635.07 352.41 635.95 354.63 636.59 356.45 C 638.55 361.36 638.33 366.83 637.67 371.97 C 637.24 374.49 633.97 373.92 632.17 374.70 C 628.36 375.28 625.89 378.58 622.52 380.09 C 618.65 381.16 614.61 381.44 610.66 382.12 C 610.30 381.88 609.57 381.40 609.20 381.16 C 604.24 382.77 599.23 384.37 594.04 385.05 C 587.51 386.17 580.71 385.15 574.37 387.36 C 567.98 389.65 561.09 389.15 554.49 390.32 C 547.73 391.49 540.90 392.82 534.01 392.16 C 529.04 391.67 524.03 391.38 519.05 391.91 C 511.38 392.70 503.69 391.77 496.01 391.65 C 492.27 391.43 488.14 391.47 485.01 389.10 C 481.73 386.79 478.47 384.11 474.37 383.49 C 471.49 382.73 468.65 383.89 465.97 384.81 C 463.14 384.40 460.18 383.54 457.38 384.54 C 450.93 386.60 445.08 391.16 438.02 390.79 C 431.33 390.66 424.63 390.43 417.94 390.32 C 408.48 390.13 399.42 386.93 389.98 386.49 C 383.81 386.17 378.15 383.24 371.98 382.91 C 361.20 382.21 350.18 382.41 339.72 379.40 C 339.28 377.02 339.76 374.07 337.61 372.42 C 334.80 369.84 331.69 367.59 328.77 365.14 C 328.22 367.13 327.69 369.14 327.20 371.15 C 326.66 367.31 325.39 363.11 321.32 361.74 C 316.71 359.26 312.55 363.46 309.38 366.31 C 309.16 364.94 308.89 363.58 308.57 362.24 C 304.36 361.20 301.68 365.74 301.65 369.39 C 299.91 370.40 298.17 371.94 296.01 371.40 C 290.91 371.01 287.02 367.28 282.29 365.80 C 275.15 363.71 267.48 363.42 260.65 360.31 C 257.52 359.13 258.14 355.31 257.80 352.67 C 261.48 354.24 265.13 355.88 268.87 357.33 C 267.67 358.21 266.49 359.10 265.31 360.00 C 273.61 361.46 282.05 362.17 290.46 362.58 C 289.40 361.08 288.65 359.05 286.72 358.48 C 281.58 356.44 275.82 357.31 270.66 355.33 C 267.32 354.09 263.98 352.62 261.21 350.34 C 261.82 348.91 262.57 347.54 263.31 346.18 C 265.31 347.29 267.32 348.40 269.34 349.50 C 268.68 350.21 268.02 350.92 267.37 351.64 C 274.85 352.24 282.51 353.19 289.93 351.47 C 284.62 349.87 278.92 350.30 273.68 348.46 C 270.37 347.32 267.19 345.82 264.00 344.39 C 264.97 342.21 265.95 340.04 266.95 337.89 C 272.49 340.02 278.35 341.23 284.30 340.79 C 282.67 340.06 281.04 339.35 279.41 338.64 C 281.73 337.80 286.49 339.42 287.04 336.28 C 281.22 334.03 274.87 334.72 268.78 334.85 C 270.85 333.26 272.94 331.70 275.02 330.12 C 281.38 332.78 288.45 334.54 295.23 332.29 C 288.59 330.42 281.52 330.12 275.22 327.15 C 279.23 323.98 284.16 327.10 288.63 327.02 C 285.38 325.22 281.93 323.84 278.60 322.21 C 280.80 321.29 283.05 321.81 285.11 322.82 C 289.19 324.70 293.70 324.95 298.11 325.28 C 298.22 324.93 298.44 324.22 298.55 323.87 C 292.66 323.27 286.92 321.73 281.40 319.62 C 283.38 315.35 283.55 310.46 285.98 306.39 C 293.95 308.86 302.36 310.63 310.75 310.11 C 302.61 308.25 294.17 307.98 286.20 305.35 C 286.31 304.54 286.54 302.92 286.65 302.11 C 297.08 303.96 307.82 303.83 318.31 302.49 C 317.74 301.96 316.61 300.88 316.05 300.35 C 317.04 300.21 319.03 299.94 320.02 299.80 C 312.34 296.50 304.04 295.26 295.94 293.45 C 303.98 293.68 312.21 293.47 319.94 296.07 C 332.57 299.83 345.80 300.02 358.85 300.59 C 369.28 301.18 378.54 306.72 388.88 307.74 C 398.26 308.78 407.48 311.27 416.99 311.14 C 432.64 312.28 448.34 312.24 463.99 313.28 C 468.01 313.38 472.05 313.14 476.07 313.45 C 493.98 315.00 512.06 314.55 529.89 312.31 C 540.82 311.35 551.81 310.39 562.48 307.67 C 570.52 305.69 578.89 305.96 586.97 304.15 C 602.16 300.57 617.63 297.52 631.90 290.93 M 285.22 311.21 C 285.13 311.50 284.96 312.09 284.87 312.38 C 292.68 316.13 301.41 319.84 310.25 318.00 C 307.26 317.09 304.21 316.44 301.13 315.97 C 302.73 315.12 304.34 314.27 305.94 313.43 C 299.53 310.80 291.94 308.49 285.22 311.21 M 667.47 319.59 C 670.22 319.61 672.98 319.53 675.73 319.34 C 674.67 320.93 673.62 322.54 672.63 324.19 C 680.49 323.46 685.28 316.25 689.33 310.29 C 681.83 312.55 672.65 312.90 667.47 319.59 M 532.42 320.65 C 529.80 321.24 527.78 323.21 526.37 325.40 C 523.03 330.60 521.12 336.74 521.20 342.94 C 521.23 349.24 520.85 355.66 522.29 361.84 C 523.59 366.51 526.10 371.06 530.01 374.04 C 533.89 376.47 539.29 375.73 542.73 372.81 C 544.13 371.54 546.56 370.03 544.77 368.01 C 542.09 369.27 539.74 371.13 537.01 372.27 C 533.32 373.36 530.00 370.71 528.27 367.70 C 523.69 361.07 524.33 352.66 524.22 345.01 C 524.03 338.26 525.67 331.24 529.89 325.86 C 532.37 322.65 537.08 324.17 540.15 321.97 C 538.19 319.75 535.00 320.17 532.42 320.65 M 548.18 320.22 C 548.57 338.73 550.69 357.17 551.68 375.66 C 552.67 375.60 553.67 375.54 554.68 375.48 C 554.42 366.55 553.09 357.67 553.31 348.73 C 559.76 356.56 560.02 367.25 562.45 376.69 C 563.17 376.73 564.61 376.79 565.33 376.82 C 564.33 369.28 562.58 361.86 560.35 354.60 C 559.35 351.06 556.88 348.28 554.32 345.77 C 559.38 338.94 562.47 330.74 563.03 322.25 C 562.37 322.25 561.04 322.27 560.38 322.28 C 558.99 329.39 557.15 336.63 552.70 342.53 C 551.83 335.16 551.62 327.73 550.75 320.35 C 550.11 320.32 548.82 320.25 548.18 320.22 M 379.35 326.37 C 379.30 330.23 379.27 334.10 379.24 337.97 C 382.44 339.63 385.46 341.80 388.98 342.72 C 392.53 341.81 395.94 340.13 398.83 337.88 C 399.32 334.91 399.06 331.89 398.78 328.92 C 398.52 327.76 398.76 326.24 397.58 325.55 C 395.04 323.66 392.23 321.97 389.13 321.21 C 385.64 322.44 382.59 324.63 379.35 326.37 M 405.30 320.69 C 405.15 339.58 406.16 358.45 406.68 377.32 C 411.97 374.74 416.03 370.25 419.40 365.53 C 425.00 357.22 424.92 346.29 421.79 337.08 C 419.11 329.60 413.53 322.27 405.30 320.69 M 448.23 321.29 C 448.23 321.96 448.21 323.30 448.20 323.97 C 450.60 324.10 453.01 324.20 455.42 324.30 C 455.99 337.86 456.73 351.41 457.38 364.97 C 457.62 368.93 457.12 373.11 458.79 376.85 L 460.34 375.98 C 461.10 371.37 460.44 366.67 460.35 362.03 C 459.54 349.49 459.41 336.91 458.41 324.38 C 460.96 324.21 463.51 324.08 466.05 323.77 C 467.30 323.37 469.48 323.83 469.67 321.96 C 469.23 321.72 468.34 321.26 467.89 321.02 C 461.38 320.15 454.78 321.20 448.23 321.29 M 474.90 321.98 C 474.56 325.33 475.06 328.69 475.25 332.05 C 476.08 346.60 477.09 361.15 477.98 375.70 C 478.66 375.67 480.04 375.60 480.72 375.57 C 480.80 367.08 479.76 358.64 479.63 350.16 C 482.38 351.64 485.44 353.35 486.35 356.60 C 488.19 362.79 487.11 369.35 487.33 375.70 C 488.04 375.74 489.45 375.80 490.16 375.83 C 490.27 369.59 490.98 363.26 489.73 357.10 C 489.00 353.28 486.01 350.57 483.28 348.07 C 486.55 344.29 489.62 340.03 490.41 334.97 C 491.86 328.43 486.77 321.04 479.99 320.53 C 478.23 320.49 476.01 320.29 474.90 321.98 M 504.13 320.50 C 501.93 326.63 500.98 333.08 499.77 339.45 C 497.89 349.89 496.56 360.44 495.74 371.02 C 495.78 372.95 495.13 375.47 497.04 376.79 C 499.09 375.16 498.79 372.32 499.13 369.99 C 499.49 363.13 500.17 356.29 501.28 349.51 C 504.67 348.80 508.04 348.08 511.43 347.36 C 512.65 354.60 513.69 361.86 514.66 369.14 C 515.08 371.53 515.16 374.21 516.87 376.13 C 519.51 375.15 518.07 372.06 518.07 369.99 C 516.37 360.24 515.32 350.38 513.34 340.68 C 511.67 333.46 509.24 326.07 504.13 320.50 M 573.46 320.62 C 573.95 334.43 575.25 348.21 576.03 362.01 C 576.46 366.80 576.29 371.71 577.59 376.39 C 581.01 377.15 584.58 377.03 588.05 376.65 C 589.80 376.83 590.18 374.83 591.12 373.83 C 587.39 373.64 583.66 373.68 579.93 373.74 C 579.51 366.02 578.96 358.31 578.29 350.61 C 580.04 350.22 581.79 349.84 583.54 349.46 C 583.56 348.94 583.58 347.92 583.60 347.40 C 581.80 347.23 580.01 347.06 578.22 346.90 C 577.64 339.17 577.03 331.44 576.57 323.71 C 580.01 323.20 585.07 325.50 587.21 321.89 C 582.85 320.07 578.05 320.65 573.46 320.62 M 595.69 320.11 C 594.87 333.74 596.35 347.39 596.54 361.03 C 597.02 366.42 596.08 372.06 597.90 377.26 C 601.65 377.50 605.49 375.79 607.72 372.74 C 613.65 364.66 614.62 353.73 611.62 344.34 C 608.70 335.05 603.67 325.95 595.69 320.11 M 356.75 339.24 C 360.54 344.71 366.53 348.21 370.34 353.67 C 373.15 358.46 372.93 364.94 369.24 369.22 C 366.81 372.91 362.02 372.95 358.12 373.60 C 358.14 374.28 358.19 375.62 358.21 376.30 C 361.85 376.05 365.85 376.15 368.94 373.86 C 374.09 369.88 376.64 362.76 374.73 356.45 C 372.86 348.01 363.91 344.39 359.47 337.62 C 357.98 333.98 358.10 328.95 361.03 326.04 C 365.10 323.69 370.08 325.34 374.50 324.45 C 374.84 324.07 375.52 323.32 375.86 322.95 C 371.91 320.95 367.26 321.23 363.04 321.96 C 355.37 323.21 353.89 333.31 356.75 339.24 M 431.91 321.69 C 431.13 327.78 432.27 333.88 432.34 339.97 C 432.70 351.77 433.05 363.60 433.88 375.36 C 436.99 376.85 440.63 375.86 443.96 375.91 C 443.93 375.28 443.86 374.02 443.83 373.40 C 441.52 373.24 439.21 373.16 436.94 372.77 C 435.89 364.84 436.36 356.78 435.58 348.82 C 438.13 348.42 441.52 349.43 443.14 346.80 C 440.69 345.93 438.13 345.52 435.57 345.16 C 435.37 338.31 435.06 331.47 434.63 324.64 C 437.79 324.70 441.04 324.99 444.11 324.02 C 443.47 322.79 442.57 321.64 441.03 321.71 C 438.01 321.22 434.92 321.17 431.91 321.69 M 317.51 326.37 C 318.12 329.14 318.71 331.92 319.27 334.71 C 320.51 334.25 321.75 333.80 322.99 333.35 C 324.69 333.92 326.40 334.51 328.16 334.93 C 328.41 331.33 328.10 327.59 326.64 324.25 C 323.45 322.92 320.33 325.10 317.51 326.37 M 304.34 335.22 C 300.90 338.13 297.29 342.16 298.51 347.05 C 297.79 349.49 296.12 352.16 297.43 354.68 C 298.61 357.19 301.84 356.72 304.09 356.57 C 307.84 356.27 309.10 351.17 312.94 351.15 C 315.33 350.66 318.44 351.42 320.04 349.10 C 321.88 346.68 325.53 343.36 322.80 340.30 C 320.66 336.67 316.65 335.14 312.60 335.10 C 309.92 334.63 306.73 333.23 304.34 335.22 M 387.67 354.02 C 387.77 361.34 387.53 368.66 387.80 375.97 C 388.52 375.91 389.97 375.79 390.70 375.72 C 390.80 367.47 390.83 359.23 390.92 350.98 C 390.73 348.85 391.42 345.87 388.77 345.05 C 387.74 347.93 387.62 351.00 387.67 354.02 Z" />
<path fill="#ffffff" opacity="1.00" d=" M 370.97 277.15 C 375.48 277.35 379.91 276.41 384.20 275.13 C 381.12 277.16 378.02 279.16 375.15 281.48 C 380.25 281.09 384.80 278.71 389.05 276.05 C 385.77 279.53 382.11 282.74 377.79 284.86 C 372.39 287.75 366.20 288.26 360.27 289.30 C 356.09 289.99 351.83 289.88 347.62 289.52 C 352.52 288.84 357.41 288.03 362.10 286.42 C 360.86 284.94 359.67 283.43 358.54 281.88 C 359.73 281.65 360.92 281.42 362.12 281.20 C 362.33 280.84 362.77 280.14 362.98 279.78 C 360.61 280.19 358.21 280.53 355.83 280.84 C 355.90 280.23 356.05 279.02 356.12 278.41 C 361.08 278.06 365.97 276.89 370.97 277.15 Z" />
<path fill="#ffffff" opacity="1.00" d=" M 323.91 276.54 C 333.60 279.04 343.78 280.65 353.78 279.55 C 354.42 280.12 355.05 280.72 355.68 281.33 C 349.20 282.05 342.64 281.87 336.23 280.76 C 330.24 279.70 324.15 280.43 318.15 281.00 C 312.28 281.54 306.27 283.24 300.47 281.27 C 309.38 279.96 318.57 281.68 327.31 278.99 C 326.17 278.16 325.04 277.35 323.91 276.54 Z" />
<path fill="#ffffff" opacity="1.00" d=" M 315.92 284.31 C 322.11 283.49 328.54 283.05 334.46 285.47 C 328.26 287.52 322.12 284.70 315.92 284.31 Z" />
<path fill="#ffffff" opacity="1.00" d=" M 589.70 285.89 C 597.15 286.49 604.57 285.74 612.00 285.20 C 611.90 285.57 611.72 286.30 611.63 286.66 C 605.31 288.56 598.76 289.75 592.27 290.93 C 591.40 289.25 590.55 287.57 589.70 285.89 Z" />
<path fill="#ffffff" opacity="1.00" d=" M 609.62 291.04 C 612.94 289.43 616.53 288.42 620.21 288.03 C 616.84 289.54 613.29 290.66 609.62 291.04 Z" />
<path fill="#ffffff" opacity="1.00" d=" M 362.28 291.69 C 366.63 291.23 370.99 290.72 375.34 290.19 C 372.81 291.40 370.35 292.86 367.60 293.49 C 365.74 293.34 363.98 292.63 362.20 292.14 L 362.28 291.69 Z" />
<path fill="#ffffff" opacity="1.00" d=" M 371.90 295.85 C 374.02 294.53 376.15 293.20 378.28 291.89 C 377.31 293.48 376.32 295.07 375.34 296.66 C 374.19 296.39 373.03 296.11 371.90 295.85 Z" />
<path fill="#ffffff" opacity="1.00" d=" M 288.64 294.19 C 294.48 296.13 300.51 297.37 306.51 298.71 C 300.36 299.46 294.14 299.30 287.97 298.89 C 288.19 297.32 288.41 295.75 288.64 294.19 Z" />
<path fill="#ffffff" opacity="1.00" d=" M 385.45 327.45 C 386.62 326.22 387.78 324.97 389.08 323.88 C 390.59 324.92 391.93 326.17 393.31 327.38 C 390.69 327.44 388.07 327.46 385.45 327.45 Z" />
<path fill="#ffffff" opacity="1.00" d=" M 478.14 323.20 C 482.42 323.84 486.69 326.42 487.43 331.00 C 488.17 337.47 483.94 343.09 479.47 347.27 C 478.64 339.27 478.26 331.24 478.14 323.20 Z" />
<path fill="#ffffff" opacity="1.00" d=" M 408.44 324.60 C 418.58 331.27 422.58 344.53 420.19 356.08 C 418.83 362.41 414.51 367.53 409.57 371.48 C 409.13 355.85 408.29 340.23 408.44 324.60 Z" />
<path fill="#ffffff" opacity="1.00" d=" M 505.41 327.62 C 508.17 332.86 509.87 338.56 510.91 344.37 C 507.93 344.96 504.95 345.55 501.97 346.10 C 502.66 339.87 503.88 333.70 505.41 327.62 Z" />
<path fill="#ffffff" opacity="1.00" d=" M 598.64 327.27 C 605.42 334.46 609.54 344.18 610.10 354.03 C 610.28 361.71 607.93 370.94 600.32 374.43 C 599.54 366.94 599.66 359.41 599.38 351.91 C 599.26 343.69 598.42 335.49 598.64 327.27 Z" />
<path fill="#ffffff" opacity="1.00" d=" M 384.68 329.29 C 387.49 329.24 390.32 329.22 393.14 329.22 C 391.81 331.32 391.03 334.42 388.98 335.68 C 386.90 334.40 386.06 331.37 384.68 329.29 Z" />
<path fill="#ffffff" opacity="1.00" d=" M 381.17 336.38 C 381.96 334.43 382.75 332.49 383.55 330.55 C 384.80 332.84 386.05 335.13 387.28 337.44 C 385.24 337.08 383.21 336.73 381.17 336.38 Z" />
<path fill="#ffffff" opacity="1.00" d=" M 390.49 337.47 C 391.75 335.11 393.09 332.78 394.74 330.67 C 395.55 332.58 396.22 334.54 396.94 336.50 C 394.79 336.84 392.64 337.16 390.49 337.47 Z" />
<path fill="#ffffff" opacity="1.00" d=" M 385.68 339.00 C 386.46 337.81 388.55 339.08 387.73 340.31 C 386.94 341.47 384.84 340.21 385.68 339.00 Z" />
<path fill="#ffffff" opacity="1.00" d=" M 390.25 339.06 C 391.05 337.87 393.24 339.13 392.12 340.33 C 391.30 341.49 389.14 340.25 390.25 339.06 Z" />
<path fill="#ffffff" opacity="1.00" d=" M 652.12 338.98 C 655.07 337.42 652.28 342.32 652.12 338.98 Z" />
<path fill="#ffffff" opacity="1.00" d=" M 302.88 371.63 C 304.38 370.36 305.95 369.19 307.51 368.01 C 307.08 369.70 306.65 371.39 306.21 373.08 C 305.09 372.60 303.97 372.16 302.88 371.63 Z" />
</g>
<g id="#a594683e">
<path fill="#e1c25e" opacity="" d=" M 464.39 392.13 C 467.40 390.55 464.61 395.41 464.39 392.13 Z" />
</g>
</svg>
