<?xml version="1.0" encoding="UTF-8" ?>
<!DOCTYPE svg PUBLIC "-//W3C//DTD SVG 1.1//EN" "http://www.w3.org/Graphics/SVG/1.1/DTD/svg11.dtd">
<svg width="707pt" height="798pt" viewBox="0 0 707 798" version="1.1" xmlns="http://www.w3.org/2000/svg">
<g id="#000000ff">
<path fill="#000000" opacity="1.00" d=" M 377.27 11.33 C 378.30 10.06 379.06 8.61 379.90 7.20 C 382.27 8.40 385.20 8.87 387.03 10.94 C 389.66 15.18 389.42 20.58 392.18 24.79 C 395.53 30.04 395.44 36.51 397.75 42.17 C 400.09 50.25 403.49 57.98 405.56 66.14 C 406.46 70.14 409.80 73.11 410.51 77.15 C 410.64 81.05 411.41 85.54 408.32 88.57 C 405.04 89.10 401.74 88.70 398.82 87.10 C 394.63 84.99 389.96 84.42 385.33 84.32 C 387.57 92.48 384.97 100.98 383.83 109.13 C 398.63 109.12 413.65 108.93 428.10 112.60 C 445.92 116.46 463.73 121.01 480.41 128.52 C 489.14 132.49 498.16 135.81 506.61 140.38 C 516.32 145.54 526.71 149.33 536.29 154.76 C 544.39 159.30 553.11 162.80 560.63 168.34 C 568.78 174.40 576.06 181.54 583.27 188.66 C 601.03 209.18 620.44 228.22 638.33 248.63 C 642.03 254.55 645.95 260.34 649.71 266.24 C 653.12 271.24 656.65 276.46 657.53 282.59 C 659.06 291.46 663.10 299.66 664.56 308.54 C 665.43 312.76 667.30 316.72 667.93 321.01 C 669.36 327.68 670.50 334.75 674.58 340.43 C 678.60 345.98 682.71 351.51 687.78 356.18 C 693.04 362.18 698.37 368.83 699.67 376.95 C 700.01 381.20 700.33 386.04 697.45 389.56 C 694.14 393.53 690.44 397.64 685.38 399.30 C 679.01 401.54 671.98 401.75 665.40 400.43 C 656.10 397.73 650.03 389.63 644.88 381.95 C 642.69 378.61 641.02 374.96 639.61 371.24 C 638.04 382.66 631.48 392.32 626.38 402.37 C 621.07 411.15 617.62 420.86 612.83 429.91 C 607.79 439.34 604.88 449.86 598.49 458.56 C 588.59 472.42 579.79 487.02 569.75 500.77 C 564.75 507.66 560.92 515.28 556.22 522.36 C 539.34 546.46 523.72 571.42 508.52 596.61 C 503.11 605.08 496.16 612.48 491.07 621.18 C 486.81 628.49 481.02 634.84 477.43 642.56 C 472.97 651.86 467.36 660.54 462.72 669.74 C 454.76 685.06 446.66 700.45 435.77 713.94 C 430.81 721.83 424.45 728.74 419.74 736.80 C 421.12 738.11 422.51 739.44 423.86 740.80 C 423.98 742.43 424.00 744.12 424.85 745.60 C 425.00 748.27 424.86 751.00 425.53 753.64 C 427.14 759.75 423.94 765.79 424.54 771.97 C 425.04 778.50 424.94 785.56 420.94 791.12 C 419.67 790.93 418.55 790.29 417.41 789.80 C 415.80 788.90 414.16 788.09 412.51 787.30 C 410.12 785.56 407.52 784.04 404.51 783.79 C 403.51 783.06 402.51 782.36 401.50 781.69 C 399.80 780.87 398.14 779.99 396.51 779.09 C 393.05 780.76 389.95 783.04 387.55 786.06 C 384.48 786.13 381.45 785.61 378.50 784.83 C 375.71 782.65 372.76 780.61 369.33 779.62 C 368.98 779.15 368.27 778.19 367.92 777.72 C 364.31 779.20 360.27 778.84 356.65 780.29 C 353.84 781.45 351.19 782.96 348.45 784.26 C 346.16 785.43 343.85 786.57 341.56 787.73 C 340.05 788.47 338.55 789.21 337.06 789.97 C 335.47 785.11 336.08 779.92 334.88 775.00 C 333.75 769.98 333.09 764.81 330.88 760.12 C 329.71 757.19 327.75 753.89 329.31 750.74 C 330.36 747.65 333.66 746.52 336.34 745.28 C 340.14 743.78 343.23 741.03 346.64 738.86 C 339.80 731.83 334.67 723.35 327.88 716.28 C 324.13 713.22 321.54 709.06 317.89 705.89 C 317.51 703.99 316.68 702.23 315.27 700.90 C 307.71 693.07 300.36 685.04 292.75 677.26 C 283.51 668.60 277.54 657.17 268.94 647.96 C 264.06 640.43 257.80 633.97 252.23 626.97 C 248.16 622.02 243.90 617.23 239.31 612.76 C 231.19 604.66 224.89 595.03 217.82 586.05 C 208.94 572.60 197.76 560.90 186.91 549.07 C 181.03 540.46 174.03 532.70 167.80 524.36 C 163.82 518.97 160.39 513.20 156.17 508.00 C 148.78 498.97 141.81 489.57 133.80 481.07 C 132.80 480.06 132.89 478.52 132.49 477.26 C 122.92 465.83 113.34 454.33 105.10 441.88 C 100.98 436.64 97.54 430.80 92.62 426.25 C 90.85 424.50 89.89 422.16 88.74 420.01 C 88.13 420.03 86.92 420.08 86.31 420.11 C 80.75 414.40 76.81 407.35 72.07 400.98 C 70.84 406.24 68.61 411.23 66.08 415.99 C 63.37 421.06 58.06 423.81 52.98 425.96 C 49.29 427.50 46.15 430.62 42.00 430.81 C 33.68 431.10 25.31 430.85 17.08 429.58 C 12.67 428.59 7.91 425.73 6.95 420.98 C 5.59 411.47 7.02 401.39 12.15 393.15 C 13.30 391.39 14.90 390.00 16.50 388.66 C 20.20 385.69 23.36 381.98 27.71 379.90 C 32.48 377.41 37.75 374.20 39.63 368.88 C 40.28 362.95 39.39 356.86 41.11 351.03 C 41.71 344.60 44.38 338.55 44.61 332.07 C 44.83 328.15 46.92 324.71 48.19 321.08 C 53.13 308.97 58.72 297.01 66.20 286.23 C 74.67 272.28 84.12 258.94 94.07 246.02 C 104.55 234.21 115.17 222.45 126.98 211.93 C 137.84 202.13 148.45 192.05 158.97 181.88 C 167.26 173.38 177.14 166.70 186.50 159.48 C 206.93 145.11 228.73 132.69 251.69 122.82 C 268.99 114.40 287.66 107.83 307.09 107.54 C 316.71 107.52 326.35 107.35 335.97 107.63 C 347.22 108.29 358.49 108.54 369.75 108.46 C 370.75 99.52 369.02 90.62 369.27 81.68 C 361.34 82.06 353.09 81.44 345.92 77.75 C 343.49 78.62 340.92 78.87 338.36 78.66 C 335.27 75.99 335.54 71.12 337.99 68.11 C 344.99 59.04 349.73 48.50 355.89 38.89 C 362.97 29.67 369.25 19.78 377.27 11.33 M 378.92 22.06 C 377.10 26.13 374.65 29.87 372.60 33.82 C 369.81 39.07 365.57 43.38 362.86 48.69 C 360.01 54.42 356.36 59.70 353.44 65.39 C 352.02 68.02 350.54 70.66 348.50 72.86 C 352.10 71.32 356.04 70.62 359.93 70.23 C 369.01 70.15 378.35 69.49 387.08 72.55 C 391.84 73.25 396.71 73.54 401.21 75.48 C 402.06 78.49 404.31 73.88 401.81 73.60 L 401.31 73.89 C 398.91 69.95 396.82 65.82 395.32 61.45 C 392.23 52.82 387.43 44.88 384.94 36.03 C 383.82 30.96 379.42 27.33 378.92 22.06 M 301.33 119.44 C 285.00 120.77 269.57 126.92 254.94 133.93 C 233.31 143.27 212.80 155.06 193.51 168.55 C 184.83 175.11 175.68 181.17 168.00 188.94 C 155.70 200.67 143.42 212.43 130.73 223.74 C 123.50 230.17 117.20 237.54 110.55 244.55 C 105.65 249.73 100.97 255.12 96.96 261.02 C 89.18 271.37 81.96 282.14 75.18 293.17 C 68.77 302.32 64.10 312.52 59.60 322.71 C 57.96 326.10 57.86 329.95 56.47 333.43 C 55.60 335.49 55.50 337.73 55.42 339.94 C 62.23 341.83 69.24 342.50 76.29 342.46 C 79.27 335.67 82.25 328.89 85.20 322.09 C 86.96 317.83 90.60 314.73 92.45 310.52 C 98.11 301.65 103.74 292.69 107.93 283.01 C 110.64 277.02 115.48 272.42 118.80 266.81 C 126.40 253.86 136.39 242.54 146.82 231.82 C 154.63 222.91 163.76 215.24 173.44 208.44 C 182.28 201.16 192.26 195.42 201.18 188.25 C 207.55 183.01 215.12 179.58 221.86 174.89 C 227.52 170.93 233.89 168.20 239.97 164.96 C 252.17 158.04 264.67 151.38 278.14 147.27 C 291.46 142.98 305.04 139.39 318.90 137.42 C 329.56 136.20 340.32 136.96 351.03 136.75 C 370.75 136.79 390.78 136.35 410.05 141.11 C 424.23 142.98 438.34 145.97 451.67 151.24 C 460.82 154.56 469.38 159.29 478.58 162.50 C 484.26 164.65 489.65 167.52 495.27 169.85 C 504.00 173.52 511.64 179.21 519.52 184.36 C 522.94 186.58 526.24 189.01 529.12 191.93 C 534.75 197.45 541.63 201.39 547.94 206.05 C 554.69 211.67 561.77 216.87 568.45 222.57 C 574.90 228.75 581.88 234.46 587.35 241.58 C 594.22 249.16 601.55 256.53 606.49 265.59 C 609.73 271.84 612.90 278.19 617.18 283.82 C 625.37 296.42 629.18 311.15 635.78 324.53 C 642.76 324.50 649.59 322.48 655.65 319.05 C 653.97 314.50 653.21 309.71 652.06 305.02 C 649.98 298.35 647.54 291.77 646.23 284.89 C 645.56 280.58 643.16 276.83 640.70 273.33 C 639.13 271.18 635.79 270.65 635.13 267.81 C 632.98 261.59 629.47 255.84 624.81 251.18 C 616.69 242.00 608.06 233.29 599.84 224.19 C 592.24 216.10 584.33 208.27 577.35 199.62 C 570.60 192.36 563.34 185.56 555.61 179.36 C 548.10 173.33 539.02 169.85 530.70 165.16 C 524.43 161.60 517.79 158.80 511.26 155.79 C 503.73 152.41 496.60 148.19 488.95 145.07 C 482.15 142.28 475.51 139.12 468.69 136.40 C 453.31 130.28 437.13 126.62 421.00 123.11 C 404.87 119.67 388.31 121.40 371.99 120.20 C 348.43 120.26 324.88 118.33 301.33 119.44 M 359.02 148.10 C 347.75 148.20 336.47 147.90 325.21 148.24 C 314.97 149.15 304.81 151.25 295.00 154.25 C 293.54 153.11 292.66 153.42 292.33 155.19 C 274.12 158.76 257.77 167.95 241.68 176.79 C 232.49 180.80 224.54 186.97 215.83 191.84 C 210.82 194.69 206.57 198.62 201.93 202.00 C 194.71 207.07 187.13 211.66 180.35 217.33 C 171.61 223.43 163.35 230.28 156.16 238.18 C 148.16 246.85 139.86 255.36 133.19 265.14 C 129.56 270.85 126.05 276.65 121.80 281.93 C 118.18 286.30 116.52 291.81 113.81 296.71 C 108.07 306.90 102.08 316.96 95.70 326.77 C 94.17 329.27 94.38 332.33 93.62 335.08 C 91.51 343.87 84.60 350.45 82.02 359.06 C 78.78 367.10 76.15 375.39 75.38 384.07 C 79.78 389.88 83.08 396.39 85.71 403.17 C 87.87 409.47 93.20 413.80 96.62 419.36 C 101.47 427.29 108.79 433.19 114.66 440.29 C 117.52 443.49 119.62 447.25 122.28 450.59 C 128.94 458.38 133.69 467.70 141.22 474.75 C 146.15 481.71 153.17 486.83 158.26 493.66 C 165.51 503.21 172.34 513.07 178.87 523.11 C 186.76 531.37 193.19 540.88 199.94 550.08 C 205.14 556.16 211.95 560.79 216.31 567.59 C 220.41 574.34 225.78 580.18 231.19 585.88 C 233.05 588.63 236.19 590.21 237.77 593.19 C 242.54 600.90 248.55 607.73 254.16 614.83 C 258.02 619.61 263.48 623.03 266.40 628.56 C 270.69 633.61 275.05 638.62 279.31 643.71 C 283.52 647.56 286.40 652.55 289.86 657.03 C 295.93 665.55 302.54 673.68 309.29 681.68 C 315.81 687.88 321.47 694.88 326.81 702.10 C 336.51 712.66 346.34 723.11 355.27 734.34 C 360.55 730.82 366.49 728.35 371.35 724.21 C 371.63 716.46 370.92 708.72 371.30 700.98 C 367.67 702.48 363.84 703.37 359.97 703.97 C 353.86 705.00 348.07 707.38 341.98 708.44 C 338.43 709.02 334.48 707.30 332.99 703.94 C 330.67 698.60 332.34 692.43 329.94 687.11 C 328.69 684.03 326.44 681.37 325.76 678.06 C 325.36 675.11 327.08 672.23 329.57 670.75 C 336.50 666.26 343.94 662.56 351.61 659.50 C 357.99 657.12 363.13 652.30 369.68 650.28 C 369.29 645.91 370.58 641.53 369.55 637.22 C 368.16 629.14 370.50 621.12 370.49 613.06 C 368.96 585.06 369.96 557.03 369.77 529.01 C 369.88 502.32 369.60 475.63 369.62 448.93 C 370.27 441.96 369.93 434.96 369.98 427.98 C 369.90 423.47 370.31 418.92 369.35 414.48 C 370.41 411.78 369.92 408.83 370.00 406.02 C 370.05 395.64 369.89 385.25 370.07 374.88 C 371.50 369.27 371.00 363.45 370.87 357.72 C 369.54 355.71 369.93 353.25 369.87 350.99 C 370.23 332.19 369.63 313.38 370.13 294.59 C 371.73 291.63 370.74 288.14 371.00 284.95 C 370.79 282.11 371.67 278.97 370.09 276.41 C 369.54 272.56 371.27 268.88 371.00 265.03 C 370.76 259.27 371.57 253.42 370.16 247.76 C 370.20 245.82 371.08 243.99 371.00 242.03 C 371.00 226.68 370.96 211.34 371.02 195.99 C 371.06 194.13 370.77 192.30 370.33 190.51 C 371.78 185.86 371.02 180.80 370.04 176.13 C 369.83 168.39 370.15 160.64 369.96 152.90 C 369.96 150.51 368.09 148.77 366.65 147.09 C 364.11 147.45 361.59 148.00 359.02 148.10 M 384.62 148.71 C 385.60 167.12 383.83 185.55 384.62 203.97 C 385.07 209.96 383.81 215.94 384.44 221.93 C 385.85 232.92 384.01 243.97 384.23 254.98 C 384.30 261.99 384.03 268.99 384.43 275.99 C 385.02 288.01 384.39 300.07 385.66 312.05 C 385.40 322.02 384.45 331.98 384.90 341.98 C 385.67 353.00 385.19 364.05 385.52 375.08 C 385.29 382.40 385.77 389.75 384.76 397.03 C 385.00 408.37 385.21 419.72 385.19 431.06 C 386.18 439.69 385.56 448.39 384.79 457.02 C 384.41 475.02 385.59 493.02 384.87 511.01 C 384.87 526.66 384.83 542.31 384.89 557.95 C 385.70 569.59 384.76 581.28 385.61 592.92 C 386.44 605.29 385.65 617.70 386.05 630.09 C 386.54 636.00 387.25 641.89 387.24 647.83 C 391.57 649.46 394.64 653.12 398.65 655.32 C 404.77 658.64 409.03 664.40 415.03 667.92 C 420.83 671.30 425.59 676.22 429.23 681.81 C 432.24 690.06 425.42 697.06 424.28 704.93 C 424.03 708.81 421.28 712.80 417.05 712.67 C 411.66 713.34 407.74 709.15 403.86 706.16 C 398.64 702.28 393.45 698.36 388.27 694.43 C 388.36 702.71 388.37 710.99 388.27 719.26 C 390.62 718.42 393.40 717.84 395.62 719.36 C 400.82 722.70 406.06 726.00 411.08 729.62 C 415.94 721.79 422.05 714.84 427.02 707.07 C 439.05 692.28 447.28 674.97 456.19 658.24 C 460.25 650.88 464.56 643.66 468.22 636.09 C 471.76 628.66 477.34 622.51 481.48 615.45 C 486.62 606.52 493.69 598.93 499.25 590.28 C 507.60 576.38 516.12 562.59 524.85 548.92 C 531.43 539.42 537.24 529.42 544.11 520.12 C 550.20 511.69 554.67 502.23 560.79 493.83 C 570.56 480.46 579.08 466.24 588.74 452.79 C 594.73 444.70 597.36 434.86 602.04 426.07 C 605.80 418.97 608.85 411.54 612.28 404.29 C 616.90 395.64 621.70 387.09 626.59 378.59 C 629.05 373.07 631.66 367.61 634.31 362.17 C 635.75 359.51 634.83 356.55 633.98 353.87 C 631.90 353.64 629.31 353.94 628.21 351.72 C 626.02 348.51 627.86 344.57 629.90 341.81 C 628.99 338.84 628.20 335.82 626.93 332.99 C 626.13 331.11 623.34 330.41 623.54 328.10 C 623.60 324.13 621.34 320.72 620.14 317.07 C 616.40 308.24 613.15 299.11 608.16 290.89 C 603.05 284.37 599.52 276.83 595.49 269.63 C 590.87 261.50 583.89 255.15 577.92 248.06 C 572.96 241.41 566.26 236.41 560.39 230.63 C 553.26 224.79 546.05 219.03 538.62 213.58 C 538.58 213.55 538.50 213.50 538.45 213.47 C 531.38 208.67 524.52 203.54 518.39 197.57 C 511.22 192.30 503.74 187.40 496.08 182.87 C 486.74 178.37 477.29 174.05 467.56 170.44 C 456.59 165.49 445.53 160.56 433.88 157.40 C 423.93 154.44 413.57 153.43 403.44 151.37 C 397.31 149.58 390.91 149.51 384.62 148.71 M 638.33 330.82 C 638.83 332.35 639.34 333.90 639.86 335.44 C 646.55 334.69 653.25 335.58 659.84 336.71 C 659.26 334.18 658.65 331.65 658.02 329.13 C 657.47 329.33 656.38 329.72 655.84 329.92 C 657.82 329.08 657.76 327.35 657.19 325.53 C 651.31 328.49 644.91 330.39 638.33 330.82 M 52.59 349.57 C 59.39 348.97 66.31 348.88 73.02 350.26 C 73.33 349.82 73.93 348.93 74.24 348.48 C 67.25 348.61 60.24 347.74 53.60 345.49 C 53.26 346.84 52.92 348.21 52.59 349.57 M 643.12 346.42 C 644.11 349.10 645.09 351.79 645.99 354.52 C 650.04 355.08 653.16 352.10 656.70 350.72 C 659.15 349.48 662.72 349.04 663.14 345.72 C 656.46 345.71 649.78 345.96 643.12 346.42 M 648.98 362.75 C 652.56 362.07 656.74 362.26 659.63 359.67 C 662.12 357.01 663.93 353.81 666.22 350.98 C 661.78 356.50 655.44 360.12 648.98 362.75 M 670.51 354.72 C 668.23 358.82 666.46 363.55 662.48 366.35 C 659.23 368.74 655.19 369.64 651.25 370.00 C 653.62 375.22 657.04 379.85 660.70 384.22 C 663.95 388.07 668.97 390.42 674.06 389.87 C 679.54 390.06 685.24 387.76 688.06 382.86 C 689.15 379.72 687.98 376.27 686.53 373.43 C 682.35 366.27 676.08 360.74 670.51 354.72 M 51.32 356.14 C 51.19 356.80 50.95 358.10 50.83 358.76 C 57.04 359.25 63.24 359.85 69.43 360.64 C 70.08 358.97 70.74 357.29 71.40 355.63 C 64.75 356.66 58.01 356.72 51.32 356.14 M 55.08 365.21 C 56.45 367.42 57.77 369.67 59.05 371.94 C 61.36 371.57 63.69 371.29 66.02 371.07 C 66.50 369.59 66.99 368.11 67.48 366.64 C 63.37 366.01 59.23 365.51 55.08 365.21 M 49.11 373.59 C 48.64 374.99 49.12 375.47 50.52 375.01 C 50.98 373.60 50.51 373.13 49.11 373.59 M 62.06 379.08 C 60.54 382.08 65.38 379.19 62.06 379.08 M 41.94 385.94 C 33.90 387.65 27.61 393.36 21.91 398.93 C 17.81 404.43 17.41 411.61 17.80 418.23 C 24.41 419.71 31.26 419.79 38.01 419.91 C 41.56 420.29 44.27 417.67 47.29 416.32 C 50.47 414.64 54.40 413.68 56.36 410.40 C 58.43 406.92 59.83 403.07 61.01 399.21 C 59.10 396.47 59.48 393.21 59.86 390.10 C 58.39 387.25 56.19 384.85 54.63 382.05 C 50.45 383.51 46.30 385.11 41.94 385.94 M 386.66 659.64 C 386.74 666.71 388.10 673.70 387.85 680.80 C 397.01 686.19 404.82 693.52 413.85 699.08 C 415.58 694.85 417.15 690.56 418.88 686.34 C 417.81 685.02 416.75 683.71 415.66 682.42 C 411.57 677.35 405.33 674.75 400.90 670.03 C 396.88 665.64 391.38 663.13 386.66 659.64 M 356.86 669.57 C 350.49 672.10 344.22 674.99 338.42 678.67 C 341.46 684.18 342.88 690.44 342.91 696.72 C 348.90 695.15 354.83 693.26 360.98 692.36 C 365.18 691.86 368.62 689.26 372.21 687.27 C 372.60 678.34 371.90 669.41 372.11 660.47 C 367.29 663.91 362.38 667.35 356.86 669.57 M 388.38 727.60 C 387.99 737.38 385.97 747.15 386.76 756.95 C 388.47 762.14 393.03 765.97 397.98 768.02 C 402.61 770.29 405.93 775.50 411.41 775.73 C 411.68 775.99 412.22 776.53 412.48 776.80 C 412.93 774.24 413.90 771.68 413.47 769.06 C 412.82 763.68 412.99 758.24 412.07 752.90 C 411.89 750.80 411.15 748.45 412.62 746.63 C 410.65 743.92 408.32 741.39 405.43 739.66 C 400.14 735.09 393.67 732.17 388.38 727.60 M 361.93 742.18 C 358.86 743.14 356.09 744.79 353.39 746.50 C 350.52 748.29 346.88 748.96 344.71 751.73 C 341.30 755.16 343.38 760.33 343.63 764.54 C 344.00 767.28 344.18 771.88 347.92 771.94 C 354.10 772.86 358.14 767.34 363.42 765.34 C 365.83 764.53 367.54 762.63 369.37 760.98 C 370.29 758.42 371.61 755.90 371.35 753.11 C 371.13 747.39 371.94 741.71 371.73 736.00 C 368.71 738.40 365.70 741.03 361.93 742.18 Z" />
</g>
<g id="#c2c2c2ff">
<path fill="#c2c2c2" opacity="1.00" d=" M 378.92 22.06 C 379.42 27.33 383.82 30.96 384.94 36.03 C 387.43 44.88 392.23 52.82 395.32 61.45 C 396.82 65.82 398.91 69.95 401.31 73.89 C 401.29 74.29 401.24 75.08 401.21 75.48 C 396.71 73.54 391.84 73.25 387.08 72.55 C 378.35 69.49 369.01 70.15 359.93 70.23 C 356.04 70.62 352.10 71.32 348.50 72.86 C 350.54 70.66 352.02 68.02 353.44 65.39 C 356.36 59.70 360.01 54.42 362.86 48.69 C 365.57 43.38 369.81 39.07 372.60 33.82 C 374.65 29.87 377.10 26.13 378.92 22.06 Z" />
</g>
<g id="#906e3aff">
<path fill="#906e3a" opacity="1.00" d=" M 301.33 119.44 C 324.88 118.33 348.43 120.26 371.99 120.20 C 388.31 121.40 404.87 119.67 421.00 123.11 C 437.13 126.62 453.31 130.28 468.69 136.40 C 475.51 139.12 482.15 142.28 488.95 145.07 C 496.60 148.19 503.73 152.41 511.26 155.79 C 517.79 158.80 524.43 161.60 530.70 165.16 C 539.02 169.85 548.10 173.33 555.61 179.36 C 563.34 185.56 570.60 192.36 577.35 199.62 C 584.33 208.27 592.24 216.10 599.84 224.19 C 608.06 233.29 616.69 242.00 624.81 251.18 C 629.47 255.84 632.98 261.59 635.13 267.81 C 635.79 270.65 639.13 271.18 640.70 273.33 C 643.16 276.83 645.56 280.58 646.23 284.89 C 647.54 291.77 649.98 298.35 652.06 305.02 C 653.21 309.71 653.97 314.50 655.65 319.05 C 649.59 322.48 642.76 324.50 635.78 324.53 C 629.18 311.15 625.37 296.42 617.18 283.82 C 612.90 278.19 609.73 271.84 606.49 265.59 C 601.55 256.53 594.22 249.16 587.35 241.58 C 581.88 234.46 574.90 228.75 568.45 222.57 C 561.77 216.87 554.69 211.67 547.94 206.05 C 541.63 201.39 534.75 197.45 529.12 191.93 C 526.24 189.01 522.94 186.58 519.52 184.36 C 511.64 179.21 504.00 173.52 495.27 169.85 C 489.65 167.52 484.26 164.65 478.58 162.50 C 469.38 159.29 460.82 154.56 451.67 151.24 C 438.34 145.97 424.23 142.98 410.05 141.11 C 390.78 136.35 370.75 136.79 351.03 136.75 C 340.32 136.96 329.56 136.20 318.90 137.42 C 305.04 139.39 291.46 142.98 278.14 147.27 C 264.67 151.38 252.17 158.04 239.97 164.96 C 233.89 168.20 227.52 170.93 221.86 174.89 C 215.12 179.58 207.55 183.01 201.18 188.25 C 192.26 195.42 182.28 201.16 173.44 208.44 C 163.76 215.24 154.63 222.91 146.82 231.82 C 136.39 242.54 126.40 253.86 118.80 266.81 C 115.48 272.42 110.64 277.02 107.93 283.01 C 103.74 292.69 98.11 301.65 92.45 310.52 C 90.60 314.73 86.96 317.83 85.20 322.09 C 82.25 328.89 79.27 335.67 76.29 342.46 C 69.24 342.50 62.23 341.83 55.42 339.94 C 55.50 337.73 55.60 335.49 56.47 333.43 C 57.86 329.95 57.96 326.10 59.60 322.71 C 64.10 312.52 68.77 302.32 75.18 293.17 C 81.96 282.14 89.18 271.37 96.96 261.02 C 100.97 255.12 105.65 249.73 110.55 244.55 C 117.20 237.54 123.50 230.17 130.73 223.74 C 143.42 212.43 155.70 200.67 168.00 188.94 C 175.68 181.17 184.83 175.11 193.51 168.55 C 212.80 155.06 233.31 143.27 254.94 133.93 C 269.57 126.92 285.00 120.77 301.33 119.44 Z" />
<path fill="#906e3a" opacity="1.00" d=" M 638.33 330.82 C 644.91 330.39 651.31 328.49 657.19 325.53 C 657.76 327.35 657.82 329.08 655.84 329.92 C 656.38 329.72 657.47 329.33 658.02 329.13 C 658.65 331.65 659.26 334.18 659.84 336.71 C 653.25 335.58 646.55 334.69 639.86 335.44 C 639.34 333.90 638.83 332.35 638.33 330.82 Z" />
<path fill="#906e3a" opacity="1.00" d=" M 52.59 349.57 C 52.92 348.21 53.26 346.84 53.60 345.49 C 60.24 347.74 67.25 348.61 74.24 348.48 C 73.93 348.93 73.33 349.82 73.02 350.26 C 66.31 348.88 59.39 348.97 52.59 349.57 Z" />
<path fill="#906e3a" opacity="1.00" d=" M 643.12 346.42 C 649.78 345.96 656.46 345.71 663.14 345.72 C 662.72 349.04 659.15 349.48 656.70 350.72 C 653.16 352.10 650.04 355.08 645.99 354.52 C 645.09 351.79 644.11 349.10 643.12 346.42 Z" />
<path fill="#906e3a" opacity="1.00" d=" M 648.98 362.75 C 655.44 360.12 661.78 356.50 666.22 350.98 C 663.93 353.81 662.12 357.01 659.63 359.67 C 656.74 362.26 652.56 362.07 648.98 362.75 Z" />
<path fill="#906e3a" opacity="1.00" d=" M 670.51 354.72 C 676.08 360.74 682.35 366.27 686.53 373.43 C 687.98 376.27 689.15 379.72 688.06 382.86 C 685.24 387.76 679.54 390.06 674.06 389.87 C 668.97 390.42 663.95 388.07 660.70 384.22 C 657.04 379.85 653.62 375.22 651.25 370.00 C 655.19 369.64 659.23 368.74 662.48 366.35 C 666.46 363.55 668.23 358.82 670.51 354.72 Z" />
<path fill="#906e3a" opacity="1.00" d=" M 51.32 356.14 C 58.01 356.72 64.75 356.66 71.40 355.63 C 70.74 357.29 70.08 358.97 69.43 360.64 C 63.24 359.85 57.04 359.25 50.83 358.76 C 50.95 358.10 51.19 356.80 51.32 356.14 Z" />
<path fill="#906e3a" opacity="1.00" d=" M 55.08 365.21 C 59.23 365.51 63.37 366.01 67.48 366.64 C 66.99 368.11 66.50 369.59 66.02 371.07 C 63.69 371.29 61.36 371.57 59.05 371.94 C 57.77 369.67 56.45 367.42 55.08 365.21 Z" />
<path fill="#906e3a" opacity="1.00" d=" M 41.94 385.94 C 46.30 385.11 50.45 383.51 54.63 382.05 C 56.19 384.85 58.39 387.25 59.86 390.10 C 59.48 393.21 59.10 396.47 61.01 399.21 C 59.83 403.07 58.43 406.92 56.36 410.40 C 54.40 413.68 50.47 414.64 47.29 416.32 C 44.27 417.67 41.56 420.29 38.01 419.91 C 31.26 419.79 24.41 419.71 17.80 418.23 C 17.41 411.61 17.81 404.43 21.91 398.93 C 27.61 393.36 33.90 387.65 41.94 385.94 Z" />
</g>
<g id="#2c2111c4">
<path fill="#2c2111" opacity="0.77" d=" M 292.33 155.19 C 292.66 153.42 293.54 153.11 295.00 154.25 C 294.23 154.91 293.34 155.23 292.33 155.19 Z" />
</g>
<g id="#30241387">
<path fill="#302413" opacity="0.53" d=" M 538.45 213.47 C 538.50 213.50 538.58 213.55 538.62 213.58 C 538.58 213.55 538.50 213.50 538.45 213.47 Z" />
</g>
<g id="#281f10ff">
<path fill="#281f10" opacity="1.00" d=" M 49.11 373.59 C 50.51 373.13 50.98 373.60 50.52 375.01 C 49.12 375.47 48.64 374.99 49.11 373.59 Z" />
</g>
<g id="#75592fff">
<path fill="#75592f" opacity="1.00" d=" M 62.06 379.08 C 65.38 379.19 60.54 382.08 62.06 379.08 Z" />
</g>
<g id="#f7dfa1ff">
<path fill="#f7dfa1" opacity="1.00" d=" M 386.66 659.64 C 391.38 663.13 396.88 665.64 400.90 670.03 C 405.33 674.75 411.57 677.35 415.66 682.42 C 416.75 683.71 417.81 685.02 418.88 686.34 C 417.15 690.56 415.58 694.85 413.85 699.08 C 404.82 693.52 397.01 686.19 387.85 680.80 C 388.10 673.70 386.74 666.71 386.66 659.64 Z" />
<path fill="#f7dfa1" opacity="1.00" d=" M 356.86 669.57 C 362.38 667.35 367.29 663.91 372.11 660.47 C 371.90 669.41 372.60 678.34 372.21 687.27 C 368.62 689.26 365.18 691.86 360.98 692.36 C 354.83 693.26 348.90 695.15 342.91 696.72 C 342.88 690.44 341.46 684.18 338.42 678.67 C 344.22 674.99 350.49 672.10 356.86 669.57 Z" />
<path fill="#f7dfa1" opacity="1.00" d=" M 388.38 727.60 C 393.67 732.17 400.14 735.09 405.43 739.66 C 408.32 741.39 410.65 743.92 412.62 746.63 C 411.15 748.45 411.89 750.80 412.07 752.90 C 412.99 758.24 412.82 763.68 413.47 769.06 C 413.90 771.68 412.93 774.24 412.48 776.80 C 412.22 776.53 411.68 775.99 411.41 775.73 C 405.93 775.50 402.61 770.29 397.98 768.02 C 393.03 765.97 388.47 762.14 386.76 756.95 C 385.97 747.15 387.99 737.38 388.38 727.60 Z" />
</g>
<g id="#f6dfa1ff">
<path fill="#f6dfa1" opacity="1.00" d=" M 361.93 742.18 C 365.70 741.03 368.71 738.40 371.73 736.00 C 371.94 741.71 371.13 747.39 371.35 753.11 C 371.61 755.90 370.29 758.42 369.37 760.98 C 367.54 762.63 365.83 764.53 363.42 765.34 C 358.14 767.34 354.10 772.86 347.92 771.94 C 344.18 771.88 344.00 767.28 343.63 764.54 C 343.38 760.33 341.30 755.16 344.71 751.73 C 346.88 748.96 350.52 748.29 353.39 746.50 C 356.09 744.79 358.86 743.14 361.93 742.18 Z" />
</g>
</svg>
