<?xml version="1.0" encoding="UTF-8" ?>
<!DOCTYPE svg PUBLIC "-//W3C//DTD SVG 1.1//EN" "http://www.w3.org/Graphics/SVG/1.1/DTD/svg11.dtd">
<svg width="650pt" height="551pt" viewBox="0 0 650 551" version="1.1" xmlns="http://www.w3.org/2000/svg">
<g id="#000000ff">
<path fill="#000000" opacity="1.00" d=" M 318.33 11.30 C 324.37 8.45 331.25 7.09 337.91 7.73 C 343.70 8.24 347.06 13.43 350.96 17.05 C 355.84 21.57 358.72 27.69 361.17 33.76 C 365.50 34.08 369.80 34.75 374.10 35.35 C 375.86 34.89 376.66 33.00 377.76 31.71 C 382.55 24.48 390.03 17.92 399.09 17.57 C 403.44 17.54 408.18 17.48 411.94 19.99 C 417.76 23.84 421.99 29.61 425.41 35.59 C 428.08 40.96 431.21 46.23 435.52 50.46 C 441.29 56.29 450.61 50.35 456.92 54.99 C 459.19 56.66 459.45 59.60 459.67 62.18 C 458.15 64.26 456.34 66.13 453.95 67.18 C 453.67 70.70 452.41 74.28 449.96 76.88 C 444.30 81.26 437.02 83.02 429.96 83.18 C 425.47 83.22 420.86 83.49 416.50 82.19 C 410.55 79.94 405.65 74.27 398.87 74.74 C 393.40 78.24 387.61 81.83 380.94 82.36 C 377.01 82.54 373.04 82.63 369.12 82.25 C 362.46 81.38 357.74 76.09 351.99 73.17 C 348.04 71.19 344.59 68.37 340.61 66.47 C 337.21 64.96 333.39 65.38 329.77 65.45 C 328.62 66.88 327.60 68.52 325.95 69.43 C 324.09 69.96 322.16 69.61 320.29 69.46 C 323.93 72.96 326.61 77.28 329.73 81.22 C 332.31 84.56 335.36 87.54 337.79 91.01 C 340.89 95.51 343.11 100.52 345.55 105.38 C 350.01 113.56 353.54 122.18 357.24 130.71 C 361.33 139.51 365.91 148.07 370.28 156.74 C 374.46 166.23 382.84 172.80 390.08 179.87 C 395.31 185.87 400.22 192.43 402.68 200.11 C 404.51 206.04 407.09 211.69 409.64 217.33 C 410.75 220.02 413.82 221.17 415.07 223.77 C 416.47 226.64 416.63 229.90 416.75 233.03 C 416.93 240.03 417.19 247.03 418.07 253.98 C 418.75 259.61 417.98 265.33 418.88 270.95 C 419.76 276.62 420.01 282.38 421.38 287.97 C 422.74 294.48 425.95 300.42 427.06 306.99 C 429.81 315.26 430.78 323.99 430.92 332.66 C 435.61 332.22 440.29 331.42 445.01 331.47 C 448.87 331.36 452.58 334.23 453.35 338.03 C 454.15 342.06 454.89 346.19 456.93 349.82 C 461.99 349.47 466.98 348.37 472.07 348.21 C 475.11 348.13 478.16 348.18 481.21 348.18 C 481.16 346.22 481.11 344.26 481.04 342.31 C 480.89 338.93 480.50 334.85 483.32 332.38 C 485.75 329.69 489.63 329.38 493.03 329.31 C 502.00 329.23 510.99 329.38 519.94 328.52 C 520.34 323.60 521.02 318.70 521.89 313.84 C 515.24 313.90 508.58 313.49 502.02 312.40 C 498.85 311.73 496.29 309.08 495.62 305.92 C 494.17 300.86 492.33 295.92 490.73 290.91 C 489.52 284.70 490.45 278.32 490.08 272.04 C 490.02 268.08 489.14 263.32 492.27 260.22 C 495.30 257.11 499.98 257.63 503.94 257.59 C 508.74 257.51 513.31 259.33 518.10 259.47 C 521.27 259.50 524.64 260.92 526.11 263.89 C 527.99 267.71 527.44 272.10 527.74 276.21 C 533.44 276.78 539.17 276.60 544.88 276.66 C 545.32 271.50 543.87 265.96 546.03 261.08 C 549.17 255.85 555.89 257.33 560.99 257.13 C 567.15 257.40 573.38 255.14 579.47 256.70 C 585.61 259.29 585.01 266.84 585.45 272.35 C 588.07 271.78 590.70 271.32 593.35 270.94 C 593.44 267.62 593.32 264.29 593.52 260.97 C 593.67 257.71 596.00 254.64 599.07 253.58 C 604.19 252.59 609.44 253.29 614.51 254.25 C 621.26 255.45 628.62 254.04 634.92 257.26 C 639.38 259.82 639.55 265.49 640.05 270.00 C 641.38 277.28 640.77 284.70 640.90 292.06 C 640.81 296.35 641.24 300.69 640.49 304.94 C 639.57 308.58 636.00 310.65 632.54 311.31 C 627.31 312.30 621.96 311.73 616.68 312.02 C 616.30 326.15 619.50 340.03 621.50 353.94 C 622.37 363.96 623.49 373.96 625.11 383.88 C 626.24 394.77 626.40 405.74 628.20 416.55 C 628.94 436.35 637.12 455.13 636.61 475.06 C 635.93 485.81 638.29 496.38 638.80 507.09 C 638.97 514.37 638.88 521.66 638.89 528.96 C 638.93 531.62 638.54 534.57 636.50 536.50 C 633.80 539.29 629.62 538.92 626.08 539.26 C 623.20 539.36 620.32 539.35 617.45 539.39 C 609.35 540.30 601.23 540.91 593.07 540.93 C 580.74 541.96 568.37 542.10 556.01 541.89 C 553.20 541.82 550.78 540.05 547.99 539.92 C 540.97 539.44 533.88 540.07 526.92 538.89 C 516.97 537.32 506.94 536.36 496.89 535.71 C 484.65 534.32 472.32 533.72 460.00 533.82 C 445.63 533.91 431.29 532.58 416.92 532.84 C 399.94 532.67 382.94 533.27 365.97 532.44 C 358.61 532.37 351.24 532.66 343.90 531.92 C 337.91 531.82 331.97 530.69 325.97 530.85 C 303.60 530.90 281.22 530.71 258.90 532.35 C 255.94 532.54 253.02 533.06 250.11 533.65 C 242.97 535.20 235.55 533.48 228.44 535.26 C 224.01 536.35 219.46 536.82 214.93 537.23 C 208.90 537.65 203.10 539.86 197.01 539.65 C 188.03 539.56 179.05 539.36 170.07 539.32 C 165.43 542.90 159.46 541.31 154.09 541.37 C 151.54 542.56 148.96 543.89 146.03 543.56 C 130.68 543.42 115.17 543.56 100.05 540.58 C 94.72 539.84 89.49 538.19 84.05 538.42 C 76.41 538.16 68.28 539.51 61.09 536.26 C 56.95 534.54 54.50 530.21 54.31 525.85 C 53.78 515.59 54.69 505.27 53.50 495.04 C 53.08 478.37 53.27 461.69 53.08 445.02 C 51.97 430.70 52.67 416.33 52.44 401.98 C 52.20 389.32 52.90 376.66 52.31 364.01 C 52.31 360.54 50.40 357.46 50.20 354.03 C 49.96 350.04 50.48 346.05 50.20 342.07 C 49.60 332.21 46.70 322.49 48.11 312.57 C 39.76 312.76 30.98 312.91 23.39 308.92 C 20.53 307.35 16.85 306.42 15.41 303.15 C 13.75 299.35 13.81 295.07 13.70 290.99 C 13.77 279.66 13.63 268.33 13.76 257.00 C 13.57 252.40 17.08 247.70 21.84 247.48 C 27.26 247.17 32.70 247.28 38.12 247.43 C 42.08 247.48 45.71 250.18 47.04 253.89 C 48.37 257.61 49.86 261.52 49.40 265.55 C 49.11 266.69 49.35 267.65 50.13 268.44 C 51.58 269.23 51.87 267.25 51.61 266.30 C 51.54 262.27 51.06 257.41 54.30 254.37 C 57.31 251.16 62.06 251.84 66.02 251.80 C 71.13 252.04 76.34 251.28 81.37 252.39 C 85.30 253.38 87.01 257.48 87.56 261.11 C 89.58 260.29 91.76 260.09 93.91 259.81 C 94.39 255.66 97.61 251.82 101.96 251.64 C 107.64 251.59 113.33 251.73 119.02 251.61 C 123.02 251.42 127.46 252.88 129.27 256.73 C 130.82 260.56 131.45 264.70 133.19 268.46 L 133.33 268.81 C 135.05 269.22 138.17 270.03 138.90 267.81 C 139.15 265.22 139.08 262.59 139.53 260.02 C 140.36 256.22 144.06 253.36 147.94 253.37 C 156.30 253.22 164.67 253.27 173.04 253.34 C 176.65 253.15 180.32 255.36 181.53 258.82 C 183.48 265.78 184.83 272.89 185.41 280.10 C 187.43 287.52 188.41 295.27 187.29 302.93 C 186.61 306.05 184.02 308.62 180.88 309.26 C 177.27 309.90 173.50 309.62 169.99 310.83 C 165.65 312.37 160.99 312.13 156.47 312.30 C 158.58 319.20 157.22 326.31 156.51 333.30 C 160.28 332.40 164.15 333.06 167.97 333.09 C 173.31 333.21 178.66 332.94 183.99 333.27 C 186.98 333.50 190.22 334.66 191.79 337.40 C 193.90 340.69 193.53 344.77 193.78 348.51 C 200.16 347.72 206.58 347.87 212.99 347.87 C 214.50 347.81 216.01 347.70 217.52 347.60 C 217.92 346.15 218.32 344.70 218.71 343.26 C 219.42 338.40 221.77 333.41 226.87 331.98 C 226.37 325.33 226.45 318.67 226.55 312.01 C 227.15 302.98 227.99 293.75 225.83 284.86 C 223.99 267.01 224.54 249.03 224.22 231.13 C 224.06 228.49 223.21 225.77 224.05 223.18 C 225.16 220.21 226.31 217.25 227.22 214.21 C 228.76 208.87 231.66 204.12 234.31 199.30 C 243.34 183.39 250.01 166.34 258.07 149.96 C 261.55 141.41 267.57 134.32 272.43 126.57 C 274.09 123.79 275.43 120.83 277.15 118.08 C 281.66 111.03 284.03 102.80 289.10 96.08 C 291.35 92.99 295.20 91.38 296.88 87.82 C 299.65 82.76 303.05 77.78 304.10 72.03 C 304.23 57.68 304.19 43.32 304.17 28.97 C 303.25 20.51 310.60 13.23 318.33 11.30 M 326.71 21.69 C 324.60 23.53 322.09 24.77 319.58 25.95 C 319.52 34.88 319.63 43.81 319.51 52.73 C 321.85 51.52 324.26 50.20 326.99 50.27 C 332.39 50.12 337.87 49.90 343.19 51.09 C 345.09 51.74 346.99 52.43 348.89 53.12 C 348.84 51.82 348.75 50.52 348.62 49.23 L 348.20 49.26 L 348.22 48.48 C 346.59 43.54 346.17 38.24 346.80 33.09 C 347.89 26.99 342.12 23.12 338.98 18.75 C 334.87 19.43 329.95 18.53 326.71 21.69 M 392.74 36.92 C 393.44 44.40 395.25 51.72 396.54 59.11 C 399.66 59.16 402.82 59.04 405.90 59.69 C 411.81 61.13 416.73 64.94 422.08 67.62 C 427.26 67.89 432.78 68.20 437.75 66.49 C 429.38 66.55 423.11 59.57 418.97 53.01 C 413.88 46.42 411.70 37.50 404.58 32.58 C 400.24 31.29 395.34 33.25 392.74 36.92 M 378.04 49.74 C 372.63 50.45 367.44 48.27 362.08 47.91 C 363.77 52.89 365.30 57.91 366.92 62.90 C 367.36 64.87 369.35 65.88 371.08 66.53 C 375.78 67.15 380.70 67.00 385.08 65.02 C 385.47 58.70 385.03 52.36 385.37 46.03 C 383.11 47.54 380.91 49.58 378.04 49.74 M 312.13 92.62 C 310.83 95.00 309.45 97.34 308.11 99.70 C 314.01 101.07 320.05 98.93 325.97 100.38 C 324.02 97.98 322.12 95.51 319.82 93.42 C 318.28 91.47 316.80 89.46 315.36 87.43 C 314.19 89.10 313.07 90.81 312.13 92.62 M 301.43 106.41 C 297.75 110.64 295.75 115.91 293.32 120.88 C 298.17 120.83 303.24 120.23 307.90 121.95 C 310.69 122.90 313.42 125.79 312.34 128.93 C 310.94 132.49 306.81 133.65 303.36 134.02 C 297.83 134.47 292.25 133.99 286.82 132.95 C 283.52 137.72 280.20 142.47 277.10 147.36 C 282.70 147.45 288.33 147.11 293.92 147.64 C 296.96 148.00 300.39 149.11 301.80 152.09 C 303.25 154.70 301.70 157.88 299.55 159.58 C 296.03 162.36 291.28 162.55 286.98 162.58 C 281.28 162.44 275.33 163.29 269.97 160.88 C 268.23 164.25 266.61 167.68 265.17 171.19 C 270.52 170.68 276.03 170.35 281.29 171.68 C 284.07 172.55 287.47 174.69 286.89 178.09 C 286.70 181.52 282.97 183.34 280.00 183.98 C 273.35 185.10 266.37 184.92 259.91 182.86 C 255.32 192.49 250.53 202.03 245.27 211.31 C 243.33 214.52 242.13 218.09 241.03 221.65 C 249.02 221.47 257.02 221.45 265.01 221.52 C 269.43 221.53 273.63 223.20 278.04 223.27 C 282.07 223.35 286.15 223.30 290.10 224.28 C 295.65 225.55 301.37 225.04 307.01 225.09 C 313.44 225.09 319.52 222.48 325.92 222.28 C 334.94 221.95 344.01 222.76 352.98 221.48 C 361.29 220.45 369.73 220.53 377.94 218.81 C 383.26 218.92 388.57 218.57 393.90 218.70 C 393.40 217.65 392.91 216.60 392.43 215.55 L 391.46 216.18 C 392.66 213.64 390.18 211.02 389.71 208.47 C 387.41 199.62 381.69 192.02 374.70 186.28 C 370.67 182.93 367.49 178.71 363.87 174.95 C 359.12 175.78 354.22 176.14 349.46 175.26 C 347.06 174.72 344.52 173.36 343.55 170.99 C 343.15 168.61 342.86 165.61 344.98 163.91 C 347.65 161.01 351.88 161.24 355.48 160.99 C 354.35 158.84 353.22 156.71 352.07 154.58 C 349.74 149.89 347.56 145.12 344.98 140.57 C 344.60 138.33 343.78 136.14 342.10 134.55 C 341.08 131.72 339.90 128.95 338.84 126.14 C 333.99 126.68 328.86 127.35 324.17 125.68 C 320.98 124.58 318.18 120.56 320.47 117.41 C 322.99 113.36 328.30 113.46 332.49 113.26 C 331.35 110.99 330.27 108.69 329.23 106.38 C 327.65 107.66 326.05 109.16 323.95 109.45 C 317.41 110.20 310.25 109.69 304.90 105.45 C 306.40 102.34 300.14 103.95 301.43 106.41 M 347.95 236.94 C 339.92 237.52 331.82 236.61 323.82 237.67 C 318.59 238.62 313.40 240.09 308.03 239.85 C 300.65 239.66 293.16 240.47 285.91 238.75 C 279.61 238.32 273.26 238.65 267.08 237.04 C 257.90 236.22 248.66 237.10 239.46 236.53 C 239.54 237.75 239.63 238.97 239.72 240.20 C 239.99 249.78 239.50 259.37 240.08 268.94 C 240.34 274.49 240.02 280.12 241.23 285.58 C 243.32 294.93 241.59 304.53 241.53 313.99 C 241.55 320.18 241.22 326.42 242.15 332.57 C 250.80 332.61 259.40 333.94 268.06 333.70 C 272.12 333.55 277.11 333.96 279.41 337.87 C 281.87 342.12 281.66 347.27 283.26 351.82 C 289.84 353.10 296.67 351.17 303.34 351.13 C 303.38 347.43 302.95 343.68 303.58 340.01 C 304.46 337.17 307.18 335.07 310.09 334.62 C 318.06 333.77 326.03 335.45 334.02 334.93 C 339.67 335.02 345.32 335.10 350.97 335.19 C 354.34 335.10 357.35 337.27 358.97 340.13 C 361.09 343.94 362.12 348.24 363.12 352.45 C 371.68 348.88 380.99 349.05 390.07 349.22 C 390.35 345.43 389.24 341.05 391.72 337.80 C 393.60 335.19 396.99 334.26 400.07 334.43 C 404.96 334.58 409.83 334.13 414.69 333.63 C 415.10 333.47 415.93 333.15 416.34 332.99 C 416.23 325.93 415.52 318.73 413.17 312.02 C 412.27 307.02 410.28 302.35 408.69 297.56 C 405.77 288.99 405.37 279.91 403.99 271.03 C 403.13 265.21 403.99 259.29 403.15 253.46 C 402.16 246.96 402.36 240.37 401.84 233.84 C 392.55 233.86 383.17 233.10 373.96 234.65 C 365.27 235.17 356.63 236.30 347.95 236.94 M 87.44 262.32 C 87.96 264.93 88.51 267.53 89.14 270.12 C 90.50 270.17 91.87 270.22 93.24 270.28 C 93.53 266.97 93.76 263.66 93.93 260.35 C 91.73 260.89 89.59 261.62 87.44 262.32 M 28.63 262.40 C 28.77 272.74 28.63 283.08 28.71 293.42 C 32.13 293.19 35.51 292.49 38.95 292.50 C 41.82 292.45 44.31 294.08 46.82 295.27 C 53.79 293.88 60.93 294.35 67.99 293.99 C 81.28 292.82 94.64 293.48 107.96 293.29 C 113.82 292.92 119.24 295.56 124.98 296.16 C 140.91 298.93 157.04 296.12 173.02 295.43 C 173.16 292.61 172.75 289.80 171.98 287.10 C 170.24 280.88 170.61 274.31 168.71 268.14 C 163.60 268.07 158.50 267.76 153.40 268.13 C 152.92 271.58 152.72 275.17 151.25 278.39 C 149.44 281.64 145.58 283.02 142.01 282.75 C 136.66 282.53 131.16 283.36 125.93 282.09 C 119.45 279.69 119.02 271.97 116.72 266.45 C 113.92 266.41 111.12 266.38 108.32 266.34 C 107.75 270.90 107.63 275.56 106.31 279.99 C 104.94 283.17 101.37 284.84 98.03 284.77 C 92.93 284.70 87.70 285.31 82.69 284.17 C 76.00 281.07 74.85 272.91 73.30 266.51 C 71.03 266.49 68.77 266.48 66.50 266.47 C 66.08 270.66 66.48 275.35 63.98 278.99 C 61.19 282.65 56.15 282.56 51.99 282.64 C 47.41 282.59 41.88 283.35 38.49 279.52 C 34.36 274.77 35.58 268.09 34.48 262.36 C 32.53 262.36 30.58 262.34 28.63 262.40 M 607.84 267.68 C 607.78 273.43 607.70 280.82 601.92 283.98 C 597.87 285.51 593.35 285.02 589.19 286.17 C 585.13 287.29 581.03 286.15 576.94 286.13 C 570.24 284.45 571.14 276.62 570.64 271.30 C 566.87 271.16 563.10 271.34 559.34 271.47 C 559.46 277.21 559.79 283.97 555.08 288.16 C 552.28 291.33 547.79 290.93 543.98 290.93 C 535.93 290.71 527.62 291.67 519.86 289.01 C 517.08 288.13 514.84 285.82 514.01 283.03 C 513.71 280.01 513.43 276.99 512.98 273.99 C 511.98 273.66 510.97 273.39 509.96 273.16 C 508.20 272.63 506.39 272.32 504.61 271.97 C 504.67 276.63 504.39 281.30 504.72 285.96 C 505.57 290.28 507.27 294.37 508.62 298.56 C 515.37 299.73 522.25 299.24 529.06 299.65 C 532.07 299.89 534.90 301.31 537.97 301.12 C 542.32 300.97 546.57 299.97 550.90 299.60 C 567.23 298.38 583.62 298.90 599.98 298.67 C 608.84 297.65 617.77 297.69 626.68 297.73 C 626.55 288.27 627.41 278.71 625.38 269.39 C 619.51 269.17 613.60 268.93 607.84 267.68 M 62.44 311.50 C 62.75 316.62 62.33 321.84 63.69 326.85 C 66.07 336.07 64.53 345.65 65.18 355.02 C 68.61 385.23 65.68 415.70 67.47 445.98 C 67.59 462.30 67.61 478.63 67.88 494.95 C 68.82 504.06 68.22 513.21 68.51 522.35 C 68.47 522.70 68.38 523.39 68.34 523.74 C 70.97 524.01 73.62 524.16 76.27 523.96 C 81.50 524.50 86.80 523.73 92.02 524.52 C 98.63 525.87 105.29 526.93 111.95 528.02 C 121.62 528.79 131.33 529.33 141.04 529.12 C 143.82 529.11 145.48 526.27 148.13 525.74 C 151.16 525.31 154.16 526.24 157.13 526.77 C 156.44 520.51 155.31 514.29 155.32 507.97 C 154.75 495.58 153.64 483.23 152.56 470.88 C 151.04 462.30 151.24 453.54 149.81 444.94 C 148.09 434.04 147.62 422.97 145.56 412.12 C 144.37 405.76 144.79 399.15 142.80 392.94 C 142.93 386.26 141.65 379.65 141.73 372.97 C 141.68 360.99 141.72 349.01 141.70 337.03 C 141.73 328.50 143.12 319.86 146.69 312.07 C 133.50 313.35 120.22 312.54 106.99 312.78 C 101.25 313.13 95.70 311.26 89.98 311.35 C 80.80 311.36 71.62 311.32 62.44 311.50 M 544.91 314.88 C 540.73 315.66 536.30 314.72 532.31 316.47 C 534.50 332.24 535.65 348.14 536.78 364.02 C 538.66 378.34 537.03 392.87 539.35 407.16 C 540.39 413.39 541.52 419.64 541.73 425.97 C 541.85 432.70 543.60 439.25 544.14 445.95 C 546.05 457.53 546.70 469.27 546.82 480.99 C 547.77 490.29 547.99 499.63 547.91 508.97 C 547.73 513.49 549.51 518.25 547.59 522.57 C 547.24 523.75 547.39 524.92 548.04 526.08 L 547.50 526.13 C 550.81 527.48 554.44 526.92 557.93 527.02 C 562.10 526.89 566.42 527.28 570.46 525.98 C 583.30 526.11 596.16 525.84 609.00 526.08 C 614.18 527.12 619.78 527.81 624.81 525.76 C 625.02 514.49 624.65 503.16 623.02 491.99 C 621.62 483.72 622.85 475.30 622.00 466.99 C 621.31 456.81 618.24 447.02 616.56 436.99 C 614.18 428.51 614.71 419.61 613.06 411.02 C 612.07 405.70 612.38 400.27 611.72 394.92 C 611.17 384.55 608.98 374.38 608.12 364.04 C 607.50 353.93 605.19 344.04 603.85 334.02 C 603.13 327.14 601.99 320.27 602.42 313.33 C 592.98 312.28 583.48 313.59 574.02 312.92 C 564.31 313.29 554.51 313.19 544.91 314.88 M 495.32 343.51 C 494.95 348.38 496.30 353.64 494.07 358.20 C 492.15 361.81 487.71 362.58 483.99 362.37 C 475.60 362.17 467.16 362.40 458.94 364.24 C 454.26 365.28 448.13 364.89 445.63 360.13 C 443.75 356.18 442.26 352.03 441.05 347.83 C 439.86 344.35 435.45 347.00 432.85 347.08 C 425.92 347.71 418.92 347.13 412.02 348.19 C 409.46 348.56 406.88 348.71 404.30 348.78 C 404.10 352.02 404.14 355.34 403.26 358.49 C 401.90 361.19 399.13 363.17 396.09 363.39 C 389.43 363.81 382.73 363.14 376.08 363.74 C 370.55 364.22 365.72 367.82 360.08 367.60 C 356.58 367.64 352.69 365.91 351.42 362.44 C 349.72 358.20 348.88 353.69 347.48 349.35 C 337.54 348.98 327.58 349.48 317.66 348.69 C 317.37 353.50 318.86 359.38 314.97 363.12 C 311.25 366.64 305.67 365.14 301.07 365.62 C 293.77 366.38 286.43 366.81 279.09 366.59 C 275.38 366.63 271.85 364.12 270.77 360.56 C 269.49 356.56 268.52 352.48 267.81 348.35 C 256.08 347.86 244.39 346.66 232.64 346.80 C 231.24 351.30 231.35 357.43 226.47 359.79 C 216.84 364.06 206.15 361.47 196.05 362.92 C 191.41 363.32 185.93 364.21 182.09 360.92 C 178.44 357.49 179.49 352.04 179.21 347.56 C 171.58 347.52 163.94 347.89 156.33 347.18 C 156.67 359.86 155.74 372.59 156.97 385.24 C 178.31 385.94 199.69 384.94 221.03 385.95 C 233.95 385.27 246.92 385.08 259.84 385.86 C 269.20 386.89 278.58 388.04 288.01 387.89 C 301.33 387.87 314.65 387.81 327.96 388.09 C 336.33 388.46 344.63 387.05 352.99 387.10 C 362.67 386.32 372.39 386.59 382.05 385.63 C 391.60 384.74 401.24 385.66 410.75 384.91 C 412.93 384.92 415.11 384.84 417.30 384.87 C 427.85 385.42 438.50 385.47 449.04 384.55 C 460.71 384.39 472.39 384.59 484.06 384.47 C 491.68 384.04 499.32 384.17 506.96 384.19 C 512.65 384.35 517.91 381.83 523.40 380.70 C 523.87 374.09 522.09 367.63 522.12 361.04 C 521.77 354.91 520.96 348.82 520.49 342.70 C 512.11 343.15 503.72 343.67 495.32 343.51 M 515.17 397.68 C 510.54 398.80 505.75 398.36 501.04 398.43 C 492.01 398.26 482.99 399.03 473.96 398.82 C 463.65 399.02 453.31 398.29 443.05 399.48 C 423.73 399.90 404.39 399.22 385.08 399.86 C 373.75 400.87 362.37 400.86 351.03 401.54 C 330.71 402.99 310.33 402.20 289.98 402.42 C 282.29 402.68 274.64 401.90 267.00 401.26 C 255.42 399.56 243.68 399.71 232.01 400.01 C 224.71 400.84 217.36 400.67 210.04 400.14 C 192.92 400.07 175.81 399.96 158.69 399.66 C 159.34 408.52 161.44 417.18 162.11 426.04 C 163.29 438.03 165.33 449.93 165.90 461.98 C 168.79 482.61 168.74 503.52 171.19 524.19 C 177.48 524.76 183.78 523.82 190.07 524.23 C 195.20 524.30 200.39 524.53 205.47 523.65 C 212.62 522.25 219.97 522.32 227.07 520.61 C 234.31 518.88 241.81 520.54 249.05 518.96 C 257.59 517.15 266.38 517.59 275.02 516.67 C 285.28 516.57 295.53 516.31 305.79 516.37 C 305.97 511.93 305.29 507.47 305.54 503.01 C 305.81 496.86 304.52 490.32 307.30 484.55 C 309.62 479.57 311.16 474.27 313.26 469.20 C 316.08 462.24 322.19 457.44 328.01 453.04 C 335.96 446.99 346.20 444.62 356.08 445.16 C 362.71 444.79 368.78 447.81 374.64 450.49 C 379.65 452.77 383.93 456.36 387.93 460.08 C 392.50 465.04 395.73 471.03 399.23 476.75 C 405.41 489.70 410.70 503.90 408.51 518.50 C 428.03 517.94 447.51 519.66 467.03 519.57 C 477.67 519.86 488.33 520.24 498.90 521.57 C 510.82 522.24 522.65 523.91 534.49 525.40 C 534.35 518.60 533.60 511.83 533.77 505.02 C 533.95 494.00 532.22 483.06 532.27 472.05 C 532.02 455.23 527.74 438.79 527.08 422.01 C 526.07 413.12 523.83 404.37 524.06 395.37 C 521.06 396.03 518.16 397.01 515.17 397.68 M 358.18 460.01 C 358.31 460.26 358.59 460.75 358.72 461.00 C 359.41 465.65 359.51 470.42 360.89 474.96 C 363.48 483.75 364.90 492.87 364.83 502.04 C 365.59 507.25 366.00 512.54 366.21 517.74 C 375.53 518.79 385.00 518.41 394.38 518.27 C 394.71 512.20 394.56 506.03 392.73 500.18 C 390.19 492.02 387.06 483.93 382.17 476.86 C 378.27 469.80 371.61 464.54 364.09 461.77 C 362.17 460.99 360.19 460.42 358.18 460.01 M 342.36 462.20 C 338.10 462.67 335.03 466.35 331.71 468.77 C 325.54 473.27 324.96 481.44 321.80 487.85 C 319.44 492.19 320.17 497.23 320.08 501.97 C 320.13 505.61 319.85 509.28 320.41 512.91 C 320.72 514.34 320.99 516.38 322.96 516.20 C 327.63 516.57 332.33 516.37 336.99 517.02 C 339.97 517.51 342.86 516.39 345.82 516.31 C 347.85 516.79 349.81 517.53 351.82 518.13 C 351.89 512.38 350.32 506.78 350.27 501.04 C 350.25 493.21 348.72 485.47 346.53 477.98 C 345.01 472.73 345.00 467.22 343.93 461.89 C 343.18 460.45 342.66 460.55 342.36 462.20 Z" />
<path fill="#000000" opacity="1.00" d=" M 313.54 141.49 C 316.68 138.74 321.18 139.42 325.04 139.25 C 331.01 139.42 337.34 138.52 342.91 141.23 C 343.81 141.83 344.69 142.46 345.55 143.13 C 346.05 144.60 346.54 146.08 347.01 147.57 C 345.44 149.86 343.74 152.39 340.89 153.14 C 335.40 154.78 329.58 154.11 323.93 154.26 C 319.69 154.26 314.48 154.22 311.95 150.15 C 310.81 147.33 310.97 143.51 313.54 141.49 Z" />
<path fill="#000000" opacity="1.00" d=" M 309.54 164.70 C 314.13 164.07 319.55 163.28 323.36 166.59 C 325.24 167.95 325.34 170.99 323.56 172.47 C 319.60 175.89 314.10 176.80 309.03 176.94 C 306.57 176.89 303.68 177.10 301.89 175.06 C 299.89 173.55 300.13 170.72 300.67 168.57 C 302.44 165.43 306.37 165.19 309.54 164.70 Z" />
<path fill="#000000" opacity="1.00" d=" M 336.52 182.69 C 341.29 181.75 347.45 181.89 350.40 186.43 C 352.27 189.05 350.96 192.71 348.44 194.36 C 345.28 196.51 341.36 196.82 337.77 197.79 C 333.89 198.67 329.95 200.20 325.92 199.46 C 323.03 198.74 320.23 196.19 320.38 193.02 C 320.02 189.74 322.42 186.75 325.43 185.71 C 329.05 184.47 332.78 183.53 336.52 182.69 Z" />
<path fill="#000000" opacity="1.00" d=" M 290.57 185.95 C 296.41 186.13 302.84 184.70 308.19 187.73 C 311.79 189.57 311.80 195.22 308.62 197.47 C 303.95 201.17 297.60 200.58 292.01 200.71 C 288.31 200.52 284.16 201.29 280.94 198.98 C 277.28 196.56 277.24 190.40 280.79 187.85 C 283.47 185.52 287.30 186.29 290.57 185.95 Z" />
<path fill="#000000" opacity="1.00" d=" M 353.07 203.92 C 358.50 202.03 364.43 201.92 370.11 202.34 C 373.53 202.58 376.30 204.90 377.64 207.97 C 376.74 209.83 375.94 212.00 373.94 212.96 C 369.96 215.11 365.26 214.65 360.90 215.00 C 357.38 215.07 353.12 215.31 350.60 212.38 C 348.17 209.67 349.67 204.99 353.07 203.92 Z" />
<path fill="#000000" opacity="1.00" d=" M 259.52 203.83 C 264.31 202.92 269.26 203.00 274.11 203.42 C 278.25 203.82 283.09 207.33 281.47 212.04 C 279.14 217.02 272.76 217.24 268.00 217.22 C 263.21 216.87 256.99 217.49 253.99 212.87 C 251.76 208.80 255.33 204.31 259.52 203.83 Z" />
<path fill="#000000" opacity="1.00" d=" M 302.41 206.66 C 306.80 205.22 311.59 205.60 316.10 206.19 C 319.11 206.64 322.75 209.19 321.63 212.66 C 319.87 216.69 314.81 216.98 311.01 216.92 C 307.52 216.70 302.86 217.78 300.65 214.28 C 298.50 211.88 299.99 208.20 302.41 206.66 Z" />
<path fill="#000000" opacity="1.00" d=" M 322.04 252.18 C 327.68 251.01 334.47 251.94 338.34 256.60 C 341.41 260.54 343.21 265.29 345.00 269.91 C 347.15 275.40 346.56 281.43 348.18 287.05 C 349.25 290.76 347.68 295.27 344.11 297.01 C 341.63 298.41 338.65 297.74 335.96 297.61 C 328.22 296.80 320.39 298.01 312.70 296.93 C 319.79 296.44 326.90 296.69 334.00 296.46 C 326.47 296.34 318.87 296.77 311.43 295.37 C 306.62 291.97 306.34 285.40 306.21 280.06 C 306.35 275.50 305.49 270.41 308.18 266.41 C 309.25 265.81 309.97 264.78 310.23 263.58 C 312.73 258.72 316.24 253.26 322.04 252.18 M 321.05 274.02 C 320.68 276.72 320.87 279.46 320.84 282.19 C 324.70 282.16 328.56 282.18 332.43 282.26 C 332.20 277.70 330.70 273.35 328.75 269.26 C 328.12 268.18 327.65 266.29 326.02 266.54 C 324.04 268.79 322.27 271.28 321.05 274.02 Z" />
<path fill="#000000" opacity="1.00" d=" M 119.56 352.59 C 121.52 352.55 123.49 352.52 125.45 352.51 C 126.78 353.79 128.29 354.95 129.28 356.54 C 130.58 360.57 130.00 364.87 130.22 369.03 C 130.31 372.06 130.91 375.11 130.45 378.14 C 129.97 380.46 128.04 382.02 126.48 383.64 C 124.15 383.69 121.82 383.62 119.49 383.49 C 117.89 381.53 116.16 379.49 115.86 376.88 C 115.06 371.28 115.11 365.57 115.33 359.93 C 115.20 356.84 117.46 354.53 119.56 352.59 Z" />
<path fill="#000000" opacity="1.00" d=" M 558.29 361.31 C 562.71 358.80 568.26 363.22 568.14 367.98 C 568.37 374.30 568.12 380.63 568.68 386.94 C 568.68 389.77 569.36 393.09 567.44 395.50 C 565.42 398.24 561.27 399.49 558.40 397.27 C 554.84 395.22 554.55 390.71 554.32 387.05 C 554.09 380.66 553.98 374.25 554.19 367.85 C 554.13 365.10 555.75 362.41 558.29 361.31 Z" />
<path fill="#000000" opacity="1.00" d=" M 585.77 406.97 C 586.54 402.84 591.35 401.03 594.89 402.90 C 599.28 406.04 599.49 411.98 600.28 416.83 C 601.52 423.44 602.60 430.25 601.42 436.96 C 600.72 438.84 598.91 440.03 597.59 441.46 C 595.86 441.48 594.13 441.50 592.42 441.53 C 591.09 440.31 589.55 439.24 588.65 437.65 C 587.13 434.24 588.03 430.42 587.48 426.83 C 586.61 420.25 584.76 413.63 585.77 406.97 Z" />
<path fill="#000000" opacity="1.00" d=" M 88.67 416.06 C 88.56 412.77 89.94 409.27 92.94 407.63 C 95.02 407.20 97.15 407.36 99.26 407.37 C 101.50 409.34 103.56 411.87 103.45 415.05 C 103.54 421.03 103.56 427.02 103.43 433.01 C 103.36 436.96 100.31 441.37 95.92 440.69 C 91.70 441.15 88.80 436.86 88.72 433.04 C 88.59 427.38 88.69 421.72 88.67 416.06 Z" />
</g>
<g id="#e6c974ff">
<path fill="#e6c974" opacity="1.00" d=" M 326.71 21.69 C 329.95 18.53 334.87 19.43 338.98 18.75 C 342.12 23.12 347.89 26.99 346.80 33.09 C 346.17 38.24 346.59 43.54 348.22 48.48 L 348.20 49.26 C 346.98 50.74 344.98 51.03 343.19 51.09 C 337.87 49.90 332.39 50.12 326.99 50.27 C 324.26 50.20 321.85 51.52 319.51 52.73 C 319.63 43.81 319.52 34.88 319.58 25.95 C 322.09 24.77 324.60 23.53 326.71 21.69 Z" />
<path fill="#e6c974" opacity="1.00" d=" M 392.74 36.92 C 395.34 33.25 400.24 31.29 404.58 32.58 C 411.70 37.50 413.88 46.42 418.97 53.01 C 423.11 59.57 429.38 66.55 437.75 66.49 C 432.78 68.20 427.26 67.89 422.08 67.62 C 416.73 64.94 411.81 61.13 405.90 59.69 C 402.82 59.04 399.66 59.16 396.54 59.11 C 395.25 51.72 393.44 44.40 392.74 36.92 Z" />
<path fill="#e6c974" opacity="1.00" d=" M 378.04 49.74 C 380.91 49.58 383.11 47.54 385.37 46.03 C 385.03 52.36 385.47 58.70 385.08 65.02 C 380.70 67.00 375.78 67.15 371.08 66.53 C 369.35 65.88 367.36 64.87 366.92 62.90 C 365.30 57.91 363.77 52.89 362.08 47.91 C 367.44 48.27 372.63 50.45 378.04 49.74 Z" />
<path fill="#e6c974" opacity="1.00" d=" M 321.05 274.02 C 322.27 271.28 324.04 268.79 326.02 266.54 C 327.65 266.29 328.12 268.18 328.75 269.26 C 330.70 273.35 332.20 277.70 332.43 282.26 C 328.56 282.18 324.70 282.16 320.84 282.19 C 320.87 279.46 320.68 276.72 321.05 274.02 Z" />
</g>
<g id="#211a172f">
<path fill="#211a17" opacity="0.18" d=" M 312.13 92.62 C 313.07 90.81 314.19 89.10 315.36 87.43 C 316.80 89.46 318.28 91.47 319.82 93.42 C 317.43 92.19 314.71 92.47 312.13 92.62 Z" />
<path fill="#211a17" opacity="0.18" d=" M 377.29 448.14 C 379.45 449.61 381.96 450.79 383.38 453.11 C 381.09 451.79 379.21 449.92 377.29 448.14 Z" />
<path fill="#211a17" opacity="0.18" d=" M 358.18 460.01 C 360.19 460.42 362.17 460.99 364.09 461.77 C 362.30 461.45 360.51 461.22 358.72 461.00 C 358.59 460.75 358.31 460.26 358.18 460.01 Z" />
<path fill="#211a17" opacity="0.18" d=" M 572.21 468.56 C 573.47 467.87 574.72 467.15 575.98 466.43 C 575.97 467.02 575.95 468.18 575.94 468.76 C 574.68 468.69 573.44 468.63 572.21 468.56 Z" />
<path fill="#211a17" opacity="0.18" d=" M 68.51 522.35 C 71.07 522.99 73.66 523.55 76.27 523.96 C 73.62 524.16 70.97 524.01 68.34 523.74 C 68.38 523.39 68.47 522.70 68.51 522.35 Z" />
</g>
<g id="#b69083ff">
<path fill="#b69083" opacity="1.00" d=" M 312.13 92.62 C 314.71 92.47 317.43 92.19 319.82 93.42 C 322.12 95.51 324.02 97.98 325.97 100.38 C 320.05 98.93 314.01 101.07 308.11 99.70 C 309.45 97.34 310.83 95.00 312.13 92.62 Z" />
<path fill="#b69083" opacity="1.00" d=" M 301.43 106.41 C 302.60 106.16 303.76 105.84 304.90 105.45 C 310.25 109.69 317.41 110.20 323.95 109.45 C 326.05 109.16 327.65 107.66 329.23 106.38 C 330.27 108.69 331.35 110.99 332.49 113.26 C 328.30 113.46 322.99 113.36 320.47 117.41 C 318.18 120.56 320.98 124.58 324.17 125.68 C 328.86 127.35 333.99 126.68 338.84 126.14 C 339.90 128.95 341.08 131.72 342.10 134.55 C 342.89 136.96 343.62 139.39 344.37 141.83 L 342.91 141.23 C 337.34 138.52 331.01 139.42 325.04 139.25 C 321.18 139.42 316.68 138.74 313.54 141.49 C 310.97 143.51 310.81 147.33 311.95 150.15 C 314.48 154.22 319.69 154.26 323.93 154.26 C 329.58 154.11 335.40 154.78 340.89 153.14 C 343.74 152.39 345.44 149.86 347.01 147.57 C 347.34 148.67 347.65 149.78 347.98 150.89 C 348.24 151.45 348.76 152.56 349.03 153.12 C 349.12 153.49 349.30 154.23 349.39 154.60 C 350.06 154.60 351.40 154.59 352.07 154.58 C 353.22 156.71 354.35 158.84 355.48 160.99 C 351.88 161.24 347.65 161.01 344.98 163.91 C 342.86 165.61 343.15 168.61 343.55 170.99 C 344.52 173.36 347.06 174.72 349.46 175.26 C 354.22 176.14 359.12 175.78 363.87 174.95 C 367.49 178.71 370.67 182.93 374.70 186.28 C 381.69 192.02 387.41 199.62 389.71 208.47 C 390.18 211.02 392.66 213.64 391.46 216.18 C 387.60 219.27 382.40 217.70 377.94 218.81 C 369.73 220.53 361.29 220.45 352.98 221.48 C 344.01 222.76 334.94 221.95 325.92 222.28 C 319.52 222.48 313.44 225.09 307.01 225.09 C 301.37 225.04 295.65 225.55 290.10 224.28 C 286.15 223.30 282.07 223.35 278.04 223.27 C 273.63 223.20 269.43 221.53 265.01 221.52 C 257.02 221.45 249.02 221.47 241.03 221.65 C 242.13 218.09 243.33 214.52 245.27 211.31 C 250.53 202.03 255.32 192.49 259.91 182.86 C 266.37 184.92 273.35 185.10 280.00 183.98 C 282.97 183.34 286.70 181.52 286.89 178.09 C 287.47 174.69 284.07 172.55 281.29 171.68 C 276.03 170.35 270.52 170.68 265.17 171.19 C 266.61 167.68 268.23 164.25 269.97 160.88 C 275.33 163.29 281.28 162.44 286.98 162.58 C 291.28 162.55 296.03 162.36 299.55 159.58 C 301.70 157.88 303.25 154.70 301.80 152.09 C 300.39 149.11 296.96 148.00 293.92 147.64 C 288.33 147.11 282.70 147.45 277.10 147.36 C 280.20 142.47 283.52 137.72 286.82 132.95 C 292.25 133.99 297.83 134.47 303.36 134.02 C 306.81 133.65 310.94 132.49 312.34 128.93 C 313.42 125.79 310.69 122.90 307.90 121.95 C 303.24 120.23 298.17 120.83 293.32 120.88 C 295.75 115.91 297.75 110.64 301.43 106.41 M 309.54 164.70 C 306.37 165.19 302.44 165.43 300.67 168.57 C 300.13 170.72 299.89 173.55 301.89 175.06 C 303.68 177.10 306.57 176.89 309.03 176.94 C 314.10 176.80 319.60 175.89 323.56 172.47 C 325.34 170.99 325.24 167.95 323.36 166.59 C 319.55 163.28 314.13 164.07 309.54 164.70 M 336.52 182.69 C 332.78 183.53 329.05 184.47 325.43 185.71 C 322.42 186.75 320.02 189.74 320.38 193.02 C 320.23 196.19 323.03 198.74 325.92 199.46 C 329.95 200.20 333.89 198.67 337.77 197.79 C 341.36 196.82 345.28 196.51 348.44 194.36 C 350.96 192.71 352.27 189.05 350.40 186.43 C 347.45 181.89 341.29 181.75 336.52 182.69 M 290.57 185.95 C 287.30 186.29 283.47 185.52 280.79 187.85 C 277.24 190.40 277.28 196.56 280.94 198.98 C 284.16 201.29 288.31 200.52 292.01 200.71 C 297.60 200.58 303.95 201.17 308.62 197.47 C 311.80 195.22 311.79 189.57 308.19 187.73 C 302.84 184.70 296.41 186.13 290.57 185.95 M 353.07 203.92 C 349.67 204.99 348.17 209.67 350.60 212.38 C 353.12 215.31 357.38 215.07 360.90 215.00 C 365.26 214.65 369.96 215.11 373.94 212.96 C 375.94 212.00 376.74 209.83 377.64 207.97 C 376.30 204.90 373.53 202.58 370.11 202.34 C 364.43 201.92 358.50 202.03 353.07 203.92 M 259.52 203.83 C 255.33 204.31 251.76 208.80 253.99 212.87 C 256.99 217.49 263.21 216.87 268.00 217.22 C 272.76 217.24 279.14 217.02 281.47 212.04 C 283.09 207.33 278.25 203.82 274.11 203.42 C 269.26 203.00 264.31 202.92 259.52 203.83 M 302.41 206.66 C 299.99 208.20 298.50 211.88 300.65 214.28 C 302.86 217.78 307.52 216.70 311.01 216.92 C 314.81 216.98 319.87 216.69 321.63 212.66 C 322.75 209.19 319.11 206.64 316.10 206.19 C 311.59 205.60 306.80 205.22 302.41 206.66 Z" />
<path fill="#b69083" opacity="1.00" d=" M 331.71 468.77 C 335.03 466.35 338.10 462.67 342.36 462.20 C 342.75 462.13 343.54 461.97 343.93 461.89 C 345.00 467.22 345.01 472.73 346.53 477.98 C 348.72 485.47 350.25 493.21 350.27 501.04 C 350.32 506.78 351.89 512.38 351.82 518.13 C 349.81 517.53 347.85 516.79 345.82 516.31 C 342.86 516.39 339.97 517.51 336.99 517.02 C 332.33 516.37 327.63 516.57 322.96 516.20 C 320.99 516.38 320.72 514.34 320.41 512.91 C 319.85 509.28 320.13 505.61 320.08 501.97 C 320.17 497.23 319.44 492.19 321.80 487.85 C 324.96 481.44 325.54 473.27 331.71 468.77 Z" />
<path fill="#b69083" opacity="1.00" d=" M 358.72 461.00 C 360.51 461.22 362.30 461.45 364.09 461.77 C 371.61 464.54 378.27 469.80 382.17 476.86 C 387.06 483.93 390.19 492.02 392.73 500.18 C 394.56 506.03 394.71 512.20 394.38 518.27 C 385.00 518.41 375.53 518.79 366.21 517.74 C 366.00 512.54 365.59 507.25 364.83 502.04 C 364.90 492.87 363.48 483.75 360.89 474.96 C 359.51 470.42 359.41 465.65 358.72 461.00 Z" />
</g>
<g id="#352a26b3">
<path fill="#352a26" opacity="0.70" d=" M 342.10 134.55 C 343.78 136.14 344.60 138.33 344.98 140.57 C 345.12 141.21 345.41 142.49 345.55 143.13 C 344.69 142.46 343.81 141.83 342.91 141.23 L 344.37 141.83 C 343.62 139.39 342.89 136.96 342.10 134.55 Z" />
</g>
<g id="#5d494383">
<path fill="#5d4943" opacity="0.51" d=" M 347.98 150.89 C 348.24 151.45 348.76 152.56 349.03 153.12 C 348.76 152.56 348.24 151.45 347.98 150.89 Z" />
</g>
<g id="#3a2e29aa">
<path fill="#3a2e29" opacity="0.67" d=" M 224.05 223.18 C 223.99 219.92 224.39 216.32 227.22 214.21 C 226.31 217.25 225.16 220.21 224.05 223.18 Z" />
</g>
<g id="#bdbdbdff">
<path fill="#bdbdbd" opacity="1.00" d=" M 347.95 236.94 C 356.63 236.30 365.27 235.17 373.96 234.65 C 383.17 233.10 392.55 233.86 401.84 233.84 C 402.36 240.37 402.16 246.96 403.15 253.46 C 403.99 259.29 403.13 265.21 403.99 271.03 C 405.37 279.91 405.77 288.99 408.69 297.56 C 410.28 302.35 412.27 307.02 413.17 312.02 C 414.92 319.09 414.45 326.42 414.69 333.63 C 409.83 334.13 404.96 334.58 400.07 334.43 C 396.99 334.26 393.60 335.19 391.72 337.80 C 389.24 341.05 390.35 345.43 390.07 349.22 C 380.99 349.05 371.68 348.88 363.12 352.45 C 362.12 348.24 361.09 343.94 358.97 340.13 C 357.35 337.27 354.34 335.10 350.97 335.19 C 345.32 335.10 339.67 335.02 334.02 334.93 C 326.03 335.45 318.06 333.77 310.09 334.62 C 307.18 335.07 304.46 337.17 303.58 340.01 C 302.95 343.68 303.38 347.43 303.34 351.13 C 296.67 351.17 289.84 353.10 283.26 351.82 C 281.66 347.27 281.87 342.12 279.41 337.87 C 277.11 333.96 272.12 333.55 268.06 333.70 C 259.40 333.94 250.80 332.61 242.15 332.57 C 241.22 326.42 241.55 320.18 241.53 313.99 C 241.59 304.53 243.32 294.93 241.23 285.58 C 240.02 280.12 240.34 274.49 240.08 268.94 C 239.50 259.37 239.99 249.78 239.72 240.20 C 242.56 238.59 245.49 236.50 248.95 236.92 C 254.99 237.49 261.04 237.12 267.08 237.04 C 273.26 238.65 279.61 238.32 285.91 238.75 C 293.16 240.47 300.65 239.66 308.03 239.85 C 313.40 240.09 318.59 238.62 323.82 237.67 C 331.82 236.61 339.92 237.52 347.95 236.94 M 322.04 252.18 C 316.24 253.26 312.73 258.72 310.23 263.58 C 308.56 262.26 306.63 265.15 308.18 266.41 C 305.49 270.41 306.35 275.50 306.21 280.06 C 306.34 285.40 306.62 291.97 311.43 295.37 C 311.70 295.76 312.23 296.55 312.49 296.94 L 312.70 296.93 C 320.39 298.01 328.22 296.80 335.96 297.61 C 338.65 297.74 341.63 298.41 344.11 297.01 C 347.68 295.27 349.25 290.76 348.18 287.05 C 346.56 281.43 347.15 275.40 345.00 269.91 C 343.21 265.29 341.41 260.54 338.34 256.60 C 334.47 251.94 327.68 251.01 322.04 252.18 Z" />
<path fill="#bdbdbd" opacity="1.00" d=" M 87.44 262.32 C 89.59 261.62 91.73 260.89 93.93 260.35 C 93.76 263.66 93.53 266.97 93.24 270.28 C 91.87 270.22 90.50 270.17 89.14 270.12 C 88.51 267.53 87.96 264.93 87.44 262.32 Z" />
<path fill="#bdbdbd" opacity="1.00" d=" M 28.63 262.40 C 30.58 262.34 32.53 262.36 34.48 262.36 C 35.58 268.09 34.36 274.77 38.49 279.52 C 41.88 283.35 47.41 282.59 51.99 282.64 C 56.15 282.56 61.19 282.65 63.98 278.99 C 66.48 275.35 66.08 270.66 66.50 266.47 C 68.77 266.48 71.03 266.49 73.30 266.51 C 74.85 272.91 76.00 281.07 82.69 284.17 C 87.70 285.31 92.93 284.70 98.03 284.77 C 101.37 284.84 104.94 283.17 106.31 279.99 C 107.63 275.56 107.75 270.90 108.32 266.34 C 111.12 266.38 113.92 266.41 116.72 266.45 C 119.02 271.97 119.45 279.69 125.93 282.09 C 131.16 283.36 136.66 282.53 142.01 282.75 C 145.58 283.02 149.44 281.64 151.25 278.39 C 152.72 275.17 152.92 271.58 153.40 268.13 C 158.50 267.76 163.60 268.07 168.71 268.14 C 170.61 274.31 170.24 280.88 171.98 287.10 C 172.75 289.80 173.16 292.61 173.02 295.43 C 157.04 296.12 140.91 298.93 124.98 296.16 C 119.24 295.56 113.82 292.92 107.96 293.29 C 94.64 293.48 81.28 292.82 67.99 293.99 C 60.93 294.35 53.79 293.88 46.82 295.27 C 44.31 294.08 41.82 292.45 38.95 292.50 C 35.51 292.49 32.13 293.19 28.71 293.42 C 28.63 283.08 28.77 272.74 28.63 262.40 Z" />
<path fill="#bdbdbd" opacity="1.00" d=" M 49.40 265.55 L 50.05 265.40 C 50.44 265.62 51.22 266.07 51.61 266.30 C 51.87 267.25 51.58 269.23 50.13 268.44 C 49.35 267.65 49.11 266.69 49.40 265.55 Z" />
<path fill="#bdbdbd" opacity="1.00" d=" M 607.84 267.68 C 613.60 268.93 619.51 269.17 625.38 269.39 C 627.41 278.71 626.55 288.27 626.68 297.73 C 617.77 297.69 608.84 297.65 599.98 298.67 C 583.62 298.90 567.23 298.38 550.90 299.60 C 546.57 299.97 542.32 300.97 537.97 301.12 C 534.90 301.31 532.07 299.89 529.06 299.65 C 522.25 299.24 515.37 299.73 508.62 298.56 C 507.27 294.37 505.57 290.28 504.72 285.96 C 504.39 281.30 504.67 276.63 504.61 271.97 C 506.39 272.32 508.20 272.63 509.96 273.16 C 510.31 273.32 511.00 273.63 511.35 273.78 C 513.09 276.58 513.08 279.95 514.01 283.03 C 514.84 285.82 517.08 288.13 519.86 289.01 C 527.62 291.67 535.93 290.71 543.98 290.93 C 547.79 290.93 552.28 291.33 555.08 288.16 C 559.79 283.97 559.46 277.21 559.34 271.47 C 563.10 271.34 566.87 271.16 570.64 271.30 C 571.14 276.62 570.24 284.45 576.94 286.13 C 579.25 287.03 583.59 285.96 583.11 289.71 C 584.74 287.93 586.69 286.40 589.19 286.17 C 593.35 285.02 597.87 285.51 601.92 283.98 C 607.70 280.82 607.78 273.43 607.84 267.68 Z" />
<path fill="#bdbdbd" opacity="1.00" d=" M 62.44 311.50 C 71.62 311.32 80.80 311.36 89.98 311.35 C 95.70 311.26 101.25 313.13 106.99 312.78 C 120.22 312.54 133.50 313.35 146.69 312.07 C 143.12 319.86 141.73 328.50 141.70 337.03 C 141.72 349.01 141.68 360.99 141.73 372.97 C 141.65 379.65 142.93 386.26 142.80 392.94 C 144.79 399.15 144.37 405.76 145.56 412.12 C 147.62 422.97 148.09 434.04 149.81 444.94 C 151.24 453.54 151.04 462.30 152.56 470.88 C 153.64 483.23 154.75 495.58 155.32 507.97 C 155.31 514.29 156.44 520.51 157.13 526.77 C 154.16 526.24 151.16 525.31 148.13 525.74 C 145.48 526.27 143.82 529.11 141.04 529.12 C 131.33 529.33 121.62 528.79 111.95 528.02 C 105.29 526.93 98.63 525.87 92.02 524.52 C 86.80 523.73 81.50 524.50 76.27 523.96 C 73.66 523.55 71.07 522.99 68.51 522.35 C 68.22 513.21 68.82 504.06 67.88 494.95 C 67.61 478.63 67.59 462.30 67.47 445.98 C 65.68 415.70 68.61 385.23 65.18 355.02 C 64.53 345.65 66.07 336.07 63.69 326.85 C 62.33 321.84 62.75 316.62 62.44 311.50 M 119.56 352.59 C 117.46 354.53 115.20 356.84 115.33 359.93 C 115.11 365.57 115.06 371.28 115.86 376.88 C 116.16 379.49 117.89 381.53 119.49 383.49 C 121.82 383.62 124.15 383.69 126.48 383.64 C 128.04 382.02 129.97 380.46 130.45 378.14 C 130.91 375.11 130.31 372.06 130.22 369.03 C 130.00 364.87 130.58 360.57 129.28 356.54 C 128.29 354.95 126.78 353.79 125.45 352.51 C 123.49 352.52 121.52 352.55 119.56 352.59 M 88.67 416.06 C 88.69 421.72 88.59 427.38 88.72 433.04 C 88.80 436.86 91.70 441.15 95.92 440.69 C 100.31 441.37 103.36 436.96 103.43 433.01 C 103.56 427.02 103.54 421.03 103.45 415.05 C 103.56 411.87 101.50 409.34 99.26 407.37 C 97.15 407.36 95.02 407.20 92.94 407.63 C 89.94 409.27 88.56 412.77 88.67 416.06 M 136.28 493.03 C 136.35 496.36 139.29 491.54 136.28 493.03 Z" />
<path fill="#bdbdbd" opacity="1.00" d=" M 544.91 314.88 C 554.51 313.19 564.31 313.29 574.02 312.92 C 583.48 313.59 592.98 312.28 602.42 313.33 C 602.34 316.54 601.97 319.75 601.97 322.96 C 602.24 326.70 603.28 330.32 603.85 334.02 C 605.19 344.04 607.50 353.93 608.12 364.04 C 608.98 374.38 611.17 384.55 611.72 394.92 C 612.38 400.27 612.07 405.70 613.06 411.02 C 614.71 419.61 614.18 428.51 616.56 436.99 C 618.24 447.02 621.31 456.81 622.00 466.99 C 622.85 475.30 621.62 483.72 623.02 491.99 C 624.65 503.16 625.02 514.49 624.81 525.76 C 619.78 527.81 614.18 527.12 609.00 526.08 C 596.16 525.84 583.30 526.11 570.46 525.98 C 563.00 525.42 555.49 525.65 548.04 526.08 C 547.39 524.92 547.24 523.75 547.59 522.57 C 549.51 518.25 547.73 513.49 547.91 508.97 C 547.99 499.63 547.77 490.29 546.82 480.99 C 546.70 469.27 546.05 457.53 544.14 445.95 C 543.60 439.25 541.85 432.70 541.73 425.97 C 541.52 419.64 540.39 413.39 539.35 407.16 C 537.03 392.87 538.66 378.34 536.78 364.02 C 535.65 348.14 534.50 332.24 532.31 316.47 C 536.30 314.72 540.73 315.66 544.91 314.88 M 558.29 361.31 C 555.75 362.41 554.13 365.10 554.19 367.85 C 553.98 374.25 554.09 380.66 554.32 387.05 C 554.55 390.71 554.84 395.22 558.40 397.27 C 561.27 399.49 565.42 398.24 567.44 395.50 C 569.36 393.09 568.68 389.77 568.68 386.94 C 568.12 380.63 568.37 374.30 568.14 367.98 C 568.26 363.22 562.71 358.80 558.29 361.31 M 585.77 406.97 C 584.76 413.63 586.61 420.25 587.48 426.83 C 588.03 430.42 587.13 434.24 588.65 437.65 C 589.55 439.24 591.09 440.31 592.42 441.53 C 594.13 441.50 595.86 441.48 597.59 441.46 C 598.91 440.03 600.72 438.84 601.42 436.96 C 602.60 430.25 601.52 423.44 600.28 416.83 C 599.49 411.98 599.28 406.04 594.89 402.90 C 591.35 401.03 586.54 402.84 585.77 406.97 M 572.21 468.56 C 573.44 468.63 574.68 468.69 575.94 468.76 C 575.95 468.18 575.97 467.02 575.98 466.43 C 574.72 467.15 573.47 467.87 572.21 468.56 M 603.21 511.13 C 601.86 511.78 601.82 512.45 603.12 513.13 C 604.46 512.46 604.49 511.79 603.21 511.13 Z" />
<path fill="#bdbdbd" opacity="1.00" d=" M 495.32 343.51 C 503.72 343.67 512.11 343.15 520.49 342.70 C 520.96 348.82 521.77 354.91 522.12 361.04 C 522.09 367.63 523.87 374.09 523.40 380.70 C 517.91 381.83 512.65 384.35 506.96 384.19 C 499.32 384.17 491.68 384.04 484.06 384.47 C 472.39 384.59 460.71 384.39 449.04 384.55 C 438.50 385.47 427.85 385.42 417.30 384.87 C 415.46 384.40 413.66 383.83 411.85 383.30 C 411.57 383.71 411.03 384.51 410.75 384.91 C 401.24 385.66 391.60 384.74 382.05 385.63 C 372.39 386.59 362.67 386.32 352.99 387.10 C 344.63 387.05 336.33 388.46 327.96 388.09 C 314.65 387.81 301.33 387.87 288.01 387.89 C 278.58 388.04 269.20 386.89 259.84 385.86 C 246.92 385.08 233.95 385.27 221.03 385.95 C 199.69 384.94 178.31 385.94 156.97 385.24 C 155.74 372.59 156.67 359.86 156.33 347.18 C 163.94 347.89 171.58 347.52 179.21 347.56 C 179.49 352.04 178.44 357.49 182.09 360.92 C 185.93 364.21 191.41 363.32 196.05 362.92 C 206.15 361.47 216.84 364.06 226.47 359.79 C 231.35 357.43 231.24 351.30 232.64 346.80 C 244.39 346.66 256.08 347.86 267.81 348.35 C 268.52 352.48 269.49 356.56 270.77 360.56 C 271.85 364.12 275.38 366.63 279.09 366.59 C 286.43 366.81 293.77 366.38 301.07 365.62 C 305.67 365.14 311.25 366.64 314.97 363.12 C 318.86 359.38 317.37 353.50 317.66 348.69 C 327.58 349.48 337.54 348.98 347.48 349.35 C 348.88 353.69 349.72 358.20 351.42 362.44 C 352.69 365.91 356.58 367.64 360.08 367.60 C 365.72 367.82 370.55 364.22 376.08 363.74 C 382.73 363.14 389.43 363.81 396.09 363.39 C 399.13 363.17 401.90 361.19 403.26 358.49 C 404.14 355.34 404.10 352.02 404.30 348.78 C 406.88 348.71 409.46 348.56 412.02 348.19 C 418.92 347.13 425.92 347.71 432.85 347.08 C 435.59 347.15 438.32 347.51 441.05 347.83 C 442.26 352.03 443.75 356.18 445.63 360.13 C 448.13 364.89 454.26 365.28 458.94 364.24 C 467.16 362.40 475.60 362.17 483.99 362.37 C 487.71 362.58 492.15 361.81 494.07 358.20 C 496.30 353.64 494.95 348.38 495.32 343.51 Z" />
<path fill="#bdbdbd" opacity="1.00" d=" M 212.99 347.87 C 215.08 346.61 217.54 345.55 218.71 343.26 C 218.32 344.70 217.92 346.15 217.52 347.60 C 216.01 347.70 214.50 347.81 212.99 347.87 Z" />
<path fill="#bdbdbd" opacity="1.00" d=" M 472.07 348.21 C 474.24 345.18 477.19 342.74 481.04 342.31 C 481.11 344.26 481.16 346.22 481.21 348.18 C 478.16 348.18 475.11 348.13 472.07 348.21 Z" />
<path fill="#bdbdbd" opacity="1.00" d=" M 515.17 397.68 C 518.16 397.01 521.06 396.03 524.06 395.37 C 523.83 404.37 526.07 413.12 527.08 422.01 C 527.74 438.79 532.02 455.23 532.27 472.05 C 532.22 483.06 533.95 494.00 533.77 505.02 C 533.60 511.83 534.35 518.60 534.49 525.40 C 522.65 523.91 510.82 522.24 498.90 521.57 C 488.33 520.24 477.67 519.86 467.03 519.57 C 447.51 519.66 428.03 517.94 408.51 518.50 C 410.70 503.90 405.41 489.70 399.23 476.75 C 395.73 471.03 392.50 465.04 387.93 460.08 C 383.93 456.36 379.65 452.77 374.64 450.49 C 368.78 447.81 362.71 444.79 356.08 445.16 C 346.20 444.62 335.96 446.99 328.01 453.04 C 322.19 457.44 316.08 462.24 313.26 469.20 C 311.16 474.27 309.62 479.57 307.30 484.55 C 304.52 490.32 305.81 496.86 305.54 503.01 C 305.29 507.47 305.97 511.93 305.79 516.37 C 295.53 516.31 285.28 516.57 275.02 516.67 C 266.38 517.59 257.59 517.15 249.05 518.96 C 241.81 520.54 234.31 518.88 227.07 520.61 C 219.97 522.32 212.62 522.25 205.47 523.65 C 200.39 524.53 195.20 524.30 190.07 524.23 C 183.78 523.82 177.48 524.76 171.19 524.19 C 168.74 503.52 168.79 482.61 165.90 461.98 C 165.33 449.93 163.29 438.03 162.11 426.04 C 161.44 417.18 159.34 408.52 158.69 399.66 C 175.81 399.96 192.92 400.07 210.04 400.14 C 217.36 400.67 224.71 400.84 232.01 400.01 C 243.68 399.71 255.42 399.56 267.00 401.26 C 274.64 401.90 282.29 402.68 289.98 402.42 C 310.33 402.20 330.71 402.99 351.03 401.54 C 362.37 400.86 373.75 400.87 385.08 399.86 C 404.39 399.22 423.73 399.90 443.05 399.48 C 453.31 398.29 463.65 399.02 473.96 398.82 C 482.99 399.03 492.01 398.26 501.04 398.43 C 505.75 398.36 510.54 398.80 515.17 397.68 M 456.35 416.13 C 458.75 416.32 461.06 415.71 463.01 414.31 C 460.71 414.35 457.61 413.49 456.35 416.13 M 377.29 448.14 C 379.21 449.92 381.09 451.79 383.38 453.11 C 381.96 450.79 379.45 449.61 377.29 448.14 M 415.20 450.05 C 414.72 451.66 415.30 452.17 416.95 451.58 C 417.43 449.96 416.85 449.45 415.20 450.05 Z" />
<path fill="#bdbdbd" opacity="1.00" d=" M 617.45 539.39 C 620.32 539.35 623.20 539.36 626.08 539.26 C 623.26 540.08 620.22 540.74 617.45 539.39 Z" />
</g>
<g id="#1a1a1ae5">
<path fill="#1a1a1a" opacity="0.90" d=" M 133.19 268.46 C 134.81 267.52 137.11 267.46 138.90 267.81 C 138.17 270.03 135.05 269.22 133.33 268.81 L 133.19 268.46 Z" />
</g>
<g id="#818181b0">
<path fill="#818181" opacity="0.69" d=" M 411.85 383.30 C 413.66 383.83 415.46 384.40 417.30 384.87 C 415.11 384.84 412.93 384.92 410.75 384.91 C 411.03 384.51 411.57 383.71 411.85 383.30 Z" />
</g>
<g id="#a7a7a7e3">
<path fill="#a7a7a7" opacity="0.89" d=" M 456.35 416.13 C 457.61 413.49 460.71 414.35 463.01 414.31 C 461.06 415.71 458.75 416.32 456.35 416.13 Z" />
</g>
<g id="#898989ba">
<path fill="#898989" opacity="0.73" d=" M 415.20 450.05 C 416.85 449.45 417.43 449.96 416.95 451.58 C 415.30 452.17 414.72 451.66 415.20 450.05 Z" />
</g>
<g id="#0b080797">
<path fill="#0b0807" opacity="0.59" d=" M 342.36 462.20 C 342.66 460.55 343.18 460.45 343.93 461.89 C 343.54 461.97 342.75 462.13 342.36 462.20 Z" />
</g>
<g id="#999999d0">
<path fill="#999999" opacity="0.82" d=" M 136.28 493.03 C 139.29 491.54 136.35 496.36 136.28 493.03 Z" />
</g>
<g id="#a1a1a1db">
<path fill="#a1a1a1" opacity="0.86" d=" M 603.21 511.13 C 604.49 511.79 604.46 512.46 603.12 513.13 C 601.82 512.45 601.86 511.78 603.21 511.13 Z" />
</g>
</svg>
