<?xml version="1.0" encoding="UTF-8" ?>
<!DOCTYPE svg PUBLIC "-//W3C//DTD SVG 1.1//EN" "http://www.w3.org/Graphics/SVG/1.1/DTD/svg11.dtd">
<svg width="353pt" height="231pt" viewBox="0 0 353 231" version="1.1" xmlns="http://www.w3.org/2000/svg">
<g id="#000000ff">
<path fill="#000000" opacity="1.00" d=" M 158.65 6.94 C 171.04 6.33 183.71 3.59 195.96 6.88 C 205.20 8.96 214.71 9.59 223.92 11.87 C 235.00 14.81 244.57 21.36 254.93 26.04 C 267.60 32.94 279.65 41.02 290.80 50.20 C 297.04 56.15 303.29 62.48 306.72 70.55 C 308.51 75.26 310.68 79.81 312.94 84.31 C 314.42 87.68 315.21 91.29 316.52 94.73 C 319.88 102.46 321.95 110.87 321.80 119.33 C 327.88 118.66 334.22 118.16 340.17 119.92 C 350.93 123.27 354.08 140.08 344.91 146.82 C 338.72 151.86 330.70 153.88 322.89 154.51 C 323.62 160.99 323.03 167.52 323.36 174.02 C 323.03 181.38 324.53 188.65 324.27 196.00 C 324.21 205.54 324.29 215.08 324.32 224.62 C 314.27 225.99 304.07 225.03 293.96 225.24 C 277.66 224.19 261.32 224.80 245.00 224.67 C 236.32 224.48 227.69 225.69 219.02 225.54 C 196.34 225.59 173.69 226.84 151.01 226.80 C 142.82 226.46 134.63 226.73 126.45 226.37 C 111.66 224.81 96.81 226.45 81.99 226.32 C 66.80 226.67 51.51 225.56 36.66 222.30 C 34.95 217.39 35.86 212.12 35.29 207.04 C 33.85 192.53 35.07 177.89 33.17 163.42 C 25.44 163.90 17.85 161.53 11.20 157.72 C 5.67 154.22 2.95 147.36 3.39 140.97 C 3.25 136.62 6.87 133.33 10.17 131.06 C 16.98 126.48 25.36 125.94 33.22 124.59 C 33.50 120.73 33.26 116.87 33.15 113.02 C 33.29 107.35 33.70 101.65 33.00 96.00 C 32.55 93.77 33.66 91.69 34.53 89.72 C 38.94 80.27 44.62 71.39 51.71 63.72 C 58.28 54.43 66.09 46.08 74.83 38.81 C 82.72 31.21 92.65 26.35 102.10 21.05 C 111.62 15.83 122.31 13.65 132.82 11.50 C 141.13 8.54 149.97 8.01 158.65 6.94 M 153.05 19.96 C 150.00 20.19 146.92 20.31 143.96 21.12 C 132.04 24.32 120.53 28.81 108.83 32.69 C 107.72 43.27 104.01 53.40 103.29 64.04 C 101.29 74.70 100.48 85.57 100.68 96.41 C 110.10 96.33 119.52 95.92 128.94 96.10 C 138.08 96.39 147.25 95.15 156.37 96.38 C 156.31 91.04 155.92 85.66 156.66 80.36 C 156.97 78.15 159.17 76.96 161.22 76.84 C 168.45 76.35 175.71 76.64 182.94 76.10 C 191.30 75.41 199.70 74.35 208.10 74.99 C 210.03 75.01 212.04 76.07 212.51 78.05 C 213.81 83.62 213.25 89.39 213.34 95.05 C 223.36 95.12 233.38 95.07 243.40 95.11 C 241.94 81.12 243.00 67.05 242.53 53.02 C 242.65 45.02 239.89 37.31 240.32 29.29 C 233.34 25.71 225.68 23.77 217.93 22.76 C 210.49 21.83 203.59 18.30 196.04 18.08 C 188.36 17.65 180.66 17.17 172.97 17.43 C 166.26 17.64 159.73 19.47 153.05 19.96 M 247.64 33.03 C 252.35 53.64 249.53 74.87 250.73 95.78 C 253.58 95.85 256.44 95.86 259.31 95.84 C 259.41 90.23 259.21 84.62 258.86 79.02 C 258.88 73.25 258.91 67.46 257.79 61.77 C 257.22 52.89 254.92 44.31 253.08 35.67 C 251.27 34.77 249.47 33.88 247.64 33.03 M 93.93 40.07 C 92.34 47.12 91.83 54.39 91.27 61.59 C 89.49 73.27 87.30 84.99 87.77 96.87 C 89.41 96.83 91.05 96.80 92.69 96.77 C 93.00 89.82 93.25 82.87 93.62 75.92 C 93.75 71.23 95.15 66.72 95.63 62.07 C 96.41 53.33 98.87 44.87 100.70 36.31 C 98.39 37.46 95.96 38.44 93.93 40.07 M 261.59 41.81 C 267.10 59.48 266.47 78.24 266.64 96.54 C 279.15 96.73 291.55 94.43 304.09 94.88 C 301.19 81.36 294.56 68.04 283.21 59.70 C 276.23 53.46 269.61 46.77 261.59 41.81 M 72.83 57.75 C 65.02 63.83 57.75 70.69 51.73 78.57 C 47.99 84.24 44.66 90.18 41.76 96.32 C 44.47 96.88 47.20 97.39 49.97 97.41 C 59.88 97.60 69.79 97.44 79.69 97.53 C 79.18 79.16 83.89 61.31 87.97 43.57 C 82.55 47.90 77.88 53.03 72.83 57.75 M 181.02 83.50 C 175.24 83.67 169.45 83.89 163.68 84.26 C 163.90 92.84 163.63 101.42 163.81 110.00 C 164.43 117.89 164.28 125.82 164.24 133.73 C 178.32 132.85 192.45 133.34 206.55 133.33 C 206.70 116.64 206.34 99.94 205.59 83.28 C 205.20 83.05 204.41 82.61 204.02 82.38 C 196.33 81.66 188.70 83.30 181.02 83.50 M 213.80 103.77 C 213.66 105.93 213.56 108.10 213.51 110.27 C 224.66 110.15 235.79 111.02 246.94 110.80 C 266.31 110.56 285.70 111.32 305.04 110.21 C 305.77 110.01 307.24 109.60 307.97 109.39 C 308.21 108.20 308.45 107.01 308.70 105.82 C 285.45 106.07 262.21 105.25 239.03 103.80 C 230.62 103.80 222.21 103.88 213.80 103.77 M 116.26 107.32 C 109.19 107.93 102.08 107.54 95.00 107.58 C 77.53 106.71 60.04 107.89 42.57 107.10 C 42.47 108.80 42.37 110.51 42.27 112.21 C 52.50 112.49 62.75 113.03 72.97 112.35 C 93.96 112.28 114.95 112.42 135.93 112.29 C 142.02 112.53 148.05 111.58 154.12 111.35 C 154.21 109.34 154.26 107.33 154.32 105.33 C 141.63 104.34 128.79 105.15 116.26 107.32 M 213.76 114.25 C 213.94 116.33 214.14 118.42 214.35 120.50 C 223.56 120.79 232.82 119.92 241.98 121.23 C 248.95 121.65 255.97 121.51 262.92 120.84 C 269.92 120.37 276.95 120.71 283.96 120.56 C 293.54 119.88 303.13 122.59 312.64 120.39 C 312.57 118.04 312.40 115.69 312.21 113.35 C 304.13 113.88 296.11 115.31 288.00 115.07 C 270.65 115.01 253.30 115.22 235.96 115.12 C 228.56 114.61 221.17 114.25 213.76 114.25 M 132.03 116.40 C 112.36 116.77 92.68 116.46 73.01 116.75 C 62.67 117.65 52.29 117.14 41.94 116.69 C 42.69 118.01 42.93 120.13 44.87 120.14 C 57.55 120.88 70.28 120.45 82.94 119.68 C 97.31 119.64 111.68 119.60 126.04 119.83 C 135.17 121.19 144.39 119.91 153.57 120.28 C 153.63 118.74 153.70 117.19 153.76 115.65 C 146.53 116.32 139.28 116.53 132.03 116.40 M 300.82 129.75 C 300.38 141.20 302.85 152.52 302.30 163.96 C 302.37 175.51 302.21 187.06 302.39 198.60 C 306.36 199.39 310.36 200.10 314.36 200.75 C 314.31 193.12 312.65 185.60 312.71 177.97 C 312.08 165.64 311.98 153.29 312.29 140.95 C 312.47 137.12 311.05 133.47 310.57 129.70 C 307.32 129.74 304.07 129.75 300.82 129.75 M 89.32 130.67 C 89.38 137.15 90.81 143.53 90.65 150.01 C 90.76 166.26 90.74 182.51 90.68 198.75 C 92.25 198.94 93.82 199.13 95.39 199.31 C 94.08 195.00 94.33 190.48 94.35 186.03 C 94.66 167.62 94.83 149.20 94.58 130.78 C 92.83 130.75 91.07 130.71 89.32 130.67 M 277.64 130.66 C 277.91 137.96 278.30 145.25 278.35 152.55 C 283.67 152.97 288.99 153.44 294.34 153.33 C 293.34 145.67 293.35 137.92 293.39 130.20 C 288.13 130.01 282.88 130.31 277.64 130.66 M 43.37 130.47 C 43.31 136.99 43.31 143.52 43.63 150.03 C 43.62 166.61 43.53 183.19 43.58 199.77 C 45.80 199.86 48.01 199.91 50.23 199.87 C 50.45 190.57 50.51 181.25 50.23 171.95 C 48.80 158.48 49.40 144.90 49.49 131.37 C 47.45 131.07 45.41 130.76 43.37 130.47 M 57.67 130.62 C 57.49 137.22 57.50 143.83 57.60 150.44 C 66.03 150.42 74.51 150.12 82.87 151.40 C 83.33 144.44 81.61 137.52 82.48 130.55 C 74.21 130.47 65.93 130.42 57.67 130.62 M 102.38 131.42 C 102.38 138.38 102.34 145.33 102.42 152.29 C 113.16 151.60 123.92 154.97 134.56 152.36 C 134.49 145.72 134.16 139.09 133.67 132.48 C 123.27 131.38 112.81 131.87 102.38 131.42 M 262.47 131.45 C 262.76 139.33 263.79 147.16 264.37 155.02 C 264.66 169.76 264.61 184.50 264.49 199.24 C 266.81 199.11 269.14 198.94 271.47 198.79 C 271.38 185.51 271.55 172.23 271.39 158.96 C 270.01 149.81 270.93 140.55 270.37 131.34 C 267.74 131.36 265.10 131.40 262.47 131.45 M 216.66 131.25 C 217.93 146.13 217.23 161.10 217.73 176.01 C 218.77 184.13 218.68 192.33 219.53 200.46 C 222.90 200.54 226.28 200.57 229.65 200.50 C 229.68 188.31 228.25 176.17 228.66 163.97 C 228.00 153.22 228.76 142.43 228.02 131.70 C 224.22 131.72 220.44 131.57 216.66 131.25 M 235.67 131.68 C 235.61 139.17 235.55 146.67 235.70 154.17 C 242.48 154.27 249.26 154.44 256.03 154.80 C 256.49 147.02 255.16 139.34 254.39 131.63 C 248.15 131.69 241.91 131.67 235.67 131.68 M 321.95 131.24 C 322.24 135.31 322.33 139.40 322.43 143.49 C 328.67 142.57 336.03 143.67 341.07 139.08 C 342.80 137.74 342.50 134.47 340.28 133.81 C 334.70 130.59 328.12 131.14 321.95 131.24 M 141.53 132.42 C 141.48 138.60 141.84 144.77 142.29 150.93 C 142.81 167.03 141.99 183.16 142.83 199.26 C 145.11 199.31 147.40 199.34 149.68 199.37 C 150.67 190.61 149.69 181.77 150.45 172.99 C 150.69 163.61 152.43 154.32 152.20 144.92 C 152.16 140.75 152.32 136.59 152.45 132.43 C 148.81 132.41 145.17 132.41 141.53 132.42 M 17.40 138.40 C 13.59 140.16 13.16 146.09 16.98 148.10 C 21.73 151.00 27.75 149.41 33.04 149.83 C 33.05 145.52 33.05 141.21 33.04 136.90 C 27.87 137.20 22.19 135.95 17.40 138.40 M 159.42 144.87 C 159.49 147.95 159.49 151.03 159.50 154.11 C 176.25 154.39 193.02 154.33 209.78 154.27 C 209.72 151.22 209.62 148.17 209.52 145.12 C 197.75 147.64 185.83 144.86 173.98 145.34 C 169.13 145.07 164.13 146.50 159.42 144.87 M 57.49 157.79 C 57.58 160.40 57.69 163.01 57.80 165.62 C 66.28 165.28 74.78 165.43 83.26 165.69 C 83.30 163.49 83.34 161.29 83.38 159.10 C 74.80 158.01 66.14 157.78 57.49 157.79 M 102.36 159.51 C 102.36 161.47 102.37 163.43 102.37 165.39 C 113.13 165.36 123.88 165.40 134.64 165.31 C 134.67 163.60 134.71 161.88 134.75 160.17 C 123.96 162.00 113.15 159.80 102.36 159.51 M 278.84 160.24 C 278.81 162.42 278.79 164.61 278.77 166.79 C 284.00 167.75 289.39 166.94 294.57 168.28 C 294.54 165.79 294.52 163.31 294.47 160.83 C 289.25 160.64 284.04 160.48 278.84 160.24 M 158.62 161.64 C 158.50 163.17 158.37 164.71 158.25 166.25 C 166.48 167.07 174.81 167.78 183.05 166.69 C 191.91 165.95 200.78 165.19 209.68 165.24 C 209.72 164.04 209.77 162.85 209.82 161.65 C 199.23 161.84 188.64 161.48 178.06 161.81 C 171.58 161.58 165.10 161.74 158.62 161.64 M 236.14 166.81 C 242.83 166.78 249.53 167.62 256.21 166.81 C 256.12 165.46 255.99 164.11 255.84 162.77 C 249.39 161.60 242.81 161.65 236.28 161.44 C 236.23 163.23 236.19 165.02 236.14 166.81 M 58.48 173.26 C 58.56 182.23 58.76 191.21 58.31 200.17 C 66.65 200.27 75.01 200.36 83.31 199.33 C 83.38 190.77 83.36 182.21 83.34 173.64 C 75.06 173.33 66.77 173.50 58.48 173.26 M 102.29 173.21 C 101.18 181.68 102.24 190.24 101.38 198.73 C 112.76 198.02 124.13 198.51 135.50 199.22 C 134.33 190.40 134.83 181.51 134.61 172.64 C 123.85 173.26 113.07 173.34 102.29 173.21 M 187.99 173.75 C 177.93 175.33 167.74 174.48 157.61 174.26 C 157.52 182.66 157.56 191.06 157.56 199.47 C 168.73 199.75 179.95 198.96 191.07 200.34 C 197.92 200.68 204.79 200.35 211.65 200.57 C 211.80 191.20 210.57 181.93 210.15 172.60 C 202.75 172.66 195.39 173.59 187.99 173.75 M 236.26 174.31 C 236.30 182.73 236.73 191.14 237.50 199.52 C 244.21 199.01 250.94 199.18 257.66 199.16 C 255.37 191.09 256.22 182.70 255.95 174.44 C 249.39 174.63 242.82 174.57 236.26 174.31 M 278.85 174.53 C 278.76 182.70 278.83 190.88 278.80 199.05 C 284.05 199.16 289.30 199.20 294.55 198.92 C 294.50 191.19 294.58 183.46 294.50 175.73 C 289.33 174.79 284.09 174.56 278.85 174.53 M 108.01 206.28 C 99.99 206.47 91.95 206.51 83.93 206.85 C 70.47 208.34 56.91 207.38 43.41 207.25 C 43.79 209.94 44.16 212.64 44.54 215.34 C 51.17 215.80 57.84 215.79 64.40 214.66 C 76.57 214.31 88.76 214.70 100.93 214.54 C 106.01 214.30 110.94 215.89 116.02 215.62 C 120.72 215.48 125.39 215.97 130.06 216.42 C 140.36 216.74 150.76 215.57 161.00 217.17 C 171.66 217.33 182.32 217.32 192.98 217.16 C 204.10 215.94 215.29 216.81 226.43 216.30 C 233.25 215.35 240.14 215.66 247.00 215.61 C 264.01 215.61 281.01 215.67 298.02 215.67 C 302.58 215.58 307.11 216.25 311.67 216.46 C 311.94 214.11 312.16 211.75 312.32 209.40 C 304.55 209.81 296.74 210.72 289.00 209.58 C 280.04 208.32 270.99 208.74 261.98 208.36 C 253.13 207.19 244.13 207.04 235.24 207.69 C 229.23 208.92 223.08 208.64 216.98 208.64 C 197.30 208.27 177.61 208.94 157.94 208.23 C 145.27 208.46 132.55 207.68 120.02 205.76 C 116.00 205.39 112.00 205.86 108.01 206.28 Z" />
<path fill="#000000" opacity="1.00" d=" M 181.70 90.73 C 184.99 90.27 189.20 89.59 191.66 92.40 C 195.59 96.35 196.35 103.75 191.39 107.22 C 193.07 110.54 195.92 113.17 197.26 116.67 C 197.78 119.21 195.47 121.60 193.05 121.97 C 188.37 122.71 183.49 122.57 178.91 121.30 C 178.49 120.21 178.07 119.14 177.64 118.06 C 178.82 114.17 180.65 110.56 182.59 107.01 C 179.22 105.21 174.82 102.42 175.77 97.94 C 177.21 95.24 178.89 92.19 181.70 90.73 Z" />
</g>
<g id="#90623cff">
<path fill="#90623c" opacity="1.00" d=" M 153.05 19.96 C 159.73 19.47 166.26 17.64 172.97 17.43 C 180.66 17.17 188.36 17.65 196.04 18.08 C 203.59 18.30 210.49 21.83 217.93 22.76 C 225.68 23.77 233.34 25.71 240.32 29.29 C 239.89 37.31 242.65 45.02 242.53 53.02 C 243.00 67.05 241.94 81.12 243.40 95.11 C 233.38 95.07 223.36 95.12 213.34 95.05 C 213.25 89.39 213.81 83.62 212.51 78.05 C 212.04 76.07 210.03 75.01 208.10 74.99 C 199.70 74.35 191.30 75.41 182.94 76.10 C 175.71 76.64 168.45 76.35 161.22 76.84 C 159.17 76.96 156.97 78.15 156.66 80.36 C 155.92 85.66 156.31 91.04 156.37 96.38 C 147.25 95.15 138.08 96.39 128.94 96.10 C 119.52 95.92 110.10 96.33 100.68 96.41 C 100.48 85.57 101.29 74.70 103.29 64.04 C 104.01 53.40 107.72 43.27 108.83 32.69 C 120.53 28.81 132.04 24.32 143.96 21.12 C 146.92 20.31 150.00 20.19 153.05 19.96 Z" />
<path fill="#90623c" opacity="1.00" d=" M 261.59 41.81 C 269.61 46.77 276.23 53.46 283.21 59.70 C 294.56 68.04 301.19 81.36 304.09 94.88 C 291.55 94.43 279.15 96.73 266.64 96.54 C 266.47 78.24 267.10 59.48 261.59 41.81 Z" />
<path fill="#90623c" opacity="1.00" d=" M 72.83 57.75 C 77.88 53.03 82.55 47.90 87.97 43.57 C 83.89 61.31 79.18 79.16 79.69 97.53 C 69.79 97.44 59.88 97.60 49.97 97.41 C 47.20 97.39 44.47 96.88 41.76 96.32 C 44.66 90.18 47.99 84.24 51.73 78.57 C 57.75 70.69 65.02 63.83 72.83 57.75 Z" />
<path fill="#90623c" opacity="1.00" d=" M 306.72 70.55 C 309.92 74.51 311.98 79.32 312.94 84.31 C 310.68 79.81 308.51 75.26 306.72 70.55 Z" />
<path fill="#90623c" opacity="1.00" d=" M 277.64 130.66 C 282.88 130.31 288.13 130.01 293.39 130.20 C 293.35 137.92 293.34 145.67 294.34 153.33 C 288.99 153.44 283.67 152.97 278.35 152.55 C 278.30 145.25 277.91 137.96 277.64 130.66 Z" />
<path fill="#90623c" opacity="1.00" d=" M 57.67 130.62 C 65.93 130.42 74.21 130.47 82.48 130.55 C 81.61 137.52 83.33 144.44 82.87 151.40 C 74.51 150.12 66.03 150.42 57.60 150.44 C 57.50 143.83 57.49 137.22 57.67 130.62 Z" />
<path fill="#90623c" opacity="1.00" d=" M 102.38 131.42 C 112.81 131.87 123.27 131.38 133.67 132.48 C 134.16 139.09 134.49 145.72 134.56 152.36 C 123.92 154.97 113.16 151.60 102.42 152.29 C 102.34 145.33 102.38 138.38 102.38 131.42 Z" />
<path fill="#90623c" opacity="1.00" d=" M 235.67 131.68 C 241.91 131.67 248.15 131.69 254.39 131.63 C 255.16 139.34 256.49 147.02 256.03 154.80 C 249.26 154.44 242.48 154.27 235.70 154.17 C 235.55 146.67 235.61 139.17 235.67 131.68 Z" />
<path fill="#90623c" opacity="1.00" d=" M 321.95 131.24 C 328.12 131.14 334.70 130.59 340.28 133.81 C 342.50 134.47 342.80 137.74 341.07 139.08 C 336.03 143.67 328.67 142.57 322.43 143.49 C 322.33 139.40 322.24 135.31 321.95 131.24 Z" />
<path fill="#90623c" opacity="1.00" d=" M 17.40 138.40 C 22.19 135.95 27.87 137.20 33.04 136.90 C 33.05 141.21 33.05 145.52 33.04 149.83 C 27.75 149.41 21.73 151.00 16.98 148.10 C 13.16 146.09 13.59 140.16 17.40 138.40 Z" />
<path fill="#90623c" opacity="1.00" d=" M 159.42 144.87 C 164.13 146.50 169.13 145.07 173.98 145.34 C 185.83 144.86 197.75 147.64 209.52 145.12 C 209.62 148.17 209.72 151.22 209.78 154.27 C 193.02 154.33 176.25 154.39 159.50 154.11 C 159.49 151.03 159.49 147.95 159.42 144.87 Z" />
<path fill="#90623c" opacity="1.00" d=" M 58.48 173.26 C 66.77 173.50 75.06 173.33 83.34 173.64 C 83.36 182.21 83.38 190.77 83.31 199.33 C 75.01 200.36 66.65 200.27 58.31 200.17 C 58.76 191.21 58.56 182.23 58.48 173.26 Z" />
<path fill="#90623c" opacity="1.00" d=" M 102.29 173.21 C 113.07 173.34 123.85 173.26 134.61 172.64 C 134.83 181.51 134.33 190.40 135.50 199.22 C 124.13 198.51 112.76 198.02 101.38 198.73 C 102.24 190.24 101.18 181.68 102.29 173.21 Z" />
<path fill="#90623c" opacity="1.00" d=" M 187.99 173.75 C 195.39 173.59 202.75 172.66 210.15 172.60 C 210.57 181.93 211.80 191.20 211.65 200.57 C 204.79 200.35 197.92 200.68 191.07 200.34 C 179.95 198.96 168.73 199.75 157.56 199.47 C 157.56 191.06 157.52 182.66 157.61 174.26 C 167.74 174.48 177.93 175.33 187.99 173.75 Z" />
<path fill="#90623c" opacity="1.00" d=" M 236.26 174.31 C 242.82 174.57 249.39 174.63 255.95 174.44 C 256.22 182.70 255.37 191.09 257.66 199.16 C 250.94 199.18 244.21 199.01 237.50 199.52 C 236.73 191.14 236.30 182.73 236.26 174.31 Z" />
<path fill="#90623c" opacity="1.00" d=" M 278.85 174.53 C 284.09 174.56 289.33 174.79 294.50 175.73 C 294.58 183.46 294.50 191.19 294.55 198.92 C 289.30 199.20 284.05 199.16 278.80 199.05 C 278.83 190.88 278.76 182.70 278.85 174.53 Z" />
</g>
<g id="#c7af61ff">
<path fill="#c7af61" opacity="1.00" d=" M 247.64 33.03 C 249.47 33.88 251.27 34.77 253.08 35.67 C 254.92 44.31 257.22 52.89 257.79 61.77 C 258.91 67.46 258.88 73.25 258.86 79.02 C 259.21 84.62 259.41 90.23 259.31 95.84 C 256.44 95.86 253.58 95.85 250.73 95.78 C 249.53 74.87 252.35 53.64 247.64 33.03 Z" />
<path fill="#c7af61" opacity="1.00" d=" M 93.93 40.07 C 95.96 38.44 98.39 37.46 100.70 36.31 C 98.87 44.87 96.41 53.33 95.63 62.07 C 95.15 66.72 93.75 71.23 93.62 75.92 C 93.25 82.87 93.00 89.82 92.69 96.77 C 91.05 96.80 89.41 96.83 87.77 96.87 C 87.30 84.99 89.49 73.27 91.27 61.59 C 91.83 54.39 92.34 47.12 93.93 40.07 Z" />
<path fill="#c7af61" opacity="1.00" d=" M 181.02 83.50 C 188.70 83.30 196.33 81.66 204.02 82.38 C 204.41 82.61 205.20 83.05 205.59 83.28 C 206.34 99.94 206.70 116.64 206.55 133.33 C 192.45 133.34 178.32 132.85 164.24 133.73 C 164.28 125.82 164.43 117.89 163.81 110.00 C 163.63 101.42 163.90 92.84 163.68 84.26 C 169.45 83.89 175.24 83.67 181.02 83.50 M 181.70 90.73 C 178.89 92.19 177.21 95.24 175.77 97.94 C 174.82 102.42 179.22 105.21 182.59 107.01 C 180.65 110.56 178.82 114.17 177.64 118.06 C 178.07 119.14 178.49 120.21 178.91 121.30 C 183.49 122.57 188.37 122.71 193.05 121.97 C 195.47 121.60 197.78 119.21 197.26 116.67 C 195.92 113.17 193.07 110.54 191.39 107.22 C 196.35 103.75 195.59 96.35 191.66 92.40 C 189.20 89.59 184.99 90.27 181.70 90.73 Z" />
<path fill="#c7af61" opacity="1.00" d=" M 213.80 103.77 C 222.21 103.88 230.62 103.80 239.03 103.80 C 262.21 105.25 285.45 106.07 308.70 105.82 C 308.45 107.01 308.21 108.20 307.97 109.39 C 307.24 109.60 305.77 110.01 305.04 110.21 C 285.70 111.32 266.31 110.56 246.94 110.80 C 235.79 111.02 224.66 110.15 213.51 110.27 C 213.56 108.10 213.66 105.93 213.80 103.77 Z" />
<path fill="#c7af61" opacity="1.00" d=" M 116.26 107.32 C 128.79 105.15 141.63 104.34 154.32 105.33 C 154.26 107.33 154.21 109.34 154.12 111.35 C 148.05 111.58 142.02 112.53 135.93 112.29 C 114.95 112.42 93.96 112.28 72.97 112.35 C 62.75 113.03 52.50 112.49 42.27 112.21 C 42.37 110.51 42.47 108.80 42.57 107.10 C 60.04 107.89 77.53 106.71 95.00 107.58 C 102.08 107.54 109.19 107.93 116.26 107.32 Z" />
<path fill="#c7af61" opacity="1.00" d=" M 213.76 114.25 C 221.17 114.25 228.56 114.61 235.96 115.12 C 253.30 115.22 270.65 115.01 288.00 115.07 C 296.11 115.31 304.13 113.88 312.21 113.35 C 312.40 115.69 312.57 118.04 312.64 120.39 C 303.13 122.59 293.54 119.88 283.96 120.56 C 276.95 120.71 269.92 120.37 262.92 120.84 C 255.97 121.51 248.95 121.65 241.98 121.23 C 232.82 119.92 223.56 120.79 214.35 120.50 C 214.14 118.42 213.94 116.33 213.76 114.25 Z" />
<path fill="#c7af61" opacity="1.00" d=" M 132.03 116.40 C 139.28 116.53 146.53 116.32 153.76 115.65 C 153.70 117.19 153.63 118.74 153.57 120.28 C 144.39 119.91 135.17 121.19 126.04 119.83 C 111.68 119.60 97.31 119.64 82.94 119.68 C 70.28 120.45 57.55 120.88 44.87 120.14 C 42.93 120.13 42.69 118.01 41.94 116.69 C 52.29 117.14 62.67 117.65 73.01 116.75 C 92.68 116.46 112.36 116.77 132.03 116.40 Z" />
<path fill="#c7af61" opacity="1.00" d=" M 300.82 129.75 C 304.07 129.75 307.32 129.74 310.57 129.70 C 311.05 133.47 312.47 137.12 312.29 140.95 C 311.98 153.29 312.08 165.64 312.71 177.97 C 312.65 185.60 314.31 193.12 314.36 200.75 C 310.36 200.10 306.36 199.39 302.39 198.60 C 302.21 187.06 302.37 175.51 302.30 163.96 C 302.85 152.52 300.38 141.20 300.82 129.75 Z" />
<path fill="#c7af61" opacity="1.00" d=" M 89.32 130.67 C 91.07 130.71 92.83 130.75 94.58 130.78 C 94.83 149.20 94.66 167.62 94.35 186.03 C 94.33 190.48 94.08 195.00 95.39 199.31 C 93.82 199.13 92.25 198.94 90.68 198.75 C 90.74 182.51 90.76 166.26 90.65 150.01 C 90.81 143.53 89.38 137.15 89.32 130.67 Z" />
<path fill="#c7af61" opacity="1.00" d=" M 43.37 130.47 C 45.41 130.76 47.45 131.07 49.49 131.37 C 49.40 144.90 48.80 158.48 50.23 171.95 C 50.51 181.25 50.45 190.57 50.23 199.87 C 48.01 199.91 45.80 199.86 43.58 199.77 C 43.53 183.19 43.62 166.61 43.63 150.03 C 43.31 143.52 43.31 136.99 43.37 130.47 Z" />
<path fill="#c7af61" opacity="1.00" d=" M 262.47 131.45 C 265.10 131.40 267.74 131.36 270.37 131.34 C 270.93 140.55 270.01 149.81 271.39 158.96 C 271.55 172.23 271.38 185.51 271.47 198.79 C 269.14 198.94 266.81 199.11 264.49 199.24 C 264.61 184.50 264.66 169.76 264.37 155.02 C 263.79 147.16 262.76 139.33 262.47 131.45 Z" />
<path fill="#c7af61" opacity="1.00" d=" M 216.66 131.25 C 220.44 131.57 224.22 131.72 228.02 131.70 C 228.76 142.43 228.00 153.22 228.66 163.97 C 228.25 176.17 229.68 188.31 229.65 200.50 C 226.28 200.57 222.90 200.54 219.53 200.46 C 218.68 192.33 218.77 184.13 217.73 176.01 C 217.23 161.10 217.93 146.13 216.66 131.25 Z" />
<path fill="#c7af61" opacity="1.00" d=" M 141.53 132.42 C 145.17 132.41 148.81 132.41 152.45 132.43 C 152.32 136.59 152.16 140.75 152.20 144.92 C 152.43 154.32 150.69 163.61 150.45 172.99 C 149.69 181.77 150.67 190.61 149.68 199.37 C 147.40 199.34 145.11 199.31 142.83 199.26 C 141.99 183.16 142.81 167.03 142.29 150.93 C 141.84 144.77 141.48 138.60 141.53 132.42 Z" />
<path fill="#c7af61" opacity="1.00" d=" M 57.49 157.79 C 66.14 157.78 74.80 158.01 83.38 159.10 C 83.34 161.29 83.30 163.49 83.26 165.69 C 74.78 165.43 66.28 165.28 57.80 165.62 C 57.69 163.01 57.58 160.40 57.49 157.79 Z" />
<path fill="#c7af61" opacity="1.00" d=" M 102.36 159.51 C 113.15 159.80 123.96 162.00 134.75 160.17 C 134.71 161.88 134.67 163.60 134.64 165.31 C 123.88 165.40 113.13 165.36 102.37 165.39 C 102.37 163.43 102.36 161.47 102.36 159.51 Z" />
<path fill="#c7af61" opacity="1.00" d=" M 278.84 160.24 C 284.04 160.48 289.25 160.64 294.47 160.83 C 294.52 163.31 294.54 165.79 294.57 168.28 C 289.39 166.94 284.00 167.75 278.77 166.79 C 278.79 164.61 278.81 162.42 278.84 160.24 Z" />
<path fill="#c7af61" opacity="1.00" d=" M 158.62 161.64 C 165.10 161.74 171.58 161.58 178.06 161.81 C 188.64 161.48 199.23 161.84 209.82 161.65 C 209.77 162.85 209.72 164.04 209.68 165.24 C 200.78 165.19 191.91 165.95 183.05 166.69 C 174.81 167.78 166.48 167.07 158.25 166.25 C 158.37 164.71 158.50 163.17 158.62 161.64 Z" />
<path fill="#c7af61" opacity="1.00" d=" M 236.14 166.81 C 236.19 165.02 236.23 163.23 236.28 161.44 C 242.81 161.65 249.39 161.60 255.84 162.77 C 255.99 164.11 256.12 165.46 256.21 166.81 C 249.53 167.62 242.83 166.78 236.14 166.81 Z" />
<path fill="#c7af61" opacity="1.00" d=" M 108.01 206.28 C 112.00 205.86 116.00 205.39 120.02 205.76 C 132.55 207.68 145.27 208.46 157.94 208.23 C 177.61 208.94 197.30 208.27 216.98 208.64 C 223.08 208.64 229.23 208.92 235.24 207.69 C 244.13 207.04 253.13 207.19 261.98 208.36 C 270.99 208.74 280.04 208.32 289.00 209.58 C 296.74 210.72 304.55 209.81 312.32 209.40 C 312.16 211.75 311.94 214.11 311.67 216.46 C 307.11 216.25 302.58 215.58 298.02 215.67 C 281.01 215.67 264.01 215.61 247.00 215.61 C 240.14 215.66 233.25 215.35 226.43 216.30 C 215.29 216.81 204.10 215.94 192.98 217.16 C 182.32 217.32 171.66 217.33 161.00 217.17 C 150.76 215.57 140.36 216.74 130.06 216.42 C 125.39 215.97 120.72 215.48 116.02 215.62 C 110.94 215.89 106.01 214.30 100.93 214.54 C 88.76 214.70 76.57 214.31 64.40 214.66 C 57.84 215.79 51.17 215.80 44.54 215.34 C 44.16 212.64 43.79 209.94 43.41 207.25 C 56.91 207.38 70.47 208.34 83.93 206.85 C 91.95 206.51 99.99 206.47 108.01 206.28 Z" />
</g>
</svg>
