<?xml version="1.0" encoding="UTF-8" ?>
<!DOCTYPE svg PUBLIC "-//W3C//DTD SVG 1.1//EN" "http://www.w3.org/Graphics/SVG/1.1/DTD/svg11.dtd">
<svg width="616pt" height="609pt" viewBox="0 0 616 609" version="1.1" xmlns="http://www.w3.org/2000/svg">
<g id="#e3ca87fe">
<path fill="#e1c25e" opacity="1.00" d=" M 301.04 13.32 C 302.03 12.42 303.01 11.51 304.00 10.61 C 304.98 11.51 305.96 12.42 306.96 13.32 C 307.06 21.28 309.36 29.03 310.04 36.95 C 319.76 101.95 329.34 166.96 339.04 231.96 C 340.28 238.35 340.38 244.96 342.18 251.21 C 364.00 234.23 386.49 218.12 408.31 201.13 C 409.68 202.20 409.82 203.32 408.72 204.49 C 394.34 223.49 379.88 242.44 365.45 261.41 C 363.60 263.74 361.53 265.99 360.61 268.89 C 372.80 269.34 384.80 271.84 396.94 273.05 C 458.62 281.12 520.32 288.94 582.00 297.00 C 588.58 297.55 595.04 299.20 601.67 299.02 C 602.56 300.01 603.47 301.00 604.38 302.00 C 603.48 302.99 602.57 303.96 601.68 304.96 C 593.72 305.06 585.97 307.36 578.05 308.04 C 513.05 317.76 448.04 327.34 383.04 337.04 C 374.92 338.52 366.53 338.84 358.57 341.05 C 375.47 363.31 392.08 385.80 408.97 408.09 C 410.13 409.14 409.92 410.72 410.07 412.14 C 408.65 411.55 407.32 410.79 406.15 409.82 C 386.19 394.35 365.91 379.34 346.04 363.76 C 344.31 366.73 345.49 370.27 344.41 373.42 C 335.64 441.62 326.86 509.81 318.00 578.00 C 317.45 584.58 315.80 591.04 315.98 597.67 C 314.98 598.56 313.99 599.47 313.00 600.38 C 312.01 599.48 311.03 598.57 310.04 597.68 C 309.94 589.72 307.64 581.97 306.96 574.05 C 297.24 509.05 287.66 444.04 277.96 379.04 C 276.93 371.67 275.71 364.33 274.85 356.94 C 252.19 374.64 228.86 391.48 206.04 408.98 C 204.65 410.09 203.15 411.11 201.34 411.38 C 201.72 407.85 204.61 405.41 206.48 402.59 C 221.84 382.48 237.21 362.38 252.41 342.16 C 179.59 332.88 106.80 323.43 34.00 314.00 C 27.42 313.45 20.96 311.80 14.33 311.98 C 13.43 310.98 12.52 309.99 11.62 309.00 C 12.52 308.00 13.42 307.03 14.32 306.04 C 22.28 305.94 30.03 303.63 37.96 302.96 C 102.95 293.24 167.96 283.66 232.95 273.96 C 239.14 272.72 245.61 272.71 251.64 270.88 C 235.08 248.91 218.70 226.82 202.13 204.86 C 200.98 203.72 200.76 202.11 200.54 200.59 C 203.76 201.63 206.22 204.12 208.96 206.02 C 229.51 221.83 250.18 237.50 270.76 253.26 C 279.71 179.46 289.85 105.77 299.00 32.00 C 298.68 25.68 301.46 19.66 301.04 13.32 M 302.14 37.03 C 301.97 44.32 300.40 51.47 299.66 58.71 C 290.74 128.41 281.64 198.08 272.74 267.77 C 272.31 269.45 272.25 271.59 270.67 272.66 C 246.16 275.79 221.75 279.76 197.29 283.31 C 152.29 289.95 107.31 296.76 62.30 303.32 C 57.41 304.35 52.28 304.24 47.54 305.92 C 52.40 306.25 57.15 304.88 61.99 304.96 C 83.00 305.07 104.00 304.93 125.01 305.04 C 130.37 305.16 135.63 303.84 140.99 303.96 C 160.99 304.08 181.00 303.92 201.00 304.04 C 206.36 304.32 211.63 303.21 216.97 302.99 C 239.65 302.93 262.34 303.14 285.01 302.91 C 292.34 301.82 299.73 301.98 307.12 301.93 C 306.58 297.64 305.89 293.35 305.96 289.01 C 306.07 271.67 305.93 254.33 306.04 236.99 C 306.16 231.63 304.84 226.37 304.96 221.01 C 305.07 203.34 304.93 185.66 305.04 167.99 C 305.16 162.63 303.84 157.37 303.96 152.01 C 304.07 134.34 303.93 116.66 304.04 98.99 C 304.16 93.63 302.84 88.37 302.96 83.01 C 303.04 67.68 302.98 52.35 303.02 37.01 L 302.14 37.03 M 307.23 46.54 C 306.65 58.34 307.21 70.18 306.95 82.00 C 306.73 87.70 308.14 93.30 308.04 98.99 C 307.93 116.66 308.07 134.34 307.96 152.01 C 307.83 157.37 309.16 162.63 309.04 167.99 C 308.93 185.33 309.07 202.67 308.96 220.01 C 308.83 225.37 310.16 230.63 310.04 235.99 C 309.93 254.00 310.06 272.01 309.96 290.02 C 309.88 294.03 310.59 297.98 311.21 301.92 C 327.14 302.14 343.08 301.89 359.01 302.04 C 364.37 302.16 369.63 300.83 374.99 300.96 C 395.66 301.07 416.34 300.93 437.01 301.04 C 442.37 301.16 447.63 299.84 452.99 299.96 C 473.66 300.07 494.34 299.93 515.01 300.04 C 520.37 300.16 525.63 298.83 530.99 298.96 C 541.64 299.02 552.30 299.00 562.95 299.02 L 563.00 298.14 C 553.04 297.59 543.18 295.96 533.29 294.69 C 471.26 286.79 409.27 278.60 347.23 270.78 C 344.87 270.17 340.49 271.32 340.27 267.80 C 331.37 207.09 322.22 146.42 313.27 85.71 C 311.07 72.69 309.77 59.50 307.23 46.54 M 206.29 206.53 C 205.76 207.61 206.75 209.03 207.90 209.16 C 223.47 229.58 238.57 250.36 254.17 270.76 C 259.03 270.06 263.89 269.37 268.77 268.77 C 268.82 264.31 270.30 259.88 269.73 255.43 C 251.05 240.30 231.44 226.34 212.60 211.39 C 211.33 210.54 210.10 209.36 208.52 209.22 C 209.37 208.07 207.55 205.92 206.29 206.53 M 403.10 207.19 C 401.59 207.93 401.44 208.61 402.63 209.25 C 404.05 208.49 404.21 207.80 403.10 207.19 M 388.12 219.08 C 372.89 230.52 357.63 241.92 342.40 253.36 C 342.87 257.46 343.00 261.67 344.37 265.60 C 348.36 267.82 353.28 267.11 357.67 267.93 C 363.70 260.81 368.78 252.96 374.78 245.82 C 376.62 243.59 378.26 241.21 379.90 238.83 C 383.38 233.70 387.71 229.22 391.13 224.06 C 394.49 219.06 398.89 214.84 402.02 209.68 C 396.80 211.86 392.59 215.72 388.12 219.08 M 515.01 304.04 C 494.33 303.93 473.66 304.07 452.99 303.96 C 447.63 303.84 442.37 305.16 437.01 305.04 C 416.33 304.92 395.66 305.07 374.99 304.96 C 369.97 304.82 365.04 306.03 360.02 306.03 C 343.70 306.02 327.37 305.93 311.05 306.04 C 310.91 323.36 311.08 340.69 310.96 358.01 C 310.84 363.37 312.16 368.63 312.04 373.99 C 311.93 391.33 312.06 408.67 311.96 426.01 C 311.84 431.37 313.16 436.63 313.04 441.99 C 312.94 460.00 313.05 478.01 312.97 496.02 C 312.93 500.03 313.78 503.97 313.97 507.96 C 314.22 529.45 313.65 550.97 314.23 572.45 C 315.49 568.21 315.80 563.79 316.42 559.43 C 325.72 486.50 335.33 413.60 344.55 340.67 C 344.64 339.24 345.81 338.34 347.19 338.28 C 412.82 328.63 478.43 318.78 544.05 309.06 C 556.71 307.45 569.24 304.82 581.98 303.83 L 581.94 302.97 C 564.96 302.99 547.98 303.04 530.99 302.96 C 525.63 302.84 520.37 304.16 515.01 304.04 M 288.58 306.55 C 284.08 307.18 279.53 307.04 275.00 307.01 C 257.00 306.95 239.00 307.06 221.01 306.96 C 214.97 306.63 209.04 308.10 203.01 308.04 C 182.00 307.94 160.99 308.05 139.97 307.97 C 135.29 307.94 130.70 309.06 126.02 309.03 C 104.67 308.96 83.32 309.04 61.97 308.97 C 57.29 308.93 52.70 310.08 48.02 310.02 C 44.52 310.08 40.95 309.57 37.53 310.56 C 115.20 320.29 192.79 330.65 270.45 340.44 C 272.66 340.85 276.62 339.85 276.72 343.20 C 285.68 404.19 294.85 465.16 303.86 526.14 C 305.99 538.89 307.28 551.79 309.77 564.46 C 310.35 546.99 309.78 529.48 310.05 512.00 C 310.27 506.30 308.86 500.70 308.96 495.01 C 309.07 477.67 308.93 460.33 309.04 442.99 C 309.16 437.63 307.84 432.37 307.96 427.01 C 308.07 409.34 307.93 391.66 308.04 373.99 C 308.18 368.97 306.96 364.04 306.97 359.03 C 306.99 341.37 307.06 323.71 306.96 306.06 C 300.83 305.98 294.66 305.64 288.58 306.55 M 348.21 342.22 C 348.14 348.46 346.41 354.55 346.13 360.77 C 352.44 367.22 360.58 371.65 367.45 377.53 C 379.36 386.51 390.98 395.90 403.17 404.49 C 400.81 400.15 397.63 396.36 394.63 392.46 C 381.82 375.21 368.95 358.00 355.91 340.92 C 353.35 341.40 350.78 341.85 348.21 342.22 M 252.16 346.17 C 237.67 365.13 223.22 384.11 208.84 403.15 C 207.83 403.24 206.28 404.39 207.07 405.51 C 208.35 406.23 210.36 404.24 209.43 403.03 C 213.02 401.81 215.74 398.98 218.75 396.79 C 236.47 383.50 254.17 370.19 271.91 356.94 C 275.83 354.17 273.27 348.95 272.79 345.15 C 267.58 344.06 262.28 343.22 256.97 342.99 C 254.71 342.57 253.42 344.71 252.16 346.17 Z" />
</g>
<g id="#ffffffff">
<path fill="#ffffff" opacity="1.00" d=" M 302.14 37.03 L 303.02 37.01 C 302.98 52.35 303.04 67.68 302.96 83.01 C 302.84 88.37 304.16 93.63 304.04 98.99 C 303.93 116.66 304.07 134.34 303.96 152.01 C 303.84 157.37 305.16 162.63 305.04 167.99 C 304.93 185.66 305.07 203.34 304.96 221.01 C 304.84 226.37 306.16 231.63 306.04 236.99 C 305.93 254.33 306.07 271.67 305.96 289.01 C 305.89 293.35 306.58 297.64 307.12 301.93 C 299.73 301.98 292.34 301.82 285.01 302.91 C 262.34 303.14 239.65 302.93 216.97 302.99 C 211.63 303.21 206.36 304.32 201.00 304.04 C 181.00 303.92 160.99 304.08 140.99 303.96 C 135.63 303.84 130.37 305.16 125.01 305.04 C 104.00 304.93 83.00 305.07 61.99 304.96 C 57.15 304.88 52.40 306.25 47.54 305.92 C 52.28 304.24 57.41 304.35 62.30 303.32 C 107.31 296.76 152.29 289.95 197.29 283.31 C 221.75 279.76 246.16 275.79 270.67 272.66 C 272.25 271.59 272.31 269.45 272.74 267.77 C 281.64 198.08 290.74 128.41 299.66 58.71 C 300.40 51.47 301.97 44.32 302.14 37.03 Z" />
<path fill="#ffffff" opacity="1.00" d=" M 307.23 46.54 C 309.77 59.50 311.07 72.69 313.27 85.71 C 322.22 146.42 331.37 207.09 340.27 267.80 C 340.49 271.32 344.87 270.17 347.23 270.78 C 409.27 278.60 471.26 286.79 533.29 294.69 C 543.18 295.96 553.04 297.59 563.00 298.14 L 562.95 299.02 C 552.30 299.00 541.64 299.02 530.99 298.96 C 525.63 298.83 520.37 300.16 515.01 300.04 C 494.34 299.93 473.66 300.07 452.99 299.96 C 447.63 299.84 442.37 301.16 437.01 301.04 C 416.34 300.93 395.66 301.07 374.99 300.96 C 369.63 300.83 364.37 302.16 359.01 302.04 C 343.08 301.89 327.14 302.14 311.21 301.92 C 310.59 297.98 309.88 294.03 309.96 290.02 C 310.06 272.01 309.93 254.00 310.04 235.99 C 310.16 230.63 308.83 225.37 308.96 220.01 C 309.07 202.67 308.93 185.33 309.04 167.99 C 309.16 162.63 307.83 157.37 307.96 152.01 C 308.07 134.34 307.93 116.66 308.04 98.99 C 308.14 93.30 306.73 87.70 306.95 82.00 C 307.21 70.18 306.65 58.34 307.23 46.54 Z" />
<path fill="#ffffff" opacity="1.00" d=" M 207.90 209.16 L 208.52 209.22 C 210.10 209.36 211.33 210.54 212.60 211.39 C 231.44 226.34 251.05 240.30 269.73 255.43 C 270.30 259.88 268.82 264.31 268.77 268.77 C 263.89 269.37 259.03 270.06 254.17 270.76 C 238.57 250.36 223.47 229.58 207.90 209.16 Z" />
<path fill="#ffffff" opacity="1.00" d=" M 388.12 219.08 C 392.59 215.72 396.80 211.86 402.02 209.68 C 398.89 214.84 394.49 219.06 391.13 224.06 C 387.71 229.22 383.38 233.70 379.90 238.83 C 378.26 241.21 376.62 243.59 374.78 245.82 C 368.78 252.96 363.70 260.81 357.67 267.93 C 353.28 267.11 348.36 267.82 344.37 265.60 C 343.00 261.67 342.87 257.46 342.40 253.36 C 357.63 241.92 372.89 230.52 388.12 219.08 Z" />
<path fill="#ffffff" opacity="1.00" d=" M 515.01 304.04 C 520.37 304.16 525.63 302.84 530.99 302.96 C 547.98 303.04 564.96 302.99 581.94 302.97 L 581.98 303.83 C 569.24 304.82 556.71 307.45 544.05 309.06 C 478.43 318.78 412.82 328.63 347.19 338.28 C 345.81 338.34 344.64 339.24 344.55 340.67 C 335.33 413.60 325.72 486.50 316.42 559.43 C 315.80 563.79 315.49 568.21 314.23 572.45 C 313.65 550.97 314.22 529.45 313.97 507.96 C 313.78 503.97 312.93 500.03 312.97 496.02 C 313.05 478.01 312.94 460.00 313.04 441.99 C 313.16 436.63 311.84 431.37 311.96 426.01 C 312.06 408.67 311.93 391.33 312.04 373.99 C 312.16 368.63 310.84 363.37 310.96 358.01 C 311.08 340.69 310.91 323.36 311.05 306.04 C 327.37 305.93 343.70 306.02 360.02 306.03 C 365.04 306.03 369.97 304.82 374.99 304.96 C 395.66 305.07 416.33 304.92 437.01 305.04 C 442.37 305.16 447.63 303.84 452.99 303.96 C 473.66 304.07 494.33 303.93 515.01 304.04 Z" />
<path fill="#ffffff" opacity="1.00" d=" M 288.58 306.55 C 294.66 305.64 300.83 305.98 306.96 306.06 C 307.06 323.71 306.99 341.37 306.97 359.03 C 306.96 364.04 308.18 368.97 308.04 373.99 C 307.93 391.66 308.07 409.34 307.96 427.01 C 307.84 432.37 309.16 437.63 309.04 442.99 C 308.93 460.33 309.07 477.67 308.96 495.01 C 308.86 500.70 310.27 506.30 310.05 512.00 C 309.78 529.48 310.35 546.99 309.77 564.46 C 307.28 551.79 305.99 538.89 303.86 526.14 C 294.85 465.16 285.68 404.19 276.72 343.20 C 276.62 339.85 272.66 340.85 270.45 340.44 C 192.79 330.65 115.20 320.29 37.53 310.56 C 40.95 309.57 44.52 310.08 48.02 310.02 C 52.70 310.08 57.29 308.93 61.97 308.97 C 83.32 309.04 104.67 308.96 126.02 309.03 C 130.70 309.06 135.29 307.94 139.97 307.97 C 160.99 308.05 182.00 307.94 203.01 308.04 C 209.04 308.10 214.97 306.63 221.01 306.96 C 239.00 307.06 257.00 306.95 275.00 307.01 C 279.53 307.04 284.08 307.18 288.58 306.55 Z" />
<path fill="#ffffff" opacity="1.00" d=" M 348.21 342.22 C 350.78 341.85 353.35 341.40 355.91 340.92 C 368.95 358.00 381.82 375.21 394.63 392.46 C 397.63 396.36 400.81 400.15 403.17 404.49 C 390.98 395.90 379.36 386.51 367.45 377.53 C 360.58 371.65 352.44 367.22 346.13 360.77 C 346.41 354.55 348.14 348.46 348.21 342.22 Z" />
<path fill="#ffffff" opacity="1.00" d=" M 252.16 346.17 C 253.42 344.71 254.71 342.57 256.97 342.99 C 262.28 343.22 267.58 344.06 272.79 345.15 C 273.27 348.95 275.83 354.17 271.91 356.94 C 254.17 370.19 236.47 383.50 218.75 396.79 C 215.74 398.98 213.02 401.81 209.43 403.03 L 208.84 403.15 C 223.22 384.11 237.67 365.13 252.16 346.17 Z" />
</g>
</svg>
