<?xml version="1.0" encoding="UTF-8" ?>
<!DOCTYPE svg PUBLIC "-//W3C//DTD SVG 1.1//EN" "http://www.w3.org/Graphics/SVG/1.1/DTD/svg11.dtd">
<svg width="507pt" height="503pt" viewBox="0 0 507 503" version="1.1" xmlns="http://www.w3.org/2000/svg">
<g id="#e3ca87ff">
<path fill="#e1c25e" opacity="1.00" d=" M 229.47 18.12 C 229.67 14.41 230.75 10.74 233.62 8.22 C 237.07 10.04 238.62 13.66 239.09 17.35 C 244.08 17.17 249.07 17.13 254.06 17.13 C 254.90 15.20 255.83 13.30 256.95 11.51 C 259.81 12.29 261.39 14.76 262.71 17.21 C 267.45 17.34 272.16 17.84 276.88 18.23 C 277.34 14.73 278.83 11.35 281.87 9.36 C 284.82 11.78 286.15 15.37 286.03 19.14 C 289.27 19.64 292.49 20.21 295.74 20.68 C 297.46 16.03 298.73 10.41 303.64 8.05 C 308.34 11.79 306.37 17.98 304.89 22.81 C 311.15 24.16 317.29 25.95 323.41 27.82 C 324.71 26.06 326.25 24.50 328.04 23.24 C 330.69 24.78 331.53 27.75 331.95 30.60 C 337.94 32.89 343.95 35.16 349.83 37.75 C 352.44 32.62 356.07 27.59 361.75 25.62 C 363.84 31.55 359.54 36.59 356.27 41.02 C 365.96 45.91 375.42 51.32 384.25 57.63 C 387.14 55.50 389.93 51.91 393.91 52.41 C 395.70 52.51 395.78 54.68 395.79 56.04 C 395.79 58.86 393.74 61.01 392.23 63.17 C 396.65 66.29 400.86 69.69 404.85 73.34 C 406.94 72.43 409.19 72.11 411.47 72.17 C 412.22 74.52 412.04 76.94 411.36 79.28 C 416.34 84.23 421.44 89.08 426.00 94.43 C 426.34 94.61 427.03 94.99 427.38 95.18 C 431.98 92.18 437.03 87.61 442.92 88.97 C 445.66 89.64 444.26 92.98 443.30 94.62 C 440.58 98.09 436.33 99.83 432.73 102.21 C 436.73 106.90 440.19 112.02 443.94 116.90 C 447.19 115.27 450.35 113.37 453.97 112.64 C 454.94 113.01 455.91 113.37 456.90 113.73 C 458.41 119.05 452.70 122.38 448.90 124.76 C 452.15 130.36 455.31 136.00 458.39 141.69 C 460.59 142.05 462.82 141.31 465.05 141.37 C 467.71 141.15 470.01 142.67 472.26 143.83 C 470.53 147.71 466.78 149.74 462.82 150.69 C 465.71 157.27 468.70 163.82 470.89 170.68 C 475.47 170.05 481.18 168.22 484.73 172.29 C 485.06 178.02 477.80 178.64 473.65 179.58 C 475.64 185.64 476.96 191.89 478.54 198.06 C 483.74 197.53 488.90 194.77 494.14 196.47 C 494.52 197.13 495.27 198.45 495.65 199.11 C 493.38 205.37 485.88 206.00 480.26 206.96 C 480.79 210.42 481.46 213.86 481.84 217.35 C 486.33 216.28 492.41 214.48 495.75 218.80 C 493.68 224.28 487.54 224.91 482.82 226.79 C 483.27 230.77 483.36 234.78 483.61 238.77 C 488.93 240.15 494.86 240.28 499.51 243.51 C 501.22 244.57 501.32 247.47 499.45 248.43 C 494.56 251.36 488.70 248.88 483.58 248.01 C 483.52 252.76 483.39 257.52 483.14 262.28 C 488.36 262.38 494.03 261.50 498.83 264.02 C 501.56 265.46 500.91 269.46 498.10 270.36 C 493.02 272.00 487.61 270.96 482.38 271.31 C 481.70 274.98 481.44 278.70 481.04 282.41 C 484.88 283.08 488.89 283.21 492.54 284.71 C 494.19 285.47 496.04 286.84 495.72 288.91 C 494.67 291.57 491.50 292.23 488.96 292.39 C 485.61 292.38 482.32 291.63 478.99 291.44 C 478.60 294.09 478.01 296.71 477.35 299.32 C 481.56 300.27 486.31 300.46 489.76 303.35 C 491.38 304.49 491.44 307.52 489.55 308.43 C 484.96 311.03 479.69 308.82 475.02 307.65 C 474.44 310.16 473.71 312.63 473.03 315.11 C 477.76 316.05 483.72 316.52 486.56 320.99 C 487.73 323.79 484.38 325.27 482.12 325.38 C 478.03 325.37 474.04 324.29 469.98 323.88 C 467.96 329.73 465.65 335.48 463.17 341.15 C 467.33 342.58 471.74 344.63 473.39 349.06 C 469.12 352.39 463.69 351.05 459.05 349.43 C 458.66 350.11 457.87 351.46 457.48 352.14 C 460.10 353.88 462.54 356.00 463.61 359.06 C 461.53 363.20 456.40 361.86 452.96 360.43 C 449.37 366.84 445.29 372.96 441.16 379.03 C 445.25 380.83 449.56 382.91 451.69 387.10 C 450.08 390.37 446.17 390.18 443.12 389.53 C 440.55 388.82 438.18 387.54 435.79 386.38 C 433.47 389.60 430.68 392.44 428.36 395.64 C 431.94 397.77 435.42 400.33 437.07 404.32 C 432.03 407.03 426.70 404.26 421.93 402.40 C 418.07 406.59 414.00 410.57 409.75 414.36 C 411.74 416.04 414.15 417.51 415.20 420.03 C 416.14 421.78 415.04 424.53 412.92 424.63 C 409.12 425.26 406.12 422.38 402.84 421.02 C 398.22 424.08 394.25 428.05 389.68 431.21 C 392.07 433.61 393.32 436.75 392.74 440.15 C 388.59 441.78 384.91 439.12 381.93 436.53 C 375.86 440.52 369.61 444.25 363.18 447.63 C 364.44 450.73 365.16 454.02 365.59 457.34 C 362.47 455.61 359.79 453.25 356.94 451.15 C 349.50 454.38 342.23 458.06 334.60 460.88 C 335.28 463.78 336.98 466.93 335.51 469.87 C 334.85 471.85 332.35 471.98 330.69 471.34 C 327.90 469.81 327.03 466.52 325.90 463.80 C 321.76 465.13 317.57 466.30 313.39 467.47 C 313.32 470.93 313.79 474.68 312.03 477.82 C 311.03 479.85 307.87 480.43 306.44 478.57 C 304.17 476.20 304.53 472.63 304.27 469.63 C 297.25 471.30 290.12 472.49 282.98 473.56 C 283.40 477.83 284.23 482.21 283.30 486.47 C 282.82 488.54 280.17 490.77 278.38 488.62 C 274.81 484.98 275.52 479.27 274.56 474.60 C 267.62 474.86 260.68 475.22 253.74 475.26 C 254.25 482.47 256.54 490.76 252.03 497.13 C 250.18 496.88 248.16 496.23 247.61 494.20 C 245.64 487.99 246.15 481.35 245.43 474.94 C 243.06 474.90 240.70 474.85 238.34 474.80 C 237.75 479.62 237.42 484.52 236.05 489.21 C 235.35 491.43 233.82 494.10 231.11 493.87 C 229.38 492.96 228.44 490.98 228.31 489.10 C 227.89 484.03 228.84 479.00 229.34 473.98 C 223.60 473.54 217.89 472.74 212.24 471.66 C 211.20 476.32 211.52 482.22 207.48 485.50 C 206.06 486.82 204.33 485.78 202.80 485.34 C 200.85 480.22 202.88 474.98 203.48 469.84 C 196.74 468.21 190.04 466.43 183.45 464.32 C 182.70 467.92 182.28 471.84 179.67 474.67 C 178.14 474.63 176.62 474.56 175.10 474.42 C 174.70 473.81 173.88 472.58 173.48 471.97 C 173.29 468.39 174.17 464.90 174.81 461.42 C 168.87 459.30 163.01 456.96 157.24 454.39 C 156.36 457.55 155.16 460.81 152.22 462.62 C 151.52 462.28 150.11 461.60 149.40 461.26 C 147.77 457.81 149.60 454.38 150.91 451.18 C 138.11 444.85 126.08 437.10 114.49 428.79 C 112.25 433.34 111.25 439.39 106.03 441.55 C 104.65 440.58 102.22 440.23 102.29 438.12 C 101.70 432.66 105.48 428.04 107.21 423.10 C 100.61 417.44 94.25 411.53 88.21 405.29 C 85.02 407.41 81.82 409.71 78.03 410.61 C 77.49 410.26 76.42 409.55 75.88 409.19 C 75.50 408.69 74.73 407.69 74.34 407.18 C 74.10 402.62 78.82 400.83 81.86 398.55 C 75.89 391.42 69.64 384.44 64.59 376.60 C 60.47 379.31 56.64 383.81 51.15 382.65 C 49.58 380.94 48.49 378.18 50.01 376.13 C 52.98 373.49 56.45 371.47 59.52 368.94 C 55.86 363.18 52.61 357.18 49.37 351.18 C 46.36 352.21 43.36 355.56 40.05 353.65 C 37.61 352.90 37.99 349.61 38.62 347.72 C 40.26 345.43 42.91 344.24 45.21 342.77 C 41.80 335.46 38.55 328.04 36.11 320.34 C 31.84 321.37 27.56 323.78 23.07 322.55 C 21.24 321.71 21.14 319.58 21.56 317.87 C 23.90 313.61 29.21 312.98 33.42 311.74 C 30.56 302.16 28.54 292.36 26.62 282.56 C 23.06 283.16 19.55 284.12 15.95 284.48 C 13.89 284.79 11.83 283.73 10.74 282.00 C 9.54 279.23 12.03 276.53 14.55 275.76 C 18.11 274.67 21.82 274.19 25.46 273.45 C 24.32 267.82 24.45 262.07 24.14 256.36 C 20.64 255.03 16.45 256.58 12.86 255.10 C 10.25 254.11 7.04 252.25 7.23 249.02 C 6.92 247.28 8.73 246.42 9.70 245.34 C 14.50 246.02 19.27 247.31 24.15 246.54 C 24.14 239.88 24.24 233.21 24.60 226.55 C 19.02 226.48 11.08 227.42 8.59 221.01 C 9.04 219.92 9.47 218.84 9.90 217.75 C 14.84 215.46 20.29 217.95 25.49 217.27 C 26.40 211.87 26.87 206.39 28.40 201.12 C 24.52 200.26 20.47 199.89 16.84 198.13 C 16.34 196.68 15.83 195.23 15.36 193.77 C 16.46 192.62 17.60 191.50 18.78 190.44 C 22.68 190.43 26.51 191.26 30.35 191.79 C 31.76 186.48 33.29 181.20 34.85 175.92 C 31.17 175.79 27.17 176.22 23.84 174.31 C 21.83 173.21 21.57 170.77 21.32 168.73 C 22.61 167.53 23.91 165.93 25.90 166.19 C 29.93 166.27 33.94 166.87 37.96 167.24 C 39.22 163.14 41.04 159.25 42.48 155.22 C 37.82 152.96 32.25 149.69 32.38 143.75 C 33.24 142.97 34.00 142.05 35.01 141.46 C 39.68 140.14 42.42 145.10 46.27 146.66 C 49.19 141.81 51.50 136.61 54.57 131.85 C 51.03 129.05 45.73 126.13 46.15 120.91 C 45.96 118.67 48.50 118.31 49.99 117.51 C 53.62 118.68 56.43 121.26 59.29 123.66 C 62.07 119.64 64.77 115.56 67.50 111.51 C 64.44 109.69 60.79 108.40 58.63 105.43 C 57.64 103.06 58.72 100.72 60.64 99.25 C 65.42 98.71 69.29 101.78 73.26 103.89 C 76.34 99.91 79.70 96.17 83.09 92.45 C 80.69 90.24 77.82 87.81 77.71 84.27 C 77.85 82.55 78.97 80.23 81.02 80.43 C 84.49 80.26 86.57 83.52 88.64 85.79 C 88.96 85.70 89.60 85.51 89.92 85.42 C 93.83 81.02 98.47 77.36 102.72 73.31 C 100.41 70.36 97.64 66.98 98.37 62.95 C 98.41 60.76 100.99 58.73 103.06 59.96 C 106.27 61.06 107.57 64.50 109.75 66.80 C 113.19 65.45 115.64 62.35 118.76 60.39 C 115.68 55.90 114.14 50.33 116.01 45.03 C 121.58 45.42 124.67 50.34 126.67 54.96 C 132.86 51.18 139.03 47.35 145.48 44.03 C 144.78 41.68 144.18 39.31 143.64 36.92 C 144.34 35.13 144.36 32.10 146.98 32.21 C 151.20 31.67 152.77 36.44 154.38 39.39 C 160.73 36.63 166.97 33.60 173.49 31.23 C 172.63 28.30 171.70 24.68 174.21 22.25 C 178.33 21.11 180.92 25.02 182.65 28.07 C 188.81 26.40 194.92 24.54 201.14 23.13 C 201.90 20.72 202.15 17.60 204.84 16.51 C 207.71 16.13 209.14 19.14 210.39 21.15 C 216.71 19.90 223.09 18.98 229.47 18.12 M 239.76 21.47 C 239.24 23.75 238.89 26.39 236.77 27.80 C 233.09 28.75 231.10 25.02 230.01 22.19 C 223.66 23.06 217.28 23.83 211.05 25.31 C 210.57 28.46 211.63 32.75 208.06 34.44 C 203.82 35.49 201.95 30.61 201.33 27.32 C 195.77 28.75 190.24 30.26 184.75 31.93 C 185.87 34.24 186.55 36.69 185.54 39.18 C 185.19 39.55 184.47 40.29 184.12 40.66 C 183.74 40.61 183.00 40.51 182.62 40.46 L 182.30 41.75 C 178.91 40.85 176.84 38.07 175.31 35.12 C 168.74 37.74 162.23 40.54 155.91 43.72 C 156.60 46.47 156.71 51.23 153.07 51.76 C 150.33 52.52 148.62 50.06 147.05 48.30 C 134.96 54.85 123.36 62.40 112.78 71.19 C 112.40 72.64 112.10 74.13 111.35 75.45 C 109.28 76.53 106.55 76.01 104.92 77.92 C 95.00 86.59 85.94 96.25 77.72 106.54 C 78.42 108.22 79.75 110.50 78.21 112.14 C 76.36 114.16 72.71 112.62 71.34 115.22 C 68.00 120.06 64.30 124.78 62.48 130.45 C 57.58 135.35 55.16 141.99 51.79 147.92 C 52.33 149.70 53.24 151.66 52.43 153.51 C 51.41 155.10 49.45 155.61 47.87 156.44 C 43.01 168.22 38.95 180.34 35.82 192.69 C 38.26 194.40 39.41 197.03 38.41 199.93 C 37.82 200.28 36.63 200.97 36.04 201.31 C 35.47 201.41 34.33 201.59 33.76 201.69 C 32.82 208.40 29.79 215.48 32.39 222.12 C 28.14 229.54 30.04 238.48 29.51 246.64 C 30.73 247.91 32.99 248.83 32.71 250.96 C 33.12 253.21 30.84 254.32 29.71 255.88 C 29.24 261.65 30.52 267.36 30.78 273.12 C 32.70 274.04 35.16 274.79 35.88 277.06 C 36.56 278.36 35.56 279.77 35.40 281.10 C 34.37 281.61 33.34 282.14 32.31 282.67 C 34.01 292.16 36.18 301.58 38.84 310.85 C 40.41 311.61 42.35 311.97 43.49 313.40 C 44.91 316.02 40.05 317.42 41.75 320.11 C 43.95 326.89 46.84 333.43 49.80 339.92 C 52.40 338.39 55.36 337.88 58.33 338.40 C 58.76 339.92 59.81 341.43 59.35 343.07 C 58.30 345.47 55.98 346.87 53.95 348.36 C 57.00 354.33 60.30 360.16 63.79 365.88 C 66.30 365.55 69.54 364.56 71.33 367.03 C 72.60 369.61 70.27 371.82 68.83 373.68 C 73.99 381.58 80.21 388.70 86.24 395.92 C 89.33 395.62 92.38 394.94 95.10 393.38 C 93.54 395.95 92.69 398.84 91.72 401.67 C 97.40 407.36 102.92 413.30 109.25 418.29 C 111.09 417.29 112.90 416.20 114.88 415.49 C 115.54 415.88 116.85 416.64 117.51 417.03 C 118.00 419.50 117.57 421.98 116.64 424.30 C 128.07 433.05 140.32 440.72 153.10 447.33 C 154.44 446.71 155.68 445.90 156.99 445.23 C 157.50 446.75 157.80 448.34 158.33 449.86 C 163.78 452.83 169.70 454.85 175.48 457.08 C 176.11 455.26 176.79 453.46 177.64 451.74 C 178.77 451.35 179.90 450.96 181.02 450.57 C 181.66 450.83 182.93 451.37 183.56 451.63 C 185.34 454.17 184.73 457.32 184.38 460.19 C 190.65 462.21 197.01 463.91 203.38 465.58 C 203.96 462.47 205.35 458.83 209.23 459.28 C 211.66 461.38 212.22 464.56 212.65 467.58 C 218.23 468.69 223.88 469.34 229.52 470.03 C 229.72 466.19 229.54 462.25 230.64 458.53 C 231.52 456.31 233.86 456.25 235.89 456.34 C 236.43 456.89 236.97 457.45 237.52 458.00 C 239.04 462.09 238.69 466.51 238.65 470.78 C 240.83 470.92 243.02 471.06 245.22 471.18 C 245.26 466.63 244.61 461.79 246.74 457.58 C 247.60 457.60 249.32 457.64 250.19 457.66 C 251.91 462.00 252.39 466.68 253.33 471.22 C 260.27 471.24 267.22 471.18 274.13 470.43 C 273.62 466.06 273.04 461.42 274.69 457.22 C 275.34 455.49 277.44 454.90 278.94 455.95 C 281.42 460.00 281.29 465.00 282.38 469.50 C 289.76 468.46 297.09 467.10 304.35 465.37 C 304.17 461.81 303.37 458.34 302.55 454.90 C 302.06 452.42 305.32 452.07 307.03 452.40 C 311.48 453.92 312.47 459.16 313.05 463.25 C 316.94 462.09 320.84 460.97 324.72 459.76 C 323.94 456.07 322.21 452.45 322.61 448.61 C 323.28 447.37 324.40 446.49 325.40 445.54 C 325.96 445.56 327.09 445.59 327.66 445.61 C 331.35 448.17 332.07 452.79 333.38 456.76 C 340.32 453.91 347.20 450.88 353.91 447.49 C 351.86 444.81 349.89 442.05 348.41 439.01 C 348.79 438.57 349.56 437.69 349.94 437.26 C 354.24 437.96 357.48 440.97 360.36 444.02 C 366.36 440.84 372.23 437.39 377.89 433.62 C 376.08 431.32 374.33 428.42 376.45 425.68 C 377.09 425.39 378.39 424.80 379.03 424.50 C 381.60 425.05 383.83 426.41 386.07 427.70 C 390.65 425.02 394.42 421.14 398.64 417.95 C 397.04 416.19 395.54 414.36 394.16 412.44 C 395.77 410.99 397.67 409.19 400.05 409.67 C 402.02 410.10 403.87 410.93 405.74 411.66 C 409.57 407.83 413.58 404.19 417.21 400.17 C 414.99 398.98 412.26 398.30 410.80 396.10 C 409.71 393.96 411.62 391.51 413.85 391.37 C 417.20 390.75 420.38 392.16 423.41 393.40 C 426.12 390.35 428.78 387.25 431.06 383.87 C 429.40 382.25 425.46 381.30 426.19 378.44 C 427.62 376.75 429.81 376.25 431.84 375.69 C 433.44 376.02 435.04 376.30 436.66 376.57 C 440.72 370.39 444.69 364.16 448.53 357.84 C 446.15 357.62 443.76 357.32 441.49 356.52 C 440.98 354.66 439.87 352.49 441.70 350.98 C 444.50 347.33 449.48 348.60 453.23 349.72 C 453.38 349.11 453.67 347.89 453.81 347.28 C 452.75 346.65 451.70 346.00 450.66 345.36 C 450.37 344.57 450.09 343.79 449.81 343.02 C 450.12 342.20 450.43 341.38 450.73 340.57 C 452.96 339.20 455.57 339.23 458.10 339.37 C 460.10 334.29 462.60 329.35 463.95 324.04 C 462.80 322.49 460.68 321.26 461.25 319.01 C 461.08 315.84 464.90 315.22 467.26 314.90 C 468.33 311.58 469.25 308.22 470.33 304.91 C 469.94 304.41 469.15 303.39 468.75 302.89 C 472.32 300.05 472.64 295.41 473.56 291.29 C 472.04 290.10 469.23 289.44 469.50 287.00 C 469.21 283.85 472.76 282.45 475.31 281.98 C 477.00 270.74 477.40 259.41 478.27 248.09 C 474.90 247.64 471.62 245.45 472.26 241.60 C 473.80 240.05 475.77 239.15 477.86 238.59 C 477.74 235.10 477.61 231.60 477.44 228.11 C 475.51 227.69 473.19 227.32 472.48 225.14 C 471.87 222.19 474.62 220.40 476.54 218.76 C 475.96 215.01 475.39 211.25 474.77 207.51 C 472.49 206.87 469.59 206.76 468.53 204.23 C 467.58 201.12 470.59 199.39 472.81 198.08 C 471.63 192.46 470.10 186.92 468.60 181.38 C 466.30 181.73 463.97 181.82 461.66 181.65 C 461.16 180.14 460.00 178.59 460.63 176.94 C 461.57 174.68 463.76 173.43 465.69 172.13 C 463.32 165.40 460.72 158.73 457.55 152.36 C 453.98 151.75 450.56 155.56 446.78 154.41 C 444.39 153.37 443.80 150.23 445.18 148.16 C 446.77 145.26 450.32 144.56 453.14 143.40 C 450.47 137.89 447.34 132.62 444.22 127.36 C 441.67 128.62 438.85 129.05 436.06 128.39 C 435.67 127.82 434.91 126.69 434.53 126.13 C 434.51 125.24 434.49 123.45 434.48 122.56 C 435.95 121.40 437.49 120.33 439.10 119.36 C 435.74 114.28 432.08 109.39 428.12 104.77 C 426.09 105.31 424.03 105.77 422.00 106.28 C 422.14 103.77 422.51 101.28 423.37 98.91 C 418.76 93.61 413.69 88.76 408.90 83.64 C 408.68 83.61 408.23 83.55 408.01 83.51 C 405.65 86.64 402.17 91.18 397.71 89.01 C 395.60 84.50 398.71 80.12 401.63 76.87 C 397.51 73.30 393.30 69.84 389.01 66.50 C 386.84 69.27 384.68 72.34 381.16 73.45 C 380.28 73.07 379.40 72.69 378.52 72.31 C 376.26 68.31 378.88 64.23 381.32 61.06 C 372.46 55.12 363.28 49.68 353.87 44.64 C 353.32 44.63 352.21 44.60 351.66 44.58 C 346.02 39.67 338.39 38.07 331.68 35.10 C 331.33 37.19 331.13 39.36 330.25 41.31 C 329.34 42.96 327.28 43.11 325.70 43.71 C 321.55 41.16 321.99 36.10 322.28 31.90 C 315.96 29.95 309.61 28.08 303.15 26.65 C 302.68 29.82 302.26 33.35 299.49 35.43 C 298.49 35.43 297.48 35.43 296.49 35.45 C 295.40 34.44 294.36 33.39 293.33 32.33 C 293.30 29.74 293.60 27.17 294.17 24.65 C 291.54 24.17 288.90 23.73 286.26 23.33 C 285.90 25.39 285.45 27.45 284.43 29.29 C 283.84 29.52 282.66 29.97 282.08 30.20 C 281.73 30.28 281.04 30.43 280.69 30.51 C 277.41 28.91 276.87 25.38 276.63 22.10 C 272.10 21.80 267.57 21.64 263.04 21.32 C 262.86 23.82 262.20 26.21 261.07 28.44 C 259.17 28.40 256.62 29.39 255.39 27.43 C 253.82 25.74 254.32 23.20 253.93 21.11 C 249.20 20.99 244.47 21.16 239.76 21.47 Z" />
<path fill="#e1c25e" opacity="1.00" d=" M 258.34 36.47 C 260.17 34.65 261.98 32.20 264.85 32.24 C 268.57 32.03 272.81 31.63 275.89 34.17 C 278.25 35.63 279.23 38.34 280.07 40.83 C 283.43 38.67 287.56 37.33 291.51 38.62 C 294.17 39.61 295.47 42.28 296.78 44.60 C 300.51 41.87 305.56 40.93 309.90 42.69 C 313.48 44.47 315.26 48.35 316.62 51.89 C 320.67 48.43 326.72 47.45 331.56 49.71 C 334.08 51.34 336.50 53.16 338.69 55.21 C 340.83 57.20 340.81 60.28 341.44 62.93 C 346.05 57.65 353.50 57.69 359.88 58.50 C 364.61 60.07 368.87 63.84 370.18 68.77 C 370.82 71.23 370.52 73.81 370.41 76.32 C 374.18 76.42 378.60 75.42 381.75 78.10 C 386.57 82.28 388.18 89.69 385.47 95.48 C 388.89 95.52 392.22 96.41 395.33 97.80 C 398.99 99.37 403.29 99.86 406.25 102.73 C 408.27 104.67 408.54 107.57 408.83 110.20 C 411.83 110.27 415.09 110.30 417.48 112.42 C 420.43 115.00 425.01 116.08 426.47 120.07 C 427.32 124.94 427.19 130.14 425.16 134.72 C 430.03 135.34 435.28 137.77 437.45 142.43 C 438.27 147.32 438.17 152.63 435.70 157.08 C 439.94 158.58 443.52 161.38 446.86 164.31 C 448.89 165.90 449.05 168.66 449.13 171.04 C 449.20 174.92 448.23 178.75 446.36 182.14 C 448.72 184.04 451.24 185.71 453.88 187.20 C 455.60 188.26 457.88 189.59 457.48 191.97 C 457.25 196.30 456.50 201.02 453.23 204.18 C 456.14 205.75 459.56 207.08 461.31 210.07 C 462.40 215.68 461.63 221.94 457.23 225.99 C 460.04 227.95 463.10 230.07 464.45 233.37 C 465.64 236.79 465.30 240.49 465.24 244.05 C 465.13 249.17 461.84 253.40 458.50 256.97 C 462.76 259.98 468.35 262.97 469.08 268.70 C 469.64 274.08 465.69 278.84 461.13 281.20 C 464.18 284.32 465.83 288.69 465.16 293.05 C 464.82 298.19 460.15 301.20 456.56 304.17 C 458.47 305.98 460.89 308.03 460.57 310.98 C 460.55 315.85 456.60 319.55 452.50 321.53 C 453.80 326.85 450.37 331.43 447.27 335.36 C 445.59 337.41 442.87 337.76 440.42 338.04 C 443.43 344.89 438.95 353.76 431.41 354.84 C 431.49 358.49 431.08 362.64 428.06 365.13 C 425.36 368.05 421.16 367.93 417.52 367.84 C 419.74 373.94 419.34 381.76 414.49 386.51 C 411.38 389.42 406.86 388.57 403.00 388.69 C 403.02 393.36 400.71 398.12 396.51 400.38 C 393.30 402.16 389.50 401.60 385.99 401.48 C 386.28 405.90 384.52 410.41 380.81 412.97 C 377.84 415.26 373.88 414.55 370.40 414.62 C 371.75 418.61 371.61 423.34 368.62 426.57 C 365.78 429.61 362.53 433.27 358.01 433.24 C 352.33 432.97 346.41 431.79 341.87 428.15 C 341.71 431.29 342.17 435.07 339.46 437.35 C 335.77 441.06 330.08 439.89 325.60 438.55 C 323.69 441.34 322.19 444.43 320.06 447.07 C 317.28 450.16 312.69 449.16 309.01 449.34 C 305.57 449.57 302.14 448.76 299.26 446.86 C 297.59 449.22 296.00 451.88 293.34 453.23 C 287.16 454.81 280.21 453.65 275.53 449.10 C 273.78 452.94 272.95 458.93 267.67 459.23 C 261.20 458.97 253.97 455.93 251.38 449.57 C 246.29 454.46 237.70 456.47 231.92 451.62 C 230.58 453.24 229.39 455.44 227.08 455.76 C 221.64 457.50 215.79 453.24 214.48 447.95 C 214.05 445.49 214.18 442.99 214.21 440.51 C 211.66 443.09 208.77 445.68 205.05 446.25 C 200.12 446.99 194.98 446.28 190.38 444.39 C 187.35 443.14 185.67 440.20 184.07 437.54 C 179.11 438.22 174.01 438.58 169.04 437.83 C 165.56 437.32 163.76 433.96 162.40 431.09 C 159.40 432.08 156.25 433.05 153.06 432.43 C 146.26 430.51 138.93 428.43 134.36 422.62 C 130.64 418.96 131.18 413.45 131.16 408.70 C 127.31 408.87 123.32 409.66 119.58 408.32 C 111.89 404.12 105.15 396.25 106.23 386.92 C 102.16 387.06 97.16 387.31 94.68 383.37 C 89.97 377.71 89.93 370.20 89.89 363.24 C 87.35 362.74 84.92 361.78 82.97 360.04 C 79.42 356.99 74.70 354.81 72.81 350.25 C 70.77 346.07 70.86 341.28 71.55 336.79 C 68.42 336.72 64.91 336.91 62.37 334.72 C 58.98 331.72 55.54 327.91 55.73 323.05 C 55.24 318.78 56.45 314.60 58.67 310.98 C 50.03 310.75 43.45 303.51 40.58 295.91 C 38.69 288.88 42.96 282.15 48.12 277.76 C 42.34 274.78 39.63 268.24 40.34 261.94 C 40.31 257.54 44.15 254.74 47.42 252.50 C 43.14 250.04 39.32 246.66 36.73 242.44 C 33.17 234.56 40.30 225.34 48.57 225.14 C 44.24 222.27 41.92 217.17 42.22 212.02 C 41.54 205.28 47.43 199.26 53.88 198.40 C 49.79 193.68 49.09 186.95 50.25 181.01 C 51.46 175.81 56.66 172.81 61.70 172.34 C 58.38 167.76 54.63 162.84 54.32 156.99 C 54.11 153.29 56.98 150.49 60.00 148.90 C 63.88 146.72 67.87 144.48 72.35 143.86 C 70.36 139.87 69.25 135.03 70.91 130.75 C 73.54 125.94 79.69 124.66 84.73 124.50 C 84.02 121.53 83.18 118.44 83.87 115.39 C 84.76 111.86 87.38 109.10 90.23 106.99 C 93.01 104.90 96.64 105.32 99.91 105.27 C 97.66 101.01 96.32 95.05 100.34 91.38 C 103.78 87.14 109.64 86.93 114.63 87.64 C 114.09 83.79 114.43 79.35 117.67 76.71 C 122.00 72.32 128.91 72.59 134.30 74.63 C 134.21 70.81 133.70 66.52 136.26 63.31 C 141.12 56.23 152.38 55.54 158.08 61.99 C 157.83 56.58 162.37 52.67 166.89 50.64 C 172.21 48.63 178.13 50.29 182.60 53.50 C 183.22 48.64 186.09 43.32 191.44 42.68 C 196.43 42.46 201.71 40.37 206.50 42.64 C 207.96 43.29 209.32 44.13 210.69 44.93 C 211.54 41.47 212.91 37.33 216.81 36.33 C 220.47 35.42 224.67 34.97 228.14 36.76 C 231.36 38.92 233.71 42.14 235.61 45.47 C 239.52 37.50 249.91 31.34 258.34 36.47 M 266.44 41.52 C 264.37 44.96 263.10 48.80 261.39 52.41 C 264.62 52.46 267.85 52.65 271.07 52.89 C 271.12 49.31 271.53 45.68 270.84 42.15 C 269.81 40.90 267.78 40.84 266.44 41.52 M 242.40 52.52 C 245.80 52.45 249.21 52.35 252.62 52.39 C 252.60 49.46 252.79 46.54 252.76 43.62 C 247.58 43.75 244.15 48.09 242.40 52.52 M 220.18 44.74 C 219.42 48.28 218.76 51.85 218.30 55.44 C 222.03 54.56 225.87 54.32 229.63 53.62 C 227.23 50.07 225.64 43.86 220.18 44.74 M 280.19 54.18 C 282.77 54.56 285.34 55.06 287.91 55.50 C 288.27 52.70 288.30 49.87 288.10 47.06 C 284.71 48.48 282.19 51.19 280.19 54.18 M 192.50 51.93 C 191.71 55.40 191.70 58.97 191.49 62.51 C 197.18 60.35 203.10 58.94 208.92 57.22 C 207.47 54.44 205.26 51.88 202.20 50.90 C 198.95 51.08 195.75 51.72 192.50 51.93 M 298.71 57.96 C 301.72 58.48 304.66 59.29 307.64 59.98 C 307.57 57.79 307.73 55.58 307.33 53.43 C 307.01 52.02 305.73 50.13 304.06 51.04 C 301.16 52.17 300.24 55.53 298.71 57.96 M 239.51 59.99 C 239.52 73.19 240.77 86.35 240.14 99.55 C 243.47 99.38 246.81 99.33 250.15 99.33 C 249.97 84.76 251.18 70.25 251.57 55.69 C 248.39 55.77 245.19 55.69 242.06 56.29 C 240.19 56.24 239.41 58.43 239.51 59.99 M 254.45 55.72 C 256.17 70.18 258.05 85.00 255.32 99.46 C 258.98 99.67 262.59 100.27 266.25 100.53 C 267.19 95.07 267.52 89.53 267.42 83.99 C 267.96 74.82 269.56 65.75 270.19 56.58 C 264.95 56.05 259.72 55.56 254.45 55.72 M 214.22 61.17 C 216.95 74.69 221.63 87.88 222.86 101.70 C 226.69 101.15 230.50 100.41 234.37 100.18 C 233.75 86.81 234.61 73.44 234.63 60.08 C 233.80 58.07 231.12 56.77 228.92 57.39 C 223.94 58.16 218.39 57.93 214.22 61.17 M 273.44 58.46 C 273.95 64.65 274.29 70.86 274.51 77.07 C 274.84 85.21 273.59 93.29 272.34 101.31 C 275.70 101.93 279.07 102.51 282.40 103.35 C 284.45 90.17 289.28 77.69 292.58 64.83 C 289.50 64.18 287.58 61.91 287.00 58.88 C 282.51 57.80 277.98 57.55 273.44 58.46 M 318.02 63.27 C 322.86 65.48 327.94 67.14 332.70 69.54 C 332.51 66.81 332.65 63.99 331.84 61.34 C 330.38 60.00 328.82 58.71 327.05 57.80 C 323.06 56.99 320.56 60.90 318.02 63.27 M 167.48 61.83 C 167.66 65.04 168.71 68.11 169.14 71.28 C 173.21 69.45 177.32 67.71 181.46 66.03 C 179.19 63.23 176.89 59.81 173.05 59.20 C 170.85 58.60 168.59 59.98 167.48 61.83 M 189.55 67.62 C 195.38 80.12 200.81 92.81 205.67 105.72 C 210.27 104.42 214.91 103.33 219.58 102.30 C 215.46 89.84 213.16 76.88 211.08 63.95 C 210.83 62.82 210.60 61.69 210.38 60.56 C 203.44 62.84 195.79 63.65 189.55 67.62 M 295.33 66.00 C 294.80 79.21 291.98 92.18 288.51 104.89 C 290.98 105.48 293.41 106.21 295.85 106.92 C 300.63 94.03 306.20 81.43 312.00 68.96 C 310.52 68.54 309.07 68.04 307.65 67.49 C 307.22 66.15 306.79 64.81 306.38 63.47 C 303.22 62.54 300.02 61.71 296.79 61.05 C 295.94 62.58 295.21 64.20 295.33 66.00 M 316.46 66.44 C 317.51 82.01 309.56 96.11 304.06 110.16 C 307.24 111.49 310.39 112.89 313.43 114.51 C 320.25 101.54 327.05 88.54 334.51 75.91 C 333.40 74.70 332.48 73.17 330.88 72.54 C 326.16 70.31 321.22 68.58 316.46 66.44 M 143.51 70.97 C 143.24 75.58 145.04 79.92 146.91 84.02 C 150.91 81.61 154.81 79.03 158.94 76.82 C 156.53 73.06 153.33 69.85 149.68 67.30 C 147.24 65.92 142.93 67.79 143.51 70.97 M 350.39 67.61 C 347.24 69.05 345.31 72.20 343.14 74.77 C 347.96 76.95 352.41 79.85 357.03 82.42 C 359.09 80.00 360.39 77.04 361.30 74.02 C 361.77 72.27 361.48 70.14 359.98 68.96 C 357.58 66.29 353.52 67.19 350.39 67.61 M 169.48 74.99 C 169.07 76.61 168.01 78.39 169.05 80.01 C 174.33 91.28 179.37 102.66 184.17 114.14 C 188.89 112.02 193.60 109.85 198.45 108.05 C 193.58 95.04 189.68 81.65 184.11 68.91 C 179.11 70.65 174.35 72.94 169.48 74.99 M 339.99 77.02 C 338.88 83.24 335.94 88.89 333.27 94.54 C 329.25 102.49 325.24 110.47 320.52 118.04 C 323.66 119.74 326.74 121.56 329.77 123.45 C 331.29 119.66 333.12 115.97 335.47 112.62 C 341.20 104.32 347.43 96.34 354.49 89.12 C 354.01 87.50 354.67 85.11 352.89 84.18 C 348.71 81.59 344.39 79.22 339.99 77.02 M 148.48 87.45 C 147.65 89.19 146.87 90.97 146.36 92.83 C 153.02 103.23 159.55 113.75 165.44 124.61 C 170.00 122.51 174.01 119.29 178.56 117.11 C 171.51 105.16 167.28 91.86 161.48 79.34 C 157.14 82.02 152.57 84.39 148.48 87.45 M 123.84 83.98 C 123.45 88.91 126.57 93.11 128.88 97.18 C 131.82 94.97 134.88 92.90 137.64 90.45 C 137.68 90.18 137.74 89.64 137.78 89.36 C 135.53 86.83 132.77 84.68 129.83 83.02 C 128.01 82.50 124.86 81.93 123.84 83.98 M 365.11 88.01 C 368.37 90.37 371.52 92.86 374.71 95.30 C 376.83 92.69 379.31 88.68 376.41 85.70 C 372.62 84.25 368.41 85.96 365.11 88.01 M 358.71 93.50 C 355.70 99.07 351.83 104.09 348.11 109.19 C 343.70 115.13 339.50 121.24 334.56 126.76 C 337.90 129.12 341.00 131.79 344.31 134.20 C 354.39 124.89 362.89 113.90 373.73 105.42 C 372.36 104.44 370.90 103.60 369.50 102.66 C 369.46 101.41 369.44 100.16 369.44 98.92 C 369.91 98.20 370.38 97.49 370.85 96.78 C 367.90 94.65 365.21 92.13 362.03 90.35 C 360.21 90.30 359.50 92.20 358.71 93.50 M 130.66 100.53 C 131.40 102.73 130.73 105.58 132.48 107.35 C 140.34 115.68 146.34 125.54 151.92 135.48 C 155.31 132.20 159.13 129.44 162.86 126.59 C 156.57 117.17 151.17 107.17 145.33 97.46 C 144.14 95.76 143.27 93.37 140.96 93.00 C 137.07 94.79 134.07 98.00 130.66 100.53 M 106.57 97.58 C 108.97 102.30 111.75 106.81 113.95 111.63 C 116.03 109.15 118.34 106.88 120.73 104.71 C 117.89 100.16 112.35 94.56 106.57 97.58 M 239.56 103.29 C 238.95 105.58 238.37 107.87 237.58 110.10 C 236.28 108.09 235.58 105.80 235.00 103.51 C 231.16 104.11 227.31 104.68 223.43 104.93 C 223.38 107.62 223.47 110.31 223.44 113.00 C 222.47 110.54 221.62 108.05 220.61 105.61 C 216.07 106.76 211.52 107.85 206.97 108.95 C 208.74 114.85 211.64 120.84 210.22 127.16 C 204.45 123.75 202.17 117.24 199.71 111.40 C 194.83 113.20 190.06 115.28 185.42 117.63 C 186.58 121.18 187.62 124.77 188.26 128.45 C 185.46 125.96 182.93 123.18 180.70 120.17 C 175.96 122.34 171.63 125.26 167.22 127.99 C 168.10 130.06 169.04 132.10 169.94 134.17 C 168.33 132.56 166.74 130.93 165.13 129.32 C 161.12 132.31 157.16 135.37 153.44 138.71 C 154.87 141.73 155.96 144.90 156.62 148.18 C 154.01 146.60 151.65 144.64 149.68 142.31 C 146.86 144.97 144.11 147.70 141.56 150.62 C 143.13 153.81 144.65 157.03 146.02 160.32 C 143.38 158.30 140.93 156.06 138.27 154.07 C 135.40 157.72 132.31 161.22 129.85 165.18 C 132.58 168.05 135.27 171.11 136.39 175.00 C 132.48 175.16 128.78 173.83 125.64 171.55 C 122.87 176.12 120.27 180.81 118.12 185.71 C 118.96 186.71 119.82 187.72 120.68 188.72 C 119.51 188.18 118.35 187.65 117.18 187.13 C 115.89 190.42 114.46 193.67 113.19 196.97 C 118.20 199.43 123.18 202.23 126.90 206.48 C 121.38 206.78 116.03 205.15 110.78 203.65 C 110.13 205.71 109.51 207.78 108.87 209.85 C 108.79 210.26 108.62 211.07 108.53 211.47 C 110.70 212.65 112.90 213.79 115.00 215.09 C 112.51 215.64 109.99 215.99 107.48 216.41 C 106.90 218.94 106.49 221.51 105.88 224.03 C 105.66 226.00 105.48 227.98 105.33 229.96 C 110.29 230.57 115.13 231.95 119.70 233.97 C 114.77 235.50 109.65 236.31 104.51 236.67 C 103.35 245.95 103.97 255.24 104.91 264.51 C 105.13 264.61 105.56 264.82 105.78 264.92 C 112.55 264.61 119.50 264.44 126.01 266.64 C 120.08 270.46 113.17 272.20 106.40 273.83 C 107.09 276.99 107.74 280.17 108.56 283.31 C 110.54 283.29 112.53 283.28 114.51 283.35 C 112.92 284.88 111.23 286.30 109.59 287.78 C 111.58 294.53 114.06 301.11 116.98 307.50 C 120.09 307.03 123.18 306.39 126.30 306.00 C 124.02 308.23 121.57 310.30 119.38 312.63 C 122.19 317.68 125.04 322.71 128.07 327.64 C 139.95 320.33 151.86 313.05 163.89 305.99 C 152.36 313.82 141.59 322.73 131.06 331.85 C 134.67 337.21 138.93 342.12 143.45 346.72 C 147.23 346.12 150.12 343.19 153.23 341.16 C 150.77 344.03 148.20 346.93 146.94 350.57 C 152.26 355.33 157.55 360.13 163.17 364.54 C 164.75 363.34 166.30 362.11 167.86 360.87 C 167.19 362.78 166.55 364.71 166.07 366.68 C 171.33 369.86 176.50 373.20 182.03 375.91 C 184.81 370.67 187.65 365.23 192.56 361.64 C 193.45 367.82 191.01 373.62 188.96 379.29 C 192.11 380.70 195.30 382.00 198.43 383.45 C 199.64 380.90 200.83 378.33 202.05 375.79 C 202.56 378.90 202.94 382.02 203.40 385.13 C 206.64 386.14 209.88 387.10 213.18 387.88 C 213.37 381.36 215.59 375.22 217.70 369.13 C 219.84 375.79 222.10 382.54 221.72 389.65 C 225.30 390.39 228.94 390.76 232.53 391.46 C 232.88 382.91 231.33 373.62 235.79 365.85 C 235.78 374.38 235.65 382.92 235.71 391.45 C 237.11 391.67 238.53 391.90 239.93 392.17 C 243.04 392.27 246.15 392.33 249.27 392.39 C 250.04 388.90 251.04 385.48 252.07 382.07 C 253.22 385.45 254.28 388.87 254.92 392.38 C 259.18 391.86 263.45 391.40 267.73 391.16 C 268.63 386.29 268.20 381.33 268.45 376.42 C 270.05 380.99 271.35 385.66 272.93 390.23 C 278.45 389.08 284.01 388.04 289.41 386.40 C 287.66 378.87 285.68 371.35 285.04 363.63 C 289.78 369.94 292.44 377.39 294.61 384.89 C 297.32 383.94 300.00 382.91 302.72 382.00 C 302.59 380.20 302.45 378.40 302.41 376.61 C 303.52 377.92 304.62 379.29 305.71 380.64 C 308.75 379.14 311.80 377.70 314.82 376.18 C 313.93 374.56 313.04 372.94 312.22 371.30 C 314.94 370.66 316.95 372.49 319.09 373.78 C 322.04 372.50 324.65 370.60 327.43 368.99 C 327.10 367.11 326.65 365.26 326.57 363.35 C 328.58 362.89 330.01 364.64 331.51 365.64 C 331.90 365.58 332.66 365.46 333.04 365.39 C 335.36 363.50 337.74 361.70 340.13 359.90 C 338.67 356.88 337.16 353.88 335.98 350.75 C 338.73 352.40 341.10 354.70 344.07 355.97 C 346.67 354.66 348.44 352.21 350.54 350.26 C 350.28 349.42 349.74 347.73 349.48 346.89 C 349.86 346.28 350.63 345.06 351.02 344.45 C 352.65 344.53 354.27 344.65 355.91 344.79 C 358.63 341.37 361.64 338.20 364.22 334.67 C 363.51 333.07 362.45 331.57 362.29 329.78 C 363.68 327.53 366.08 329.26 368.01 329.61 C 372.38 322.78 376.66 315.81 379.71 308.27 C 378.69 307.52 377.68 306.76 376.67 306.01 C 378.08 306.19 379.49 306.39 380.91 306.58 C 381.44 305.06 382.01 303.56 382.58 302.06 C 378.92 300.05 375.45 297.49 373.17 293.94 C 373.50 292.05 375.53 292.44 376.97 292.40 C 379.94 292.66 382.66 293.97 385.46 294.91 C 386.13 292.92 386.79 290.93 387.47 288.95 C 386.02 287.76 384.60 286.54 383.24 285.25 C 383.36 283.80 383.58 282.37 383.89 280.96 C 385.88 280.18 388.02 279.92 390.12 279.51 C 390.26 277.94 390.41 276.38 390.58 274.83 C 383.41 272.36 376.02 270.74 368.68 268.88 C 376.58 269.44 384.33 267.79 392.15 267.11 C 392.31 264.72 392.48 262.32 392.65 259.93 C 386.06 259.68 379.57 258.33 372.95 258.56 C 372.43 257.90 371.92 257.25 371.40 256.60 C 372.52 255.50 373.47 253.94 375.13 253.66 C 381.18 252.79 387.26 252.20 393.35 251.69 C 393.43 247.51 393.41 243.33 393.27 239.15 C 386.26 239.05 379.67 236.59 372.84 235.42 C 379.45 234.23 385.61 231.08 392.42 230.94 C 391.82 227.50 391.40 224.02 390.67 220.61 C 387.09 221.67 383.52 222.78 379.90 223.66 C 383.47 222.24 387.07 220.86 390.54 219.20 C 389.44 214.45 388.26 209.72 387.06 205.00 C 382.58 205.37 378.15 206.30 373.65 206.31 C 373.90 205.70 374.40 204.50 374.65 203.90 C 378.17 202.36 381.88 201.33 385.50 200.07 C 383.59 195.46 381.92 190.73 379.62 186.30 C 374.32 186.96 369.46 190.45 363.99 189.43 C 366.78 184.75 372.38 183.16 376.53 179.99 C 374.52 176.37 372.43 172.80 370.33 169.24 C 367.68 170.40 364.84 171.10 361.95 170.56 C 361.49 169.65 361.04 168.74 360.59 167.83 C 361.36 165.27 363.19 163.32 365.15 161.60 C 362.80 158.58 360.44 155.57 357.88 152.72 C 355.35 154.14 352.79 155.52 350.10 156.63 C 350.48 153.48 352.37 150.93 354.04 148.36 C 351.71 146.09 349.37 143.82 347.03 141.57 C 344.35 143.38 341.42 144.79 338.26 145.57 C 337.66 142.15 339.69 139.31 341.71 136.80 C 338.49 134.24 335.32 131.63 331.97 129.25 C 330.51 130.63 329.06 132.03 327.66 133.47 C 328.05 131.31 328.35 129.13 328.60 126.95 C 325.36 124.88 322.06 122.89 318.64 121.13 C 316.23 124.06 313.24 126.41 310.05 128.42 C 310.11 124.74 310.88 121.13 311.99 117.63 C 309.03 116.23 306.10 114.73 303.01 113.63 C 301.08 113.44 299.30 115.41 297.35 114.55 C 296.03 113.66 295.69 111.91 294.96 110.58 C 292.44 109.62 289.88 108.79 287.26 108.14 C 285.98 109.98 284.56 111.73 283.02 113.36 C 282.65 111.20 282.38 109.04 282.16 106.86 C 280.75 106.56 279.36 106.27 277.98 105.91 C 275.84 105.57 273.69 105.28 271.55 104.96 C 270.56 108.97 269.28 113.11 266.24 116.07 C 265.06 112.08 265.23 107.91 265.59 103.82 C 261.80 103.63 258.02 103.25 254.23 103.27 C 253.45 106.11 252.22 108.78 250.73 111.31 C 250.28 108.48 250.20 105.62 250.14 102.76 C 246.60 102.69 243.05 102.73 239.56 103.29 M 385.73 104.76 C 389.33 108.50 393.03 112.12 396.57 115.92 C 398.69 114.25 399.60 111.75 399.41 109.09 C 394.83 107.72 390.43 105.71 385.73 104.76 M 377.50 108.56 C 370.18 119.38 361.05 128.88 351.47 137.72 C 350.84 138.24 350.39 138.87 350.13 139.63 C 352.31 141.82 354.30 144.33 356.96 145.95 C 364.62 140.88 372.84 136.67 380.31 131.30 C 385.46 127.64 389.99 123.21 394.76 119.08 C 390.49 114.60 386.12 110.24 381.67 105.95 C 380.23 106.72 378.48 107.16 377.50 108.56 M 122.32 107.91 C 119.01 111.05 115.91 114.41 113.45 118.25 C 108.47 121.93 104.98 127.10 101.22 131.92 C 111.26 140.78 117.74 152.88 127.46 161.99 C 130.29 158.54 132.85 154.88 135.92 151.63 C 128.41 141.57 120.55 131.50 115.58 119.90 C 119.31 120.18 122.05 122.94 124.37 125.60 C 130.01 132.28 134.99 139.49 139.66 146.87 C 142.53 144.78 144.72 141.93 147.34 139.56 C 141.19 129.47 135.34 119.21 128.98 109.25 C 128.19 109.28 126.63 109.34 125.85 109.37 C 124.68 108.87 123.50 108.39 122.32 107.91 M 93.01 117.25 C 92.40 122.03 96.29 125.75 98.44 129.64 C 101.29 125.85 104.38 122.26 107.35 118.56 C 105.69 117.17 104.37 114.88 101.98 114.77 C 98.83 114.43 94.67 113.78 93.01 117.25 M 402.35 122.93 C 405.97 126.51 408.24 131.53 411.95 134.81 C 415.46 132.29 419.02 128.88 418.23 124.11 C 415.08 122.75 412.61 119.43 408.95 119.65 C 406.24 119.28 404.46 121.70 402.35 122.93 M 397.48 122.33 C 388.91 135.72 374.11 142.75 361.02 150.83 C 363.53 153.80 366.01 156.80 368.27 159.98 C 377.39 156.11 386.72 152.51 395.10 147.13 C 399.89 144.16 404.18 140.47 408.85 137.32 C 405.23 132.20 401.46 127.18 397.48 122.33 M 79.08 134.88 C 79.92 139.98 83.53 143.83 86.26 148.00 C 88.19 144.69 90.22 141.44 92.21 138.18 C 90.53 136.73 89.04 134.91 86.90 134.13 C 84.30 133.34 81.58 134.05 79.08 134.88 M 98.22 139.43 C 97.11 139.78 96.02 140.16 94.92 140.53 C 92.53 145.51 87.36 149.80 88.44 155.80 C 98.39 163.79 107.04 173.21 115.70 182.53 C 117.64 178.02 120.30 173.87 122.55 169.52 C 113.34 160.38 105.59 149.73 99.98 138.02 C 99.54 138.37 98.66 139.08 98.22 139.43 M 416.88 142.92 C 420.01 147.36 421.62 153.05 425.82 156.60 C 430.12 154.53 432.00 149.64 431.12 145.09 C 427.56 140.78 421.62 143.00 416.88 142.92 M 373.36 167.69 C 375.58 170.98 377.57 174.41 379.26 178.01 C 387.06 174.61 394.66 170.62 402.91 168.33 C 408.67 166.50 414.74 165.88 420.41 163.76 C 418.96 161.66 419.62 159.32 420.88 157.31 C 418.62 152.71 416.10 148.22 413.13 144.04 C 402.34 155.48 387.57 161.68 373.36 167.69 M 63.45 157.70 C 66.12 163.36 69.85 168.44 74.00 173.10 C 75.93 167.96 78.48 163.09 80.73 158.09 C 78.35 156.24 76.33 153.21 73.05 153.09 C 69.55 153.89 66.47 155.84 63.45 157.70 M 76.65 175.90 C 78.37 179.71 82.56 180.96 85.84 183.03 C 93.60 187.71 101.54 192.16 109.96 195.56 C 111.26 192.01 112.76 188.54 114.35 185.11 C 103.71 177.34 95.76 166.61 85.70 158.18 C 81.18 163.12 79.47 169.94 76.65 175.90 M 403.85 176.01 C 396.91 178.98 390.04 182.13 382.99 184.85 C 385.03 189.53 387.10 194.21 388.84 199.02 C 397.72 196.98 406.56 194.64 415.04 191.26 C 420.90 189.24 426.98 185.58 433.34 187.94 C 431.31 180.24 428.45 172.82 425.17 165.57 C 424.11 165.50 423.05 165.43 422.00 165.37 C 416.17 169.26 410.33 173.24 403.85 176.01 M 428.73 164.77 C 430.97 169.96 433.09 175.20 434.97 180.53 C 437.37 179.27 440.39 178.05 441.09 175.11 C 441.37 173.19 441.94 171.07 441.19 169.20 C 437.84 166.02 433.38 164.18 428.73 164.77 M 59.06 183.31 C 58.61 186.31 58.66 189.83 60.76 192.24 C 62.38 194.00 64.33 195.40 66.13 196.96 C 67.25 191.90 69.07 187.02 70.18 181.96 C 66.60 181.95 61.72 180.26 59.06 183.31 M 73.89 183.30 C 73.65 183.93 73.17 185.18 72.93 185.81 C 71.72 189.78 70.59 193.77 69.54 197.78 C 74.56 199.35 79.16 201.98 84.13 203.69 C 91.05 206.13 98.15 208.01 105.20 210.03 C 105.88 207.49 106.62 204.98 107.46 202.49 C 97.91 198.75 88.69 193.89 80.96 187.08 C 78.87 185.32 76.98 182.63 73.89 183.30 M 437.53 188.42 C 441.53 200.52 444.28 213.04 445.09 225.78 C 447.55 225.39 450.16 225.32 452.47 224.35 C 454.31 222.70 456.75 220.82 456.58 218.08 C 456.35 215.55 457.46 211.71 454.21 210.77 C 451.17 210.31 448.07 210.70 445.01 210.41 C 444.57 209.84 443.70 208.71 443.26 208.14 C 443.33 207.25 443.46 205.48 443.52 204.59 C 447.05 202.98 451.33 203.22 454.17 200.22 C 454.26 197.15 454.54 194.10 454.63 191.03 C 450.86 189.39 447.35 186.32 442.99 186.78 C 441.04 186.79 439.29 187.73 437.53 188.42 M 390.46 204.09 C 391.66 208.64 392.87 213.19 393.80 217.81 C 398.67 215.21 403.50 212.33 408.92 211.01 C 416.18 209.16 423.80 209.29 431.02 207.17 C 433.50 206.42 436.08 206.15 438.67 206.05 C 437.38 200.02 435.53 194.15 433.97 188.20 C 421.58 198.06 405.52 200.81 390.46 204.09 M 66.78 210.18 C 65.89 214.95 65.22 219.76 64.44 224.55 C 72.01 225.33 79.46 226.99 87.04 227.67 C 91.87 228.34 96.77 228.39 101.58 229.27 C 102.31 225.00 102.91 220.72 103.77 216.48 C 93.00 215.43 82.65 212.02 72.92 207.40 C 71.13 208.86 69.15 210.01 66.78 210.18 M 53.01 207.87 C 52.37 209.19 51.21 210.42 51.37 211.99 C 50.98 217.74 57.31 220.06 61.21 222.81 C 61.75 218.03 62.59 213.29 63.52 208.58 C 60.15 207.26 56.52 207.47 53.01 207.87 M 394.23 219.80 C 394.77 223.36 395.47 226.90 395.83 230.49 C 406.06 230.24 416.30 230.00 426.46 228.73 C 431.59 228.25 436.98 227.50 441.93 229.42 C 441.61 226.26 441.41 223.09 441.13 219.93 C 440.49 216.98 440.24 213.97 439.64 211.02 C 425.40 217.49 409.45 217.55 394.23 219.80 M 431.50 236.33 C 420.13 239.20 408.31 238.96 396.68 239.24 C 396.81 243.35 396.82 247.46 396.75 251.57 C 407.83 251.99 418.90 253.14 430.00 253.10 C 434.22 253.10 438.47 252.88 442.65 253.62 C 442.66 246.22 442.59 238.81 442.28 231.41 C 438.95 233.57 435.38 235.41 431.50 236.33 M 63.69 232.50 C 63.99 238.30 62.22 244.53 64.76 249.99 C 76.56 248.54 88.70 247.98 100.37 250.68 C 100.37 246.04 100.52 241.40 100.80 236.77 C 88.27 237.09 75.99 234.42 63.69 232.50 M 48.11 234.65 C 46.36 234.90 45.37 236.52 44.72 238.00 C 47.91 243.34 53.93 245.78 59.73 247.09 C 59.71 242.24 60.31 237.42 60.29 232.57 C 56.14 232.63 52.13 233.77 48.11 234.65 M 445.65 234.31 C 446.65 241.36 446.38 248.52 446.16 255.62 C 449.08 252.71 452.93 250.67 455.06 247.02 C 456.85 244.39 456.24 241.02 456.23 238.03 C 456.40 235.98 454.18 235.20 452.96 234.03 C 450.54 234.49 448.09 234.55 445.65 234.31 M 64.51 253.31 C 62.93 257.46 64.48 261.81 64.57 266.07 C 64.60 268.11 64.93 271.42 67.82 270.85 C 79.21 270.17 90.28 267.08 101.56 265.53 C 101.23 261.23 100.53 256.96 100.40 252.64 C 88.68 255.46 76.36 255.15 64.51 253.31 M 49.44 262.92 C 49.55 265.13 49.37 268.14 51.81 269.18 C 54.92 270.24 58.28 269.49 61.48 269.35 C 60.82 265.08 60.41 260.77 60.29 256.45 C 56.38 257.94 51.97 259.33 49.44 262.92 M 396.40 260.37 C 396.04 262.64 395.71 264.91 395.45 267.20 C 410.73 268.04 425.13 273.88 440.28 275.54 C 441.14 270.83 441.47 266.05 442.35 261.36 C 427.05 262.66 411.69 261.31 396.40 260.37 M 445.62 262.12 C 445.17 267.37 444.38 272.59 443.51 277.78 C 448.22 273.04 456.54 275.62 460.56 269.95 C 458.69 268.26 456.81 266.53 454.58 265.33 C 451.58 264.31 448.21 264.17 445.62 262.12 M 66.42 279.91 C 67.65 285.90 69.11 291.83 70.78 297.71 C 81.84 292.34 92.73 286.10 104.86 283.51 C 104.21 280.49 103.50 277.49 103.07 274.43 C 90.84 276.13 78.84 279.83 66.42 279.91 M 393.06 281.84 C 399.06 285.13 405.18 288.23 411.58 290.70 C 419.30 293.80 427.39 295.82 435.16 298.78 C 436.17 294.88 437.10 290.96 438.16 287.07 C 438.27 286.30 438.48 284.75 438.58 283.98 C 431.50 283.81 424.68 281.76 417.82 280.21 C 410.02 278.22 402.10 276.75 394.15 275.48 C 393.72 277.59 393.40 279.71 393.06 281.84 M 58.64 280.57 C 55.67 283.58 51.94 286.03 49.90 289.82 C 47.97 293.43 51.19 296.97 53.53 299.45 C 57.29 303.27 63.16 301.82 67.84 301.06 C 66.25 293.97 64.02 287.02 62.89 279.82 C 61.99 277.68 59.76 279.65 58.64 280.57 M 440.51 292.12 C 439.80 295.12 438.78 298.08 438.57 301.18 C 439.89 299.77 440.71 297.43 442.90 297.17 C 446.48 296.10 450.96 298.01 453.84 294.90 C 456.19 293.59 457.49 289.62 454.72 288.11 C 451.41 285.11 446.45 285.33 443.37 282.07 C 441.74 285.20 441.41 288.75 440.51 292.12 M 78.19 304.18 C 76.99 305.80 75.68 307.33 74.30 308.79 C 76.38 314.26 78.46 319.74 80.87 325.07 C 91.56 319.11 101.89 312.28 113.53 308.27 C 110.78 302.43 108.27 296.42 106.83 290.11 C 97.46 295.16 87.62 299.27 78.19 304.18 M 388.55 296.37 C 401.25 301.64 412.14 310.48 425.24 314.84 C 419.39 313.97 413.77 311.99 407.91 311.10 C 400.18 309.79 392.78 307.06 385.77 303.58 C 385.14 305.24 384.38 306.87 384.12 308.65 C 390.77 312.04 397.46 315.35 403.99 318.97 C 410.33 322.68 416.04 327.35 422.05 331.55 C 426.15 323.16 430.03 314.64 432.97 305.77 C 418.06 303.56 403.83 297.93 390.69 290.67 C 390.00 292.58 389.30 294.48 388.55 296.37 M 434.20 312.72 C 439.87 312.34 445.89 313.97 451.32 311.92 C 447.50 308.10 442.53 305.18 436.93 305.85 C 435.79 308.05 435.10 310.43 434.20 312.72 M 378.10 319.93 C 384.82 323.18 390.52 328.10 396.46 332.56 C 402.02 337.02 407.94 341.00 413.33 345.68 C 416.51 342.76 418.03 338.64 420.26 335.06 C 420.34 334.77 420.49 334.19 420.56 333.90 C 411.37 329.30 402.20 324.66 393.16 319.78 C 389.13 317.64 385.68 314.64 382.44 311.47 C 380.84 314.21 379.54 317.11 378.10 319.93 M 64.75 321.03 C 64.33 323.59 65.77 325.96 67.82 327.38 C 71.06 328.16 74.57 327.82 77.56 326.32 C 75.26 321.35 73.36 316.21 71.32 311.13 C 68.18 313.57 64.57 316.65 64.75 321.03 M 95.28 327.25 C 91.84 329.28 88.14 330.99 85.23 333.78 C 88.48 339.99 92.20 345.93 96.09 351.76 C 98.88 350.11 101.27 347.90 103.78 345.88 C 110.65 340.12 117.86 334.78 125.28 329.76 C 122.19 324.88 119.19 319.94 116.71 314.72 C 109.70 319.12 102.45 323.13 95.28 327.25 M 431.10 320.24 C 430.03 323.06 428.77 325.81 427.33 328.47 C 431.23 328.50 435.10 329.06 439.01 329.10 C 441.65 329.53 442.24 326.31 443.63 324.76 C 439.62 322.75 434.91 322.72 431.10 320.24 M 370.89 331.90 C 382.37 339.39 393.71 347.23 403.76 356.59 C 404.61 356.47 406.31 356.22 407.15 356.10 C 408.01 354.92 408.86 353.74 409.69 352.54 C 409.95 352.37 410.47 352.03 410.73 351.86 C 406.84 350.03 403.01 348.05 399.56 345.47 C 390.94 339.18 382.64 332.41 375.11 324.84 C 373.74 327.22 372.29 329.55 370.89 331.90 M 102.76 354.41 C 102.47 356.13 102.12 357.83 101.70 359.52 C 105.08 364.46 109.02 368.98 112.98 373.46 C 120.79 364.29 129.99 356.37 139.78 349.38 C 139.80 349.11 139.84 348.55 139.86 348.28 C 135.81 343.70 131.71 339.14 128.19 334.12 C 119.87 341.08 111.25 347.67 102.76 354.41 M 80.26 343.82 C 80.75 348.31 85.36 350.08 88.36 352.71 C 89.64 354.03 91.42 354.02 93.13 353.96 C 89.60 348.21 85.84 342.60 82.72 336.61 C 81.32 338.73 79.14 341.06 80.26 343.82 M 358.27 347.14 C 365.13 353.92 372.87 359.70 380.47 365.62 C 383.65 367.93 385.61 371.37 387.56 374.69 C 389.03 374.84 390.50 374.71 391.97 374.69 C 395.18 370.76 398.72 367.12 401.80 363.08 C 401.68 361.89 401.57 360.71 401.47 359.53 C 395.47 357.25 389.81 354.21 384.59 350.49 C 378.55 346.20 372.39 342.03 366.83 337.13 C 364.17 340.63 361.31 343.96 358.27 347.14 M 418.90 344.78 C 422.93 345.38 427.08 345.98 431.12 345.31 C 431.50 344.76 432.26 343.64 432.63 343.09 C 429.61 340.77 426.39 338.71 423.69 336.01 C 422.10 338.93 420.49 341.85 418.90 344.78 M 135.49 363.46 C 130.76 368.10 125.61 372.32 121.21 377.29 C 120.25 378.20 120.29 379.58 120.00 380.78 C 126.04 385.95 131.65 391.63 138.18 396.19 C 143.97 385.26 151.72 375.41 160.77 366.99 C 155.10 362.80 149.79 358.12 144.81 353.13 C 141.67 356.54 138.81 360.21 135.49 363.46 M 347.04 358.33 C 354.99 366.23 363.70 373.54 370.04 382.88 C 372.09 385.48 373.80 389.52 377.84 388.61 C 380.44 386.08 383.13 383.65 385.73 381.11 C 385.70 380.30 385.64 378.66 385.61 377.84 C 385.95 377.57 386.62 377.02 386.96 376.75 C 382.34 375.60 377.71 374.18 373.81 371.37 C 366.17 366.12 358.70 360.39 352.64 353.32 C 350.81 355.03 348.95 356.71 347.04 358.33 M 413.44 353.24 C 412.51 354.69 411.59 356.15 410.68 357.62 C 414.06 358.23 417.46 359.11 420.92 358.87 C 422.71 359.10 422.75 356.00 421.26 355.72 C 418.89 354.26 416.13 353.74 413.44 353.24 M 99.17 362.49 C 98.42 367.87 98.84 373.62 102.00 378.22 C 105.07 378.00 108.16 377.61 111.07 376.55 C 106.83 372.10 103.07 367.24 99.17 362.49 M 334.30 368.75 C 340.33 375.71 346.52 382.53 352.42 389.61 C 355.41 393.08 357.32 397.26 359.09 401.45 C 357.83 401.36 356.58 401.30 355.33 401.26 C 351.74 399.12 348.30 396.67 345.58 393.46 C 339.78 386.68 333.33 380.30 328.96 372.44 C 328.71 372.51 328.22 372.65 327.97 372.72 C 325.72 374.19 323.40 375.54 321.06 376.87 C 328.56 388.58 334.49 401.33 338.90 414.51 C 339.33 414.37 339.77 414.23 340.21 414.10 C 344.61 411.53 349.10 409.10 353.39 406.32 C 353.50 405.20 353.61 404.08 353.74 402.97 C 354.30 402.64 355.41 401.99 355.97 401.67 C 357.66 401.58 359.61 402.34 361.12 401.25 C 364.10 399.27 366.97 397.13 369.83 394.97 C 371.87 393.54 372.27 390.87 373.59 388.90 C 370.09 386.81 366.41 385.07 362.91 383.00 C 354.83 377.88 348.21 370.81 342.28 363.38 C 339.29 364.02 337.01 367.16 334.30 368.75 M 394.81 376.72 C 398.98 379.24 404.38 380.82 409.07 379.05 C 411.36 373.83 407.76 369.06 404.96 364.95 C 401.64 368.93 398.28 372.87 394.81 376.72 M 144.62 399.09 C 144.64 399.55 144.69 400.49 144.71 400.96 C 150.87 405.97 158.12 409.44 164.95 413.45 C 166.31 412.72 167.68 412.01 169.05 411.31 C 171.82 400.25 176.26 389.68 180.44 379.09 C 174.84 376.24 169.43 373.03 164.20 369.57 C 158.95 380.20 151.19 389.29 144.62 399.09 M 307.07 383.86 C 312.36 396.10 314.45 409.33 316.75 422.38 C 318.50 422.28 320.27 422.23 322.03 422.19 C 326.96 420.12 331.94 418.16 336.71 415.73 C 327.35 405.21 322.51 391.79 316.31 379.37 C 313.28 380.96 310.19 382.44 307.07 383.86 M 176.77 407.90 C 175.67 411.20 173.84 414.38 174.13 417.98 C 177.10 419.15 180.00 420.47 182.94 421.71 C 184.67 419.68 186.81 418.09 189.60 418.11 C 191.59 407.53 194.04 396.99 197.50 386.78 C 194.17 385.42 190.83 384.07 187.59 382.50 C 183.58 390.79 179.78 399.19 176.77 407.90 M 117.45 384.22 C 112.11 389.87 118.06 397.80 123.87 400.10 C 127.70 400.09 131.55 399.72 135.31 398.98 C 131.01 394.78 126.00 391.38 121.82 387.04 C 120.45 386.00 119.39 384.02 117.45 384.22 M 388.35 383.49 C 385.85 385.96 383.26 388.34 380.63 390.68 C 384.23 392.43 388.22 393.06 392.20 392.93 C 393.12 391.53 394.72 390.15 393.99 388.30 C 392.53 386.26 390.42 384.84 388.35 383.49 M 295.47 388.24 C 296.72 394.51 298.11 400.76 298.94 407.11 C 300.21 414.36 299.58 421.75 300.31 429.06 C 305.24 427.53 310.74 426.85 315.12 424.13 C 311.19 411.21 308.31 398.00 304.17 385.14 C 301.30 386.25 298.42 387.34 295.47 388.24 M 203.42 388.91 C 203.15 398.44 200.75 407.71 198.33 416.87 C 197.47 420.11 196.11 423.20 194.33 426.05 C 200.19 427.50 205.96 429.28 211.86 430.56 C 210.21 425.51 209.89 420.15 210.49 414.89 C 211.40 407.11 212.34 399.33 212.82 391.51 C 209.68 390.66 206.53 389.83 203.42 388.91 M 274.00 393.63 C 275.87 403.67 276.80 413.85 277.44 424.03 C 277.53 427.25 277.06 430.45 276.63 433.64 C 281.95 433.06 287.21 432.08 292.48 431.17 C 294.22 429.45 296.20 427.90 298.83 428.21 C 293.60 416.10 293.44 402.67 290.19 390.02 C 284.82 391.33 279.43 392.59 274.00 393.63 M 221.66 393.32 C 220.75 404.90 219.39 416.45 218.05 427.98 C 219.41 429.35 220.65 430.83 221.77 432.40 C 224.97 433.08 228.22 433.54 231.48 433.77 C 232.31 420.81 232.72 407.83 232.54 394.84 C 228.88 394.53 225.28 393.87 221.66 393.32 M 235.71 395.29 C 235.71 404.19 235.71 413.09 235.40 421.98 C 235.30 426.10 234.48 430.21 235.02 434.33 C 240.25 434.58 245.47 435.49 250.72 435.13 C 249.38 430.86 248.29 426.48 248.30 421.98 C 248.18 413.24 248.02 404.47 248.93 395.77 C 244.52 395.76 240.11 395.62 235.71 395.29 M 255.28 395.72 C 255.71 400.14 255.90 404.58 255.84 409.02 C 255.72 417.63 256.10 426.46 253.24 434.72 C 258.12 435.77 263.06 434.50 267.98 434.46 C 269.71 434.60 271.09 433.50 272.39 432.52 C 273.56 432.51 274.74 432.52 275.92 432.56 C 272.81 429.44 270.62 425.47 269.82 421.13 C 268.09 412.35 268.04 403.37 267.64 394.47 C 266.71 394.61 264.84 394.88 263.91 395.01 C 261.05 395.44 258.16 395.57 255.28 395.72 M 362.69 404.47 C 366.62 406.61 371.25 407.27 375.64 406.55 C 378.35 405.35 378.63 401.74 377.97 399.20 C 376.72 398.08 375.24 397.26 373.85 396.33 C 370.21 399.15 366.49 401.88 362.69 404.47 M 140.83 416.21 C 143.79 420.62 149.31 421.81 154.06 423.28 C 158.56 424.49 161.49 419.78 162.96 416.26 C 156.05 412.74 149.42 408.70 142.97 404.42 C 139.53 407.34 139.55 412.24 140.83 416.21 M 341.05 417.52 C 344.79 423.06 351.54 425.69 358.07 425.44 C 360.55 423.78 364.16 421.40 363.11 417.92 C 361.32 414.44 358.79 411.21 355.38 409.20 C 350.79 412.27 345.97 415.00 341.05 417.52 M 171.23 428.86 C 174.91 429.54 178.79 429.41 182.41 428.43 C 182.37 427.60 182.30 425.94 182.27 425.11 C 178.75 423.88 175.38 422.27 171.92 420.88 C 169.97 423.19 170.19 426.18 171.23 428.86 M 323.36 425.31 C 323.82 427.72 324.62 430.73 327.34 431.48 C 329.81 432.14 333.59 433.93 335.33 431.10 C 335.90 427.55 336.61 423.88 335.58 420.34 C 331.52 422.03 327.52 423.87 323.36 425.31 M 302.05 432.22 C 302.61 434.91 303.37 437.69 305.24 439.80 C 307.98 440.79 311.04 440.14 313.91 440.26 C 314.86 438.72 315.84 437.21 316.73 435.65 C 316.65 433.15 315.91 430.72 315.41 428.29 C 310.99 429.71 306.59 431.23 302.05 432.22 M 192.15 429.16 C 191.67 431.59 191.99 434.44 194.08 436.07 C 197.11 437.59 200.70 437.75 204.00 437.23 C 205.81 436.36 207.16 434.78 208.72 433.54 C 203.17 432.17 197.72 430.43 192.15 429.16 M 277.21 437.27 C 278.20 439.80 279.14 442.79 281.67 444.21 C 283.98 445.22 286.58 445.28 289.05 445.04 C 292.53 442.84 293.32 438.37 292.97 434.53 C 287.79 435.85 282.45 436.33 277.21 437.27 M 222.65 436.31 C 222.94 439.93 222.75 443.62 223.67 447.18 C 225.77 443.97 227.85 440.68 228.75 436.90 C 226.71 436.74 224.68 436.54 222.65 436.31 M 236.63 438.21 C 236.97 440.57 237.38 442.93 237.93 445.26 C 242.59 445.84 247.99 443.56 249.20 438.66 C 245.00 438.58 240.82 438.43 236.63 438.21 M 255.63 438.64 C 256.28 441.98 256.63 445.58 258.59 448.46 C 260.71 450.43 263.64 451.17 266.33 452.06 C 268.50 447.53 270.42 442.85 269.90 437.70 C 265.19 438.54 260.39 438.47 255.63 438.64 Z" />
</g>
</svg>
