<?xml version="1.0" encoding="UTF-8" ?>
<!DOCTYPE svg PUBLIC "-//W3C//DTD SVG 1.1//EN" "http://www.w3.org/Graphics/SVG/1.1/DTD/svg11.dtd">
<svg width="515pt" height="1023pt" viewBox="0 0 515 1023" version="1.1" xmlns="http://www.w3.org/2000/svg">
<g id="#e3ca87ff">
<path fill="#e3ca87" opacity="1.00" d=" M 223.96 16.62 C 241.09 12.44 258.85 10.69 276.46 11.88 C 284.58 12.46 292.36 15.03 300.00 17.70 C 308.60 20.40 317.19 23.15 325.88 25.60 C 338.24 29.38 350.97 32.14 362.90 37.22 C 374.99 42.77 386.19 50.10 398.45 55.30 C 406.12 58.88 414.18 61.88 421.01 67.00 C 427.18 71.43 431.96 77.40 437.06 82.95 C 446.28 93.13 456.68 102.35 464.33 113.85 C 476.44 132.35 487.73 152.14 491.56 174.20 C 492.74 182.04 494.98 189.66 496.34 197.46 C 497.89 206.22 498.52 215.14 498.34 224.03 C 498.18 232.01 498.82 240.05 497.55 247.97 C 496.56 253.66 495.95 259.43 494.14 264.94 C 492.96 268.00 493.95 271.24 494.77 274.25 C 497.82 284.76 500.70 295.34 504.50 305.61 C 507.60 312.83 506.97 321.06 505.31 328.55 C 504.00 334.20 497.99 336.87 496.09 342.16 C 495.14 347.32 499.72 351.16 500.54 356.02 C 501.52 361.81 505.27 366.92 504.76 373.00 C 505.40 381.65 501.03 390.06 494.70 395.73 C 488.49 400.89 481.26 405.52 473.06 406.36 C 468.69 405.35 463.81 405.37 460.08 408.15 C 458.98 409.32 457.35 407.87 456.17 408.61 C 452.54 411.20 447.97 412.47 445.04 416.00 C 445.54 421.39 447.01 426.64 447.31 432.06 C 447.56 440.85 451.49 449.14 450.86 458.01 C 452.43 470.27 453.01 482.64 453.01 495.00 C 453.82 504.32 453.44 513.68 453.48 523.03 C 453.48 541.02 453.48 559.01 453.49 577.01 C 453.47 582.65 453.26 588.30 452.41 593.89 C 452.10 595.74 452.19 597.63 452.61 599.47 C 453.42 603.07 452.55 606.82 453.43 610.41 C 454.41 613.90 453.08 617.44 452.87 620.94 C 451.16 631.90 452.07 643.02 451.34 654.05 C 451.68 667.53 448.51 680.72 446.80 694.02 C 446.45 697.78 444.43 701.28 444.63 705.09 C 446.32 711.98 441.53 718.03 439.21 724.18 C 434.97 733.20 430.93 743.78 421.47 748.52 C 416.01 750.76 410.27 752.40 405.03 755.16 C 399.07 759.04 393.09 762.99 386.49 765.71 C 379.82 769.92 372.68 773.66 364.76 774.77 C 360.75 776.47 356.49 777.41 352.39 778.83 C 353.02 780.79 353.47 782.86 354.49 784.68 C 357.82 786.73 362.15 787.03 364.95 790.02 C 368.93 794.10 369.01 800.35 368.07 805.63 C 365.69 815.93 354.31 822.04 344.23 820.83 C 344.39 825.84 346.16 830.73 349.44 834.54 C 357.47 834.34 366.63 834.22 372.79 840.25 C 376.36 844.15 378.51 849.09 381.28 853.55 C 384.66 859.34 384.21 867.50 379.09 872.15 C 372.57 878.81 362.38 879.99 353.70 877.74 C 354.03 880.82 354.15 883.94 354.69 887.00 C 356.56 889.10 359.48 889.67 362.08 890.37 C 368.95 892.07 376.33 892.68 382.44 896.57 C 387.62 899.85 392.46 904.78 393.20 911.14 C 393.81 916.31 393.33 922.57 388.75 925.90 C 382.13 930.58 374.39 934.34 366.13 934.48 C 367.36 937.73 367.93 941.26 369.68 944.28 C 372.80 946.93 376.95 948.10 379.93 950.95 C 381.82 952.74 383.40 955.08 386.10 955.71 C 390.39 956.88 394.59 960.25 394.78 964.99 C 396.18 973.43 389.47 981.08 382.13 984.15 C 375.11 985.68 367.87 984.25 360.76 984.44 C 361.26 993.63 358.15 1003.10 351.58 1009.66 C 348.00 1013.24 343.08 1015.64 337.95 1015.58 C 332.40 1015.82 326.23 1015.04 322.11 1010.93 C 318.93 1007.86 318.43 1003.29 316.78 999.42 C 314.71 996.73 312.21 994.39 309.74 992.10 C 306.29 991.05 302.56 992.60 299.00 992.45 C 291.16 992.44 282.84 993.92 275.50 990.36 C 269.65 988.01 264.37 982.72 264.23 976.10 C 264.08 969.50 264.01 962.29 267.68 956.52 C 270.62 951.83 276.67 949.82 281.95 951.09 C 286.50 951.85 290.21 955.05 294.81 955.65 C 297.17 949.25 297.25 942.28 299.58 935.89 C 300.00 935.55 300.86 934.88 301.29 934.54 C 291.54 934.63 281.50 934.18 272.37 930.40 C 266.63 927.92 261.61 922.61 261.58 916.05 C 261.41 909.74 261.32 902.03 266.94 897.86 C 272.77 893.40 280.52 896.02 287.23 894.91 C 287.14 889.63 286.01 884.44 286.08 879.16 C 280.43 879.65 274.52 880.09 269.20 877.71 C 263.62 875.25 256.45 873.46 253.99 867.19 C 251.20 857.84 255.42 846.63 264.21 842.08 C 268.01 840.13 272.38 840.67 276.49 840.60 C 276.64 837.57 276.63 834.54 276.67 831.52 C 271.86 831.46 267.21 830.17 262.56 829.12 C 256.26 827.79 251.32 822.74 248.63 817.08 C 248.05 810.68 247.44 803.23 252.15 798.12 C 256.58 793.56 263.22 792.56 269.07 790.94 C 271.42 788.34 272.18 784.56 273.75 781.45 C 263.27 779.25 252.77 777.08 242.25 775.09 C 234.19 772.80 225.66 772.98 217.75 770.07 C 209.35 768.32 201.18 765.65 193.52 761.75 C 181.82 757.09 170.63 750.04 163.38 739.52 C 160.21 734.74 155.12 731.86 151.25 727.75 C 142.86 719.53 132.65 712.67 127.02 702.07 C 124.28 696.96 121.76 691.68 120.20 686.09 C 119.18 682.53 119.04 678.78 117.83 675.28 C 115.63 669.08 117.38 662.46 117.68 656.12 C 117.89 651.54 120.18 647.25 119.57 642.62 C 118.89 633.25 121.02 623.47 117.34 614.52 C 116.44 610.85 115.26 607.26 113.92 603.74 C 112.91 599.58 112.77 595.28 112.42 591.04 C 112.36 589.91 111.28 589.23 110.73 588.35 C 106.67 583.40 105.42 576.91 103.66 570.92 C 98.55 557.75 96.48 543.66 92.68 530.10 C 90.82 520.02 88.11 510.11 86.51 499.98 C 85.87 494.64 86.79 489.22 85.78 483.92 C 84.63 477.70 83.65 471.44 83.15 465.13 C 82.16 457.14 81.28 449.03 82.20 440.99 C 80.99 441.18 79.80 441.44 78.63 441.78 C 73.53 438.97 68.81 435.29 65.67 430.31 C 64.08 427.52 61.36 425.75 58.59 424.30 C 54.19 421.78 51.29 417.01 46.20 415.71 C 43.99 415.79 41.49 416.10 39.99 414.10 C 32.45 406.46 24.46 398.83 19.59 389.12 C 18.30 386.59 17.69 383.75 17.71 380.92 C 17.62 372.93 17.75 364.93 17.65 356.94 C 17.65 350.50 12.45 345.43 12.46 339.00 C 12.15 331.47 13.38 323.96 15.94 316.89 C 17.75 310.71 20.13 304.72 22.96 298.95 C 22.44 292.55 19.75 286.50 19.42 280.05 C 18.42 266.38 19.09 252.66 18.91 238.96 C 19.59 224.60 20.66 210.24 22.38 195.96 C 23.20 183.91 28.36 172.81 32.51 161.64 C 36.79 150.59 45.28 141.97 50.62 131.51 C 53.43 126.18 56.99 121.31 60.62 116.52 C 64.50 111.38 68.06 105.99 72.12 100.97 C 80.81 91.04 89.89 81.22 100.97 73.90 C 115.59 63.07 131.18 53.66 147.18 45.01 C 150.80 43.15 153.98 40.55 157.57 38.64 C 179.16 29.79 201.50 22.89 223.96 16.62 M 206.04 42.25 C 192.99 46.30 179.84 50.31 167.50 56.28 C 155.06 63.15 142.54 69.90 130.53 77.52 C 121.86 82.62 114.00 88.91 106.00 94.96 C 100.26 99.52 95.34 104.98 90.42 110.39 C 84.00 117.11 79.51 125.35 73.69 132.55 C 69.97 137.13 67.53 142.52 64.42 147.49 C 60.58 153.85 55.74 159.57 52.30 166.18 C 49.97 170.23 48.92 174.82 47.17 179.12 C 44.62 184.60 42.57 190.42 42.26 196.51 C 39.77 216.89 37.64 237.43 38.33 258.00 C 39.53 266.96 39.05 276.03 39.14 285.05 C 39.07 290.34 39.44 295.69 38.49 300.93 C 37.53 305.98 34.33 310.20 32.83 315.07 C 30.40 322.63 26.88 330.25 27.86 338.41 C 29.67 343.85 32.48 349.10 32.81 354.94 C 33.10 362.33 32.73 369.74 32.97 377.14 C 33.07 378.93 34.90 379.93 36.24 380.83 C 41.20 383.62 46.17 386.43 51.42 388.64 C 57.52 399.65 66.41 409.39 77.67 415.26 C 82.74 417.49 86.90 421.53 92.36 422.87 C 97.10 423.92 101.47 426.09 106.07 427.56 C 113.43 428.86 121.06 429.03 128.13 431.68 C 135.25 431.69 142.34 433.19 149.47 432.67 C 154.12 431.79 158.17 428.69 163.00 428.55 C 167.36 428.38 171.53 432.61 170.23 437.07 C 168.66 442.45 162.64 443.93 158.10 445.89 C 152.11 448.63 145.33 448.03 138.95 447.58 C 134.10 446.69 129.11 447.53 124.29 446.41 C 133.19 454.63 140.76 464.15 148.83 473.16 C 150.78 474.94 153.63 475.78 154.64 478.47 C 158.56 485.97 164.03 492.52 168.05 499.96 C 171.05 505.48 170.84 511.94 171.90 517.98 C 172.37 519.86 171.89 521.74 171.55 523.60 C 177.78 519.04 185.10 515.21 193.00 515.25 C 198.45 515.07 204.08 513.98 209.43 515.42 C 213.24 517.14 216.92 519.14 220.84 520.62 C 224.69 517.25 229.45 515.28 233.99 513.05 C 239.88 510.08 246.68 510.51 253.05 509.57 C 260.08 508.62 267.41 511.93 271.12 518.00 C 273.79 515.67 276.43 513.08 279.89 511.99 C 287.05 509.72 294.67 509.84 302.10 510.04 C 308.48 510.38 313.01 515.51 317.89 519.00 C 323.54 513.01 331.54 509.96 339.38 508.08 C 346.10 506.81 354.57 506.46 359.03 512.68 C 363.89 508.91 370.02 507.96 375.99 507.92 C 379.54 508.23 383.12 508.43 386.60 509.28 C 388.56 496.64 392.81 484.53 395.18 471.99 C 399.18 460.66 404.85 450.00 410.22 439.28 C 412.46 434.64 415.71 430.62 419.05 426.73 C 413.95 429.44 408.72 432.18 402.92 432.94 C 392.66 434.36 382.20 434.19 371.95 432.80 C 368.23 432.43 363.80 433.14 360.99 430.07 C 357.60 426.46 359.37 420.05 364.01 418.46 C 370.24 416.60 376.70 418.85 383.03 418.82 C 388.84 418.73 394.69 419.18 400.46 418.31 C 406.06 417.49 410.68 413.98 415.76 411.77 C 424.42 408.29 431.77 402.39 439.44 397.20 C 443.81 394.34 449.08 393.56 454.13 392.68 C 457.78 392.10 461.37 390.63 465.14 391.26 C 470.31 391.97 475.79 391.03 480.07 387.90 C 485.03 384.96 489.96 380.17 489.78 373.97 C 490.12 370.37 487.55 367.48 486.90 364.08 C 486.02 357.36 480.83 352.05 480.80 345.11 C 479.64 337.00 484.95 330.06 490.30 324.65 C 492.10 320.37 491.76 315.13 490.12 310.82 C 486.99 303.03 485.07 294.83 482.39 286.88 C 480.79 280.99 478.36 275.21 478.25 269.02 C 478.16 263.96 477.96 258.85 478.79 253.83 C 479.16 251.87 478.26 250.00 478.22 248.06 C 478.25 244.25 479.86 240.70 480.30 236.94 C 480.74 222.00 480.67 206.84 476.91 192.26 C 474.65 183.37 473.79 174.14 470.76 165.45 C 467.64 155.84 463.15 146.71 457.99 138.03 C 451.87 127.20 444.67 116.91 435.81 108.14 C 428.78 101.16 422.25 93.71 415.51 86.47 C 409.39 79.96 400.93 76.68 392.92 73.21 C 383.47 69.24 374.43 64.42 365.50 59.42 C 354.66 53.25 342.51 50.01 330.58 46.64 C 315.78 43.11 301.33 38.29 286.86 33.63 C 277.55 30.56 267.67 31.36 258.05 31.35 C 240.17 31.65 223.08 37.47 206.04 42.25 M 429.04 437.99 C 429.21 440.40 430.53 442.55 431.19 444.85 C 432.48 447.66 430.99 450.61 430.62 453.44 C 430.17 455.14 429.83 456.87 429.33 458.56 C 428.66 462.17 428.06 465.80 427.56 469.44 C 425.49 479.02 424.57 488.81 423.68 498.55 C 421.36 514.23 422.58 530.21 422.29 546.04 C 421.52 557.04 420.45 568.05 420.91 579.11 C 420.98 582.52 423.17 585.49 423.01 588.92 C 422.92 594.29 423.18 599.68 422.87 605.05 C 421.81 610.33 419.43 615.40 419.38 620.87 C 420.19 627.73 420.64 634.63 421.30 641.52 C 421.88 648.94 421.07 656.36 421.26 663.79 C 421.80 662.00 422.45 660.27 423.17 658.55 C 426.89 659.43 429.45 662.47 431.58 665.44 C 433.22 667.49 433.16 670.28 434.54 672.48 C 434.58 673.66 434.63 674.86 434.70 676.06 C 435.37 671.61 433.37 667.45 433.66 663.05 C 433.69 649.02 434.49 635.01 434.62 620.98 C 435.71 607.99 437.34 595.05 438.30 582.06 C 438.39 555.69 438.43 529.32 438.26 502.95 C 436.87 489.31 438.04 475.48 435.75 461.95 C 435.46 458.38 435.91 454.75 435.10 451.23 C 433.36 445.07 433.99 438.62 433.30 432.32 C 431.91 434.24 430.30 435.99 429.04 437.99 M 97.40 445.40 C 97.49 457.86 99.00 470.29 101.24 482.54 C 102.23 487.95 101.32 493.49 102.03 498.93 C 103.54 507.97 105.98 516.82 107.41 525.88 C 109.08 531.05 109.84 536.44 111.29 541.65 C 114.57 547.38 118.18 552.93 121.47 558.65 C 124.50 564.32 126.63 570.43 129.59 576.14 C 133.13 582.95 136.37 590.19 136.71 597.99 C 136.89 605.33 136.91 612.69 136.16 620.01 C 135.34 627.64 136.23 635.34 135.48 642.99 C 135.13 647.04 134.16 651.00 133.70 655.04 C 135.34 661.25 136.50 667.62 136.39 674.07 C 136.33 681.04 139.49 687.44 142.71 693.44 C 145.76 699.41 151.39 703.33 155.99 708.00 C 161.22 712.04 165.57 717.06 170.80 721.09 C 176.42 725.55 179.33 732.50 185.12 736.77 C 189.51 740.33 194.63 742.79 199.80 745.00 C 204.77 747.09 209.50 749.89 214.84 750.96 C 221.94 752.41 228.76 755.31 236.09 755.53 C 249.39 758.43 262.73 761.11 276.08 763.79 C 281.31 764.96 286.70 764.42 292.00 764.93 C 302.94 766.03 314.02 764.81 324.94 766.14 C 329.01 766.30 333.09 766.21 337.18 766.25 C 346.20 762.25 355.51 758.93 365.11 756.58 C 370.92 755.21 375.45 751.11 380.88 748.86 C 386.89 746.16 392.26 742.27 397.86 738.82 C 400.82 737.21 404.17 736.52 407.20 735.04 C 410.22 733.54 414.19 733.34 416.17 730.27 C 418.67 726.55 421.38 722.53 421.46 717.89 C 421.05 713.91 425.75 712.42 426.58 708.91 C 428.84 701.50 431.97 694.22 432.60 686.43 C 431.40 690.57 431.51 695.17 428.99 698.85 C 425.44 703.86 422.05 709.29 416.82 712.75 C 414.06 714.77 410.85 716.08 408.07 718.04 C 401.75 724.74 394.50 730.56 386.65 735.36 C 378.55 738.26 370.16 734.55 362.19 732.94 C 359.44 735.26 356.80 737.74 353.86 739.82 C 349.45 742.68 343.95 741.61 339.00 741.79 C 332.72 742.02 327.01 739.13 320.94 738.09 C 317.39 737.52 314.05 736.17 310.99 734.33 C 304.64 738.16 297.63 741.61 290.02 741.32 C 282.01 741.05 273.23 740.02 266.88 734.66 C 259.13 739.42 249.78 739.28 241.05 738.48 C 236.83 737.70 233.43 734.79 230.58 731.75 C 223.12 736.99 213.69 736.36 205.04 736.01 C 197.05 735.66 189.73 731.37 184.45 725.54 C 180.74 722.16 177.81 717.94 176.51 713.05 C 170.99 712.64 166.35 709.45 161.27 707.63 C 157.68 706.09 153.71 704.89 151.01 701.91 C 149.10 699.74 148.85 696.72 148.82 693.97 C 148.87 687.75 144.69 682.21 145.68 675.89 C 146.43 671.26 146.27 666.56 146.69 661.93 C 149.64 655.66 147.81 648.59 148.73 641.95 C 148.90 638.89 149.97 635.95 150.12 632.89 C 148.62 622.95 149.59 612.85 149.04 602.85 C 147.32 597.80 145.74 592.64 142.67 588.21 C 139.07 580.60 133.73 573.87 131.13 565.79 C 127.47 552.39 122.64 539.33 119.12 525.88 C 117.58 518.84 117.00 511.63 116.22 504.48 C 114.81 494.06 115.56 483.52 115.37 473.04 C 115.49 468.68 114.65 463.92 117.20 460.05 C 114.62 457.55 112.04 455.05 109.43 452.59 C 105.99 449.34 101.52 447.58 97.40 445.40 M 251.74 521.02 C 247.30 521.88 242.50 521.31 238.38 523.47 C 234.29 525.51 229.69 527.11 226.92 530.98 C 225.04 533.80 220.93 534.65 218.05 532.90 C 216.09 531.79 215.71 529.36 214.97 527.44 C 211.79 526.09 209.40 523.46 206.38 521.91 C 202.61 521.54 198.82 521.95 195.05 522.06 C 186.15 521.80 177.94 526.59 171.53 532.35 C 170.49 535.82 171.75 539.51 172.75 542.87 C 173.47 549.05 172.05 555.20 169.49 560.81 C 171.11 561.42 172.71 562.13 174.27 562.90 C 174.58 563.62 174.89 564.34 175.21 565.07 C 175.23 557.30 177.97 549.66 182.25 543.25 C 186.95 536.01 197.24 534.66 204.72 537.98 C 210.65 540.77 215.51 545.61 219.07 551.05 C 226.25 542.83 238.36 538.82 248.94 541.64 C 257.42 544.23 263.19 552.08 266.34 560.02 C 267.79 557.04 269.02 553.85 271.38 551.44 C 277.53 544.16 287.87 541.02 297.10 543.01 C 304.08 544.63 308.12 551.10 312.75 555.97 C 318.32 549.07 326.62 542.75 336.00 543.99 C 343.45 544.64 349.02 550.41 353.22 556.10 C 358.07 550.99 362.63 545.38 368.79 541.75 C 373.75 538.61 380.06 537.83 385.66 539.59 C 385.84 534.41 385.87 529.22 385.75 524.05 C 380.88 523.01 375.87 522.35 370.91 523.10 C 367.03 524.07 365.09 527.95 362.02 530.15 C 359.16 532.35 354.78 532.32 351.98 530.04 C 349.40 528.04 348.84 524.62 347.07 522.05 C 341.85 521.97 336.85 523.96 332.28 526.32 C 328.40 528.38 326.64 532.64 323.55 535.55 C 320.73 538.16 315.99 538.52 312.96 536.07 C 309.97 533.61 309.08 529.44 305.99 527.05 C 303.94 525.39 301.92 522.88 298.99 523.23 C 294.05 523.32 288.98 523.32 284.20 524.73 C 279.55 527.24 277.68 533.29 272.09 534.37 C 269.80 533.72 267.20 533.36 265.59 531.43 C 263.13 529.01 261.94 525.72 260.21 522.82 C 258.33 519.97 254.60 520.71 251.74 521.02 M 193.75 559.89 C 193.25 565.00 191.25 569.88 191.55 575.06 C 191.79 584.35 190.89 593.73 192.39 602.94 C 192.90 605.52 191.63 609.06 194.46 610.60 C 199.42 614.09 205.71 614.72 211.56 615.61 C 211.89 603.37 212.14 591.13 212.11 578.89 C 210.28 577.69 208.49 576.44 206.75 575.14 C 205.07 571.61 205.28 567.70 205.01 563.92 C 204.79 559.62 201.05 556.69 197.86 554.34 C 195.05 553.79 194.67 557.99 193.75 559.89 M 368.06 566.03 C 364.65 569.19 364.54 574.64 360.41 577.15 C 361.34 587.79 359.32 598.83 363.00 609.11 C 363.24 610.15 363.89 610.78 364.95 610.98 C 367.91 611.96 371.10 611.92 374.18 611.70 C 376.73 610.99 379.03 609.60 381.43 608.51 C 382.52 607.82 384.24 607.44 384.37 605.91 C 385.82 599.04 385.27 591.95 385.43 584.98 C 385.24 580.94 386.07 576.71 384.47 572.87 C 382.48 567.40 383.24 560.67 379.09 556.14 C 374.64 558.44 371.48 562.48 368.06 566.03 M 232.62 563.40 C 231.51 566.16 229.20 568.81 229.98 571.97 C 231.04 580.08 228.44 588.81 232.28 596.42 C 234.05 600.36 234.52 604.67 235.47 608.84 C 237.09 611.25 238.79 613.99 241.34 615.47 C 246.21 616.44 251.23 616.52 255.89 618.43 C 257.77 614.61 259.73 610.41 258.64 606.05 C 257.26 600.13 257.70 594.08 257.51 588.07 C 255.59 586.49 253.60 584.80 252.73 582.41 C 250.50 576.09 252.07 568.67 248.13 562.91 C 246.72 561.19 245.55 558.50 242.94 558.63 C 239.11 558.36 234.31 559.57 232.62 563.40 M 286.00 561.91 C 282.59 564.30 282.47 568.92 280.04 572.05 C 278.84 574.05 276.91 575.69 276.32 578.00 C 277.24 587.41 276.49 596.88 276.89 606.31 C 277.63 609.49 279.89 612.00 281.68 614.64 C 288.07 614.18 294.46 614.73 300.86 614.79 C 300.79 610.12 301.23 605.35 299.86 600.82 C 297.66 593.41 297.58 585.59 297.85 577.93 C 297.93 575.14 299.14 572.58 301.04 570.57 C 298.87 566.38 295.59 562.84 292.03 559.79 C 289.99 560.37 287.71 560.52 286.00 561.91 M 325.72 567.68 C 322.87 570.58 321.87 574.53 320.38 578.18 C 316.61 583.02 317.96 589.39 317.81 595.05 C 317.65 598.65 319.00 602.04 320.62 605.18 C 321.45 606.59 321.85 608.81 323.89 608.83 C 329.45 609.84 335.16 610.00 340.61 611.63 C 341.54 608.52 342.45 605.36 342.62 602.10 C 342.84 598.69 341.40 595.50 340.92 592.18 C 340.04 586.50 340.23 580.72 340.30 575.00 C 340.20 572.75 342.12 570.38 340.52 568.37 C 338.77 565.80 336.78 563.24 334.16 561.54 C 330.50 561.82 328.08 565.21 325.72 567.68 M 148.60 567.11 C 147.89 568.37 148.77 570.25 150.11 570.69 C 151.31 570.23 150.77 568.34 150.34 567.48 C 149.91 567.39 149.04 567.21 148.60 567.11 M 394.33 620.44 C 392.45 621.35 394.22 623.76 395.74 622.47 C 397.64 621.59 395.82 619.11 394.33 620.44 M 180.49 621.96 C 180.08 623.35 180.58 623.88 181.97 623.52 C 182.36 622.12 181.87 621.60 180.49 621.96 M 401.54 633.62 C 399.71 634.39 397.46 634.65 396.28 636.42 C 394.52 638.41 394.07 641.10 393.22 643.53 C 393.07 647.88 392.30 652.17 391.52 656.45 C 390.26 662.80 389.64 669.22 390.06 675.71 C 393.43 675.64 396.78 675.23 400.14 674.94 C 402.59 671.31 404.51 667.34 406.08 663.26 C 407.03 653.84 406.94 644.37 406.05 634.95 C 405.58 634.64 404.63 634.03 404.16 633.72 C 403.28 633.68 402.40 633.64 401.54 633.62 M 362.71 644.59 C 361.26 651.09 360.68 657.88 358.17 664.09 C 356.40 667.18 357.93 670.77 358.22 674.05 C 359.13 679.21 358.73 685.29 362.79 689.24 C 364.56 691.19 367.06 692.97 369.80 692.87 C 372.26 690.99 374.72 689.12 377.13 687.18 C 380.64 684.09 380.98 679.21 382.28 675.02 C 382.51 672.45 383.47 669.55 381.68 667.30 C 380.09 665.11 380.18 662.35 380.32 659.78 C 378.39 656.50 375.62 653.60 374.58 649.88 C 373.68 645.73 376.73 641.85 380.59 640.69 C 379.33 639.20 377.86 637.89 376.46 636.53 C 375.03 636.63 373.60 636.72 372.18 636.82 C 369.14 639.55 365.98 642.14 362.71 644.59 M 167.42 638.32 C 164.83 639.66 162.58 641.69 161.44 644.42 C 161.21 645.43 161.00 646.45 160.79 647.49 C 160.47 648.09 159.81 649.31 159.49 649.91 C 159.91 658.07 164.74 664.84 168.13 671.98 C 169.68 674.95 172.86 676.51 175.03 678.97 C 177.81 682.12 182.20 682.32 186.09 682.45 C 186.09 677.32 186.11 672.18 186.11 667.05 C 186.12 662.31 184.32 657.74 184.68 652.98 C 185.15 649.75 182.88 647.08 182.86 643.92 C 182.63 641.35 180.36 639.81 178.75 638.08 C 175.01 636.73 171.22 638.15 167.42 638.32 M 292.14 645.95 C 288.86 647.55 284.82 645.97 281.68 647.56 C 280.81 652.30 279.35 657.04 279.62 661.91 C 279.81 668.95 279.57 676.00 279.76 683.05 C 281.69 688.12 281.81 693.82 284.32 698.64 C 291.38 699.02 299.47 696.01 302.48 689.12 C 307.25 680.52 305.45 670.42 305.32 661.05 C 305.45 653.75 303.84 646.35 300.09 640.04 C 296.94 641.34 295.48 644.98 292.14 645.95 M 322.72 651.02 C 322.88 651.74 323.19 653.18 323.35 653.90 C 327.10 663.92 324.25 674.72 323.39 684.99 C 322.74 690.04 325.87 694.26 328.23 698.40 C 332.99 686.19 331.22 672.80 331.63 660.00 C 331.63 657.93 332.42 655.99 332.96 654.03 C 334.70 652.05 336.42 649.73 339.17 649.21 C 341.35 648.43 342.33 646.32 341.14 644.20 C 335.70 643.82 330.70 641.64 325.48 640.32 C 324.01 643.71 323.53 647.43 322.72 651.02 M 190.86 650.82 C 190.39 659.66 190.90 668.50 191.80 677.29 C 192.69 678.77 193.54 680.28 194.39 681.80 C 194.42 682.43 194.49 683.69 194.53 684.32 C 196.71 687.54 200.32 688.96 203.83 690.24 C 207.16 691.22 210.49 692.27 213.92 692.87 C 217.16 686.82 216.21 679.64 216.45 673.03 C 216.77 666.97 215.12 660.63 217.42 654.81 C 216.93 651.34 215.49 648.12 214.04 644.97 C 209.94 643.28 205.55 641.57 201.02 642.31 C 196.67 643.61 192.28 646.24 190.86 650.82 M 255.54 648.60 C 250.78 651.64 244.77 651.79 239.40 650.61 C 238.14 652.55 236.79 654.51 236.17 656.77 C 235.83 659.56 236.26 662.35 236.66 665.12 C 237.56 671.47 234.84 677.62 235.14 683.98 C 234.91 687.36 237.55 690.09 239.89 692.19 C 242.07 694.31 245.32 693.69 248.07 693.65 C 249.90 693.74 251.31 692.41 251.99 690.82 C 254.46 685.63 258.26 680.96 259.00 675.07 C 261.90 665.93 259.82 656.31 260.31 646.92 C 258.66 647.28 256.98 647.67 255.54 648.60 M 411.49 684.53 C 406.64 690.42 398.28 689.80 391.41 690.45 C 392.04 692.02 392.70 693.58 393.48 695.10 C 390.43 700.55 384.63 703.22 380.26 707.39 C 377.51 709.95 373.80 711.49 370.02 711.30 C 360.83 710.50 352.41 705.37 346.96 698.00 C 345.97 702.88 343.84 707.69 340.06 711.05 C 335.30 715.55 328.13 715.89 321.97 715.15 C 317.06 714.41 314.10 710.10 312.11 705.98 C 303.92 714.27 291.58 717.17 280.27 716.39 C 272.62 715.54 268.30 708.20 266.30 701.50 C 264.17 705.87 259.87 708.62 255.47 710.33 C 250.53 712.06 245.19 711.44 240.06 711.36 C 234.94 711.19 230.76 707.98 227.11 704.71 C 223.85 708.39 219.42 711.51 214.27 711.16 C 207.31 710.40 200.68 707.98 194.13 705.66 C 189.79 704.14 185.92 701.44 182.89 697.99 C 175.25 697.46 167.41 694.72 162.38 688.69 C 155.98 684.78 153.01 677.63 150.45 670.93 C 151.22 674.29 151.36 677.86 152.98 680.98 C 154.61 684.11 156.16 687.30 157.45 690.60 C 158.07 691.89 158.44 693.64 160.10 693.97 C 164.82 695.64 169.49 697.41 174.06 699.44 C 178.00 701.11 183.11 699.23 186.31 702.69 C 189.51 705.63 187.15 710.70 190.21 713.69 C 194.35 718.28 199.34 723.34 206.00 723.30 C 211.83 723.06 218.09 724.35 223.48 721.47 C 226.87 720.20 230.25 717.80 234.04 718.69 C 238.36 719.76 239.51 725.29 243.88 726.24 C 249.47 726.46 255.75 726.98 260.49 723.42 C 262.42 721.02 264.34 717.60 267.99 718.11 C 272.54 717.70 273.65 722.90 276.45 725.28 C 280.42 726.84 284.80 726.85 289.01 727.09 C 295.73 727.32 301.54 723.40 306.66 719.52 C 307.87 718.46 309.51 718.14 311.08 718.20 C 315.39 718.00 317.92 722.30 321.85 723.28 C 330.13 724.78 338.11 728.44 346.72 727.06 C 350.94 724.13 353.23 717.94 358.97 717.75 C 366.20 718.16 373.00 721.07 380.16 721.91 C 385.56 718.91 390.31 714.82 394.81 710.61 C 396.57 708.25 397.63 704.78 400.94 704.19 C 409.55 702.24 416.24 694.41 417.94 685.94 C 418.70 682.94 420.19 680.10 420.27 676.97 C 420.34 673.93 420.17 670.88 420.30 667.85 C 417.72 673.57 415.42 679.56 411.49 684.53 M 290.66 782.70 C 288.54 788.44 286.19 794.12 283.28 799.50 C 281.54 802.80 278.53 805.44 274.88 806.39 C 271.38 807.18 267.84 807.84 264.44 809.02 C 264.68 810.35 264.02 812.68 265.89 813.10 C 270.16 814.24 274.75 816.09 279.14 814.44 C 284.58 812.92 290.85 810.88 296.12 813.99 C 300.12 816.23 301.40 820.87 302.98 824.85 C 304.89 830.07 310.98 831.98 316.06 832.11 C 318.59 832.36 320.11 829.88 321.02 827.90 C 322.85 823.09 320.70 818.18 319.78 813.44 C 318.83 808.69 322.25 803.85 326.88 802.73 C 332.20 801.93 337.64 802.53 342.75 804.14 C 346.24 805.29 350.29 804.82 352.78 801.90 C 349.37 800.18 345.52 799.01 342.89 796.09 C 339.49 792.81 338.25 788.10 337.03 783.71 C 321.57 783.73 306.12 783.13 290.66 782.70 M 292.84 839.03 C 292.06 844.19 292.42 850.47 288.18 854.26 C 283.42 858.26 276.81 856.12 271.19 856.95 C 270.38 857.89 269.72 858.95 269.21 860.13 C 272.61 861.64 276.09 863.64 279.95 863.32 C 286.29 863.01 293.20 861.75 298.97 865.18 C 304.33 868.21 310.23 871.60 312.69 877.58 C 314.03 880.45 313.65 883.89 315.33 886.61 C 318.07 888.36 321.77 888.97 324.84 887.78 C 328.01 886.60 328.41 882.88 328.95 880.01 C 329.74 874.82 327.91 868.86 331.36 864.36 C 335.92 858.03 345.02 857.77 351.80 860.13 C 356.62 862.00 361.97 863.64 367.06 861.66 C 365.71 858.55 363.95 855.65 362.13 852.81 C 361.51 851.72 360.35 850.99 359.12 850.90 C 354.31 850.34 349.41 851.21 344.64 850.23 C 339.19 848.70 335.81 843.79 333.07 839.19 C 330.18 843.71 325.56 847.55 320.01 847.85 C 310.22 849.21 299.90 846.00 292.84 839.03 M 340.54 895.46 C 335.65 901.41 327.93 905.47 320.08 904.52 C 314.08 903.88 307.48 902.26 303.43 897.45 C 303.05 900.99 301.87 904.75 298.69 906.77 C 292.65 911.30 284.86 911.63 277.61 911.34 C 277.93 912.85 277.19 915.21 279.22 915.71 C 286.18 918.24 293.78 918.69 301.11 918.05 C 305.30 917.37 310.11 916.42 313.73 919.28 C 318.79 923.17 319.59 929.99 321.20 935.74 C 322.13 938.87 324.00 943.10 328.00 942.48 C 331.46 942.78 333.08 939.15 334.30 936.55 C 336.38 932.38 334.40 927.38 336.66 923.27 C 337.37 921.77 338.63 920.66 339.78 919.53 C 341.96 918.74 344.22 918.23 346.54 918.10 C 347.58 914.09 350.20 909.05 355.07 909.51 C 359.64 909.78 361.65 914.53 362.68 918.35 C 368.09 918.90 373.19 916.88 377.66 914.01 C 376.08 911.65 373.83 909.67 371.04 908.95 C 363.55 906.73 355.44 906.32 348.50 902.46 C 345.33 900.80 342.74 898.25 340.54 895.46 M 350.69 938.89 C 347.92 947.22 342.43 955.87 333.45 958.24 C 326.16 959.37 317.43 958.59 312.47 952.43 C 310.76 959.52 308.28 967.97 300.92 971.07 C 294.01 973.19 286.73 970.88 280.60 967.57 C 280.54 970.51 278.81 975.35 283.06 975.98 C 292.65 977.66 302.43 975.21 312.08 975.67 C 319.10 976.42 322.90 982.95 327.67 987.29 C 331.13 990.46 332.56 995.05 333.86 999.41 C 336.43 999.39 339.70 999.84 341.19 997.18 C 345.33 992.35 344.49 985.78 344.67 979.91 C 344.87 974.27 349.72 969.88 355.04 968.85 C 361.95 967.58 368.99 968.93 375.96 968.73 C 373.16 967.40 371.15 965.04 368.98 962.92 C 365.38 960.22 360.86 958.75 357.81 955.31 C 353.70 950.76 352.62 944.51 350.69 938.89 Z" />
<path fill="#e3ca87" opacity="1.00" d=" M 193.93 81.56 C 197.94 81.23 201.97 81.27 206.00 81.34 C 249.16 81.71 292.33 80.75 335.49 81.54 C 335.51 81.77 335.55 82.23 335.57 82.46 C 336.89 82.48 338.21 82.50 339.53 82.52 L 339.37 81.48 C 341.82 81.35 344.39 81.00 346.70 82.10 C 348.87 84.47 350.76 87.10 352.02 90.07 C 356.72 95.12 359.81 101.26 363.22 107.17 C 364.10 109.08 364.93 111.02 365.92 112.87 C 366.76 114.50 367.50 116.18 368.27 117.84 C 370.90 122.55 373.18 127.47 376.37 131.85 C 377.33 133.87 378.37 135.87 379.38 137.88 C 380.79 142.26 383.67 145.91 385.77 149.96 C 386.68 151.71 387.64 153.45 388.81 155.06 C 391.64 159.06 394.46 163.09 396.58 167.53 C 399.92 174.27 404.28 180.43 407.86 187.03 C 409.27 189.72 410.70 192.41 412.28 195.01 C 412.42 195.43 412.72 196.27 412.87 196.69 C 414.12 198.68 415.05 200.86 415.78 203.09 C 416.27 203.99 416.77 204.89 417.27 205.80 C 417.68 207.34 418.16 208.87 418.60 210.42 L 419.16 210.53 C 419.94 212.56 420.84 214.55 421.63 216.59 L 422.13 216.51 C 422.83 218.61 423.73 220.64 424.65 222.66 C 426.26 224.76 427.76 226.94 429.44 228.99 C 429.71 231.87 429.59 234.77 429.42 237.66 L 428.56 237.34 C 428.17 238.63 427.77 239.92 427.42 241.22 C 425.83 244.04 424.00 246.73 422.21 249.43 C 416.96 257.13 411.75 264.90 407.21 273.06 C 405.81 275.39 404.36 277.69 402.92 280.01 C 402.27 281.01 401.63 282.02 400.98 283.03 C 398.17 287.26 395.30 291.44 392.65 295.78 C 392.21 296.73 391.78 297.68 391.36 298.64 L 390.85 298.64 C 390.06 300.21 389.21 301.74 388.33 303.27 C 383.85 310.42 379.60 317.70 375.50 325.08 C 375.48 325.31 375.44 325.77 375.42 326.00 C 372.97 329.98 370.66 334.05 368.08 337.94 C 367.08 339.99 366.04 342.02 364.98 344.04 C 364.41 345.34 363.84 346.64 363.27 347.93 C 361.63 350.50 360.64 353.42 359.01 355.98 C 357.99 357.78 357.08 359.64 356.31 361.56 L 355.74 361.49 C 354.31 366.25 351.80 371.00 347.12 373.24 C 345.26 374.79 343.48 376.49 341.20 377.41 C 327.80 377.14 314.40 377.45 300.99 377.40 C 297.33 377.46 293.59 377.19 290.02 378.13 C 267.69 378.35 245.33 379.28 223.01 378.36 C 219.08 377.42 215.04 377.43 211.05 376.89 C 209.68 376.70 208.31 376.53 206.94 376.36 C 206.09 375.71 205.14 375.34 204.11 375.26 C 197.88 374.98 191.59 374.32 185.40 375.46 L 185.50 376.54 C 183.50 376.58 181.50 376.58 179.50 376.54 L 179.40 375.89 C 178.03 375.09 176.92 373.98 176.09 372.64 L 175.77 372.51 C 174.92 371.28 174.05 370.06 173.19 368.85 C 168.66 363.45 165.28 357.22 161.83 351.12 C 157.59 342.98 151.52 335.94 147.34 327.77 C 146.70 326.12 145.85 324.58 144.87 323.12 C 144.10 320.88 143.18 318.69 141.78 316.77 C 141.18 315.52 140.59 314.29 140.00 313.05 C 137.23 308.74 134.81 304.22 132.34 299.74 C 131.35 298.19 130.46 296.58 129.52 295.00 C 129.48 294.75 129.41 294.26 129.38 294.01 C 128.50 292.73 127.74 291.38 127.15 289.95 C 126.37 288.62 125.59 287.28 124.79 285.97 C 123.91 284.27 122.91 282.63 121.79 281.08 C 121.00 279.60 120.18 278.14 119.31 276.71 C 118.60 275.39 117.95 274.05 117.31 272.70 C 116.34 270.91 115.55 269.03 114.81 267.14 C 113.19 264.79 111.47 262.51 109.71 260.27 C 108.88 259.05 108.07 257.82 107.29 256.57 C 105.35 253.53 103.38 250.51 101.65 247.34 C 101.07 245.91 100.43 244.51 99.59 243.22 C 98.76 241.35 98.06 239.43 97.36 237.51 L 96.84 237.41 C 96.38 236.26 95.89 235.13 95.40 234.01 C 93.86 232.62 92.89 230.80 91.86 229.05 C 91.28 226.76 91.27 224.38 91.91 222.10 C 93.51 218.69 95.17 215.30 97.20 212.12 C 98.04 210.43 98.89 208.75 99.71 207.06 C 101.44 204.33 103.24 201.65 105.15 199.05 C 105.78 198.00 106.43 196.97 107.09 195.94 C 107.94 194.54 108.80 193.13 109.72 191.77 C 111.55 189.61 113.29 187.36 114.75 184.92 C 115.43 183.58 116.07 182.22 116.72 180.86 C 117.69 179.12 118.67 177.39 119.65 175.66 C 121.14 172.64 122.96 169.80 124.91 167.05 C 128.51 161.90 131.64 156.44 134.78 151.00 C 135.46 149.97 136.10 148.91 136.74 147.86 C 139.70 142.76 143.24 138.03 146.06 132.85 C 146.20 132.35 146.49 131.35 146.63 130.86 C 148.14 128.28 149.67 125.71 151.04 123.06 C 153.04 119.64 155.21 116.32 156.95 112.76 C 157.52 111.59 158.11 110.42 158.70 109.25 C 159.55 107.90 160.33 106.50 161.11 105.10 C 163.16 100.98 165.71 97.15 168.28 93.35 C 167.90 90.13 168.50 87.00 170.99 84.77 C 178.21 81.49 186.69 85.04 193.93 81.56 M 194.06 96.10 C 191.52 96.57 188.94 96.58 186.37 96.59 C 186.59 98.45 187.03 100.31 188.32 101.73 C 189.39 103.50 190.22 105.41 190.78 107.41 L 191.39 107.45 C 191.60 108.04 192.02 109.23 192.22 109.82 C 193.17 112.05 194.27 114.20 195.64 116.20 C 196.50 117.70 197.38 119.20 198.28 120.68 C 203.66 129.37 209.48 137.83 213.67 147.19 C 216.02 150.55 218.52 153.79 220.76 157.22 C 223.67 162.79 227.66 167.68 230.92 173.04 C 233.58 177.95 236.78 182.53 239.58 187.36 C 243.88 195.42 247.29 203.99 252.35 211.63 C 252.47 212.47 252.73 214.15 252.86 214.99 C 254.96 212.97 256.44 210.47 257.83 207.93 C 260.18 204.21 262.53 200.48 264.72 196.66 C 267.74 191.70 271.03 186.92 274.05 181.97 C 277.75 175.56 282.36 169.75 286.74 163.81 C 290.79 158.57 294.92 153.37 299.24 148.34 C 305.63 138.97 310.95 128.89 317.59 119.67 C 321.75 113.87 324.73 107.37 328.01 101.06 C 328.95 98.95 330.20 96.99 330.93 94.79 C 326.97 94.61 323.01 94.36 319.05 94.40 C 285.02 94.57 250.99 94.59 216.96 94.72 C 215.29 94.68 213.65 94.93 212.02 95.27 C 207.35 94.50 202.60 94.56 197.89 94.76 C 196.62 95.22 195.33 95.64 194.06 96.10 M 341.98 101.69 C 341.57 102.76 341.16 103.84 340.75 104.91 C 339.80 106.61 338.92 108.35 338.02 110.09 C 337.42 111.34 336.81 112.59 336.21 113.84 C 331.46 123.53 324.59 131.93 319.15 141.22 C 315.05 147.69 311.54 154.63 306.22 160.24 C 301.33 166.39 296.45 172.54 291.78 178.86 C 287.65 184.49 284.22 190.59 280.30 196.37 C 279.09 198.16 277.97 200.01 276.72 201.77 C 273.75 207.13 270.49 212.32 267.02 217.37 L 269.21 218.31 C 268.31 218.49 266.52 218.86 265.63 219.05 C 273.80 219.44 282.03 218.66 290.16 219.84 C 294.77 220.66 299.47 219.88 304.09 220.55 C 310.77 222.35 317.78 221.15 324.61 221.65 L 324.40 222.39 C 334.93 221.99 345.44 222.98 355.96 222.81 C 368.96 222.65 382.02 223.24 394.96 221.70 C 400.02 221.54 405.08 221.75 410.13 221.55 C 409.57 220.26 408.97 218.98 408.37 217.71 C 407.80 216.58 407.26 215.45 406.70 214.32 C 404.27 207.67 401.14 201.32 397.75 195.11 C 394.56 189.36 391.16 183.74 387.71 178.14 C 386.13 175.08 384.64 171.96 382.78 169.06 C 381.12 166.57 379.55 164.01 377.69 161.66 C 377.10 160.74 376.52 159.83 375.93 158.92 C 375.02 157.26 374.14 155.58 373.31 153.88 C 369.99 149.44 368.20 144.14 365.72 139.24 C 364.84 137.84 363.97 136.45 363.11 135.05 C 361.95 133.43 360.97 131.70 360.11 129.92 C 357.56 125.25 354.86 120.59 353.23 115.50 L 352.72 115.63 C 351.44 112.58 349.52 109.88 348.14 106.89 C 346.87 104.70 345.38 102.66 343.99 100.54 C 343.32 100.93 342.65 101.31 341.98 101.69 M 168.77 119.30 C 167.33 122.32 165.73 125.26 163.80 127.99 C 163.60 128.44 163.21 129.33 163.01 129.77 C 162.30 130.81 161.62 131.87 160.97 132.95 C 159.68 135.66 158.24 138.29 156.70 140.88 C 156.56 141.37 156.28 142.37 156.14 142.87 C 151.22 150.03 146.64 157.43 142.26 164.94 C 140.57 167.98 138.77 170.95 136.88 173.87 C 136.21 174.91 135.51 175.94 134.79 176.95 C 133.80 178.63 132.77 180.29 131.70 181.93 C 131.07 183.22 130.44 184.53 129.81 185.82 C 126.71 192.50 122.10 198.19 117.93 204.20 C 117.75 204.62 117.41 205.46 117.23 205.88 C 115.23 208.41 113.48 211.13 111.63 213.77 C 110.68 215.77 109.61 217.71 108.79 219.77 C 114.23 219.66 119.67 219.69 125.10 219.29 C 133.40 217.85 141.88 219.26 150.21 218.10 C 154.43 217.42 158.72 217.62 162.97 217.59 C 175.82 217.63 188.66 217.43 201.50 217.67 L 201.51 218.31 C 207.89 218.34 214.25 218.83 220.63 218.63 L 220.33 219.39 C 227.38 219.45 234.43 219.66 241.48 219.50 C 240.43 216.43 238.34 213.89 237.00 210.96 C 236.71 210.52 236.13 209.65 235.83 209.21 C 235.03 207.41 234.19 205.62 233.32 203.86 C 232.88 202.94 232.45 202.02 232.02 201.11 C 230.61 198.43 229.30 195.70 227.90 193.01 C 227.21 192.00 226.54 190.99 225.89 189.96 C 222.41 184.77 219.57 179.17 215.87 174.12 C 215.17 173.14 214.44 172.17 213.75 171.18 C 212.76 169.55 211.83 167.89 210.79 166.29 C 209.28 163.76 207.54 161.39 205.76 159.06 C 203.26 155.55 200.70 151.95 199.30 147.83 C 197.54 144.92 195.83 141.97 193.92 139.15 C 193.08 137.71 192.19 136.30 191.28 134.91 C 188.56 130.58 185.86 126.24 183.19 121.89 C 182.50 120.58 181.83 119.27 181.17 117.96 C 180.38 116.35 179.59 114.75 178.85 113.13 C 177.82 111.09 176.88 109.01 176.00 106.91 C 172.76 110.51 171.31 115.25 168.77 119.30 M 144.48 231.66 L 144.53 232.34 C 136.84 232.40 129.13 232.08 121.46 232.75 C 117.76 233.44 113.98 233.33 110.23 233.40 C 112.96 241.15 117.32 248.25 122.30 254.75 C 124.08 257.07 125.74 259.49 127.28 261.98 C 127.86 263.62 128.49 265.25 129.17 266.86 C 130.22 268.60 131.19 270.40 131.82 272.35 L 132.37 272.36 C 133.15 273.98 133.97 275.58 134.79 277.19 C 136.07 278.98 137.26 280.83 138.40 282.72 C 138.85 283.84 139.31 284.96 139.77 286.08 C 140.58 287.38 141.35 288.70 142.14 290.02 C 143.27 292.45 144.53 294.81 145.96 297.08 C 147.10 299.50 148.37 301.85 149.78 304.13 C 151.18 306.41 152.50 308.74 153.71 311.13 C 154.14 312.04 154.57 312.95 155.01 313.86 C 155.76 314.87 156.41 315.94 156.74 317.17 C 157.51 318.92 158.34 320.65 159.26 322.34 C 160.38 324.62 161.62 326.87 163.13 328.93 C 166.44 333.92 169.78 338.91 172.76 344.12 C 173.70 345.96 174.66 347.79 175.63 349.62 L 176.11 349.68 C 176.87 351.37 177.76 353.00 178.72 354.59 C 179.30 355.58 179.78 356.62 180.28 357.67 C 180.75 357.68 181.68 357.70 182.15 357.71 C 182.44 357.09 183.01 355.84 183.30 355.22 C 184.32 353.22 185.35 351.23 186.32 349.20 C 187.56 346.15 189.55 343.49 190.73 340.41 C 191.57 338.99 192.34 337.52 193.11 336.06 C 193.44 334.54 193.97 333.09 194.97 331.88 C 195.47 330.99 195.92 330.09 196.32 329.16 C 197.00 326.99 197.89 324.90 198.92 322.88 C 199.53 321.29 200.12 319.70 200.80 318.14 C 202.85 315.75 203.09 312.37 205.07 309.92 C 205.47 308.97 205.86 308.03 206.25 307.08 C 206.83 305.71 207.49 304.36 208.31 303.12 C 212.37 293.31 218.22 284.41 222.87 274.89 C 223.87 273.25 224.93 271.64 225.97 270.03 C 226.97 268.33 228.01 266.65 229.03 264.96 C 229.71 263.71 230.36 262.45 231.04 261.20 C 232.95 257.91 234.17 254.28 235.74 250.83 C 236.19 249.92 236.65 249.02 237.10 248.12 C 239.32 242.60 242.81 237.51 243.95 231.61 C 229.12 231.79 214.27 231.80 199.45 231.32 L 199.54 230.65 C 185.04 230.41 170.52 230.34 156.02 230.78 C 152.27 231.82 148.33 231.54 144.48 231.66 M 267.02 231.60 C 271.57 238.98 277.32 245.54 281.72 253.03 C 282.59 254.31 283.43 255.61 284.31 256.89 C 285.14 258.42 285.96 259.95 286.73 261.52 L 287.22 261.49 C 288.01 263.05 288.83 264.60 289.68 266.14 C 293.26 271.28 296.90 276.42 299.82 281.98 C 300.48 283.11 301.11 284.27 301.70 285.45 C 304.17 289.33 306.97 292.98 309.25 296.98 C 311.44 301.00 313.57 305.06 316.11 308.88 C 317.78 311.86 319.47 314.83 321.22 317.77 C 323.57 321.95 325.67 326.26 327.75 330.58 L 328.03 330.58 C 328.76 332.50 329.76 334.30 330.76 336.10 C 331.19 337.00 331.60 337.91 332.01 338.83 C 332.69 339.85 333.36 340.89 334.02 341.94 C 334.33 342.87 334.63 343.81 334.94 344.74 C 336.09 346.42 337.12 348.17 338.06 349.98 C 338.94 352.09 340.09 354.07 341.53 355.85 C 341.58 356.48 341.66 357.72 341.70 358.34 C 342.09 358.38 342.88 358.47 343.28 358.51 C 344.09 356.96 344.91 355.41 345.74 353.88 C 346.94 352.01 347.95 350.04 348.88 348.03 C 350.12 345.83 351.24 343.57 352.29 341.28 C 353.59 338.93 354.64 336.46 355.78 334.04 C 357.43 331.28 359.10 328.55 360.79 325.82 C 362.54 322.78 364.22 319.69 365.70 316.51 L 366.31 316.50 C 366.71 315.26 367.16 314.04 367.60 312.82 C 368.83 311.23 369.87 309.52 370.73 307.72 C 371.53 306.45 372.36 305.20 373.21 303.97 C 374.02 302.47 374.87 300.99 375.74 299.52 C 376.42 298.36 377.07 297.18 377.71 296.00 C 380.59 291.75 383.04 287.23 385.87 282.95 C 386.52 281.94 387.15 280.91 387.80 279.89 C 389.03 278.36 390.10 276.71 391.04 274.99 C 392.80 272.41 394.36 269.70 395.94 266.99 C 396.92 265.33 397.92 263.66 398.98 262.04 C 401.14 258.31 403.54 254.72 405.92 251.14 C 408.85 245.22 413.92 240.56 416.20 234.35 C 407.46 234.77 398.70 234.38 389.97 234.80 C 384.01 235.68 377.99 235.41 371.99 235.48 C 358.66 235.46 345.31 235.86 332.00 235.00 C 329.33 234.61 326.64 234.91 323.99 235.24 C 318.76 233.85 313.18 235.31 308.03 233.67 C 301.72 233.14 295.39 233.44 289.08 233.11 C 288.06 232.79 287.03 232.50 286.00 232.20 C 279.82 230.83 273.33 231.88 267.02 231.60 M 254.73 239.39 C 254.56 240.03 254.23 241.32 254.07 241.96 C 251.82 247.37 249.01 252.52 246.67 257.88 C 245.09 262.06 243.28 266.19 240.82 269.93 C 240.28 270.99 239.76 272.06 239.24 273.13 C 236.28 277.65 233.41 282.23 231.01 287.07 C 229.97 289.06 228.91 291.05 227.69 292.94 C 225.40 297.31 223.12 301.70 220.88 306.09 C 219.78 308.31 218.94 310.65 217.67 312.78 C 217.01 314.13 216.41 315.51 215.82 316.89 C 215.01 318.66 214.08 320.38 213.14 322.08 C 212.55 323.60 211.99 325.14 211.43 326.67 L 210.69 326.58 C 210.03 329.10 209.23 331.58 208.33 334.02 C 207.25 335.29 206.67 336.84 206.32 338.45 C 206.14 338.48 205.79 338.53 205.61 338.56 C 205.49 339.11 205.24 340.23 205.12 340.79 C 203.43 343.41 202.52 346.46 200.67 348.99 C 200.10 350.30 199.56 351.63 199.02 352.97 C 198.38 354.00 197.67 354.99 197.00 356.00 C 196.87 356.49 196.63 357.46 196.50 357.95 C 195.61 359.02 195.25 360.37 194.82 361.68 C 197.87 361.76 200.98 361.39 203.98 362.18 C 205.13 362.38 206.28 362.56 207.44 362.73 L 207.53 363.41 C 208.88 363.46 210.24 363.50 211.60 363.54 L 211.53 364.39 C 216.39 364.59 221.24 364.93 226.06 365.67 C 242.03 366.12 258.02 365.84 274.00 365.42 C 279.33 365.18 284.71 365.78 290.00 364.91 C 304.02 364.47 318.05 364.81 332.07 364.56 C 331.77 364.17 331.17 363.40 330.87 363.01 C 328.85 359.70 326.94 356.33 325.09 352.93 C 324.10 350.92 323.08 348.92 321.98 346.97 C 321.02 344.92 320.00 342.88 318.77 340.98 C 318.12 339.69 317.51 338.39 316.90 337.09 C 313.59 330.74 310.46 324.29 306.79 318.14 C 304.32 314.44 302.13 310.57 299.91 306.73 C 299.76 306.34 299.47 305.56 299.32 305.17 C 295.07 298.49 290.56 291.97 286.75 285.01 C 284.79 281.30 282.38 277.85 279.80 274.54 C 277.99 271.30 275.98 268.17 274.12 264.96 C 273.42 263.94 272.77 262.90 272.14 261.85 C 270.44 259.37 268.80 256.85 267.24 254.28 C 264.72 250.89 262.39 247.36 259.73 244.08 C 258.76 242.52 257.78 240.96 257.07 239.28 C 256.28 239.31 255.50 239.35 254.73 239.39 Z" />
<path fill="#e3ca87" opacity="1.00" d=" M 51.68 269.99 C 51.33 265.80 53.92 261.87 57.87 260.48 C 61.42 260.38 64.84 262.40 66.24 265.70 C 70.58 275.58 75.35 285.49 77.13 296.22 C 78.23 302.57 74.34 310.74 67.02 310.34 C 66.08 307.21 64.91 303.85 61.99 302.03 C 58.89 300.52 59.03 296.78 58.04 293.95 C 55.52 286.09 52.26 278.30 51.68 269.99 Z" />
<path fill="#e3ca87" opacity="1.00" d=" M 424.64 277.38 C 425.40 274.14 427.91 271.91 430.75 270.43 C 433.30 270.28 435.82 270.57 438.17 271.63 C 440.85 274.37 442.48 278.05 441.63 281.93 C 439.94 290.07 437.85 298.30 433.68 305.57 C 431.51 309.29 427.52 312.44 422.98 311.89 C 420.73 311.96 419.57 309.61 418.79 307.87 C 417.81 304.70 418.25 301.33 418.75 298.11 C 420.88 291.25 422.72 284.30 424.64 277.38 Z" />
<path fill="#e3ca87" opacity="1.00" d=" M 123.79 353.92 C 124.37 350.63 127.56 347.71 131.02 348.30 C 133.69 348.40 135.82 350.43 137.25 352.51 C 140.45 358.28 141.36 365.15 145.25 370.56 C 147.76 374.05 151.82 375.71 155.46 377.70 C 162.43 381.74 170.15 384.51 177.96 386.29 C 182.93 385.89 187.41 388.03 191.72 390.21 C 194.57 386.60 199.45 384.90 203.92 386.09 C 208.24 387.13 213.10 386.48 216.92 389.09 C 219.30 387.14 221.54 384.83 224.52 383.80 C 228.57 382.43 232.87 382.01 237.12 381.80 C 248.41 381.37 259.74 381.02 271.02 381.94 C 273.46 382.02 275.68 383.11 278.01 383.73 C 285.67 380.86 293.99 381.22 302.03 381.29 C 310.66 381.56 318.94 384.83 325.79 390.01 C 327.14 388.79 328.34 387.27 330.08 386.60 C 333.89 384.83 338.08 386.47 342.07 386.26 C 346.46 386.52 349.99 383.59 353.72 381.76 C 357.05 379.98 360.86 379.17 363.99 377.00 C 374.74 368.92 387.02 363.04 397.40 354.42 C 400.11 352.24 403.26 349.84 406.98 350.34 C 411.05 350.48 413.38 355.29 412.05 358.87 C 410.73 363.46 406.55 366.14 402.99 368.90 C 396.28 374.05 388.72 377.96 381.90 382.94 C 377.24 387.61 372.59 392.48 366.77 395.74 C 359.07 399.86 350.74 402.72 342.22 404.62 C 344.25 410.07 347.90 414.71 349.94 420.16 C 351.68 424.53 353.99 428.63 356.27 432.74 C 360.86 440.98 369.38 445.77 375.36 452.84 C 378.67 456.71 376.50 464.07 371.10 464.50 C 367.36 465.27 364.33 462.62 361.91 460.18 C 357.65 455.76 352.52 452.24 348.62 447.46 C 344.10 442.21 341.09 435.93 337.90 429.84 C 336.09 425.59 334.46 421.20 331.71 417.45 C 330.27 415.56 327.89 414.47 326.99 412.19 C 325.98 409.93 326.35 407.36 326.15 404.96 C 321.88 404.05 318.01 402.00 314.56 399.39 C 307.09 394.19 297.53 395.55 288.97 395.70 C 284.24 395.41 281.81 401.10 276.99 400.68 C 272.59 401.03 270.28 396.02 265.89 396.24 C 269.00 399.22 272.23 402.47 273.35 406.76 C 273.88 409.13 273.84 411.58 274.09 414.00 C 273.85 419.21 273.14 424.50 270.64 429.16 C 265.53 439.30 263.62 451.20 255.90 459.90 C 252.67 463.61 249.30 467.57 244.57 469.35 C 239.57 471.00 234.22 470.14 229.06 470.34 C 222.65 470.64 215.95 468.09 212.16 462.76 C 209.14 458.85 209.33 453.63 209.57 448.96 C 209.81 444.00 212.44 439.26 216.48 436.37 C 219.58 434.22 222.25 431.50 225.44 429.48 C 228.28 427.83 229.29 424.54 231.07 421.98 C 235.29 415.44 237.42 407.55 242.97 401.90 C 245.66 399.50 249.09 398.18 252.15 396.34 C 245.15 396.47 238.05 396.01 231.12 397.23 C 227.13 398.47 223.12 399.75 219.25 401.35 C 218.01 404.25 216.26 406.98 215.70 410.13 C 214.26 416.81 211.13 422.96 207.91 428.93 C 205.32 433.84 201.21 437.71 198.46 442.52 C 195.41 447.58 192.30 453.01 186.95 455.97 C 183.31 458.57 177.18 458.62 174.82 454.29 C 172.48 450.69 174.51 446.08 177.87 443.98 C 182.32 441.20 184.35 436.24 187.15 432.06 C 189.66 427.99 193.35 424.75 195.45 420.41 C 197.91 415.40 200.76 410.42 201.76 404.87 C 197.12 404.96 192.43 405.50 187.82 404.71 C 184.05 404.10 181.00 401.05 177.01 401.46 C 172.80 401.60 169.07 399.51 165.10 398.47 C 156.10 395.80 147.96 391.10 139.87 386.44 C 137.06 384.57 134.82 382.00 132.68 379.44 C 128.93 374.82 127.43 368.95 125.37 363.49 C 124.24 360.45 123.04 357.20 123.79 353.92 Z" />
<path fill="#e3ca87" opacity="1.00" d=" M 287.45 400.42 C 291.15 396.25 297.92 395.57 302.53 398.64 C 307.40 401.90 310.19 407.33 312.14 412.69 C 312.97 414.74 313.52 417.11 315.43 418.47 C 321.24 423.10 327.60 426.99 333.45 431.56 C 338.32 435.42 340.50 441.44 343.24 446.81 C 346.13 453.12 346.47 461.96 340.59 466.71 C 336.63 470.32 330.75 469.32 326.51 472.31 C 320.70 475.59 312.84 473.23 309.08 467.88 C 305.56 462.46 300.07 458.78 296.38 453.50 C 292.55 448.12 290.07 441.95 286.82 436.22 C 284.51 431.98 281.94 427.84 280.63 423.14 C 280.47 419.76 282.34 416.90 283.50 413.89 C 283.67 409.24 283.95 403.93 287.45 400.42 Z" />
<path fill="#e3ca87" opacity="1.00" d=" M 105.18 456.22 C 105.86 456.82 105.86 456.82 105.18 456.22 Z" />
<path fill="#e3ca87" opacity="1.00" d=" M 104.39 458.05 C 105.95 458.19 105.26 461.77 103.68 460.99 C 103.26 459.86 103.50 458.88 104.39 458.05 Z" />
</g>
<g id="#91815644">
<path fill="#918156" opacity="0.27" d=" M 58.37 354.29 C 59.30 353.51 61.40 354.57 60.86 355.84 C 59.93 356.64 57.86 355.53 58.37 354.29 Z" />
<path fill="#918156" opacity="0.27" d=" M 180.49 621.96 C 181.87 621.60 182.36 622.12 181.97 623.52 C 180.58 623.88 180.08 623.35 180.49 621.96 Z" />
</g>
</svg>
