<?xml version="1.0" encoding="UTF-8" ?>
<!DOCTYPE svg PUBLIC "-//W3C//DTD SVG 1.1//EN" "http://www.w3.org/Graphics/SVG/1.1/DTD/svg11.dtd">
<svg width="231pt" height="215pt" viewBox="0 0 231 215" version="1.1" xmlns="http://www.w3.org/2000/svg">
<g id="#000000ff">
<path fill="#000000" opacity="1.00" d=" M 93.97 8.86 C 100.93 4.91 109.15 4.28 116.99 4.44 C 121.21 4.48 124.65 7.25 128.49 8.61 C 147.46 15.90 164.02 31.29 169.64 51.19 C 172.93 59.41 174.89 68.20 175.05 77.06 C 175.21 87.53 178.94 97.53 179.43 107.96 C 179.53 114.04 181.39 119.90 181.60 125.96 C 182.23 138.63 180.99 151.41 182.98 164.00 C 183.95 173.18 183.03 182.44 183.69 191.65 C 185.12 187.51 187.87 184.11 190.78 180.92 C 194.95 175.24 200.21 169.04 207.78 168.53 C 202.75 178.55 192.71 186.15 191.35 197.85 C 193.21 194.10 197.77 193.37 200.14 190.09 C 204.06 185.63 209.43 182.60 215.18 181.19 C 210.11 187.11 204.12 192.19 199.29 198.32 C 197.64 200.50 195.47 202.17 193.13 203.54 C 193.68 201.49 194.28 199.47 194.92 197.45 C 193.67 199.77 192.27 201.99 190.80 204.17 C 190.36 202.83 189.93 201.48 189.50 200.13 C 185.74 200.99 181.89 201.13 178.06 200.70 C 162.42 200.36 146.75 200.09 131.12 200.86 C 128.56 204.46 125.36 207.57 123.04 211.34 C 118.86 213.10 114.34 211.58 110.19 210.55 C 106.86 209.49 106.12 205.63 104.88 202.82 C 98.60 203.02 92.35 203.67 86.07 203.73 C 81.90 204.03 78.22 201.33 74.02 201.97 C 68.81 202.48 63.27 201.01 58.29 202.87 C 56.92 202.88 55.55 202.85 54.18 202.83 C 53.49 201.54 52.82 200.23 52.33 198.85 C 52.40 201.16 51.59 203.92 48.86 203.92 C 45.64 196.59 45.88 188.24 46.89 180.46 C 51.20 180.24 52.40 185.41 52.67 188.76 C 53.39 175.86 53.76 162.89 52.31 150.03 C 51.16 140.04 51.39 129.99 51.42 119.96 C 51.59 114.22 49.64 108.71 49.53 102.99 C 49.37 95.34 49.53 87.69 49.45 80.04 C 49.31 76.38 50.22 72.83 51.18 69.34 C 54.54 54.76 60.48 40.57 69.71 28.72 C 76.69 20.91 84.30 13.25 93.97 8.86 M 88.62 21.71 C 78.74 29.69 69.32 39.41 65.92 52.02 C 62.03 61.92 58.63 72.24 58.63 83.00 C 58.73 92.97 58.30 102.96 59.29 112.89 C 59.95 121.59 59.73 130.31 59.86 139.02 C 61.58 151.18 60.36 163.52 61.17 175.74 C 62.12 181.85 62.00 188.04 61.87 194.20 C 68.28 194.08 74.73 194.51 81.13 194.01 C 88.16 192.61 95.33 193.76 102.41 193.99 C 101.44 189.35 102.30 184.65 102.29 179.98 C 102.27 173.72 105.49 168.02 105.66 161.78 C 107.27 161.04 108.93 160.43 110.63 159.91 C 109.04 153.51 104.51 148.42 100.38 143.48 C 97.68 145.35 94.48 144.41 91.97 142.76 C 90.10 145.30 86.52 146.07 83.92 144.11 C 81.31 142.17 82.57 138.56 83.32 135.99 C 81.71 132.60 82.06 128.65 83.71 125.34 C 86.36 125.08 89.14 125.03 91.40 126.68 C 94.51 123.47 99.29 124.24 102.58 126.73 C 103.55 130.24 102.90 134.26 99.23 135.85 C 99.72 136.42 100.71 137.57 101.21 138.15 C 101.33 139.08 101.45 140.01 101.57 140.95 C 106.45 146.29 111.83 152.10 113.07 159.49 C 114.48 159.54 115.90 159.57 117.31 159.60 C 116.76 151.32 116.09 142.71 118.91 134.74 C 117.72 134.29 116.54 133.84 115.37 133.38 C 115.33 132.72 115.25 131.40 115.20 130.74 C 113.12 130.72 110.91 131.02 108.94 130.16 C 107.64 128.14 108.34 125.64 109.67 123.85 C 107.88 120.99 107.84 116.87 110.87 114.83 C 112.45 112.89 114.95 113.55 117.10 113.78 C 119.29 109.55 125.12 107.95 128.94 111.02 C 131.97 113.25 130.75 118.48 127.01 119.11 C 133.09 119.19 134.05 127.67 129.58 130.59 C 127.83 130.96 126.03 130.74 124.26 130.77 C 123.25 132.20 122.05 133.47 120.72 134.61 C 119.46 142.86 119.42 151.20 119.78 159.53 C 120.81 159.54 121.84 159.55 122.88 159.56 C 126.12 148.79 137.53 142.13 148.32 141.33 C 149.75 140.22 151.24 139.20 152.78 138.23 C 152.72 135.62 152.76 132.72 154.74 130.74 C 155.96 128.78 158.39 129.29 160.33 129.22 C 160.94 130.60 161.53 131.99 162.10 133.39 C 163.80 134.06 165.98 134.23 166.97 135.99 C 168.15 137.84 167.63 140.16 167.70 142.23 C 166.69 142.73 165.69 143.23 164.69 143.74 C 164.68 146.19 165.03 149.29 162.55 150.76 C 159.86 152.49 156.70 150.72 154.53 148.96 C 152.99 148.78 151.41 148.75 149.90 148.36 C 147.98 147.45 148.45 145.12 148.07 143.43 C 138.73 145.40 128.98 150.49 125.42 159.90 C 126.53 160.61 128.07 160.97 128.64 162.30 C 131.47 168.11 133.16 174.50 133.31 180.98 C 133.32 184.75 132.53 188.47 132.38 192.24 C 139.27 192.09 146.05 190.54 152.94 190.64 C 158.99 190.67 165.06 190.56 171.09 191.17 C 171.77 177.79 172.90 164.40 172.23 151.00 C 171.19 139.27 169.66 127.60 168.06 115.95 C 167.49 103.13 168.06 90.29 167.71 77.46 C 167.31 70.34 164.76 63.60 163.23 56.68 C 161.29 48.60 156.38 41.81 152.11 34.83 C 149.01 29.87 143.53 27.28 138.71 24.32 C 133.51 21.62 128.62 18.14 122.96 16.47 C 118.95 16.41 114.95 17.12 110.94 16.82 C 103.23 16.30 95.41 18.05 88.62 21.71 M 119.52 114.79 C 119.77 115.56 120.27 117.11 120.53 117.88 C 121.57 118.70 122.58 119.58 123.55 120.49 C 122.23 117.46 125.30 116.96 127.39 116.06 C 127.54 115.51 127.84 114.39 127.98 113.83 C 125.48 111.55 121.40 111.89 119.52 114.79 M 113.55 116.41 C 111.25 116.97 111.29 119.59 111.23 121.46 C 112.91 121.59 114.59 121.70 116.27 121.81 C 116.53 120.95 117.04 119.22 117.29 118.36 C 116.24 117.44 115.20 115.75 113.55 116.41 M 118.87 120.98 C 118.85 121.85 118.80 123.60 118.78 124.47 C 119.63 124.52 120.48 124.56 121.34 124.61 C 121.43 123.63 121.52 122.66 121.62 121.68 C 120.93 121.51 119.56 121.16 118.87 120.98 M 124.98 121.62 C 124.46 123.19 123.91 124.74 123.34 126.29 C 124.76 127.36 126.18 128.73 128.13 128.37 C 129.83 126.98 129.34 124.65 129.52 122.73 C 128.02 122.31 126.50 121.94 124.98 121.62 M 111.73 125.41 C 111.45 126.14 110.90 127.60 110.63 128.32 C 113.47 128.89 115.59 127.15 116.72 124.71 C 115.05 124.92 113.39 125.15 111.73 125.41 M 93.68 127.70 C 93.23 130.17 94.05 132.30 95.99 133.87 C 97.39 133.26 98.79 132.64 100.19 132.02 C 100.27 131.16 100.44 129.44 100.52 128.58 C 98.48 127.14 96.01 127.33 93.68 127.70 M 118.45 127.51 C 118.14 128.94 117.84 130.37 117.56 131.80 C 118.88 131.50 120.67 131.79 121.38 130.33 C 121.36 129.43 121.30 128.54 121.21 127.65 C 120.29 127.60 119.37 127.56 118.45 127.51 M 85.24 133.82 C 86.51 133.67 87.78 133.53 89.05 133.38 C 89.47 132.81 90.30 131.68 90.72 131.11 C 90.11 128.68 87.88 127.79 85.65 127.38 C 85.04 129.48 84.76 131.65 85.24 133.82 M 155.49 137.76 C 156.76 137.24 158.04 136.71 159.33 136.20 C 159.41 134.39 159.31 132.52 158.10 131.04 C 156.03 132.75 155.25 135.15 155.49 137.76 M 90.20 137.29 C 91.30 137.31 92.40 137.32 93.50 137.30 C 93.46 136.05 93.32 134.81 93.11 133.58 C 92.12 134.80 91.15 136.04 90.20 137.29 M 161.32 137.51 C 161.91 138.62 162.50 139.73 163.09 140.84 C 163.71 140.76 164.97 140.58 165.59 140.50 C 165.13 139.10 164.66 137.71 164.18 136.32 C 163.22 136.71 162.27 137.11 161.32 137.51 M 85.52 137.40 C 85.42 139.08 85.35 140.76 85.34 142.44 C 87.26 142.58 89.19 142.45 89.88 140.34 C 89.02 139.29 88.17 138.22 87.35 137.14 C 86.89 137.21 85.98 137.34 85.52 137.40 M 93.02 140.31 C 94.71 141.29 96.59 141.79 98.54 141.77 C 98.41 140.29 98.77 138.44 97.25 137.52 C 95.40 137.16 94.45 139.59 93.02 140.31 M 159.19 140.35 C 157.76 140.21 156.62 142.98 158.63 142.85 C 160.07 143.00 161.18 140.21 159.19 140.35 M 151.71 141.69 C 151.29 143.02 149.79 145.04 151.57 146.05 C 152.20 146.17 153.45 146.41 154.08 146.52 C 154.53 144.69 154.63 142.80 154.56 140.92 C 153.61 141.18 152.66 141.43 151.71 141.69 M 157.36 145.68 C 157.38 146.54 157.40 147.40 157.43 148.27 C 158.76 148.41 160.09 148.54 161.43 148.66 C 161.75 147.35 162.08 146.04 162.40 144.73 C 160.73 145.07 159.05 145.39 157.36 145.68 M 106.29 191.10 C 107.06 197.06 110.40 202.25 113.98 206.91 C 116.17 206.94 118.36 206.97 120.55 207.05 C 123.23 204.60 124.09 200.85 126.86 198.48 C 126.94 197.19 127.03 195.90 127.14 194.61 C 128.50 189.21 128.27 183.56 128.75 178.04 C 129.21 173.30 127.91 168.65 126.03 164.34 C 120.90 164.82 115.73 164.75 110.58 164.79 C 107.53 173.16 105.36 182.13 106.29 191.10 Z" />
<path fill="#000000" opacity="1.00" d=" M 72.14 61.10 C 75.74 59.21 80.06 59.25 84.03 59.36 C 88.12 59.27 91.26 63.78 89.96 67.62 C 89.02 71.28 85.53 73.31 82.40 74.92 C 85.63 77.78 89.11 81.89 87.21 86.49 C 86.58 86.25 85.32 85.77 84.69 85.52 C 82.55 81.41 79.70 76.99 74.81 75.99 C 74.33 79.78 73.49 83.97 69.84 85.99 C 67.51 83.27 69.01 79.62 69.39 76.51 C 68.88 76.16 67.86 75.46 67.35 75.11 C 67.33 74.01 67.31 72.91 67.31 71.81 C 68.24 71.24 69.16 70.67 70.08 70.10 C 70.60 67.09 70.50 63.77 72.14 61.10 M 73.43 64.79 C 73.78 66.71 74.15 68.63 74.52 70.55 C 77.29 70.43 80.26 70.38 82.61 68.70 C 84.01 67.69 86.56 66.08 84.57 64.33 C 80.86 63.82 77.13 64.49 73.43 64.79 Z" />
<path fill="#000000" opacity="1.00" d=" M 111.70 61.39 C 111.61 60.05 112.36 59.19 113.63 58.87 C 117.07 66.48 115.44 75.23 113.12 82.91 C 112.87 82.26 112.37 80.95 112.12 80.29 C 111.67 80.43 110.76 80.71 110.31 80.84 C 109.84 74.31 111.02 67.86 111.70 61.39 Z" />
<path fill="#000000" opacity="1.00" d=" M 139.12 59.90 C 141.18 58.92 143.61 59.05 145.82 59.33 C 149.82 60.26 151.90 65.40 150.00 68.94 C 147.37 72.67 142.61 73.62 138.39 74.29 C 137.51 78.29 137.38 82.96 134.08 85.87 C 132.08 82.19 132.28 77.96 132.74 73.94 C 130.60 73.48 128.47 72.98 126.36 72.41 C 128.67 72.00 130.99 71.62 133.31 71.25 C 133.93 67.00 135.32 62.38 139.12 59.90 M 137.98 62.94 C 138.40 64.26 138.83 65.58 139.27 66.90 C 139.12 67.81 138.82 69.61 138.66 70.52 C 141.94 69.67 145.74 69.40 148.21 66.79 C 148.79 64.83 147.87 62.81 146.19 61.74 C 143.42 60.71 140.47 61.62 137.98 62.94 Z" />
<path fill="#000000" opacity="1.00" d=" M 99.83 79.77 C 101.03 80.83 103.11 82.61 100.91 83.82 C 98.34 84.66 98.74 81.02 99.83 79.77 Z" />
<path fill="#000000" opacity="1.00" d=" M 122.02 82.54 C 121.90 80.80 122.84 80.05 124.52 80.23 C 124.56 80.81 124.63 81.98 124.67 82.57 C 124.00 82.56 122.68 82.55 122.02 82.54 Z" />
<path fill="#000000" opacity="1.00" d=" M 30.18 194.71 C 30.26 189.17 29.78 181.58 35.84 178.87 C 36.65 180.46 37.92 181.99 37.75 183.89 C 37.70 188.60 37.28 193.31 37.48 198.03 C 37.68 199.67 36.88 201.13 36.25 202.58 C 34.69 202.51 32.98 203.05 31.51 202.34 C 29.85 200.74 29.19 198.42 28.12 196.43 C 28.74 198.30 29.88 200.15 29.59 202.21 C 28.57 204.30 26.11 203.47 24.87 202.08 C 22.50 200.11 21.51 197.01 21.72 194.01 C 22.96 194.21 25.43 194.63 26.66 194.84 C 22.17 190.82 17.67 186.79 12.64 183.44 C 18.68 186.86 25.13 189.84 30.18 194.71 Z" />
<path fill="#000000" opacity="1.00" d=" M 206.73 197.63 C 209.83 193.07 214.67 189.88 219.87 188.16 C 218.19 194.08 214.15 198.82 211.03 203.99 C 209.87 206.11 207.02 205.75 205.66 204.03 C 204.94 201.86 205.40 199.46 206.73 197.63 Z" />
<path fill="#000000" opacity="1.00" d=" M 4.58 191.05 C 9.88 192.46 14.41 196.03 17.66 200.38 C 18.63 201.56 18.63 203.14 18.95 204.55 C 17.28 203.85 15.63 203.02 14.37 201.69 C 10.97 198.27 7.04 195.27 4.58 191.05 Z" />
<path fill="#000000" opacity="1.00" d=" M 222.41 204.62 C 221.48 200.96 224.80 198.47 228.06 197.96 C 227.39 200.26 226.38 202.43 225.22 204.52 C 224.28 204.55 223.35 204.59 222.41 204.62 Z" />
</g>
</svg>
