<?xml version="1.0" encoding="UTF-8" ?>
<!DOCTYPE svg PUBLIC "-//W3C//DTD SVG 1.1//EN" "http://www.w3.org/Graphics/SVG/1.1/DTD/svg11.dtd">
<svg width="237pt" height="213pt" viewBox="0 0 237 213" version="1.1" xmlns="http://www.w3.org/2000/svg">
<g id="#000000ff">
<path fill="#000000" opacity="1.00" d=" M 104.55 5.81 C 109.61 4.68 114.84 4.26 120.02 4.44 C 124.24 4.56 127.74 7.24 131.58 8.64 C 150.48 15.95 166.97 31.27 172.62 51.09 C 175.88 59.32 177.89 68.10 178.05 76.97 C 178.20 87.46 181.94 97.49 182.43 107.95 C 182.59 114.35 184.52 120.55 184.65 126.96 C 184.94 135.99 184.65 145.03 184.95 154.07 C 185.18 159.41 186.33 164.68 186.40 170.03 C 186.49 175.90 186.31 181.78 186.61 187.65 C 186.61 188.79 186.62 189.92 186.64 191.06 C 189.92 184.86 194.65 179.58 199.27 174.35 C 202.26 171.01 206.49 169.28 210.75 168.22 C 207.62 175.52 201.50 180.90 197.83 187.88 C 196.31 190.62 195.31 193.61 194.33 196.58 C 201.45 193.24 205.47 185.74 212.84 182.87 C 214.57 182.14 216.38 181.62 218.18 181.06 C 213.74 186.61 208.16 191.10 203.78 196.69 C 201.65 199.42 199.02 201.69 196.17 203.65 C 196.69 201.72 197.24 199.81 197.80 197.90 C 196.49 200.00 195.16 202.08 193.83 204.16 C 193.34 202.85 192.90 201.53 192.48 200.20 C 190.34 200.49 188.19 200.85 186.03 200.88 C 168.74 200.33 151.43 200.09 134.14 200.83 C 133.00 202.27 131.85 203.70 130.74 205.16 C 128.83 207.29 127.44 210.01 125.06 211.65 C 120.25 212.06 114.13 212.28 110.48 208.61 C 109.50 206.73 108.63 204.79 107.77 202.85 C 100.86 202.91 93.96 204.08 87.06 203.55 C 77.39 201.00 67.25 201.81 57.43 202.98 C 56.84 202.11 56.25 201.24 55.67 200.38 C 54.58 201.83 53.47 203.26 52.31 204.66 C 49.31 198.95 49.11 192.34 49.26 186.03 C 49.42 183.94 49.26 181.48 51.03 179.99 C 53.91 180.95 54.58 184.39 55.99 186.72 C 55.97 184.15 56.00 181.59 56.03 179.02 C 56.81 167.28 55.92 155.56 54.80 143.88 C 53.57 132.30 55.65 120.51 53.17 109.04 C 52.09 102.75 52.57 96.34 52.47 90.00 C 52.62 83.57 51.80 76.99 53.80 70.75 C 57.17 55.94 62.95 41.44 72.25 29.31 C 80.91 19.08 91.45 9.70 104.55 5.81 M 86.84 25.88 C 78.68 32.76 71.85 41.64 68.91 52.02 C 64.96 62.23 61.52 72.93 61.63 84.01 C 61.73 93.33 61.33 102.67 62.23 111.96 C 62.95 120.95 62.72 129.98 62.87 138.99 C 64.48 150.94 63.52 163.03 64.11 175.03 C 65.03 181.38 65.05 187.79 64.88 194.19 C 72.29 193.99 79.78 194.80 87.13 193.57 C 93.18 192.93 99.24 193.75 105.29 194.00 C 104.50 188.32 105.35 182.59 105.43 176.89 C 106.34 171.69 108.23 166.68 108.60 161.36 C 110.29 160.87 111.98 160.40 113.69 159.95 C 112.00 153.58 107.60 148.47 103.44 143.55 C 100.71 145.28 97.72 144.25 95.02 143.10 C 92.87 144.86 90.06 146.10 87.44 144.46 C 84.24 142.78 85.55 138.74 86.25 136.00 C 84.79 132.55 85.10 128.69 86.63 125.33 C 89.38 125.03 92.16 125.22 94.61 126.60 C 97.51 123.64 102.55 123.89 105.32 126.88 C 106.80 130.21 105.76 134.28 102.27 135.79 C 102.89 136.57 103.53 137.34 104.18 138.11 C 104.32 139.07 104.46 140.04 104.61 141.01 C 109.74 146.35 114.58 152.42 116.47 159.71 C 117.77 159.62 119.07 159.53 120.37 159.44 C 119.60 151.22 119.20 142.66 121.89 134.72 C 120.73 134.30 119.57 133.87 118.42 133.44 C 118.37 132.78 118.26 131.45 118.20 130.79 C 116.10 130.71 113.89 130.99 111.90 130.14 C 110.53 128.05 111.89 125.74 112.33 123.60 C 112.00 121.73 111.06 119.87 111.55 117.94 C 112.61 115.46 115.06 113.03 117.99 113.55 C 120.84 114.28 121.88 110.88 124.18 109.97 C 127.36 108.70 131.86 109.63 133.41 112.94 C 134.26 115.31 132.79 117.25 131.42 119.00 C 134.90 120.79 136.69 124.91 134.46 128.44 C 133.40 131.43 130.03 130.81 127.54 130.75 C 126.28 132.08 125.01 133.38 123.71 134.67 C 122.44 142.88 122.45 151.19 122.74 159.47 C 123.78 159.49 124.82 159.51 125.86 159.52 C 129.20 148.78 140.51 142.12 151.32 141.34 C 152.75 140.27 154.30 139.33 155.59 138.09 C 155.75 134.61 156.56 129.32 160.99 129.13 C 163.62 128.66 164.46 131.44 165.14 133.37 C 166.78 134.09 168.96 134.23 169.94 135.96 C 171.16 137.80 170.61 140.15 170.71 142.23 C 169.72 142.73 168.72 143.23 167.73 143.71 C 167.60 146.10 168.09 149.22 165.67 150.69 C 163.00 152.55 159.81 150.73 157.59 149.04 C 155.99 148.80 154.34 148.76 152.79 148.27 C 151.00 147.33 151.46 145.07 151.02 143.44 C 141.71 145.36 132.43 150.44 128.42 159.47 C 129.91 159.88 131.26 160.64 131.67 162.23 C 134.61 168.72 136.68 175.80 136.28 182.99 C 136.05 186.08 135.59 189.15 135.38 192.24 C 142.29 192.07 149.11 190.54 156.03 190.64 C 162.05 190.66 168.08 190.58 174.08 191.15 C 174.80 177.45 175.97 163.73 175.16 150.00 C 174.20 141.00 173.35 131.97 171.99 123.01 C 170.06 112.44 171.08 101.66 170.82 90.99 C 170.66 83.64 171.40 76.13 169.36 68.96 C 167.51 62.42 166.43 55.63 163.63 49.39 C 161.67 44.88 158.73 40.90 156.28 36.66 C 152.17 29.34 144.13 25.84 137.19 21.80 C 133.23 19.80 129.43 16.98 124.93 16.44 C 119.64 16.92 114.33 16.85 109.03 16.77 C 101.02 17.47 92.37 19.61 86.84 25.88 M 122.74 114.98 C 122.44 117.48 124.85 118.75 126.30 120.34 C 125.48 117.29 128.60 116.93 130.64 116.03 C 131.78 111.24 123.86 111.13 122.74 114.98 M 114.20 121.48 C 115.97 121.60 117.75 121.71 119.54 121.81 C 119.79 119.90 120.52 116.98 117.94 116.38 C 114.95 115.68 114.02 119.18 114.20 121.48 M 121.70 120.42 C 121.74 121.87 121.86 123.31 122.04 124.75 C 124.05 125.69 124.73 123.80 124.94 122.18 C 123.98 121.39 122.90 120.80 121.70 120.42 M 127.80 121.92 C 127.31 123.41 126.80 124.90 126.29 126.39 C 127.77 127.36 129.25 128.56 131.14 128.41 C 132.78 126.93 132.31 124.58 132.60 122.62 C 131.01 122.33 129.41 122.11 127.80 121.92 M 114.65 125.48 C 114.41 126.22 113.94 127.71 113.70 128.46 C 115.27 128.13 116.84 127.80 118.41 127.45 C 118.55 126.76 118.85 125.39 118.99 124.70 C 117.54 124.95 116.10 125.20 114.65 125.48 M 96.55 127.63 C 96.27 130.07 97.06 132.30 98.89 133.96 C 100.41 133.32 101.94 132.66 103.46 132.01 C 103.18 130.59 103.79 128.68 102.39 127.71 C 100.50 127.08 98.48 127.51 96.55 127.63 M 121.45 127.54 C 121.12 128.94 120.80 130.34 120.48 131.74 C 121.46 131.65 122.42 131.51 123.38 131.33 C 125.03 130.62 124.13 128.84 124.09 127.52 C 123.43 127.52 122.11 127.54 121.45 127.54 M 87.52 133.55 C 89.06 133.54 90.66 133.79 92.16 133.34 C 93.43 132.22 93.27 130.49 93.46 128.97 C 91.85 128.39 90.23 127.82 88.60 127.27 C 88.19 129.35 87.84 131.45 87.52 133.55 M 158.35 137.84 C 159.72 137.35 161.09 136.85 162.47 136.34 C 162.28 134.58 162.88 132.37 161.08 131.24 C 158.46 132.48 158.40 135.35 158.35 137.84 M 95.24 133.72 C 94.58 134.97 93.91 136.21 93.24 137.45 C 94.21 137.43 95.18 137.40 96.15 137.36 C 96.42 136.82 96.96 135.75 97.23 135.21 C 96.73 134.84 95.74 134.10 95.24 133.72 M 165.08 139.11 C 165.32 140.81 167.13 141.09 168.46 141.55 C 168.19 139.74 167.85 137.95 167.43 136.18 C 166.07 136.52 163.49 137.11 165.08 139.11 M 88.34 142.61 C 90.18 142.57 92.04 142.31 93.03 140.56 C 92.08 139.28 91.14 137.99 90.21 136.69 C 87.71 137.67 88.20 140.47 88.34 142.61 M 99.45 136.87 C 98.37 138.08 97.20 139.23 96.22 140.54 C 97.69 141.36 99.32 141.93 101.02 141.91 C 102.37 139.99 101.10 138.02 99.45 136.87 M 162.45 140.11 C 161.15 140.05 159.69 141.63 160.54 142.87 C 162.14 144.49 164.77 140.75 162.45 140.11 M 153.58 146.43 C 154.42 146.35 156.08 146.17 156.91 146.09 C 158.65 144.50 157.39 142.13 157.18 140.19 C 154.81 141.48 153.18 143.60 153.58 146.43 M 160.31 145.54 C 160.26 146.22 160.16 147.57 160.10 148.25 C 161.27 148.42 162.44 148.64 163.62 148.69 C 165.60 148.41 164.97 145.97 165.50 144.63 C 163.77 144.93 162.04 145.24 160.31 145.54 M 110.88 173.93 C 109.40 179.77 108.57 185.87 109.44 191.87 C 110.29 197.58 113.64 202.47 117.02 206.99 C 119.74 206.73 123.39 207.90 125.17 205.16 C 126.66 202.90 127.91 200.49 129.73 198.47 C 131.00 190.68 131.74 182.80 131.77 174.90 C 131.85 171.12 130.16 167.65 128.18 164.55 C 123.44 164.84 118.68 164.52 113.95 164.94 C 111.86 167.39 111.68 170.91 110.88 173.93 Z" />
<path fill="#000000" opacity="1.00" d=" M 75.08 61.18 C 78.67 59.18 83.06 59.24 87.07 59.36 C 91.13 59.30 94.29 63.79 92.97 67.60 C 92.10 71.10 88.80 73.02 85.92 74.72 C 87.46 76.96 89.27 79.03 90.47 81.48 C 90.95 83.28 91.23 85.85 89.01 86.58 C 85.51 82.82 83.54 77.01 77.83 75.97 C 77.33 79.82 76.43 83.97 72.78 86.07 C 69.49 82.82 74.51 77.39 70.45 74.93 C 70.37 73.88 70.32 72.83 70.30 71.78 C 71.23 71.23 72.15 70.68 73.07 70.13 C 73.53 67.13 73.59 63.87 75.08 61.18 M 76.43 64.81 C 76.78 66.73 77.15 68.66 77.53 70.58 C 80.31 70.42 83.30 70.35 85.67 68.67 C 86.94 67.68 89.40 66.25 87.77 64.49 C 84.05 63.54 80.19 64.56 76.43 64.81 Z" />
<path fill="#000000" opacity="1.00" d=" M 115.24 59.18 C 117.47 58.70 117.44 61.61 118.10 63.03 C 119.23 69.60 118.25 76.50 116.09 82.76 C 115.86 82.16 115.38 80.94 115.15 80.33 C 114.68 80.45 113.75 80.67 113.29 80.78 C 113.03 73.54 113.87 66.27 115.24 59.18 Z" />
<path fill="#000000" opacity="1.00" d=" M 142.57 59.66 C 145.61 58.87 149.56 58.54 151.85 61.16 C 154.03 63.51 154.54 67.76 152.06 70.07 C 149.33 72.85 145.36 73.77 141.60 74.02 C 140.71 78.11 139.94 82.33 137.69 85.94 C 134.69 82.61 135.41 77.96 135.71 73.87 C 133.66 73.48 131.62 73.05 129.58 72.58 C 131.81 72.05 134.05 71.62 136.29 71.20 C 136.99 66.85 138.43 61.93 142.57 59.66 M 141.09 62.79 C 141.82 65.30 142.29 67.88 142.18 70.50 C 144.95 69.63 148.06 69.33 150.43 67.53 C 152.50 65.84 150.97 62.80 149.08 61.66 C 146.36 60.76 143.59 61.71 141.09 62.79 Z" />
<path fill="#000000" opacity="1.00" d=" M 102.40 83.91 C 101.60 82.46 102.35 81.03 102.84 79.65 C 103.59 80.45 104.30 81.28 104.97 82.14 C 104.97 83.72 103.67 83.95 102.40 83.91 Z" />
<path fill="#000000" opacity="1.00" d=" M 124.99 81.95 C 124.83 80.34 126.35 80.38 127.49 80.11 C 127.51 80.81 127.56 82.22 127.58 82.93 C 126.69 82.65 125.83 82.32 124.99 81.95 Z" />
<path fill="#000000" opacity="1.00" d=" M 152.52 80.55 C 153.55 80.64 154.58 80.74 155.61 80.84 C 155.93 82.90 154.23 83.46 152.55 83.71 C 152.54 82.65 152.53 81.60 152.52 80.55 Z" />
<path fill="#000000" opacity="1.00" d=" M 33.04 194.20 C 32.73 188.60 33.04 181.57 38.80 178.73 C 39.76 180.30 40.93 181.92 40.74 183.88 C 40.57 189.22 40.45 194.57 40.38 199.92 C 39.93 203.67 34.48 203.56 32.87 200.66 C 32.33 202.44 31.13 204.72 29.07 202.98 C 25.93 201.16 24.60 197.52 24.62 194.03 C 25.83 194.21 28.25 194.58 29.45 194.76 C 25.67 191.32 21.85 187.94 17.82 184.81 C 23.22 187.37 28.30 190.56 33.04 194.20 Z" />
<path fill="#000000" opacity="1.00" d=" M 208.34 200.98 C 209.72 194.14 216.80 190.30 222.89 188.17 C 221.00 194.21 217.12 199.33 213.58 204.47 C 211.37 207.22 207.29 203.97 208.34 200.98 Z" />
<path fill="#000000" opacity="1.00" d=" M 7.44 190.97 C 13.90 192.93 20.55 197.36 22.14 204.33 C 20.61 203.82 19.00 203.34 17.86 202.13 C 14.19 198.61 10.18 195.32 7.44 190.97 Z" />
<path fill="#000000" opacity="1.00" d=" M 225.25 204.55 C 224.68 200.86 227.85 198.56 231.07 197.86 C 230.37 200.16 229.40 202.37 228.32 204.51 C 227.29 204.53 226.27 204.54 225.25 204.55 Z" />
</g>
<g id="#a7a7a7ff">
<path fill="#a7a7a7" opacity="1.00" d=" M 86.84 25.88 C 92.37 19.61 101.02 17.47 109.03 16.77 C 114.33 16.85 119.64 16.92 124.93 16.44 C 129.43 16.98 133.23 19.80 137.19 21.80 C 144.13 25.84 152.17 29.34 156.28 36.66 C 158.73 40.90 161.67 44.88 163.63 49.39 C 166.43 55.63 167.51 62.42 169.36 68.96 C 171.40 76.13 170.66 83.64 170.82 90.99 C 171.08 101.66 170.06 112.44 171.99 123.01 C 173.35 131.97 174.20 141.00 175.16 150.00 C 175.97 163.73 174.80 177.45 174.08 191.15 C 168.08 190.58 162.05 190.66 156.03 190.64 C 149.11 190.54 142.29 192.07 135.38 192.24 C 135.59 189.15 136.05 186.08 136.28 182.99 C 136.68 175.80 134.61 168.72 131.67 162.23 C 131.26 160.64 129.91 159.88 128.42 159.47 C 132.43 150.44 141.71 145.36 151.02 143.44 C 151.46 145.07 151.00 147.33 152.79 148.27 C 154.34 148.76 155.99 148.80 157.59 149.04 C 159.81 150.73 163.00 152.55 165.67 150.69 C 168.09 149.22 167.60 146.10 167.73 143.71 C 168.72 143.23 169.72 142.73 170.71 142.23 C 170.61 140.15 171.16 137.80 169.94 135.96 C 168.96 134.23 166.78 134.09 165.14 133.37 C 164.46 131.44 163.62 128.66 160.99 129.13 C 156.56 129.32 155.75 134.61 155.59 138.09 C 154.30 139.33 152.75 140.27 151.32 141.34 C 140.51 142.12 129.20 148.78 125.86 159.52 C 124.82 159.51 123.78 159.49 122.74 159.47 C 122.45 151.19 122.44 142.88 123.71 134.67 C 125.01 133.38 126.28 132.08 127.54 130.75 C 130.03 130.81 133.40 131.43 134.46 128.44 C 136.69 124.91 134.90 120.79 131.42 119.00 C 132.79 117.25 134.26 115.31 133.41 112.94 C 131.86 109.63 127.36 108.70 124.18 109.97 C 121.88 110.88 120.84 114.28 117.99 113.55 C 115.06 113.03 112.61 115.46 111.55 117.94 C 111.06 119.87 112.00 121.73 112.33 123.60 C 111.89 125.74 110.53 128.05 111.90 130.14 C 113.89 130.99 116.10 130.71 118.20 130.79 C 118.26 131.45 118.37 132.78 118.42 133.44 C 119.57 133.87 120.73 134.30 121.89 134.72 C 119.20 142.66 119.60 151.22 120.37 159.44 C 119.07 159.53 117.77 159.62 116.47 159.71 C 114.58 152.42 109.74 146.35 104.61 141.01 C 104.46 140.04 104.32 139.07 104.18 138.11 C 103.53 137.34 102.89 136.57 102.27 135.79 C 105.76 134.28 106.80 130.21 105.32 126.88 C 102.55 123.89 97.51 123.64 94.61 126.60 C 92.16 125.22 89.38 125.03 86.63 125.33 C 85.10 128.69 84.79 132.55 86.25 136.00 C 85.55 138.74 84.24 142.78 87.44 144.46 C 90.06 146.10 92.87 144.86 95.02 143.10 C 97.72 144.25 100.71 145.28 103.44 143.55 C 107.60 148.47 112.00 153.58 113.69 159.95 C 111.98 160.40 110.29 160.87 108.60 161.36 C 108.23 166.68 106.34 171.69 105.43 176.89 C 105.35 182.59 104.50 188.32 105.29 194.00 C 99.24 193.75 93.18 192.93 87.13 193.57 C 79.78 194.80 72.29 193.99 64.88 194.19 C 65.05 187.79 65.03 181.38 64.11 175.03 C 63.52 163.03 64.48 150.94 62.87 138.99 C 62.72 129.98 62.95 120.95 62.23 111.96 C 61.33 102.67 61.73 93.33 61.63 84.01 C 61.52 72.93 64.96 62.23 68.91 52.02 C 71.85 41.64 78.68 32.76 86.84 25.88 M 75.08 61.18 C 73.59 63.87 73.53 67.13 73.07 70.13 C 72.15 70.68 71.23 71.23 70.30 71.78 C 70.32 72.83 70.37 73.88 70.45 74.93 C 74.51 77.39 69.49 82.82 72.78 86.07 C 76.43 83.97 77.33 79.82 77.83 75.97 C 83.54 77.01 85.51 82.82 89.01 86.58 C 91.23 85.85 90.95 83.28 90.47 81.48 C 89.27 79.03 87.46 76.96 85.92 74.72 C 88.80 73.02 92.10 71.10 92.97 67.60 C 94.29 63.79 91.13 59.30 87.07 59.36 C 83.06 59.24 78.67 59.18 75.08 61.18 M 115.24 59.18 C 113.87 66.27 113.03 73.54 113.29 80.78 C 113.75 80.67 114.68 80.45 115.15 80.33 C 115.38 80.94 115.86 82.16 116.09 82.76 C 118.25 76.50 119.23 69.60 118.10 63.03 C 117.44 61.61 117.47 58.70 115.24 59.18 M 142.57 59.66 C 138.43 61.93 136.99 66.85 136.29 71.20 C 134.05 71.62 131.81 72.05 129.58 72.58 C 131.62 73.05 133.66 73.48 135.71 73.87 C 135.41 77.96 134.69 82.61 137.69 85.94 C 139.94 82.33 140.71 78.11 141.60 74.02 C 145.36 73.77 149.33 72.85 152.06 70.07 C 154.54 67.76 154.03 63.51 151.85 61.16 C 149.56 58.54 145.61 58.87 142.57 59.66 M 102.40 83.91 C 103.67 83.95 104.97 83.72 104.97 82.14 C 104.30 81.28 103.59 80.45 102.84 79.65 C 102.35 81.03 101.60 82.46 102.40 83.91 M 124.99 81.95 C 125.83 82.32 126.69 82.65 127.58 82.93 C 127.56 82.22 127.51 80.81 127.49 80.11 C 126.35 80.38 124.83 80.34 124.99 81.95 M 152.52 80.55 C 152.53 81.60 152.54 82.65 152.55 83.71 C 154.23 83.46 155.93 82.90 155.61 80.84 C 154.58 80.74 153.55 80.64 152.52 80.55 Z" />
<path fill="#a7a7a7" opacity="1.00" d=" M 141.09 62.79 C 143.59 61.71 146.36 60.76 149.08 61.66 C 150.97 62.80 152.50 65.84 150.43 67.53 C 148.06 69.33 144.95 69.63 142.18 70.50 C 142.29 67.88 141.82 65.30 141.09 62.79 Z" />
<path fill="#a7a7a7" opacity="1.00" d=" M 76.43 64.81 C 80.19 64.56 84.05 63.54 87.77 64.49 C 89.40 66.25 86.94 67.68 85.67 68.67 C 83.30 70.35 80.31 70.42 77.53 70.58 C 77.15 68.66 76.78 66.73 76.43 64.81 Z" />
</g>
<g id="#ca4e8bff">
<path fill="#ca4e8b" opacity="1.00" d=" M 122.74 114.98 C 123.86 111.13 131.78 111.24 130.64 116.03 C 128.60 116.93 125.48 117.29 126.30 120.34 C 124.85 118.75 122.44 117.48 122.74 114.98 Z" />
<path fill="#ca4e8b" opacity="1.00" d=" M 114.20 121.48 C 114.02 119.18 114.95 115.68 117.94 116.38 C 120.52 116.98 119.79 119.90 119.54 121.81 C 117.75 121.71 115.97 121.60 114.20 121.48 Z" />
<path fill="#ca4e8b" opacity="1.00" d=" M 127.80 121.92 C 129.41 122.11 131.01 122.33 132.60 122.62 C 132.31 124.58 132.78 126.93 131.14 128.41 C 129.25 128.56 127.77 127.36 126.29 126.39 C 126.80 124.90 127.31 123.41 127.80 121.92 Z" />
<path fill="#ca4e8b" opacity="1.00" d=" M 114.65 125.48 C 116.10 125.20 117.54 124.95 118.99 124.70 C 118.85 125.39 118.55 126.76 118.41 127.45 C 116.84 127.80 115.27 128.13 113.70 128.46 C 113.94 127.71 114.41 126.22 114.65 125.48 Z" />
<path fill="#ca4e8b" opacity="1.00" d=" M 121.45 127.54 C 122.11 127.54 123.43 127.52 124.09 127.52 C 124.13 128.84 125.03 130.62 123.38 131.33 C 122.42 131.51 121.46 131.65 120.48 131.74 C 120.80 130.34 121.12 128.94 121.45 127.54 Z" />
</g>
<g id="#a98e68ff">
<path fill="#a98e68" opacity="1.00" d=" M 121.70 120.42 C 122.90 120.80 123.98 121.39 124.94 122.18 C 124.73 123.80 124.05 125.69 122.04 124.75 C 121.86 123.31 121.74 121.87 121.70 120.42 Z" />
<path fill="#a98e68" opacity="1.00" d=" M 96.55 127.63 C 98.48 127.51 100.50 127.08 102.39 127.71 C 103.79 128.68 103.18 130.59 103.46 132.01 C 101.94 132.66 100.41 133.32 98.89 133.96 C 97.06 132.30 96.27 130.07 96.55 127.63 Z" />
<path fill="#a98e68" opacity="1.00" d=" M 87.52 133.55 C 87.84 131.45 88.19 129.35 88.60 127.27 C 90.23 127.82 91.85 128.39 93.46 128.97 C 93.27 130.49 93.43 132.22 92.16 133.34 C 90.66 133.79 89.06 133.54 87.52 133.55 Z" />
<path fill="#a98e68" opacity="1.00" d=" M 158.35 137.84 C 158.40 135.35 158.46 132.48 161.08 131.24 C 162.88 132.37 162.28 134.58 162.47 136.34 C 161.09 136.85 159.72 137.35 158.35 137.84 Z" />
<path fill="#a98e68" opacity="1.00" d=" M 95.24 133.72 C 95.74 134.10 96.73 134.84 97.23 135.21 C 96.96 135.75 96.42 136.82 96.15 137.36 C 95.18 137.40 94.21 137.43 93.24 137.45 C 93.91 136.21 94.58 134.97 95.24 133.72 Z" />
<path fill="#a98e68" opacity="1.00" d=" M 165.08 139.11 C 163.49 137.11 166.07 136.52 167.43 136.18 C 167.85 137.95 168.19 139.74 168.46 141.55 C 167.13 141.09 165.32 140.81 165.08 139.11 Z" />
<path fill="#a98e68" opacity="1.00" d=" M 88.34 142.61 C 88.20 140.47 87.71 137.67 90.21 136.69 C 91.14 137.99 92.08 139.28 93.03 140.56 C 92.04 142.31 90.18 142.57 88.34 142.61 Z" />
<path fill="#a98e68" opacity="1.00" d=" M 99.45 136.87 C 101.10 138.02 102.37 139.99 101.02 141.91 C 99.32 141.93 97.69 141.36 96.22 140.54 C 97.20 139.23 98.37 138.08 99.45 136.87 Z" />
<path fill="#a98e68" opacity="1.00" d=" M 162.45 140.11 C 164.77 140.75 162.14 144.49 160.54 142.87 C 159.69 141.63 161.15 140.05 162.45 140.11 Z" />
<path fill="#a98e68" opacity="1.00" d=" M 153.58 146.43 C 153.18 143.60 154.81 141.48 157.18 140.19 C 157.39 142.13 158.65 144.50 156.91 146.09 C 156.08 146.17 154.42 146.35 153.58 146.43 Z" />
<path fill="#a98e68" opacity="1.00" d=" M 160.31 145.54 C 162.04 145.24 163.77 144.93 165.50 144.63 C 164.97 145.97 165.60 148.41 163.62 148.69 C 162.44 148.64 161.27 148.42 160.10 148.25 C 160.16 147.57 160.26 146.22 160.31 145.54 Z" />
<path fill="#a98e68" opacity="1.00" d=" M 110.88 173.93 C 111.68 170.91 111.86 167.39 113.95 164.94 C 118.68 164.52 123.44 164.84 128.18 164.55 C 130.16 167.65 131.85 171.12 131.77 174.90 C 131.74 182.80 131.00 190.68 129.73 198.47 C 127.91 200.49 126.66 202.90 125.17 205.16 C 123.39 207.90 119.74 206.73 117.02 206.99 C 113.64 202.47 110.29 197.58 109.44 191.87 C 108.57 185.87 109.40 179.77 110.88 173.93 Z" />
</g>
<g id="#64cf52ff">
<path fill="#64cf52" opacity="1.00" d=" M 199.66 169.72 C 203.15 166.73 207.66 165.72 212.14 165.45 C 212.76 165.81 214.02 166.52 214.64 166.87 C 214.58 168.80 215.15 171.05 213.68 172.60 C 210.65 176.24 207.74 180.27 203.44 182.49 L 206.70 180.92 L 204.68 183.68 C 208.04 179.77 213.32 176.47 218.66 177.50 C 221.87 178.62 222.70 183.46 219.73 185.42 C 221.27 185.78 222.82 186.21 224.36 186.62 C 226.18 190.17 224.81 193.87 222.62 196.88 C 225.96 195.70 229.48 195.09 233.02 195.46 C 233.45 196.09 234.29 197.35 234.72 197.97 C 234.02 200.85 233.44 203.75 233.63 206.73 C 229.83 207.86 225.87 206.99 222.00 206.89 C 206.98 207.05 191.95 206.41 176.92 206.85 C 170.96 207.31 164.99 207.84 159.01 207.78 C 150.14 207.40 141.33 209.62 132.47 208.36 C 130.66 208.65 129.76 206.51 130.74 205.16 C 131.85 203.70 133.00 202.27 134.14 200.83 C 151.43 200.09 168.74 200.33 186.03 200.88 C 188.19 200.85 190.34 200.49 192.48 200.20 C 192.90 201.53 193.34 202.85 193.83 204.16 C 195.16 202.08 196.49 200.00 197.80 197.90 C 197.24 199.81 196.69 201.72 196.17 203.65 C 199.02 201.69 201.65 199.42 203.78 196.69 C 208.16 191.10 213.74 186.61 218.18 181.06 C 216.38 181.62 214.57 182.14 212.84 182.87 C 205.47 185.74 201.45 193.24 194.33 196.58 C 195.31 193.61 196.31 190.62 197.83 187.88 C 201.50 180.90 207.62 175.52 210.75 168.22 C 206.49 169.28 202.26 171.01 199.27 174.35 C 194.65 179.58 189.92 184.86 186.64 191.06 C 186.62 189.92 186.61 188.79 186.61 187.65 C 188.24 180.17 193.98 174.46 199.66 169.72 M 208.34 200.98 C 207.29 203.97 211.37 207.22 213.58 204.47 C 217.12 199.33 221.00 194.21 222.89 188.17 C 216.80 190.30 209.72 194.14 208.34 200.98 M 225.25 204.55 C 226.27 204.54 227.29 204.53 228.32 204.51 C 229.40 202.37 230.37 200.16 231.07 197.86 C 227.85 198.56 224.68 200.86 225.25 204.55 Z" />
<path fill="#64cf52" opacity="1.00" d=" M 30.39 180.40 C 33.62 175.65 40.91 173.40 45.75 177.05 C 47.63 179.20 49.97 177.01 52.12 176.69 C 53.82 175.84 55.01 178.06 56.03 179.02 C 56.00 181.59 55.97 184.15 55.99 186.72 C 54.58 184.39 53.91 180.95 51.03 179.99 C 49.26 181.48 49.42 183.94 49.26 186.03 C 49.11 192.34 49.31 198.95 52.31 204.66 C 53.47 203.26 54.58 201.83 55.67 200.38 C 56.25 201.24 56.84 202.11 57.43 202.98 C 67.25 201.81 77.39 201.00 87.06 203.55 C 93.96 204.08 100.86 202.91 107.77 202.85 C 108.63 204.79 109.50 206.73 110.48 208.61 C 101.31 207.60 92.11 208.63 82.92 208.91 C 71.93 210.00 60.95 208.46 49.98 207.77 C 39.79 207.37 29.56 207.94 19.38 207.46 C 12.75 206.44 10.40 199.38 5.40 195.93 C 5.42 194.60 4.97 193.12 5.72 191.91 C 9.35 188.88 14.95 188.65 18.90 191.35 C 16.75 188.88 12.25 186.26 14.38 182.44 C 19.62 180.58 24.65 184.29 28.19 187.79 C 28.86 185.32 29.21 182.71 30.39 180.40 M 33.04 194.20 C 28.30 190.56 23.22 187.37 17.82 184.81 C 21.85 187.94 25.67 191.32 29.45 194.76 C 28.25 194.58 25.83 194.21 24.62 194.03 C 24.60 197.52 25.93 201.16 29.07 202.98 C 31.13 204.72 32.33 202.44 32.87 200.66 C 34.48 203.56 39.93 203.67 40.38 199.92 C 40.45 194.57 40.57 189.22 40.74 183.88 C 40.93 181.92 39.76 180.30 38.80 178.73 C 33.04 181.57 32.73 188.60 33.04 194.20 M 7.44 190.97 C 10.18 195.32 14.19 198.61 17.86 202.13 C 19.00 203.34 20.61 203.82 22.14 204.33 C 20.55 197.36 13.90 192.93 7.44 190.97 Z" />
</g>
</svg>
