<?xml version="1.0" encoding="UTF-8" ?>
<!DOCTYPE svg PUBLIC "-//W3C//DTD SVG 1.1//EN" "http://www.w3.org/Graphics/SVG/1.1/DTD/svg11.dtd">
<svg width="287pt" height="709pt" viewBox="0 0 287 709" version="1.1" xmlns="http://www.w3.org/2000/svg">
<g id="#000000ff">
<path fill="#000000" opacity="1.00" d=" M 93.85 9.83 C 98.17 5.01 105.56 4.56 111.33 6.70 C 116.59 8.73 119.61 13.81 123.16 17.87 C 127.50 22.60 131.26 27.87 134.45 33.43 C 138.81 41.42 138.90 50.72 139.81 59.55 C 140.22 64.85 142.46 69.76 143.46 74.95 C 143.78 69.53 144.85 64.20 145.95 58.90 C 146.74 52.08 147.69 45.27 148.77 38.48 C 150.56 29.42 154.62 20.70 160.75 13.76 C 166.28 7.40 176.46 7.64 183.21 11.81 C 191.29 17.11 200.00 22.63 204.40 31.62 C 208.29 38.44 207.19 46.53 207.35 54.04 C 207.22 66.03 207.73 78.04 206.84 90.01 C 206.69 98.36 207.16 106.75 205.88 115.04 C 205.67 122.34 205.24 129.62 204.44 136.88 C 210.27 133.31 216.17 129.40 222.98 128.05 C 228.71 126.91 234.00 123.70 240.00 124.11 C 249.21 124.56 259.76 122.16 267.53 128.52 C 273.14 133.67 277.43 140.75 278.52 148.35 C 278.66 155.24 279.18 162.27 277.68 169.06 C 276.35 175.11 271.77 179.59 268.91 184.90 C 263.34 195.56 253.20 202.64 245.96 212.02 C 242.83 216.77 239.50 221.38 236.28 226.07 C 236.51 231.28 234.61 236.29 231.50 240.41 C 229.27 243.11 229.69 246.76 229.13 250.01 C 228.30 257.14 225.64 263.85 223.87 270.76 C 222.05 279.67 222.04 288.87 219.68 297.68 C 218.16 303.33 219.34 309.22 218.39 314.94 C 217.93 318.02 217.42 321.09 217.25 324.21 C 216.76 340.93 217.57 357.69 216.94 374.41 C 214.47 377.77 215.10 382.13 215.00 386.04 C 215.15 398.05 214.74 410.09 215.20 422.09 C 216.92 426.44 214.91 431.39 216.89 435.57 C 217.60 439.84 215.90 444.59 217.90 448.55 C 218.02 451.16 217.98 453.78 218.10 456.40 C 219.50 458.19 218.60 460.68 219.80 462.58 C 219.90 463.03 220.10 463.95 220.20 464.40 C 220.95 466.03 221.09 467.84 221.73 469.52 C 222.17 471.58 222.57 473.72 223.78 475.50 C 224.31 478.01 225.58 480.27 226.83 482.48 C 227.25 484.89 227.72 487.33 228.87 489.52 C 228.94 490.00 229.07 490.96 229.13 491.44 C 229.73 492.79 230.30 494.16 230.92 495.52 C 231.17 501.33 231.01 507.16 231.06 512.99 C 231.17 517.43 229.19 521.54 229.10 525.96 C 224.42 531.81 220.61 539.36 213.15 542.09 C 206.42 544.29 199.82 546.87 193.00 548.78 C 186.00 550.68 178.66 549.75 171.50 550.00 C 170.16 562.64 171.63 575.34 171.20 588.02 C 170.82 595.08 173.06 601.85 174.25 608.73 C 175.22 614.66 179.90 618.88 184.02 622.83 C 189.36 626.91 194.65 631.06 199.96 635.18 C 204.33 638.50 207.03 643.38 210.45 647.57 C 213.63 652.23 217.34 657.11 217.45 663.00 C 217.56 670.93 218.02 679.29 214.52 686.64 C 211.74 692.17 207.38 697.76 200.92 698.91 C 194.06 700.03 186.68 699.75 180.30 696.76 C 174.46 694.41 167.47 694.82 162.47 690.56 C 157.99 686.83 152.56 684.56 147.89 681.12 C 143.20 678.14 138.37 675.36 133.50 672.73 C 127.19 672.14 120.69 672.18 114.46 673.54 C 108.61 674.59 103.09 677.48 97.00 676.91 C 90.89 676.01 84.77 674.79 78.55 674.89 C 77.57 674.40 76.56 674.02 75.51 673.75 C 72.24 672.25 70.47 669.15 68.20 666.56 C 65.70 660.20 64.40 651.95 69.69 646.62 C 74.34 637.15 79.60 627.67 87.44 620.44 C 95.89 613.06 105.78 606.83 111.55 596.93 C 112.21 580.67 111.44 564.35 112.15 548.07 C 106.56 548.40 101.12 547.24 95.59 546.78 C 93.03 545.43 90.25 544.59 87.51 543.72 C 86.52 543.37 85.52 543.02 84.54 542.68 C 83.53 542.36 82.51 542.06 81.50 541.79 C 80.51 541.28 79.53 540.77 78.56 540.24 C 76.27 538.97 73.71 538.31 71.37 537.15 C 70.91 537.08 69.98 536.94 69.51 536.87 C 68.15 536.29 66.78 535.73 65.43 535.13 C 64.94 535.08 63.97 534.98 63.48 534.93 C 60.75 533.24 57.98 531.57 55.68 529.31 C 52.56 526.42 48.13 524.79 46.06 520.91 C 43.50 514.37 45.30 507.27 47.69 500.97 C 51.19 492.86 52.20 483.88 51.73 475.12 C 53.75 457.39 56.85 439.77 58.17 421.97 C 58.12 408.30 58.54 394.60 57.40 380.96 C 56.72 355.41 57.61 329.82 56.68 304.27 C 55.11 289.15 51.14 274.29 51.23 259.01 C 50.93 248.20 48.19 237.66 47.67 226.86 C 45.92 218.61 46.96 209.99 44.17 201.96 C 42.24 192.47 38.20 183.62 35.64 174.32 C 32.91 166.25 27.70 159.35 24.62 151.44 C 19.58 140.14 15.71 128.29 13.46 116.10 C 12.37 109.35 9.67 102.88 9.67 95.96 C 9.63 80.98 9.67 66.00 9.66 51.02 C 9.51 41.78 12.36 32.34 18.18 25.10 C 21.42 21.02 26.97 19.72 31.93 20.75 C 40.00 21.41 47.01 25.90 53.45 30.44 C 62.26 38.68 69.31 48.71 74.42 59.63 C 77.24 64.91 80.32 70.06 82.55 75.64 C 82.54 62.73 82.65 49.81 83.49 36.92 C 84.32 27.22 87.09 17.12 93.85 9.83 M 98.87 49.99 C 98.59 68.96 98.72 87.94 98.67 106.92 C 97.87 116.63 103.60 125.31 103.81 134.94 C 103.88 142.99 103.98 151.05 103.77 159.10 C 103.98 162.26 101.61 164.49 99.52 166.47 C 96.61 166.66 93.26 167.40 90.77 165.44 C 87.71 163.04 86.71 159.09 85.59 155.55 C 84.17 151.15 82.98 146.61 83.15 141.95 C 83.27 133.95 82.51 125.99 82.46 118.00 C 81.38 107.70 77.11 98.07 71.88 89.23 C 66.46 79.48 61.63 69.42 56.25 59.64 C 52.77 53.43 48.22 47.86 43.17 42.88 C 38.97 40.07 34.50 36.80 29.22 36.74 C 27.59 40.67 25.64 44.66 25.76 49.02 C 25.69 64.35 25.74 79.68 25.74 95.00 C 25.69 100.46 27.92 105.55 28.82 110.87 C 31.75 127.16 37.35 143.03 45.69 157.34 C 48.05 162.41 50.77 167.38 52.04 172.87 C 56.53 186.68 62.01 200.35 63.69 214.88 C 64.85 219.07 63.42 223.36 64.17 227.58 C 65.27 234.95 65.36 242.53 67.30 249.73 C 73.50 261.33 85.45 269.91 98.53 271.69 C 111.13 274.73 124.17 273.42 136.99 273.69 C 139.96 273.74 143.13 274.54 145.14 276.89 C 147.39 278.97 147.37 283.01 145.10 285.07 C 142.31 288.17 137.82 288.19 133.98 288.21 C 125.81 288.03 117.62 288.38 109.45 287.81 C 102.73 287.57 96.19 285.86 89.62 284.59 C 81.83 282.58 74.64 278.49 68.59 273.23 C 69.88 283.15 72.03 292.95 72.90 302.94 C 73.48 313.61 73.23 324.31 73.37 334.99 C 73.73 353.34 72.87 371.73 74.30 390.05 C 74.77 401.37 74.56 412.70 74.62 424.03 C 73.20 441.17 70.14 458.13 68.43 475.25 C 77.67 471.92 87.56 472.69 97.08 470.96 C 104.47 470.69 111.59 468.10 119.03 468.43 C 135.70 468.67 152.42 467.78 169.03 469.44 C 182.54 470.58 196.26 469.47 209.55 472.57 C 208.41 465.07 207.63 457.52 205.98 450.11 C 205.00 442.49 204.59 434.80 203.40 427.20 C 201.69 415.87 201.67 404.39 200.55 393.01 C 200.29 372.00 200.64 351.00 200.52 330.00 C 200.42 324.57 200.96 319.15 201.84 313.80 C 202.96 307.28 201.76 300.53 203.64 294.10 C 205.94 285.38 205.87 276.27 207.67 267.46 C 209.71 259.66 212.86 252.06 213.27 243.92 C 213.18 239.91 215.95 236.02 214.25 232.09 C 219.18 220.15 227.91 210.41 234.69 199.52 C 240.00 193.22 246.63 188.11 251.77 181.65 C 254.22 178.37 255.89 174.60 258.28 171.29 C 259.95 168.72 262.25 166.22 262.25 162.96 C 262.39 158.31 262.68 153.60 262.08 148.97 C 260.58 145.07 258.12 139.76 253.10 140.23 C 246.76 140.49 240.08 139.20 234.05 141.73 C 229.58 143.57 224.53 143.75 220.35 146.32 C 214.97 149.46 209.10 152.30 205.13 157.26 C 201.69 162.33 199.55 168.15 196.60 173.48 C 188.77 181.53 185.26 192.47 181.85 202.91 C 180.22 207.95 180.26 213.30 179.31 218.45 C 177.71 222.45 173.34 223.28 169.52 222.49 C 167.33 220.54 165.30 218.08 165.51 214.95 C 165.59 206.06 168.13 197.39 171.32 189.16 C 173.58 182.29 176.94 175.87 180.81 169.79 C 183.95 160.80 184.84 151.24 187.08 142.02 C 189.64 130.82 188.92 119.28 190.35 107.95 C 190.95 99.65 190.23 91.31 191.09 83.03 C 191.30 70.02 191.14 57.01 191.18 44.01 C 191.08 36.58 184.17 32.07 178.74 28.23 C 176.69 27.13 174.73 24.80 172.30 25.08 C 164.87 33.64 163.87 45.30 162.62 56.07 C 162.06 63.14 159.71 69.94 159.48 77.06 C 159.05 84.87 157.18 92.46 155.82 100.13 C 153.53 118.67 153.94 137.38 153.79 156.03 C 153.68 160.04 154.02 164.82 150.62 167.70 C 148.65 170.02 145.31 169.97 142.59 169.38 C 139.11 168.29 137.03 164.56 137.10 161.03 C 136.96 149.34 137.24 137.65 137.35 125.96 C 136.49 112.11 132.45 98.74 130.02 85.13 C 128.19 77.71 124.82 70.68 124.00 63.00 C 122.71 55.20 123.77 46.60 119.40 39.61 C 115.25 33.04 110.14 27.13 104.88 21.46 C 99.09 29.80 99.48 40.31 98.87 49.99 M 94.05 489.53 C 88.37 490.09 82.92 492.03 78.11 495.09 C 73.44 498.09 67.63 499.49 63.88 503.77 C 62.01 507.13 61.07 511.19 61.81 515.01 C 64.30 520.59 70.38 523.47 76.02 524.86 C 88.67 527.80 101.34 532.00 114.49 531.43 C 111.21 530.13 107.56 530.29 104.31 528.90 C 98.77 526.55 92.20 526.61 87.48 522.48 C 83.11 519.41 83.82 513.33 84.85 508.79 C 85.99 503.74 91.13 501.75 94.50 498.47 C 97.79 495.33 102.44 494.47 106.31 492.27 C 111.66 489.22 117.96 488.78 123.99 488.80 C 131.95 488.90 139.97 488.45 147.86 489.77 C 154.36 490.93 161.10 489.88 167.51 491.72 C 175.13 493.98 183.23 494.42 190.63 497.45 C 195.28 499.39 199.59 503.66 199.44 509.04 C 199.39 515.29 199.20 522.61 194.01 527.00 C 188.36 533.39 179.15 532.75 171.41 532.75 C 173.76 533.94 176.50 533.27 179.03 533.41 C 187.53 533.52 195.58 530.36 203.46 527.56 C 207.67 526.16 211.19 523.33 214.46 520.43 C 218.19 517.08 218.42 511.63 218.56 506.97 C 214.11 502.94 209.10 499.47 203.50 497.25 C 200.84 495.80 198.30 494.11 195.38 493.21 C 191.47 492.86 187.79 491.47 184.14 490.19 C 179.89 490.16 175.73 489.72 171.59 488.77 C 171.52 488.40 171.39 487.66 171.32 487.29 C 151.89 487.10 132.46 487.57 113.04 487.23 C 106.60 486.80 100.40 488.86 94.05 489.53 M 104.84 503.53 C 101.03 504.82 98.52 508.13 95.22 510.25 C 93.47 511.25 93.96 513.50 93.57 515.17 C 97.31 517.49 101.82 517.60 105.82 519.24 C 108.57 520.34 111.48 520.85 114.39 521.30 C 114.70 516.15 113.16 510.13 116.83 505.83 C 119.11 502.84 122.92 501.62 126.54 501.36 C 131.74 500.97 136.97 501.16 142.18 501.36 C 148.89 501.57 155.35 504.29 160.69 508.26 C 162.91 510.22 166.37 509.36 168.52 511.51 C 171.95 514.07 171.92 518.63 171.85 522.50 C 177.64 522.97 185.63 523.96 188.70 517.66 C 189.22 514.47 190.48 510.36 188.40 507.57 C 182.21 503.88 174.64 504.14 167.93 501.88 C 161.82 499.67 155.23 500.67 148.92 499.66 C 139.06 497.81 128.97 498.54 119.00 498.58 C 113.79 498.51 109.49 501.69 104.84 503.53 M 131.13 517.72 C 131.18 521.45 131.02 525.19 130.78 528.92 C 130.59 531.22 130.70 533.74 129.09 535.61 C 128.53 553.40 128.43 571.20 128.54 589.01 C 128.29 595.40 129.40 602.78 124.76 607.96 C 121.08 611.93 118.13 616.54 114.00 620.09 C 106.95 626.69 98.15 631.58 92.73 639.78 C 89.26 645.06 85.63 650.53 84.62 656.90 C 90.68 660.58 98.47 660.42 104.98 658.05 C 115.06 654.89 125.71 654.78 136.16 655.39 C 140.87 655.96 144.68 659.13 148.80 661.22 C 154.84 664.35 160.25 668.49 166.16 671.84 C 169.77 674.29 173.09 677.34 177.51 678.23 C 180.10 679.66 183.08 680.15 185.62 681.69 C 186.67 682.02 187.68 682.43 188.67 682.93 C 191.47 682.74 194.24 682.17 197.05 682.04 C 201.31 676.98 200.23 670.01 200.07 663.91 C 197.84 658.57 193.66 654.32 190.31 649.67 C 184.95 644.66 178.82 640.51 173.02 636.02 C 168.05 631.29 163.10 626.26 160.22 619.93 C 158.05 615.37 157.49 610.30 156.40 605.43 C 155.36 600.69 154.27 595.90 154.34 591.02 C 154.40 580.66 154.17 570.30 154.27 559.95 C 155.38 551.06 155.62 541.86 153.19 533.15 C 153.69 533.23 154.69 533.39 155.19 533.47 C 155.35 528.44 155.20 523.40 154.42 518.43 C 146.79 516.66 138.88 518.26 131.13 517.72 Z" />
<path fill="#000000" opacity="1.00" d=" M 123.84 634.84 C 129.17 632.35 135.71 633.29 140.54 636.52 C 143.36 638.46 145.78 640.91 148.34 643.18 C 145.28 645.87 140.93 644.94 137.66 643.18 C 133.22 640.83 127.74 642.22 123.41 639.66 C 121.37 638.63 121.75 635.56 123.84 634.84 Z" />
</g>
</svg>
