<?xml version="1.0" encoding="UTF-8" ?>
<!DOCTYPE svg PUBLIC "-//W3C//DTD SVG 1.1//EN" "http://www.w3.org/Graphics/SVG/1.1/DTD/svg11.dtd">
<svg width="343pt" height="333pt" viewBox="0 0 343 333" version="1.1" xmlns="http://www.w3.org/2000/svg">
<g id="#000000ff">
<path fill="#000000" opacity="1.00" d=" M 251.21 8.21 C 255.46 7.84 259.75 8.04 264.00 7.60 C 270.25 8.37 276.56 7.65 282.80 8.20 C 294.77 11.33 306.44 16.94 315.27 25.73 C 320.26 32.16 326.66 37.70 329.89 45.33 C 333.84 54.41 336.37 64.13 337.33 73.98 C 337.92 88.31 336.50 102.69 333.63 116.73 C 330.16 130.20 328.22 144.12 323.18 157.16 C 320.76 162.76 318.68 168.51 315.92 173.96 C 309.53 186.32 304.71 199.78 295.28 210.28 C 291.07 214.59 289.61 220.55 286.59 225.59 C 277.52 239.90 265.60 252.08 256.10 266.08 C 253.38 271.15 248.46 274.47 245.16 279.13 C 240.89 283.55 236.91 288.23 233.07 293.04 C 228.53 298.80 222.34 303.12 218.39 309.38 C 214.31 314.97 212.23 321.65 209.80 328.06 C 207.35 324.87 204.66 321.87 202.61 318.39 C 196.04 307.99 185.09 301.83 175.85 294.13 C 171.49 290.53 168.03 285.95 163.53 282.50 C 158.38 278.70 154.68 273.23 149.22 269.81 C 144.07 265.87 138.52 262.52 133.29 258.70 C 127.01 253.51 119.01 251.23 112.31 246.69 C 107.21 243.25 101.43 241.02 96.19 237.83 C 85.03 231.66 74.71 224.13 64.56 216.44 C 53.28 208.95 44.38 198.63 34.75 189.25 C 30.00 183.61 24.90 178.15 21.43 171.58 C 16.80 162.91 10.73 154.57 9.38 144.59 C 8.45 140.45 7.71 136.26 7.97 132.00 C 7.65 119.94 8.91 107.83 12.18 96.20 C 13.27 90.22 14.98 84.32 17.98 78.99 C 21.21 71.75 25.94 65.12 32.11 60.11 C 37.01 53.75 42.19 47.55 48.41 42.42 C 59.68 33.94 73.40 29.97 86.61 25.66 C 92.32 24.27 98.22 23.95 104.01 23.08 C 112.65 23.06 121.60 22.08 129.88 25.16 C 134.24 26.92 138.67 28.55 143.22 29.77 C 148.57 31.13 153.27 34.16 157.82 37.17 C 161.20 39.37 165.22 40.96 167.57 44.41 C 171.02 49.66 176.78 52.59 180.83 57.30 C 182.27 59.06 183.45 56.34 184.40 55.44 C 194.82 43.80 206.63 33.46 219.20 24.20 C 225.03 20.37 230.10 15.28 236.69 12.70 C 241.42 10.91 246.24 9.23 251.21 8.21 M 269.67 29.66 C 260.78 30.20 251.63 31.39 243.68 35.71 C 235.36 40.54 226.05 43.54 218.19 49.19 C 211.76 53.23 206.22 58.64 201.91 64.90 C 198.17 70.48 193.98 75.79 190.78 81.72 C 188.30 86.55 184.77 90.82 183.03 96.01 C 180.40 101.94 180.11 108.63 177.16 114.43 C 176.77 110.44 177.31 106.36 176.46 102.41 C 175.14 97.44 172.28 93.05 170.84 88.12 C 167.67 77.85 160.70 69.26 152.61 62.40 C 149.01 59.67 146.58 55.78 143.18 52.84 C 137.70 47.93 130.48 45.95 123.83 43.19 C 116.29 39.93 107.90 41.25 99.93 41.06 C 94.38 40.71 89.47 43.78 84.02 44.13 C 79.58 44.57 75.59 46.71 71.66 48.67 C 62.00 53.39 52.59 59.29 45.73 67.72 C 40.90 72.78 37.16 78.78 34.04 85.02 C 31.73 89.68 30.03 94.73 29.92 99.97 C 28.56 109.26 28.80 118.72 29.92 128.02 C 30.20 139.64 35.74 150.11 40.79 160.28 C 47.09 171.60 52.49 183.86 62.25 192.75 C 68.98 200.08 77.10 205.86 84.46 212.50 C 91.41 218.58 99.48 223.12 107.61 227.40 C 115.89 232.39 124.34 237.13 132.21 242.75 C 136.73 246.01 141.59 248.74 146.35 251.62 C 154.05 257.13 160.24 264.51 168.12 269.80 C 172.14 271.98 175.94 274.57 179.24 277.75 C 182.42 280.93 186.23 283.40 189.26 286.74 C 194.41 292.22 201.67 295.53 205.80 301.98 C 207.64 297.91 208.80 293.59 210.48 289.47 C 214.54 282.12 220.64 276.21 225.19 269.19 C 227.69 265.12 231.72 262.34 234.44 258.44 C 239.98 251.68 247.15 246.41 252.33 239.33 C 263.53 227.69 274.86 215.69 282.07 201.05 C 285.75 194.41 290.71 188.43 293.09 181.12 C 294.68 175.54 298.45 170.98 300.66 165.66 C 302.91 160.17 307.28 155.83 309.09 150.13 C 312.50 140.60 314.35 130.61 316.87 120.83 C 319.41 113.16 321.12 105.12 320.96 97.01 C 321.00 85.87 321.60 74.23 317.22 63.73 C 314.38 56.77 309.18 51.22 304.58 45.40 C 301.79 41.83 297.94 39.38 294.58 36.42 C 287.63 31.01 278.46 27.89 269.67 29.66 Z" />
<path fill="#000000" opacity="1.00" d=" M 247.40 65.38 C 258.29 63.23 268.34 69.30 277.21 74.79 C 284.15 78.98 288.86 85.85 292.15 93.10 C 291.12 94.79 290.03 96.45 288.82 98.02 C 286.94 98.00 285.06 98.00 283.18 98.02 C 280.02 94.07 278.37 88.91 274.18 85.83 C 268.79 81.94 263.02 78.35 256.64 76.36 C 248.36 74.83 240.15 77.54 232.04 78.90 C 230.57 78.43 229.25 77.62 227.92 76.87 C 227.79 73.82 227.69 70.37 230.79 68.74 C 235.90 66.25 241.91 66.61 247.40 65.38 Z" />
<path fill="#000000" opacity="1.00" d=" M 52.71 78.71 C 60.38 71.47 71.60 67.01 82.09 69.89 C 84.89 70.49 87.78 70.77 90.47 71.80 C 79.30 71.73 68.14 75.46 59.28 82.27 C 52.96 87.24 50.04 94.91 46.80 101.98 C 44.72 102.71 44.61 100.19 44.10 98.83 C 42.94 91.15 47.47 83.90 52.71 78.71 Z" />
<path fill="#000000" opacity="1.00" d=" M 111.93 69.76 C 117.05 70.07 120.06 74.63 123.27 78.00 C 120.11 76.49 116.77 75.47 113.41 74.56 C 111.20 74.07 112.26 71.33 111.93 69.76 Z" />
<path fill="#000000" opacity="1.00" d=" M 92.25 72.24 C 92.81 72.81 92.81 72.81 92.25 72.24 Z" />
</g>
</svg>
