<?xml version="1.0" encoding="UTF-8" ?>
<!DOCTYPE svg PUBLIC "-//W3C//DTD SVG 1.1//EN" "http://www.w3.org/Graphics/SVG/1.1/DTD/svg11.dtd">
<svg width="334pt" height="331pt" viewBox="0 0 334 331" version="1.1" xmlns="http://www.w3.org/2000/svg">
<g id="#020101ff">
<path fill="#020101" opacity="1.00" d=" M 254.33 5.51 C 291.98 0.65 326.75 33.96 327.91 70.99 C 329.64 115.66 315.73 159.99 293.37 198.35 C 289.19 205.42 282.52 210.99 279.87 218.95 C 272.04 234.92 258.57 247.08 248.76 261.76 C 233.77 283.90 208.84 299.60 200.73 326.01 C 190.28 306.65 170.30 296.82 155.64 281.39 C 118.32 244.45 62.34 231.90 29.42 189.60 C 18.27 174.31 9.23 156.69 6.06 138.01 C 6.35 113.41 5.16 86.60 18.96 64.98 C 36.57 31.31 78.04 18.75 113.71 21.30 C 131.83 26.12 151.32 32.33 163.30 47.69 C 166.60 50.39 169.61 53.48 172.99 56.08 C 188.04 39.11 205.68 24.08 225.00 12.01 C 234.09 7.53 244.18 5.40 254.33 5.51 M 253.39 29.46 C 231.15 35.23 211.92 49.95 197.07 67.07 C 184.78 77.60 179.60 93.23 173.58 107.65 C 171.89 109.81 172.40 115.02 169.17 114.86 C 163.61 107.24 161.18 97.47 160.71 88.12 C 156.67 77.52 147.40 70.23 140.27 61.73 C 129.81 49.34 113.15 46.84 98.83 41.27 C 65.24 39.56 31.81 64.00 24.10 97.08 C 22.24 115.86 20.48 136.95 31.77 153.17 C 40.60 175.95 56.99 195.04 76.36 209.61 C 95.41 227.36 122.79 232.27 141.24 250.76 C 159.11 269.62 184.91 279.72 199.47 301.87 C 214.21 272.81 239.00 250.69 256.30 223.29 C 266.67 215.54 268.40 201.95 276.92 192.95 C 283.27 180.92 288.01 168.19 292.31 155.32 C 303.34 130.77 314.08 104.28 311.26 76.89 C 311.08 64.87 302.50 55.91 296.91 46.06 C 291.34 38.44 282.55 29.83 273.01 30.99 C 265.46 37.47 261.64 24.43 253.39 29.46 M 268.21 29.28 C 268.04 34.16 273.49 28.00 268.21 29.28 Z" />
</g>
<g id="#fd5b71ff">
<path fill="#fd5b71" opacity="1.00" d=" M 253.39 29.46 C 261.64 24.43 265.46 37.47 273.01 30.99 C 282.55 29.83 291.34 38.44 296.91 46.06 C 302.50 55.91 311.08 64.87 311.26 76.89 C 314.08 104.28 303.34 130.77 292.31 155.32 C 288.01 168.19 283.27 180.92 276.92 192.95 C 268.40 201.95 266.67 215.54 256.30 223.29 C 239.00 250.69 214.21 272.81 199.47 301.87 C 184.91 279.72 159.11 269.62 141.24 250.76 C 122.79 232.27 95.41 227.36 76.36 209.61 C 56.99 195.04 40.60 175.95 31.77 153.17 C 20.48 136.95 22.24 115.86 24.10 97.08 C 31.81 64.00 65.24 39.56 98.83 41.27 C 113.15 46.84 129.81 49.34 140.27 61.73 C 147.40 70.23 156.67 77.52 160.71 88.12 C 161.18 97.47 163.61 107.24 169.17 114.86 C 172.40 115.02 171.89 109.81 173.58 107.65 C 179.60 93.23 184.78 77.60 197.07 67.07 C 211.92 49.95 231.15 35.23 253.39 29.46 Z" />
<path fill="#fd5b71" opacity="1.00" d=" M 268.21 29.28 C 273.49 28.00 268.04 34.16 268.21 29.28 Z" />
</g>
</svg>
