<?xml version="1.0" encoding="UTF-8" ?>
<!DOCTYPE svg PUBLIC "-//W3C//DTD SVG 1.1//EN" "http://www.w3.org/Graphics/SVG/1.1/DTD/svg11.dtd">
<svg width="960pt" height="600pt" viewBox="0 0 960 600" version="1.1" xmlns="http://www.w3.org/2000/svg">
<g id="#e3ca87ff">
<path fill="#e3ca87" opacity="1.00" d=" M 473.99 21.55 C 482.84 20.31 491.78 21.02 500.65 21.29 C 501.12 24.27 503.63 27.65 501.31 30.43 C 499.40 32.89 498.98 36.02 498.31 38.97 C 495.69 47.88 493.73 57.08 489.58 65.45 C 493.16 67.36 497.68 68.28 499.89 72.06 C 501.19 74.16 499.81 76.96 497.44 77.43 C 492.28 78.70 487.58 81.57 482.20 81.95 C 482.90 85.60 482.94 89.32 482.89 93.03 C 483.31 111.64 483.21 130.26 483.61 148.87 C 484.75 155.40 486.39 161.91 489.40 167.86 C 494.85 174.90 499.06 183.53 507.13 188.04 C 512.86 191.08 516.11 197.25 521.97 200.13 C 531.34 205.41 536.93 215.02 541.54 224.38 C 546.25 236.44 551.43 248.74 551.47 261.92 C 551.45 279.26 552.30 296.63 551.52 313.96 C 551.80 323.32 551.71 332.68 550.86 342.01 C 550.87 354.01 551.24 366.01 551.23 378.01 C 551.07 385.70 552.50 393.30 553.46 400.89 C 553.37 405.62 554.37 410.28 554.18 415.02 C 553.96 421.35 555.55 427.59 555.38 433.93 C 555.15 441.64 556.55 449.28 556.64 456.98 C 556.47 472.30 558.12 487.56 557.46 502.88 C 555.32 506.36 551.10 507.50 547.95 509.81 C 545.65 511.69 542.49 511.18 539.95 512.49 C 532.70 515.84 524.87 517.66 517.00 518.77 C 504.12 521.36 491.18 524.52 477.96 524.20 C 468.63 524.14 459.30 524.76 449.99 524.05 C 441.23 524.24 432.77 521.53 424.07 521.10 C 419.89 520.82 415.86 519.70 411.93 518.32 C 407.31 516.63 402.38 516.05 397.81 514.22 C 395.27 512.89 392.09 514.22 389.77 512.28 C 386.02 508.18 384.52 502.76 383.37 497.46 C 378.90 486.51 380.03 474.49 379.79 462.94 C 379.97 456.93 378.50 451.05 378.13 445.09 C 377.93 434.73 377.79 424.37 377.76 414.00 C 377.84 410.61 377.09 407.29 376.63 403.95 C 374.95 393.03 374.71 381.95 373.74 370.97 C 373.92 361.25 371.27 351.73 371.42 342.02 C 370.95 333.68 370.06 325.36 369.54 317.02 C 369.70 306.63 369.99 296.20 371.50 285.91 C 372.01 282.44 371.36 278.82 372.68 275.48 C 373.91 272.45 373.77 269.12 374.24 265.94 C 376.23 252.70 379.09 239.55 383.67 226.95 C 387.17 214.30 397.67 205.62 405.74 195.86 C 408.82 190.97 413.24 187.18 416.31 182.27 C 420.58 177.79 422.08 171.65 423.42 165.80 C 423.62 159.16 424.95 152.61 425.85 146.03 C 428.79 136.14 428.29 125.73 428.67 115.53 C 429.96 105.87 431.98 96.27 431.74 86.48 C 428.13 86.89 424.35 88.78 420.76 87.32 C 418.14 85.43 415.39 82.39 416.20 78.89 C 416.62 76.49 418.68 75.00 420.50 73.63 C 424.61 70.27 429.78 68.67 434.68 66.84 C 434.46 61.07 431.49 56.18 429.59 50.93 C 429.05 46.95 425.97 44.19 424.44 40.64 C 423.02 37.26 420.57 34.45 419.25 31.02 C 419.95 29.53 420.25 27.68 421.61 26.60 C 425.09 24.80 429.11 24.40 432.97 24.52 C 438.40 24.82 443.55 22.71 448.94 22.37 C 457.28 21.98 465.68 22.69 473.99 21.55 M 477.16 29.79 C 477.04 30.57 476.80 32.11 476.68 32.89 C 475.32 34.01 473.79 35.22 471.89 34.76 C 469.40 34.97 468.58 32.35 467.71 30.57 C 461.10 30.21 454.46 30.39 447.86 30.71 C 449.96 33.24 451.98 36.70 450.06 39.93 C 449.46 42.70 445.86 44.32 443.66 42.35 C 441.42 39.65 439.17 35.66 441.57 32.34 C 437.67 32.42 433.79 32.73 429.91 32.85 C 431.87 38.15 436.18 42.40 437.12 48.08 C 435.55 50.32 439.79 49.45 437.79 47.79 C 438.11 47.37 438.75 46.53 439.06 46.10 C 440.87 45.54 442.87 44.12 444.71 45.38 C 447.55 46.45 447.90 50.77 445.61 52.58 C 443.70 54.46 440.89 53.33 438.60 53.11 C 439.47 57.00 440.51 60.86 441.00 64.83 C 443.82 64.25 446.64 63.65 449.45 63.03 C 448.30 60.07 447.28 56.78 448.73 53.72 C 450.43 48.68 458.94 47.93 461.01 53.00 C 462.06 56.18 460.21 59.28 458.87 62.05 C 466.53 61.85 474.14 62.08 481.75 63.01 C 483.05 60.12 483.82 57.06 484.15 53.91 C 485.35 51.25 487.56 48.97 487.72 45.91 C 488.28 44.43 486.34 44.28 485.48 43.82 C 484.92 45.12 484.49 46.48 483.70 47.67 C 481.20 50.12 477.00 49.59 474.40 47.58 C 471.27 43.84 473.06 36.98 477.96 35.80 C 480.79 34.64 484.07 38.28 486.31 35.26 C 487.77 34.80 489.29 34.45 490.68 33.75 C 491.32 32.26 491.66 30.67 492.06 29.10 C 487.09 29.14 482.06 28.81 477.16 29.79 M 434.58 73.55 C 431.23 74.75 428.32 76.89 425.79 79.34 C 430.44 78.04 435.32 78.93 440.07 78.53 C 448.00 77.61 456.02 77.91 463.99 77.84 C 474.28 79.23 484.64 76.94 494.20 73.21 C 491.49 70.75 487.80 69.35 484.13 69.59 C 476.83 65.53 467.98 67.00 459.95 66.80 C 450.96 66.15 442.75 70.47 434.58 73.55 M 475.14 83.22 C 475.54 86.52 478.00 81.47 475.14 83.22 M 460.70 85.26 C 460.78 85.34 460.95 85.48 461.03 85.56 C 462.55 86.68 463.60 88.24 464.33 89.98 C 462.91 92.38 461.72 95.24 459.01 96.46 C 457.73 96.39 456.46 96.20 455.22 95.89 C 454.54 92.56 455.04 88.75 457.61 86.30 C 455.24 86.46 452.87 86.46 450.51 86.37 C 450.96 88.45 451.30 90.55 451.53 92.66 C 453.09 95.83 454.10 99.38 453.15 102.90 C 459.34 102.67 465.54 102.73 471.74 102.67 C 471.57 97.44 472.99 92.32 472.94 87.10 C 472.30 86.11 471.53 85.21 470.80 84.29 C 467.49 85.04 464.10 85.61 460.70 85.26 M 440.64 86.63 C 441.87 90.35 441.31 94.26 441.23 98.10 C 441.08 99.38 440.94 100.66 440.82 101.94 C 442.23 101.91 443.64 101.89 445.06 101.86 C 445.29 99.61 445.55 97.36 445.87 95.12 C 444.71 94.08 443.56 93.04 442.41 92.01 C 442.28 91.25 442.14 90.50 442.01 89.74 C 442.97 88.81 443.70 87.67 444.25 86.44 C 443.04 86.50 441.84 86.56 440.64 86.63 M 438.03 110.17 C 436.62 119.04 437.14 128.06 436.31 136.97 C 435.81 142.73 433.54 148.19 433.36 153.99 C 431.58 163.72 431.88 174.39 426.19 182.92 C 433.31 181.12 440.67 180.93 447.96 180.32 C 454.74 180.06 461.63 180.94 467.91 183.61 C 471.01 184.21 472.69 187.12 474.34 189.53 C 476.36 192.78 472.98 195.84 472.40 199.02 C 471.37 203.28 467.31 206.29 467.55 210.88 C 467.44 214.69 464.98 219.02 467.67 222.43 C 471.36 227.30 477.49 229.37 483.18 230.84 C 489.56 232.73 496.48 230.70 502.77 232.91 C 502.48 234.22 503.54 236.30 502.14 237.14 C 497.20 239.55 495.61 245.24 492.61 249.45 C 488.85 257.15 484.74 264.72 481.78 272.78 C 478.25 279.47 475.72 286.64 473.88 293.96 C 472.41 300.42 469.48 306.41 467.85 312.82 C 465.18 320.99 463.54 329.44 461.82 337.85 C 460.79 342.23 461.09 346.80 460.01 351.16 C 461.62 353.60 464.91 354.34 466.13 357.09 C 467.98 360.36 469.31 364.18 468.72 367.97 C 467.83 371.31 465.72 374.15 463.10 376.34 C 463.67 379.99 465.36 383.32 466.06 386.94 C 469.09 395.65 471.18 404.71 475.11 413.09 C 477.82 418.63 479.07 424.73 481.61 430.33 C 483.62 435.01 487.65 438.33 490.47 442.49 C 494.65 448.56 499.99 453.69 504.56 459.45 C 507.65 463.37 511.95 466.09 515.03 470.02 C 516.69 472.08 518.22 474.24 519.70 476.44 C 522.14 480.24 526.20 482.53 529.96 484.85 C 531.91 485.67 531.79 488.05 532.42 489.77 C 538.68 490.11 545.84 490.49 550.00 495.95 C 550.17 487.62 549.59 479.31 548.80 471.03 C 548.40 461.35 549.09 451.61 547.90 441.99 C 548.04 431.29 545.98 420.70 546.13 410.01 C 546.43 400.92 543.39 392.08 543.79 382.99 C 542.75 371.01 543.25 358.97 542.83 346.96 C 543.43 336.63 543.88 326.31 543.56 315.96 C 544.48 308.33 543.25 300.63 544.24 293.01 C 544.20 284.07 544.35 275.11 543.61 266.20 L 542.47 266.46 C 542.75 262.50 541.17 258.84 540.23 255.08 C 539.42 248.91 539.03 242.68 538.41 236.49 C 537.88 231.33 534.31 227.42 531.93 223.05 C 528.89 217.68 525.39 212.36 520.37 208.63 C 517.90 206.69 514.89 205.52 512.65 203.27 C 508.86 200.08 505.66 196.16 501.20 193.85 C 495.13 189.32 489.97 183.51 486.07 177.03 C 484.13 174.29 481.86 171.70 480.74 168.48 C 476.00 154.51 475.79 139.56 476.76 124.99 C 476.82 120.13 476.51 115.27 476.78 110.41 C 469.88 111.21 462.90 110.64 455.98 110.94 C 449.96 111.40 444.04 109.73 438.03 110.17 M 434.14 188.61 C 430.58 189.34 426.47 189.21 423.39 191.31 C 420.25 195.94 418.44 201.37 415.05 205.88 C 416.55 206.19 418.05 206.48 419.56 206.76 C 420.80 204.62 422.14 202.54 423.55 200.51 C 423.45 198.72 422.31 196.36 424.25 195.19 C 425.34 194.16 426.82 193.74 428.25 193.37 C 432.78 192.40 437.54 191.28 442.12 192.71 C 445.58 194.00 450.66 192.53 452.58 196.53 C 455.80 200.89 452.10 205.79 449.71 209.51 C 450.20 209.32 451.18 208.95 451.68 208.76 C 456.71 203.11 463.33 197.90 464.46 189.90 C 454.67 186.58 444.22 187.82 434.14 188.61 M 427.33 201.39 C 426.52 203.32 425.70 205.25 424.89 207.19 C 430.74 207.44 436.55 206.13 441.93 203.90 C 443.99 203.15 444.10 200.90 444.02 199.04 C 438.34 198.79 432.90 200.61 427.33 201.39 M 447.40 215.52 C 441.99 218.47 436.04 220.31 429.98 221.30 C 420.22 222.89 410.40 224.24 400.51 224.55 C 397.79 227.58 395.55 230.98 393.46 234.46 C 391.76 237.39 389.16 239.85 388.38 243.25 C 386.70 249.63 385.19 256.05 383.60 262.46 C 382.70 267.57 382.66 272.80 382.59 277.98 C 383.27 287.70 380.80 297.26 380.83 306.98 C 379.96 317.18 381.35 327.36 382.44 337.50 C 387.79 340.13 393.08 343.01 399.01 344.12 C 405.99 347.04 413.11 350.91 420.94 350.27 C 425.05 349.84 428.93 351.86 433.03 351.46 C 437.41 351.16 441.82 350.90 446.16 350.15 C 443.22 334.90 444.81 319.31 443.59 303.91 C 441.90 280.84 447.74 258.20 450.49 235.45 C 452.53 227.62 453.65 219.45 457.15 212.08 C 453.84 213.04 450.43 213.81 447.40 215.52 M 403.79 220.33 C 410.57 219.95 417.30 218.95 423.99 217.86 C 429.16 217.12 434.42 216.43 439.27 214.38 C 434.80 214.55 430.49 216.18 425.97 215.90 C 420.53 215.56 414.89 215.19 409.94 212.68 C 407.62 215.00 405.51 217.53 403.79 220.33 M 440.37 213.27 C 439.00 214.63 441.56 215.19 442.29 214.20 C 443.87 212.90 441.06 212.04 440.37 213.27 M 463.51 228.85 C 461.39 238.14 460.35 247.60 458.67 256.97 C 456.63 271.87 453.28 286.83 454.65 301.96 C 455.11 306.99 454.53 312.08 455.38 317.08 C 457.96 308.38 459.94 299.40 464.36 291.39 C 466.76 285.39 469.23 279.40 472.79 273.97 C 475.63 267.70 479.26 261.85 483.21 256.23 C 487.26 250.40 490.27 243.87 494.75 238.35 C 483.65 238.02 473.33 233.63 463.51 228.85 M 382.97 344.68 C 383.42 348.72 383.40 353.02 385.13 356.76 C 389.75 360.66 394.94 364.31 400.94 365.66 C 410.13 368.18 419.52 370.02 428.95 371.33 C 434.84 371.09 440.85 371.71 446.63 370.37 C 447.94 368.97 448.62 367.09 449.71 365.52 C 449.38 364.04 449.03 362.57 448.69 361.11 C 442.55 360.72 436.40 360.07 430.25 360.59 C 425.51 359.59 420.79 358.47 416.03 357.61 C 409.75 355.61 403.49 353.49 397.57 350.59 C 392.44 349.30 387.39 347.69 382.97 344.68 M 386.97 371.58 C 389.92 397.15 398.47 421.61 405.76 446.16 C 408.38 457.77 414.87 467.94 421.08 477.91 C 428.78 489.33 436.24 500.97 445.11 511.53 C 448.44 511.32 451.60 509.88 454.97 509.96 C 458.13 509.97 461.37 510.56 464.44 509.53 C 475.99 505.89 488.56 505.44 499.27 499.34 C 502.95 497.08 507.89 496.26 510.25 492.30 C 511.40 490.28 513.36 489.01 515.26 487.79 C 510.70 482.56 507.59 476.06 501.95 471.84 C 497.05 467.46 493.32 461.99 488.75 457.29 C 484.25 452.69 481.09 447.01 476.75 442.28 C 470.46 435.36 469.23 425.77 465.51 417.51 C 460.00 405.54 456.99 392.66 452.81 380.21 C 441.31 382.57 429.24 382.93 417.75 380.36 C 407.28 378.32 396.49 376.67 386.97 371.58 M 385.91 419.81 C 385.77 426.27 385.92 432.74 386.01 439.21 C 386.43 438.71 387.27 437.72 387.69 437.23 C 387.22 444.14 388.04 451.05 388.40 457.95 C 388.83 465.63 387.36 473.33 388.61 480.98 C 387.66 486.88 390.78 492.17 391.37 497.90 L 391.92 498.30 C 396.33 494.27 402.51 494.88 408.01 494.29 C 411.71 494.56 415.47 494.93 419.08 493.77 C 411.23 482.19 403.38 470.44 397.83 457.54 C 395.06 446.48 391.17 435.79 387.93 424.88 C 387.25 423.21 387.45 421.01 385.91 419.81 M 511.79 504.97 C 508.16 507.01 504.17 508.29 500.57 510.39 C 495.15 513.44 488.94 514.38 483.05 516.13 C 492.79 516.00 502.39 513.79 511.87 511.67 C 519.66 510.48 527.55 509.21 534.85 506.10 C 537.65 504.23 540.45 502.35 543.27 500.49 C 539.54 499.89 535.78 500.53 532.05 500.26 C 527.66 499.50 523.23 500.34 518.82 499.85 C 516.24 501.22 514.35 503.56 511.79 504.97 M 410.90 504.76 C 407.34 504.28 403.74 504.73 400.27 505.54 C 399.61 506.68 400.84 507.81 401.95 507.84 C 407.68 508.49 413.15 510.41 418.62 512.13 C 423.67 513.63 429.10 512.98 434.09 514.69 C 431.28 510.82 428.29 507.08 425.62 503.11 C 420.71 503.63 415.90 505.44 410.90 504.76 Z" />
<path fill="#e3ca87" opacity="1.00" d=" M 458.37 32.40 C 462.53 31.42 465.75 37.61 462.66 40.57 C 461.19 44.07 454.86 43.70 454.38 39.76 C 454.28 36.93 455.10 33.02 458.37 32.40 Z" />
<path fill="#e3ca87" opacity="1.00" d=" M 463.20 53.59 C 463.11 51.25 463.55 48.50 465.99 47.46 C 469.10 47.26 470.31 50.73 470.17 53.29 C 472.52 54.53 475.42 54.71 477.49 56.44 C 477.61 57.50 477.69 58.56 477.74 59.63 C 476.82 60.24 475.90 60.85 474.99 61.47 C 474.04 60.97 473.10 60.46 472.16 59.96 C 471.94 57.64 471.29 55.40 470.14 53.37 C 469.03 53.89 467.93 54.40 466.84 54.92 C 465.63 54.48 464.41 54.03 463.20 53.59 Z" />
<path fill="#e3ca87" opacity="1.00" d=" M 464.18 97.57 C 463.63 94.76 465.43 92.57 468.06 91.78 C 471.37 91.71 472.82 96.49 469.99 98.23 C 468.03 98.84 466.05 98.09 464.18 97.57 Z" />
<path fill="#e3ca87" opacity="1.00" d=" M 525.49 313.87 C 526.94 310.29 527.59 306.48 528.75 302.81 C 526.98 324.02 516.81 343.93 502.71 359.62 C 499.73 364.22 496.81 369.00 492.56 372.55 C 489.46 374.67 485.81 375.75 482.25 376.83 C 485.82 373.80 487.69 369.33 490.97 366.03 C 492.94 363.51 495.92 361.36 496.39 358.01 C 504.52 348.05 513.22 338.35 518.92 326.72 C 521.21 322.48 522.16 317.50 525.49 313.87 Z" />
<path fill="#e3ca87" opacity="1.00" d=" M 523.60 364.56 C 525.59 362.49 527.34 359.96 530.08 358.83 C 524.02 368.57 517.11 377.85 509.51 386.46 C 503.82 392.78 497.29 398.22 490.81 403.69 C 489.87 404.47 488.77 405.01 487.70 405.57 C 488.37 403.94 490.04 403.31 491.48 402.54 C 503.14 390.71 513.10 377.38 523.60 364.56 Z" />
</g>
<g id="#ffffffff">
<path fill="#ffffff" opacity="1.00" d=" M 477.16 29.79 C 482.06 28.81 487.09 29.14 492.06 29.10 C 491.66 30.67 491.32 32.26 490.68 33.75 C 489.29 34.45 487.77 34.80 486.31 35.26 C 484.07 38.28 480.79 34.64 477.96 35.80 C 473.06 36.98 471.27 43.84 474.40 47.58 C 477.00 49.59 481.20 50.12 483.70 47.67 C 484.49 46.48 484.92 45.12 485.48 43.82 C 486.34 44.28 488.28 44.43 487.72 45.91 C 487.56 48.97 485.35 51.25 484.15 53.91 C 483.82 57.06 483.05 60.12 481.75 63.01 C 474.14 62.08 466.53 61.85 458.87 62.05 C 460.21 59.28 462.06 56.18 461.01 53.00 C 458.94 47.93 450.43 48.68 448.73 53.72 C 447.28 56.78 448.30 60.07 449.45 63.03 C 446.64 63.65 443.82 64.25 441.00 64.83 C 440.51 60.86 439.47 57.00 438.60 53.11 C 440.89 53.33 443.70 54.46 445.61 52.58 C 447.90 50.77 447.55 46.45 444.71 45.38 C 442.87 44.12 440.87 45.54 439.06 46.10 C 438.75 46.53 438.11 47.37 437.79 47.79 L 437.12 48.08 C 436.18 42.40 431.87 38.15 429.91 32.85 C 433.79 32.73 437.67 32.42 441.57 32.34 C 439.17 35.66 441.42 39.65 443.66 42.35 C 445.86 44.32 449.46 42.70 450.06 39.93 C 451.98 36.70 449.96 33.24 447.86 30.71 C 454.46 30.39 461.10 30.21 467.71 30.57 C 468.58 32.35 469.40 34.97 471.89 34.76 C 473.79 35.22 475.32 34.01 476.68 32.89 C 476.80 32.11 477.04 30.57 477.16 29.79 M 458.37 32.40 C 455.10 33.02 454.28 36.93 454.38 39.76 C 454.86 43.70 461.19 44.07 462.66 40.57 C 465.75 37.61 462.53 31.42 458.37 32.40 M 463.20 53.59 C 464.41 54.03 465.63 54.48 466.84 54.92 C 467.93 54.40 469.03 53.89 470.14 53.37 C 471.29 55.40 471.94 57.64 472.16 59.96 C 473.10 60.46 474.04 60.97 474.99 61.47 C 475.90 60.85 476.82 60.24 477.74 59.63 C 477.69 58.56 477.61 57.50 477.49 56.44 C 475.42 54.71 472.52 54.53 470.17 53.29 C 470.31 50.73 469.10 47.26 465.99 47.46 C 463.55 48.50 463.11 51.25 463.20 53.59 Z" />
<path fill="#ffffff" opacity="1.00" d=" M 460.70 85.26 C 464.10 85.61 467.49 85.04 470.80 84.29 C 471.53 85.21 472.30 86.11 472.94 87.10 C 472.99 92.32 471.57 97.44 471.74 102.67 C 465.54 102.73 459.34 102.67 453.15 102.90 C 454.10 99.38 453.09 95.83 451.53 92.66 C 451.30 90.55 450.96 88.45 450.51 86.37 C 452.87 86.46 455.24 86.46 457.61 86.30 C 455.04 88.75 454.54 92.56 455.22 95.89 C 456.46 96.20 457.73 96.39 459.01 96.46 C 461.72 95.24 462.91 92.38 464.33 89.98 C 463.60 88.24 462.55 86.68 461.03 85.56 L 460.70 85.26 M 464.18 97.57 C 466.05 98.09 468.03 98.84 469.99 98.23 C 472.82 96.49 471.37 91.71 468.06 91.78 C 465.43 92.57 463.63 94.76 464.18 97.57 Z" />
<path fill="#ffffff" opacity="1.00" d=" M 441.23 98.10 C 441.54 96.05 441.60 93.93 442.41 92.01 C 443.56 93.04 444.71 94.08 445.87 95.12 C 445.55 97.36 445.29 99.61 445.06 101.86 C 443.64 101.89 442.23 101.91 440.82 101.94 C 440.94 100.66 441.08 99.38 441.23 98.10 Z" />
<path fill="#ffffff" opacity="1.00" d=" M 434.14 188.61 C 444.22 187.82 454.67 186.58 464.46 189.90 C 463.33 197.90 456.71 203.11 451.68 208.76 C 451.18 208.95 450.20 209.32 449.71 209.51 C 452.10 205.79 455.80 200.89 452.58 196.53 C 450.66 192.53 445.58 194.00 442.12 192.71 C 437.54 191.28 432.78 192.40 428.25 193.37 C 426.82 193.74 425.34 194.16 424.25 195.19 C 422.31 196.36 423.45 198.72 423.55 200.51 C 422.14 202.54 420.80 204.62 419.56 206.76 C 418.05 206.48 416.55 206.19 415.05 205.88 C 418.44 201.37 420.25 195.94 423.39 191.31 C 426.47 189.21 430.58 189.34 434.14 188.61 Z" />
<path fill="#ffffff" opacity="1.00" d=" M 427.33 201.39 C 432.90 200.61 438.34 198.79 444.02 199.04 C 444.10 200.90 443.99 203.15 441.93 203.90 C 436.55 206.13 430.74 207.44 424.89 207.19 C 425.70 205.25 426.52 203.32 427.33 201.39 Z" />
<path fill="#ffffff" opacity="1.00" d=" M 447.40 215.52 C 450.43 213.81 453.84 213.04 457.15 212.08 C 453.65 219.45 452.53 227.62 450.49 235.45 C 447.74 258.20 441.90 280.84 443.59 303.91 C 444.81 319.31 443.22 334.90 446.16 350.15 C 441.82 350.90 437.41 351.16 433.03 351.46 C 428.93 351.86 425.05 349.84 420.94 350.27 C 413.11 350.91 405.99 347.04 399.01 344.12 C 393.08 343.01 387.79 340.13 382.44 337.50 C 381.35 327.36 379.96 317.18 380.83 306.98 C 380.80 297.26 383.27 287.70 382.59 277.98 C 382.66 272.80 382.70 267.57 383.60 262.46 C 385.19 256.05 386.70 249.63 388.38 243.25 C 389.16 239.85 391.76 237.39 393.46 234.46 C 395.55 230.98 397.79 227.58 400.51 224.55 C 410.40 224.24 420.22 222.89 429.98 221.30 C 436.04 220.31 441.99 218.47 447.40 215.52 Z" />
<path fill="#ffffff" opacity="1.00" d=" M 403.79 220.33 C 405.51 217.53 407.62 215.00 409.94 212.68 C 414.89 215.19 420.53 215.56 425.97 215.90 C 430.49 216.18 434.80 214.55 439.27 214.38 C 434.42 216.43 429.16 217.12 423.99 217.86 C 417.30 218.95 410.57 219.95 403.79 220.33 Z" />
<path fill="#ffffff" opacity="1.00" d=" M 463.51 228.85 C 473.33 233.63 483.65 238.02 494.75 238.35 C 490.27 243.87 487.26 250.40 483.21 256.23 C 479.26 261.85 475.63 267.70 472.79 273.97 C 469.23 279.40 466.76 285.39 464.36 291.39 C 459.94 299.40 457.96 308.38 455.38 317.08 C 454.53 312.08 455.11 306.99 454.65 301.96 C 453.28 286.83 456.63 271.87 458.67 256.97 C 460.35 247.60 461.39 238.14 463.51 228.85 Z" />
<path fill="#ffffff" opacity="1.00" d=" M 382.97 344.68 C 387.39 347.69 392.44 349.30 397.57 350.59 C 403.49 353.49 409.75 355.61 416.03 357.61 C 420.79 358.47 425.51 359.59 430.25 360.59 C 436.40 360.07 442.55 360.72 448.69 361.11 C 449.03 362.57 449.38 364.04 449.71 365.52 C 448.62 367.09 447.94 368.97 446.63 370.37 C 440.85 371.71 434.84 371.09 428.95 371.33 C 419.52 370.02 410.13 368.18 400.94 365.66 C 394.94 364.31 389.75 360.66 385.13 356.76 C 383.40 353.02 383.42 348.72 382.97 344.68 Z" />
<path fill="#ffffff" opacity="1.00" d=" M 386.97 371.58 C 396.49 376.67 407.28 378.32 417.75 380.36 C 429.24 382.93 441.31 382.57 452.81 380.21 C 456.99 392.66 460.00 405.54 465.51 417.51 C 469.23 425.77 470.46 435.36 476.75 442.28 C 481.09 447.01 484.25 452.69 488.75 457.29 C 493.32 461.99 497.05 467.46 501.95 471.84 C 507.59 476.06 510.70 482.56 515.26 487.79 C 513.36 489.01 511.40 490.28 510.25 492.30 C 507.89 496.26 502.95 497.08 499.27 499.34 C 488.56 505.44 475.99 505.89 464.44 509.53 C 461.37 510.56 458.13 509.97 454.97 509.96 C 451.60 509.88 448.44 511.32 445.11 511.53 C 436.24 500.97 428.78 489.33 421.08 477.91 C 414.87 467.94 408.38 457.77 405.76 446.16 C 398.47 421.61 389.92 397.15 386.97 371.58 Z" />
</g>
<g id="#9e8d5e43">
<path fill="#9e8d5e" opacity="0.26" d=" M 437.12 48.08 L 437.79 47.79 C 439.79 49.45 435.55 50.32 437.12 48.08 Z" />
<path fill="#9e8d5e" opacity="0.26" d=" M 461.03 85.56 C 460.95 85.48 460.78 85.34 460.70 85.26 L 461.03 85.56 Z" />
<path fill="#9e8d5e" opacity="0.26" d=" M 440.37 213.27 C 441.06 212.04 443.87 212.90 442.29 214.20 C 441.56 215.19 439.00 214.63 440.37 213.27 Z" />
</g>
</svg>
