<?xml version="1.0" encoding="UTF-8" ?>
<!DOCTYPE svg PUBLIC "-//W3C//DTD SVG 1.1//EN" "http://www.w3.org/Graphics/SVG/1.1/DTD/svg11.dtd">
<svg width="1042pt" height="413pt" viewBox="0 0 1042 413" version="1.1" xmlns="http://www.w3.org/2000/svg">
<g id="#e3ca87ff">
<path fill="#e1c25e" opacity="1.00" d=" M 928.16 20.20 C 945.52 20.60 962.86 19.59 980.21 19.76 C 984.03 20.54 986.40 23.95 988.41 27.00 C 990.29 30.27 992.20 33.54 994.20 36.76 C 996.75 40.83 999.77 45.08 998.75 50.21 C 1003.78 60.24 1007.26 70.94 1010.15 81.75 C 1010.47 86.29 1012.52 90.54 1012.46 95.11 C 1012.37 96.34 1012.85 97.46 1013.37 98.55 C 1013.25 101.75 1014.50 104.73 1014.75 107.89 C 1017.61 119.32 1019.70 130.95 1021.49 142.60 C 1022.09 147.75 1023.93 152.71 1023.12 157.97 C 1023.42 158.40 1024.03 159.26 1024.34 159.70 C 1024.29 181.46 1024.67 203.23 1024.83 225.00 C 1024.94 226.45 1024.60 227.84 1023.88 229.10 C 1023.51 234.60 1025.02 240.19 1023.67 245.63 C 1022.99 248.04 1023.24 250.57 1023.15 253.04 C 1021.81 255.13 1022.54 257.68 1022.06 259.98 C 1021.38 263.31 1020.38 266.60 1020.25 270.02 C 1018.76 272.06 1019.63 274.70 1019.50 277.03 C 1017.17 280.58 1019.81 285.18 1017.60 288.82 C 1017.49 291.19 1018.14 293.83 1016.56 295.87 C 1016.60 296.62 1016.67 298.14 1016.71 298.90 C 1014.09 305.60 1012.51 312.66 1009.86 319.35 C 1009.93 319.70 1010.06 320.40 1010.13 320.75 C 1007.21 328.16 1006.78 336.57 1002.41 343.45 C 1004.31 347.53 1002.58 351.94 1000.49 355.58 C 998.32 358.35 994.88 359.49 991.76 360.78 C 988.61 363.94 984.30 365.76 979.82 365.65 C 974.96 366.50 970.56 369.07 965.70 369.73 C 962.15 371.06 958.65 372.74 954.81 372.95 C 952.96 373.68 950.98 373.90 949.02 373.81 C 945.59 373.59 942.38 375.05 938.99 375.13 C 922.69 375.33 906.38 375.33 890.08 375.59 C 887.38 377.31 884.03 376.32 881.04 376.75 C 878.49 378.15 875.50 377.63 872.74 377.77 C 869.07 379.45 864.95 378.59 861.07 378.82 C 840.05 379.21 819.02 379.45 798.00 379.53 C 789.41 380.99 780.76 382.33 772.08 383.23 C 767.45 384.63 762.32 382.80 757.93 385.09 C 752.30 385.84 746.22 383.97 740.90 386.25 C 735.29 386.62 729.54 385.64 724.10 387.37 C 717.73 387.65 711.35 387.46 704.97 387.66 C 701.45 389.85 697.11 387.75 693.39 389.17 C 690.76 390.13 687.88 389.46 685.22 390.28 C 681.17 391.43 676.80 390.16 672.85 391.85 C 664.95 392.88 656.77 391.20 649.02 393.29 C 634.26 393.06 619.70 396.24 604.93 395.86 C 591.55 395.37 578.14 395.36 564.84 393.88 C 554.92 393.72 545.22 390.58 535.27 391.51 C 531.07 390.79 526.78 390.29 523.10 387.94 C 520.74 387.78 518.39 387.70 516.03 387.78 C 515.61 387.48 514.76 386.89 514.34 386.60 C 511.91 386.76 509.48 386.79 507.05 386.82 C 506.60 386.55 505.69 386.01 505.23 385.74 C 503.92 385.76 502.62 385.77 501.32 385.77 C 491.09 382.70 480.24 382.60 470.06 379.36 C 461.90 377.58 453.86 375.35 445.89 372.90 C 440.29 370.86 434.26 370.16 429.05 367.13 C 421.48 365.06 413.96 362.34 407.88 357.23 C 403.81 353.83 399.02 351.35 395.06 347.79 C 393.25 345.94 390.49 345.10 389.36 342.64 C 385.02 339.72 381.91 335.41 377.92 332.09 C 372.72 328.94 369.44 323.43 363.76 320.91 C 359.18 317.67 354.98 313.97 351.27 309.75 C 350.74 309.55 349.66 309.16 349.12 308.97 C 347.21 306.38 344.00 305.38 341.63 303.31 C 339.48 301.40 337.05 299.83 334.94 297.89 C 330.98 295.78 327.15 292.79 322.55 292.46 C 321.16 291.94 319.77 291.45 318.39 290.93 C 316.12 290.51 313.96 289.65 311.90 288.65 C 311.16 288.71 309.69 288.83 308.95 288.90 C 308.51 288.58 307.63 287.95 307.19 287.63 C 299.82 288.45 292.51 287.09 285.33 285.56 C 281.88 284.69 278.19 285.83 274.87 284.31 C 269.75 284.35 264.91 282.34 259.95 281.31 C 257.26 280.49 254.37 280.52 251.75 279.45 C 249.13 279.19 246.14 280.30 243.86 278.55 C 236.95 278.21 229.91 279.39 223.15 277.74 C 217.77 277.63 212.38 277.61 207.01 278.08 C 204.72 276.49 201.95 276.72 199.33 277.09 C 197.87 275.51 195.77 275.84 193.87 276.11 C 193.06 275.67 192.25 275.23 191.45 274.79 C 187.86 275.82 184.46 273.93 180.87 274.11 C 178.60 273.27 176.17 273.05 173.81 272.57 C 169.10 271.71 164.15 273.23 159.56 271.59 C 156.16 271.16 152.69 271.62 149.27 271.46 C 148.94 274.71 150.51 277.66 150.58 280.87 C 151.76 283.06 151.36 285.68 152.50 287.90 C 152.30 288.18 151.90 288.76 151.70 289.05 C 151.91 292.88 149.12 295.75 146.55 298.20 C 144.31 299.25 142.70 301.24 140.52 302.40 C 135.07 303.89 128.78 301.95 125.63 297.11 C 123.26 293.33 119.83 290.26 118.05 286.12 C 115.65 281.89 114.15 277.25 112.22 272.81 C 111.18 270.52 110.43 268.12 109.90 265.67 C 105.87 265.93 101.96 267.00 98.06 267.97 C 92.10 268.21 87.57 272.53 82.16 274.42 C 77.35 276.44 71.79 276.57 67.53 279.85 C 62.58 284.18 56.22 286.33 50.52 289.46 C 46.85 291.77 43.54 294.97 39.12 295.74 C 35.58 296.39 32.46 294.23 29.53 292.60 C 28.51 290.37 27.22 288.19 27.13 285.68 C 26.89 285.27 26.40 284.43 26.16 284.02 C 26.17 283.25 26.20 281.71 26.21 280.94 C 24.47 278.28 25.41 274.96 25.14 271.98 C 25.45 265.25 24.83 258.48 23.00 251.99 C 22.79 250.31 22.68 248.59 21.90 247.05 C 22.11 242.95 20.42 239.10 20.58 235.02 C 20.51 221.31 20.39 207.61 20.24 193.90 C 18.46 190.55 19.45 186.64 19.12 183.02 C 17.73 180.93 17.92 178.36 17.84 175.97 C 17.80 166.28 17.82 156.58 17.58 146.89 C 19.71 142.96 18.00 138.26 18.63 134.01 C 19.36 131.41 21.50 133.26 23.07 133.72 C 23.45 133.25 24.22 132.31 24.61 131.84 C 28.32 130.59 33.21 129.08 36.53 132.01 C 39.86 135.29 44.58 136.28 48.98 137.27 C 56.11 138.36 62.75 141.34 69.76 142.92 C 75.91 143.85 81.71 146.17 87.51 148.32 C 94.14 150.39 100.82 152.48 106.97 155.80 C 108.51 153.45 109.70 150.90 110.32 148.15 C 111.08 145.18 113.18 142.85 114.61 140.20 C 116.80 138.24 118.60 135.65 121.43 134.56 C 123.81 134.22 126.32 134.24 128.36 135.68 C 128.99 136.67 129.65 137.64 130.40 138.55 C 131.62 141.68 132.47 144.94 132.89 148.27 C 137.06 155.38 138.86 163.56 140.27 171.60 C 140.68 171.33 141.48 170.79 141.88 170.53 C 143.92 170.28 145.84 169.42 147.90 169.30 C 156.25 169.15 164.62 169.45 172.96 168.90 C 203.89 168.64 234.83 168.36 265.76 168.07 C 269.76 167.62 273.94 168.42 277.78 166.97 C 280.81 166.25 283.90 165.73 286.90 164.87 C 293.71 164.36 299.63 160.80 306.03 158.80 C 310.66 157.28 314.76 154.46 318.30 151.16 C 323.32 146.83 330.17 144.99 334.35 139.65 C 338.06 138.04 339.90 134.05 343.47 132.18 C 349.19 127.32 351.89 120.03 356.33 114.14 C 362.31 107.53 369.19 101.72 374.50 94.54 C 375.63 92.32 376.74 90.08 377.82 87.83 C 378.21 87.54 378.99 86.96 379.37 86.67 C 380.51 83.47 383.87 81.86 385.04 78.72 C 388.02 75.37 391.50 72.58 394.87 69.67 C 395.62 69.26 396.38 68.86 397.15 68.46 C 398.36 66.87 400.13 65.90 401.76 64.81 C 407.31 61.65 412.56 57.97 418.28 55.13 C 425.46 51.22 433.16 48.38 440.92 45.85 C 454.84 40.34 469.11 35.21 484.02 33.30 C 488.48 33.85 492.61 31.75 497.04 32.18 C 529.02 31.50 561.02 31.57 593.01 31.09 C 593.46 31.38 594.35 31.96 594.79 32.25 C 609.49 31.48 624.23 31.76 638.95 31.62 C 640.18 32.41 641.52 32.72 642.97 32.55 C 647.66 32.42 652.45 31.98 657.03 33.32 C 686.36 33.24 715.70 32.51 745.04 32.40 C 748.98 31.50 752.98 31.14 757.04 31.16 C 759.78 29.63 763.04 30.40 766.04 30.11 C 768.13 28.87 770.60 29.14 772.95 29.04 C 777.68 26.88 783.00 28.34 788.01 27.81 C 798.03 25.81 808.35 27.06 818.52 26.49 C 821.93 24.38 826.33 25.92 830.15 25.41 C 831.32 24.75 832.57 24.25 833.96 24.38 C 842.65 24.30 851.34 24.29 860.03 24.16 C 861.08 23.74 862.11 23.04 863.29 22.93 C 869.19 22.68 875.22 23.45 881.00 21.87 C 896.10 21.61 911.21 21.51 926.31 21.42 C 926.77 21.12 927.70 20.50 928.16 20.20 M 940.05 35.41 C 934.67 36.96 929.06 36.16 923.56 36.46 C 922.50 37.18 921.30 37.59 920.02 37.47 C 902.94 37.62 885.86 37.73 868.78 37.93 C 867.58 38.43 866.38 39.10 865.05 39.09 C 857.70 39.36 850.33 39.09 842.98 39.44 C 838.67 41.02 834.04 40.20 829.56 40.49 C 824.02 43.27 817.17 39.82 811.68 42.65 C 804.11 42.67 796.54 42.78 788.97 42.78 C 785.64 42.91 782.14 42.60 779.06 44.12 C 777.38 44.16 775.70 44.17 774.04 44.15 C 773.60 44.44 772.71 45.02 772.27 45.31 C 770.18 45.24 768.11 45.20 766.04 45.15 C 765.59 45.45 764.68 46.05 764.23 46.34 C 761.52 46.31 758.57 45.71 756.17 47.29 C 749.79 47.48 743.41 47.34 737.03 47.48 C 734.26 47.30 731.75 48.86 728.98 48.59 C 706.33 48.52 683.69 49.38 661.04 49.25 C 655.34 47.01 648.97 49.49 643.06 48.22 C 638.15 46.84 633.01 47.94 628.00 47.68 C 618.67 47.38 609.25 48.59 600.01 47.10 C 588.96 47.16 577.91 47.32 566.86 47.39 C 564.83 45.95 562.27 46.57 559.96 46.43 C 545.96 46.60 531.96 46.71 517.96 46.82 C 514.57 47.48 511.19 48.13 507.72 47.90 C 508.17 48.76 508.62 49.62 509.08 50.48 C 503.85 49.81 498.42 50.37 493.55 52.44 C 487.97 54.60 482.00 55.59 476.03 55.50 C 468.40 56.31 460.80 57.61 453.10 57.54 C 448.30 58.28 443.43 59.11 438.92 61.00 C 434.13 62.97 430.36 66.68 425.78 68.99 C 418.92 72.91 412.08 76.86 405.81 81.70 C 401.61 84.45 398.62 88.55 394.90 91.86 C 393.02 95.02 390.43 97.71 388.80 101.03 C 386.88 104.80 384.34 108.23 381.13 111.00 C 377.21 114.25 375.42 119.69 370.63 121.93 C 365.68 129.11 361.67 137.09 354.98 142.90 C 351.63 147.01 346.94 149.62 343.49 153.61 C 340.59 156.92 336.25 158.32 332.84 160.98 C 326.54 165.02 320.96 170.18 314.09 173.29 C 312.98 173.38 311.97 173.71 311.04 174.28 C 309.21 174.85 307.38 175.40 305.51 175.82 C 300.75 177.48 295.70 177.86 290.78 178.87 C 288.88 179.65 286.83 179.81 284.80 179.82 C 284.33 180.07 283.40 180.59 282.93 180.84 C 281.19 180.81 279.45 180.79 277.72 180.73 C 277.28 181.03 276.40 181.62 275.97 181.91 C 266.30 181.68 256.65 182.45 246.98 182.27 C 241.69 181.99 236.26 183.14 231.11 181.52 C 219.49 181.30 207.86 181.78 196.23 181.63 C 197.05 182.96 197.77 184.38 197.54 186.00 C 197.70 202.61 197.64 219.23 198.14 235.84 C 196.55 238.28 197.41 241.24 197.19 243.95 C 195.19 248.49 196.77 253.81 196.28 258.66 C 199.40 259.89 202.73 260.01 206.04 259.82 C 207.32 260.23 208.57 260.95 209.97 260.76 C 214.71 260.61 219.45 260.74 224.19 260.62 C 225.38 261.12 226.59 261.89 227.97 261.65 C 233.30 261.54 238.63 261.48 243.96 261.50 C 244.25 261.74 244.84 262.22 245.14 262.46 C 247.75 262.44 250.36 262.34 252.97 262.22 C 253.31 262.51 253.98 263.07 254.32 263.36 C 261.91 263.20 268.96 267.23 276.50 267.07 C 276.55 267.37 276.64 267.99 276.69 268.29 C 280.15 268.24 283.86 267.43 287.08 269.08 C 288.97 268.78 290.95 268.76 292.50 270.06 C 300.71 270.69 308.98 271.20 317.10 272.86 C 320.58 274.25 324.14 275.44 327.84 276.08 C 332.93 276.92 337.32 279.78 341.75 282.27 C 340.07 273.93 338.13 265.56 338.16 257.00 C 337.43 251.31 337.33 245.56 336.67 239.86 C 335.89 231.87 337.34 223.93 338.11 216.00 C 338.49 213.23 339.36 210.58 340.00 207.87 C 340.73 204.78 342.93 202.21 343.31 199.01 C 343.56 197.10 344.61 195.45 345.46 193.77 C 346.48 192.93 347.35 191.93 348.15 190.88 C 348.66 190.76 349.68 190.54 350.19 190.42 C 351.20 189.33 352.25 188.26 353.21 187.10 C 356.44 185.44 360.51 183.98 363.91 186.04 C 367.53 188.09 371.34 189.65 375.39 190.56 C 379.41 193.01 384.76 193.83 387.73 197.67 C 391.47 200.05 396.08 199.08 400.21 200.17 C 405.08 201.05 409.99 201.90 414.91 202.39 C 419.99 201.06 424.52 197.46 427.10 192.92 C 427.47 192.74 428.20 192.38 428.56 192.20 C 430.62 186.47 434.73 181.46 435.64 175.39 C 436.61 172.54 437.18 169.57 438.37 166.79 C 439.29 159.24 439.87 151.61 439.64 143.99 C 439.95 139.16 439.25 134.05 441.90 129.73 C 444.21 129.67 446.59 128.84 448.89 129.40 C 452.02 130.96 451.89 135.30 454.77 137.09 C 456.69 138.84 458.99 140.05 461.26 141.28 C 463.74 144.54 468.35 144.79 471.33 147.44 C 472.43 148.50 473.66 149.45 475.09 150.06 C 488.09 156.25 500.98 162.68 514.00 168.84 C 515.15 168.88 516.37 168.84 517.41 169.45 C 524.15 172.61 530.75 176.07 537.54 179.13 C 541.76 178.65 544.66 183.08 548.89 182.56 C 555.92 185.69 563.62 187.11 571.07 188.94 C 574.75 190.77 578.98 191.06 582.52 193.26 C 588.37 194.83 593.94 197.60 599.92 198.55 C 603.04 200.11 606.61 200.29 609.73 201.88 C 612.69 202.01 615.24 203.81 618.20 204.05 C 620.72 205.38 623.57 205.46 626.33 205.87 C 634.98 207.69 643.48 210.16 652.25 211.40 C 660.71 213.83 669.77 212.32 678.14 215.10 C 680.26 213.52 682.64 212.01 683.52 209.36 C 685.57 204.37 690.82 202.64 695.09 200.13 C 700.87 198.18 707.16 196.18 713.26 197.85 C 716.15 199.19 719.03 200.56 721.86 202.04 C 724.29 204.15 726.45 206.57 728.82 208.77 C 736.01 208.02 742.25 203.84 749.50 203.22 C 760.69 198.45 772.78 196.47 784.01 191.80 C 794.12 189.15 803.21 183.76 813.01 180.27 C 818.08 179.01 822.76 176.58 827.84 175.30 C 833.32 173.71 838.35 170.94 843.35 168.22 C 845.05 166.87 846.77 165.54 848.52 164.23 C 850.93 161.28 854.27 159.33 857.21 156.98 C 860.75 154.24 864.14 151.21 868.16 149.16 C 872.08 145.02 877.02 141.93 880.90 137.70 C 888.40 131.26 896.11 125.05 903.31 118.24 C 903.87 117.33 904.33 116.30 905.17 115.59 C 908.26 112.91 910.35 109.27 913.62 106.79 C 917.86 103.53 922.20 100.41 926.35 97.04 C 929.63 95.67 932.23 93.14 934.84 90.80 C 936.68 89.21 937.33 86.66 939.35 85.22 C 940.74 81.88 943.86 79.69 944.95 76.18 C 946.22 71.94 951.35 70.55 955.29 70.95 C 955.57 68.40 955.82 65.86 955.85 63.30 C 957.11 58.97 956.67 54.35 957.89 49.98 C 958.55 48.21 959.23 46.45 959.96 44.69 C 961.88 40.56 965.36 37.52 968.80 34.66 C 959.22 35.15 949.61 35.07 940.05 35.41 M 977.57 47.10 C 976.55 51.82 975.91 56.68 976.52 61.51 C 977.20 67.35 976.36 73.20 975.51 78.96 C 976.04 83.19 976.55 87.43 976.16 91.70 C 974.00 96.85 977.66 101.58 981.40 104.74 C 987.91 112.96 991.26 123.00 995.66 132.39 C 996.04 132.77 996.81 133.51 997.19 133.89 C 997.59 136.44 998.95 138.61 1000.25 140.78 C 1001.96 145.57 1003.35 150.46 1004.52 155.39 C 1006.63 159.45 1005.98 164.29 1008.29 168.25 C 1008.34 164.44 1008.20 160.64 1008.14 156.84 C 1006.78 154.78 1007.20 152.26 1007.01 149.94 C 1005.66 147.71 1005.71 145.12 1006.11 142.64 C 1005.78 142.25 1005.12 141.45 1004.79 141.05 C 1005.02 136.39 1004.01 131.74 1002.89 127.25 C 1001.70 119.28 998.30 111.57 998.55 103.43 C 998.26 103.08 997.68 102.37 997.39 102.02 C 998.12 98.45 995.88 95.27 996.40 91.71 C 996.15 91.29 995.65 90.44 995.39 90.01 C 995.30 88.50 995.28 86.97 994.77 85.54 C 992.71 78.20 990.74 70.73 987.44 63.84 C 983.74 58.54 979.34 53.47 977.57 47.10 M 938.43 114.57 C 935.56 116.38 933.05 118.69 930.12 120.40 C 925.83 122.90 923.17 127.24 919.85 130.78 C 914.70 137.06 908.21 141.97 902.12 147.26 C 895.84 152.27 890.22 158.03 884.02 163.12 C 879.69 167.27 874.32 170.03 869.70 173.80 C 863.06 179.10 857.02 185.42 849.27 189.12 C 837.23 195.93 823.28 198.12 810.87 204.11 C 805.37 206.00 800.33 209.00 794.76 210.67 C 786.09 213.24 777.84 217.13 768.96 218.98 C 762.12 220.54 755.92 224.14 748.97 225.26 C 744.49 226.08 740.47 228.39 736.03 229.37 C 738.21 234.33 737.93 239.83 738.95 245.05 C 740.65 252.58 739.29 260.34 739.90 267.98 C 741.14 279.47 738.20 290.81 736.14 302.03 C 734.92 308.77 734.11 315.61 732.13 322.19 C 730.10 330.64 728.32 339.19 725.39 347.40 C 723.37 352.16 720.80 356.68 718.74 361.42 C 731.04 360.53 742.91 357.03 755.07 355.27 C 764.32 353.51 773.40 351.07 782.50 348.71 C 793.58 345.13 805.03 342.90 816.12 339.36 C 826.60 337.62 836.05 332.29 846.45 330.20 C 852.12 328.98 857.24 325.95 862.99 325.01 C 867.15 324.42 870.90 322.39 875.03 321.63 C 883.98 319.69 892.27 315.64 900.22 311.22 C 908.54 307.18 916.54 302.51 924.24 297.40 C 929.41 294.29 934.83 291.51 939.51 287.66 C 946.17 282.40 954.14 279.10 960.70 273.70 C 966.06 269.27 972.12 265.82 977.44 261.33 C 985.28 256.63 991.86 250.16 999.62 245.35 C 998.62 240.53 997.59 235.71 996.38 230.94 C 994.70 223.70 997.51 216.24 996.04 209.01 C 993.05 201.46 992.39 193.26 989.62 185.64 C 987.96 179.20 988.14 172.39 985.70 166.12 C 983.33 156.04 980.09 146.09 974.94 137.05 C 971.24 130.67 969.40 123.23 964.67 117.47 C 963.01 115.20 960.13 114.56 957.92 113.02 C 955.17 110.46 953.55 107.01 951.87 103.73 C 947.09 106.97 943.37 111.56 938.43 114.57 M 452.19 145.78 C 451.59 151.84 452.03 158.04 450.44 163.97 C 449.24 169.08 447.20 173.95 446.18 179.09 C 445.06 185.55 440.30 190.61 438.92 196.98 C 438.26 201.14 434.13 203.57 433.34 207.69 C 436.25 208.66 439.36 208.80 442.31 209.66 C 453.33 212.73 464.82 213.24 476.02 215.36 C 486.98 217.33 497.97 219.15 509.04 220.38 C 529.89 223.92 550.97 226.88 572.17 226.30 C 584.97 224.88 597.87 225.64 610.70 224.90 C 607.79 222.86 604.14 222.67 600.88 221.51 C 592.94 218.80 584.59 217.40 576.86 214.09 C 568.07 211.60 560.35 206.50 551.95 203.05 C 548.93 202.28 545.94 201.37 543.23 199.81 C 538.04 196.95 532.21 195.22 527.55 191.46 C 521.04 187.05 513.14 185.09 506.85 180.31 C 504.82 178.87 502.52 177.87 500.53 176.39 C 497.15 173.67 492.87 172.35 489.73 169.31 C 486.51 166.27 482.17 164.95 478.73 162.22 C 476.57 160.57 473.99 159.64 471.73 158.19 C 466.06 154.02 459.34 151.25 454.17 146.49 C 453.68 146.31 452.68 145.96 452.19 145.78 M 116.55 156.65 C 115.60 159.09 113.97 161.93 115.86 164.34 C 115.59 165.57 115.31 166.79 115.06 168.03 C 113.50 169.57 111.95 171.23 111.65 173.51 C 110.93 179.01 110.48 184.55 109.38 189.98 C 109.43 201.97 109.62 213.96 109.72 225.95 C 109.62 228.40 110.64 230.67 111.02 233.05 C 113.47 237.16 113.46 242.15 115.35 246.49 C 117.53 251.91 119.65 257.37 122.04 262.71 C 122.34 263.74 122.65 264.77 122.96 265.80 C 124.87 271.47 128.67 276.14 132.10 280.93 C 132.71 282.02 133.84 282.54 134.92 283.05 C 134.58 282.53 133.90 281.48 133.55 280.95 C 133.23 271.95 133.31 262.93 133.20 253.92 C 133.33 251.85 132.03 250.02 132.11 247.97 C 131.71 233.31 131.67 218.63 131.61 203.96 C 131.82 203.44 132.24 202.38 132.45 201.85 C 132.42 196.52 132.72 191.15 132.17 185.83 C 131.07 182.72 131.36 179.39 131.21 176.16 C 130.17 174.63 130.25 172.75 130.11 170.99 C 128.39 162.32 124.79 154.12 121.89 145.87 C 119.94 149.38 118.28 153.03 116.55 156.65 M 34.16 150.89 C 34.13 158.26 34.34 165.62 34.28 172.99 C 34.15 174.42 34.75 175.74 35.38 176.98 C 35.38 178.34 35.36 179.70 35.33 181.06 C 37.96 181.29 41.00 180.96 42.92 183.18 C 46.11 185.32 45.68 189.56 45.45 192.90 C 44.63 196.83 40.42 198.95 36.68 199.06 C 36.42 205.35 36.65 211.64 36.69 217.93 C 36.89 225.27 36.41 232.66 37.63 239.93 C 36.73 241.21 36.89 242.20 38.10 242.90 C 39.49 242.21 39.85 241.15 39.16 239.71 L 39.44 239.72 C 40.64 235.45 45.08 234.02 48.98 233.28 C 52.01 233.26 54.77 234.77 57.65 235.50 C 59.16 236.92 61.16 238.08 61.86 240.13 C 62.29 242.04 62.18 244.03 62.25 245.98 C 59.08 249.88 54.37 251.71 49.88 253.60 C 46.44 254.66 43.12 252.89 39.99 251.67 C 41.34 259.54 41.35 267.48 41.63 275.43 C 44.54 273.89 47.25 271.82 50.53 271.15 C 53.76 269.25 57.01 267.37 59.99 265.09 C 63.53 262.15 68.29 261.64 72.53 260.24 C 73.62 261.15 74.79 260.08 75.73 259.57 C 73.56 259.22 71.39 258.87 69.26 258.31 C 67.69 256.01 67.41 252.96 65.51 250.80 C 65.76 248.83 66.05 246.83 66.98 245.06 C 69.90 238.03 83.09 240.20 83.13 248.00 C 83.97 251.59 82.76 255.14 80.32 257.82 L 79.84 257.75 C 79.39 257.86 78.49 258.09 78.05 258.21 C 78.16 258.60 78.38 259.39 78.49 259.78 C 79.36 259.25 80.22 258.73 81.09 258.20 C 83.73 259.05 86.38 258.03 88.83 257.08 L 88.35 257.22 C 89.83 256.42 91.26 255.53 92.70 254.67 C 97.03 254.50 101.25 253.40 105.60 253.40 C 104.49 247.79 103.62 242.13 102.14 236.61 L 101.67 236.51 C 101.64 235.10 101.59 233.71 101.53 232.31 C 100.48 233.29 99.78 234.64 99.49 236.03 C 96.86 238.03 93.50 239.66 90.12 238.90 C 86.03 238.17 81.44 237.61 78.73 234.07 C 74.99 230.90 75.08 225.59 75.45 221.13 C 76.19 215.64 81.88 211.55 87.33 212.50 C 92.34 212.46 96.23 215.70 100.23 218.23 C 100.58 208.49 100.03 198.73 100.15 188.99 C 101.09 183.15 101.99 177.31 102.28 171.39 C 99.18 170.87 96.37 169.45 93.52 168.22 C 90.42 166.87 86.96 167.70 83.72 167.20 C 80.62 165.97 78.61 163.00 75.56 161.67 C 72.41 160.28 68.97 159.80 65.63 159.12 C 64.80 160.79 63.98 162.45 63.16 164.13 C 65.78 165.03 68.63 165.60 70.92 167.24 C 72.26 168.65 73.24 170.35 74.35 171.93 C 74.44 175.83 74.82 180.00 72.68 183.49 C 70.82 188.60 64.61 188.67 60.09 189.54 C 56.87 188.59 53.96 186.83 51.00 185.29 C 50.10 183.75 49.13 182.27 48.08 180.83 C 47.61 178.90 47.16 176.95 46.71 175.01 C 47.62 172.17 48.76 169.40 50.36 166.88 C 48.83 165.33 47.05 163.93 45.93 162.04 C 45.27 159.32 44.95 156.53 44.09 153.86 C 40.77 152.91 37.47 151.90 34.16 150.89 M 142.41 180.80 C 142.31 182.51 142.28 184.22 142.33 185.93 C 143.07 185.27 143.84 184.63 144.51 183.89 C 144.86 182.38 143.27 181.68 142.41 180.80 M 150.53 188.46 C 148.46 189.89 146.61 191.62 144.55 193.07 C 145.92 199.32 146.70 205.71 146.99 212.10 C 147.32 212.24 147.97 212.53 148.30 212.67 C 149.12 210.85 149.60 208.39 151.81 207.75 C 155.10 206.30 158.79 207.36 161.53 209.45 C 164.54 211.36 167.54 213.68 168.99 217.05 C 169.53 219.70 168.76 223.08 166.21 224.46 C 162.75 226.98 158.63 224.31 154.95 223.85 C 152.17 223.77 150.36 221.63 148.46 219.91 C 149.24 224.48 149.30 229.13 149.14 233.76 C 153.17 232.63 157.29 231.98 161.46 232.43 C 164.75 229.69 169.08 229.26 173.04 228.04 C 175.94 227.08 178.82 228.44 181.53 229.35 C 181.64 219.88 181.33 210.41 181.42 200.93 C 181.49 197.70 181.37 194.46 180.90 191.26 C 177.52 191.19 174.13 191.58 170.75 191.28 C 164.05 190.08 157.25 189.53 150.53 188.46 M 355.85 205.96 C 354.12 211.86 352.28 217.81 352.02 224.00 C 350.19 236.29 352.37 248.65 352.50 260.97 C 353.15 269.74 354.97 278.40 357.20 286.89 C 360.88 291.62 367.27 292.76 372.25 295.70 C 377.74 297.74 382.10 301.66 386.95 304.79 C 389.20 302.04 389.23 298.42 388.99 295.06 C 384.43 292.84 379.63 290.60 376.40 286.53 C 374.47 288.34 371.88 289.40 369.22 288.74 C 367.15 287.17 365.21 285.30 363.93 283.02 C 362.05 276.97 361.52 270.62 360.34 264.42 C 358.89 257.14 361.83 250.05 363.44 243.06 C 362.25 239.25 363.36 235.03 366.04 232.13 C 369.21 229.73 372.73 226.97 376.97 227.47 C 384.28 227.41 389.95 232.48 395.21 236.85 C 393.19 239.62 398.98 238.42 396.00 236.84 C 395.17 234.75 394.33 232.66 393.45 230.60 C 388.49 228.52 385.50 223.87 381.55 220.47 C 375.69 214.33 368.30 209.88 360.45 206.79 C 358.94 206.37 357.38 206.21 355.85 205.96 M 147.28 219.39 C 147.93 219.77 147.93 219.77 147.28 219.39 M 399.63 220.56 C 402.84 226.04 402.39 232.82 406.00 238.09 C 410.67 246.22 413.65 255.16 416.45 264.06 C 421.01 287.36 423.93 310.97 425.38 334.67 C 428.98 336.15 430.86 339.91 434.40 341.48 C 439.44 344.40 444.10 347.94 449.13 350.84 C 451.96 351.79 453.67 354.28 455.89 356.09 C 461.45 358.13 467.17 359.65 472.98 360.78 C 482.15 363.81 491.74 365.20 500.99 367.93 C 510.23 369.47 519.67 369.58 529.02 369.94 C 535.34 370.39 541.66 368.80 547.96 369.81 C 561.14 371.52 574.36 372.96 587.65 373.39 C 596.72 373.23 605.78 374.74 614.85 373.74 C 626.84 372.53 638.86 371.65 650.86 370.43 C 653.91 364.28 656.93 358.12 659.93 351.95 C 662.51 346.85 662.70 340.98 664.58 335.65 C 666.37 330.92 669.12 326.62 671.02 321.95 C 672.55 317.47 673.37 312.76 675.25 308.40 C 677.38 303.52 676.51 298.14 676.56 293.00 C 676.44 287.51 677.21 282.03 678.80 276.78 C 680.22 272.61 678.42 268.29 678.50 264.04 C 678.60 256.78 677.06 249.66 676.34 242.46 C 668.26 243.55 660.24 245.19 652.09 245.70 C 637.08 246.88 621.98 245.90 606.98 247.04 C 604.63 247.06 602.30 246.70 599.97 246.70 C 582.58 247.67 565.11 249.40 547.70 247.67 C 535.07 247.13 522.51 245.40 510.06 243.27 C 495.58 241.42 481.18 239.00 466.79 236.59 C 457.19 235.35 447.48 234.58 438.12 231.97 C 427.85 229.13 417.21 227.57 407.25 223.71 C 404.73 222.59 402.28 221.33 399.63 220.56 M 698.02 237.62 C 697.48 245.44 697.52 253.31 696.53 261.10 C 695.62 266.95 698.82 272.87 696.51 278.58 C 693.70 286.34 693.27 294.66 691.31 302.62 C 689.12 309.50 686.37 316.19 684.37 323.14 C 682.52 330.44 677.36 336.43 675.83 343.85 C 674.12 350.12 672.74 356.64 669.31 362.25 C 667.87 364.66 665.43 366.64 665.50 369.68 C 673.39 368.02 681.56 367.82 689.25 365.22 C 693.64 360.84 696.77 355.31 700.08 350.08 C 701.65 347.94 703.30 345.79 704.17 343.24 C 708.73 330.07 711.87 316.45 714.41 302.75 C 715.40 295.86 716.89 289.06 718.22 282.23 C 719.67 274.54 717.90 266.72 718.48 258.98 C 719.01 253.28 717.55 247.67 716.98 242.04 C 716.81 239.30 713.30 239.90 711.40 239.43 C 711.17 238.94 710.70 237.97 710.47 237.48 C 706.73 234.11 702.22 237.06 698.02 237.62 M 165.59 242.36 C 164.67 244.38 163.91 246.62 162.17 248.12 C 160.45 249.34 158.37 249.92 156.46 250.76 C 155.90 250.56 154.79 250.16 154.23 249.97 C 152.71 248.34 150.88 247.07 148.82 246.22 C 149.08 248.66 149.21 251.11 149.23 253.57 C 156.60 251.50 164.28 253.33 171.81 252.53 C 174.48 252.90 177.17 253.15 179.87 253.36 C 179.80 250.35 179.79 247.34 179.82 244.34 C 174.98 244.74 170.14 244.06 165.59 242.36 M 373.77 247.93 C 373.83 259.04 377.09 269.73 378.89 280.62 C 382.94 281.92 387.14 283.35 390.24 286.42 C 391.20 281.28 389.95 276.12 389.71 270.98 C 389.56 265.72 386.54 261.15 385.83 256.00 C 385.25 251.57 382.00 248.14 378.17 246.15 C 376.70 246.75 375.24 247.34 373.77 247.93 M 401.33 249.36 C 402.40 251.30 403.63 253.25 403.54 255.57 L 403.60 255.57 C 405.01 261.33 406.72 267.04 407.21 272.98 C 408.73 283.41 406.92 293.88 405.29 304.18 C 404.81 308.03 402.51 311.24 401.34 314.86 C 402.58 317.15 404.75 318.72 406.78 320.28 C 410.36 322.85 413.47 326.00 417.12 328.48 C 417.10 322.26 415.56 316.20 415.13 310.03 C 414.66 304.32 413.78 298.66 412.71 293.04 C 410.75 280.46 409.62 267.43 404.44 255.66 C 404.50 253.36 403.36 251.28 402.72 249.14 C 402.38 249.19 401.68 249.30 401.33 249.36 M 993.07 275.83 C 989.42 278.40 986.31 281.83 982.15 283.57 C 982.98 292.11 986.07 300.36 985.80 309.02 C 985.94 312.71 985.03 316.33 984.90 320.00 C 985.43 324.72 986.15 329.42 986.86 334.11 C 989.05 336.10 990.55 333.32 992.13 331.98 C 990.96 327.19 993.35 322.71 994.25 318.11 C 995.65 311.58 997.91 305.29 999.93 298.93 C 1001.72 293.39 1002.15 287.56 1002.72 281.81 C 1003.63 276.76 1002.94 271.36 1005.68 266.79 C 1001.64 270.04 997.12 272.60 993.07 275.83 M 954.66 302.56 C 950.01 306.62 944.40 309.31 939.55 313.09 C 937.91 313.94 936.28 314.80 934.64 315.63 C 927.49 320.95 919.35 324.90 911.68 329.40 C 910.65 329.77 909.61 330.13 908.61 330.51 C 905.93 333.15 901.87 333.66 899.04 336.16 C 894.99 336.56 892.23 340.13 888.13 340.23 C 881.61 341.78 875.25 343.90 868.78 345.64 C 863.92 346.03 859.75 348.73 855.09 349.85 C 850.32 351.12 845.95 353.57 841.12 354.58 C 833.93 355.65 827.52 359.52 820.31 360.50 C 817.81 361.10 815.30 361.99 813.18 363.45 C 827.37 363.45 841.58 362.81 855.76 363.22 C 855.26 362.79 854.77 362.36 854.30 361.95 C 853.03 361.43 851.82 360.82 850.91 359.80 C 863.07 359.92 875.26 359.71 887.34 358.28 C 898.54 358.13 909.75 358.09 920.94 358.86 C 926.02 359.65 931.11 358.60 936.09 357.63 C 939.75 357.43 943.39 358.03 947.06 357.89 C 953.64 357.31 959.83 354.78 966.03 352.72 C 968.13 352.65 970.23 352.67 972.35 352.67 C 972.28 351.49 972.24 350.33 972.19 349.17 C 968.83 347.79 968.20 343.86 966.84 340.92 C 965.29 337.60 966.18 333.89 965.69 330.39 C 965.46 327.75 964.83 325.16 964.60 322.53 C 963.88 314.66 967.01 306.58 963.78 298.97 C 963.95 298.45 964.29 297.42 964.46 296.91 C 960.94 298.32 957.50 300.01 954.66 302.56 Z" />
<path fill="#e1c25e" opacity="1.00" d=" M 694.24 74.46 C 696.00 75.73 697.85 76.89 699.49 78.34 C 702.67 80.44 705.61 82.93 709.02 84.70 C 710.96 87.01 713.90 88.07 716.23 89.94 C 721.25 93.82 726.50 97.37 731.46 101.33 C 734.09 103.01 735.88 105.78 738.81 107.02 C 741.07 109.06 743.00 111.54 745.77 112.95 C 752.05 118.96 758.29 125.03 764.40 131.22 C 766.31 134.74 770.11 136.72 771.86 140.33 C 775.46 143.25 777.74 147.34 780.88 150.69 C 781.86 152.53 785.13 153.54 784.28 155.95 C 783.11 154.37 781.90 152.80 780.42 151.50 C 774.13 146.10 768.94 139.47 762.08 134.73 C 754.20 126.86 745.00 120.54 736.80 113.04 C 734.26 111.91 732.56 109.63 730.43 107.95 C 718.09 98.24 705.25 89.04 694.48 77.53 C 694.39 76.50 694.31 75.48 694.24 74.46 Z" />
<path fill="#e1c25e" opacity="1.00" d=" M 581.52 78.73 C 588.44 77.23 595.26 79.48 602.14 80.13 C 615.67 83.70 628.96 88.13 641.71 93.93 C 650.99 98.15 659.86 103.23 668.41 108.77 C 670.35 110.09 672.39 111.28 674.02 113.00 C 679.85 115.89 684.24 120.85 689.51 124.55 C 691.44 125.95 692.99 127.78 694.73 129.40 C 697.14 131.80 701.10 132.08 703.03 135.04 C 704.55 135.81 706.08 136.56 707.63 137.30 C 707.89 137.72 708.41 138.56 708.68 138.98 C 711.42 139.75 713.10 142.12 714.98 144.09 C 723.88 149.62 725.98 160.69 729.85 169.67 C 729.59 169.66 729.07 169.63 728.81 169.62 C 727.43 167.23 725.33 165.56 722.75 164.62 C 719.90 161.86 716.49 159.47 712.92 157.67 C 712.71 157.25 712.27 156.40 712.06 155.98 C 711.52 155.78 710.45 155.37 709.91 155.17 C 707.45 152.10 704.47 149.42 701.12 147.38 C 700.85 147.02 700.31 146.31 700.04 145.95 C 697.39 144.56 695.42 141.58 692.07 142.37 C 683.74 135.59 675.66 128.34 667.07 121.97 C 662.99 118.32 658.44 115.16 653.89 112.13 C 652.20 110.44 650.17 109.18 648.22 107.83 C 638.57 102.25 629.12 96.17 618.59 92.37 C 615.83 91.03 612.84 90.20 610.14 88.76 C 608.41 87.39 606.57 86.16 604.52 85.34 C 604.54 84.95 604.59 84.17 604.62 83.78 C 603.07 83.55 601.45 83.65 600.04 82.90 C 594.23 80.21 587.81 79.37 581.52 78.73 Z" />
<path fill="#e1c25e" opacity="1.00" d=" M 87.54 181.55 C 89.26 179.31 92.48 179.39 94.98 179.91 C 96.85 180.94 97.76 183.08 98.53 184.97 C 97.97 187.29 96.80 189.51 95.03 191.11 C 93.07 191.47 91.06 191.35 89.10 191.65 C 86.86 192.27 85.06 193.82 83.12 195.01 C 83.30 192.90 84.10 190.95 85.12 189.12 C 86.40 186.74 85.34 183.49 87.54 181.55 Z" />
<path fill="#e1c25e" opacity="1.00" d=" M 159.35 197.91 C 160.84 194.82 163.20 191.78 166.97 191.79 C 169.46 192.51 172.83 193.94 172.87 196.98 C 172.96 200.19 172.98 204.08 170.26 206.31 C 168.07 206.67 165.33 207.11 163.65 205.29 C 161.41 203.39 160.50 200.51 159.35 197.91 Z" />
<path fill="#e1c25e" opacity="1.00" d=" M 71.05 199.15 C 73.57 197.42 76.01 195.39 79.04 194.63 C 82.14 195.43 84.97 197.99 85.65 201.17 C 85.50 204.29 83.84 208.69 80.07 208.47 C 75.00 208.81 69.79 204.55 71.05 199.15 Z" />
<path fill="#e1c25e" opacity="1.00" d=" M 44.97 208.89 C 47.82 207.97 51.05 206.17 53.98 207.84 C 56.64 209.35 59.32 211.07 61.27 213.46 C 62.73 218.17 61.57 225.36 55.93 226.49 C 50.14 226.48 42.25 224.83 40.70 218.26 C 39.34 214.49 42.64 211.37 44.97 208.89 Z" />
</g>
<g id="#ffffffff">
<path fill="#ffffff" opacity="1.00" d=" M 938.43 114.57 C 943.37 111.56 947.09 106.97 951.87 103.73 C 953.55 107.01 955.17 110.46 957.92 113.02 C 960.13 114.56 963.01 115.20 964.67 117.47 C 969.40 123.23 971.24 130.67 974.94 137.05 C 980.09 146.09 983.33 156.04 985.70 166.12 C 988.14 172.39 987.96 179.20 989.62 185.64 C 992.39 193.26 993.05 201.46 996.04 209.01 C 997.51 216.24 994.70 223.70 996.38 230.94 C 997.59 235.71 998.62 240.53 999.62 245.35 C 991.86 250.16 985.28 256.63 977.44 261.33 C 972.12 265.82 966.06 269.27 960.70 273.70 C 954.14 279.10 946.17 282.40 939.51 287.66 C 934.83 291.51 929.41 294.29 924.24 297.40 C 916.54 302.51 908.54 307.18 900.22 311.22 C 892.27 315.64 883.98 319.69 875.03 321.63 C 870.90 322.39 867.15 324.42 862.99 325.01 C 857.24 325.95 852.12 328.98 846.45 330.20 C 836.05 332.29 826.60 337.62 816.12 339.36 C 805.03 342.90 793.58 345.13 782.50 348.71 C 773.40 351.07 764.32 353.51 755.07 355.27 C 742.91 357.03 731.04 360.53 718.74 361.42 C 720.80 356.68 723.37 352.16 725.39 347.40 C 728.32 339.19 730.10 330.64 732.13 322.19 C 734.11 315.61 734.92 308.77 736.14 302.03 C 738.20 290.81 741.14 279.47 739.90 267.98 C 739.29 260.34 740.65 252.58 738.95 245.05 C 737.93 239.83 738.21 234.33 736.03 229.37 C 740.47 228.39 744.49 226.08 748.97 225.26 C 755.92 224.14 762.12 220.54 768.96 218.98 C 777.84 217.13 786.09 213.24 794.76 210.67 C 800.33 209.00 805.37 206.00 810.87 204.11 C 823.28 198.12 837.23 195.93 849.27 189.12 C 857.02 185.42 863.06 179.10 869.70 173.80 C 874.32 170.03 879.69 167.27 884.02 163.12 C 890.22 158.03 895.84 152.27 902.12 147.26 C 908.21 141.97 914.70 137.06 919.85 130.78 C 923.17 127.24 925.83 122.90 930.12 120.40 C 933.05 118.69 935.56 116.38 938.43 114.57 Z" />
<path fill="#ffffff" opacity="1.00" d=" M 452.19 145.78 C 452.68 145.96 453.68 146.31 454.17 146.49 C 459.34 151.25 466.06 154.02 471.73 158.19 C 473.99 159.64 476.57 160.57 478.73 162.22 C 482.17 164.95 486.51 166.27 489.73 169.31 C 492.87 172.35 497.15 173.67 500.53 176.39 C 502.52 177.87 504.82 178.87 506.85 180.31 C 513.14 185.09 521.04 187.05 527.55 191.46 C 532.21 195.22 538.04 196.95 543.23 199.81 C 545.94 201.37 548.93 202.28 551.95 203.05 C 560.35 206.50 568.07 211.60 576.86 214.09 C 584.59 217.40 592.94 218.80 600.88 221.51 C 604.14 222.67 607.79 222.86 610.70 224.90 C 597.87 225.64 584.97 224.88 572.17 226.30 C 550.97 226.88 529.89 223.92 509.04 220.38 C 497.97 219.15 486.98 217.33 476.02 215.36 C 464.82 213.24 453.33 212.73 442.31 209.66 C 439.36 208.80 436.25 208.66 433.34 207.69 C 434.13 203.57 438.26 201.14 438.92 196.98 C 440.30 190.61 445.06 185.55 446.18 179.09 C 447.20 173.95 449.24 169.08 450.44 163.97 C 452.03 158.04 451.59 151.84 452.19 145.78 Z" />
<path fill="#ffffff" opacity="1.00" d=" M 34.16 150.89 C 37.47 151.90 40.77 152.91 44.09 153.86 C 44.95 156.53 45.27 159.32 45.93 162.04 C 47.05 163.93 48.83 165.33 50.36 166.88 C 48.76 169.40 47.62 172.17 46.71 175.01 C 47.16 176.95 47.61 178.90 48.08 180.83 C 49.13 182.27 50.10 183.75 51.00 185.29 C 53.96 186.83 56.87 188.59 60.09 189.54 C 64.61 188.67 70.82 188.60 72.68 183.49 C 74.82 180.00 74.44 175.83 74.35 171.93 C 73.24 170.35 72.26 168.65 70.92 167.24 C 68.63 165.60 65.78 165.03 63.16 164.13 C 63.98 162.45 64.80 160.79 65.63 159.12 C 68.97 159.80 72.41 160.28 75.56 161.67 C 78.61 163.00 80.62 165.97 83.72 167.20 C 86.96 167.70 90.42 166.87 93.52 168.22 C 96.37 169.45 99.18 170.87 102.28 171.39 C 101.99 177.31 101.09 183.15 100.15 188.99 C 100.03 198.73 100.58 208.49 100.23 218.23 C 96.23 215.70 92.34 212.46 87.33 212.50 C 81.88 211.55 76.19 215.64 75.45 221.13 C 75.08 225.59 74.99 230.90 78.73 234.07 C 81.44 237.61 86.03 238.17 90.12 238.90 C 93.50 239.66 96.86 238.03 99.49 236.03 C 100.22 236.18 100.95 236.34 101.67 236.51 L 102.14 236.61 C 103.62 242.13 104.49 247.79 105.60 253.40 C 101.25 253.40 97.03 254.50 92.70 254.67 C 91.26 255.53 89.83 256.42 88.35 257.22 C 85.77 258.05 83.01 258.47 80.32 257.82 C 82.76 255.14 83.97 251.59 83.13 248.00 C 83.09 240.20 69.90 238.03 66.98 245.06 C 66.05 246.83 65.76 248.83 65.51 250.80 C 67.41 252.96 67.69 256.01 69.26 258.31 C 70.30 259.04 71.43 259.61 72.53 260.24 C 68.29 261.64 63.53 262.15 59.99 265.09 C 57.01 267.37 53.76 269.25 50.53 271.15 C 47.25 271.82 44.54 273.89 41.63 275.43 C 41.35 267.48 41.34 259.54 39.99 251.67 C 43.12 252.89 46.44 254.66 49.88 253.60 C 54.37 251.71 59.08 249.88 62.25 245.98 C 62.18 244.03 62.29 242.04 61.86 240.13 C 61.16 238.08 59.16 236.92 57.65 235.50 C 54.77 234.77 52.01 233.26 48.98 233.28 C 45.08 234.02 40.64 235.45 39.44 239.72 L 39.16 239.71 C 38.77 239.77 38.01 239.88 37.63 239.93 C 36.41 232.66 36.89 225.27 36.69 217.93 C 36.65 211.64 36.42 205.35 36.68 199.06 C 40.42 198.95 44.63 196.83 45.45 192.90 C 45.68 189.56 46.11 185.32 42.92 183.18 C 41.00 180.96 37.96 181.29 35.33 181.06 C 35.36 179.70 35.38 178.34 35.38 176.98 C 34.75 175.74 34.15 174.42 34.28 172.99 C 34.34 165.62 34.13 158.26 34.16 150.89 M 87.54 181.55 C 85.34 183.49 86.40 186.74 85.12 189.12 C 84.10 190.95 83.30 192.90 83.12 195.01 C 85.06 193.82 86.86 192.27 89.10 191.65 C 91.06 191.35 93.07 191.47 95.03 191.11 C 96.80 189.51 97.97 187.29 98.53 184.97 C 97.76 183.08 96.85 180.94 94.98 179.91 C 92.48 179.39 89.26 179.31 87.54 181.55 M 71.05 199.15 C 69.79 204.55 75.00 208.81 80.07 208.47 C 83.84 208.69 85.50 204.29 85.65 201.17 C 84.97 197.99 82.14 195.43 79.04 194.63 C 76.01 195.39 73.57 197.42 71.05 199.15 M 44.97 208.89 C 42.64 211.37 39.34 214.49 40.70 218.26 C 42.25 224.83 50.14 226.48 55.93 226.49 C 61.57 225.36 62.73 218.17 61.27 213.46 C 59.32 211.07 56.64 209.35 53.98 207.84 C 51.05 206.17 47.82 207.97 44.97 208.89 Z" />
<path fill="#ffffff" opacity="1.00" d=" M 150.53 188.46 C 157.25 189.53 164.05 190.08 170.75 191.28 C 174.13 191.58 177.52 191.19 180.90 191.26 C 181.37 194.46 181.49 197.70 181.42 200.93 C 181.33 210.41 181.64 219.88 181.53 229.35 C 178.82 228.44 175.94 227.08 173.04 228.04 C 169.08 229.26 164.75 229.69 161.46 232.43 C 157.29 231.98 153.17 232.63 149.14 233.76 C 149.30 229.13 149.24 224.48 148.46 219.91 C 150.36 221.63 152.17 223.77 154.95 223.85 C 158.63 224.31 162.75 226.98 166.21 224.46 C 168.76 223.08 169.53 219.70 168.99 217.05 C 167.54 213.68 164.54 211.36 161.53 209.45 C 158.79 207.36 155.10 206.30 151.81 207.75 C 149.60 208.39 149.12 210.85 148.30 212.67 C 147.97 212.53 147.32 212.24 146.99 212.10 C 146.70 205.71 145.92 199.32 144.55 193.07 C 146.61 191.62 148.46 189.89 150.53 188.46 M 159.35 197.91 C 160.50 200.51 161.41 203.39 163.65 205.29 C 165.33 207.11 168.07 206.67 170.26 206.31 C 172.98 204.08 172.96 200.19 172.87 196.98 C 172.83 193.94 169.46 192.51 166.97 191.79 C 163.20 191.78 160.84 194.82 159.35 197.91 Z" />
<path fill="#ffffff" opacity="1.00" d=" M 355.85 205.96 C 357.38 206.21 358.94 206.37 360.45 206.79 C 368.30 209.88 375.69 214.33 381.55 220.47 C 385.50 223.87 388.49 228.52 393.45 230.60 C 394.33 232.66 395.17 234.75 396.00 236.84 L 395.21 236.85 C 389.95 232.48 384.28 227.41 376.97 227.47 C 372.73 226.97 369.21 229.73 366.04 232.13 C 363.36 235.03 362.25 239.25 363.44 243.06 C 361.83 250.05 358.89 257.14 360.34 264.42 C 361.52 270.62 362.05 276.97 363.93 283.02 C 365.21 285.30 367.15 287.17 369.22 288.74 C 371.88 289.40 374.47 288.34 376.40 286.53 C 379.63 290.60 384.43 292.84 388.99 295.06 C 389.23 298.42 389.20 302.04 386.95 304.79 C 382.10 301.66 377.74 297.74 372.25 295.70 C 367.27 292.76 360.88 291.62 357.20 286.89 C 354.97 278.40 353.15 269.74 352.50 260.97 C 352.37 248.65 350.19 236.29 352.02 224.00 C 352.28 217.81 354.12 211.86 355.85 205.96 Z" />
<path fill="#ffffff" opacity="1.00" d=" M 399.63 220.56 C 402.28 221.33 404.73 222.59 407.25 223.71 C 417.21 227.57 427.85 229.13 438.12 231.97 C 447.48 234.58 457.19 235.35 466.79 236.59 C 481.18 239.00 495.58 241.42 510.06 243.27 C 522.51 245.40 535.07 247.13 547.70 247.67 C 565.11 249.40 582.58 247.67 599.97 246.70 C 602.30 246.70 604.63 247.06 606.98 247.04 C 621.98 245.90 637.08 246.88 652.09 245.70 C 660.24 245.19 668.26 243.55 676.34 242.46 C 677.06 249.66 678.60 256.78 678.50 264.04 C 678.42 268.29 680.22 272.61 678.80 276.78 C 677.21 282.03 676.44 287.51 676.56 293.00 C 676.51 298.14 677.38 303.52 675.25 308.40 C 673.37 312.76 672.55 317.47 671.02 321.95 C 669.12 326.62 666.37 330.92 664.58 335.65 C 662.70 340.98 662.51 346.85 659.93 351.95 C 656.93 358.12 653.91 364.28 650.86 370.43 C 638.86 371.65 626.84 372.53 614.85 373.74 C 605.78 374.74 596.72 373.23 587.65 373.39 C 574.36 372.96 561.14 371.52 547.96 369.81 C 541.66 368.80 535.34 370.39 529.02 369.94 C 519.67 369.58 510.23 369.47 500.99 367.93 C 491.74 365.20 482.15 363.81 472.98 360.78 C 467.17 359.65 461.45 358.13 455.89 356.09 C 453.67 354.28 451.96 351.79 449.13 350.84 C 444.10 347.94 439.44 344.40 434.40 341.48 C 430.86 339.91 428.98 336.15 425.38 334.67 C 423.93 310.97 421.01 287.36 416.45 264.06 C 413.65 255.16 410.67 246.22 406.00 238.09 C 402.39 232.82 402.84 226.04 399.63 220.56 Z" />
<path fill="#ffffff" opacity="1.00" d=" M 698.02 237.62 C 702.22 237.06 706.73 234.11 710.47 237.48 C 710.70 237.97 711.17 238.94 711.40 239.43 C 713.30 239.90 716.81 239.30 716.98 242.04 C 717.55 247.67 719.01 253.28 718.48 258.98 C 717.90 266.72 719.67 274.54 718.22 282.23 C 716.89 289.06 715.40 295.86 714.41 302.75 C 711.87 316.45 708.73 330.07 704.17 343.24 C 703.30 345.79 701.65 347.94 700.08 350.08 C 696.77 355.31 693.64 360.84 689.25 365.22 C 681.56 367.82 673.39 368.02 665.50 369.68 C 665.43 366.64 667.87 364.66 669.31 362.25 C 672.74 356.64 674.12 350.12 675.83 343.85 C 677.36 336.43 682.52 330.44 684.37 323.14 C 686.37 316.19 689.12 309.50 691.31 302.62 C 693.27 294.66 693.70 286.34 696.51 278.58 C 698.82 272.87 695.62 266.95 696.53 261.10 C 697.52 253.31 697.48 245.44 698.02 237.62 Z" />
<path fill="#ffffff" opacity="1.00" d=" M 165.59 242.36 C 170.14 244.06 174.98 244.74 179.82 244.34 C 179.79 247.34 179.80 250.35 179.87 253.36 C 177.17 253.15 174.48 252.90 171.81 252.53 C 166.99 252.02 162.14 252.70 157.31 252.27 C 157.10 251.89 156.67 251.14 156.46 250.76 C 158.37 249.92 160.45 249.34 162.17 248.12 C 163.91 246.62 164.67 244.38 165.59 242.36 Z" />
<path fill="#ffffff" opacity="1.00" d=" M 373.77 247.93 C 375.24 247.34 376.70 246.75 378.17 246.15 C 382.00 248.14 385.25 251.57 385.83 256.00 C 386.54 261.15 389.56 265.72 389.71 270.98 C 389.95 276.12 391.20 281.28 390.24 286.42 C 387.14 283.35 382.94 281.92 378.89 280.62 C 377.09 269.73 373.83 259.04 373.77 247.93 Z" />
<path fill="#ffffff" opacity="1.00" d=" M 403.60 255.57 L 404.44 255.66 C 409.62 267.43 410.75 280.46 412.71 293.04 C 413.78 298.66 414.66 304.32 415.13 310.03 C 415.56 316.20 417.10 322.26 417.12 328.48 C 413.47 326.00 410.36 322.85 406.78 320.28 C 404.75 318.72 402.58 317.15 401.34 314.86 C 402.51 311.24 404.81 308.03 405.29 304.18 C 406.92 293.88 408.73 283.41 407.21 272.98 C 406.72 267.04 405.01 261.33 403.60 255.57 Z" />
</g>
<g id="#8f7f554a">
<path fill="#e1c25e" opacity="" d=" M 785.12 156.99 C 786.74 156.45 787.28 157.00 786.72 158.64 C 785.09 159.16 784.56 158.61 785.12 156.99 Z" />
<path fill="#e1c25e" opacity="" d=" M 147.28 219.39 C 147.93 219.77 147.93 219.77 147.28 219.39 Z" />
<path fill="#e1c25e" opacity="" d=" M 395.21 236.85 L 396.00 236.84 C 398.98 238.42 393.19 239.62 395.21 236.85 Z" />
</g>
</svg>
