<?xml version="1.0" encoding="UTF-8" ?>
<!DOCTYPE svg PUBLIC "-//W3C//DTD SVG 1.1//EN" "http://www.w3.org/Graphics/SVG/1.1/DTD/svg11.dtd">
<svg width="778pt" height="785pt" viewBox="0 0 778 785" version="1.1" xmlns="http://www.w3.org/2000/svg">
<g id="#e3ca87ff">
<path fill="#e3ca87" opacity="1.00" d=" M 44.65 14.81 C 58.11 13.24 71.34 9.20 85.00 9.74 C 94.92 9.37 104.64 11.92 114.12 14.54 C 122.20 16.12 129.14 20.85 137.01 23.07 C 147.96 26.85 159.67 25.11 171.00 25.31 C 185.63 24.35 200.27 22.93 214.96 23.25 C 224.31 23.47 233.82 22.06 243.02 24.14 C 257.32 24.19 271.63 24.15 285.91 24.67 C 293.92 26.91 301.52 30.45 309.03 33.98 C 317.18 39.05 327.16 40.35 334.96 46.07 C 338.47 48.69 342.16 51.07 345.92 53.32 C 351.86 56.77 359.08 57.91 364.15 62.81 C 369.91 67.04 374.16 72.82 378.94 78.04 C 386.51 87.13 389.66 98.92 396.86 108.23 C 399.78 112.84 403.42 117.03 405.57 122.09 C 407.29 125.97 409.38 129.67 411.17 133.52 C 414.48 141.25 413.69 149.85 413.78 158.05 C 413.69 163.67 414.13 169.33 413.16 174.90 C 419.65 173.38 426.38 173.39 433.00 173.61 C 439.80 173.81 445.88 177.07 452.06 179.49 C 462.69 183.85 471.25 191.77 479.48 199.56 C 490.61 210.72 500.28 223.19 509.79 235.73 C 510.49 232.52 514.38 234.17 515.94 232.00 C 519.01 228.31 521.38 224.10 523.83 219.99 C 518.16 217.12 513.14 211.60 512.98 204.98 C 512.49 199.01 513.52 193.07 513.79 187.12 C 514.20 182.59 517.25 178.92 520.76 176.29 C 520.20 170.39 519.06 164.32 520.65 158.48 C 521.78 154.18 525.00 150.99 527.49 147.46 C 530.32 143.69 533.26 139.83 537.13 137.06 C 540.25 135.50 543.49 134.20 546.57 132.54 C 550.98 130.13 556.18 131.38 560.91 130.31 C 566.17 129.38 572.03 129.21 576.79 132.02 C 580.32 134.12 584.11 135.88 587.18 138.67 C 589.91 137.36 592.41 135.61 595.17 134.35 C 607.76 129.82 620.78 126.46 634.05 124.56 C 643.68 123.92 653.33 123.50 663.00 123.56 C 673.58 123.16 683.75 127.01 693.00 131.81 C 705.12 139.04 717.09 146.78 727.09 156.85 C 736.64 164.71 745.11 174.06 751.05 184.97 C 754.35 191.29 758.72 197.12 760.83 204.00 C 762.10 207.92 762.56 212.03 763.60 216.01 C 768.01 230.54 770.01 245.82 769.55 261.00 C 769.85 269.96 766.60 278.45 765.13 287.17 C 764.01 293.92 762.31 300.61 759.64 306.91 C 757.39 312.23 752.84 315.92 749.28 320.30 C 743.75 325.92 737.32 330.61 730.80 335.01 C 721.74 339.54 711.58 342.70 701.36 341.31 C 699.53 349.58 693.25 355.85 686.64 360.68 C 683.49 363.54 679.55 365.31 675.45 366.31 C 666.41 368.20 657.12 367.89 647.95 367.76 C 639.91 367.53 633.21 362.58 625.83 360.09 C 623.60 359.25 621.60 357.27 619.06 357.84 C 613.09 358.56 607.05 358.49 601.06 358.18 C 594.53 357.70 589.11 353.70 584.06 349.91 C 582.37 348.72 581.46 346.85 580.63 345.03 C 578.69 346.76 576.78 348.55 574.58 349.95 C 575.73 358.60 574.64 369.24 582.25 375.33 C 582.24 375.68 582.21 376.39 582.20 376.74 C 585.78 381.21 590.48 384.58 595.01 388.02 C 596.36 388.76 596.52 390.30 596.87 391.66 C 602.26 391.73 606.98 394.46 612.02 395.96 C 619.20 398.29 626.01 401.63 632.55 405.38 C 637.92 408.52 643.95 410.39 649.17 413.82 C 658.11 419.60 666.80 425.83 676.23 430.81 C 679.69 432.89 682.37 435.97 685.44 438.56 C 688.33 441.09 692.03 442.45 695.02 444.87 C 701.67 450.14 708.28 455.78 712.82 463.05 C 715.62 468.11 719.66 472.35 722.50 477.40 C 726.17 483.75 728.58 490.71 731.32 497.49 C 733.20 501.74 732.87 506.44 732.91 510.97 C 733.18 518.66 733.60 526.40 732.52 534.04 C 731.15 540.78 727.16 546.55 724.69 552.89 C 720.83 561.51 719.11 570.90 715.31 579.53 C 712.43 586.21 707.09 591.31 702.07 596.40 C 695.09 603.03 687.82 609.50 679.48 614.39 C 680.16 620.57 675.32 624.91 673.01 630.12 C 669.43 637.12 665.40 644.24 658.98 649.04 C 656.27 651.00 654.51 653.85 652.81 656.66 C 651.00 657.19 649.24 657.87 647.55 658.69 C 645.04 659.43 642.75 660.74 640.69 662.35 C 643.42 668.89 645.21 675.86 645.31 682.97 C 645.35 687.99 645.82 693.48 643.12 697.97 C 640.59 702.55 639.95 708.20 635.99 711.95 C 631.89 715.80 629.17 720.99 624.30 724.03 C 617.09 730.10 608.49 735.12 599.03 736.38 C 582.69 736.61 566.34 736.02 550.01 736.74 C 546.96 736.74 543.97 737.34 541.01 738.02 C 535.92 739.30 530.57 738.25 525.49 739.68 C 518.98 740.50 511.97 741.22 506.62 745.45 C 500.71 749.17 496.86 755.17 491.49 759.54 C 485.87 763.90 482.27 770.96 475.25 773.36 C 472.28 774.79 469.54 777.17 466.03 776.75 C 458.33 776.27 450.64 779.61 443.04 777.39 C 438.93 776.10 435.62 773.20 432.27 770.64 C 429.62 768.42 426.67 766.40 424.73 763.49 C 422.50 759.38 422.91 754.18 424.97 750.09 C 428.13 743.80 433.83 739.30 439.69 735.65 C 439.01 729.77 443.98 725.66 447.26 721.46 C 450.29 716.76 455.97 714.83 459.28 710.39 C 462.32 706.30 466.63 703.33 471.27 701.32 C 476.42 699.11 480.67 695.18 486.03 693.42 C 499.32 689.66 513.27 688.31 527.04 689.52 C 535.72 689.45 544.30 690.91 552.98 690.57 C 558.69 690.34 564.28 688.52 570.02 689.10 C 575.90 689.32 581.44 687.13 586.62 684.61 C 589.25 682.82 590.42 679.69 592.14 677.14 C 587.77 677.21 583.38 677.26 579.06 676.52 C 571.44 675.12 563.57 676.73 556.01 674.90 C 551.67 673.90 547.37 672.72 542.96 672.07 C 536.47 671.39 530.82 667.81 524.41 666.80 C 523.16 666.23 521.85 665.82 520.62 665.26 C 519.24 664.67 517.86 664.12 516.44 663.70 C 514.50 662.73 512.47 661.99 510.46 661.20 C 509.97 661.10 508.99 660.92 508.50 660.82 C 506.13 658.98 503.02 659.42 500.46 658.21 C 499.97 658.10 498.99 657.89 498.51 657.78 C 496.87 657.05 494.99 657.05 493.43 656.14 C 487.71 656.62 482.59 653.80 477.05 653.03 C 470.34 651.95 463.34 652.61 457.10 655.38 C 450.29 658.40 442.90 659.79 436.16 662.99 C 429.05 665.76 422.26 669.25 415.49 672.74 C 407.35 675.85 399.17 678.88 391.01 681.91 C 382.06 683.88 375.03 690.73 365.99 692.40 C 356.41 694.65 347.04 697.84 337.29 699.36 C 325.84 700.12 314.43 698.41 302.99 698.57 C 295.61 698.72 288.29 697.64 280.93 697.80 C 273.77 697.94 267.08 695.07 260.12 693.86 C 251.46 692.27 243.23 688.78 235.70 684.27 C 231.77 682.00 226.22 681.31 224.50 676.44 C 222.34 670.28 220.43 663.64 221.69 657.08 C 222.85 652.41 226.57 649.06 230.11 646.09 C 235.50 641.87 240.29 636.57 246.88 634.21 C 256.52 630.73 266.96 630.92 277.05 631.28 C 291.84 634.24 307.01 633.04 321.99 633.31 C 338.74 632.19 356.00 630.22 371.11 622.35 C 378.11 619.01 384.70 614.88 391.85 611.85 C 399.57 606.87 407.96 603.01 416.48 599.61 C 423.56 597.37 429.74 592.32 437.45 592.26 C 437.83 591.33 438.21 590.40 438.60 589.49 C 443.07 587.32 448.31 588.51 452.96 589.52 C 457.21 590.80 461.68 590.29 466.05 590.38 C 471.81 590.26 477.23 592.63 482.95 592.98 C 497.06 593.09 510.05 599.28 523.25 603.44 C 530.17 606.06 536.98 609.09 544.13 611.08 C 539.90 607.35 536.60 602.77 534.05 597.78 C 529.01 591.45 524.41 584.76 520.28 577.81 C 516.79 570.93 513.40 563.69 507.51 558.49 C 497.94 549.77 487.68 541.44 480.60 530.44 C 476.18 523.17 470.43 516.46 468.40 508.01 C 467.99 506.34 465.89 506.96 464.66 506.87 C 459.06 506.60 454.54 510.92 448.96 510.75 C 443.17 510.49 437.71 513.21 431.91 512.71 C 427.60 512.33 423.42 513.92 419.10 513.82 C 407.99 514.55 395.93 514.17 386.42 507.63 C 379.37 503.25 374.68 494.62 376.58 486.27 C 374.89 491.60 369.99 494.68 366.89 499.06 C 364.09 502.86 360.04 505.43 356.52 508.50 C 353.29 511.33 348.81 511.51 344.90 512.82 C 341.09 514.18 337.00 513.67 333.05 513.74 C 328.74 513.66 324.40 513.96 320.11 513.48 C 309.67 510.83 299.32 507.04 290.64 500.49 C 286.32 496.87 280.80 495.03 275.32 494.05 C 257.95 491.75 240.26 493.09 223.00 489.86 C 218.47 488.74 213.38 487.41 210.43 483.50 C 208.59 478.26 211.07 472.47 214.52 468.47 C 216.89 465.89 218.66 462.71 221.57 460.65 C 225.36 457.97 229.46 455.52 234.07 454.61 C 241.08 453.91 248.74 452.87 254.98 456.98 C 263.90 460.24 272.24 465.56 281.93 466.33 C 289.33 466.86 296.49 469.45 303.97 469.18 C 309.96 469.03 316.06 469.69 321.95 468.23 C 324.01 468.18 324.73 466.06 325.71 464.63 C 328.86 459.05 332.65 453.55 333.64 447.08 C 334.66 441.77 333.90 435.82 337.06 431.12 C 340.39 426.53 345.85 424.38 350.44 421.34 C 355.83 417.63 363.02 419.99 368.50 416.48 C 372.05 414.22 375.70 412.04 379.82 410.99 C 378.73 406.99 378.45 402.56 375.90 399.12 C 372.50 393.93 367.52 390.12 363.12 385.85 C 358.31 380.89 351.86 378.07 345.81 374.96 C 341.34 372.36 335.98 372.97 331.03 372.80 C 325.73 372.46 321.27 375.66 316.42 377.17 C 312.71 378.30 309.44 380.67 305.45 380.78 C 296.42 384.62 286.46 382.78 276.95 383.22 C 267.88 383.64 259.12 380.15 251.94 374.81 C 246.91 373.77 242.04 376.25 237.00 375.86 C 229.34 375.48 221.39 375.84 214.15 372.95 C 210.03 370.87 206.41 367.48 204.68 363.15 C 202.71 358.33 200.75 353.38 197.74 349.13 C 191.40 343.75 182.53 345.92 174.99 346.40 C 165.78 346.19 156.51 347.29 147.34 346.10 C 142.13 344.81 136.73 345.26 131.46 344.39 C 125.89 343.20 120.72 340.07 116.88 335.91 C 115.48 331.96 115.55 326.84 118.64 323.64 C 123.98 317.22 130.95 311.89 139.01 309.48 C 143.77 307.56 148.96 308.27 153.96 308.11 C 157.98 307.94 161.96 308.42 165.93 309.01 C 167.59 309.56 168.86 308.41 170.01 307.42 C 170.76 307.43 172.27 307.43 173.02 307.44 C 179.79 312.07 188.38 310.04 196.04 310.51 C 200.55 311.03 204.52 308.40 208.94 308.27 C 212.98 308.11 217.42 307.74 220.90 310.24 C 226.28 312.88 229.09 318.39 231.69 323.49 C 233.04 326.58 235.63 329.32 238.93 330.28 C 244.50 330.49 250.38 329.10 255.68 331.45 C 260.30 332.59 265.38 332.87 269.40 335.71 C 271.48 337.31 273.49 339.01 275.80 340.29 C 277.79 339.75 279.77 339.22 281.75 338.65 C 282.80 333.05 282.38 326.88 285.55 321.91 C 289.51 315.85 295.50 310.65 302.85 309.50 C 307.29 309.01 311.76 309.10 316.21 309.41 C 314.75 302.11 313.32 294.68 311.61 287.52 C 307.63 286.48 303.46 287.02 299.44 286.30 C 293.70 285.19 287.83 285.68 282.03 285.59 C 275.90 285.71 269.92 284.22 263.88 283.44 C 259.88 282.81 255.74 282.78 251.91 281.32 C 246.78 279.42 241.28 279.00 236.03 277.55 C 229.99 276.26 224.24 273.42 217.94 273.72 C 211.52 274.15 207.44 268.55 203.65 264.30 C 198.71 262.32 195.72 257.64 193.62 252.98 C 191.93 247.13 192.65 240.83 193.99 234.98 C 195.71 227.69 201.27 222.44 205.40 216.51 C 213.16 211.90 222.42 213.28 231.04 213.15 C 236.77 213.08 241.64 216.69 247.16 217.70 C 251.87 218.47 256.67 218.61 261.38 219.43 C 265.85 220.94 270.40 222.30 274.57 224.55 C 282.92 226.79 291.60 228.53 300.28 227.49 C 301.44 218.86 305.36 211.04 308.33 202.97 C 310.69 197.66 308.63 191.14 312.36 186.34 C 313.30 184.78 315.09 184.47 316.75 184.25 C 317.28 179.82 316.74 175.13 318.92 171.07 C 319.99 166.87 320.03 162.33 319.53 158.06 C 316.07 151.31 310.37 145.51 303.22 142.74 C 298.64 140.99 294.04 138.64 289.00 138.85 C 282.65 138.97 276.21 138.41 269.97 139.90 C 266.37 140.82 262.64 140.59 258.97 140.77 C 255.58 142.34 251.71 142.42 248.53 144.46 C 241.14 148.51 233.51 152.08 226.05 156.01 C 221.19 158.51 215.86 160.16 211.41 163.43 C 207.27 166.36 202.86 169.01 197.98 170.51 C 191.51 172.79 184.46 173.20 178.27 176.30 C 172.13 179.24 166.18 182.68 159.53 184.37 C 146.66 189.21 133.70 194.16 120.09 196.53 C 107.61 197.41 94.38 196.97 83.15 190.83 C 77.70 187.35 71.74 184.49 67.07 179.93 C 63.44 176.03 59.70 171.61 59.30 166.05 C 59.00 160.13 58.69 153.47 62.60 148.54 C 67.37 142.93 74.92 141.47 81.55 139.18 C 101.40 132.27 122.59 136.51 143.05 134.96 C 149.28 133.51 155.80 135.08 161.97 133.28 C 166.56 131.94 171.34 131.42 175.94 130.18 C 180.73 128.59 184.98 125.77 189.59 123.77 C 193.22 122.26 197.06 121.32 200.89 120.44 C 206.16 119.38 210.83 116.51 216.01 115.14 C 219.31 114.62 221.51 111.95 224.02 110.02 C 227.64 106.92 231.91 104.61 235.20 101.11 C 240.63 95.66 247.92 92.69 253.75 87.75 C 256.68 85.26 259.66 82.82 262.89 80.72 C 252.15 80.10 241.78 83.37 231.17 84.41 C 207.09 86.94 182.30 89.65 158.49 83.68 C 156.84 82.91 155.21 82.12 153.60 81.28 C 152.52 80.76 151.45 80.23 150.37 79.72 C 149.87 79.47 148.88 78.98 148.38 78.73 C 143.88 76.13 139.10 73.80 133.87 73.21 C 122.98 71.81 111.83 70.99 100.96 73.01 C 85.39 75.04 69.64 74.70 53.98 74.28 C 43.75 72.57 33.22 71.58 23.53 67.62 C 18.04 65.39 13.19 60.92 11.74 55.02 C 11.38 51.69 11.47 48.33 10.87 45.02 C 11.89 37.00 16.57 29.71 23.09 25.02 C 29.88 20.85 37.23 17.65 44.65 14.81 M 75.86 22.18 C 68.67 22.36 61.37 22.86 54.54 25.33 C 49.94 27.05 44.79 27.74 40.80 30.76 C 36.62 36.04 29.89 39.80 28.76 47.01 C 29.63 49.79 31.04 52.36 32.09 55.08 C 33.90 60.29 40.07 61.11 44.53 63.02 C 41.94 56.57 42.22 47.59 48.20 43.02 C 51.79 40.25 56.43 38.39 61.02 39.07 C 65.12 39.59 69.54 39.47 73.19 41.75 C 77.91 44.73 81.69 50.13 80.88 55.95 C 81.30 60.27 77.64 63.29 74.06 64.80 C 81.40 63.42 88.70 61.67 96.18 61.18 C 95.24 54.28 99.12 47.63 104.72 43.86 C 109.52 40.73 115.52 41.04 121.01 40.84 C 126.14 40.65 130.53 44.03 133.50 47.91 C 136.23 51.61 135.48 56.45 135.42 60.75 C 138.44 61.68 141.39 62.86 144.45 63.72 C 149.51 64.99 154.77 64.94 159.94 65.50 C 161.77 65.71 163.55 66.88 163.64 68.89 C 163.67 70.77 166.04 70.14 167.23 70.71 C 167.19 67.31 166.49 63.45 168.66 60.50 C 172.32 55.38 178.89 53.26 184.96 53.16 C 191.84 52.91 199.20 52.94 205.24 56.75 C 210.49 59.77 215.91 65.15 214.59 71.79 C 220.59 71.41 226.32 69.23 232.35 69.21 C 232.97 67.42 233.26 65.26 234.99 64.14 C 244.32 57.98 255.91 54.58 267.05 56.85 C 274.36 58.84 279.47 65.38 281.96 72.25 C 286.79 73.64 291.66 74.92 296.50 76.27 C 301.75 77.23 306.37 80.22 311.67 81.01 C 316.99 76.20 325.63 77.67 331.08 81.57 C 337.38 85.71 339.17 93.67 339.38 100.73 C 342.04 103.09 344.69 105.46 347.02 108.16 C 352.81 108.53 358.46 111.43 362.62 115.42 C 367.24 120.13 367.65 128.37 363.11 133.29 C 365.70 139.04 368.50 144.72 370.27 150.80 C 371.26 148.59 372.53 146.07 375.06 145.37 C 379.10 144.63 383.40 146.00 386.51 148.63 C 389.27 151.33 388.65 155.52 388.65 159.02 C 388.60 162.87 386.99 167.23 383.27 168.94 C 380.50 170.17 377.32 169.69 374.53 168.79 C 375.20 171.39 375.72 174.04 376.15 176.70 C 379.75 172.56 386.14 171.50 390.98 173.97 C 394.07 175.74 395.24 179.27 395.46 182.63 C 396.86 181.19 398.44 179.93 400.11 178.81 C 400.34 170.89 397.39 163.42 394.85 156.06 C 390.85 144.66 384.51 134.28 380.08 123.06 C 376.68 115.41 373.18 107.65 367.89 101.09 C 364.11 96.55 361.46 91.02 356.65 87.41 C 350.57 81.58 343.16 77.49 335.99 73.18 C 327.52 69.12 319.81 63.56 310.91 60.41 C 301.98 55.72 292.18 53.16 283.02 49.00 C 274.10 45.93 265.48 41.52 255.97 40.59 C 251.61 40.24 247.42 38.91 243.10 38.35 C 237.73 37.62 232.41 38.95 227.04 39.00 C 218.44 40.46 209.68 40.06 201.00 39.78 C 180.19 41.77 158.97 40.64 138.50 36.32 C 130.56 33.71 122.42 31.63 114.65 28.49 C 108.56 26.24 102.29 24.50 95.86 23.52 C 89.32 21.95 82.56 21.37 75.86 22.18 M 263.26 34.46 C 273.41 37.59 283.33 41.44 293.10 45.58 C 300.70 47.90 307.91 51.23 315.10 54.55 C 323.20 57.36 330.14 62.54 337.82 66.23 C 350.44 73.31 363.42 81.26 371.18 93.89 C 378.78 102.91 383.77 113.71 388.24 124.53 C 390.50 130.16 393.71 135.37 395.77 141.10 C 395.91 136.70 392.56 133.25 392.42 128.93 C 392.19 125.41 390.10 122.44 388.79 119.27 C 385.19 110.10 378.80 102.49 373.19 94.52 C 367.60 87.58 361.77 80.61 354.39 75.51 C 348.55 71.37 343.36 66.34 337.12 62.78 C 331.04 58.86 324.03 56.78 317.79 53.18 C 313.69 50.79 309.12 49.40 304.95 47.15 C 298.26 43.42 291.18 40.43 284.10 37.54 C 277.27 35.90 270.28 34.76 263.26 34.46 M 54.18 49.15 C 50.71 51.69 52.12 56.43 51.56 60.08 C 58.56 60.59 66.22 61.36 72.50 57.54 C 74.19 56.73 74.09 54.47 73.60 52.95 C 72.41 49.75 69.47 47.09 65.99 46.81 C 61.96 46.47 57.44 46.35 54.18 49.15 M 110.04 49.12 C 105.87 51.09 103.01 55.55 103.08 60.20 C 111.48 60.63 119.87 59.63 128.27 59.85 C 128.30 57.32 128.86 54.59 127.86 52.20 C 126.41 50.30 124.53 48.51 122.14 47.93 C 118.09 47.60 113.94 47.98 110.04 49.12 M 177.48 64.54 C 175.01 66.14 176.70 69.30 176.56 71.67 C 180.65 72.53 184.79 73.43 189.00 73.24 C 195.23 73.04 201.52 73.78 207.71 72.74 C 206.06 70.07 204.63 67.05 201.84 65.36 C 197.25 62.07 191.35 61.96 185.94 62.18 C 183.03 62.45 179.87 62.65 177.48 64.54 M 244.06 69.36 C 252.78 68.97 261.53 69.43 270.26 69.49 C 268.67 67.99 267.08 66.26 264.87 65.74 C 257.74 64.37 250.45 66.14 244.06 69.36 M 261.84 92.00 C 252.79 96.89 244.79 103.42 236.94 109.97 C 232.49 115.06 227.88 120.70 221.08 122.57 C 216.59 123.62 213.47 127.28 209.75 129.72 C 205.38 132.89 199.83 133.54 195.23 136.27 C 189.50 139.52 182.73 140.44 177.28 144.24 C 173.03 147.13 167.82 147.48 163.02 148.84 C 158.07 150.57 152.80 151.53 148.24 154.24 C 142.64 157.40 136.27 158.82 130.10 160.41 C 122.65 160.97 115.50 163.71 107.97 163.29 C 102.82 162.94 98.44 165.79 93.88 167.64 C 88.25 170.09 81.50 166.85 76.28 170.52 C 81.29 174.86 85.41 180.42 91.41 183.47 C 95.13 185.45 99.41 185.14 103.47 185.56 C 101.12 182.49 99.40 177.92 101.64 174.35 C 102.99 172.14 105.76 171.85 108.09 171.55 C 112.33 164.67 122.14 166.05 127.88 170.14 C 132.46 173.10 133.17 179.04 132.67 184.02 C 137.06 182.73 141.18 180.46 145.80 180.07 C 149.11 179.80 151.95 178.04 154.89 176.68 C 152.86 172.61 152.38 167.19 155.42 163.49 C 158.50 159.76 163.86 161.72 168.01 161.23 C 172.21 160.67 176.30 163.62 176.80 167.88 C 184.92 165.52 192.89 162.66 200.71 159.43 C 197.41 154.80 197.87 148.35 200.37 143.47 C 203.89 136.56 213.67 135.67 219.89 139.16 C 223.17 141.14 222.98 145.35 222.80 148.67 C 228.36 145.66 233.15 141.43 238.81 138.58 C 234.90 134.17 235.42 126.65 239.54 122.57 C 243.88 120.69 248.13 117.31 253.15 118.39 C 257.75 119.05 262.35 122.23 263.17 127.06 C 269.45 124.55 276.01 122.48 282.71 121.56 C 277.87 120.28 275.88 113.99 279.32 110.30 C 281.25 107.52 284.89 108.16 287.70 108.90 C 289.95 106.61 292.89 105.07 296.19 105.34 C 297.34 106.44 298.79 107.37 299.44 108.89 C 300.33 113.38 297.86 117.97 294.31 120.61 C 298.22 120.43 302.45 119.83 306.08 121.68 C 308.85 123.09 311.43 124.84 314.01 126.56 C 314.85 124.20 316.21 122.08 318.39 120.76 C 321.54 120.96 323.91 118.28 327.02 118.34 C 329.92 118.20 333.00 119.03 335.10 121.13 C 337.37 123.47 337.09 127.11 336.49 130.06 C 334.82 134.98 329.19 137.01 324.39 136.58 C 327.78 140.99 330.88 145.70 333.24 150.74 C 335.57 157.99 334.50 165.81 334.46 173.29 C 332.22 181.61 329.25 189.75 326.13 197.79 C 330.90 197.31 336.68 198.14 339.45 202.53 C 341.88 207.10 341.21 213.70 337.03 217.06 C 334.23 219.28 330.31 219.09 327.01 218.39 C 324.51 217.12 322.43 215.10 319.81 214.02 C 318.95 212.05 318.41 209.97 318.24 207.83 C 312.28 212.78 312.83 220.98 311.09 227.80 C 313.26 227.74 315.44 227.72 317.62 227.69 C 317.58 227.16 317.50 226.09 317.47 225.56 C 317.96 225.52 318.94 225.44 319.43 225.40 C 319.55 225.86 319.78 226.77 319.90 227.23 C 323.76 228.34 328.04 227.53 332.06 227.72 C 335.28 227.89 337.84 225.73 340.42 224.14 C 339.34 214.57 342.62 205.00 348.27 197.35 C 351.27 193.80 352.55 189.23 354.13 184.96 C 356.30 177.72 355.24 170.05 355.79 162.61 C 350.12 164.31 344.22 162.85 339.02 160.42 C 335.72 154.39 340.14 143.81 347.95 145.59 C 349.04 147.12 350.54 148.26 352.41 148.64 C 352.14 147.22 351.83 145.80 351.56 144.38 C 350.28 144.21 348.24 145.07 347.57 143.57 C 345.30 140.05 347.86 135.26 345.06 131.99 C 340.29 125.48 335.03 119.29 329.23 113.68 C 323.94 109.30 320.10 103.44 314.61 99.30 C 308.45 94.47 301.00 91.71 294.59 87.26 C 289.85 83.77 283.59 84.24 278.02 83.84 C 271.45 83.61 267.19 89.20 261.84 92.00 M 250.87 132.33 C 252.65 131.58 254.39 130.12 254.03 127.97 C 252.38 128.66 247.48 130.62 250.87 132.33 M 623.57 135.32 C 622.62 135.85 621.66 136.34 620.68 136.78 C 613.09 137.23 606.07 140.47 598.89 142.66 C 592.12 146.40 585.09 150.05 579.61 155.62 C 577.16 157.81 574.51 159.82 572.44 162.39 C 567.06 170.09 561.00 177.39 556.89 185.90 C 552.50 195.58 547.75 205.10 542.76 214.49 C 539.84 220.77 535.65 226.31 532.39 232.40 C 529.27 238.53 523.21 242.22 518.86 247.35 C 518.91 248.72 519.57 249.12 520.85 248.53 C 527.25 244.86 532.06 239.09 537.88 234.65 C 538.91 243.89 530.58 250.26 523.10 253.68 C 526.31 259.59 528.96 266.18 528.70 273.02 C 528.68 276.83 528.69 280.64 528.68 284.45 C 530.86 283.07 533.18 281.89 535.59 280.92 C 534.41 285.42 531.80 289.25 528.97 292.85 C 526.92 298.32 526.85 305.01 522.34 309.31 C 519.69 311.59 517.09 313.96 514.98 316.76 C 521.05 313.06 526.60 307.21 534.16 307.10 C 533.16 315.27 523.92 317.74 519.06 323.18 C 512.74 330.50 505.41 336.82 498.69 343.76 C 495.60 346.41 496.85 350.79 496.58 354.34 C 499.62 354.30 501.92 356.70 504.91 356.89 C 508.23 357.33 512.00 357.26 514.70 354.99 C 521.55 349.58 526.42 342.19 530.62 334.64 C 532.33 331.47 534.86 328.32 538.75 328.08 C 539.62 329.61 540.85 331.13 540.57 333.03 C 539.95 339.08 536.07 344.05 532.91 349.02 C 529.28 354.61 524.40 359.19 519.46 363.59 C 515.72 369.10 512.84 375.16 509.47 380.91 C 511.25 382.45 513.02 384.01 514.64 385.72 C 514.40 379.54 518.60 374.49 521.77 369.58 C 525.18 364.19 530.13 360.10 533.97 355.07 C 535.03 354.44 536.06 353.79 537.12 353.16 C 536.83 353.58 536.23 354.42 535.93 354.84 C 534.01 357.73 532.06 360.68 531.12 364.06 C 528.46 372.78 524.81 381.20 522.92 390.14 C 527.15 391.66 531.65 392.11 536.10 391.42 L 534.77 388.10 C 535.57 389.08 537.39 389.81 536.51 391.45 C 540.64 391.20 544.77 390.93 548.90 390.96 C 552.69 391.18 556.28 389.44 560.11 389.99 C 560.96 389.28 561.82 388.56 562.69 387.85 C 557.64 383.82 556.62 377.06 556.54 371.00 C 556.41 361.08 556.79 350.87 560.37 341.51 C 560.57 342.37 560.98 344.07 561.18 344.93 C 561.71 344.76 562.76 344.43 563.28 344.27 C 564.07 340.85 564.05 337.11 566.07 334.11 C 567.65 331.67 569.47 329.41 571.25 327.12 C 572.23 325.97 573.27 324.55 574.93 324.44 C 579.18 324.00 582.47 321.05 586.36 319.60 C 586.78 311.11 587.66 302.46 590.77 294.48 C 591.79 290.83 598.83 291.58 597.54 295.92 C 594.98 303.99 592.89 312.49 593.97 321.01 C 594.48 326.96 592.86 332.88 594.07 338.79 C 596.84 341.78 599.70 345.30 603.96 346.02 C 608.04 346.35 612.14 346.10 616.23 346.06 C 616.13 343.56 613.80 342.30 612.54 340.43 C 611.05 338.17 610.06 335.61 608.28 333.55 C 607.81 330.65 605.67 328.55 604.43 326.00 C 603.55 322.77 604.27 319.35 603.45 316.10 C 601.81 308.98 604.45 301.75 607.69 295.49 C 609.18 292.72 610.28 289.67 612.40 287.30 C 613.77 285.62 616.23 286.05 617.96 284.97 C 622.91 281.64 628.37 279.11 633.86 276.82 C 640.85 275.39 647.96 276.98 654.96 277.57 C 664.04 278.43 672.77 281.79 680.54 286.48 C 685.80 290.81 691.35 295.10 695.01 300.97 C 697.34 304.57 700.36 307.85 701.66 312.03 C 702.97 315.76 702.67 319.77 702.76 323.65 C 705.64 322.87 708.23 321.33 711.00 320.28 C 715.31 320.08 719.41 318.77 723.51 317.53 C 724.04 317.32 725.09 316.90 725.62 316.69 C 737.46 310.75 746.60 299.43 749.53 286.46 C 751.86 278.11 753.60 269.56 754.23 260.90 C 754.39 246.88 755.23 232.46 750.55 219.00 C 747.16 209.91 742.07 201.62 737.61 193.06 C 734.81 187.40 731.89 181.80 728.33 176.58 C 722.33 167.54 715.75 158.36 706.56 152.32 C 694.70 145.91 681.92 141.34 668.99 137.61 C 661.57 135.10 653.66 136.51 646.00 136.15 C 639.11 135.82 632.09 137.06 625.30 135.44 C 624.87 135.41 624.00 135.35 623.57 135.32 M 550.36 137.18 C 545.68 139.79 542.35 145.22 542.93 150.67 C 541.85 149.80 540.71 149.01 539.56 148.26 C 539.01 148.26 537.90 148.26 537.34 148.26 C 535.68 149.80 533.99 151.39 533.19 153.57 C 532.31 155.49 530.56 156.77 529.35 158.46 C 527.88 162.46 529.77 166.77 533.35 168.87 C 535.83 170.18 538.65 170.14 541.38 169.86 C 542.44 169.34 543.52 168.87 544.63 168.45 C 545.10 170.75 546.31 172.84 548.43 173.95 C 550.14 173.94 551.84 173.94 553.56 173.91 C 554.77 172.63 556.08 171.44 557.58 170.49 C 561.56 167.96 561.82 162.22 560.05 158.26 C 561.90 156.42 564.23 154.87 565.22 152.35 C 565.98 150.23 567.67 148.72 569.26 147.22 C 567.43 145.60 565.31 144.26 563.78 142.32 C 562.66 140.80 563.39 138.84 563.52 137.14 C 559.27 136.03 554.44 134.98 550.36 137.18 M 570.14 137.02 C 573.61 138.59 576.39 141.35 577.80 144.90 C 578.82 144.18 579.84 143.44 580.86 142.71 C 577.27 140.86 573.94 138.46 570.14 137.02 M 72.71 149.83 C 70.91 150.73 68.59 151.60 68.20 153.86 C 67.24 157.96 67.83 162.23 68.78 166.28 C 70.02 166.74 71.25 167.21 72.50 167.68 C 74.03 165.66 75.61 163.42 78.08 162.49 C 81.54 161.03 85.37 161.57 88.99 160.98 C 92.11 160.09 94.50 157.68 97.45 156.41 C 101.65 154.38 106.40 154.23 110.97 154.27 C 115.13 154.44 118.91 152.39 123.01 152.12 C 128.86 151.68 134.45 149.83 139.99 148.01 C 143.45 146.60 146.57 144.45 150.19 143.40 C 145.18 142.50 140.09 142.98 135.03 142.89 C 126.69 143.00 118.33 142.51 110.01 143.22 C 104.97 143.65 99.98 141.82 94.98 142.98 C 87.35 144.47 79.85 146.75 72.71 149.83 M 209.61 146.49 C 208.79 148.41 207.62 150.59 208.93 152.61 C 211.29 151.16 212.98 148.92 213.96 146.36 C 212.51 146.39 211.06 146.43 209.61 146.49 M 378.22 162.93 C 379.33 162.51 381.22 162.56 381.36 160.99 C 381.56 158.15 382.77 154.41 380.12 152.37 C 377.54 155.28 377.23 159.29 378.22 162.93 M 116.23 175.83 C 115.72 178.43 115.07 181.03 113.66 183.32 C 116.25 184.90 120.38 187.67 123.01 184.98 C 123.62 182.80 124.12 180.28 123.06 178.16 C 121.43 176.14 118.62 176.01 116.23 175.83 M 383.43 187.31 C 384.96 187.43 386.49 187.54 388.04 187.64 C 388.44 185.01 388.43 182.33 388.06 179.70 C 384.67 180.59 383.54 184.18 383.43 187.31 M 533.78 184.59 C 533.08 184.57 531.23 185.41 532.66 186.22 C 535.54 189.43 538.91 192.56 543.20 193.68 C 545.37 189.47 547.21 185.11 549.29 180.86 C 544.22 182.50 538.96 183.42 533.78 184.59 M 415.02 186.58 C 406.31 190.13 397.75 194.41 390.46 200.46 C 379.13 209.00 369.53 219.60 357.99 227.87 C 355.41 230.07 353.25 232.95 349.95 234.12 C 345.83 235.65 341.39 236.03 337.07 236.64 C 317.27 237.03 297.44 237.15 277.63 236.66 C 273.76 235.81 269.75 235.62 266.08 233.95 C 255.19 231.56 244.44 228.58 233.54 226.23 C 227.43 223.78 220.73 221.58 214.11 222.96 C 205.54 227.80 199.95 238.36 202.75 248.18 C 204.78 251.13 207.62 253.42 210.15 255.93 C 211.60 257.55 213.96 257.35 215.86 258.00 C 226.23 260.39 235.48 266.26 246.04 268.01 C 251.66 268.83 257.31 269.72 263.02 269.63 C 273.40 269.46 283.67 271.71 294.06 271.33 C 299.75 270.97 305.35 272.34 311.03 272.26 C 315.02 271.87 318.04 275.53 322.05 274.99 C 326.49 274.56 331.35 275.94 335.53 274.16 C 340.49 274.05 345.26 272.57 350.07 271.50 C 357.93 269.35 365.90 267.41 373.46 264.30 C 374.49 263.97 375.51 263.60 376.52 263.19 C 377.02 263.10 378.01 262.93 378.51 262.84 C 379.84 262.08 381.20 261.34 382.58 260.66 C 384.25 260.06 385.93 259.46 387.58 258.78 C 388.50 258.26 389.44 257.74 390.38 257.25 C 394.22 255.33 398.06 253.15 401.03 250.00 C 407.49 243.48 414.13 237.09 419.84 229.88 C 425.14 222.82 432.33 217.44 439.86 212.95 C 445.86 209.93 452.05 206.20 459.04 206.65 C 465.00 206.40 470.93 207.66 476.34 210.16 C 474.35 207.46 471.77 205.30 468.89 203.61 C 469.08 203.27 469.46 202.60 469.64 202.27 C 469.19 202.05 468.30 201.61 467.85 201.39 C 461.22 195.43 452.51 192.83 445.56 187.40 C 436.25 182.21 424.87 184.00 415.02 186.58 M 521.09 190.89 C 520.61 194.98 522.67 198.73 523.58 202.61 C 525.76 206.89 530.03 209.90 534.96 209.74 C 536.63 206.68 538.29 203.60 539.87 200.48 C 532.71 197.66 526.61 191.97 523.49 184.91 C 521.27 186.00 521.35 188.79 521.09 190.89 M 376.70 190.07 C 376.79 192.71 376.77 195.35 376.76 198.00 C 378.35 196.58 379.94 195.16 381.64 193.87 C 379.28 193.71 377.75 192.01 376.70 190.07 M 331.03 208.26 C 329.50 211.30 334.34 208.36 331.03 208.26 M 447.04 221.29 C 448.61 221.84 450.49 222.05 451.54 223.49 C 456.43 229.15 454.33 239.48 447.04 242.01 C 441.66 244.08 436.13 242.24 431.10 240.26 C 429.69 239.13 428.49 237.79 427.41 236.36 C 426.61 237.20 425.81 238.03 425.02 238.87 C 429.75 238.82 433.18 242.44 437.62 243.52 C 443.45 246.88 449.99 249.27 454.86 254.08 C 458.08 257.17 461.50 260.20 463.70 264.14 C 466.31 269.07 470.27 273.84 469.46 279.80 C 472.51 277.88 476.31 278.12 479.53 279.49 C 482.50 280.76 485.97 279.76 488.85 281.30 C 491.68 282.55 492.91 285.98 492.40 288.90 C 491.68 292.97 490.13 297.19 487.01 300.05 C 484.94 302.02 481.94 301.81 479.31 301.90 C 481.44 304.04 483.51 306.27 485.16 308.82 C 486.30 310.60 488.31 311.82 488.89 313.94 C 490.06 316.65 488.42 319.43 487.61 321.96 C 493.41 319.27 496.44 313.42 498.99 307.91 C 500.72 304.01 503.32 300.29 503.43 295.87 C 503.48 291.89 503.37 287.89 502.59 283.98 C 500.99 274.19 500.40 264.28 499.06 254.47 C 498.25 248.50 495.73 242.93 492.45 237.94 C 489.52 232.36 486.20 226.87 481.45 222.63 C 479.67 221.18 478.61 218.30 475.98 218.33 C 469.62 218.17 463.25 218.26 456.90 218.57 C 453.42 218.64 450.35 220.45 447.04 221.29 M 435.26 228.33 C 435.37 229.91 435.54 231.49 435.83 233.05 C 438.85 233.60 444.86 235.55 445.21 230.96 C 444.02 227.12 438.40 226.93 435.26 228.33 M 416.49 254.06 C 414.29 260.50 414.46 267.44 416.03 274.01 C 427.21 279.87 439.26 284.57 451.91 285.68 C 452.52 284.32 453.02 282.88 453.63 281.51 C 446.47 284.13 437.88 282.96 432.04 277.92 C 424.73 271.75 418.18 263.72 416.49 254.06 M 400.33 266.14 C 399.38 270.99 397.54 276.09 393.29 279.00 C 388.95 282.01 382.94 281.33 378.91 278.13 C 373.23 279.99 367.42 281.49 361.77 283.45 C 359.59 283.94 359.45 287.45 361.68 288.04 C 359.95 289.68 357.70 291.02 357.23 293.56 C 353.56 291.76 351.38 286.25 346.67 287.36 C 346.94 292.58 347.58 298.57 343.99 302.89 C 341.05 306.37 335.06 305.92 332.55 302.18 C 329.68 298.12 330.42 292.62 332.57 288.41 C 329.93 288.31 327.30 288.18 324.66 288.09 C 326.95 292.70 329.67 297.14 331.36 302.02 C 331.86 307.30 334.46 312.18 337.89 316.15 C 340.24 318.71 339.58 322.36 338.76 325.40 C 336.19 325.89 334.53 328.43 332.01 328.75 C 326.09 327.01 322.57 321.41 317.19 318.67 C 314.37 316.59 310.55 315.69 307.26 317.18 C 301.78 320.36 298.42 325.99 295.20 331.23 C 295.24 337.84 290.43 342.74 286.36 347.38 C 284.04 349.95 280.41 350.99 277.03 350.61 C 272.87 347.34 266.87 349.83 262.11 347.98 C 257.87 346.24 254.98 342.41 251.13 340.06 C 248.11 340.07 245.04 340.05 242.07 340.64 C 236.65 342.73 230.11 343.24 224.87 340.40 C 224.86 345.05 222.22 349.76 217.90 351.68 C 215.26 352.99 212.22 352.76 209.36 352.66 C 212.00 356.41 212.57 361.78 216.86 364.20 C 221.85 366.81 227.64 366.22 233.07 366.68 C 229.31 365.07 227.85 360.78 228.76 356.97 C 229.21 352.96 231.05 347.21 235.96 347.31 C 240.29 347.70 244.63 346.67 248.94 347.35 C 252.31 347.91 254.19 351.84 253.30 354.98 C 252.13 359.59 248.52 362.99 244.84 365.74 C 249.03 365.73 253.91 364.62 257.44 367.56 C 262.65 371.74 269.26 374.44 276.01 374.26 C 282.34 374.22 288.67 374.29 295.00 374.24 C 300.08 373.76 305.76 372.16 308.76 367.69 C 311.95 363.64 317.44 363.22 321.45 360.38 C 328.29 355.69 337.61 355.31 344.98 358.96 C 348.83 360.64 352.14 363.39 356.11 364.84 C 359.66 366.19 363.30 367.39 366.52 369.46 C 371.53 372.59 377.17 375.14 380.83 379.96 C 383.31 383.32 385.36 386.97 387.73 390.41 C 390.46 394.38 389.69 399.46 391.28 403.85 C 392.80 409.80 394.42 417.49 389.47 422.30 C 386.88 425.85 382.09 426.66 379.31 429.95 C 383.78 435.41 384.26 444.12 379.57 449.58 C 376.87 452.78 372.45 453.06 368.58 452.66 C 370.95 459.30 367.78 467.76 361.03 470.42 C 365.68 473.07 369.38 478.46 367.04 483.91 C 364.03 492.81 353.05 494.77 344.94 492.91 C 341.18 492.43 338.10 488.81 338.66 484.98 C 339.01 482.65 338.28 480.41 337.86 478.15 C 338.17 473.48 342.25 469.66 346.79 468.96 C 346.48 468.05 346.19 467.15 345.89 466.25 C 340.96 470.54 335.80 475.77 328.93 476.36 C 318.59 477.53 308.31 479.25 297.89 479.59 C 297.34 484.85 293.95 489.51 289.13 491.68 C 294.72 494.22 300.52 496.32 305.96 499.20 C 312.23 502.35 318.80 505.85 326.03 505.65 C 332.73 505.46 339.62 506.36 346.05 503.98 C 351.63 503.41 355.40 498.89 359.44 495.52 C 362.09 491.53 365.95 488.56 368.76 484.74 C 371.56 476.95 370.92 468.53 372.70 460.54 C 375.70 451.94 384.34 446.63 392.81 444.52 C 390.56 442.94 389.83 440.33 389.29 437.79 C 386.28 437.35 383.64 434.04 385.30 431.13 C 389.59 423.62 400.70 420.99 407.82 425.96 C 412.96 431.09 410.78 440.58 405.22 444.60 C 413.81 444.16 422.42 444.78 431.00 445.11 C 436.08 444.82 440.04 441.15 444.84 439.86 C 447.21 439.24 448.95 437.49 450.81 436.01 C 457.11 435.76 463.05 438.64 469.12 440.07 C 471.16 440.55 472.90 442.11 473.62 444.09 C 475.04 448.00 477.28 451.54 479.11 455.27 C 483.39 455.55 487.69 455.35 491.99 455.56 C 494.72 450.86 498.39 445.89 504.00 444.63 C 510.51 443.08 517.59 446.91 520.43 452.84 C 522.26 457.02 521.94 461.83 520.51 466.08 C 525.87 465.62 528.75 470.79 533.13 472.82 C 539.10 475.54 545.62 476.68 552.04 477.78 C 552.78 478.71 553.52 479.64 554.26 480.58 C 555.36 480.65 556.47 480.73 557.59 480.82 C 556.64 475.45 560.53 468.57 566.48 468.74 C 569.72 468.64 572.70 466.91 576.00 467.17 C 579.78 466.90 584.53 468.11 585.81 472.16 C 587.96 478.56 583.18 485.28 577.13 487.30 C 581.03 488.77 584.25 491.60 588.25 492.85 C 591.08 493.83 593.65 495.41 596.24 496.91 C 595.62 491.98 598.59 487.19 603.01 485.12 C 606.10 483.63 609.72 481.54 613.19 483.11 C 616.11 484.54 619.54 485.91 621.01 489.06 C 623.50 494.77 619.97 502.35 613.81 503.79 C 610.78 504.78 607.64 503.90 604.64 503.36 C 607.04 505.92 609.66 508.30 611.93 510.99 C 614.26 514.10 615.83 517.67 617.68 521.07 C 618.77 516.83 620.55 511.97 624.88 510.12 C 627.21 508.79 629.82 509.79 632.02 510.87 C 632.44 511.90 632.88 512.92 633.34 513.96 C 633.04 514.91 632.76 515.87 632.49 516.83 C 635.18 520.20 634.56 525.68 630.97 528.16 C 628.17 530.25 624.53 529.48 621.31 529.33 C 621.66 533.28 623.53 536.92 623.70 540.91 C 623.85 543.44 623.79 545.98 623.80 548.53 C 627.10 548.87 631.25 549.23 632.82 552.70 C 634.71 557.23 632.64 563.30 628.05 565.36 C 625.08 566.37 621.97 565.38 618.94 565.40 C 620.72 566.78 622.57 568.44 625.00 568.37 C 632.96 569.08 640.98 570.11 648.97 569.23 C 652.13 569.25 654.65 566.00 654.46 562.99 C 654.21 556.98 655.10 550.80 653.87 544.92 C 651.58 541.27 652.96 537.02 652.36 533.04 C 649.82 523.52 644.20 514.92 642.88 505.04 C 642.64 503.42 642.06 501.87 641.26 500.46 C 637.47 494.18 633.17 488.18 628.05 482.91 C 625.17 479.99 621.11 478.88 617.45 477.32 C 610.37 474.63 603.59 470.76 595.93 469.97 C 588.81 469.34 581.85 467.71 574.97 465.85 C 572.67 464.95 570.28 465.78 567.94 465.75 C 558.04 463.31 547.70 464.49 537.68 462.91 C 534.38 461.86 531.19 460.44 528.03 459.05 C 526.43 458.20 526.64 456.35 526.67 454.84 C 530.00 453.59 533.50 452.75 537.06 452.48 C 544.54 454.43 552.34 453.47 559.97 454.15 C 566.50 452.58 573.14 451.55 579.79 450.57 C 574.91 448.60 574.08 442.66 572.77 438.22 C 574.65 432.37 578.70 426.27 585.03 424.70 C 589.62 423.74 594.74 422.35 599.14 424.74 C 601.77 425.95 602.90 428.86 603.08 431.58 C 603.56 438.91 599.76 446.21 593.88 450.50 C 601.46 450.85 608.43 453.96 615.87 454.99 C 613.97 451.27 613.98 446.99 614.43 442.94 C 614.90 439.53 616.77 436.11 619.96 434.55 C 622.79 433.65 625.18 436.23 628.02 435.78 C 633.50 435.73 640.07 436.77 643.21 441.82 C 647.08 449.08 642.61 458.68 635.23 461.65 C 639.65 462.90 643.62 465.29 647.91 466.91 C 651.62 468.27 654.31 471.35 657.95 472.85 C 657.55 467.78 662.10 464.79 663.71 460.45 C 664.68 458.00 667.31 456.31 669.95 456.55 C 672.83 456.64 675.12 458.85 677.98 459.12 C 683.79 459.87 690.13 462.69 692.46 468.44 C 693.39 472.92 693.31 478.33 689.71 481.68 C 686.23 485.42 680.68 485.32 675.97 485.17 C 682.18 491.05 686.90 498.40 690.76 506.00 C 691.51 502.19 692.25 497.94 695.36 495.27 C 696.81 493.78 699.21 494.14 701.03 494.65 C 702.75 495.19 702.28 497.42 702.71 498.79 C 705.15 499.31 707.81 499.59 709.85 501.21 C 712.54 503.21 713.57 506.74 713.44 509.98 C 713.33 514.33 712.77 519.29 709.40 522.42 C 706.08 525.13 701.47 524.72 697.69 523.32 C 697.59 529.60 698.57 536.11 696.54 542.19 C 697.44 543.40 698.31 544.64 699.15 545.92 C 703.19 547.55 706.58 550.81 707.20 555.30 C 716.03 548.50 720.88 537.11 720.15 526.04 C 720.58 518.54 719.01 511.17 717.65 503.85 C 716.48 498.29 716.47 492.40 713.90 487.21 C 712.36 484.02 712.14 480.42 710.95 477.12 C 709.29 474.44 707.15 472.10 705.66 469.32 C 704.93 469.40 703.48 469.55 702.75 469.62 C 697.63 465.99 694.23 460.53 689.58 456.45 C 681.95 451.90 677.51 443.75 670.25 438.77 C 666.35 436.05 661.44 435.90 657.05 434.48 C 646.74 431.36 637.22 426.20 627.10 422.55 C 621.25 420.57 616.06 416.82 609.93 415.70 C 597.47 414.13 584.44 417.37 572.39 412.92 C 566.45 411.28 560.27 412.74 554.56 414.53 C 546.99 417.49 538.91 418.66 531.06 420.59 C 536.44 420.83 541.97 419.67 547.21 421.38 C 551.32 422.59 555.39 424.43 558.51 427.43 C 562.51 431.33 562.75 438.15 559.47 442.57 C 556.06 447.08 550.88 450.70 545.07 450.83 C 540.01 451.10 534.44 451.10 530.27 447.79 C 523.07 442.83 521.82 432.56 524.90 424.90 C 525.52 422.62 527.79 422.11 529.72 421.37 C 523.57 422.24 517.61 424.13 511.42 424.73 C 506.84 427.61 501.16 428.55 495.92 427.12 C 493.20 425.85 490.61 424.31 487.88 423.06 C 484.43 421.43 482.03 417.87 482.11 414.02 C 482.23 411.54 480.11 410.02 478.78 408.23 C 476.26 404.58 471.45 404.32 467.95 402.08 C 466.03 400.23 464.98 397.71 463.27 395.68 C 459.60 390.92 455.18 385.78 455.52 379.37 C 450.45 380.89 446.10 377.91 441.53 376.38 C 437.88 371.35 442.72 366.00 447.00 363.57 C 450.81 363.03 453.62 366.49 457.10 367.55 C 457.95 365.08 459.08 362.72 460.41 360.47 C 462.43 357.50 461.50 353.52 463.67 350.61 C 465.28 350.29 467.10 350.38 468.47 349.32 C 475.57 342.29 480.24 333.41 485.06 324.79 C 481.70 326.32 478.52 328.33 474.93 329.30 C 471.37 330.04 467.69 329.76 464.14 329.20 C 465.54 330.84 466.97 332.71 466.65 335.03 C 466.12 341.01 461.86 345.82 457.50 349.57 C 453.62 352.88 447.72 354.41 443.11 351.72 C 440.26 350.22 439.53 346.83 439.16 343.92 C 437.76 342.69 436.06 341.50 435.65 339.56 C 435.00 336.14 436.98 332.69 439.62 330.64 C 445.34 326.15 453.18 326.53 460.00 327.37 C 458.59 325.72 457.28 323.94 457.08 321.71 C 459.17 318.31 457.47 313.85 459.68 310.38 C 462.44 305.10 466.39 298.83 472.91 298.21 C 470.20 295.75 467.67 292.82 467.27 289.02 C 466.05 295.04 462.27 299.91 458.76 304.75 C 457.13 306.05 455.34 307.22 454.32 309.11 C 452.74 311.85 449.82 313.37 446.94 314.39 C 441.83 316.14 436.53 317.81 431.06 317.51 C 426.98 317.56 423.13 316.08 419.22 315.16 C 416.07 312.11 411.71 310.50 408.97 307.04 C 406.76 303.19 404.81 299.16 403.16 295.05 C 401.51 291.22 403.22 287.00 402.09 283.09 C 402.37 282.68 402.94 281.88 403.23 281.47 C 402.81 274.96 404.61 268.70 405.98 262.42 C 404.08 263.63 402.05 264.67 400.33 266.14 M 416.25 280.08 C 416.44 282.04 416.71 284.00 416.95 285.96 C 417.76 289.33 421.65 290.05 424.40 291.22 C 424.50 291.36 424.71 291.65 424.81 291.79 C 428.74 293.03 432.20 295.36 436.07 296.74 C 439.56 296.33 442.72 294.24 445.07 291.70 C 444.62 291.67 443.73 291.60 443.29 291.57 C 441.77 291.02 440.23 290.25 438.58 290.41 C 430.64 288.17 423.03 284.79 416.25 280.08 M 480.68 291.64 C 480.81 290.44 480.23 289.81 478.95 289.72 C 477.09 290.45 479.56 292.72 480.68 291.64 M 418.49 292.32 C 418.93 293.24 419.36 294.16 419.81 295.09 C 422.17 295.51 424.52 296.03 426.87 296.53 C 423.83 295.66 421.13 294.01 418.49 292.32 M 615.46 300.43 C 612.82 304.47 613.66 309.47 613.50 314.03 C 613.62 317.20 613.08 320.69 614.85 323.54 C 614.97 324.51 615.10 325.49 615.24 326.47 C 616.49 330.58 619.14 333.94 621.74 337.28 C 622.91 338.67 623.78 340.54 625.72 341.03 C 627.42 342.88 629.44 344.39 631.89 345.08 C 630.72 342.37 628.46 340.10 628.18 337.05 C 627.10 331.35 625.31 325.79 624.83 319.98 C 624.26 311.48 620.42 303.58 620.37 295.00 C 617.60 295.39 616.84 298.44 615.46 300.43 M 656.78 298.78 C 654.82 300.20 653.66 302.42 652.10 304.13 C 650.86 303.60 649.73 302.91 648.57 302.26 C 648.05 302.04 647.00 301.59 646.48 301.37 C 645.89 301.32 644.73 301.23 644.14 301.19 C 642.92 301.62 641.68 301.95 640.43 302.22 C 638.48 303.72 636.36 305.09 635.19 307.34 C 633.14 312.17 633.06 319.03 637.91 322.23 C 641.71 325.25 647.10 324.27 650.73 321.48 C 650.96 322.23 651.42 323.72 651.65 324.47 C 652.15 325.87 652.81 327.22 653.62 328.48 C 654.82 330.60 656.75 332.12 658.50 333.77 C 654.62 333.88 650.77 335.67 649.32 339.47 C 649.26 341.11 649.16 342.74 649.14 344.39 C 649.69 345.43 650.12 346.53 650.44 347.68 C 652.03 349.65 654.17 350.98 656.54 351.85 C 661.74 352.84 667.41 350.42 669.81 345.60 C 669.90 344.40 670.29 343.30 670.96 342.31 C 670.79 340.38 670.18 338.53 669.55 336.72 C 673.21 337.56 676.69 339.58 680.58 338.76 C 680.65 339.30 680.77 340.38 680.84 340.92 C 683.11 337.11 687.32 334.96 688.80 330.58 C 689.79 327.32 690.14 323.94 689.86 320.55 C 688.01 315.58 684.18 311.73 681.83 307.02 C 678.76 301.35 672.80 296.33 665.99 296.97 C 662.86 296.98 659.35 296.61 656.78 298.78 M 419.74 298.38 C 421.17 299.38 422.67 300.25 424.13 301.21 C 425.76 300.88 427.35 300.42 428.95 299.96 C 425.82 299.77 422.79 298.99 419.74 298.38 M 472.20 308.53 C 472.53 310.59 473.43 312.83 472.50 314.88 C 471.12 316.04 469.12 315.87 467.47 316.40 C 467.45 316.98 467.42 318.14 467.40 318.72 C 470.07 318.85 472.81 319.14 475.46 318.55 C 477.14 317.78 477.42 315.52 477.27 313.87 C 476.82 311.18 474.28 309.84 472.20 308.53 M 142.02 320.02 C 135.33 321.83 128.50 324.90 124.65 330.96 C 129.09 332.72 133.67 334.55 138.55 334.24 C 137.90 332.51 137.01 330.84 136.73 329.00 C 136.61 326.14 139.11 323.47 141.98 323.40 C 145.52 323.28 149.50 323.28 152.52 325.35 C 155.86 327.65 155.16 332.46 153.28 335.49 C 158.70 335.27 164.71 335.97 168.46 340.37 C 170.88 340.39 173.31 340.52 175.74 340.57 C 173.17 340.11 170.15 339.96 168.55 337.54 C 165.72 332.79 165.17 325.74 169.66 321.79 C 168.49 320.80 167.35 319.77 166.20 318.77 C 158.13 318.80 149.96 318.44 142.02 320.02 M 184.99 322.88 C 190.59 326.83 190.75 335.87 185.02 339.76 C 190.40 338.92 195.53 340.66 200.28 343.02 C 200.37 339.64 200.57 335.67 203.47 333.40 C 205.85 331.11 209.26 333.03 212.10 332.64 C 215.25 332.19 218.41 332.50 221.39 333.63 C 221.05 329.91 220.94 323.94 216.08 323.45 C 205.85 321.18 195.34 323.49 184.99 322.88 M 174.43 328.11 C 174.33 329.75 174.24 331.40 174.18 333.05 C 176.45 332.95 180.13 333.82 181.04 331.01 C 180.58 328.11 176.83 327.32 174.43 328.11 M 452.95 338.37 C 451.50 338.73 450.03 338.95 448.56 339.21 C 448.42 340.90 448.31 342.60 448.24 344.30 C 452.54 343.14 455.39 339.42 457.48 335.71 C 455.53 335.74 454.51 337.54 452.95 338.37 M 209.23 339.96 C 209.29 341.07 209.44 342.18 209.67 343.27 C 211.83 344.18 215.25 343.96 215.74 341.17 C 213.79 339.92 211.48 339.58 209.23 339.96 M 562.45 355.00 C 563.56 363.30 563.25 371.69 563.72 380.03 C 563.51 382.44 564.32 385.25 562.70 387.31 C 562.85 387.92 563.16 389.14 563.32 389.76 C 567.87 389.65 572.43 389.54 577.00 389.58 C 572.95 385.24 569.75 380.10 567.56 374.60 C 565.88 368.06 564.50 361.44 562.45 355.00 M 497.92 365.21 C 499.43 369.39 502.22 372.89 505.23 376.09 C 506.59 372.82 508.09 369.61 509.81 366.51 C 505.80 366.71 501.77 366.42 497.92 365.21 M 515.91 386.79 C 517.30 387.49 518.70 388.21 520.10 388.91 C 521.41 381.70 523.95 374.78 526.79 368.05 C 522.97 374.15 517.54 379.58 515.91 386.79 M 537.20 441.62 C 541.86 442.66 547.38 442.51 550.92 438.87 C 552.52 437.60 553.64 434.81 551.65 433.36 C 548.09 430.70 543.43 428.84 538.96 429.64 C 536.48 432.97 537.05 437.67 537.20 441.62 M 398.83 432.53 C 398.67 434.03 398.51 435.54 398.37 437.06 C 400.98 437.60 401.50 434.76 401.95 432.92 C 400.90 432.77 399.87 432.64 398.83 432.53 M 583.66 437.67 C 582.15 439.57 583.92 441.73 584.85 443.45 C 590.96 444.21 594.09 437.36 594.36 432.25 C 590.20 432.42 586.48 434.76 583.66 437.67 M 345.97 438.11 C 345.94 442.37 345.40 446.66 346.10 450.90 C 346.78 444.46 354.89 444.95 359.63 445.72 C 359.02 442.12 359.19 438.43 360.12 434.90 C 357.12 434.84 354.13 434.50 351.13 434.39 C 348.97 434.88 347.50 436.65 345.97 438.11 M 368.09 443.07 C 369.77 443.39 372.51 444.91 373.41 442.63 C 374.36 440.48 374.26 435.96 371.03 436.17 C 368.19 436.93 368.54 440.77 368.09 443.07 M 627.30 444.64 C 627.34 447.47 627.37 450.30 627.19 453.12 C 629.07 453.16 630.97 453.18 632.88 453.16 C 634.78 451.21 636.11 448.66 635.40 445.87 C 632.79 444.98 630.05 444.60 627.30 444.64 M 506.89 453.08 C 508.28 454.15 509.76 455.10 511.24 456.07 C 511.65 457.37 512.09 458.69 512.56 459.98 C 513.20 456.27 510.23 453.73 506.89 453.08 M 354.97 458.11 C 354.52 459.53 354.07 460.95 353.65 462.39 C 355.43 462.13 357.77 462.79 358.97 461.04 C 360.63 459.63 360.16 457.32 360.26 455.43 C 358.50 456.32 356.73 457.21 354.97 458.11 M 227.29 468.24 C 223.85 471.53 223.88 476.96 226.07 480.94 C 228.27 481.39 230.53 481.37 232.76 481.64 C 227.96 478.81 228.41 471.47 232.16 467.98 C 235.01 465.88 238.75 466.04 242.08 465.41 C 237.01 464.28 231.31 464.60 227.29 468.24 M 248.26 467.23 C 250.88 468.48 252.35 471.14 251.87 474.04 C 252.19 478.23 248.41 480.74 245.26 482.58 C 249.53 481.71 253.70 483.62 257.98 483.37 C 261.97 483.23 265.98 483.12 269.96 483.57 C 270.23 480.89 270.73 478.23 270.75 475.53 C 263.16 473.03 255.76 470.00 248.26 467.23 M 407.01 468.18 C 404.43 468.96 402.66 471.24 400.25 472.37 C 400.88 471.03 401.92 470.00 402.90 468.92 C 398.10 470.55 393.46 472.74 389.15 475.38 C 384.30 479.32 383.80 486.37 384.89 492.10 C 386.60 497.83 392.17 501.30 397.51 503.21 C 407.04 506.22 417.18 505.39 427.01 505.17 C 437.40 504.07 447.82 502.76 457.95 500.20 C 461.38 500.63 463.58 497.35 466.89 497.41 C 475.30 497.08 483.67 495.58 492.10 496.29 C 495.37 496.50 497.84 498.87 500.37 500.67 C 508.02 505.88 514.59 512.75 519.08 520.87 C 522.36 526.75 527.49 531.38 530.46 537.45 C 532.16 540.75 533.63 544.19 535.85 547.20 C 548.47 562.81 561.98 578.96 580.84 587.17 C 589.41 592.11 599.44 593.77 607.79 599.15 C 615.15 603.48 623.82 601.98 631.93 602.39 C 640.62 602.93 649.35 602.15 658.02 603.17 C 664.46 603.13 671.14 604.00 677.32 601.69 C 682.12 600.75 686.08 597.79 690.06 595.12 C 691.90 593.74 694.75 594.26 696.16 592.26 C 702.73 585.18 709.84 577.24 710.43 567.09 C 702.15 571.70 695.16 578.67 686.05 581.71 C 680.29 583.72 675.14 587.37 669.08 588.50 C 657.28 589.73 645.58 587.00 633.85 586.46 C 630.55 585.92 627.43 584.46 624.04 584.49 C 614.92 584.71 607.34 578.78 600.25 573.79 C 594.60 569.12 590.42 562.95 584.89 558.13 C 578.60 552.76 572.42 547.15 567.11 540.80 C 565.01 536.42 560.93 533.69 557.30 530.72 C 552.41 526.96 548.65 521.99 544.90 517.16 C 536.64 501.76 524.03 488.92 509.58 479.28 C 507.11 477.86 504.82 476.18 502.42 474.69 C 499.32 473.13 495.98 472.03 492.51 471.78 C 490.66 470.69 488.47 471.07 486.45 470.84 C 476.10 468.20 465.22 469.06 454.59 469.17 C 450.39 470.99 445.44 469.61 440.94 469.94 C 429.73 468.13 418.36 467.33 407.01 468.18 M 671.25 468.25 C 670.32 470.46 670.93 472.95 671.92 475.04 C 675.42 476.10 679.16 476.80 682.79 475.92 C 684.67 474.66 684.86 471.24 682.79 470.10 C 679.44 467.94 675.08 467.07 671.25 468.25 M 569.81 478.64 C 572.63 478.76 576.13 478.94 577.48 475.85 C 574.72 476.10 571.78 476.46 569.81 478.64 M 353.37 481.33 C 351.03 481.19 349.08 482.43 347.86 484.39 C 351.46 484.38 356.59 485.12 358.46 481.11 C 359.36 479.11 356.47 478.76 355.28 478.06 C 354.67 479.17 354.02 480.24 353.37 481.33 M 279.48 478.38 C 279.59 480.65 280.58 483.59 283.01 484.23 C 285.58 484.01 287.57 482.11 288.77 479.96 C 285.62 479.76 282.54 479.11 279.48 478.38 M 662.56 487.89 C 662.74 489.11 664.32 490.07 665.48 489.58 C 666.18 488.21 663.24 486.30 662.56 487.89 M 610.46 492.49 C 610.00 493.21 609.56 493.94 609.12 494.68 C 610.80 495.86 612.14 494.60 613.27 493.38 C 612.33 493.07 611.39 492.78 610.46 492.49 M 549.95 505.12 C 551.09 507.48 553.00 509.33 554.64 511.34 C 560.73 518.87 566.78 526.45 573.59 533.35 C 578.61 538.07 584.62 541.61 589.59 546.40 C 592.93 549.71 597.44 552.01 599.44 556.49 C 601.82 558.49 604.54 560.06 606.97 562.03 C 606.90 552.75 607.97 543.33 605.54 534.27 C 603.79 530.88 600.24 529.04 597.71 526.33 C 594.11 522.33 590.55 517.95 585.49 515.74 C 581.16 513.74 577.29 510.87 572.93 508.94 C 569.01 508.15 564.93 508.85 561.01 507.96 C 557.18 507.55 553.75 505.60 549.95 505.12 M 699.86 509.97 C 699.23 512.78 700.84 516.04 704.11 515.37 C 704.33 512.82 704.47 510.27 704.26 507.72 C 702.78 508.08 699.85 507.75 699.86 509.97 M 495.71 510.58 C 495.81 515.07 495.48 519.59 495.88 524.07 C 498.38 527.87 500.24 532.39 504.24 534.92 C 508.31 537.95 511.53 541.89 514.98 545.58 C 516.84 543.93 519.13 543.06 521.63 543.01 C 518.38 538.02 515.48 532.80 511.94 528.02 C 509.96 526.79 508.99 529.59 508.05 530.75 C 506.51 530.72 505.57 529.28 504.46 528.43 C 502.71 526.59 500.03 525.48 499.17 522.94 C 497.88 519.46 498.84 515.69 498.93 512.11 C 497.85 511.60 496.77 511.09 495.71 510.58 M 523.35 554.96 C 523.32 555.12 523.28 555.43 523.25 555.58 C 525.27 555.79 527.29 555.93 529.33 555.93 C 528.52 554.65 527.49 553.56 526.30 552.65 C 525.67 553.91 524.68 554.68 523.35 554.96 M 693.00 552.83 C 692.85 554.65 692.74 556.48 692.67 558.33 C 694.46 558.60 696.26 559.01 698.10 558.84 C 699.44 555.40 695.68 553.61 693.00 552.83 M 680.32 567.37 C 682.84 567.23 685.31 566.64 687.73 565.90 C 686.27 564.52 685.00 562.95 684.10 561.17 C 682.38 562.94 679.93 564.54 680.32 567.37 M 529.35 564.97 C 532.78 570.59 535.67 576.54 539.47 581.93 C 539.20 578.07 541.79 574.73 541.59 570.94 C 539.51 568.15 536.87 565.82 534.82 563.01 C 533.04 563.79 531.23 564.49 529.35 564.97 M 549.03 584.87 C 548.90 585.50 548.63 586.76 548.50 587.40 C 547.16 588.01 545.78 588.55 544.28 588.48 C 547.47 591.01 549.98 594.28 553.08 596.91 C 558.52 601.25 563.31 606.40 569.44 609.85 C 566.97 604.36 570.61 598.08 575.51 595.32 C 569.09 591.71 563.67 586.42 556.89 583.47 C 554.53 585.23 551.82 585.73 549.03 584.87 M 447.61 599.61 C 449.77 605.18 448.65 612.08 444.39 616.37 C 440.29 620.35 433.50 620.20 428.92 617.16 C 425.55 614.70 424.24 610.41 423.35 606.53 C 417.80 608.86 412.20 611.09 406.84 613.85 C 410.70 615.23 415.09 617.08 416.45 621.36 C 417.38 626.28 417.35 632.76 412.59 635.77 C 403.59 640.70 389.98 632.55 391.76 621.90 C 383.23 625.96 375.23 631.19 366.30 634.41 C 372.48 638.01 377.97 644.36 377.44 651.94 C 377.56 656.99 374.37 662.41 369.01 663.01 C 361.69 663.94 353.32 660.94 349.69 654.19 C 348.11 651.37 348.12 648.07 348.36 644.95 C 347.20 648.23 347.11 652.05 344.74 654.77 C 343.43 656.45 340.45 655.97 339.64 654.00 C 336.99 649.92 338.90 644.75 340.54 640.65 C 334.38 641.29 328.23 642.15 322.05 642.45 C 306.36 642.32 290.49 643.16 275.00 640.25 C 267.03 640.02 258.84 640.05 251.14 642.39 C 245.79 644.00 241.94 648.21 238.10 652.02 C 235.66 654.71 233.33 658.30 234.45 662.11 C 235.71 666.85 237.58 672.03 242.09 674.60 C 256.62 683.68 274.14 686.34 290.98 687.14 C 310.18 687.15 329.58 687.89 348.56 684.37 C 360.07 682.25 370.85 677.44 381.14 671.99 C 389.41 667.66 397.70 663.33 405.89 658.83 C 413.92 654.35 420.89 647.97 429.56 644.66 C 433.38 643.11 437.72 643.47 441.41 641.56 C 445.14 639.79 449.23 638.90 452.83 636.84 C 457.09 634.42 462.26 634.68 466.53 632.29 C 469.99 630.54 473.25 628.30 477.01 627.21 C 482.86 625.34 489.09 626.74 495.07 625.79 C 502.33 624.79 509.65 625.63 516.94 625.88 C 521.72 626.11 526.16 628.34 530.98 628.36 C 540.05 628.62 548.86 631.09 557.89 631.64 C 553.23 629.73 548.63 627.67 543.84 626.13 C 533.58 622.53 525.28 615.21 515.49 610.65 C 513.14 609.82 510.61 609.82 508.16 609.69 C 504.26 617.90 493.19 621.46 485.40 616.69 C 480.62 613.83 479.69 607.87 479.67 602.77 C 469.30 599.64 458.37 599.24 447.61 599.61 M 489.97 609.21 C 493.16 610.06 497.18 609.96 499.09 606.81 C 495.82 606.43 492.59 607.22 489.97 609.21 M 578.29 606.18 C 578.56 607.43 579.33 607.63 580.62 606.76 C 580.34 605.50 579.56 605.30 578.29 606.18 M 610.13 620.17 C 606.57 620.78 604.65 623.96 601.95 625.93 C 599.52 626.92 596.90 627.31 594.40 628.05 L 594.51 629.17 C 601.66 629.25 608.78 628.56 615.90 628.09 C 619.83 627.81 622.93 625.12 626.53 623.83 C 631.08 622.41 634.58 619.01 638.93 617.17 C 635.11 615.77 631.03 615.43 627.00 615.62 C 621.94 618.73 615.59 618.00 610.13 620.17 M 658.46 618.41 C 655.73 622.33 651.03 623.73 647.09 626.03 C 642.69 628.66 637.60 629.71 633.04 631.96 C 627.55 634.70 621.82 636.91 616.07 638.98 C 607.97 641.94 599.25 639.80 590.90 640.89 C 583.98 642.05 576.94 641.36 569.96 641.55 C 557.51 642.02 545.41 638.41 533.07 637.56 C 527.95 637.44 522.97 636.31 518.04 635.06 C 510.05 634.48 501.99 634.05 494.00 634.87 C 488.98 635.47 483.77 634.45 478.91 636.11 C 473.91 638.04 469.66 641.82 464.21 642.53 C 469.92 642.44 475.50 643.83 481.14 644.49 C 484.29 643.59 487.56 643.80 490.41 645.51 C 497.58 649.48 505.88 650.37 513.28 653.78 C 518.94 656.38 525.19 657.10 531.07 659.06 C 535.39 660.43 539.54 662.44 544.07 663.11 C 548.47 663.78 552.79 664.86 557.11 665.94 C 564.94 667.79 573.03 667.01 580.98 666.82 C 588.10 667.27 594.93 664.94 601.89 663.93 C 608.07 661.13 614.57 659.35 621.22 658.10 C 628.57 655.06 636.63 653.76 643.43 649.45 C 646.23 647.67 649.82 646.67 651.57 643.62 C 656.70 635.74 660.63 627.14 663.91 618.35 C 662.09 618.36 660.27 618.36 658.46 618.41 M 401.14 625.32 C 402.82 627.35 405.27 628.42 407.93 628.23 C 407.99 626.77 408.05 625.33 408.10 623.89 C 405.61 622.94 403.05 623.46 401.14 625.32 M 357.05 646.54 C 356.63 652.46 363.36 654.60 368.16 654.20 C 368.97 650.41 367.69 646.64 364.68 644.19 C 362.24 645.31 359.84 646.63 357.05 646.54 M 630.33 666.42 L 630.01 667.24 C 630.69 669.94 632.73 665.77 630.33 666.42 M 602.64 673.05 C 604.23 676.34 604.75 679.99 604.83 683.62 C 608.26 681.54 611.91 679.62 614.42 676.38 C 616.77 673.16 621.82 671.95 621.82 667.34 C 615.03 667.80 609.02 671.08 602.64 673.05 M 630.45 668.39 C 630.93 672.55 628.84 676.38 625.46 678.67 C 625.72 678.97 626.26 679.56 626.52 679.86 C 616.86 686.55 606.81 692.69 596.40 698.13 C 591.59 699.39 586.79 700.72 581.92 701.73 C 580.12 704.06 578.06 706.53 575.00 707.11 C 569.49 708.18 563.51 707.28 558.66 704.41 C 558.19 703.46 557.73 702.52 557.27 701.59 C 553.26 700.99 549.18 700.69 545.14 701.11 C 542.51 707.62 534.71 711.39 528.06 708.76 C 524.47 707.67 522.90 703.76 522.99 700.28 C 517.88 700.31 513.14 702.60 508.06 702.72 C 505.26 702.85 502.50 703.28 499.74 703.69 C 499.57 709.80 498.84 716.71 494.16 721.16 C 489.57 725.50 481.54 723.99 478.02 719.00 C 476.29 716.42 473.64 713.73 474.47 710.37 C 469.94 714.48 465.06 718.21 461.09 722.91 C 463.75 729.84 460.47 737.18 457.06 743.22 C 454.52 748.06 447.75 750.72 443.01 747.44 C 440.68 748.98 437.98 749.71 435.34 750.53 C 433.10 752.90 430.45 757.63 433.70 760.25 C 437.60 763.30 441.19 767.09 445.97 768.74 C 449.56 769.47 453.29 769.25 456.94 769.18 C 462.82 768.63 469.16 768.50 474.29 765.21 C 477.74 754.92 486.50 747.86 494.89 741.59 C 502.05 737.21 509.43 732.53 517.94 731.42 C 522.61 731.02 527.27 730.34 531.97 730.30 C 538.41 730.36 544.55 727.92 551.01 728.09 C 558.92 726.66 567.00 728.11 574.91 726.69 C 583.55 726.42 592.18 725.69 600.80 725.06 C 605.29 723.29 609.76 721.39 614.14 719.35 C 619.44 716.51 623.87 712.34 628.21 708.24 C 633.56 702.01 635.21 693.14 633.58 685.21 C 632.47 680.02 632.62 674.71 631.99 669.47 L 630.45 668.39 M 479.26 707.15 C 483.26 708.47 483.77 713.59 487.67 715.08 C 490.29 712.18 490.51 708.18 490.73 704.49 C 486.67 704.18 482.57 704.59 479.26 707.15 M 449.35 737.27 C 448.21 737.32 447.17 739.77 448.83 739.76 C 449.98 739.70 451.05 737.23 449.35 737.27 Z" />
<path fill="#e1c25e" opacity="1.00" d=" M 607.08 145.50 L 607.59 146.59 C 607.86 146.52 608.39 146.37 608.65 146.30 C 606.57 147.13 606.20 149.48 605.60 151.37 C 605.28 151.20 604.63 150.86 604.30 150.68 C 605.05 148.87 606.10 147.20 607.08 145.50 Z" />
<path fill="#e1c25e" opacity="1.00" d=" M 650.47 150.26 C 651.58 149.47 653.37 149.51 654.49 150.31 C 654.32 151.75 650.59 151.74 650.47 150.26 Z" />
<path fill="#e1c25e" opacity="1.00" d=" M 456.81 241.55 C 457.98 238.09 461.20 235.15 465.03 235.39 C 471.88 235.69 477.70 239.94 482.87 244.06 C 486.89 247.13 489.78 252.11 488.97 257.29 C 488.40 259.99 488.84 262.78 488.47 265.48 C 485.83 269.85 480.19 268.94 475.88 268.73 C 469.13 267.69 463.59 262.27 460.96 256.15 C 460.52 254.76 458.76 254.80 457.67 254.24 C 454.61 250.67 455.44 245.65 456.81 241.55 M 465.48 244.37 C 465.39 244.80 465.23 245.64 465.14 246.06 C 467.73 246.01 468.85 248.07 469.77 250.14 C 471.28 250.82 473.14 251.10 474.25 252.45 C 475.22 254.61 474.70 257.03 473.82 259.12 C 476.72 259.58 481.31 259.09 480.11 254.96 C 477.12 249.63 471.20 246.20 465.48 244.37 Z" />
<path fill="#e1c25e" opacity="1.00" d=" M 371.68 287.05 C 372.16 284.52 374.10 281.84 377.00 282.24 C 382.20 281.69 385.01 289.87 380.34 292.46 C 381.67 292.48 383.02 292.56 384.37 292.65 L 384.36 291.20 C 387.86 291.36 391.92 291.84 394.05 295.03 C 396.70 299.25 395.85 305.02 393.00 308.92 C 390.58 312.08 386.28 312.64 382.58 312.27 C 383.28 313.35 383.99 314.43 384.70 315.52 C 381.27 313.70 377.25 312.21 375.60 308.36 C 371.20 302.21 370.78 294.31 371.68 287.05 M 385.24 300.81 C 383.82 301.24 384.03 304.08 385.78 303.34 C 387.19 302.93 386.93 300.12 385.24 300.81 Z" />
<path fill="#e1c25e" opacity="1.00" d=" M 581.89 303.91 C 582.73 303.28 583.83 301.56 584.66 303.15 C 576.41 314.26 564.87 322.79 558.17 335.10 C 558.86 329.51 561.83 324.56 565.58 320.47 C 570.83 314.77 576.45 309.42 581.89 303.91 Z" />
<path fill="#e1c25e" opacity="1.00" d=" M 406.71 320.93 C 411.78 320.80 417.61 323.68 418.99 328.89 C 420.62 333.78 417.16 339.71 412.01 340.47 C 409.86 340.67 407.78 341.14 405.74 341.80 C 401.47 339.96 397.65 335.30 398.94 330.38 C 400.23 326.50 401.84 321.29 406.71 320.93 Z" />
<path fill="#e1c25e" opacity="1.00" d=" M 308.10 333.10 C 308.93 329.65 311.25 326.22 315.02 325.68 C 319.65 325.14 324.57 326.07 328.48 328.67 C 331.22 330.47 333.03 333.68 332.78 337.00 C 332.87 344.37 326.82 350.66 320.00 352.56 C 314.92 353.62 309.21 354.00 304.50 351.49 C 297.92 347.02 300.50 335.06 308.10 333.10 M 316.85 334.58 C 316.80 336.76 316.80 338.95 316.88 341.14 C 314.79 342.93 312.24 343.11 309.67 342.32 L 310.10 344.06 C 313.82 344.47 318.19 344.70 321.10 341.88 C 322.61 340.56 324.21 338.50 323.56 336.39 C 321.75 334.71 319.16 334.73 316.85 334.58 Z" />
<path fill="#e1c25e" opacity="1.00" d=" M 361.37 327.60 C 364.62 326.13 368.54 325.74 371.90 327.08 C 374.94 328.29 376.68 331.76 376.24 334.94 C 375.81 341.34 372.09 347.23 366.92 350.90 C 362.54 353.82 356.88 354.35 351.83 353.18 C 348.51 352.43 345.54 349.59 345.30 346.10 C 344.81 341.15 345.81 335.78 349.15 331.95 C 350.83 329.86 353.66 330.56 355.98 330.50 C 357.90 329.79 359.48 328.39 361.37 327.60 M 356.24 344.94 C 361.95 345.14 365.98 340.34 367.37 335.24 C 362.02 336.02 358.78 340.65 356.24 344.94 Z" />
<path fill="#e1c25e" opacity="1.00" d=" M 500.56 348.57 C 509.31 340.00 519.27 332.68 530.05 326.87 C 521.12 336.85 511.60 346.96 499.47 353.01 C 498.92 351.41 499.17 349.65 500.56 348.57 Z" />
<path fill="#e1c25e" opacity="1.00" d=" M 387.46 345.79 C 392.88 344.29 399.46 345.28 403.41 349.54 C 408.50 356.55 405.14 367.98 397.06 371.15 C 392.51 372.97 387.14 372.69 382.81 370.40 C 379.42 368.59 377.70 364.69 377.70 360.97 C 377.44 354.58 381.75 348.38 387.46 345.79 M 390.15 354.30 C 386.83 355.28 386.16 359.11 386.90 362.07 C 388.13 363.58 390.29 363.29 392.04 363.24 C 395.61 363.08 397.75 358.59 396.41 355.53 C 394.83 354.12 392.17 353.44 390.15 354.30 Z" />
<path fill="#e1c25e" opacity="1.00" d=" M 534.44 387.36 C 531.58 373.55 536.38 359.75 541.43 347.06 C 540.51 360.52 538.82 373.91 537.51 387.34 C 536.48 387.34 535.46 387.35 534.44 387.36 Z" />
<path fill="#e1c25e" opacity="1.00" d=" M 284.92 349.82 C 289.82 349.44 296.19 350.79 297.76 356.16 C 300.15 362.68 295.69 370.31 289.07 371.95 C 284.20 373.02 278.80 373.10 274.17 371.01 C 266.07 367.20 268.47 351.58 278.07 352.01 C 280.37 351.34 282.51 350.07 284.92 349.82 M 284.30 359.19 C 282.68 360.36 281.46 361.96 280.23 363.50 C 283.74 363.64 289.87 364.12 289.33 358.86 C 287.67 358.98 285.86 358.47 284.30 359.19 Z" />
<path fill="#e1c25e" opacity="1.00" d=" M 548.43 351.53 C 550.21 351.09 552.56 351.15 553.44 353.08 C 555.74 357.74 554.01 363.04 553.42 367.91 C 552.20 373.55 552.67 379.37 551.77 385.05 C 551.38 387.04 550.51 389.74 548.10 389.90 C 545.18 390.41 543.99 387.22 543.50 384.97 C 542.27 375.60 544.68 366.33 545.69 357.07 C 546.01 355.00 546.48 352.69 548.43 351.53 Z" />
<path fill="#e1c25e" opacity="1.00" d=" M 397.65 387.02 C 398.21 384.97 399.47 382.53 401.84 382.29 C 411.48 380.40 420.58 392.74 415.18 401.20 C 409.70 403.88 402.52 401.78 399.02 396.87 C 397.02 394.03 397.09 390.30 397.65 387.02 M 404.79 395.09 C 406.72 395.77 408.65 396.59 410.74 396.58 C 412.20 393.54 408.86 390.95 406.88 389.08 C 405.33 390.72 404.48 392.80 404.79 395.09 Z" />
<path fill="#e1c25e" opacity="1.00" d=" M 428.09 401.12 C 428.96 397.98 433.05 396.22 435.80 398.10 C 437.20 398.91 437.32 400.72 437.81 402.10 C 440.27 402.31 443.08 402.09 445.05 403.89 C 449.46 407.52 447.05 415.38 441.92 417.00 C 436.98 418.58 429.89 417.42 427.99 411.90 C 427.04 408.43 427.05 404.57 428.09 401.12 Z" />
<path fill="#e1c25e" opacity="1.00" d=" M 424.67 417.99 C 429.29 417.47 434.25 419.07 437.33 422.63 C 441.82 428.03 440.10 436.78 434.74 440.97 C 430.97 444.17 425.75 444.46 421.04 444.25 C 417.97 444.06 414.31 443.30 412.85 440.25 C 410.66 435.15 412.46 429.13 416.10 425.17 C 417.91 421.82 420.33 417.93 424.67 417.99 M 425.68 426.63 C 425.54 428.13 425.69 429.70 425.26 431.17 C 424.22 433.16 421.73 433.53 420.28 435.14 C 423.96 435.73 429.26 435.87 430.72 431.56 C 432.41 428.38 428.15 426.65 425.68 426.63 Z" />
<path fill="#e1c25e" opacity="1.00" d=" M 466.42 419.50 C 469.95 417.84 474.71 418.65 477.04 421.94 C 479.49 425.81 477.64 431.55 473.53 433.48 C 469.26 435.62 463.85 432.95 461.64 429.08 C 461.14 425.33 463.22 421.43 466.42 419.50 M 468.50 428.25 C 469.47 428.29 470.44 428.33 471.42 428.38 C 471.74 427.11 473.42 425.18 471.20 424.78 C 468.82 424.28 468.31 426.42 468.50 428.25 Z" />
<path fill="#e1c25e" opacity="1.00" d=" M 487.48 430.59 C 490.91 429.41 495.40 430.21 497.31 433.59 C 498.27 436.60 498.23 440.46 495.77 442.78 C 493.48 445.32 489.65 445.07 486.60 444.41 C 481.25 441.82 482.38 432.89 487.48 430.59 M 490.31 437.27 C 490.81 437.83 490.81 437.83 490.31 437.27 Z" />
<path fill="#e1c25e" opacity="1.00" d=" M 315.06 478.85 C 321.01 477.01 328.77 478.32 332.04 484.16 C 335.27 490.98 332.36 500.65 325.06 503.48 C 320.38 504.46 314.93 504.23 311.17 500.94 C 309.11 498.58 308.70 495.31 307.81 492.42 C 307.06 487.04 309.89 480.97 315.06 478.85 M 317.95 491.05 C 317.95 492.42 317.97 493.79 318.00 495.17 C 319.89 495.06 322.39 495.66 323.40 493.57 C 324.45 491.88 325.19 488.12 322.72 487.44 C 321.16 488.69 319.71 490.08 317.95 491.05 Z" />
<path fill="#e1c25e" opacity="1.00" d=" M 262.43 647.64 C 267.66 645.09 274.90 646.51 278.27 651.42 C 282.41 658.95 277.60 669.73 269.17 671.60 C 263.04 672.60 255.78 671.65 251.67 666.51 C 248.05 661.58 248.96 651.88 256.02 650.75 C 258.54 650.61 260.37 648.86 262.43 647.64 M 264.88 658.90 C 264.63 660.37 264.36 661.82 264.11 663.30 C 265.69 662.92 267.46 662.88 268.82 661.89 C 270.21 660.62 270.40 658.64 270.92 656.95 C 268.86 657.44 266.86 658.13 264.88 658.90 Z" />
<path fill="#e1c25e" opacity="1.00" d=" M 291.52 647.75 C 295.81 646.25 300.48 646.31 304.98 646.42 C 309.77 646.74 315.29 648.41 317.52 653.08 C 321.16 661.40 315.66 672.08 306.99 674.44 C 301.23 675.95 294.93 675.81 289.44 673.42 C 286.06 671.99 283.42 668.68 283.38 664.93 C 283.14 658.45 285.65 651.14 291.52 647.75 M 296.17 656.26 C 292.70 657.55 292.42 661.96 292.62 665.13 C 297.58 666.58 304.49 667.72 308.08 663.04 C 309.43 661.13 310.70 657.37 307.98 656.09 C 304.13 654.96 300.06 655.88 296.17 656.26 Z" />
</g>
<g id="#9a895b3f">
<path fill="#e1c25e" opacity="0.25" d=" M 331.03 208.26 C 334.34 208.36 329.50 211.30 331.03 208.26 Z" />
<path fill="#e1c25e" opacity="0.25" d=" M 384.36 242.12 C 387.41 240.61 384.47 245.41 384.36 242.12 Z" />
<path fill="#e1c25e" opacity="0.25" d=" M 416.95 285.96 C 423.59 289.35 431.08 291.43 438.58 290.41 C 440.23 290.25 441.77 291.02 443.29 291.57 C 439.85 291.39 436.41 291.72 432.99 291.43 C 430.41 291.27 427.74 290.53 425.24 291.55 C 425.32 291.16 425.48 290.37 425.55 289.98 L 423.47 289.91 L 424.40 291.22 C 421.65 290.05 417.76 289.33 416.95 285.96 Z" />
<path fill="#e1c25e" opacity="0.25" d=" M 490.31 437.27 C 490.81 437.83 490.81 437.83 490.31 437.27 Z" />
<path fill="#e1c25e" opacity="0.25" d=" M 449.35 737.27 C 451.05 737.23 449.98 739.70 448.83 739.76 C 447.17 739.77 448.21 737.32 449.35 737.27 Z" />
</g>
</svg>
