<?xml version="1.0" encoding="UTF-8" ?>
<!DOCTYPE svg PUBLIC "-//W3C//DTD SVG 1.1//EN" "http://www.w3.org/Graphics/SVG/1.1/DTD/svg11.dtd">
<svg width="406pt" height="254pt" viewBox="0 0 406 254" version="1.1" xmlns="http://www.w3.org/2000/svg">
<g id="#000000ff">
<path fill="#000000" opacity="1.00" d=" M 206.96 46.17 C 215.94 45.28 224.99 45.39 233.97 46.26 C 239.01 46.76 244.57 45.08 249.16 47.88 C 254.23 50.76 259.98 53.66 262.78 59.05 C 263.36 62.33 262.78 65.66 262.54 68.94 C 261.84 78.32 256.69 87.07 257.55 96.59 C 259.50 101.22 263.80 104.31 265.70 109.02 C 265.72 110.90 265.75 112.78 265.78 114.67 C 269.14 114.73 272.68 114.12 275.89 115.41 C 281.39 117.56 282.70 126.32 277.79 129.74 C 274.77 132.21 270.87 133.05 267.15 133.79 C 268.06 143.52 267.44 153.29 267.46 163.04 C 267.49 165.81 267.11 168.56 266.64 171.29 C 250.75 171.59 234.88 169.88 219.01 171.04 C 206.68 172.11 194.24 170.78 181.95 172.15 C 179.27 172.27 176.58 172.29 173.90 172.33 L 173.12 171.70 C 154.23 171.42 135.34 171.86 116.46 171.37 C 115.54 170.41 114.63 169.44 113.73 168.46 C 113.82 158.51 113.59 148.56 113.29 138.62 C 108.63 138.29 103.59 137.36 100.06 134.06 C 97.37 131.06 96.04 125.44 99.47 122.48 C 102.93 119.03 108.04 118.38 112.68 118.15 C 113.99 114.52 114.13 110.45 116.16 107.10 C 118.09 105.03 120.75 103.83 122.67 101.75 C 123.58 95.59 120.41 89.84 119.69 83.82 C 118.65 75.91 115.14 68.00 117.15 59.96 C 123.05 54.00 130.90 49.78 139.09 47.97 C 144.82 47.34 150.65 47.73 156.37 46.82 C 173.22 45.79 190.11 47.08 206.96 46.17 M 196.01 49.36 C 182.51 49.36 169.01 49.24 155.51 49.57 C 154.56 52.12 153.68 54.69 152.89 57.29 C 162.97 57.49 172.90 54.66 182.99 55.96 C 190.35 57.15 197.65 55.04 205.03 55.36 C 212.32 55.53 219.65 56.23 226.91 55.17 C 225.75 52.76 224.37 50.48 222.81 48.31 C 213.87 48.55 204.91 48.38 196.01 49.36 M 227.04 48.56 C 228.41 50.77 229.71 53.02 230.96 55.30 C 232.47 55.28 233.99 55.26 235.50 55.22 C 234.29 52.73 232.62 50.51 230.63 48.58 C 229.43 48.58 228.23 48.57 227.04 48.56 M 234.96 48.75 C 236.04 50.99 237.18 53.22 238.37 55.41 C 244.01 54.41 249.71 55.03 255.38 55.30 C 252.88 53.19 250.15 51.32 247.17 49.94 C 243.43 47.87 239.02 48.83 234.96 48.75 M 146.81 50.58 C 145.62 52.71 144.46 54.88 143.89 57.27 C 145.75 57.28 147.61 57.30 149.47 57.32 C 149.90 55.83 150.34 54.34 150.77 52.84 C 151.20 52.01 151.64 51.18 152.07 50.34 C 150.32 50.42 148.56 50.51 146.81 50.58 M 127.56 56.71 C 131.79 57.36 136.08 57.30 140.35 57.30 C 141.19 54.91 142.07 52.54 142.92 50.15 C 137.60 51.84 132.47 54.06 127.56 56.71 M 213.46 58.70 L 213.50 59.34 C 199.99 58.75 186.47 58.41 172.94 58.40 C 156.55 60.55 139.93 59.03 123.44 59.60 C 122.97 60.20 122.50 60.81 122.03 61.42 C 130.38 61.39 138.72 61.54 147.07 61.55 C 152.42 61.72 157.73 59.89 163.05 61.15 C 168.69 61.32 174.34 61.31 179.98 61.16 C 185.59 60.11 191.32 60.96 196.99 60.69 C 209.32 60.70 221.65 60.28 233.98 60.47 C 238.00 60.41 242.08 60.76 246.02 59.84 C 250.00 59.67 254.01 59.95 257.97 59.32 C 253.53 57.89 248.78 57.27 244.16 58.09 C 233.95 58.92 223.69 58.09 213.46 58.70 M 177.81 84.80 C 176.41 84.36 175.01 83.91 173.62 83.43 C 171.15 84.67 169.80 86.96 169.12 89.55 C 167.05 89.42 164.99 89.31 162.93 89.33 C 162.29 90.88 161.65 92.42 161.04 93.98 C 158.42 93.29 155.83 92.27 153.06 92.47 C 152.34 93.71 151.61 94.94 150.89 96.18 C 149.52 95.08 148.20 93.92 146.92 92.73 C 143.96 93.88 140.45 93.68 137.93 95.82 C 135.97 97.72 133.16 97.76 130.67 98.43 C 130.65 99.76 130.63 101.08 130.61 102.40 C 129.06 102.84 127.51 103.27 125.96 103.71 C 125.36 104.97 124.76 106.24 124.16 107.51 C 123.57 107.56 122.40 107.65 121.81 107.70 C 121.26 107.99 120.15 108.57 119.59 108.85 C 119.50 109.23 119.33 109.98 119.25 110.35 C 132.14 110.61 145.12 111.00 157.97 109.79 C 166.85 109.29 175.75 109.66 184.64 109.60 C 185.32 107.52 184.54 103.34 187.83 103.62 C 193.64 103.90 199.43 103.14 205.24 103.34 C 205.73 105.40 206.17 107.47 206.56 109.55 C 211.71 109.79 217.02 108.79 222.05 110.18 C 234.93 110.50 247.82 110.28 260.70 110.56 C 259.60 107.46 258.10 104.55 255.91 102.08 C 255.01 101.86 253.19 101.42 252.28 101.20 C 251.59 101.87 250.91 102.54 250.23 103.22 L 251.46 103.37 C 251.43 103.93 251.37 105.04 251.34 105.60 C 250.98 105.56 250.27 105.47 249.91 105.43 C 248.99 104.52 248.07 103.62 247.14 102.72 C 247.68 102.54 248.75 102.17 249.29 101.99 C 249.30 100.47 249.36 98.95 249.46 97.43 C 247.24 96.50 244.98 95.69 242.70 94.91 C 242.51 93.70 242.34 92.50 242.15 91.30 C 238.77 89.71 236.80 86.03 232.94 85.33 C 232.79 86.64 232.64 87.95 232.48 89.25 C 229.47 88.18 225.67 87.47 223.64 90.61 C 222.10 90.55 220.56 90.33 219.02 90.52 C 217.56 91.49 216.31 92.73 214.94 93.82 C 214.79 93.13 214.48 91.76 214.32 91.07 C 212.75 91.24 211.18 91.41 209.62 91.59 C 209.21 90.25 208.80 88.91 208.39 87.57 C 204.89 87.20 201.43 86.61 197.93 86.31 C 197.25 84.88 196.56 83.45 195.89 82.01 C 193.83 82.39 191.82 82.97 189.84 83.66 C 189.21 83.92 187.94 84.44 187.30 84.70 C 185.34 80.47 180.57 82.75 177.81 84.80 M 187.68 106.83 C 187.61 112.32 187.76 117.82 188.29 123.30 L 189.44 122.82 L 189.44 123.26 C 193.83 123.25 198.22 123.52 202.61 123.48 C 202.67 122.15 202.75 120.82 202.75 119.50 C 203.59 115.33 203.89 110.99 203.14 106.79 C 198.02 106.06 192.83 106.88 187.68 106.83 M 207.43 112.53 C 207.39 113.53 207.35 114.53 207.32 115.53 C 209.89 115.54 212.48 115.67 215.02 116.13 C 217.32 115.74 219.66 115.64 222.00 115.66 C 234.87 115.55 247.74 115.33 260.62 115.56 C 260.67 115.04 260.78 113.98 260.84 113.46 C 246.23 113.38 231.61 113.22 217.00 113.45 C 215.02 113.47 213.03 113.30 211.10 112.84 C 209.88 112.73 208.65 112.63 207.43 112.53 M 119.77 113.34 C 120.03 114.33 120.28 115.32 120.54 116.32 C 124.51 116.29 128.48 116.27 132.46 116.34 L 132.53 115.65 C 150.11 115.57 167.71 115.85 185.29 115.45 C 184.25 113.68 182.38 113.28 180.51 113.09 L 180.50 112.47 C 179.05 112.76 177.60 113.01 176.15 113.22 C 157.37 113.67 138.57 113.39 119.77 113.34 M 134.30 119.44 C 134.15 132.47 136.72 145.54 134.34 158.51 C 136.13 158.58 137.92 158.65 139.71 158.73 C 139.17 145.62 139.55 132.51 138.74 119.42 C 137.26 119.42 135.78 119.43 134.30 119.44 M 140.46 119.46 C 141.57 132.57 141.79 145.72 141.14 158.85 C 142.97 158.85 144.80 158.86 146.63 158.87 C 146.42 145.72 147.14 132.54 146.10 119.42 C 144.22 119.43 142.34 119.45 140.46 119.46 M 146.86 119.45 C 148.49 132.62 147.30 145.95 147.90 159.18 C 150.07 159.16 152.25 159.15 154.43 159.12 C 154.27 151.41 154.77 143.67 153.83 135.99 C 153.22 130.51 153.08 124.97 153.40 119.46 C 151.22 119.46 149.04 119.45 146.86 119.45 M 154.47 119.46 C 155.03 129.29 156.73 139.06 156.52 148.93 C 156.60 152.34 156.14 155.82 156.88 159.18 C 158.72 159.27 160.55 159.20 162.39 159.16 C 162.17 152.78 161.31 146.39 161.92 140.00 C 162.53 133.15 162.42 126.25 161.54 119.43 C 159.18 119.44 156.82 119.45 154.47 119.46 M 169.64 119.54 C 169.92 132.78 169.21 146.01 169.32 159.25 C 171.93 159.24 174.54 159.24 177.15 159.23 C 176.27 145.97 177.06 132.67 176.83 119.39 C 174.43 119.43 172.03 119.48 169.64 119.54 M 226.53 119.49 C 227.67 132.70 227.90 145.96 227.75 159.22 C 229.30 159.21 230.85 159.20 232.40 159.20 C 232.19 145.93 232.77 132.68 232.56 119.42 C 230.54 119.44 228.54 119.46 226.53 119.49 M 234.23 119.42 C 234.40 132.76 233.86 146.08 233.38 159.41 C 235.04 159.10 236.72 158.79 238.38 158.47 C 238.17 150.32 238.96 142.16 238.23 134.03 C 237.76 129.18 237.76 124.30 237.68 119.43 C 236.53 119.43 235.38 119.42 234.23 119.42 M 118.48 119.43 C 118.90 126.59 118.16 133.79 119.08 140.92 C 119.71 146.38 119.57 151.89 119.58 157.38 C 120.09 157.49 121.10 157.70 121.61 157.81 C 122.30 154.92 122.57 151.92 121.78 149.01 C 121.59 139.17 121.64 129.32 121.64 119.47 C 120.85 119.46 119.27 119.44 118.48 119.43 M 125.10 119.43 C 125.85 125.83 124.87 132.49 127.10 138.66 C 127.85 132.62 127.12 126.48 128.07 120.45 C 129.00 133.09 128.46 145.79 128.61 158.45 C 129.91 158.51 131.21 158.57 132.51 158.64 C 132.30 152.39 133.12 146.18 133.16 139.96 C 132.34 133.16 132.40 126.32 132.34 119.49 C 129.93 119.47 127.51 119.45 125.10 119.43 M 163.41 119.46 C 164.90 132.71 163.93 146.05 164.45 159.34 C 165.44 159.31 167.43 159.23 168.43 159.20 C 168.63 145.94 168.13 132.70 168.27 119.45 C 166.65 119.45 165.03 119.45 163.41 119.46 M 177.81 119.45 C 177.91 132.72 177.77 146.00 178.46 159.25 C 180.16 159.25 181.87 159.24 183.58 159.24 C 183.57 152.80 183.54 146.35 184.16 139.93 C 184.72 133.09 183.94 126.26 183.37 119.45 C 181.52 119.45 179.66 119.45 177.81 119.45 M 205.88 119.45 C 204.24 132.70 205.89 146.05 205.41 159.36 C 206.47 159.32 208.60 159.23 209.66 159.18 C 209.70 145.93 209.07 132.70 209.70 119.45 C 208.75 119.45 206.84 119.45 205.88 119.45 M 210.04 119.42 C 210.83 132.68 211.88 145.94 211.69 159.24 C 213.34 159.24 214.98 159.24 216.62 159.24 C 216.77 150.78 218.68 142.46 218.46 133.99 C 218.42 129.17 218.45 124.35 218.51 119.52 C 215.69 119.47 212.86 119.44 210.04 119.42 M 219.23 119.58 C 219.23 127.73 219.83 135.91 219.27 144.06 C 218.58 149.10 218.33 154.18 218.49 159.27 C 220.93 159.24 223.37 159.22 225.81 159.20 C 225.80 153.46 225.65 147.72 226.08 141.99 C 226.64 134.47 225.20 126.99 225.40 119.46 C 223.35 119.50 221.29 119.54 219.23 119.58 M 239.09 119.44 C 239.44 132.54 240.01 145.63 239.53 158.73 C 241.53 158.67 243.52 158.61 245.52 158.56 C 246.04 145.51 245.22 132.46 245.78 119.43 C 243.55 119.43 241.32 119.44 239.09 119.44 M 246.19 119.43 C 247.76 132.41 247.84 145.49 247.32 158.54 C 248.31 158.48 250.31 158.36 251.31 158.30 C 251.34 145.33 252.11 132.39 252.50 119.44 C 250.40 119.44 248.29 119.43 246.19 119.43 M 258.53 157.78 C 260.12 157.78 261.71 157.77 263.31 157.77 C 263.46 153.51 263.60 149.24 263.24 144.99 C 262.29 137.13 262.75 129.18 262.55 121.28 C 261.16 120.96 259.78 120.66 258.39 120.37 C 258.34 132.84 258.64 145.31 258.53 157.78 M 266.83 121.11 C 266.84 123.31 266.85 125.51 266.86 127.72 C 268.89 127.52 270.94 127.42 272.94 126.97 C 274.74 126.44 277.44 125.43 276.36 123.06 C 273.54 121.20 270.07 121.27 266.83 121.11 M 104.99 125.03 C 102.64 125.94 102.62 130.09 105.26 130.57 C 107.80 131.37 110.51 131.23 113.14 131.38 C 113.13 129.00 113.13 126.62 113.12 124.24 C 110.42 124.44 107.52 123.93 104.99 125.03 M 185.75 126.18 C 187.21 137.18 184.95 148.21 185.59 159.25 C 187.17 159.24 188.76 159.23 190.34 159.22 C 190.33 148.28 190.88 137.31 189.63 126.41 C 188.34 126.33 187.04 126.26 185.75 126.18 M 190.37 126.36 C 190.63 137.32 191.76 148.25 191.61 159.22 C 193.90 159.23 196.19 159.24 198.48 159.25 C 198.53 148.43 198.15 137.60 198.82 126.79 C 196.01 126.64 193.19 126.49 190.37 126.36 M 199.24 126.89 C 200.14 137.65 199.52 148.46 199.95 159.24 C 201.36 159.24 202.76 159.25 204.18 159.26 C 204.27 148.35 204.35 137.44 203.84 126.55 C 202.31 126.66 200.77 126.78 199.24 126.89 M 253.00 147.97 C 252.54 151.56 252.42 155.22 253.26 158.77 C 254.33 148.76 255.04 138.59 253.98 128.55 C 252.80 134.97 253.88 141.52 253.00 147.97 M 119.73 162.38 C 119.73 163.47 119.74 164.55 119.74 165.64 C 125.19 165.28 130.53 166.64 135.96 166.60 C 152.97 166.98 169.99 166.19 187.00 166.78 C 190.11 167.46 193.31 167.36 196.49 167.43 L 196.54 166.69 C 207.37 166.63 218.19 166.35 229.01 166.16 C 239.80 166.82 250.61 166.44 261.41 166.42 C 261.58 165.46 261.74 164.51 261.91 163.55 C 252.60 163.50 243.29 163.78 233.97 163.70 C 212.32 163.02 190.64 163.51 168.98 163.22 C 158.78 162.08 148.49 164.44 138.27 163.11 C 132.13 162.28 125.92 162.27 119.73 162.38 Z" />
<path fill="#000000" opacity="1.00" d=" M 194.65 88.52 C 195.56 88.62 196.48 88.71 197.40 88.80 C 197.53 89.72 197.65 90.64 197.78 91.56 C 196.15 91.12 194.54 90.63 192.94 90.14 C 193.36 89.74 194.22 88.93 194.65 88.52 Z" />
<path fill="#000000" opacity="1.00" d=" M 167.98 94.46 C 168.66 90.32 174.04 88.80 176.86 91.74 C 176.51 92.05 175.82 92.67 175.47 92.98 C 172.95 93.35 170.48 93.98 167.98 94.46 Z" />
<path fill="#000000" opacity="1.00" d=" M 183.62 94.18 C 185.69 94.18 187.75 94.51 189.62 95.43 C 189.59 96.44 189.55 97.44 189.51 98.45 C 187.51 97.63 185.48 96.90 183.43 96.24 C 183.48 95.73 183.57 94.69 183.62 94.18 Z" />
<path fill="#000000" opacity="1.00" d=" M 206.23 95.36 C 208.47 94.55 210.74 95.24 212.17 97.12 C 210.07 97.55 207.94 97.88 205.80 97.80 C 205.70 97.02 204.55 95.15 206.23 95.36 Z" />
<path fill="#000000" opacity="1.00" d=" M 228.21 98.19 C 228.86 96.34 230.59 95.70 232.38 95.41 C 232.84 96.38 233.30 97.35 233.75 98.32 C 231.90 98.36 230.05 98.32 228.21 98.19 Z" />
<path fill="#000000" opacity="1.00" d=" M 217.44 99.59 C 218.73 99.61 220.02 99.65 221.32 99.69 C 221.33 100.56 221.35 101.43 221.37 102.31 C 220.10 102.30 218.83 102.30 217.56 102.29 C 217.52 101.39 217.48 100.49 217.44 99.59 Z" />
<path fill="#000000" opacity="1.00" d=" M 174.36 101.30 C 176.10 101.44 177.84 101.62 179.56 101.92 C 177.77 102.71 175.95 103.44 174.12 104.12 C 174.18 103.41 174.30 102.00 174.36 101.30 Z" />
<path fill="#000000" opacity="1.00" d=" M 148.74 102.67 C 151.61 102.44 154.53 102.37 157.36 102.99 C 154.56 104.68 151.20 104.32 148.07 104.69 C 148.24 104.18 148.57 103.17 148.74 102.67 Z" />
<path fill="#000000" opacity="1.00" d=" M 237.30 102.33 C 238.69 102.36 240.08 102.41 241.47 102.48 C 241.50 103.48 241.52 104.49 241.55 105.50 C 240.15 105.34 238.75 105.19 237.36 105.04 C 237.33 104.13 237.31 103.23 237.30 102.33 Z" />
<path fill="#000000" opacity="1.00" d=" M 139.02 103.36 C 140.83 103.36 142.65 103.49 144.46 103.66 C 144.52 104.62 144.59 105.59 144.65 106.55 C 142.39 105.84 140.08 105.25 137.69 105.57 C 138.02 105.02 138.68 103.91 139.02 103.36 Z" />
<path fill="#000000" opacity="1.00" d=" M 192.51 109.36 C 194.54 109.35 196.57 109.36 198.60 109.44 C 198.52 110.67 198.31 111.87 197.97 113.04 C 197.75 113.66 197.30 114.91 197.08 115.53 C 197.21 117.31 197.47 119.08 197.71 120.86 C 196.08 120.82 194.46 120.78 192.83 120.74 C 193.54 116.96 193.24 113.11 192.51 109.36 Z" />
</g>
<g id="#90623cff">
<path fill="#90623c" opacity="1.00" d=" M 196.01 49.36 C 204.91 48.38 213.87 48.55 222.81 48.31 C 224.37 50.48 225.75 52.76 226.91 55.17 C 219.65 56.23 212.32 55.53 205.03 55.36 C 197.65 55.04 190.35 57.15 182.99 55.96 C 172.90 54.66 162.97 57.49 152.89 57.29 C 153.68 54.69 154.56 52.12 155.51 49.57 C 169.01 49.24 182.51 49.36 196.01 49.36 Z" />
<path fill="#90623c" opacity="1.00" d=" M 234.96 48.75 C 239.02 48.83 243.43 47.87 247.17 49.94 C 250.15 51.32 252.88 53.19 255.38 55.30 C 249.71 55.03 244.01 54.41 238.37 55.41 C 237.18 53.22 236.04 50.99 234.96 48.75 Z" />
<path fill="#90623c" opacity="1.00" d=" M 127.56 56.71 C 132.47 54.06 137.60 51.84 142.92 50.15 C 142.07 52.54 141.19 54.91 140.35 57.30 C 136.08 57.30 131.79 57.36 127.56 56.71 Z" />
<path fill="#90623c" opacity="1.00" d=" M 187.68 106.83 C 192.83 106.88 198.02 106.06 203.14 106.79 C 203.89 110.99 203.59 115.33 202.75 119.50 C 202.68 115.47 202.59 111.44 202.56 107.42 C 198.21 108.34 193.77 108.69 189.33 108.39 C 189.40 113.20 189.41 118.01 189.44 122.82 L 188.29 123.30 C 187.76 117.82 187.61 112.32 187.68 106.83 Z" />
<path fill="#90623c" opacity="1.00" d=" M 191.27 114.15 C 191.66 112.54 192.07 110.95 192.51 109.36 C 193.24 113.11 193.54 116.96 192.83 120.74 C 194.46 120.78 196.08 120.82 197.71 120.86 C 197.47 119.08 197.21 117.31 197.08 115.53 C 197.30 114.91 197.75 113.66 197.97 113.04 C 198.44 116.21 198.61 119.40 198.72 122.60 C 196.34 122.16 193.28 123.23 191.36 121.41 C 191.48 119.46 191.97 117.55 192.46 115.66 C 192.16 115.28 191.57 114.53 191.27 114.15 Z" />
<path fill="#90623c" opacity="1.00" d=" M 134.30 119.44 C 135.78 119.43 137.26 119.42 138.74 119.42 C 139.55 132.51 139.17 145.62 139.71 158.73 C 137.92 158.65 136.13 158.58 134.34 158.51 C 136.72 145.54 134.15 132.47 134.30 119.44 Z" />
<path fill="#90623c" opacity="1.00" d=" M 140.46 119.46 C 142.34 119.45 144.22 119.43 146.10 119.42 C 147.14 132.54 146.42 145.72 146.63 158.87 C 144.80 158.86 142.97 158.85 141.14 158.85 C 141.79 145.72 141.57 132.57 140.46 119.46 Z" />
<path fill="#90623c" opacity="1.00" d=" M 146.86 119.45 C 149.04 119.45 151.22 119.46 153.40 119.46 C 153.08 124.97 153.22 130.51 153.83 135.99 C 154.77 143.67 154.27 151.41 154.43 159.12 C 152.25 159.15 150.07 159.16 147.90 159.18 C 147.30 145.95 148.49 132.62 146.86 119.45 Z" />
<path fill="#90623c" opacity="1.00" d=" M 154.47 119.46 C 156.82 119.45 159.18 119.44 161.54 119.43 C 162.42 126.25 162.53 133.15 161.92 140.00 C 161.31 146.39 162.17 152.78 162.39 159.16 C 160.55 159.20 158.72 159.27 156.88 159.18 C 156.14 155.82 156.60 152.34 156.52 148.93 C 156.73 139.06 155.03 129.29 154.47 119.46 Z" />
<path fill="#90623c" opacity="1.00" d=" M 169.64 119.54 C 172.03 119.48 174.43 119.43 176.83 119.39 C 177.06 132.67 176.27 145.97 177.15 159.23 C 174.54 159.24 171.93 159.24 169.32 159.25 C 169.21 146.01 169.92 132.78 169.64 119.54 Z" />
<path fill="#90623c" opacity="1.00" d=" M 226.53 119.49 C 228.54 119.46 230.54 119.44 232.56 119.42 C 232.77 132.68 232.19 145.93 232.40 159.20 C 230.85 159.20 229.30 159.21 227.75 159.22 C 227.90 145.96 227.67 132.70 226.53 119.49 Z" />
<path fill="#90623c" opacity="1.00" d=" M 234.23 119.42 C 235.38 119.42 236.53 119.43 237.68 119.43 C 237.76 124.30 237.76 129.18 238.23 134.03 C 238.96 142.16 238.17 150.32 238.38 158.47 C 236.72 158.79 235.04 159.10 233.38 159.41 C 233.86 146.08 234.40 132.76 234.23 119.42 Z" />
<path fill="#90623c" opacity="1.00" d=" M 125.10 119.43 C 127.51 119.45 129.93 119.47 132.34 119.49 C 132.40 126.32 132.34 133.16 133.16 139.96 C 133.12 146.18 132.30 152.39 132.51 158.64 C 131.21 158.57 129.91 158.51 128.61 158.45 C 128.46 145.79 129.00 133.09 128.07 120.45 C 127.12 126.48 127.85 132.62 127.10 138.66 C 124.87 132.49 125.85 125.83 125.10 119.43 Z" />
<path fill="#90623c" opacity="1.00" d=" M 163.41 119.46 C 165.03 119.45 166.65 119.45 168.27 119.45 C 168.13 132.70 168.63 145.94 168.43 159.20 C 167.43 159.23 165.44 159.31 164.45 159.34 C 163.93 146.05 164.90 132.71 163.41 119.46 Z" />
<path fill="#90623c" opacity="1.00" d=" M 177.81 119.45 C 179.66 119.45 181.52 119.45 183.37 119.45 C 183.94 126.26 184.72 133.09 184.16 139.93 C 183.54 146.35 183.57 152.80 183.58 159.24 C 181.87 159.24 180.16 159.25 178.46 159.25 C 177.77 146.00 177.91 132.72 177.81 119.45 Z" />
<path fill="#90623c" opacity="1.00" d=" M 205.88 119.45 C 206.84 119.45 208.75 119.45 209.70 119.45 C 209.07 132.70 209.70 145.93 209.66 159.18 C 208.60 159.23 206.47 159.32 205.41 159.36 C 205.89 146.05 204.24 132.70 205.88 119.45 Z" />
<path fill="#90623c" opacity="1.00" d=" M 210.04 119.42 C 212.86 119.44 215.69 119.47 218.51 119.52 C 218.45 124.35 218.42 129.17 218.46 133.99 C 218.68 142.46 216.77 150.78 216.62 159.24 C 214.98 159.24 213.34 159.24 211.69 159.24 C 211.88 145.94 210.83 132.68 210.04 119.42 Z" />
<path fill="#90623c" opacity="1.00" d=" M 219.23 119.58 C 221.29 119.54 223.35 119.50 225.40 119.46 C 225.20 126.99 226.64 134.47 226.08 141.99 C 225.65 147.72 225.80 153.46 225.81 159.20 C 223.37 159.22 220.93 159.24 218.49 159.27 C 218.33 154.18 218.58 149.10 219.27 144.06 C 219.83 135.91 219.23 127.73 219.23 119.58 Z" />
<path fill="#90623c" opacity="1.00" d=" M 239.09 119.44 C 241.32 119.44 243.55 119.43 245.78 119.43 C 245.22 132.46 246.04 145.51 245.52 158.56 C 243.52 158.61 241.53 158.67 239.53 158.73 C 240.01 145.63 239.44 132.54 239.09 119.44 Z" />
<path fill="#90623c" opacity="1.00" d=" M 246.19 119.43 C 248.29 119.43 250.40 119.44 252.50 119.44 C 252.11 132.39 251.34 145.33 251.31 158.30 C 250.31 158.36 248.31 158.48 247.32 158.54 C 247.84 145.49 247.76 132.41 246.19 119.43 Z" />
<path fill="#90623c" opacity="1.00" d=" M 266.83 121.11 C 270.07 121.27 273.54 121.20 276.36 123.06 C 277.44 125.43 274.74 126.44 272.94 126.97 C 270.94 127.42 268.89 127.52 266.86 127.72 C 266.85 125.51 266.84 123.31 266.83 121.11 Z" />
<path fill="#90623c" opacity="1.00" d=" M 104.99 125.03 C 107.52 123.93 110.42 124.44 113.12 124.24 C 113.13 126.62 113.13 129.00 113.14 131.38 C 110.51 131.23 107.80 131.37 105.26 130.57 C 102.62 130.09 102.64 125.94 104.99 125.03 Z" />
<path fill="#90623c" opacity="1.00" d=" M 185.75 126.18 C 187.04 126.26 188.34 126.33 189.63 126.41 C 190.88 137.31 190.33 148.28 190.34 159.22 C 188.76 159.23 187.17 159.24 185.59 159.25 C 184.95 148.21 187.21 137.18 185.75 126.18 Z" />
<path fill="#90623c" opacity="1.00" d=" M 190.37 126.36 C 193.19 126.49 196.01 126.64 198.82 126.79 C 198.15 137.60 198.53 148.43 198.48 159.25 C 196.19 159.24 193.90 159.23 191.61 159.22 C 191.76 148.25 190.63 137.32 190.37 126.36 Z" />
<path fill="#90623c" opacity="1.00" d=" M 199.24 126.89 C 200.77 126.78 202.31 126.66 203.84 126.55 C 204.35 137.44 204.27 148.35 204.18 159.26 C 202.76 159.25 201.36 159.24 199.95 159.24 C 199.52 148.46 200.14 137.65 199.24 126.89 Z" />
<path fill="#90623c" opacity="1.00" d=" M 253.00 147.97 C 253.88 141.52 252.80 134.97 253.98 128.55 C 255.04 138.59 254.33 148.76 253.26 158.77 C 252.42 155.22 252.54 151.56 253.00 147.97 Z" />
</g>
<g id="#f6e15bff">
<path fill="#f6e15b" opacity="1.00" d=" M 227.04 48.56 C 228.23 48.57 229.43 48.58 230.63 48.58 C 232.62 50.51 234.29 52.73 235.50 55.22 C 233.99 55.26 232.47 55.28 230.96 55.30 C 229.71 53.02 228.41 50.77 227.04 48.56 Z" />
<path fill="#f6e15b" opacity="1.00" d=" M 146.81 50.58 C 148.56 50.51 150.32 50.42 152.07 50.34 C 151.64 51.18 151.20 52.01 150.77 52.84 C 150.34 54.34 149.90 55.83 149.47 57.32 C 147.61 57.30 145.75 57.28 143.89 57.27 C 144.46 54.88 145.62 52.71 146.81 50.58 Z" />
<path fill="#f6e15b" opacity="1.00" d=" M 213.46 58.70 C 223.69 58.09 233.95 58.92 244.16 58.09 C 248.78 57.27 253.53 57.89 257.97 59.32 C 254.01 59.95 250.00 59.67 246.02 59.84 C 242.08 60.76 238.00 60.41 233.98 60.47 C 221.65 60.28 209.32 60.70 196.99 60.69 C 191.32 60.96 185.59 60.11 179.98 61.16 C 174.34 61.31 168.69 61.32 163.05 61.15 C 157.73 59.89 152.42 61.72 147.07 61.55 C 138.72 61.54 130.38 61.39 122.03 61.42 C 122.50 60.81 122.97 60.20 123.44 59.60 C 139.93 59.03 156.55 60.55 172.94 58.40 C 186.47 58.41 199.99 58.75 213.50 59.34 L 213.46 58.70 Z" />
<path fill="#f6e15b" opacity="1.00" d=" M 177.81 84.80 C 180.57 82.75 185.34 80.47 187.30 84.70 C 187.94 84.44 189.21 83.92 189.84 83.66 C 191.82 82.97 193.83 82.39 195.89 82.01 C 196.56 83.45 197.25 84.88 197.93 86.31 C 201.43 86.61 204.89 87.20 208.39 87.57 C 208.80 88.91 209.21 90.25 209.62 91.59 C 211.18 91.41 212.75 91.24 214.32 91.07 C 214.48 91.76 214.79 93.13 214.94 93.82 C 216.31 92.73 217.56 91.49 219.02 90.52 C 220.56 90.33 222.10 90.55 223.64 90.61 C 225.67 87.47 229.47 88.18 232.48 89.25 C 232.64 87.95 232.79 86.64 232.94 85.33 C 236.80 86.03 238.77 89.71 242.15 91.30 C 242.34 92.50 242.51 93.70 242.70 94.91 C 244.98 95.69 247.24 96.50 249.46 97.43 C 249.36 98.95 249.30 100.47 249.29 101.99 C 248.75 102.17 247.68 102.54 247.14 102.72 C 248.07 103.62 248.99 104.52 249.91 105.43 C 250.27 105.47 250.98 105.56 251.34 105.60 C 251.37 105.04 251.43 103.93 251.46 103.37 L 250.23 103.22 C 250.91 102.54 251.59 101.87 252.28 101.20 C 253.19 101.42 255.01 101.86 255.91 102.08 C 258.10 104.55 259.60 107.46 260.70 110.56 C 247.82 110.28 234.93 110.50 222.05 110.18 C 217.02 108.79 211.71 109.79 206.56 109.55 C 206.17 107.47 205.73 105.40 205.24 103.34 C 199.43 103.14 193.64 103.90 187.83 103.62 C 184.54 103.34 185.32 107.52 184.64 109.60 C 175.75 109.66 166.85 109.29 157.97 109.79 C 145.12 111.00 132.14 110.61 119.25 110.35 C 119.33 109.98 119.50 109.23 119.59 108.85 C 120.15 108.57 121.26 107.99 121.81 107.70 C 122.40 107.65 123.57 107.56 124.16 107.51 C 124.76 106.24 125.36 104.97 125.96 103.71 C 127.51 103.27 129.06 102.84 130.61 102.40 C 130.63 101.08 130.65 99.76 130.67 98.43 C 133.16 97.76 135.97 97.72 137.93 95.82 C 140.45 93.68 143.96 93.88 146.92 92.73 C 148.20 93.92 149.52 95.08 150.89 96.18 C 151.61 94.94 152.34 93.71 153.06 92.47 C 155.83 92.27 158.42 93.29 161.04 93.98 C 161.65 92.42 162.29 90.88 162.93 89.33 C 164.99 89.31 167.05 89.42 169.12 89.55 C 169.80 86.96 171.15 84.67 173.62 83.43 C 175.01 83.91 176.41 84.36 177.81 84.80 M 194.65 88.52 C 194.22 88.93 193.36 89.74 192.94 90.14 C 194.54 90.63 196.15 91.12 197.78 91.56 C 197.65 90.64 197.53 89.72 197.40 88.80 C 196.48 88.71 195.56 88.62 194.65 88.52 M 167.98 94.46 C 170.48 93.98 172.95 93.35 175.47 92.98 C 175.82 92.67 176.51 92.05 176.86 91.74 C 174.04 88.80 168.66 90.32 167.98 94.46 M 183.62 94.18 C 183.57 94.69 183.48 95.73 183.43 96.24 C 185.48 96.90 187.51 97.63 189.51 98.45 C 189.55 97.44 189.59 96.44 189.62 95.43 C 187.75 94.51 185.69 94.18 183.62 94.18 M 206.23 95.36 C 204.55 95.15 205.70 97.02 205.80 97.80 C 207.94 97.88 210.07 97.55 212.17 97.12 C 210.74 95.24 208.47 94.55 206.23 95.36 M 228.21 98.19 C 230.05 98.32 231.90 98.36 233.75 98.32 C 233.30 97.35 232.84 96.38 232.38 95.41 C 230.59 95.70 228.86 96.34 228.21 98.19 M 217.44 99.59 C 217.48 100.49 217.52 101.39 217.56 102.29 C 218.83 102.30 220.10 102.30 221.37 102.31 C 221.35 101.43 221.33 100.56 221.32 99.69 C 220.02 99.65 218.73 99.61 217.44 99.59 M 174.36 101.30 C 174.30 102.00 174.18 103.41 174.12 104.12 C 175.95 103.44 177.77 102.71 179.56 101.92 C 177.84 101.62 176.10 101.44 174.36 101.30 M 148.74 102.67 C 148.57 103.17 148.24 104.18 148.07 104.69 C 151.20 104.32 154.56 104.68 157.36 102.99 C 154.53 102.37 151.61 102.44 148.74 102.67 M 237.30 102.33 C 237.31 103.23 237.33 104.13 237.36 105.04 C 238.75 105.19 240.15 105.34 241.55 105.50 C 241.52 104.49 241.50 103.48 241.47 102.48 C 240.08 102.41 238.69 102.36 237.30 102.33 M 139.02 103.36 C 138.68 103.91 138.02 105.02 137.69 105.57 C 140.08 105.25 142.39 105.84 144.65 106.55 C 144.59 105.59 144.52 104.62 144.46 103.66 C 142.65 103.49 140.83 103.36 139.02 103.36 Z" />
<path fill="#f6e15b" opacity="1.00" d=" M 189.33 108.39 C 193.77 108.69 198.21 108.34 202.56 107.42 C 202.59 111.44 202.68 115.47 202.75 119.50 C 202.75 120.82 202.67 122.15 202.61 123.48 C 198.22 123.52 193.83 123.25 189.44 123.26 L 189.44 122.82 C 189.41 118.01 189.40 113.20 189.33 108.39 M 191.27 114.15 C 191.57 114.53 192.16 115.28 192.46 115.66 C 191.97 117.55 191.48 119.46 191.36 121.41 C 193.28 123.23 196.34 122.16 198.72 122.60 C 198.61 119.40 198.44 116.21 197.97 113.04 C 198.31 111.87 198.52 110.67 198.60 109.44 C 196.57 109.36 194.54 109.35 192.51 109.36 C 192.07 110.95 191.66 112.54 191.27 114.15 Z" />
<path fill="#f6e15b" opacity="1.00" d=" M 207.43 112.53 C 208.65 112.63 209.88 112.73 211.10 112.84 C 213.03 113.30 215.02 113.47 217.00 113.45 C 231.61 113.22 246.23 113.38 260.84 113.46 C 260.78 113.98 260.67 115.04 260.62 115.56 C 247.74 115.33 234.87 115.55 222.00 115.66 C 219.66 115.64 217.32 115.74 215.02 116.13 C 212.48 115.67 209.89 115.54 207.32 115.53 C 207.35 114.53 207.39 113.53 207.43 112.53 Z" />
<path fill="#f6e15b" opacity="1.00" d=" M 119.77 113.34 C 138.57 113.39 157.37 113.67 176.15 113.22 C 177.60 113.01 179.05 112.76 180.50 112.47 L 180.51 113.09 C 182.38 113.28 184.25 113.68 185.29 115.45 C 167.71 115.85 150.11 115.57 132.53 115.65 L 132.46 116.34 C 128.48 116.27 124.51 116.29 120.54 116.32 C 120.28 115.32 120.03 114.33 119.77 113.34 Z" />
<path fill="#f6e15b" opacity="1.00" d=" M 118.48 119.43 C 119.27 119.44 120.85 119.46 121.64 119.47 C 121.64 129.32 121.59 139.17 121.78 149.01 C 122.57 151.92 122.30 154.92 121.61 157.81 C 121.10 157.70 120.09 157.49 119.58 157.38 C 119.57 151.89 119.71 146.38 119.08 140.92 C 118.16 133.79 118.90 126.59 118.48 119.43 Z" />
<path fill="#f6e15b" opacity="1.00" d=" M 258.53 157.78 C 258.64 145.31 258.34 132.84 258.39 120.37 C 259.78 120.66 261.16 120.96 262.55 121.28 C 262.75 129.18 262.29 137.13 263.24 144.99 C 263.60 149.24 263.46 153.51 263.31 157.77 C 261.71 157.77 260.12 157.78 258.53 157.78 Z" />
<path fill="#f6e15b" opacity="1.00" d=" M 119.73 162.38 C 125.92 162.27 132.13 162.28 138.27 163.11 C 148.49 164.44 158.78 162.08 168.98 163.22 C 190.64 163.51 212.32 163.02 233.97 163.70 C 243.29 163.78 252.60 163.50 261.91 163.55 C 261.74 164.51 261.58 165.46 261.41 166.42 C 250.61 166.44 239.80 166.82 229.01 166.16 C 218.19 166.35 207.37 166.63 196.54 166.69 L 196.49 167.43 C 193.31 167.36 190.11 167.46 187.00 166.78 C 169.99 166.19 152.97 166.98 135.96 166.60 C 130.53 166.64 125.19 165.28 119.74 165.64 C 119.74 164.55 119.73 163.47 119.73 162.38 Z" />
</g>
</svg>
