<?xml version="1.0" encoding="UTF-8" ?>
<!DOCTYPE svg PUBLIC "-//W3C//DTD SVG 1.1//EN" "http://www.w3.org/Graphics/SVG/1.1/DTD/svg11.dtd">
<svg width="412pt" height="257pt" viewBox="0 0 412 257" version="1.1" xmlns="http://www.w3.org/2000/svg">
<g id="#000000ff">
<path fill="#000000" opacity="1.00" d=" M 192.08 63.90 C 197.37 64.79 202.65 63.59 207.95 63.61 C 216.34 63.53 224.73 62.79 233.11 63.51 C 243.31 63.75 253.54 63.58 263.69 64.70 C 267.39 65.83 270.51 68.25 273.77 70.26 C 276.29 72.00 279.43 74.50 278.61 77.98 C 277.65 84.15 274.43 89.68 273.39 95.84 C 272.41 102.75 268.64 109.15 269.71 116.32 C 274.52 116.34 280.99 115.06 283.83 120.12 C 285.14 123.37 285.66 128.16 282.57 130.63 C 279.36 133.71 274.89 134.84 270.54 134.92 C 270.28 147.71 271.31 160.51 270.59 173.30 C 263.04 173.24 255.47 173.54 247.95 172.73 C 238.25 172.85 228.50 172.25 218.84 173.31 C 206.22 173.78 193.55 173.01 180.97 174.32 C 160.05 172.70 139.02 174.19 118.08 173.26 C 117.25 172.37 116.42 171.49 115.60 170.60 C 115.55 160.45 115.67 150.28 114.75 140.17 C 112.83 140.34 110.92 140.51 109.01 140.66 C 111.08 140.37 113.16 140.11 115.24 139.86 C 110.42 139.80 105.10 139.04 101.48 135.55 C 98.72 132.52 97.44 126.94 100.92 123.96 C 104.62 120.55 109.90 119.84 114.71 119.39 C 115.17 116.65 115.28 113.83 114.56 111.12 C 112.68 103.91 109.94 96.97 108.17 89.73 C 107.33 86.39 105.28 82.81 106.47 79.36 C 109.58 75.86 113.51 72.98 117.81 71.13 C 124.51 69.20 131.11 66.71 138.13 66.16 C 156.04 64.30 174.07 63.17 192.08 63.90 M 184.02 66.62 C 175.53 66.93 166.98 66.13 158.55 67.44 C 157.71 69.86 156.82 72.26 155.92 74.67 C 166.28 74.57 176.64 74.38 187.00 74.50 C 194.39 74.66 201.63 72.72 209.01 72.70 C 220.37 74.01 231.85 73.60 243.28 73.63 C 242.39 71.18 241.67 68.45 239.66 66.65 C 233.43 66.41 227.22 65.33 220.97 65.75 C 208.69 66.86 196.34 66.71 184.02 66.62 M 253.31 66.78 C 254.20 69.10 255.18 71.38 256.21 73.64 C 261.78 73.76 267.35 73.68 272.90 73.23 C 270.27 71.40 267.73 69.40 264.82 68.04 C 261.22 66.40 257.15 66.84 253.31 66.78 M 243.27 66.55 C 244.57 68.82 245.64 71.21 246.52 73.67 C 248.70 73.65 250.87 73.63 253.05 73.60 C 252.04 71.26 250.99 68.94 249.94 66.61 C 247.72 66.58 245.49 66.56 243.27 66.55 M 126.73 71.47 C 122.75 72.86 118.15 73.18 115.18 76.55 C 124.53 77.02 133.90 76.13 143.26 76.31 C 143.92 73.53 144.80 70.82 146.03 68.24 C 139.51 68.60 132.97 69.46 126.73 71.47 M 149.73 68.59 C 147.99 70.60 147.19 73.18 146.24 75.61 C 148.44 75.53 150.64 75.44 152.85 75.35 C 153.39 72.61 154.33 69.96 155.41 67.38 C 153.54 67.77 151.24 67.19 149.73 68.59 M 186.03 79.52 C 171.34 78.97 156.59 79.48 142.02 81.47 C 131.66 81.79 121.28 81.27 110.92 81.93 C 112.45 90.35 115.10 98.52 117.39 106.76 C 119.48 106.41 121.57 106.04 123.65 105.66 C 125.11 103.64 126.85 101.81 129.20 100.85 C 130.00 98.56 130.02 95.61 132.17 94.09 C 134.54 93.12 137.04 92.50 139.41 91.54 C 143.53 89.90 148.06 90.69 152.25 91.58 C 155.32 90.68 158.45 90.13 161.64 90.75 C 162.61 89.63 163.58 88.51 164.55 87.39 C 166.07 87.33 167.59 87.27 169.12 87.21 C 170.92 84.86 172.88 82.47 175.85 81.61 C 177.41 81.86 179.10 82.66 180.59 81.66 C 183.52 80.17 186.97 79.28 190.05 80.95 C 193.13 82.56 195.89 78.63 199.10 79.61 C 201.36 80.21 201.93 82.68 202.87 84.49 C 205.52 84.61 208.20 84.45 210.81 84.96 C 213.41 86.45 215.23 89.97 218.65 89.41 C 224.63 88.02 230.89 87.25 236.25 84.04 C 238.08 82.86 240.07 84.39 241.52 85.48 C 244.30 87.88 247.82 89.84 248.96 93.58 C 251.99 94.86 255.37 96.11 256.51 99.53 C 257.99 99.65 259.49 99.71 260.97 99.98 C 262.99 101.68 264.80 103.64 266.97 105.18 C 268.69 98.62 270.17 91.97 272.52 85.59 C 273.27 83.56 273.62 81.42 273.94 79.29 C 270.95 79.30 267.96 79.25 264.98 78.94 C 257.00 78.01 248.96 78.89 240.96 78.58 C 226.67 77.40 212.23 76.90 197.95 78.46 C 193.95 78.56 190.03 79.58 186.03 79.52 M 180.96 85.73 C 179.55 85.49 178.18 85.12 176.85 84.60 C 175.10 85.02 173.73 86.15 172.56 87.46 C 172.50 88.23 172.37 89.76 172.31 90.53 C 170.12 90.56 167.87 90.03 165.73 90.53 C 164.52 91.98 163.92 93.80 163.14 95.49 C 160.81 94.33 158.36 93.37 155.73 93.22 C 154.93 94.42 154.17 95.65 153.39 96.87 C 151.35 96.72 150.18 95.04 149.04 93.56 C 147.70 93.75 146.37 93.98 145.04 94.21 C 143.50 93.89 141.81 93.38 140.44 94.47 C 137.97 96.39 133.70 95.37 132.57 98.84 C 132.61 100.38 132.63 101.92 132.63 103.46 C 131.22 103.89 129.78 104.25 128.42 104.81 C 126.72 105.80 126.88 108.60 124.74 109.01 C 123.25 109.25 121.74 109.18 120.24 109.24 C 120.25 109.79 120.26 110.88 120.27 111.43 C 133.76 112.22 147.29 111.72 160.78 111.29 C 169.72 110.24 178.71 111.08 187.68 110.73 C 187.65 109.06 187.65 107.39 187.64 105.73 C 191.22 104.04 195.21 105.28 198.99 104.78 C 202.01 104.68 205.21 103.68 208.12 104.81 C 209.10 106.64 209.17 108.75 209.49 110.76 C 214.98 110.83 220.52 110.33 225.95 111.38 C 238.94 111.60 251.95 111.61 264.94 111.74 C 264.49 109.68 263.99 107.63 263.45 105.60 C 262.74 105.53 261.32 105.40 260.61 105.33 C 260.47 104.80 260.19 103.74 260.05 103.20 C 257.91 102.76 255.73 102.47 253.55 102.29 C 253.39 101.07 253.25 99.84 253.11 98.62 C 251.07 97.66 248.91 96.99 246.86 96.07 C 245.44 95.15 245.71 93.17 245.24 91.75 C 244.66 91.61 243.51 91.34 242.93 91.20 C 242.02 90.02 241.10 88.86 240.18 87.69 C 239.05 87.29 237.93 86.89 236.81 86.48 C 236.40 87.87 235.92 89.23 235.38 90.58 C 233.46 89.47 231.29 89.15 229.12 89.53 C 227.74 92.84 224.41 91.10 221.78 91.38 C 221.10 92.41 220.47 93.46 219.88 94.54 C 218.43 94.48 217.49 93.70 217.25 92.22 C 215.74 92.36 214.23 92.51 212.73 92.68 C 212.20 91.08 211.85 89.38 210.87 87.98 C 207.60 87.29 204.22 87.75 200.92 87.43 C 200.06 85.77 199.19 84.12 198.32 82.47 C 197.97 82.53 197.26 82.64 196.90 82.69 C 195.04 83.71 193.09 84.53 191.17 85.43 C 190.79 85.48 190.02 85.57 189.63 85.61 C 188.80 84.67 188.45 82.78 186.94 82.79 C 184.66 83.01 182.78 84.48 180.96 85.73 M 190.55 108.51 C 190.48 113.90 191.45 119.23 191.34 124.61 C 196.05 124.53 200.71 125.36 205.42 125.39 C 206.54 119.80 206.28 114.09 206.34 108.43 C 201.15 107.13 195.82 108.91 190.55 108.51 M 175.04 114.64 C 166.31 114.86 157.57 114.66 148.84 114.85 C 139.11 114.59 129.42 115.66 119.68 115.30 C 119.92 115.59 120.40 116.15 120.63 116.43 C 126.03 117.33 131.53 116.63 136.98 116.66 C 148.31 116.47 159.64 116.64 170.96 116.71 C 176.52 116.21 182.12 116.00 187.68 116.57 L 187.58 114.55 C 183.41 114.07 179.21 114.29 175.04 114.64 M 209.57 114.78 C 209.47 115.23 209.27 116.13 209.17 116.58 C 215.47 116.59 221.75 116.88 228.02 117.51 C 236.03 117.52 244.05 117.25 252.05 116.89 C 256.14 117.32 260.26 117.58 264.38 117.36 C 264.52 116.69 264.79 115.36 264.93 114.69 C 246.48 114.19 228.02 114.23 209.57 114.78 M 120.47 122.50 C 120.60 134.91 120.52 147.32 120.56 159.73 C 121.75 159.53 123.15 159.91 124.16 159.12 C 124.49 154.39 124.50 149.62 124.12 144.90 C 123.14 137.50 123.67 130.03 123.59 122.60 C 122.55 122.56 121.51 122.53 120.47 122.50 M 128.36 122.40 C 127.58 125.80 127.46 129.30 128.16 132.72 C 132.67 132.56 137.14 133.23 141.63 133.52 C 141.44 129.84 141.29 126.15 141.32 122.47 C 137.00 122.38 132.68 122.41 128.36 122.40 M 145.13 122.51 C 145.82 132.66 145.82 142.83 145.71 153.01 C 145.74 155.42 145.36 158.09 147.05 160.09 C 148.36 157.23 147.48 154.04 147.67 151.02 C 147.86 141.53 147.89 132.04 147.78 122.55 C 147.12 122.54 145.79 122.52 145.13 122.51 M 246.22 122.44 C 246.23 126.43 246.31 130.41 246.48 134.39 C 249.30 134.46 252.11 134.48 254.93 134.42 C 254.54 130.37 254.36 126.30 254.32 122.23 C 251.61 122.28 248.91 122.35 246.22 122.44 M 258.45 122.23 C 258.32 128.18 259.45 134.08 259.25 140.04 C 259.33 146.42 258.96 152.82 259.48 159.18 C 261.57 159.41 263.65 159.66 265.74 159.89 C 265.29 153.28 264.58 146.67 264.55 140.03 C 264.24 134.08 265.18 128.05 263.84 122.18 C 262.04 122.20 260.24 122.21 258.45 122.23 M 152.18 122.60 C 151.96 126.25 151.91 129.91 152.05 133.57 C 157.87 133.91 163.84 135.55 169.58 133.76 C 169.39 130.30 169.16 126.84 168.75 123.39 C 163.22 123.21 157.64 123.62 152.18 122.60 M 173.21 123.46 C 173.74 134.92 173.41 146.40 173.71 157.87 C 173.64 159.84 176.26 159.18 177.47 159.47 C 177.84 153.03 177.13 146.53 178.20 140.13 C 178.86 134.60 178.52 129.01 178.68 123.45 C 176.85 123.45 175.03 123.45 173.21 123.46 M 183.59 123.75 C 183.32 127.62 183.23 131.50 183.55 135.36 C 189.70 135.49 195.85 134.28 201.99 135.16 C 204.44 135.15 207.30 135.89 209.51 134.78 C 210.10 130.85 209.95 126.82 209.39 122.89 C 209.01 124.44 208.68 126.01 208.38 127.58 C 201.98 129.67 195.33 127.22 188.79 127.55 C 188.35 126.09 187.91 124.62 187.47 123.16 C 186.17 123.36 184.88 123.56 183.59 123.75 M 213.47 123.29 C 213.60 128.86 213.81 134.42 213.77 139.99 C 213.57 146.59 214.95 153.12 214.67 159.73 C 216.63 159.75 218.58 159.76 220.54 159.74 C 219.61 147.61 219.56 135.44 219.59 123.28 C 217.55 123.27 215.51 123.27 213.47 123.29 M 223.53 123.34 C 223.58 127.10 223.59 130.87 223.47 134.63 C 227.07 135.53 230.81 135.32 234.50 135.41 C 234.65 131.33 234.31 127.24 233.46 123.24 C 230.15 123.25 226.84 123.27 223.53 123.34 M 238.29 122.52 C 238.30 127.37 238.27 132.25 239.13 137.03 C 239.58 144.40 238.87 151.81 239.50 159.16 C 240.25 159.20 241.76 159.28 242.52 159.33 C 242.69 147.85 242.47 136.38 242.25 124.91 C 242.66 122.42 239.98 122.46 238.29 122.52 M 269.70 122.56 C 269.82 124.90 270.05 127.23 270.42 129.54 C 273.78 128.28 280.33 129.76 280.64 124.87 C 277.51 122.46 273.46 122.41 269.70 122.56 M 104.28 128.98 C 105.69 133.78 111.02 132.45 114.82 132.63 C 114.79 130.29 114.76 127.94 114.72 125.60 C 110.95 125.56 106.35 125.00 104.28 128.98 M 128.16 137.26 C 128.25 138.60 128.35 139.95 128.45 141.30 C 132.81 141.19 137.18 141.20 141.54 141.35 C 141.59 140.07 141.65 138.80 141.70 137.53 C 137.19 137.32 132.67 137.22 128.16 137.26 M 152.21 137.58 C 152.19 138.80 152.18 140.01 152.17 141.23 C 157.99 141.09 163.84 141.57 169.62 140.66 C 169.60 140.08 169.56 138.93 169.54 138.35 C 163.75 138.73 157.93 138.52 152.21 137.58 M 182.33 139.25 C 182.32 139.80 182.31 140.89 182.30 141.44 C 185.57 141.63 188.82 142.35 192.10 142.06 C 197.99 141.23 203.95 141.39 209.84 140.60 C 209.83 140.27 209.80 139.60 209.79 139.27 C 200.64 139.22 191.49 139.31 182.33 139.25 M 223.54 141.67 C 227.19 141.78 230.85 141.83 234.51 141.74 C 234.50 141.17 234.48 140.02 234.46 139.45 C 231.13 139.42 227.79 139.28 224.53 138.56 C 224.19 139.60 223.86 140.63 223.54 141.67 M 246.43 138.36 C 246.49 139.11 246.62 140.61 246.68 141.36 C 249.23 142.83 252.34 142.13 255.16 142.47 C 255.15 141.49 255.13 139.53 255.12 138.55 C 252.23 138.44 249.33 138.37 246.43 138.36 M 128.53 145.29 C 128.59 150.10 128.61 154.92 128.48 159.73 C 132.87 159.79 137.26 159.74 141.64 159.42 C 141.73 154.76 141.72 150.11 141.67 145.46 C 137.29 145.33 132.91 145.31 128.53 145.29 M 151.82 145.26 C 151.73 149.81 151.79 154.36 151.52 158.90 C 157.59 158.46 163.64 158.91 169.69 159.30 C 169.54 154.61 169.51 149.92 169.56 145.24 C 163.65 145.23 157.74 145.25 151.82 145.26 M 193.03 146.07 C 189.28 146.71 185.54 145.48 181.79 145.80 C 181.34 150.32 181.67 154.86 181.61 159.39 C 191.31 159.26 200.99 159.94 210.68 159.83 C 210.68 154.77 210.32 149.72 209.65 144.71 C 204.12 145.38 198.54 145.26 193.03 146.07 M 223.90 145.68 C 223.50 150.26 224.47 154.79 224.59 159.37 C 228.23 159.24 231.94 159.58 235.50 158.63 C 233.98 154.60 234.55 150.28 234.56 146.09 C 231.01 145.77 227.45 145.73 223.90 145.68 M 246.56 146.23 C 246.57 150.55 246.57 154.86 246.60 159.18 C 249.44 159.20 252.28 159.20 255.12 159.20 C 255.15 154.97 255.15 150.74 255.13 146.51 C 252.27 146.32 249.41 146.23 246.56 146.23 M 120.54 163.46 C 120.59 164.50 120.70 166.58 120.75 167.62 C 134.81 167.89 148.94 166.64 162.97 168.28 C 184.64 168.63 206.38 169.24 228.02 167.77 C 231.67 167.76 235.31 168.26 238.97 168.08 C 247.46 168.37 255.95 168.08 264.44 168.42 C 264.48 167.18 264.53 165.93 264.57 164.69 C 255.69 165.16 246.82 164.37 237.95 164.19 C 231.30 163.27 224.59 163.60 217.95 164.38 C 198.28 164.26 178.54 164.82 158.96 162.70 C 146.17 163.23 133.35 164.29 120.54 163.46 Z" />
<path fill="#000000" opacity="1.00" d=" M 196.46 89.67 C 197.72 89.68 198.98 89.70 200.25 89.74 C 200.45 90.64 200.65 91.53 200.84 92.43 C 199.46 92.35 198.07 92.26 196.69 92.17 C 196.61 91.34 196.54 90.50 196.46 89.67 Z" />
<path fill="#000000" opacity="1.00" d=" M 171.44 92.78 C 173.58 91.38 176.10 91.18 178.59 91.41 C 178.59 92.33 178.58 93.25 178.57 94.17 C 176.04 94.24 173.62 94.96 171.23 95.74 C 171.30 94.75 171.37 93.77 171.44 92.78 Z" />
<path fill="#000000" opacity="1.00" d=" M 186.44 95.29 C 188.56 95.19 190.67 95.47 192.45 96.75 C 192.46 97.61 192.47 98.48 192.49 99.35 C 192.08 99.34 191.27 99.30 190.86 99.28 C 189.45 98.37 187.87 97.81 186.27 97.36 C 186.31 96.84 186.40 95.81 186.44 95.29 Z" />
<path fill="#000000" opacity="1.00" d=" M 208.39 96.45 C 210.39 96.21 212.40 96.22 214.39 96.56 C 214.40 97.04 214.41 98.00 214.41 98.48 C 212.54 98.77 210.67 99.06 208.80 99.31 C 208.66 98.36 208.52 97.40 208.39 96.45 Z" />
<path fill="#000000" opacity="1.00" d=" M 232.33 97.16 C 233.65 96.99 234.97 96.84 236.30 96.70 C 236.47 97.61 236.64 98.52 236.82 99.43 C 235.35 99.46 233.90 99.47 232.44 99.48 C 232.41 98.90 232.36 97.74 232.33 97.16 Z" />
<path fill="#000000" opacity="1.00" d=" M 221.21 100.49 C 222.28 100.60 223.36 100.71 224.45 100.81 C 224.55 101.69 224.65 102.57 224.75 103.46 C 223.42 103.41 222.08 103.39 220.75 103.21 C 220.42 102.25 220.79 101.34 221.21 100.49 Z" />
<path fill="#000000" opacity="1.00" d=" M 176.77 102.64 C 178.61 102.54 180.45 102.63 182.27 102.94 C 180.46 104.02 178.49 104.77 176.39 104.91 C 176.48 104.34 176.67 103.21 176.77 102.64 Z" />
<path fill="#000000" opacity="1.00" d=" M 149.77 105.79 C 151.73 102.72 156.89 102.65 159.41 105.02 C 156.21 105.43 152.99 105.58 149.77 105.79 Z" />
<path fill="#000000" opacity="1.00" d=" M 240.51 103.71 C 241.68 103.54 242.86 103.38 244.04 103.23 C 244.35 103.62 244.97 104.39 245.29 104.78 C 245.27 105.23 245.24 106.13 245.22 106.58 C 243.65 106.43 242.09 106.24 240.54 106.09 C 240.52 105.30 240.52 104.50 240.51 103.71 Z" />
<path fill="#000000" opacity="1.00" d=" M 251.17 103.37 C 253.07 101.46 256.24 105.06 254.82 106.88 C 253.03 106.60 251.53 105.13 251.17 103.37 Z" />
<path fill="#000000" opacity="1.00" d=" M 141.49 104.65 C 143.28 103.56 145.15 105.00 146.89 105.50 C 146.82 106.09 146.66 107.26 146.59 107.85 C 145.31 107.39 144.05 106.89 142.80 106.41 C 141.84 106.80 140.89 107.19 139.94 107.58 C 140.47 106.65 140.32 105.04 141.49 104.65 Z" />
<path fill="#000000" opacity="1.00" d=" M 196.08 117.05 C 195.32 115.01 195.27 112.85 195.67 110.72 C 197.28 110.63 198.89 110.54 200.50 110.46 C 200.93 111.90 201.33 113.37 200.73 114.83 C 199.78 117.37 200.49 120.02 201.01 122.56 C 199.04 122.54 197.07 122.52 195.11 122.49 C 195.43 120.68 195.76 118.87 196.08 117.05 Z" />
</g>
<g id="#90623cff">
<path fill="#90623c" opacity="1.00" d=" M 184.02 66.62 C 196.34 66.71 208.69 66.86 220.97 65.75 C 227.22 65.33 233.43 66.41 239.66 66.65 C 241.67 68.45 242.39 71.18 243.28 73.63 C 231.85 73.60 220.37 74.01 209.01 72.70 C 201.63 72.72 194.39 74.66 187.00 74.50 C 176.64 74.38 166.28 74.57 155.92 74.67 C 156.82 72.26 157.71 69.86 158.55 67.44 C 166.98 66.13 175.53 66.93 184.02 66.62 Z" />
<path fill="#90623c" opacity="1.00" d=" M 253.31 66.78 C 257.15 66.84 261.22 66.40 264.82 68.04 C 267.73 69.40 270.27 71.40 272.90 73.23 C 267.35 73.68 261.78 73.76 256.21 73.64 C 255.18 71.38 254.20 69.10 253.31 66.78 Z" />
<path fill="#90623c" opacity="1.00" d=" M 126.73 71.47 C 132.97 69.46 139.51 68.60 146.03 68.24 C 144.80 70.82 143.92 73.53 143.26 76.31 C 133.90 76.13 124.53 77.02 115.18 76.55 C 118.15 73.18 122.75 72.86 126.73 71.47 Z" />
<path fill="#90623c" opacity="1.00" d=" M 128.36 122.40 C 132.68 122.41 137.00 122.38 141.32 122.47 C 141.29 126.15 141.44 129.84 141.63 133.52 C 137.14 133.23 132.67 132.56 128.16 132.72 C 127.46 129.30 127.58 125.80 128.36 122.40 Z" />
<path fill="#90623c" opacity="1.00" d=" M 246.22 122.44 C 248.91 122.35 251.61 122.28 254.32 122.23 C 254.36 126.30 254.54 130.37 254.93 134.42 C 252.11 134.48 249.30 134.46 246.48 134.39 C 246.31 130.41 246.23 126.43 246.22 122.44 Z" />
<path fill="#90623c" opacity="1.00" d=" M 152.18 122.60 C 157.64 123.62 163.22 123.21 168.75 123.39 C 169.16 126.84 169.39 130.30 169.58 133.76 C 163.84 135.55 157.87 133.91 152.05 133.57 C 151.91 129.91 151.96 126.25 152.18 122.60 Z" />
<path fill="#90623c" opacity="1.00" d=" M 183.59 123.75 C 184.88 123.56 186.17 123.36 187.47 123.16 C 187.91 124.62 188.35 126.09 188.79 127.55 C 195.33 127.22 201.98 129.67 208.38 127.58 C 208.68 126.01 209.01 124.44 209.39 122.89 C 209.95 126.82 210.10 130.85 209.51 134.78 C 207.30 135.89 204.44 135.15 201.99 135.16 C 195.85 134.28 189.70 135.49 183.55 135.36 C 183.23 131.50 183.32 127.62 183.59 123.75 Z" />
<path fill="#90623c" opacity="1.00" d=" M 223.53 123.34 C 226.84 123.27 230.15 123.25 233.46 123.24 C 234.31 127.24 234.65 131.33 234.50 135.41 C 230.81 135.32 227.07 135.53 223.47 134.63 C 223.59 130.87 223.58 127.10 223.53 123.34 Z" />
<path fill="#90623c" opacity="1.00" d=" M 269.70 122.56 C 273.46 122.41 277.51 122.46 280.64 124.87 C 280.33 129.76 273.78 128.28 270.42 129.54 C 270.05 127.23 269.82 124.90 269.70 122.56 Z" />
<path fill="#90623c" opacity="1.00" d=" M 104.28 128.98 C 106.35 125.00 110.95 125.56 114.72 125.60 C 114.76 127.94 114.79 130.29 114.82 132.63 C 111.02 132.45 105.69 133.78 104.28 128.98 Z" />
<path fill="#90623c" opacity="1.00" d=" M 128.53 145.29 C 132.91 145.31 137.29 145.33 141.67 145.46 C 141.72 150.11 141.73 154.76 141.64 159.42 C 137.26 159.74 132.87 159.79 128.48 159.73 C 128.61 154.92 128.59 150.10 128.53 145.29 Z" />
<path fill="#90623c" opacity="1.00" d=" M 151.82 145.26 C 157.74 145.25 163.65 145.23 169.56 145.24 C 169.51 149.92 169.54 154.61 169.69 159.30 C 163.64 158.91 157.59 158.46 151.52 158.90 C 151.79 154.36 151.73 149.81 151.82 145.26 Z" />
<path fill="#90623c" opacity="1.00" d=" M 193.03 146.07 C 198.54 145.26 204.12 145.38 209.65 144.71 C 210.32 149.72 210.68 154.77 210.68 159.83 C 200.99 159.94 191.31 159.26 181.61 159.39 C 181.67 154.86 181.34 150.32 181.79 145.80 C 185.54 145.48 189.28 146.71 193.03 146.07 Z" />
<path fill="#90623c" opacity="1.00" d=" M 223.90 145.68 C 227.45 145.73 231.01 145.77 234.56 146.09 C 234.55 150.28 233.98 154.60 235.50 158.63 C 231.94 159.58 228.23 159.24 224.59 159.37 C 224.47 154.79 223.50 150.26 223.90 145.68 Z" />
<path fill="#90623c" opacity="1.00" d=" M 246.56 146.23 C 249.41 146.23 252.27 146.32 255.13 146.51 C 255.15 150.74 255.15 154.97 255.12 159.20 C 252.28 159.20 249.44 159.20 246.60 159.18 C 246.57 154.86 246.57 150.55 246.56 146.23 Z" />
</g>
<g id="#c7af61ff">
<path fill="#c7af61" opacity="1.00" d=" M 243.27 66.55 C 245.49 66.56 247.72 66.58 249.94 66.61 C 250.99 68.94 252.04 71.26 253.05 73.60 C 250.87 73.63 248.70 73.65 246.52 73.67 C 245.64 71.21 244.57 68.82 243.27 66.55 Z" />
<path fill="#c7af61" opacity="1.00" d=" M 149.73 68.59 C 151.24 67.19 153.54 67.77 155.41 67.38 C 154.33 69.96 153.39 72.61 152.85 75.35 C 150.64 75.44 148.44 75.53 146.24 75.61 C 147.19 73.18 147.99 70.60 149.73 68.59 Z" />
<path fill="#c7af61" opacity="1.00" d=" M 190.55 108.51 C 195.82 108.91 201.15 107.13 206.34 108.43 C 206.28 114.09 206.54 119.80 205.42 125.39 C 200.71 125.36 196.05 124.53 191.34 124.61 C 191.45 119.23 190.48 113.90 190.55 108.51 M 196.08 117.05 C 195.76 118.87 195.43 120.68 195.11 122.49 C 197.07 122.52 199.04 122.54 201.01 122.56 C 200.49 120.02 199.78 117.37 200.73 114.83 C 201.33 113.37 200.93 111.90 200.50 110.46 C 198.89 110.54 197.28 110.63 195.67 110.72 C 195.27 112.85 195.32 115.01 196.08 117.05 Z" />
<path fill="#c7af61" opacity="1.00" d=" M 175.04 114.64 C 179.21 114.29 183.41 114.07 187.58 114.55 L 187.68 116.57 C 182.12 116.00 176.52 116.21 170.96 116.71 C 159.64 116.64 148.31 116.47 136.98 116.66 C 131.53 116.63 126.03 117.33 120.63 116.43 C 120.40 116.15 119.92 115.59 119.68 115.30 C 129.42 115.66 139.11 114.59 148.84 114.85 C 157.57 114.66 166.31 114.86 175.04 114.64 Z" />
<path fill="#c7af61" opacity="1.00" d=" M 209.57 114.78 C 228.02 114.23 246.48 114.19 264.93 114.69 C 264.79 115.36 264.52 116.69 264.38 117.36 C 260.26 117.58 256.14 117.32 252.05 116.89 C 244.05 117.25 236.03 117.52 228.02 117.51 C 221.75 116.88 215.47 116.59 209.17 116.58 C 209.27 116.13 209.47 115.23 209.57 114.78 Z" />
<path fill="#c7af61" opacity="1.00" d=" M 120.47 122.50 C 121.51 122.53 122.55 122.56 123.59 122.60 C 123.67 130.03 123.14 137.50 124.12 144.90 C 124.50 149.62 124.49 154.39 124.16 159.12 C 123.15 159.91 121.75 159.53 120.56 159.73 C 120.52 147.32 120.60 134.91 120.47 122.50 Z" />
<path fill="#c7af61" opacity="1.00" d=" M 145.13 122.51 C 145.79 122.52 147.12 122.54 147.78 122.55 C 147.89 132.04 147.86 141.53 147.67 151.02 C 147.48 154.04 148.36 157.23 147.05 160.09 C 145.36 158.09 145.74 155.42 145.71 153.01 C 145.82 142.83 145.82 132.66 145.13 122.51 Z" />
<path fill="#c7af61" opacity="1.00" d=" M 258.45 122.23 C 260.24 122.21 262.04 122.20 263.84 122.18 C 265.18 128.05 264.24 134.08 264.55 140.03 C 264.58 146.67 265.29 153.28 265.74 159.89 C 263.65 159.66 261.57 159.41 259.48 159.18 C 258.96 152.82 259.33 146.42 259.25 140.04 C 259.45 134.08 258.32 128.18 258.45 122.23 Z" />
<path fill="#c7af61" opacity="1.00" d=" M 173.21 123.46 C 175.03 123.45 176.85 123.45 178.68 123.45 C 178.52 129.01 178.86 134.60 178.20 140.13 C 177.13 146.53 177.84 153.03 177.47 159.47 C 176.26 159.18 173.64 159.84 173.71 157.87 C 173.41 146.40 173.74 134.92 173.21 123.46 Z" />
<path fill="#c7af61" opacity="1.00" d=" M 213.47 123.29 C 215.51 123.27 217.55 123.27 219.59 123.28 C 219.56 135.44 219.61 147.61 220.54 159.74 C 218.58 159.76 216.63 159.75 214.67 159.73 C 214.95 153.12 213.57 146.59 213.77 139.99 C 213.81 134.42 213.60 128.86 213.47 123.29 Z" />
<path fill="#c7af61" opacity="1.00" d=" M 238.29 122.52 C 239.98 122.46 242.66 122.42 242.25 124.91 C 242.47 136.38 242.69 147.85 242.52 159.33 C 241.76 159.28 240.25 159.20 239.50 159.16 C 238.87 151.81 239.58 144.40 239.13 137.03 C 238.27 132.25 238.30 127.37 238.29 122.52 Z" />
<path fill="#c7af61" opacity="1.00" d=" M 128.16 137.26 C 132.67 137.22 137.19 137.32 141.70 137.53 C 141.65 138.80 141.59 140.07 141.54 141.35 C 137.18 141.20 132.81 141.19 128.45 141.30 C 128.35 139.95 128.25 138.60 128.16 137.26 Z" />
<path fill="#c7af61" opacity="1.00" d=" M 152.21 137.58 C 157.93 138.52 163.75 138.73 169.54 138.35 C 169.56 138.93 169.60 140.08 169.62 140.66 C 163.84 141.57 157.99 141.09 152.17 141.23 C 152.18 140.01 152.19 138.80 152.21 137.58 Z" />
<path fill="#c7af61" opacity="1.00" d=" M 182.33 139.25 C 191.49 139.31 200.64 139.22 209.79 139.27 C 209.80 139.60 209.83 140.27 209.84 140.60 C 203.95 141.39 197.99 141.23 192.10 142.06 C 188.82 142.35 185.57 141.63 182.30 141.44 C 182.31 140.89 182.32 139.80 182.33 139.25 Z" />
<path fill="#c7af61" opacity="1.00" d=" M 223.54 141.67 C 223.86 140.63 224.19 139.60 224.53 138.56 C 227.79 139.28 231.13 139.42 234.46 139.45 C 234.48 140.02 234.50 141.17 234.51 141.74 C 230.85 141.83 227.19 141.78 223.54 141.67 Z" />
<path fill="#c7af61" opacity="1.00" d=" M 246.43 138.36 C 249.33 138.37 252.23 138.44 255.12 138.55 C 255.13 139.53 255.15 141.49 255.16 142.47 C 252.34 142.13 249.23 142.83 246.68 141.36 C 246.62 140.61 246.49 139.11 246.43 138.36 Z" />
<path fill="#c7af61" opacity="1.00" d=" M 120.54 163.46 C 133.35 164.29 146.17 163.23 158.96 162.70 C 178.54 164.82 198.28 164.26 217.95 164.38 C 224.59 163.60 231.30 163.27 237.95 164.19 C 246.82 164.37 255.69 165.16 264.57 164.69 C 264.53 165.93 264.48 167.18 264.44 168.42 C 255.95 168.08 247.46 168.37 238.97 168.08 C 235.31 168.26 231.67 167.76 228.02 167.77 C 206.38 169.24 184.64 168.63 162.97 168.28 C 148.94 166.64 134.81 167.89 120.75 167.62 C 120.70 166.58 120.59 164.50 120.54 163.46 Z" />
</g>
<g id="#563c27ff">
<path fill="#563c27" opacity="1.00" d=" M 186.03 79.52 C 190.03 79.58 193.95 78.56 197.95 78.46 C 212.23 76.90 226.67 77.40 240.96 78.58 C 248.96 78.89 257.00 78.01 264.98 78.94 C 267.96 79.25 270.95 79.30 273.94 79.29 C 273.62 81.42 273.27 83.56 272.52 85.59 C 270.17 91.97 268.69 98.62 266.97 105.18 C 264.80 103.64 262.99 101.68 260.97 99.98 C 259.49 99.71 257.99 99.65 256.51 99.53 C 255.37 96.11 251.99 94.86 248.96 93.58 C 247.82 89.84 244.30 87.88 241.52 85.48 C 240.07 84.39 238.08 82.86 236.25 84.04 C 230.89 87.25 224.63 88.02 218.65 89.41 C 215.23 89.97 213.41 86.45 210.81 84.96 C 208.20 84.45 205.52 84.61 202.87 84.49 C 201.93 82.68 201.36 80.21 199.10 79.61 C 195.89 78.63 193.13 82.56 190.05 80.95 C 186.97 79.28 183.52 80.17 180.59 81.66 C 179.10 82.66 177.41 81.86 175.85 81.61 C 172.88 82.47 170.92 84.86 169.12 87.21 C 167.59 87.27 166.07 87.33 164.55 87.39 C 163.58 88.51 162.61 89.63 161.64 90.75 C 158.45 90.13 155.32 90.68 152.25 91.58 C 148.06 90.69 143.53 89.90 139.41 91.54 C 137.04 92.50 134.54 93.12 132.17 94.09 C 130.02 95.61 130.00 98.56 129.20 100.85 C 126.85 101.81 125.11 103.64 123.65 105.66 C 121.57 106.04 119.48 106.41 117.39 106.76 C 115.10 98.52 112.45 90.35 110.92 81.93 C 121.28 81.27 131.66 81.79 142.02 81.47 C 156.59 79.48 171.34 78.97 186.03 79.52 Z" />
</g>
<g id="#fae55bff">
<path fill="#fae55b" opacity="1.00" d=" M 180.96 85.73 C 182.78 84.48 184.66 83.01 186.94 82.79 C 188.45 82.78 188.80 84.67 189.63 85.61 C 190.02 85.57 190.79 85.48 191.17 85.43 C 193.09 84.53 195.04 83.71 196.90 82.69 C 197.26 82.64 197.97 82.53 198.32 82.47 C 199.19 84.12 200.06 85.77 200.92 87.43 C 204.22 87.75 207.60 87.29 210.87 87.98 C 211.85 89.38 212.20 91.08 212.73 92.68 C 214.23 92.51 215.74 92.36 217.25 92.22 C 217.49 93.70 218.43 94.48 219.88 94.54 C 220.47 93.46 221.10 92.41 221.78 91.38 C 224.41 91.10 227.74 92.84 229.12 89.53 C 231.29 89.15 233.46 89.47 235.38 90.58 C 235.92 89.23 236.40 87.87 236.81 86.48 C 237.93 86.89 239.05 87.29 240.18 87.69 C 241.10 88.86 242.02 90.02 242.93 91.20 C 243.51 91.34 244.66 91.61 245.24 91.75 C 245.71 93.17 245.44 95.15 246.86 96.07 C 248.91 96.99 251.07 97.66 253.11 98.62 C 253.25 99.84 253.39 101.07 253.55 102.29 C 255.73 102.47 257.91 102.76 260.05 103.20 C 260.19 103.74 260.47 104.80 260.61 105.33 C 261.32 105.40 262.74 105.53 263.45 105.60 C 263.99 107.63 264.49 109.68 264.94 111.74 C 251.95 111.61 238.94 111.60 225.95 111.38 C 220.52 110.33 214.98 110.83 209.49 110.76 C 209.17 108.75 209.10 106.64 208.12 104.81 C 205.21 103.68 202.01 104.68 198.99 104.78 C 195.21 105.28 191.22 104.04 187.64 105.73 C 187.65 107.39 187.65 109.06 187.68 110.73 C 178.71 111.08 169.72 110.24 160.78 111.29 C 147.29 111.72 133.76 112.22 120.27 111.43 C 120.26 110.88 120.25 109.79 120.24 109.24 C 121.74 109.18 123.25 109.25 124.74 109.01 C 126.88 108.60 126.72 105.80 128.42 104.81 C 129.78 104.25 131.22 103.89 132.63 103.46 C 132.63 101.92 132.61 100.38 132.57 98.84 C 133.70 95.37 137.97 96.39 140.44 94.47 C 141.81 93.38 143.50 93.89 145.04 94.21 C 146.37 93.98 147.70 93.75 149.04 93.56 C 150.18 95.04 151.35 96.72 153.39 96.87 C 154.17 95.65 154.93 94.42 155.73 93.22 C 158.36 93.37 160.81 94.33 163.14 95.49 C 163.92 93.80 164.52 91.98 165.73 90.53 C 167.87 90.03 170.12 90.56 172.31 90.53 C 172.37 89.76 172.50 88.23 172.56 87.46 C 173.73 86.15 175.10 85.02 176.85 84.60 C 178.18 85.12 179.55 85.49 180.96 85.73 M 196.46 89.67 C 196.54 90.50 196.61 91.34 196.69 92.17 C 198.07 92.26 199.46 92.35 200.84 92.43 C 200.65 91.53 200.45 90.64 200.25 89.74 C 198.98 89.70 197.72 89.68 196.46 89.67 M 171.44 92.78 C 171.37 93.77 171.30 94.75 171.23 95.74 C 173.62 94.96 176.04 94.24 178.57 94.17 C 178.58 93.25 178.59 92.33 178.59 91.41 C 176.10 91.18 173.58 91.38 171.44 92.78 M 186.44 95.29 C 186.40 95.81 186.31 96.84 186.27 97.36 C 187.87 97.81 189.45 98.37 190.86 99.28 C 191.27 99.30 192.08 99.34 192.49 99.35 C 192.47 98.48 192.46 97.61 192.45 96.75 C 190.67 95.47 188.56 95.19 186.44 95.29 M 208.39 96.45 C 208.52 97.40 208.66 98.36 208.80 99.31 C 210.67 99.06 212.54 98.77 214.41 98.48 C 214.41 98.00 214.40 97.04 214.39 96.56 C 212.40 96.22 210.39 96.21 208.39 96.45 M 232.33 97.16 C 232.36 97.74 232.41 98.90 232.44 99.48 C 233.90 99.47 235.35 99.46 236.82 99.43 C 236.64 98.52 236.47 97.61 236.30 96.70 C 234.97 96.84 233.65 96.99 232.33 97.16 M 221.21 100.49 C 220.79 101.34 220.42 102.25 220.75 103.21 C 222.08 103.39 223.42 103.41 224.75 103.46 C 224.65 102.57 224.55 101.69 224.45 100.81 C 223.36 100.71 222.28 100.60 221.21 100.49 M 176.77 102.64 C 176.67 103.21 176.48 104.34 176.39 104.91 C 178.49 104.77 180.46 104.02 182.27 102.94 C 180.45 102.63 178.61 102.54 176.77 102.64 M 149.77 105.79 C 152.99 105.58 156.21 105.43 159.41 105.02 C 156.89 102.65 151.73 102.72 149.77 105.79 M 240.51 103.71 C 240.52 104.50 240.52 105.30 240.54 106.09 C 242.09 106.24 243.65 106.43 245.22 106.58 C 245.24 106.13 245.27 105.23 245.29 104.78 C 244.97 104.39 244.35 103.62 244.04 103.23 C 242.86 103.38 241.68 103.54 240.51 103.71 M 251.17 103.37 C 251.53 105.13 253.03 106.60 254.82 106.88 C 256.24 105.06 253.07 101.46 251.17 103.37 M 141.49 104.65 C 140.32 105.04 140.47 106.65 139.94 107.58 C 140.89 107.19 141.84 106.80 142.80 106.41 C 144.05 106.89 145.31 107.39 146.59 107.85 C 146.66 107.26 146.82 106.09 146.89 105.50 C 145.15 105.00 143.28 103.56 141.49 104.65 Z" />
</g>
</svg>
