<?xml version="1.0" encoding="UTF-8" ?>
<!DOCTYPE svg PUBLIC "-//W3C//DTD SVG 1.1//EN" "http://www.w3.org/Graphics/SVG/1.1/DTD/svg11.dtd">
<svg width="1570pt" height="356pt" viewBox="0 0 1570 356" version="1.1" xmlns="http://www.w3.org/2000/svg">
<g id="#e3ca87ff">
<path fill="#e1c25e" opacity="1.00" d=" M 1362.44 13.73 C 1367.60 11.38 1373.44 11.61 1378.98 11.19 C 1385.94 11.02 1394.26 13.58 1397.28 20.45 C 1401.36 28.98 1399.68 39.10 1404.34 47.42 C 1406.85 51.86 1404.61 56.67 1403.06 60.97 C 1407.57 64.75 1409.65 70.40 1413.11 75.02 C 1414.62 77.25 1416.53 79.33 1417.24 81.99 C 1418.38 86.01 1415.45 90.76 1411.19 91.15 C 1405.62 91.64 1400.04 90.92 1394.55 90.09 C 1395.83 92.82 1397.06 95.57 1398.17 98.38 C 1406.53 95.27 1415.07 92.22 1423.99 91.32 C 1430.70 91.08 1437.68 90.67 1444.07 93.16 C 1447.91 94.63 1451.88 95.73 1455.93 96.54 C 1462.65 97.95 1468.89 102.55 1476.04 100.85 C 1485.93 100.13 1495.01 95.70 1503.08 90.18 C 1506.63 87.51 1509.28 83.53 1509.89 79.09 C 1510.82 73.73 1512.32 68.20 1515.93 64.00 C 1518.01 61.46 1521.91 60.39 1524.85 62.02 C 1526.92 64.05 1528.49 66.57 1530.42 68.76 C 1530.59 74.63 1530.30 80.49 1530.39 86.36 C 1536.42 89.36 1542.92 86.50 1549.05 85.45 C 1552.32 84.34 1555.90 84.14 1559.03 85.85 C 1559.41 86.37 1560.16 87.42 1560.53 87.94 C 1561.62 92.50 1557.12 94.71 1554.34 97.27 C 1552.78 98.75 1550.84 99.99 1549.87 101.94 C 1550.66 106.26 1548.83 110.63 1545.50 113.42 C 1539.07 118.36 1533.75 125.30 1525.54 127.37 C 1516.58 129.44 1508.56 135.28 1499.07 134.87 C 1493.23 134.67 1487.20 135.56 1481.54 133.76 C 1478.41 132.91 1475.16 133.36 1471.99 133.24 C 1463.45 133.05 1454.74 132.00 1446.90 128.44 C 1442.44 127.93 1438.25 126.50 1434.31 124.40 C 1436.63 130.28 1437.75 136.52 1438.63 142.75 C 1439.76 142.36 1440.90 141.96 1442.06 141.57 C 1446.30 142.19 1448.85 145.90 1449.67 149.85 C 1453.35 159.13 1451.29 169.23 1451.76 178.93 C 1452.10 186.44 1451.07 194.36 1446.32 200.47 C 1441.68 206.20 1435.99 212.84 1427.90 212.62 C 1421.76 213.52 1416.50 209.90 1410.84 208.30 C 1405.05 206.47 1402.69 199.73 1396.78 198.23 C 1391.42 196.21 1385.60 196.82 1380.01 196.15 C 1371.98 196.33 1363.97 195.61 1355.94 195.68 C 1351.55 195.59 1347.39 197.35 1343.01 197.31 C 1336.61 197.33 1330.33 198.78 1323.94 198.83 C 1315.69 198.92 1307.22 198.79 1299.26 201.14 C 1294.75 205.73 1289.16 208.99 1284.40 213.29 C 1281.75 215.59 1278.50 216.94 1275.47 218.62 C 1267.61 224.11 1258.40 227.46 1249.11 229.61 C 1242.87 231.17 1236.40 230.86 1230.06 231.52 C 1219.80 233.41 1209.32 232.80 1198.95 232.81 C 1193.56 233.18 1189.43 227.96 1184.02 229.42 C 1180.65 229.89 1177.16 229.57 1173.91 230.60 C 1171.07 232.10 1168.47 234.02 1165.77 235.76 C 1160.12 241.40 1154.83 247.41 1150.46 254.12 C 1148.82 257.20 1147.98 260.63 1147.56 264.07 C 1152.68 265.28 1157.84 263.80 1163.00 263.98 C 1171.80 264.12 1180.62 263.76 1189.42 264.24 C 1191.73 265.10 1194.12 265.77 1196.54 266.32 C 1198.85 267.06 1201.43 266.67 1203.64 267.80 C 1209.87 268.11 1216.12 268.09 1222.35 267.81 C 1223.61 267.02 1225.12 266.98 1226.58 266.82 C 1227.85 265.93 1229.11 265.02 1230.33 264.03 C 1253.53 263.95 1276.74 264.03 1299.94 263.99 C 1300.30 264.48 1301.02 265.45 1301.38 265.94 C 1303.44 266.02 1305.60 265.81 1307.60 266.57 C 1315.90 267.44 1324.31 266.79 1332.66 266.94 C 1331.79 268.11 1331.00 269.33 1330.20 270.53 C 1330.96 271.66 1331.73 272.80 1332.56 273.90 C 1327.18 273.87 1321.68 273.30 1316.44 274.75 C 1307.80 277.24 1298.75 275.73 1289.93 276.39 C 1281.60 276.64 1273.45 279.79 1265.08 278.35 C 1261.56 277.83 1258.62 275.58 1255.16 274.96 C 1248.69 274.41 1242.45 276.52 1236.16 277.60 C 1230.46 278.12 1224.63 278.16 1219.03 276.89 C 1216.89 276.33 1214.81 277.26 1212.78 277.75 C 1208.96 278.84 1204.98 279.34 1201.02 279.46 C 1189.28 279.80 1177.45 279.73 1165.86 277.63 C 1160.12 276.52 1154.32 275.81 1148.54 274.98 C 1148.50 277.73 1145.23 277.27 1143.40 276.74 C 1140.89 275.90 1138.22 276.12 1135.63 275.97 C 1132.75 273.99 1128.99 275.37 1125.74 275.08 L 1125.60 273.88 C 1156.39 273.99 1187.18 274.04 1217.97 273.90 C 1221.09 273.88 1224.21 273.70 1227.35 273.56 C 1229.76 272.63 1232.39 272.92 1234.93 272.89 C 1240.78 273.03 1246.63 272.54 1252.49 272.82 C 1250.80 272.23 1249.06 271.90 1247.38 271.38 C 1218.60 270.79 1189.81 271.10 1161.02 271.03 C 1149.90 271.31 1138.76 270.72 1127.65 271.45 C 1122.59 272.98 1117.21 271.43 1112.07 272.37 C 1104.47 273.94 1096.72 274.40 1088.97 273.93 C 1088.57 273.74 1087.75 273.37 1087.34 273.18 C 1083.37 272.68 1079.03 273.95 1075.33 272.18 C 1066.12 272.00 1056.90 272.13 1047.68 272.12 C 1048.45 270.86 1049.20 269.59 1050.02 268.36 C 1050.52 265.51 1047.37 263.83 1047.81 261.07 C 1048.44 254.75 1047.80 248.32 1049.11 242.06 C 1050.20 236.72 1050.48 231.23 1052.03 225.98 C 1053.83 218.80 1056.86 212.02 1058.93 204.93 C 1061.95 192.00 1069.26 180.59 1076.90 169.92 C 1079.97 164.77 1083.25 159.59 1088.06 155.87 C 1098.66 148.04 1109.20 139.54 1121.90 135.36 C 1133.63 131.58 1146.06 134.59 1158.05 132.80 C 1166.13 132.11 1174.57 133.19 1182.31 130.23 C 1185.95 128.35 1189.66 126.38 1192.74 123.64 C 1198.42 115.26 1201.87 105.65 1206.66 96.78 C 1211.50 89.05 1219.58 82.75 1228.96 82.30 C 1233.26 82.01 1236.96 84.46 1240.68 86.24 C 1245.74 88.90 1250.66 92.13 1254.34 96.57 C 1258.23 102.02 1265.54 105.53 1272.17 103.42 C 1279.64 102.41 1285.19 97.00 1291.40 93.27 C 1296.35 90.40 1300.03 85.73 1305.27 83.31 C 1310.82 80.77 1315.55 76.87 1320.75 73.74 C 1326.32 70.39 1331.20 66.04 1336.47 62.25 C 1341.65 58.43 1346.23 53.77 1351.93 50.68 C 1355.28 49.12 1356.79 45.45 1357.89 42.15 C 1357.00 37.37 1354.33 32.88 1354.85 27.89 C 1355.73 22.56 1357.49 16.65 1362.44 13.73 M 1367.57 23.49 C 1366.89 25.57 1366.33 27.68 1365.81 29.79 C 1367.14 34.52 1369.80 39.14 1369.27 44.19 C 1368.03 47.79 1366.21 51.18 1364.34 54.48 C 1361.41 59.02 1355.97 60.62 1352.05 64.04 C 1340.21 73.79 1327.85 82.88 1314.74 90.83 C 1311.58 92.55 1308.21 93.97 1305.55 96.45 C 1300.76 100.93 1294.87 103.92 1289.59 107.75 C 1282.80 112.82 1274.17 115.12 1265.78 115.10 C 1258.51 113.92 1251.11 110.50 1246.56 104.52 C 1242.72 99.76 1237.23 96.73 1231.79 94.16 C 1229.07 92.63 1225.96 94.07 1223.43 95.26 C 1216.98 99.28 1213.24 106.41 1211.16 113.50 L 1210.96 113.69 C 1209.45 116.83 1207.58 119.79 1206.30 123.03 C 1204.83 127.36 1204.56 132.62 1200.63 135.62 C 1196.72 138.71 1192.42 141.33 1187.95 143.51 C 1177.17 147.99 1165.29 146.04 1154.01 147.63 C 1143.55 148.52 1132.45 145.94 1122.58 150.53 C 1113.50 154.59 1105.71 160.91 1097.68 166.68 C 1093.03 169.88 1090.98 175.33 1087.78 179.76 C 1082.56 186.63 1078.22 194.18 1074.86 202.11 C 1072.86 209.15 1070.71 216.15 1068.02 222.96 C 1065.02 230.69 1064.33 238.98 1062.89 247.08 C 1062.52 254.41 1062.20 261.75 1062.10 269.09 C 1065.39 269.36 1068.65 269.98 1071.92 270.51 C 1075.18 263.74 1083.69 266.11 1089.68 265.63 C 1087.43 264.83 1084.04 265.53 1081.49 264.59 C 1086.91 263.57 1092.45 264.30 1097.92 263.71 C 1096.11 262.98 1094.55 261.85 1093.35 260.33 C 1093.34 258.46 1093.36 256.60 1093.45 254.74 C 1095.39 252.90 1097.23 250.95 1099.08 249.00 C 1101.01 246.78 1104.52 246.96 1107.06 247.93 C 1113.53 250.74 1112.07 261.27 1105.98 263.75 C 1115.10 264.25 1124.26 263.93 1133.41 263.96 C 1133.39 260.02 1134.34 256.18 1135.68 252.51 C 1137.69 245.70 1142.87 240.62 1146.86 234.97 C 1151.41 230.91 1154.54 225.25 1160.08 222.38 C 1163.07 220.71 1165.49 217.97 1168.93 217.13 C 1174.64 215.46 1180.67 215.46 1186.56 215.05 C 1186.73 213.79 1187.36 212.92 1188.46 212.42 C 1192.54 214.04 1196.46 216.38 1200.93 216.77 C 1205.30 217.13 1209.54 218.64 1213.96 218.44 C 1218.01 218.31 1222.08 218.28 1226.10 217.65 C 1233.37 216.47 1241.00 217.51 1248.04 214.94 C 1258.54 211.38 1268.11 205.52 1276.99 198.95 C 1279.81 196.98 1283.31 196.16 1285.92 193.84 C 1288.97 191.18 1291.78 188.04 1295.74 186.72 C 1311.66 180.02 1329.20 182.28 1346.01 181.74 C 1358.34 181.22 1370.67 180.46 1383.02 180.65 C 1388.49 180.95 1393.50 178.22 1398.93 178.20 C 1404.41 177.87 1408.77 181.96 1412.52 185.44 C 1416.31 189.01 1418.45 194.90 1423.88 196.36 C 1427.45 196.59 1432.01 196.55 1434.13 193.10 C 1436.55 190.30 1437.69 186.64 1437.49 182.95 C 1437.30 174.80 1438.07 166.64 1437.53 158.50 C 1434.93 158.66 1432.33 158.34 1430.29 156.60 C 1421.51 156.54 1412.75 157.17 1403.97 156.58 C 1395.89 156.00 1388.04 158.65 1379.98 158.47 C 1363.54 158.40 1347.12 159.96 1330.99 163.16 C 1320.66 165.26 1307.84 157.25 1308.58 145.93 C 1309.01 143.31 1306.99 140.67 1308.27 138.18 C 1308.74 136.50 1310.49 135.78 1311.81 134.85 C 1316.28 132.14 1320.09 128.51 1323.94 125.01 C 1330.51 119.52 1336.78 113.68 1343.49 108.36 C 1351.03 101.33 1359.02 94.68 1365.55 86.66 C 1372.15 79.86 1379.20 73.48 1385.25 66.16 C 1389.35 62.49 1392.30 57.89 1394.31 52.79 C 1391.96 48.15 1390.63 43.08 1389.76 37.98 C 1389.33 33.41 1388.90 28.58 1386.65 24.51 C 1380.99 20.64 1373.84 23.08 1367.57 23.49 M 1390.27 77.16 C 1394.42 78.81 1398.81 79.65 1403.23 80.28 C 1401.08 76.93 1398.97 73.56 1397.05 70.07 C 1394.64 72.29 1392.41 74.70 1390.27 77.16 M 1371.63 96.38 C 1376.42 96.79 1381.17 97.57 1385.93 98.28 C 1384.52 94.31 1382.57 90.54 1381.38 86.49 C 1378.14 89.80 1374.84 93.05 1371.63 96.38 M 1498.93 108.78 C 1490.13 113.53 1479.91 115.27 1469.99 114.85 C 1463.39 114.80 1457.72 110.96 1451.48 109.36 C 1446.91 108.21 1442.53 106.47 1438.06 105.05 C 1428.08 102.95 1417.87 105.29 1408.43 108.61 C 1399.36 111.20 1392.55 118.08 1384.43 122.53 C 1381.13 124.97 1376.19 126.14 1372.78 123.28 C 1372.67 123.75 1372.47 124.69 1372.37 125.16 C 1378.36 124.93 1384.18 129.02 1386.04 134.73 C 1388.55 130.15 1390.74 125.20 1394.47 121.46 C 1396.74 119.15 1400.06 120.62 1402.85 120.68 C 1404.81 119.30 1406.74 117.83 1409.03 116.99 C 1412.71 115.60 1415.83 112.62 1419.91 112.34 C 1424.26 112.02 1428.64 112.23 1433.02 112.19 C 1440.56 111.65 1446.59 117.85 1454.03 117.91 C 1459.75 117.45 1465.35 119.09 1471.06 119.16 C 1475.06 119.30 1479.11 118.89 1483.10 119.51 C 1490.36 121.70 1498.29 121.23 1505.56 119.29 C 1509.62 116.70 1514.25 114.98 1517.85 111.70 C 1520.18 109.77 1523.23 109.19 1525.94 107.98 C 1527.71 106.80 1528.84 104.89 1530.47 103.52 C 1533.41 100.69 1537.69 100.03 1540.77 97.40 C 1536.00 99.09 1530.87 97.76 1526.48 95.65 C 1523.74 94.50 1521.44 92.21 1521.00 89.18 C 1516.54 98.39 1507.65 104.10 1498.93 108.78 M 1371.07 107.41 C 1372.02 110.47 1372.97 113.53 1373.62 116.68 C 1374.95 112.90 1378.50 110.83 1381.68 108.76 C 1378.13 108.34 1374.61 107.76 1371.07 107.41 M 1351.67 116.26 C 1355.33 116.82 1359.00 117.39 1362.71 117.69 C 1361.74 114.63 1360.81 111.57 1360.00 108.47 C 1357.18 111.02 1354.14 113.36 1351.67 116.26 M 1326.21 137.76 C 1331.05 139.66 1336.21 140.60 1341.41 140.84 C 1340.23 136.32 1339.36 131.72 1338.33 127.17 C 1334.38 130.81 1330.14 134.11 1326.21 137.76 M 1398.83 134.27 C 1396.44 137.86 1395.51 142.13 1393.44 145.87 C 1397.54 145.56 1401.65 145.50 1405.77 145.60 C 1403.34 141.89 1400.78 138.26 1398.83 134.27 M 1426.93 138.34 C 1426.23 140.81 1425.49 143.28 1424.44 145.62 C 1425.57 145.67 1426.73 145.72 1427.90 145.77 C 1427.65 143.28 1427.38 140.80 1426.93 138.34 M 1365.05 140.10 C 1362.69 143.13 1359.96 145.83 1357.17 148.45 C 1363.19 147.71 1369.23 147.62 1375.30 147.54 C 1371.99 144.95 1369.27 141.17 1365.05 140.10 Z" />
<path fill="#e1c25e" opacity="1.00" d=" M 438.69 103.57 C 445.12 103.25 451.57 103.43 458.01 103.35 C 467.94 103.04 477.12 107.75 485.44 112.68 C 492.68 117.57 498.94 123.72 505.35 129.62 C 517.50 142.92 529.27 156.68 539.23 171.73 C 543.38 177.93 548.06 183.82 551.31 190.57 C 555.58 199.09 559.47 207.79 563.46 216.44 C 567.73 225.34 570.13 235.00 574.39 243.91 C 577.09 249.82 580.51 255.40 584.52 260.52 C 585.81 262.37 588.08 262.92 589.86 264.15 C 591.29 266.17 591.29 269.06 593.26 270.75 C 595.06 272.26 596.86 273.89 599.06 274.80 C 602.71 275.10 606.38 274.63 610.04 274.84 C 611.80 276.11 613.32 277.83 615.56 278.28 C 619.71 281.69 625.55 279.02 630.39 280.49 C 624.96 283.74 618.57 284.25 612.49 285.32 C 602.48 287.66 592.11 286.49 582.05 285.14 C 578.73 284.64 575.49 283.41 572.09 283.61 C 561.39 284.00 550.70 284.56 539.99 284.67 C 532.44 284.96 524.81 284.84 517.37 283.47 C 513.94 283.02 510.47 283.00 507.02 283.02 C 486.31 283.02 465.60 282.99 444.89 283.03 L 444.90 282.12 C 447.05 281.44 449.65 280.02 451.63 281.90 C 454.58 282.03 457.54 282.00 460.50 281.96 C 462.30 280.89 463.84 279.48 464.76 277.57 C 464.73 276.92 464.68 275.63 464.66 274.99 C 468.40 275.08 472.15 274.81 475.89 274.88 C 485.87 276.03 495.92 275.19 505.94 275.55 C 494.80 262.83 484.31 249.53 472.56 237.35 C 466.12 230.32 457.44 225.35 447.99 223.86 C 442.34 223.52 436.68 223.69 431.03 223.64 C 426.61 223.28 423.16 226.41 419.50 228.35 C 409.67 233.48 403.83 243.45 398.86 252.94 C 395.24 258.95 393.50 265.95 389.18 271.54 C 394.56 271.28 399.96 271.21 405.36 271.13 C 405.80 271.35 406.68 271.77 407.12 271.99 C 407.11 272.60 407.11 273.83 407.11 274.44 C 407.99 275.32 408.89 276.18 409.80 277.04 C 407.33 276.81 404.59 277.59 402.35 276.18 C 397.09 276.24 391.51 275.12 386.46 276.89 C 383.47 277.25 380.22 276.36 377.45 277.79 C 375.34 277.91 373.22 278.14 371.41 279.34 C 370.04 280.12 368.44 280.02 366.92 280.05 C 356.60 280.00 346.27 280.04 335.95 280.02 C 333.44 279.79 331.19 281.33 328.70 281.14 C 325.74 280.98 322.76 280.70 319.80 280.98 C 317.87 281.23 316.98 283.90 314.87 283.50 C 313.84 282.94 312.84 282.33 311.87 281.69 C 304.28 282.75 296.55 283.28 288.93 282.13 C 281.76 280.95 274.52 280.25 267.25 280.67 C 267.56 279.59 267.86 278.50 268.16 277.42 C 267.65 277.11 266.63 276.49 266.12 276.18 C 264.88 276.00 263.66 275.78 262.44 275.52 C 260.58 275.18 258.70 274.92 256.86 274.48 C 258.03 274.19 259.20 273.91 260.38 273.66 C 261.98 273.03 263.70 272.93 265.39 272.70 C 268.26 271.40 271.52 272.29 274.54 271.68 C 279.04 270.72 283.67 271.03 288.18 271.73 C 297.60 271.76 306.95 270.46 316.28 269.25 C 319.06 263.54 317.90 257.09 319.11 251.04 C 320.28 242.27 324.77 234.45 327.05 225.98 C 329.01 219.05 329.93 211.86 332.17 205.00 C 334.79 196.21 338.37 187.74 341.15 179.01 C 344.72 167.91 348.65 156.80 354.74 146.80 C 360.21 137.83 368.02 130.58 376.30 124.25 C 382.09 119.87 388.98 117.37 395.50 114.30 C 403.95 110.45 412.57 106.42 421.94 105.56 C 427.56 105.16 433.10 104.14 438.69 103.57 M 433.13 119.40 C 426.33 120.35 419.24 120.16 412.81 122.88 C 405.95 125.68 399.26 128.86 392.43 131.72 C 382.91 135.62 374.86 142.45 368.20 150.19 C 362.13 157.85 358.55 167.11 355.26 176.22 C 350.50 190.33 344.30 203.97 340.74 218.47 C 338.71 226.83 335.78 234.93 332.53 242.89 C 329.10 251.42 328.43 260.81 324.39 269.14 C 331.38 269.03 338.26 270.26 345.14 271.29 C 355.57 271.65 366.02 271.36 376.46 271.53 C 377.21 264.57 380.30 258.16 382.76 251.68 C 388.16 240.15 394.61 228.60 404.49 220.29 C 408.81 216.89 413.70 214.29 418.49 211.61 C 423.48 208.78 429.36 208.56 434.95 208.64 C 441.99 208.78 449.25 207.82 456.04 210.16 C 462.58 212.39 469.18 214.92 474.63 219.28 C 482.71 225.15 488.70 233.26 495.44 240.51 C 501.88 248.11 508.54 255.53 514.63 263.42 C 518.28 267.29 523.01 270.03 526.31 274.28 C 535.18 273.96 544.05 274.37 552.93 274.39 C 561.67 274.07 570.36 275.31 579.10 275.47 C 575.09 272.21 571.81 268.17 569.03 263.85 C 563.44 255.64 559.26 246.55 555.97 237.21 C 555.33 239.02 554.84 240.96 553.68 242.53 C 547.30 251.58 530.47 247.94 528.26 237.12 C 527.43 232.34 527.77 227.20 529.83 222.77 C 533.33 221.26 537.16 220.18 541.00 220.57 C 544.64 220.94 547.85 222.85 551.01 224.55 C 546.91 215.26 542.63 206.03 538.13 196.93 C 535.19 190.80 530.71 185.63 526.98 180.00 C 518.59 167.14 508.33 155.67 498.39 144.03 C 498.36 147.96 497.33 151.74 495.38 155.14 C 496.34 157.40 496.96 159.78 496.66 162.27 C 495.14 163.85 493.47 165.72 491.10 165.76 C 483.72 166.47 477.01 162.45 470.87 158.90 C 466.31 160.16 460.59 159.41 457.97 155.03 C 455.57 150.96 458.13 146.36 457.37 142.05 C 456.37 136.75 459.63 131.70 463.99 128.98 C 468.41 126.07 473.92 126.55 478.96 126.46 C 472.54 122.65 465.70 118.43 457.94 118.72 C 449.67 118.90 441.34 118.08 433.13 119.40 Z" />
<path fill="#e1c25e" opacity="1.00" d=" M 1231.58 108.79 C 1236.38 107.13 1241.34 108.66 1245.50 111.21 C 1254.03 114.35 1258.69 123.53 1259.69 132.10 C 1260.49 136.90 1257.74 141.31 1254.93 144.94 C 1250.39 150.11 1244.09 154.18 1237.12 154.81 C 1229.41 155.52 1222.89 150.48 1217.20 145.97 C 1212.27 142.51 1209.39 136.06 1210.41 130.11 C 1213.83 120.49 1220.98 110.80 1231.58 108.79 M 1244.03 122.94 C 1244.96 127.71 1246.31 132.38 1247.78 137.01 C 1249.89 132.07 1247.45 126.62 1244.03 122.94 M 1221.33 133.05 C 1222.08 137.21 1226.73 138.80 1229.29 141.76 C 1228.58 136.09 1228.47 130.38 1227.77 124.72 C 1224.01 125.70 1222.13 129.61 1221.33 133.05 Z" />
<path fill="#e1c25e" opacity="1.00" d=" M 834.49 110.71 C 842.60 109.98 850.78 109.86 858.93 109.56 C 865.18 110.53 871.95 109.11 877.74 112.22 C 882.57 114.44 886.59 117.97 890.62 121.37 C 893.69 123.98 897.32 125.91 900.06 128.92 C 905.42 134.88 911.84 139.94 916.24 146.74 C 922.99 157.44 929.92 168.04 935.97 179.18 C 941.18 187.50 946.98 195.46 952.35 203.68 C 961.06 214.11 967.04 226.46 971.78 239.11 C 975.26 246.25 977.29 253.94 979.42 261.56 C 978.13 262.84 975.78 263.85 976.06 266.02 C 975.90 268.26 978.17 269.83 980.20 270.07 C 981.78 269.03 983.70 268.78 985.45 268.11 C 987.56 268.00 989.68 267.96 991.81 267.90 C 992.18 268.33 992.92 269.18 993.30 269.61 C 998.69 272.30 1004.39 269.73 1010.02 269.94 C 1010.02 271.97 1010.09 273.99 1010.25 276.02 C 1006.67 276.21 1002.85 275.40 999.47 276.89 C 995.17 277.25 990.76 276.54 986.56 277.70 C 984.60 278.08 982.60 278.05 980.65 278.23 C 979.09 279.07 977.30 279.03 975.62 279.30 C 974.29 279.81 972.90 280.06 971.55 280.35 C 969.86 280.88 968.15 281.28 966.51 281.90 C 957.33 282.21 948.14 281.93 938.96 282.00 C 937.37 281.58 936.57 282.97 935.81 284.07 C 943.90 284.44 951.92 285.79 960.01 286.12 C 976.35 285.55 992.75 285.30 1009.04 287.01 C 1004.49 287.60 999.90 287.81 995.33 287.90 C 981.80 287.88 968.26 287.54 954.76 288.53 C 965.04 289.73 975.51 288.02 985.70 289.77 C 988.63 290.02 991.62 289.98 994.50 290.72 C 996.68 290.80 998.86 290.72 1001.06 290.81 C 1007.82 291.05 1014.61 291.14 1021.37 290.54 C 1023.08 289.94 1025.09 289.55 1026.65 290.82 C 1030.57 291.07 1034.51 290.96 1038.44 291.03 C 1040.75 293.78 1044.54 293.02 1047.72 293.33 L 1047.73 293.76 C 1041.52 294.32 1035.28 294.12 1029.05 294.28 C 1020.07 294.33 1011.02 294.80 1002.11 293.40 C 992.13 291.67 981.82 294.08 971.95 291.54 C 965.07 289.97 957.93 291.39 951.01 290.07 C 946.45 289.10 941.36 292.13 937.20 290.11 L 937.68 288.78 C 940.51 288.30 943.39 288.11 946.23 287.62 C 942.56 287.31 938.90 286.92 935.24 286.54 C 935.98 287.37 936.71 288.19 937.48 289.03 C 921.92 289.14 906.62 292.89 891.05 292.35 C 887.58 292.12 883.81 292.19 880.90 290.03 C 879.00 288.49 876.45 289.05 874.28 288.28 C 878.68 288.35 883.13 287.55 887.50 288.36 C 895.08 287.09 902.72 286.78 910.40 286.58 C 913.66 284.85 917.50 285.87 921.03 285.52 C 915.14 285.33 909.16 285.83 903.38 284.47 C 899.41 283.82 895.27 284.56 891.40 283.42 C 890.36 283.02 889.35 282.60 888.36 282.16 C 884.16 282.28 879.97 282.01 875.78 282.00 C 877.86 280.09 878.16 277.42 878.00 274.75 C 876.61 273.07 875.08 271.47 873.02 270.66 C 873.25 270.03 873.73 268.76 873.97 268.13 C 876.47 268.23 878.97 268.40 881.48 268.67 C 876.83 261.15 874.11 252.67 870.22 244.78 C 866.74 238.17 861.59 232.72 856.76 227.12 C 851.11 222.14 843.00 222.83 836.00 222.94 C 829.11 223.29 821.27 225.07 817.23 231.20 C 815.10 234.81 813.23 238.56 810.97 242.09 C 807.53 247.55 807.80 254.29 805.36 260.12 C 804.26 262.83 803.07 265.50 802.03 268.23 C 807.23 267.50 812.48 267.17 817.74 267.26 C 821.65 270.76 827.42 267.88 832.08 269.43 C 830.57 269.90 829.06 270.31 827.57 270.78 C 824.05 271.50 820.60 272.48 817.14 273.40 C 817.11 273.93 817.04 275.00 817.01 275.54 C 817.93 276.28 818.87 277.02 819.80 277.77 C 816.62 277.92 811.19 278.57 811.93 283.01 C 805.17 282.98 798.40 283.03 791.66 283.45 C 789.84 284.09 787.89 284.01 786.01 284.03 C 771.22 284.07 756.41 283.27 741.65 284.43 C 738.35 285.41 734.66 285.49 731.37 284.44 C 718.77 283.49 706.09 284.63 693.53 283.64 C 685.18 284.44 676.75 283.95 668.38 284.08 C 667.52 283.13 667.45 280.98 665.91 280.93 C 657.27 280.27 648.61 280.00 639.96 279.50 C 645.64 279.12 651.35 279.15 657.04 279.06 C 659.55 278.98 662.20 279.30 664.52 278.11 C 670.48 277.76 676.48 278.36 682.42 277.56 C 686.31 276.01 690.87 278.18 694.58 276.11 C 697.38 275.80 700.51 276.61 702.98 274.89 C 708.42 271.49 710.29 265.03 712.65 259.44 C 713.88 252.96 714.66 246.34 716.87 240.07 C 718.29 235.53 721.16 231.56 722.22 226.88 C 723.84 220.16 725.41 213.35 728.45 207.10 C 731.93 200.43 734.01 193.15 737.65 186.55 C 741.42 177.91 745.26 169.28 748.68 160.48 C 752.95 152.21 757.56 143.86 764.43 137.41 C 770.30 131.55 777.78 127.78 784.88 123.65 C 793.06 118.95 802.83 119.31 811.61 116.38 C 819.02 113.64 826.92 112.86 834.49 110.71 M 824.13 128.69 C 816.53 129.46 809.36 132.32 801.81 133.33 C 795.54 133.80 791.00 138.58 786.42 142.34 C 778.45 149.43 770.22 156.87 765.75 166.77 C 762.47 173.07 760.75 180.01 757.74 186.44 C 755.05 192.27 753.60 198.56 751.46 204.59 C 749.04 211.14 748.87 218.38 745.36 224.53 C 741.09 232.45 737.91 240.90 733.76 248.87 C 729.22 255.45 727.28 263.26 724.49 270.64 C 733.64 271.79 743.05 271.78 752.09 269.78 C 759.04 269.41 766.02 269.52 772.97 269.74 C 778.31 269.79 783.50 273.16 788.78 270.89 C 787.02 262.68 792.86 255.80 793.84 247.95 C 795.06 239.18 800.60 232.10 804.52 224.43 C 810.21 214.59 821.59 209.67 832.55 208.83 C 841.75 208.56 851.47 207.85 859.95 212.16 C 866.67 215.06 870.49 221.55 875.30 226.69 C 882.06 234.71 885.78 244.58 889.88 254.09 C 892.41 260.07 896.25 265.34 899.22 271.10 C 907.42 270.21 915.84 271.71 923.87 269.34 C 930.44 267.48 937.35 268.89 944.03 267.83 C 947.92 267.18 951.87 267.11 955.82 267.11 C 955.82 263.76 955.86 260.40 955.33 257.08 C 954.79 252.97 952.65 249.33 951.57 245.37 C 950.86 245.93 952.00 247.85 951.85 248.75 C 952.37 253.84 948.74 258.82 943.97 260.41 C 938.81 262.08 933.30 261.35 927.98 261.85 C 922.87 262.26 917.64 259.61 915.37 254.95 C 912.25 250.51 909.53 244.56 912.61 239.37 C 914.23 235.70 918.88 235.15 920.78 231.74 C 923.26 227.52 928.11 224.88 933.01 225.26 C 938.55 225.31 943.32 229.11 945.88 233.82 C 942.67 227.44 939.16 221.22 935.96 214.83 C 931.35 205.72 924.53 197.99 919.56 189.09 C 915.52 181.77 909.92 175.43 906.21 167.91 C 903.38 162.27 900.13 156.81 896.22 151.84 C 888.19 141.72 879.23 132.02 867.98 125.46 C 864.25 123.60 859.97 124.75 856.00 124.57 C 845.21 124.32 834.79 127.60 824.13 128.69 M 931.14 286.38 C 930.63 288.00 931.20 288.54 932.85 288.00 C 933.32 286.38 932.75 285.84 931.14 286.38 Z" />
<path fill="#e1c25e" opacity="1.00" d=" M 129.67 116.53 C 134.27 113.80 139.78 113.42 145.00 113.52 C 149.46 113.61 153.93 113.29 158.36 113.80 C 165.72 115.24 173.64 115.52 179.97 120.02 C 184.72 123.47 190.10 125.90 195.01 129.05 C 199.64 133.47 204.21 137.95 208.87 142.33 C 214.58 149.34 221.36 155.93 224.16 164.78 C 228.49 178.68 231.64 193.28 230.06 207.91 C 229.03 221.19 224.81 233.98 219.43 246.09 C 216.46 252.90 211.86 258.82 208.28 265.30 C 207.61 267.21 207.79 269.29 207.53 271.28 C 207.21 271.50 206.57 271.95 206.25 272.18 C 217.43 274.31 228.89 272.15 240.14 273.42 C 238.36 273.95 236.51 274.01 234.68 274.08 C 233.48 275.37 231.84 276.52 232.02 278.56 C 243.03 279.38 254.06 279.08 265.08 279.51 C 253.05 279.73 241.05 280.83 229.02 280.91 C 224.49 280.86 219.95 281.03 215.44 281.57 C 215.07 282.24 214.33 283.58 213.95 284.25 C 213.65 283.01 213.38 281.76 213.16 280.52 C 205.54 279.83 197.70 277.36 190.13 279.65 C 183.90 281.32 177.40 280.54 171.03 280.81 C 167.02 281.02 163.04 280.54 159.07 280.14 C 151.07 280.74 143.03 281.86 135.18 283.15 C 135.18 283.37 135.16 283.81 135.16 284.04 C 142.70 285.51 150.37 286.12 158.02 286.66 C 159.41 285.49 161.17 284.98 162.97 285.12 C 170.06 285.21 177.00 286.99 184.06 287.48 C 194.50 288.71 205.04 288.51 215.54 288.55 L 215.39 287.50 C 217.53 287.34 219.67 287.17 221.81 287.03 C 227.54 286.59 233.30 286.84 239.04 287.04 C 236.91 287.64 234.78 288.22 232.65 288.82 C 235.81 288.74 238.97 288.62 242.12 288.41 C 259.43 288.05 276.75 288.28 294.06 288.46 C 287.00 289.38 279.92 290.31 272.97 291.90 C 268.33 293.18 263.48 292.94 258.74 293.55 C 266.15 294.02 273.56 294.21 280.99 294.21 C 286.03 294.11 291.21 295.14 296.13 293.57 C 307.09 292.40 318.04 294.90 329.02 294.39 C 337.10 294.09 345.11 295.44 353.18 295.62 C 349.64 296.47 345.99 296.35 342.42 296.93 C 346.36 299.42 351.59 298.12 356.00 299.50 L 354.76 299.58 C 347.16 299.81 339.54 299.45 331.97 300.16 C 326.97 300.54 321.99 299.83 317.01 299.82 C 311.58 299.72 306.46 302.10 301.01 301.76 C 275.39 301.66 249.52 299.68 224.15 304.38 C 221.25 304.64 216.89 306.14 215.09 302.95 C 213.66 301.29 215.45 299.26 215.85 297.60 C 210.37 297.79 204.86 297.82 199.43 298.73 C 201.55 300.61 204.59 300.08 207.18 300.54 C 204.20 300.66 201.20 300.38 198.26 300.95 C 198.45 300.34 198.84 299.11 199.03 298.50 C 197.44 298.46 195.86 298.43 194.27 298.38 C 194.84 298.90 195.99 299.93 196.56 300.44 C 191.98 301.16 187.24 300.58 182.75 301.78 C 182.27 301.93 181.30 302.23 180.82 302.37 C 180.27 302.02 179.19 301.32 178.65 300.97 C 173.70 302.55 168.50 302.10 163.40 302.55 C 150.93 301.70 138.10 304.05 125.94 300.29 C 121.78 299.05 117.37 298.65 113.39 296.83 L 114.49 295.58 C 122.56 293.68 129.98 298.82 138.01 298.38 C 146.71 298.22 155.39 299.83 164.08 298.80 C 171.21 297.99 178.47 298.97 185.50 297.22 C 173.67 296.30 161.79 296.90 149.99 297.86 C 147.23 298.14 144.47 297.86 141.79 297.17 C 156.11 294.93 170.63 293.39 185.12 294.67 C 182.15 294.10 179.10 294.03 176.11 293.61 C 171.14 293.04 166.12 291.65 161.11 292.56 C 150.45 294.43 139.55 294.81 128.79 293.69 C 124.90 292.83 120.92 293.69 116.99 293.39 C 112.30 293.03 107.60 292.81 102.91 292.63 C 92.23 291.66 81.66 289.72 70.97 288.80 C 56.97 288.50 42.82 287.39 29.02 290.42 C 43.57 286.13 58.93 286.07 73.96 286.45 C 87.66 287.59 101.23 290.01 114.97 290.71 C 118.67 290.72 123.75 293.02 126.23 289.15 C 127.72 287.17 126.71 284.46 126.42 282.26 C 128.63 282.73 130.84 283.14 133.07 283.51 L 133.17 282.84 C 133.34 279.99 129.89 279.76 127.86 280.32 C 124.45 281.13 121.28 279.36 118.28 277.99 C 108.39 280.42 98.00 277.74 88.05 279.80 C 84.03 280.19 79.96 280.07 75.94 279.77 C 72.84 279.59 70.58 277.14 69.07 274.67 C 68.88 274.47 68.50 274.08 68.31 273.89 C 76.84 273.92 85.38 274.07 93.91 273.75 C 96.64 272.31 100.00 273.82 102.59 272.10 C 106.22 271.77 109.96 272.43 113.52 271.61 C 117.36 269.58 120.62 266.30 125.07 265.53 C 129.70 264.89 134.42 265.34 139.03 264.45 C 140.15 256.25 145.88 249.82 150.11 243.02 C 155.90 234.16 163.32 226.24 167.61 216.49 C 169.39 208.75 168.20 200.62 167.06 192.85 C 164.55 182.72 160.66 172.84 154.90 164.09 C 151.83 159.02 148.29 152.98 141.97 151.77 C 135.82 151.43 129.20 150.72 123.51 153.65 C 120.59 155.02 117.29 155.81 114.99 158.22 C 110.78 162.77 106.62 167.46 101.46 170.97 C 99.39 171.01 97.33 171.02 95.27 171.04 C 93.76 169.38 92.60 167.46 91.66 165.43 C 90.87 163.85 90.14 162.23 89.70 160.51 C 89.20 159.47 88.70 158.44 88.20 157.41 C 89.41 148.03 96.40 141.12 102.82 134.84 C 107.77 130.20 113.95 127.23 119.24 123.04 C 122.49 120.52 126.15 118.64 129.67 116.53 M 120.17 141.41 C 115.66 144.22 111.47 147.58 108.02 151.64 C 111.40 147.91 115.45 144.77 120.14 142.86 C 126.98 139.70 134.69 140.05 142.05 140.18 C 146.97 140.27 151.45 142.74 155.31 145.61 C 156.84 141.74 161.00 140.51 163.65 137.65 C 164.05 137.66 164.85 137.69 165.25 137.70 C 167.52 139.13 170.16 140.06 172.11 141.94 C 175.40 147.35 173.46 154.78 168.26 158.24 C 168.61 160.10 169.78 161.62 170.73 163.21 C 174.75 169.63 177.48 176.73 180.21 183.76 C 183.83 193.06 183.89 203.23 183.77 213.07 C 183.70 221.67 178.73 229.10 174.09 235.97 C 167.46 245.26 160.45 254.34 154.86 264.32 C 159.26 264.47 163.56 265.54 167.97 265.62 C 174.91 265.90 181.90 265.48 188.81 266.50 C 187.26 264.25 185.93 261.80 185.37 259.10 C 184.42 254.79 182.77 250.35 184.00 245.93 C 185.09 240.62 189.54 236.62 194.39 234.65 C 199.02 232.67 204.16 233.40 209.05 233.27 C 213.68 220.07 216.34 205.97 214.94 191.96 C 213.68 183.85 211.97 175.76 208.95 168.10 C 206.91 163.12 202.82 159.44 199.66 155.20 C 196.27 150.60 191.26 147.65 187.46 143.45 C 184.85 140.47 180.94 139.32 177.72 137.19 C 173.44 134.55 169.33 131.02 164.09 130.65 C 155.87 128.92 147.37 128.81 139.04 129.59 C 132.06 132.31 126.53 137.58 120.17 141.41 Z" />
<path fill="#e1c25e" opacity="1.00" d=" M 405.51 135.70 C 408.84 134.82 411.94 136.74 415.14 137.27 C 418.96 137.92 422.82 139.73 424.87 143.17 C 429.11 150.53 426.26 161.69 417.95 164.80 C 411.72 168.19 404.40 168.57 397.54 167.30 C 392.87 166.25 388.27 163.34 386.63 158.64 C 385.22 153.64 385.72 147.85 388.63 143.47 C 390.98 140.23 395.20 139.39 398.97 139.56 C 401.17 138.32 403.03 136.42 405.51 135.70 Z" />
<path fill="#e1c25e" opacity="1.00" d=" M 857.95 150.10 C 859.92 144.95 865.96 143.14 871.00 143.15 C 875.16 142.99 879.29 146.82 878.70 151.11 C 878.87 154.66 875.40 156.65 872.57 157.82 C 871.88 160.59 870.21 163.68 866.94 163.67 C 859.97 164.47 855.29 156.10 857.95 150.10 Z" />
<path fill="#e1c25e" opacity="1.00" d=" M 805.02 150.82 C 811.53 149.92 818.69 150.67 824.13 154.64 C 828.13 157.28 829.47 162.13 832.06 165.91 C 835.58 172.21 830.64 180.23 823.94 181.54 C 816.04 183.11 807.40 183.20 799.84 180.21 C 792.99 177.33 790.81 168.51 794.20 162.23 C 797.07 157.82 798.83 151.42 805.02 150.82 Z" />
<path fill="#e1c25e" opacity="1.00" d=" M 1146.78 155.62 C 1151.39 155.79 1156.32 158.21 1157.39 163.09 C 1158.21 168.52 1158.34 175.66 1152.98 178.89 C 1148.03 181.39 1140.84 179.40 1138.95 173.84 C 1136.93 167.16 1138.83 157.24 1146.78 155.62 Z" />
<path fill="#e1c25e" opacity="1.00" d=" M 191.58 167.42 C 194.16 165.27 198.27 164.70 200.99 166.90 C 205.73 170.24 202.79 176.59 203.39 181.36 L 202.88 181.53 C 199.64 186.65 192.72 185.56 188.15 183.06 C 186.30 182.00 185.48 179.96 184.49 178.19 C 184.58 173.44 188.44 170.42 191.58 167.42 Z" />
<path fill="#e1c25e" opacity="1.00" d=" M 467.46 176.18 L 467.65 175.47 C 469.93 175.35 472.21 175.33 474.49 175.41 L 474.41 176.73 L 475.73 176.49 C 475.63 176.97 475.45 177.92 475.35 178.40 L 476.55 178.49 C 476.50 179.14 476.39 180.46 476.34 181.12 C 475.87 182.16 475.43 183.21 475.01 184.28 C 474.40 184.36 473.18 184.52 472.57 184.60 L 472.52 185.47 C 471.77 185.46 470.26 185.44 469.51 185.43 L 469.38 184.27 C 468.92 184.39 468.01 184.63 467.56 184.75 L 467.57 183.94 C 465.64 181.91 465.86 178.35 467.46 176.18 Z" />
<path fill="#e1c25e" opacity="1.00" d=" M 501.85 177.90 C 508.13 177.38 512.48 184.48 510.03 190.05 C 508.12 196.05 499.34 197.71 495.38 192.83 C 490.42 187.65 495.02 178.32 501.85 177.90 Z" />
<path fill="#e1c25e" opacity="1.00" d=" M 1160.40 186.80 C 1162.52 185.13 1165.10 183.57 1167.93 184.45 C 1172.02 185.73 1171.73 192.46 1167.85 193.90 C 1165.11 195.35 1162.23 192.97 1160.55 190.96 C 1160.32 189.58 1160.40 188.18 1160.40 186.80 Z" />
<path fill="#e1c25e" opacity="1.00" d=" M 881.49 201.56 C 877.25 196.96 880.82 188.96 886.92 188.59 C 892.77 187.85 897.46 193.59 896.59 199.21 C 894.30 205.25 885.40 206.88 881.49 201.56 Z" />
<path fill="#e1c25e" opacity="1.00" d=" M 1119.19 190.60 C 1119.50 190.23 1120.12 189.48 1120.43 189.11 L 1120.52 188.41 C 1122.17 188.42 1123.84 188.44 1125.52 188.46 L 1125.42 189.68 L 1126.68 189.42 C 1126.67 189.78 1126.66 190.50 1126.66 190.86 C 1128.45 192.39 1126.38 194.61 1126.16 196.40 C 1123.87 196.27 1119.61 197.87 1119.26 194.51 L 1118.53 194.51 C 1118.53 193.51 1118.54 191.51 1118.54 190.51 L 1119.19 190.60 Z" />
<path fill="#e1c25e" opacity="1.00" d=" M 1219.54 198.45 C 1222.84 199.08 1226.20 199.27 1229.54 199.72 C 1233.19 200.45 1234.83 204.96 1233.02 208.05 C 1229.63 213.17 1221.50 211.94 1217.86 207.81 C 1215.39 204.82 1217.11 200.85 1219.54 198.45 Z" />
<path fill="#e1c25e" opacity="1.00" d=" M 1079.34 202.48 C 1084.03 200.81 1089.85 201.01 1094.03 203.93 C 1100.55 209.31 1097.81 220.16 1091.68 224.77 C 1085.58 229.57 1073.72 228.69 1071.62 220.08 C 1070.73 213.60 1073.11 205.57 1079.34 202.48 Z" />
<path fill="#e1c25e" opacity="1.00" d=" M 359.40 212.59 C 365.56 211.95 372.68 211.12 378.03 214.95 C 384.26 219.57 383.72 229.38 379.11 234.96 C 375.83 238.51 371.79 242.39 366.58 242.12 C 362.56 241.63 358.16 240.83 355.17 237.86 C 351.86 234.08 350.77 228.84 351.15 223.93 C 351.14 218.92 354.47 213.93 359.40 212.59 Z" />
<path fill="#e1c25e" opacity="1.00" d=" M 186.40 218.88 C 187.31 217.54 188.19 216.19 189.04 214.82 C 190.80 214.64 192.56 214.52 194.32 214.42 C 195.94 215.88 197.81 217.37 198.12 219.70 C 198.82 221.78 197.28 223.58 196.26 225.23 C 195.67 225.54 194.50 226.16 193.92 226.47 C 189.64 226.56 186.21 223.21 186.40 218.88 Z" />
<path fill="#e1c25e" opacity="1.00" d=" M 765.66 217.61 C 769.27 217.40 773.63 215.33 776.56 218.43 C 780.47 222.26 777.71 229.27 772.77 230.62 C 768.74 232.29 763.38 230.26 762.03 225.97 C 760.94 223.99 762.25 221.89 762.77 219.96 C 763.73 219.19 764.69 218.40 765.66 217.61 Z" />
<path fill="#e1c25e" opacity="1.00" d=" M 890.54 219.74 C 893.05 217.57 896.58 215.97 899.88 217.30 C 904.02 218.59 905.98 223.11 905.54 227.19 C 904.26 229.37 902.45 231.13 900.28 232.41 C 896.35 232.93 892.14 231.09 890.25 227.53 C 888.74 225.14 889.52 222.16 890.54 219.74 Z" />
<path fill="#e1c25e" opacity="1.00" d=" M 166.75 251.64 C 168.18 251.58 169.61 251.54 171.05 251.52 C 171.46 252.38 171.87 253.23 172.30 254.09 C 171.87 254.83 171.44 255.59 171.03 256.35 C 169.84 256.42 168.66 256.49 167.48 256.56 L 167.67 255.31 L 166.47 255.51 C 166.56 254.21 166.65 252.93 166.75 251.64 Z" />
<path fill="#e1c25e" opacity="1.00" d=" M 1378.91 265.00 C 1398.63 265.03 1418.34 264.94 1438.06 265.04 C 1457.43 266.73 1476.92 267.43 1496.23 269.98 C 1490.36 270.92 1484.20 271.51 1478.33 270.44 C 1449.22 269.54 1420.06 270.27 1390.93 269.97 C 1390.28 269.84 1388.98 269.57 1388.33 269.43 C 1380.17 269.11 1372.02 269.03 1363.87 268.99 L 1363.93 268.00 C 1367.73 267.98 1371.53 267.97 1375.34 267.79 C 1376.49 267.31 1377.69 266.95 1378.95 266.72 C 1378.94 266.29 1378.92 265.43 1378.91 265.00 Z" />
<path fill="#e1c25e" opacity="1.00" d=" M 1338.55 267.23 C 1339.58 266.43 1341.37 266.38 1342.47 267.17 C 1342.33 268.68 1338.64 268.73 1338.55 267.23 Z" />
<path fill="#e1c25e" opacity="1.00" d=" M 829.40 272.61 C 831.64 272.00 833.97 271.75 836.17 270.95 C 836.60 272.03 837.02 273.11 837.41 274.21 C 835.98 274.12 834.61 273.80 833.32 273.23 C 832.86 273.29 831.95 273.42 831.49 273.48 C 829.03 273.91 826.57 274.43 824.47 275.87 C 823.68 275.93 822.08 276.05 821.28 276.11 C 821.58 273.86 823.51 273.78 825.36 273.70 C 826.65 273.18 828.02 272.91 829.40 272.61 Z" />
<path fill="#e1c25e" opacity="1.00" d=" M 1363.08 274.27 C 1373.48 274.51 1383.92 273.73 1394.31 274.48 C 1383.94 275.41 1373.50 274.38 1363.11 274.82 L 1363.08 274.27 Z" />
<path fill="#e1c25e" opacity="1.00" d=" M 1047.25 276.07 C 1054.80 275.69 1062.37 276.00 1069.94 275.90 C 1075.27 276.02 1080.69 275.49 1085.94 276.71 C 1096.20 277.40 1106.55 276.26 1116.80 277.34 C 1111.24 278.02 1105.74 279.67 1100.10 279.11 C 1094.19 278.61 1088.15 279.76 1082.35 278.45 C 1073.11 277.48 1063.80 278.41 1054.54 277.88 C 1052.25 276.66 1049.38 277.61 1047.25 276.07 Z" />
<path fill="#e1c25e" opacity="1.00" d=" M 1026.58 277.11 C 1030.55 277.10 1034.66 276.40 1038.55 277.53 C 1041.48 278.26 1043.96 280.30 1046.91 280.88 C 1063.06 281.28 1079.23 280.53 1095.37 281.28 C 1090.04 282.99 1084.59 284.55 1078.96 284.72 C 1070.15 285.36 1061.53 281.98 1052.71 283.40 C 1055.82 285.16 1059.58 284.01 1062.96 284.67 C 1071.11 285.81 1079.36 285.79 1087.56 285.36 C 1095.34 284.95 1103.21 285.82 1110.92 284.36 C 1113.33 283.95 1115.73 283.44 1118.17 283.11 C 1121.91 285.15 1125.84 282.04 1129.81 283.15 C 1128.87 284.05 1128.17 285.22 1127.03 285.86 C 1123.58 286.20 1120.11 285.91 1116.66 286.19 C 1113.18 287.99 1109.04 286.26 1105.39 287.51 C 1101.80 288.70 1097.70 287.09 1094.34 289.05 C 1093.31 288.87 1092.31 288.66 1091.33 288.40 C 1090.10 288.37 1088.88 288.37 1087.68 288.40 C 1085.88 289.13 1083.92 289.00 1082.04 289.03 C 1071.47 288.99 1060.89 289.03 1050.32 289.01 C 1049.88 288.51 1049.01 287.53 1048.58 287.04 C 1046.90 287.01 1045.23 286.97 1043.58 286.87 C 1041.89 286.16 1040.08 285.84 1038.37 285.25 C 1036.34 284.99 1034.18 285.27 1032.35 284.22 C 1030.09 284.02 1027.80 284.10 1025.62 283.51 C 1020.28 282.22 1014.70 283.78 1009.37 282.53 C 1007.14 282.29 1004.88 282.17 1002.81 281.29 C 1005.30 280.93 1007.83 280.98 1010.34 280.79 C 1012.18 279.69 1014.37 280.01 1016.42 279.80 C 1017.76 279.21 1019.15 278.72 1020.52 278.13 C 1022.54 277.90 1024.79 278.35 1026.58 277.11 Z" />
<path fill="#e1c25e" opacity="1.00" d=" M 1143.64 278.64 C 1145.16 278.51 1146.67 278.43 1148.23 278.33 C 1147.50 279.30 1146.79 280.28 1146.10 281.26 C 1145.09 281.85 1144.08 282.43 1143.11 283.04 C 1141.78 283.21 1140.48 283.38 1139.19 283.58 C 1139.74 283.28 1140.84 282.68 1141.40 282.38 C 1143.72 282.29 1145.12 280.35 1146.68 278.90 C 1145.92 278.84 1144.40 278.70 1143.64 278.64 Z" />
<path fill="#e1c25e" opacity="1.00" d=" M 829.54 280.66 C 833.25 279.78 837.27 279.31 841.11 279.71 C 841.10 280.54 841.10 282.20 841.10 283.03 C 835.37 282.83 829.59 283.48 823.91 282.61 C 825.79 282.00 827.72 281.46 829.54 280.66 Z" />
<path fill="#e1c25e" opacity="1.00" d=" M 1147.95 284.01 C 1150.37 281.77 1153.83 281.99 1156.91 281.75 C 1167.27 281.32 1177.64 281.58 1188.00 281.31 C 1198.02 281.03 1208.06 280.93 1218.06 281.81 C 1225.15 282.57 1232.32 282.04 1239.41 282.89 C 1243.57 283.45 1247.78 283.28 1251.98 283.30 C 1259.35 283.11 1266.82 284.32 1274.09 282.54 C 1286.94 279.89 1300.04 281.88 1313.02 281.78 C 1324.08 281.13 1335.18 281.57 1346.19 282.74 C 1356.42 284.30 1366.80 283.23 1377.08 284.18 C 1386.40 284.10 1395.64 285.76 1404.97 285.48 C 1408.00 285.33 1411.04 285.28 1414.09 285.48 C 1403.33 285.86 1392.59 286.73 1381.94 288.30 C 1377.31 288.77 1372.65 288.87 1368.01 288.84 C 1356.68 289.69 1345.34 288.00 1334.00 288.68 C 1326.91 288.72 1320.04 290.53 1313.08 291.56 C 1303.09 292.49 1293.07 291.41 1283.09 290.90 C 1275.29 290.60 1267.68 288.68 1259.98 287.61 C 1253.34 287.12 1246.65 287.31 1240.02 287.86 C 1231.69 288.96 1223.26 288.31 1214.92 289.26 C 1201.94 290.11 1189.01 291.85 1175.98 291.56 C 1168.57 291.38 1161.10 291.97 1153.76 290.76 C 1159.31 289.74 1164.93 289.66 1170.56 289.73 C 1168.22 288.95 1165.70 289.17 1163.36 288.47 C 1160.02 288.15 1156.63 288.29 1153.37 287.49 C 1151.36 287.21 1149.34 286.98 1147.35 286.76 C 1147.54 285.84 1147.74 284.93 1147.95 284.01 Z" />
<path fill="#e1c25e" opacity="1.00" d=" M 10.61 284.30 C 27.05 284.45 43.50 284.06 59.94 284.46 C 45.03 285.27 30.07 284.53 15.14 284.93 C 15.31 285.45 15.66 286.47 15.83 286.98 C 13.88 286.52 11.53 286.44 10.61 284.30 Z" />
<path fill="#e1c25e" opacity="1.00" d=" M 800.33 286.55 C 803.67 285.52 807.22 286.08 810.67 286.02 C 812.21 287.31 813.86 288.47 815.47 289.68 C 804.98 289.77 794.55 288.46 784.05 288.78 C 776.02 289.03 767.89 288.08 759.96 289.68 C 754.36 290.71 748.65 290.20 743.00 290.32 C 730.99 290.01 718.89 291.09 706.95 289.43 C 714.39 288.71 721.87 288.78 729.33 288.58 C 731.12 287.88 733.06 287.96 734.96 287.95 C 748.09 287.98 761.22 288.12 774.34 287.58 C 782.87 286.16 791.70 287.54 800.33 286.55 Z" />
<path fill="#e1c25e" opacity="1.00" d=" M 690.83 287.44 C 698.53 286.43 706.42 286.99 714.17 287.53 C 710.31 287.66 706.48 288.00 702.66 288.46 C 701.65 288.69 700.65 288.87 699.65 289.03 C 696.96 287.43 693.67 288.52 690.83 287.44 Z" />
<path fill="#e1c25e" opacity="1.00" d=" M 695.18 294.67 C 691.11 293.82 686.57 293.21 683.89 289.66 C 687.54 290.30 691.27 289.90 694.97 289.96 C 695.01 290.47 695.10 291.49 695.15 292.00 C 708.08 291.93 721.02 291.87 733.96 291.91 C 739.47 292.01 745.00 291.24 750.50 291.98 C 743.48 293.76 736.23 294.93 728.97 294.60 C 724.96 294.45 720.94 294.60 717.04 295.53 C 733.71 295.15 750.40 295.06 767.09 295.18 C 775.24 294.99 782.85 298.80 791.01 298.60 C 801.32 298.44 811.61 299.00 821.91 299.42 C 827.82 299.92 833.69 300.98 839.36 302.71 C 823.40 308.26 806.40 305.48 789.91 305.80 C 784.19 305.85 778.69 304.01 773.03 303.54 C 746.03 302.83 718.43 306.07 691.98 299.04 C 689.22 298.31 686.12 298.11 683.95 296.03 C 687.12 293.33 691.42 294.83 695.18 294.67 Z" />
<path fill="#e1c25e" opacity="1.00" d=" M 405.58 290.47 C 410.17 289.95 414.47 291.96 418.99 292.35 C 426.42 293.25 433.89 292.35 441.33 292.10 C 445.57 294.19 450.60 291.94 454.99 293.63 C 456.27 293.23 457.58 292.94 458.94 292.98 C 466.30 292.98 473.66 293.01 481.02 292.95 C 483.24 292.98 485.53 292.78 487.66 293.57 C 491.54 293.75 495.44 293.75 499.33 293.58 C 507.10 292.22 515.14 293.33 523.02 292.97 C 528.44 292.55 533.61 294.31 538.91 295.10 C 535.18 295.89 531.46 296.73 527.71 297.42 C 541.54 298.68 555.29 295.99 569.11 296.33 C 573.83 296.18 577.58 299.64 582.12 300.36 C 590.33 302.00 598.76 301.19 607.06 301.84 C 619.15 302.74 631.28 302.72 643.39 302.86 C 639.38 304.01 635.16 303.77 631.04 303.80 C 624.08 303.84 617.12 303.68 610.18 303.11 C 600.66 302.29 590.99 303.26 581.57 301.37 C 578.25 300.70 575.34 298.88 572.16 297.83 C 564.39 297.24 556.76 299.55 549.01 299.73 C 537.81 300.89 526.54 300.05 515.31 300.45 C 505.56 301.15 495.79 300.82 486.04 300.89 C 475.67 300.85 465.30 300.98 454.95 300.41 C 448.57 300.25 442.33 302.13 435.94 301.92 C 429.04 301.75 422.00 302.44 415.24 300.79 C 413.21 300.31 411.21 299.78 409.19 299.29 C 407.01 298.98 405.05 298.10 403.45 296.60 C 403.45 295.25 403.45 293.90 403.48 292.55 C 404.18 291.86 404.88 291.16 405.58 290.47 Z" />
<path fill="#e1c25e" opacity="1.00" d=" M 1145.99 293.52 C 1152.31 292.93 1158.68 293.60 1164.99 292.84 C 1174.37 292.02 1183.87 292.28 1193.08 294.36 C 1201.39 296.31 1210.10 295.36 1218.38 297.30 C 1210.31 298.82 1201.92 299.40 1193.83 297.63 C 1178.10 294.43 1161.97 294.20 1145.99 293.52 Z" />
<path fill="#e1c25e" opacity="1.00" d=" M 866.13 302.86 C 864.32 299.59 867.57 295.83 870.84 295.36 C 885.54 292.68 900.36 295.73 915.01 297.15 C 926.41 296.67 937.91 295.51 949.26 297.44 C 932.79 301.54 915.85 302.83 899.11 305.34 C 890.75 306.26 882.32 306.34 873.93 306.20 C 871.11 306.04 867.49 305.81 866.13 302.86 Z" />
<path fill="#e1c25e" opacity="1.00" d=" M 986.86 297.53 C 992.58 297.08 998.35 297.07 1004.08 297.49 C 998.35 297.92 992.59 297.79 986.86 297.53 Z" />
<path fill="#e1c25e" opacity="1.00" d=" M 1170.57 305.79 C 1172.95 305.19 1175.44 305.43 1177.89 305.35 C 1172.99 310.73 1167.77 315.94 1161.52 319.75 C 1155.03 323.39 1147.36 323.32 1140.32 325.09 C 1136.82 327.38 1133.91 330.53 1130.12 332.39 C 1122.95 336.02 1115.16 339.33 1106.95 338.83 C 1103.31 338.64 1098.95 338.71 1096.31 335.77 C 1094.55 333.96 1095.30 331.19 1096.21 329.17 C 1094.78 326.40 1091.43 325.75 1088.61 325.53 C 1080.53 325.09 1072.26 326.60 1064.33 324.42 C 1062.82 323.97 1062.22 322.34 1061.41 321.18 C 1061.89 320.06 1062.38 318.94 1062.88 317.82 C 1070.08 314.72 1078.57 314.91 1085.93 317.41 C 1091.51 319.88 1097.35 323.18 1100.19 328.85 C 1110.48 329.05 1120.11 325.25 1130.02 323.10 C 1133.08 322.62 1135.25 320.29 1137.86 318.84 C 1143.87 316.83 1150.39 316.89 1156.37 314.72 C 1161.73 312.76 1165.20 307.70 1170.57 305.79 Z" />
<path fill="#e1c25e" opacity="1.00" d=" M 589.05 306.28 C 602.30 306.26 615.63 306.24 628.75 308.29 C 610.93 310.81 592.89 310.33 574.95 310.73 C 552.61 311.60 530.25 312.53 508.02 315.10 C 504.94 315.32 501.52 316.12 498.86 314.08 C 499.51 313.47 500.82 312.24 501.48 311.63 C 483.35 311.86 465.19 311.09 447.09 312.33 C 437.79 312.68 428.48 312.47 419.17 312.47 C 419.22 312.01 419.32 311.09 419.36 310.63 C 431.90 310.49 444.42 309.95 456.90 308.77 C 468.91 308.03 480.95 308.24 492.98 308.24 C 501.02 308.05 508.99 309.24 516.97 310.13 C 540.90 307.59 564.98 306.59 589.05 306.28 Z" />
<path fill="#e1c25e" opacity="1.00" d=" M 80.91 308.57 C 84.54 307.65 88.26 307.15 92.00 307.20 C 100.32 307.19 108.65 306.95 116.95 307.62 C 137.15 310.20 157.59 313.06 177.97 311.19 C 175.11 313.62 171.39 312.01 168.05 312.36 C 158.34 312.72 148.62 312.99 138.91 312.64 C 128.23 312.06 117.75 309.57 107.04 309.26 C 98.36 308.24 89.62 309.14 80.91 308.57 Z" />
<path fill="#e1c25e" opacity="1.00" d=" M 956.01 319.63 C 962.70 319.02 969.45 319.34 976.13 318.49 C 971.86 323.81 966.84 329.11 960.02 330.92 C 951.25 333.29 941.80 332.51 933.17 329.92 C 931.12 334.61 925.80 336.67 920.96 336.46 C 915.67 336.63 910.42 335.24 905.99 332.34 C 913.91 332.40 923.09 334.42 929.87 329.19 C 929.63 327.24 928.47 324.07 931.11 323.28 C 938.89 319.68 947.65 320.18 956.01 319.63 Z" />
<path fill="#e1c25e" opacity="1.00" d=" M 76.79 329.30 C 75.59 327.77 75.46 325.91 76.53 324.26 C 82.72 324.00 88.85 325.20 95.03 325.31 C 99.70 325.41 104.35 325.72 108.99 326.22 C 115.92 326.76 123.26 327.43 129.03 331.71 C 142.83 334.76 157.09 334.12 171.03 336.17 C 180.90 336.96 190.49 339.47 200.13 341.61 C 185.98 344.74 171.44 346.11 156.96 345.10 C 145.90 344.45 134.63 344.08 123.93 340.98 C 120.55 340.12 119.05 336.76 118.51 333.62 C 104.71 331.24 90.64 331.27 76.79 329.30 Z" />
<path fill="#e1c25e" opacity="1.00" d=" M 316.48 328.23 C 319.49 328.12 322.44 326.26 325.42 327.51 C 327.68 328.19 330.08 327.95 332.42 328.12 C 335.67 329.89 339.60 328.61 343.12 329.35 C 342.06 329.69 340.99 330.03 339.89 330.18 C 329.64 331.32 319.30 331.41 309.01 330.83 L 309.01 330.29 C 310.52 330.08 312.06 329.94 313.49 329.38 C 314.49 329.01 315.49 328.63 316.48 328.23 Z" />
<path fill="#e1c25e" opacity="1.00" d=" M 713.94 332.00 C 717.69 331.39 720.91 328.75 724.81 328.93 C 728.51 329.12 732.22 329.19 735.90 329.67 C 744.24 330.96 751.86 334.92 760.14 336.48 C 755.41 337.26 750.64 337.62 745.90 338.20 C 739.53 338.83 733.05 338.49 726.77 339.82 C 723.53 341.17 720.42 342.96 716.88 343.45 C 705.04 345.49 692.96 346.20 680.96 345.49 C 677.98 345.30 674.83 345.84 672.13 344.24 C 672.30 343.44 672.64 341.82 672.81 341.01 C 678.06 337.88 683.87 335.56 689.99 334.87 C 697.97 333.89 706.03 333.51 713.94 332.00 Z" />
<path fill="#e1c25e" opacity="1.00" d=" M 350.41 330.02 C 351.29 330.08 353.05 330.20 353.93 330.26 C 356.34 332.84 359.31 335.08 362.98 335.34 C 369.65 335.88 376.34 336.27 383.03 336.30 C 391.04 336.33 399.17 338.00 407.08 336.09 C 411.98 334.87 416.90 333.72 421.79 332.46 C 421.76 332.65 421.68 333.03 421.65 333.22 C 415.34 334.08 409.37 336.51 403.09 337.47 C 390.06 338.33 376.98 339.36 363.92 338.54 C 358.32 338.16 352.93 335.16 350.41 330.02 Z" />
<path fill="#e1c25e" opacity="1.00" d=" M 551.86 341.14 C 565.63 341.73 580.14 340.48 592.23 333.29 C 589.08 339.06 582.60 341.40 576.60 342.91 C 568.56 345.15 560.15 344.64 551.92 344.47 C 548.89 344.55 546.59 342.46 544.09 341.12 C 540.40 342.04 536.94 344.09 533.01 343.82 C 527.26 343.68 521.53 344.14 515.79 344.05 C 521.39 342.62 527.26 343.59 532.90 342.45 C 536.33 341.88 539.38 340.14 542.57 338.87 C 545.95 337.07 548.47 341.21 551.86 341.14 Z" />
</g>
<g id="#9a895b40">
<path fill="#e1c25e" opacity="" d=" M 753.13 246.12 C 756.42 246.45 751.43 249.01 753.13 246.12 Z" />
<path fill="#e1c25e" opacity="" d=" M 221.81 287.03 C 227.52 286.78 233.50 284.88 239.06 286.86 C 240.34 286.67 241.62 286.45 242.90 286.19 C 241.76 286.75 240.64 287.35 239.53 287.97 L 242.12 288.41 C 238.97 288.62 235.81 288.74 232.65 288.82 C 234.78 288.22 236.91 287.64 239.04 287.04 C 233.30 286.84 227.54 286.59 221.81 287.03 Z" />
<path fill="#e1c25e" opacity="" d=" M 931.14 286.38 C 932.75 285.84 933.32 286.38 932.85 288.00 C 931.20 288.54 930.63 288.00 931.14 286.38 Z" />
<path fill="#e1c25e" opacity="" d=" M 954.76 288.53 C 968.26 287.54 981.80 287.88 995.33 287.90 C 995.50 288.43 995.84 289.48 996.01 290.01 C 997.52 290.94 999.35 290.72 1001.06 290.81 C 998.86 290.72 996.68 290.80 994.50 290.72 C 991.62 289.98 988.63 290.02 985.70 289.77 C 975.51 288.02 965.04 289.73 954.76 288.53 Z" />
<path fill="#e1c25e" opacity="" d=" M 102.91 292.63 C 107.60 292.81 112.30 293.03 116.99 293.39 C 120.92 293.69 124.90 292.83 128.79 293.69 C 125.98 293.99 123.14 294.03 120.31 293.92 L 120.21 294.92 C 123.88 295.50 127.46 296.50 131.09 297.30 C 134.62 298.14 138.23 297.26 141.79 297.17 C 144.47 297.86 147.23 298.14 149.99 297.86 C 161.79 296.90 173.67 296.30 185.50 297.22 C 178.47 298.97 171.21 297.99 164.08 298.80 C 155.39 299.83 146.71 298.22 138.01 298.38 C 129.98 298.82 122.56 293.68 114.49 295.58 C 115.44 295.06 116.40 294.53 117.36 294.02 C 112.50 294.06 107.69 293.36 102.91 292.63 Z" />
<path fill="#e1c25e" opacity="" d=" M 194.27 298.38 C 195.86 298.43 197.44 298.46 199.03 298.50 C 198.84 299.11 198.45 300.34 198.26 300.95 C 193.08 301.13 187.92 302.00 182.75 301.78 C 187.24 300.58 191.98 301.16 196.56 300.44 C 195.99 299.93 194.84 298.90 194.27 298.38 Z" />
<path fill="#e1c25e" opacity="" d=" M 356.00 299.50 C 358.99 299.53 361.93 300.28 364.93 300.22 C 377.98 300.00 391.03 300.02 404.08 300.22 C 405.83 300.26 407.61 300.13 409.19 299.29 C 411.21 299.78 413.21 300.31 415.24 300.79 C 410.19 299.64 405.09 300.97 400.01 300.89 C 389.00 300.96 377.99 301.02 366.98 300.83 C 362.89 300.61 358.73 300.68 354.76 299.58 L 356.00 299.50 Z" />
</g>
</svg>
