<?xml version="1.0" encoding="UTF-8" ?>
<!DOCTYPE svg PUBLIC "-//W3C//DTD SVG 1.1//EN" "http://www.w3.org/Graphics/SVG/1.1/DTD/svg11.dtd">
<svg width="1497pt" height="707pt" viewBox="0 0 1497 707" version="1.1" xmlns="http://www.w3.org/2000/svg">
<g id="#e3ca87ff">
<path fill="#e1c25e" opacity="1.00" d=" M 1081.83 11.79 C 1085.12 10.94 1088.94 10.11 1092.03 12.05 C 1095.16 14.17 1095.07 18.56 1097.95 20.91 C 1101.73 24.30 1100.97 30.09 1099.58 34.45 C 1098.52 37.59 1100.07 40.81 1100.55 43.92 C 1103.21 55.73 1103.91 67.90 1103.41 79.96 C 1103.27 84.72 1100.27 88.59 1098.83 92.95 C 1098.45 98.27 1098.24 103.78 1099.90 108.92 C 1102.50 118.02 1104.24 127.41 1107.89 136.18 C 1109.16 139.35 1108.54 142.83 1108.99 146.14 C 1112.29 152.77 1119.34 157.09 1121.36 164.43 C 1123.54 171.48 1122.06 178.96 1123.43 186.14 C 1123.86 192.21 1126.92 197.86 1126.42 204.02 C 1124.98 217.96 1126.03 232.00 1125.84 245.99 C 1125.70 253.28 1126.24 260.62 1125.19 267.87 C 1124.52 273.89 1125.09 279.96 1124.82 286.00 C 1124.77 291.12 1121.49 296.10 1116.87 298.24 C 1112.21 299.33 1107.39 297.98 1102.67 298.55 C 1101.42 303.95 1102.01 309.54 1101.00 314.97 C 1100.11 320.12 1099.11 325.26 1098.08 330.38 C 1097.35 334.33 1091.17 334.99 1089.70 331.24 C 1085.83 321.31 1086.26 310.32 1087.36 299.91 C 1089.11 291.37 1088.05 282.62 1088.57 273.99 C 1089.19 265.85 1091.40 257.95 1092.52 249.89 C 1094.63 234.66 1093.85 219.12 1097.11 204.04 C 1098.71 193.03 1102.62 181.98 1100.40 170.77 C 1098.66 162.97 1092.22 157.59 1086.24 152.89 C 1081.37 149.20 1079.14 142.98 1079.28 137.01 C 1079.38 130.85 1078.90 124.64 1079.68 118.51 C 1081.07 111.80 1083.36 105.30 1085.67 98.85 C 1086.97 94.93 1089.97 91.40 1089.32 87.04 C 1089.44 75.75 1088.17 64.52 1088.05 53.23 C 1087.88 53.66 1087.53 54.52 1087.36 54.95 C 1078.66 64.38 1072.77 75.87 1065.19 86.12 C 1060.06 93.57 1057.10 102.34 1051.33 109.38 C 1044.49 117.45 1039.23 126.66 1033.01 135.19 C 1027.96 142.19 1027.02 151.10 1022.59 158.42 C 1020.48 164.82 1022.86 171.56 1024.27 177.86 C 1024.36 182.82 1026.35 187.36 1028.19 191.87 C 1029.72 197.85 1028.54 204.10 1027.69 210.11 C 1027.30 213.68 1025.00 216.60 1023.75 219.88 C 1021.70 224.94 1021.37 230.50 1019.24 235.52 C 1015.52 243.56 1010.24 250.81 1006.72 258.92 C 1006.30 265.79 1009.43 272.29 1012.71 278.16 C 1015.91 285.48 1019.74 292.50 1023.05 299.76 C 1025.64 305.06 1026.24 311.02 1028.40 316.47 C 1030.68 324.96 1034.65 332.84 1037.53 341.12 C 1038.90 345.97 1038.03 351.07 1038.28 356.03 C 1038.61 362.15 1036.08 367.94 1036.13 374.03 C 1036.11 379.22 1035.59 384.38 1035.42 389.56 C 1035.29 396.72 1031.82 403.21 1030.33 410.11 C 1031.70 411.69 1032.95 413.39 1033.79 415.33 C 1034.50 408.10 1040.99 403.89 1046.86 400.89 C 1050.21 399.43 1052.93 395.60 1056.97 396.52 C 1057.92 396.97 1058.64 397.80 1059.47 398.47 C 1059.50 399.10 1059.55 400.36 1059.58 400.99 C 1061.50 401.73 1063.42 402.49 1065.34 403.26 C 1069.05 397.14 1068.43 389.84 1069.55 383.06 C 1070.69 378.84 1073.45 375.30 1075.68 371.60 C 1078.60 367.61 1080.80 362.88 1085.14 360.18 C 1089.75 357.20 1090.99 351.35 1094.90 347.78 C 1098.89 344.97 1102.30 349.46 1105.56 351.20 C 1110.02 352.21 1114.86 351.05 1119.14 353.01 C 1124.01 355.37 1128.16 360.26 1127.65 365.96 C 1128.62 374.17 1124.66 382.00 1125.92 390.18 C 1127.10 393.61 1129.49 396.46 1131.81 399.19 C 1134.86 403.04 1140.71 399.61 1144.22 402.82 C 1149.39 406.89 1152.31 413.13 1157.10 417.56 C 1164.08 417.99 1171.37 420.16 1178.18 417.63 C 1181.52 416.81 1185.47 415.56 1188.62 417.65 C 1191.48 419.60 1192.10 423.27 1193.99 425.98 C 1195.97 428.78 1198.16 431.43 1200.23 434.18 C 1203.18 426.47 1205.02 418.24 1204.89 409.95 C 1205.03 404.01 1204.17 397.75 1206.53 392.12 C 1209.59 385.15 1214.75 378.97 1215.55 371.15 C 1216.73 366.98 1214.81 361.14 1219.33 358.59 C 1224.77 357.45 1230.60 358.83 1235.92 356.79 C 1238.73 355.57 1242.10 354.48 1243.58 351.55 C 1247.47 344.49 1252.56 337.80 1259.39 333.36 C 1262.34 331.20 1267.84 331.67 1268.65 335.84 C 1271.46 347.85 1273.62 360.31 1279.79 371.18 C 1283.06 376.75 1286.54 382.40 1287.66 388.88 C 1289.71 399.86 1289.98 411.08 1291.69 422.11 C 1293.05 431.10 1293.44 440.20 1293.21 449.28 C 1297.86 449.12 1302.52 449.21 1307.17 449.13 C 1311.97 443.22 1308.13 435.24 1309.63 428.47 C 1310.91 424.14 1315.13 421.64 1319.07 420.04 C 1322.73 418.66 1327.29 417.82 1330.67 420.38 C 1335.01 423.78 1337.37 429.01 1341.42 432.72 C 1346.01 437.11 1342.67 444.32 1345.59 449.45 C 1347.87 453.12 1349.22 457.46 1352.52 460.43 C 1355.75 463.43 1357.44 467.61 1359.20 471.57 C 1363.91 471.92 1368.65 471.48 1373.38 471.84 C 1375.89 472.00 1377.26 474.47 1379.43 475.29 C 1389.96 475.79 1400.75 474.50 1411.06 477.25 C 1421.21 479.65 1431.73 477.50 1441.97 479.04 C 1444.19 479.15 1446.02 480.45 1447.72 481.78 C 1445.33 486.46 1439.65 487.35 1434.92 487.44 C 1428.08 487.38 1421.21 487.78 1414.42 486.81 C 1412.46 486.57 1410.44 486.28 1408.54 486.90 C 1412.38 488.48 1416.62 488.04 1420.63 488.91 C 1416.28 490.16 1411.10 487.26 1406.88 490.01 C 1400.05 491.65 1392.85 490.50 1385.88 491.03 C 1380.90 491.35 1375.97 492.10 1371.02 492.62 C 1368.58 493.09 1367.02 491.01 1365.42 489.61 C 1348.17 489.81 1330.95 491.00 1313.69 490.76 C 1319.47 500.50 1317.20 512.25 1317.72 523.00 C 1317.37 528.08 1321.19 532.19 1325.13 534.83 C 1331.00 538.47 1337.85 540.06 1343.88 543.42 C 1350.51 547.05 1357.31 550.36 1363.95 553.99 C 1368.48 556.69 1373.27 559.34 1376.60 563.54 C 1379.91 567.89 1380.44 573.65 1383.62 578.08 C 1388.74 585.14 1391.92 593.35 1394.83 601.50 C 1396.72 606.93 1396.00 612.75 1396.58 618.33 C 1402.73 622.07 1408.27 626.74 1414.37 630.54 C 1417.81 629.49 1421.28 628.34 1424.94 628.37 C 1432.00 628.25 1439.14 628.01 1446.15 629.18 C 1448.83 629.53 1451.13 631.31 1453.90 631.37 C 1463.05 632.36 1472.29 633.71 1480.92 637.04 C 1483.24 637.84 1484.46 640.11 1484.69 642.45 C 1481.51 646.32 1476.08 644.74 1472.01 643.52 C 1463.23 640.82 1453.98 640.75 1445.04 638.99 C 1437.96 636.14 1430.16 637.32 1422.73 637.46 C 1422.99 640.33 1422.89 643.26 1421.61 645.92 C 1428.60 645.23 1435.80 647.10 1442.62 644.82 C 1444.40 644.05 1446.26 643.47 1448.22 643.24 C 1451.36 645.31 1451.44 650.05 1448.20 652.08 C 1443.11 655.23 1436.76 654.49 1431.04 654.94 C 1424.69 655.64 1418.31 656.42 1411.92 656.11 C 1408.01 655.49 1405.64 659.62 1401.72 659.52 C 1405.50 659.21 1409.47 659.70 1413.02 658.04 C 1416.16 656.30 1419.74 657.47 1422.98 658.29 C 1421.29 658.84 1419.62 659.37 1417.95 659.89 C 1414.45 664.62 1408.07 663.94 1402.96 665.18 C 1393.95 667.54 1384.58 667.76 1375.49 669.65 C 1365.82 671.53 1355.85 673.77 1346.05 671.48 C 1340.43 670.02 1334.66 670.27 1328.95 669.69 C 1336.18 670.25 1343.16 668.25 1349.92 665.91 C 1357.14 663.63 1364.69 662.69 1372.15 661.47 C 1365.53 661.89 1358.85 661.62 1352.42 659.91 C 1344.33 658.72 1336.08 660.14 1328.00 658.81 C 1314.78 656.21 1301.21 658.80 1287.93 656.80 C 1263.30 655.74 1238.67 657.47 1214.04 657.15 C 1192.33 657.32 1170.63 656.93 1148.93 656.89 C 1140.58 656.76 1132.07 657.89 1123.90 655.70 C 1122.27 655.36 1121.03 654.18 1119.70 653.32 C 1115.93 650.79 1111.67 648.86 1108.57 645.48 C 1105.27 641.83 1105.90 635.73 1109.41 632.45 C 1112.88 629.13 1117.02 626.51 1121.40 624.57 C 1128.65 621.98 1136.75 623.19 1143.85 619.98 C 1146.95 618.84 1148.97 615.95 1152.04 614.77 C 1154.38 614.31 1156.71 615.16 1159.04 615.49 C 1160.15 610.72 1161.94 606.18 1165.27 602.53 C 1165.55 598.20 1165.73 593.84 1166.74 589.60 C 1169.10 579.54 1168.10 569.15 1168.39 558.92 C 1168.48 550.29 1168.55 541.64 1168.86 533.02 C 1170.23 527.28 1174.14 522.49 1178.07 518.25 C 1164.07 519.62 1150.06 521.26 1135.97 520.74 C 1134.70 520.35 1132.36 521.46 1131.84 519.90 C 1130.95 517.73 1133.34 517.01 1135.05 517.36 C 1147.76 518.31 1160.39 516.31 1173.02 515.21 C 1178.68 514.31 1184.50 514.48 1190.07 512.95 C 1192.94 512.10 1194.46 509.20 1195.41 506.58 C 1197.68 499.80 1198.34 492.60 1198.46 485.49 C 1193.44 485.65 1188.51 486.54 1183.58 487.39 C 1187.79 483.94 1193.17 482.67 1198.49 482.34 C 1198.48 481.94 1198.45 481.13 1198.43 480.72 C 1192.94 481.10 1187.48 482.05 1181.97 481.81 C 1176.94 481.59 1172.02 482.91 1167.00 482.86 C 1161.30 482.85 1155.57 483.08 1149.92 482.32 C 1141.71 481.01 1133.35 482.39 1125.16 480.96 C 1111.15 480.13 1097.09 480.54 1083.06 480.45 C 1065.73 480.36 1048.38 480.61 1031.06 480.33 C 1026.14 479.08 1021.12 478.52 1016.05 478.77 C 1010.14 479.01 1004.29 478.14 998.42 477.75 C 997.67 478.97 996.93 480.19 996.19 481.41 C 993.58 482.79 990.61 481.94 989.09 479.40 C 982.97 481.62 976.10 480.62 970.15 478.34 C 966.69 481.64 961.58 480.40 958.68 477.06 C 956.12 477.62 953.62 478.58 950.97 478.55 C 948.43 478.58 946.59 475.99 944.02 476.33 C 930.98 477.51 917.87 477.99 904.89 479.78 C 895.80 480.88 886.59 482.92 877.43 481.44 C 874.89 480.86 871.05 479.41 872.66 476.14 C 865.69 476.43 858.74 476.97 851.87 478.20 C 853.70 480.84 857.37 479.98 860.12 480.65 C 855.74 480.73 851.36 480.36 847.10 479.36 C 845.71 479.07 845.66 477.37 845.05 476.42 C 842.56 476.66 840.08 476.86 837.59 476.93 C 836.57 476.40 835.55 475.90 834.53 475.42 C 831.63 475.28 828.90 474.13 826.01 474.09 C 816.06 473.90 806.10 474.25 796.16 473.83 C 794.15 474.45 792.05 474.96 789.94 474.71 C 787.20 474.53 784.74 472.68 781.94 473.27 C 771.36 474.39 760.60 472.56 750.11 474.62 C 741.51 476.26 732.71 475.15 724.03 475.84 C 710.39 476.84 696.68 476.17 683.03 476.86 C 677.79 478.17 672.36 477.49 667.07 478.38 C 662.05 479.00 656.97 478.27 651.96 478.97 C 645.00 480.14 637.91 479.98 630.89 479.66 C 626.66 479.62 622.61 476.22 618.45 478.19 C 609.69 481.51 600.42 483.70 591.02 483.69 C 581.69 483.66 572.36 483.82 563.03 483.84 C 559.67 483.79 556.73 485.76 553.43 486.07 C 553.47 485.50 553.55 484.38 553.59 483.81 C 550.06 483.85 546.52 483.91 543.03 483.38 C 532.94 481.30 522.57 482.60 512.45 483.67 C 504.62 484.01 496.79 483.85 488.96 483.78 C 480.52 483.80 472.41 480.87 464.00 480.58 C 459.29 480.41 454.43 481.16 449.91 479.45 C 445.27 479.01 440.59 479.87 435.94 479.48 C 439.17 480.53 445.22 478.68 445.63 483.54 C 426.70 484.71 407.83 480.27 388.92 481.99 C 381.13 481.70 373.11 482.31 365.67 484.75 C 365.81 484.08 366.11 482.74 366.26 482.08 L 365.65 484.29 C 362.68 482.60 359.20 483.94 356.00 483.82 C 347.38 484.59 338.72 484.72 330.10 485.42 C 330.07 493.67 330.08 502.41 334.08 509.88 C 336.88 513.63 340.58 516.86 344.97 518.63 C 346.41 515.09 347.48 510.98 350.82 508.69 C 354.56 505.97 359.46 506.12 363.85 506.36 C 363.10 505.24 362.35 504.13 361.58 503.05 C 361.54 502.20 361.46 500.49 361.42 499.63 C 362.80 497.89 364.74 496.70 367.03 496.78 C 378.78 495.95 390.43 494.21 402.18 493.44 C 389.77 493.52 377.34 493.52 364.94 493.07 C 358.55 492.38 351.93 493.47 345.73 491.48 C 345.28 490.64 344.83 489.81 344.39 488.98 C 344.89 488.14 345.38 487.30 345.88 486.46 C 351.92 486.49 357.91 485.84 363.60 483.69 C 364.29 484.07 364.98 484.48 365.67 484.90 C 363.17 485.33 360.70 485.91 358.25 486.53 C 384.16 488.01 410.16 486.75 436.09 487.73 C 437.79 487.83 439.44 488.24 441.10 488.62 C 441.41 489.13 442.04 490.13 442.35 490.64 C 442.38 491.14 442.45 492.13 442.48 492.63 C 439.13 496.78 433.25 495.59 428.59 496.52 C 442.39 497.44 456.32 496.73 470.00 499.18 C 476.14 500.04 482.09 501.81 488.10 503.26 C 504.35 503.35 520.78 499.82 536.94 502.93 C 539.90 503.35 539.94 506.69 538.19 508.53 C 554.15 508.65 570.06 507.17 586.03 507.67 C 608.68 508.81 631.38 508.78 654.02 510.34 C 669.66 511.54 685.35 512.16 701.04 512.50 C 673.66 513.52 646.33 510.68 618.95 511.40 C 590.59 511.32 562.36 514.95 533.99 514.44 C 529.13 514.31 523.69 514.36 520.07 510.57 C 512.99 510.36 505.97 511.44 498.92 511.83 C 496.52 511.86 494.43 513.29 492.08 513.48 C 488.63 513.09 485.34 511.94 482.00 511.08 C 461.89 505.41 440.76 505.95 420.06 505.87 C 403.37 505.87 386.68 505.88 370.00 505.87 C 368.00 505.85 365.95 505.93 364.12 506.80 C 368.55 506.68 372.47 509.45 374.65 513.15 C 377.26 517.53 377.91 522.72 380.30 527.21 C 411.84 529.34 443.41 531.59 475.05 531.81 C 476.94 531.92 479.45 530.54 480.77 532.56 C 462.84 532.17 444.89 533.03 426.95 532.74 C 411.74 532.91 396.57 532.01 381.39 531.35 C 381.52 532.25 381.77 534.05 381.90 534.96 C 386.97 535.77 392.04 536.61 397.03 537.83 C 401.65 538.93 407.15 538.55 410.60 542.37 C 413.90 545.19 413.62 550.16 416.79 553.05 C 419.54 555.86 421.02 559.53 423.07 562.82 C 425.50 564.89 428.75 565.66 431.78 566.47 C 434.11 561.98 439.03 559.94 443.81 559.35 C 447.88 558.91 452.26 557.95 456.16 559.70 C 458.52 560.74 458.60 564.17 461.09 564.93 C 475.00 569.26 489.82 565.46 503.92 568.48 C 506.88 569.01 509.07 571.18 510.46 573.74 C 510.45 574.61 510.42 576.35 510.41 577.22 C 508.37 581.53 503.45 582.77 499.06 582.69 C 478.86 582.80 458.65 582.63 438.45 582.86 C 440.17 586.63 435.99 589.78 432.90 591.00 C 423.31 594.27 413.02 594.07 403.04 595.04 C 393.50 595.76 384.27 598.26 375.00 600.44 C 380.39 600.52 385.61 602.24 391.01 602.31 C 398.68 602.50 406.40 602.45 414.00 601.30 C 424.61 599.87 435.32 599.34 446.02 599.33 C 448.94 599.36 451.87 599.12 454.75 598.59 C 454.76 598.74 454.77 599.05 454.78 599.21 C 448.36 601.39 442.31 604.53 435.84 606.60 C 419.49 612.59 401.76 614.32 384.51 612.28 C 375.16 610.32 365.53 608.83 355.97 609.87 C 344.12 612.30 332.08 613.46 320.06 614.67 C 308.54 615.45 297.03 614.30 285.58 613.16 C 276.33 612.06 267.23 609.96 258.00 608.79 C 252.67 608.28 247.34 607.95 242.02 607.42 C 238.93 607.02 235.99 604.12 236.57 600.85 C 236.98 597.06 240.70 594.56 244.25 594.07 C 250.75 592.93 257.40 593.40 263.98 593.28 C 274.43 593.06 284.68 595.52 295.07 596.17 C 303.69 596.18 312.41 596.87 320.88 594.90 C 330.56 593.25 340.47 595.15 350.13 593.34 C 360.72 591.77 370.59 587.25 381.12 585.54 C 376.11 584.52 371.02 585.35 365.97 585.00 C 352.96 584.35 339.90 582.68 326.88 584.29 C 318.93 585.14 310.94 587.13 302.94 585.73 C 296.53 585.43 290.51 582.35 284.03 582.90 C 280.13 582.94 276.83 585.24 273.16 586.23 C 265.30 588.38 257.06 587.46 249.02 588.06 C 237.32 588.74 225.47 587.99 213.91 590.32 C 210.80 590.98 207.33 591.16 204.68 589.12 C 204.57 588.60 204.35 587.58 204.25 587.07 C 185.56 589.19 166.58 588.68 148.09 585.17 C 142.89 584.26 137.75 582.95 132.52 582.21 C 129.26 581.63 126.07 583.32 122.83 582.58 C 121.22 582.27 120.00 581.08 118.63 580.29 C 117.15 577.74 117.15 574.77 117.93 571.99 C 124.74 565.87 134.65 567.62 143.00 566.00 C 151.54 565.14 160.73 562.30 168.93 566.10 C 170.58 567.13 173.66 568.25 172.73 570.73 C 167.35 575.67 159.99 577.84 152.92 579.00 C 163.40 583.45 174.92 582.46 186.00 582.30 C 196.34 581.78 206.58 579.78 216.97 580.38 C 213.96 579.96 210.95 578.66 207.92 579.65 C 204.86 580.57 201.91 579.27 199.88 576.98 C 195.75 576.59 190.88 577.61 187.55 574.51 C 184.47 571.84 184.73 566.70 187.64 564.01 C 186.49 557.23 188.73 550.58 190.46 544.11 C 192.25 537.29 196.36 531.19 196.91 524.04 C 197.18 519.02 199.32 513.13 204.66 511.64 C 192.77 510.55 180.64 509.73 169.32 505.64 C 167.86 504.96 165.71 504.50 165.85 502.36 C 171.92 502.80 177.78 504.70 183.88 505.05 C 196.85 505.87 209.86 506.34 222.86 506.18 C 226.19 497.07 232.02 489.23 236.64 480.77 C 227.73 480.26 218.90 481.92 210.00 481.70 C 199.99 481.82 189.98 481.28 180.05 479.98 C 173.09 479.21 166.07 479.79 159.10 479.17 C 150.43 478.43 141.80 476.97 133.07 476.99 C 110.70 476.83 88.36 478.24 66.00 478.67 C 57.92 478.63 49.89 480.02 41.80 479.67 C 42.20 478.66 42.93 478.20 43.96 478.30 C 54.33 478.08 64.55 475.77 74.94 476.11 C 83.59 475.75 92.24 475.39 100.90 475.25 C 98.27 472.74 97.77 468.93 99.40 465.73 C 95.99 465.31 91.55 467.13 89.04 464.01 C 94.45 461.15 100.87 463.87 106.66 462.24 C 106.36 459.83 105.97 457.37 106.46 454.97 C 107.14 451.43 109.33 448.43 110.30 444.98 C 111.18 440.16 110.99 434.99 108.70 430.57 C 105.62 424.51 106.20 417.59 106.21 411.02 C 106.19 404.34 107.89 397.40 111.97 392.02 C 116.40 386.73 123.99 388.27 129.98 388.98 C 132.48 389.68 133.01 386.54 134.14 385.05 C 132.33 381.55 129.83 378.38 128.63 374.60 C 127.90 371.51 127.95 368.24 128.48 365.12 C 129.68 360.87 133.24 357.89 134.97 353.90 C 137.78 347.31 139.39 340.14 139.18 332.95 C 139.28 328.33 138.81 323.42 140.89 319.14 C 142.80 315.31 147.87 313.37 151.77 315.29 C 155.29 316.96 158.54 319.14 162.15 320.62 C 167.62 323.06 171.77 328.11 173.15 333.93 C 175.02 341.98 173.79 350.36 175.20 358.47 C 176.05 363.20 179.15 367.07 180.67 371.57 C 184.40 381.85 187.04 392.49 190.07 402.98 C 192.55 408.80 195.35 414.64 199.32 419.60 C 203.09 421.54 208.30 420.30 210.84 416.77 C 214.02 412.19 216.45 406.73 221.33 403.64 C 225.63 400.93 231.34 402.77 234.46 406.44 C 240.39 413.49 244.88 421.71 248.57 430.13 C 250.66 435.50 249.14 441.38 249.88 446.96 C 250.17 448.99 252.08 450.06 253.59 451.15 C 253.87 447.01 254.02 442.26 257.47 439.37 C 263.03 434.46 270.64 432.02 278.02 432.28 C 284.45 432.22 291.22 432.05 297.16 434.89 C 303.36 438.29 306.21 445.07 310.41 450.38 C 313.60 454.47 314.27 459.79 316.90 464.18 C 325.10 462.16 333.54 462.39 341.91 462.07 C 346.55 462.26 350.54 459.57 354.96 458.63 C 349.36 453.70 344.05 448.42 338.03 443.99 C 331.14 437.88 324.69 431.29 318.77 424.25 C 308.47 414.56 301.55 402.10 293.58 390.59 C 284.10 376.16 279.20 359.12 277.94 342.00 C 277.05 331.17 272.17 320.97 272.39 310.00 C 272.02 300.90 273.52 291.89 274.46 282.87 C 275.06 277.44 277.46 272.45 278.61 267.15 C 280.48 258.73 282.71 250.40 284.23 241.92 C 277.12 244.64 270.61 248.68 263.57 251.57 C 261.12 252.64 258.98 254.30 256.54 255.40 C 252.88 257.06 248.73 256.54 244.87 257.34 C 240.18 257.84 234.69 258.61 230.81 255.31 C 226.71 251.94 227.27 246.03 227.88 241.33 C 228.86 237.20 233.25 235.98 236.83 235.10 C 226.85 231.17 221.61 219.23 223.96 209.05 C 224.76 205.66 227.23 202.99 229.89 200.89 C 236.87 195.83 245.09 191.63 253.98 192.36 C 259.79 192.21 264.42 196.53 270.03 197.21 C 274.74 197.41 279.50 197.50 284.17 196.65 C 288.84 196.07 293.92 195.49 298.25 197.82 C 300.34 191.45 301.75 184.79 304.83 178.78 C 306.63 175.41 307.00 171.53 307.89 167.87 C 308.92 163.66 308.28 159.04 310.29 155.09 C 311.32 152.85 314.58 152.84 315.40 150.39 C 319.79 141.78 326.05 134.35 331.24 126.24 C 335.98 118.85 342.48 112.79 349.61 107.74 C 356.52 101.60 363.46 95.44 371.10 90.18 C 379.56 84.72 389.63 83.17 399.17 80.61 C 403.97 80.00 408.86 80.03 413.57 78.78 C 426.28 77.04 439.16 77.95 451.95 77.90 C 458.24 79.52 464.65 78.01 471.03 78.26 C 472.94 78.21 474.94 78.44 476.77 77.72 C 481.26 75.85 485.94 74.45 490.47 72.66 C 493.60 71.43 497.19 70.75 500.27 72.48 C 500.26 74.61 500.20 76.80 500.89 78.86 C 500.76 79.40 500.49 80.47 500.35 81.00 C 499.00 81.53 498.07 82.43 498.03 83.94 C 498.49 84.32 499.43 85.08 499.89 85.46 C 500.48 85.28 501.07 85.11 501.68 84.94 C 501.97 86.16 502.33 87.36 502.77 88.54 C 502.88 89.01 503.09 89.94 503.20 90.41 C 503.67 91.38 504.14 92.38 504.60 93.37 C 504.42 93.73 504.06 94.46 503.87 94.82 C 504.68 98.23 506.19 101.41 507.17 104.77 C 507.88 106.89 508.33 109.64 510.96 110.11 C 511.05 114.57 510.53 119.17 512.28 123.40 C 512.65 124.42 513.01 125.44 513.36 126.47 C 513.80 127.75 514.02 129.08 514.28 130.41 C 514.84 132.10 515.16 133.85 515.76 135.53 C 515.88 135.99 516.10 136.92 516.21 137.38 C 520.35 147.33 521.81 158.15 525.06 168.38 C 531.52 165.82 540.79 162.45 545.76 169.37 C 547.36 168.80 548.96 168.24 550.58 167.71 C 545.17 162.10 540.66 155.72 535.00 150.35 C 535.56 149.78 536.13 149.20 536.71 148.64 C 537.11 145.84 537.11 142.98 535.78 140.42 C 535.12 139.26 534.44 138.11 533.93 136.89 C 533.98 135.59 535.55 135.12 536.30 134.24 C 538.67 133.08 540.44 131.09 542.31 129.29 C 546.12 127.25 548.40 123.34 552.11 121.15 C 555.74 117.98 558.88 114.23 563.07 111.72 C 571.33 121.10 577.11 132.30 585.26 141.76 C 595.07 154.27 607.97 164.01 617.10 177.12 C 618.33 173.01 622.25 170.83 625.38 168.29 C 631.50 163.69 637.35 158.66 643.91 154.69 C 647.47 153.17 649.49 149.73 652.19 147.16 C 656.12 143.36 659.10 138.75 662.89 134.84 C 667.14 130.09 672.04 126.01 676.80 121.80 C 688.14 111.33 698.29 98.91 712.54 92.23 C 716.37 90.07 720.94 90.51 725.02 89.09 C 728.02 88.06 731.22 87.96 734.36 88.20 C 738.43 90.57 744.69 88.06 747.30 92.94 C 749.21 95.35 748.02 98.39 747.63 101.07 C 751.28 108.16 752.68 116.56 750.42 124.31 C 749.74 130.82 750.32 137.40 750.10 143.94 C 749.60 149.97 752.40 155.49 753.74 161.22 C 754.35 161.31 755.55 161.49 756.15 161.58 C 755.50 161.60 754.22 161.63 753.58 161.65 C 754.59 164.16 755.56 166.68 756.61 169.17 C 761.50 169.22 766.68 168.69 771.24 170.87 C 775.27 172.48 778.17 175.81 781.05 178.92 C 783.61 181.79 787.33 183.22 790.11 185.84 C 793.07 188.57 795.84 191.53 799.18 193.82 C 803.04 196.87 808.18 197.80 811.78 201.25 C 817.37 206.74 823.53 211.77 830.51 215.39 C 832.71 216.92 833.48 219.73 835.46 221.51 C 839.52 225.48 844.46 228.44 848.48 232.47 C 850.72 234.91 853.98 235.78 856.79 237.36 C 864.27 242.59 873.30 244.93 881.98 247.28 C 886.58 244.18 887.26 237.77 890.47 233.43 C 895.80 226.41 900.17 218.64 906.42 212.34 C 910.74 208.19 912.86 202.33 917.42 198.39 C 920.97 194.29 925.10 190.78 928.88 186.91 C 933.72 180.18 939.18 173.93 944.07 167.24 C 948.79 161.99 954.48 157.54 958.24 151.47 C 962.55 144.03 967.78 137.06 970.99 129.02 C 972.42 124.89 975.97 122.10 978.25 118.48 C 980.61 115.09 983.19 111.82 984.97 108.05 C 986.82 104.40 989.93 101.65 992.25 98.33 C 997.02 89.74 1003.21 82.01 1009.73 74.70 C 1012.47 70.84 1015.54 67.22 1019.05 64.04 C 1026.69 56.94 1032.51 47.98 1040.89 41.67 C 1047.77 37.11 1053.33 30.92 1058.95 24.95 C 1062.14 21.74 1066.00 19.31 1069.47 16.41 C 1072.92 13.42 1077.62 13.06 1081.83 11.79 M 1071.44 35.47 C 1064.80 42.18 1058.53 49.43 1050.58 54.66 C 1044.39 59.79 1038.95 65.91 1034.91 72.87 C 1029.24 79.84 1023.96 87.14 1017.75 93.64 C 1012.76 100.07 1008.54 107.05 1003.74 113.63 C 999.97 118.92 997.00 124.71 994.26 130.59 C 991.97 135.61 987.32 139.07 985.17 144.17 C 980.25 155.22 970.41 162.75 962.87 171.88 C 955.46 178.55 949.36 186.49 943.41 194.45 C 940.93 198.22 937.50 201.16 934.13 204.11 C 926.44 212.53 921.12 222.86 913.15 231.04 C 910.11 234.48 908.23 238.74 905.30 242.26 C 900.12 248.63 897.49 256.81 891.36 262.45 C 890.43 263.64 888.32 264.84 889.37 266.60 C 892.83 268.77 896.09 271.22 899.29 273.75 C 902.50 274.54 906.51 274.58 908.27 277.93 C 910.05 282.25 906.98 286.28 905.39 290.11 C 904.54 292.33 902.56 294.63 904.06 297.03 C 904.42 298.46 903.83 300.50 905.47 301.31 C 908.59 303.43 913.58 302.93 915.31 306.91 C 917.19 312.21 912.59 316.38 910.64 320.84 C 907.97 327.42 902.73 332.44 899.68 338.82 C 895.23 345.06 891.70 351.90 886.97 357.94 C 883.39 363.16 880.99 369.10 877.24 374.23 C 873.18 379.92 869.95 386.14 866.14 391.98 C 860.94 398.11 857.17 405.21 853.15 412.13 C 849.71 418.18 844.36 422.82 840.70 428.71 C 836.38 435.36 831.83 441.85 827.65 448.59 C 824.83 453.30 820.86 457.13 817.31 461.26 C 823.82 461.17 830.33 461.25 836.84 461.13 C 838.40 457.94 839.79 454.66 841.51 451.55 C 843.64 447.48 847.55 444.72 849.71 440.66 C 851.32 437.64 852.76 434.51 854.64 431.63 C 857.44 427.57 858.54 422.58 861.77 418.79 C 865.76 412.41 870.13 406.25 873.47 399.49 C 875.64 393.71 878.56 388.22 882.06 383.14 C 887.55 376.77 892.81 370.12 896.90 362.75 C 900.96 354.63 906.30 347.22 910.37 339.13 C 912.22 332.83 915.37 327.06 918.74 321.47 C 921.30 317.45 920.73 312.54 920.76 308.01 C 920.82 304.24 918.71 300.79 919.15 296.97 C 918.72 293.20 921.95 289.89 920.84 286.16 C 917.24 281.57 910.60 278.49 910.46 271.94 C 909.56 266.44 913.42 262.00 914.45 256.86 C 915.24 253.99 916.91 251.46 917.68 248.58 C 920.48 235.44 929.59 224.98 938.24 215.19 C 944.76 209.48 948.49 201.47 954.11 194.98 C 968.20 179.72 982.16 164.31 996.56 149.33 C 999.68 145.64 1001.37 141.03 1004.02 137.02 C 1005.42 134.72 1008.10 134.07 1010.54 133.44 C 1017.56 124.06 1020.03 111.86 1028.14 103.18 C 1037.34 93.90 1042.05 81.34 1050.52 71.49 C 1057.25 64.79 1062.71 56.94 1067.92 49.03 C 1071.03 44.80 1073.66 40.15 1077.47 36.47 C 1079.69 34.17 1082.55 31.93 1082.36 28.37 C 1077.98 29.34 1074.91 32.89 1071.44 35.47 M 417.01 90.15 C 412.06 91.38 407.00 91.74 401.94 92.12 C 393.10 94.40 383.59 95.51 375.97 100.97 C 370.51 105.15 365.06 109.37 360.07 114.12 C 356.12 117.90 351.25 120.60 347.48 124.59 C 343.20 128.77 340.20 133.99 336.79 138.85 C 333.93 142.98 330.79 146.91 328.17 151.19 C 325.82 155.21 323.11 159.38 323.37 164.25 C 322.71 165.62 321.95 166.98 320.62 167.81 C 318.64 170.05 319.82 173.24 319.23 175.92 C 318.47 180.20 318.92 184.57 318.33 188.86 C 317.36 193.51 315.72 197.98 314.43 202.53 C 312.74 210.02 312.43 217.91 309.53 225.07 C 309.62 227.08 309.96 229.14 309.45 231.12 C 308.32 233.04 305.33 233.44 305.08 235.92 C 303.81 241.28 302.00 246.50 301.04 251.94 C 299.70 257.75 299.63 263.81 297.82 269.53 C 295.30 277.44 293.19 285.48 290.58 293.37 C 289.41 296.14 290.37 299.09 290.53 301.95 C 290.85 307.29 290.56 312.63 290.67 317.97 C 290.61 324.83 293.69 331.19 294.14 337.99 C 294.93 348.88 296.83 359.78 301.04 369.90 C 304.22 377.07 308.56 383.63 313.05 390.03 C 318.20 398.33 323.74 406.49 330.85 413.25 C 336.14 419.57 341.89 425.48 347.96 431.04 C 356.00 437.29 363.31 444.40 371.04 451.02 C 376.06 449.28 380.25 453.48 382.36 457.57 C 386.49 456.42 390.78 456.63 394.99 456.12 C 399.97 454.81 404.91 453.35 409.82 451.78 C 409.90 446.04 409.45 439.75 412.91 434.80 C 415.62 430.79 419.68 426.56 424.99 427.20 C 432.84 426.51 440.19 431.03 445.11 436.84 C 450.36 436.73 455.63 436.97 460.88 436.74 C 465.65 434.76 470.46 432.86 475.44 431.42 C 473.04 423.58 469.52 416.17 465.91 408.82 C 460.11 398.01 455.26 386.69 451.29 375.09 C 448.81 368.16 448.26 360.68 445.08 353.99 C 444.10 346.01 441.47 338.38 439.15 330.72 C 436.92 322.71 432.81 315.33 431.19 307.13 C 428.86 299.67 429.39 291.75 429.86 284.06 C 431.06 276.97 429.82 269.40 432.76 262.66 C 435.10 258.49 439.99 257.03 444.05 255.12 C 455.13 250.25 464.55 242.25 475.96 238.06 C 482.46 235.79 487.04 230.44 491.91 225.87 C 494.76 223.20 495.93 219.33 498.23 216.24 C 500.60 213.09 498.28 209.08 497.31 205.81 C 493.96 194.62 489.50 183.81 485.40 172.88 C 480.47 162.07 477.67 150.48 473.70 139.32 C 471.59 134.21 470.20 128.84 468.24 123.67 C 464.91 115.76 463.17 107.07 458.03 100.01 C 455.52 96.70 453.63 92.97 451.17 89.64 C 439.80 89.51 428.36 89.23 417.01 90.15 M 465.32 90.40 C 467.95 93.79 470.20 97.44 472.08 101.29 C 474.77 100.50 477.49 99.80 480.22 99.15 C 478.51 96.17 476.82 93.18 474.98 90.28 C 471.76 90.35 468.54 90.36 465.32 90.40 M 476.02 111.85 C 476.73 113.92 477.48 115.97 478.22 118.03 C 481.58 117.10 484.90 116.03 488.23 115.00 C 487.25 113.12 486.28 111.24 485.31 109.37 C 482.19 110.12 479.09 110.94 476.02 111.85 M 1088.36 126.00 C 1088.52 131.02 1087.93 136.11 1088.83 141.08 C 1089.84 145.26 1094.04 147.25 1096.97 149.96 C 1103.99 155.96 1109.80 164.43 1109.84 173.98 C 1109.85 178.61 1110.07 183.28 1109.33 187.88 C 1107.45 197.57 1105.57 207.26 1104.03 217.00 C 1102.84 230.99 1102.74 245.15 1099.97 258.96 C 1098.88 264.93 1097.36 270.89 1097.45 277.00 C 1097.46 281.97 1097.46 286.94 1097.50 291.91 C 1097.83 291.57 1098.49 290.89 1098.82 290.55 C 1103.74 288.92 1108.95 289.58 1114.02 289.97 C 1114.92 288.44 1116.21 286.94 1116.14 285.05 C 1116.42 277.71 1115.70 270.30 1116.93 263.01 C 1118.08 243.67 1115.49 224.27 1117.34 204.96 C 1117.54 202.25 1117.22 199.53 1116.43 196.94 C 1114.08 188.84 1113.69 180.34 1113.48 171.96 C 1113.40 168.66 1112.54 165.25 1110.32 162.74 C 1107.22 159.19 1104.13 155.60 1101.54 151.66 C 1098.80 147.38 1100.80 141.90 1098.59 137.45 C 1095.36 128.84 1093.53 119.79 1091.07 110.95 C 1089.53 115.83 1088.03 120.82 1088.36 126.00 M 481.99 128.65 C 483.55 133.62 485.66 138.40 487.02 143.44 C 489.84 141.42 492.79 139.59 495.79 137.85 C 494.92 133.63 492.76 129.83 491.74 125.65 C 488.48 126.62 485.23 127.61 481.99 128.65 M 731.81 146.38 C 731.94 148.66 731.96 150.94 732.07 153.23 C 732.55 154.27 732.98 155.34 733.38 156.43 C 735.01 159.79 732.67 163.95 735.10 167.03 C 739.55 173.47 737.97 181.64 738.22 188.98 C 738.38 194.94 735.31 200.17 733.43 205.62 C 732.66 210.20 731.70 214.76 731.90 219.44 C 730.55 221.25 731.03 223.62 730.58 225.70 C 729.16 222.41 730.12 218.72 729.59 215.26 C 727.85 224.43 728.09 233.82 728.18 243.10 C 728.04 245.27 729.51 246.96 730.87 248.46 C 730.95 248.95 731.13 249.91 731.21 250.40 C 731.67 251.47 732.01 252.59 732.22 253.75 C 734.95 258.06 738.13 262.17 739.98 266.96 C 743.76 280.09 744.38 293.87 743.62 307.45 C 742.68 314.87 740.60 322.09 737.82 329.02 C 738.07 332.52 738.02 336.04 737.92 339.55 C 737.43 339.15 736.46 338.35 735.97 337.95 C 735.55 343.94 734.84 349.97 735.55 355.97 C 736.31 360.26 739.58 363.45 741.67 367.12 C 743.00 370.26 746.89 371.53 747.51 375.08 C 748.68 382.80 748.04 390.67 747.27 398.40 C 749.23 393.35 752.91 389.12 754.51 383.94 C 755.13 379.33 754.50 374.65 754.99 370.03 C 755.28 368.14 754.75 366.32 754.18 364.56 C 754.70 363.58 755.23 362.60 755.77 361.62 C 756.29 360.34 756.84 359.06 757.36 357.77 C 757.72 357.98 758.45 358.40 758.82 358.61 C 758.57 357.62 758.34 356.64 758.12 355.66 C 758.56 354.62 758.99 353.58 759.39 352.54 C 760.07 350.57 759.88 348.41 760.65 346.47 C 760.97 345.44 761.30 344.41 761.65 343.39 C 762.04 341.58 762.84 339.89 763.87 338.36 C 764.54 324.89 765.37 311.22 762.95 297.88 C 758.01 289.00 756.04 278.83 752.77 269.28 C 750.33 266.41 747.03 264.18 745.46 260.61 C 742.54 256.37 745.34 250.83 742.74 246.48 C 742.58 246.10 742.25 245.33 742.09 244.95 C 741.88 239.17 741.97 233.37 742.12 227.59 C 743.36 225.71 742.64 223.27 743.80 221.35 C 743.98 219.09 744.00 216.81 744.12 214.54 C 746.04 211.05 743.89 206.78 745.82 203.35 C 746.11 198.56 745.91 193.77 746.01 188.98 C 746.72 189.00 748.16 189.04 748.88 189.05 C 750.28 186.11 750.64 182.13 748.30 179.57 C 747.07 177.65 746.62 175.35 745.24 173.52 C 744.92 172.00 744.59 170.49 744.19 169.00 C 744.83 169.13 746.12 169.39 746.76 169.52 C 746.00 167.11 745.23 164.71 744.26 162.39 C 743.93 164.17 743.89 166.01 743.20 167.71 C 743.17 164.84 743.85 161.98 743.41 159.12 C 742.97 155.68 741.28 152.51 741.19 149.02 C 741.01 143.71 741.19 138.40 741.11 133.09 C 738.24 137.70 733.61 141.12 731.81 146.38 M 489.20 150.62 C 491.61 157.34 493.72 164.18 496.73 170.67 C 498.99 169.58 501.26 168.54 503.54 167.48 C 501.12 161.57 500.22 155.22 498.77 149.04 C 495.72 150.25 492.50 151.04 489.20 150.62 M 732.80 164.02 C 731.81 159.17 731.06 154.29 730.36 149.39 C 729.87 154.43 731.49 159.24 732.80 164.02 M 696.53 170.64 C 682.68 180.89 669.44 191.96 655.68 202.34 C 658.30 205.34 660.37 208.91 663.69 211.24 C 668.49 214.55 671.36 219.75 674.94 224.22 C 677.17 227.03 678.95 230.15 680.83 233.20 C 682.96 236.66 686.38 238.97 689.34 241.65 C 692.01 243.97 694.21 246.76 696.79 249.18 C 699.38 251.66 702.66 253.28 705.21 255.82 C 707.75 258.30 709.31 261.64 712.12 263.88 C 719.16 269.18 724.82 276.10 732.19 281.03 C 731.61 284.87 732.34 288.65 733.28 292.36 C 734.16 293.75 734.15 295.40 734.31 296.98 L 735.12 297.07 C 734.85 287.51 734.00 277.79 730.27 268.87 C 728.68 263.28 724.13 259.26 722.05 253.90 C 720.72 250.43 719.11 246.90 719.18 243.10 C 719.18 233.56 718.73 223.92 720.64 214.51 C 722.00 210.31 723.25 206.07 725.03 202.02 C 727.41 197.98 724.91 193.38 725.54 189.03 C 725.32 184.98 727.94 181.72 729.17 178.08 C 729.66 174.08 726.59 171.15 724.94 167.87 C 722.96 162.54 720.81 157.07 721.25 151.26 C 712.43 156.96 704.84 164.27 696.53 170.64 M 528.69 179.13 C 529.02 180.30 529.36 181.48 529.71 182.66 C 531.19 182.54 532.74 182.71 534.17 182.21 C 535.14 180.59 535.07 178.64 535.36 176.83 C 533.13 177.60 530.92 178.39 528.69 179.13 M 546.63 181.05 C 545.36 184.48 544.61 188.41 541.73 190.92 C 539.53 192.92 536.55 193.63 533.68 193.98 C 534.55 197.01 534.93 200.14 535.38 203.25 C 538.11 202.17 541.04 201.11 542.78 198.57 C 543.61 197.08 545.38 197.01 546.90 197.08 C 552.22 196.95 553.43 204.91 550.08 208.00 C 546.26 211.33 541.36 213.05 536.59 214.53 C 536.88 217.68 537.34 220.83 537.20 224.01 C 537.05 230.20 534.00 235.74 532.40 241.60 C 530.26 248.87 524.80 254.49 522.36 261.61 C 520.52 266.73 517.52 271.27 515.06 276.09 C 511.42 283.91 506.78 291.29 504.47 299.68 C 499.93 309.44 495.41 319.23 491.02 329.07 C 489.42 333.32 490.21 337.99 489.15 342.37 C 488.02 347.10 488.16 352.01 488.26 356.84 C 493.20 354.98 498.39 353.75 503.10 351.31 C 507.25 349.19 511.88 348.23 516.05 346.14 C 519.18 344.63 522.26 343.00 525.47 341.66 C 529.29 340.03 533.55 339.55 537.15 337.38 C 541.71 334.69 546.89 333.12 551.19 329.99 C 552.31 326.15 552.78 321.99 552.15 318.02 C 550.40 315.36 547.26 313.50 546.80 310.13 C 546.43 307.24 546.66 304.32 546.87 301.44 C 542.81 304.08 537.57 305.78 532.83 304.05 C 529.10 303.20 524.64 303.28 522.07 299.92 C 517.31 293.47 516.48 284.84 517.61 277.12 C 520.06 269.75 526.49 264.95 532.18 260.14 C 536.48 255.45 541.18 251.08 544.92 245.90 C 549.87 237.69 555.83 230.16 561.52 222.47 C 565.68 215.48 569.95 208.55 574.55 201.84 C 573.29 196.37 568.86 192.43 566.78 187.30 C 565.07 183.10 561.59 180.06 558.81 176.60 C 554.83 178.29 550.71 179.62 546.63 181.05 M 500.44 180.56 C 502.05 184.84 503.49 189.18 505.12 193.46 C 507.32 191.95 509.64 190.60 512.10 189.53 C 510.31 185.66 508.15 181.94 506.86 177.86 C 504.72 178.77 502.57 179.65 500.44 180.56 M 963.84 200.89 C 958.98 206.15 955.65 212.58 951.07 218.05 C 948.18 221.17 944.95 223.98 942.46 227.44 C 936.17 234.73 929.98 242.79 928.25 252.50 C 925.97 258.60 923.25 264.70 921.71 270.97 C 924.44 274.97 929.22 277.22 931.35 281.68 C 932.72 287.09 931.77 292.75 930.32 298.01 C 932.46 304.15 931.86 310.71 931.75 317.09 C 931.27 324.26 926.31 329.83 923.44 336.11 C 921.84 339.24 921.24 342.78 919.60 345.89 C 914.88 354.06 909.77 362.00 905.43 370.37 C 901.45 376.92 896.85 383.09 891.82 388.85 C 888.19 393.59 885.52 399.01 883.44 404.59 C 880.01 411.52 875.58 417.87 871.48 424.40 C 868.43 428.04 867.27 432.75 864.66 436.66 C 861.27 441.67 859.48 447.71 855.15 452.08 C 852.51 454.76 850.46 457.94 848.94 461.37 C 856.55 461.59 864.23 462.38 871.52 464.66 C 874.37 465.51 876.98 467.11 878.80 469.50 C 885.74 469.27 890.51 463.27 897.14 462.09 C 900.66 461.15 903.99 463.26 907.44 463.67 C 907.52 458.57 909.29 453.53 912.93 449.88 C 919.21 443.34 927.36 436.90 936.95 437.42 C 942.57 437.35 948.19 437.52 953.82 437.74 C 955.25 431.40 957.26 424.82 962.47 420.51 C 966.66 417.28 970.74 413.37 975.95 411.94 C 981.47 411.38 988.53 410.71 992.13 415.95 C 994.13 419.20 996.46 422.20 999.67 424.37 C 999.79 417.74 1005.00 413.13 1010.57 410.50 C 1014.02 404.55 1014.72 397.54 1015.93 390.90 C 1016.98 383.29 1015.92 375.57 1016.58 367.93 C 1018.15 357.77 1020.65 347.39 1018.85 337.10 C 1014.57 327.84 1012.17 317.86 1009.11 308.17 C 1006.48 303.80 1003.66 299.53 1001.36 294.96 C 997.84 290.25 997.16 284.10 993.38 279.55 C 989.58 274.89 987.62 269.16 985.27 263.72 C 981.62 257.65 976.33 252.36 974.73 245.23 C 972.53 239.75 972.38 233.74 973.00 227.95 C 973.57 223.20 977.04 219.55 980.68 216.75 C 982.22 215.71 982.71 213.80 982.69 212.03 C 982.72 205.69 982.69 199.34 982.68 193.00 C 982.51 187.95 984.31 183.15 984.80 178.16 C 977.69 185.63 970.96 193.44 963.84 200.89 M 509.06 204.13 C 509.07 205.92 509.71 207.64 510.06 209.39 C 512.90 208.53 515.55 207.17 518.27 205.99 C 517.53 203.93 516.82 201.86 516.08 199.81 C 513.68 201.16 511.27 202.49 509.06 204.13 M 236.80 209.83 C 233.78 211.63 234.65 215.85 235.61 218.62 C 236.90 222.86 241.10 225.15 245.05 226.39 C 250.00 226.81 254.85 225.19 259.46 223.60 C 270.79 219.42 279.45 209.54 291.58 207.34 C 283.05 208.00 274.40 209.73 265.89 208.03 C 261.10 207.05 257.03 203.47 252.01 203.71 C 246.30 203.45 241.36 206.85 236.80 209.83 M 510.03 220.57 C 509.15 221.98 508.27 223.38 507.37 224.77 C 510.88 224.63 514.39 224.63 517.90 224.69 C 519.45 222.52 520.70 220.14 520.59 217.38 C 517.30 219.10 513.77 220.39 510.03 220.57 M 754.89 221.03 C 754.94 225.54 754.61 230.07 755.19 234.56 C 756.03 240.32 755.69 246.27 757.54 251.87 C 758.42 255.83 761.01 259.08 762.38 262.87 C 764.69 270.55 767.36 278.13 769.39 285.90 C 772.54 294.99 772.84 304.69 773.82 314.16 C 774.30 317.71 778.07 318.14 780.59 319.69 C 783.45 321.58 784.60 324.95 786.14 327.85 C 790.24 328.89 793.91 331.12 796.93 334.07 C 799.30 336.71 803.16 336.88 805.78 339.17 C 808.60 341.45 809.87 345.07 812.51 347.51 C 815.38 349.39 818.75 350.46 821.39 352.73 C 826.19 356.89 831.87 360.06 837.95 361.89 C 840.77 359.05 843.51 356.12 845.89 352.89 C 849.72 348.35 851.83 342.72 854.95 337.73 C 858.34 332.51 860.28 326.53 863.22 321.07 C 866.67 312.78 869.04 304.01 873.44 296.14 C 870.17 294.51 867.59 291.74 864.10 290.54 C 858.65 287.64 852.76 285.65 847.79 281.94 C 841.96 279.70 836.91 275.98 831.16 273.60 C 826.11 270.12 820.06 268.51 815.14 264.84 C 811.11 261.75 805.77 260.62 802.45 256.58 C 799.16 252.67 794.07 251.09 790.54 247.45 C 785.61 242.59 779.17 239.64 774.39 234.63 C 771.48 231.75 767.72 230.01 764.49 227.54 C 761.41 225.20 758.34 222.81 754.89 221.03 M 624.52 234.15 C 619.35 237.71 615.54 242.78 611.05 247.08 C 603.90 253.92 598.13 262.26 589.78 267.77 C 585.92 270.21 582.24 272.91 578.87 275.98 C 581.73 286.17 585.78 296.06 586.96 306.66 C 589.00 304.81 590.90 302.80 592.91 300.91 C 595.53 298.44 598.94 297.09 601.80 294.94 C 605.34 292.30 608.84 289.50 612.95 287.77 C 618.30 285.35 624.27 285.10 630.04 284.69 C 632.83 284.48 635.29 286.05 637.41 287.67 C 638.12 289.39 639.08 291.07 639.31 292.95 C 638.86 296.79 637.28 300.83 638.62 304.63 C 641.06 306.09 643.79 307.25 645.40 309.74 C 646.12 312.14 647.23 314.44 647.67 316.92 C 648.40 320.82 644.88 323.86 645.17 327.72 C 645.58 330.17 646.63 332.47 647.81 334.65 C 652.02 332.88 656.95 332.51 661.09 334.71 C 664.83 331.41 669.85 328.00 675.05 330.07 C 681.91 332.34 683.87 340.00 688.33 344.90 C 695.00 355.23 688.18 368.39 693.48 379.14 C 696.10 384.63 696.08 390.87 698.30 396.49 C 700.41 402.48 702.57 408.59 702.83 414.99 C 703.05 418.64 703.34 422.28 703.73 425.92 C 706.83 425.36 709.95 424.11 713.16 424.66 C 715.27 425.40 716.91 427.07 718.94 428.02 C 722.12 429.15 725.74 429.26 728.52 431.39 C 730.53 432.82 731.80 434.98 732.99 437.09 C 737.83 437.91 742.74 438.42 747.66 438.06 C 750.38 434.96 753.36 431.91 757.22 430.27 C 762.08 427.91 768.48 427.30 772.86 431.01 C 780.55 438.27 780.18 450.20 787.32 457.80 C 788.20 459.02 790.60 458.75 791.28 457.39 C 794.77 452.13 798.97 447.27 801.47 441.41 C 805.81 432.47 811.17 424.08 816.01 415.41 C 812.03 412.63 808.39 409.39 804.51 406.48 C 798.56 401.05 793.41 394.83 788.13 388.78 C 786.60 387.10 786.76 384.85 787.27 382.81 C 784.64 379.90 781.10 378.07 778.09 375.61 C 773.64 372.13 770.25 367.57 766.11 363.77 C 760.90 373.67 766.54 385.49 761.66 395.45 C 759.83 399.94 756.70 404.98 751.21 404.96 C 749.18 408.27 745.84 411.05 741.72 410.68 C 740.41 409.32 738.33 408.20 738.36 406.07 C 737.42 396.47 740.72 386.72 738.68 377.24 C 733.90 371.38 728.34 365.51 726.63 357.89 C 725.54 348.91 726.59 339.85 728.13 330.99 C 727.44 328.34 723.40 328.41 721.83 326.20 C 715.74 318.98 709.31 312.05 702.18 305.85 C 694.08 296.86 684.36 289.60 675.56 281.35 C 673.76 279.70 673.18 277.24 671.94 275.23 C 665.86 268.47 658.63 262.86 651.12 257.77 C 641.45 250.84 633.76 241.53 624.52 234.15 M 499.54 238.48 C 497.90 240.90 496.85 243.65 495.57 246.26 C 500.35 245.58 505.41 245.92 509.95 244.11 C 512.06 241.78 512.90 238.60 514.11 235.76 C 509.18 235.70 503.79 235.62 499.54 238.48 M 241.68 245.75 C 245.24 245.29 249.03 245.66 252.42 244.38 C 257.03 241.45 262.24 239.77 267.09 237.31 C 258.54 239.86 250.24 243.20 241.68 245.75 M 491.01 258.05 C 489.36 260.28 488.73 263.08 487.28 265.44 C 485.27 268.81 482.99 272.01 481.18 275.49 C 485.12 274.63 489.10 273.95 493.02 273.00 C 497.69 268.17 501.06 262.24 504.63 256.58 C 500.07 256.88 495.50 257.22 491.01 258.05 M 440.73 293.48 C 444.01 291.38 447.81 290.43 451.55 289.53 C 448.19 282.75 446.36 275.33 442.51 268.79 C 441.72 276.99 440.83 285.22 440.73 293.48 M 562.12 288.12 C 559.77 293.98 555.55 299.43 555.73 306.01 C 555.21 308.89 558.10 310.42 559.49 312.51 C 562.09 315.57 561.60 319.82 561.48 323.54 C 566.19 318.11 574.27 317.87 578.64 312.09 C 577.44 301.87 574.53 292.03 571.20 282.33 C 568.46 284.68 565.32 286.48 562.12 288.12 M 473.33 288.30 C 470.88 291.17 468.54 294.15 465.75 296.71 C 471.03 295.96 476.51 295.85 481.68 294.67 C 483.11 291.77 484.00 288.64 485.47 285.77 C 481.52 287.04 477.31 287.36 473.33 288.30 M 442.45 305.99 C 443.39 309.75 444.76 313.38 446.13 317.00 C 449.43 315.25 452.81 313.64 456.25 312.18 C 455.21 308.30 454.71 304.30 453.57 300.45 C 449.33 301.08 445.69 303.30 442.45 305.99 M 466.25 308.94 C 469.16 309.16 472.11 309.20 474.98 309.84 C 475.50 308.77 476.03 307.70 476.57 306.63 C 473.17 307.37 469.01 306.50 466.25 308.94 M 895.12 307.44 C 893.73 310.43 892.23 313.36 890.65 316.26 C 893.22 317.69 895.73 319.23 898.19 320.87 C 899.50 318.09 900.81 315.30 902.38 312.65 C 899.87 311.03 897.49 309.24 895.12 307.44 M 450.34 327.47 C 451.14 333.51 453.91 339.32 454.97 345.40 C 458.44 344.41 461.94 343.52 465.50 342.86 C 464.15 335.99 463.03 328.98 460.03 322.60 C 456.75 324.12 453.40 325.53 450.34 327.47 M 886.65 326.94 C 884.64 330.72 882.19 334.23 880.00 337.90 C 881.81 338.57 883.62 339.30 885.43 339.99 C 887.51 336.70 890.06 333.70 891.73 330.16 C 890.20 328.84 888.42 327.88 886.65 326.94 M 153.78 332.86 C 153.88 343.62 151.33 354.56 146.02 363.95 C 144.97 366.28 141.95 368.23 142.88 371.05 C 144.33 374.12 146.68 376.75 147.61 380.07 C 150.38 388.73 145.15 398.57 137.18 402.37 C 132.69 404.58 127.64 403.33 122.92 402.86 C 121.06 404.56 120.99 407.61 120.73 410.01 C 120.81 415.30 119.88 420.96 122.42 425.85 C 125.39 431.76 125.64 438.56 125.00 445.02 C 124.56 451.18 120.68 456.30 119.50 462.28 C 126.69 462.20 133.88 462.14 141.08 462.14 C 161.37 461.40 181.83 459.42 202.05 462.31 C 213.97 463.87 226.01 463.01 237.98 463.22 C 240.90 463.44 244.07 462.61 246.80 463.92 C 245.51 462.50 243.50 462.03 242.14 460.70 C 239.57 458.27 237.59 455.21 236.34 451.91 C 233.85 445.36 237.34 437.77 233.56 431.58 C 231.33 427.32 228.96 423.13 226.25 419.17 C 222.82 426.23 216.75 432.49 208.92 434.33 C 204.82 434.94 200.55 435.05 196.47 434.20 C 191.45 433.01 187.78 429.04 185.20 424.78 C 180.49 417.09 176.06 409.00 174.30 400.06 C 171.16 389.48 168.71 378.52 163.34 368.78 C 158.76 359.11 160.77 348.10 159.08 337.86 C 158.73 335.05 156.08 333.84 153.78 332.86 M 1249.57 358.83 C 1243.25 365.27 1233.77 367.54 1224.97 366.88 C 1224.77 373.69 1223.10 380.49 1219.75 386.45 C 1217.67 390.50 1214.70 394.27 1213.96 398.86 C 1213.56 404.57 1214.04 410.30 1213.69 416.01 C 1212.73 427.01 1209.07 437.57 1204.43 447.52 C 1202.21 454.94 1204.34 462.78 1206.19 470.06 C 1206.51 471.92 1207.57 473.48 1208.73 474.94 C 1207.27 483.36 1207.56 491.98 1206.25 500.46 C 1204.21 502.32 1201.99 504.11 1200.63 506.57 C 1199.89 508.20 1199.12 509.81 1198.28 511.39 C 1197.10 513.67 1195.95 516.04 1195.84 518.67 C 1193.75 523.29 1187.46 521.82 1184.13 525.08 C 1180.69 528.46 1177.14 532.86 1177.69 537.99 C 1177.74 554.99 1176.61 572.04 1177.86 589.00 C 1178.52 595.16 1174.77 600.49 1174.60 606.58 C 1175.63 605.73 1176.66 604.87 1177.73 604.06 C 1177.01 604.68 1175.58 605.93 1174.87 606.56 L 1177.96 607.19 C 1177.25 607.09 1175.83 606.91 1175.12 606.82 C 1174.57 608.50 1173.79 610.09 1172.69 611.49 C 1171.93 611.52 1170.41 611.58 1169.64 611.62 C 1168.11 616.14 1167.20 622.13 1162.14 624.05 C 1159.03 625.65 1155.14 622.64 1152.46 625.32 C 1145.74 630.28 1137.15 631.14 1129.10 631.91 C 1123.67 632.36 1119.23 635.82 1115.20 639.15 C 1116.76 640.89 1118.65 642.29 1120.73 643.38 C 1125.79 640.77 1131.61 642.57 1136.81 643.79 C 1146.54 643.91 1156.29 643.83 1166.00 644.51 C 1173.35 644.53 1180.83 644.18 1187.98 646.27 C 1194.14 648.18 1200.63 647.40 1206.97 647.55 C 1224.64 647.41 1242.34 648.06 1259.98 646.61 C 1273.30 645.77 1286.69 646.97 1299.98 645.49 C 1312.96 644.17 1326.01 644.49 1339.03 643.83 C 1349.32 643.96 1359.82 643.07 1369.90 645.67 C 1375.48 647.06 1381.30 646.84 1387.00 646.57 C 1394.14 646.29 1400.97 643.82 1408.07 643.21 C 1410.18 642.90 1412.79 643.23 1414.12 641.17 C 1406.01 636.23 1398.82 629.93 1390.54 625.27 C 1388.66 624.25 1387.53 622.18 1387.45 620.09 C 1387.06 614.70 1388.02 609.13 1386.22 603.92 C 1383.53 596.30 1380.43 588.72 1375.62 582.17 C 1372.51 577.93 1372.07 572.33 1368.87 568.18 C 1364.77 564.39 1359.69 561.89 1354.83 559.23 C 1346.04 554.89 1337.63 549.71 1328.36 546.41 C 1320.19 543.34 1312.17 537.68 1309.50 528.99 C 1307.48 519.15 1310.01 508.88 1307.66 499.08 C 1306.00 492.64 1299.67 489.67 1294.74 486.12 C 1293.49 485.21 1293.73 484.66 1295.46 484.46 C 1291.86 481.47 1288.75 477.88 1286.38 473.84 C 1283.89 469.69 1283.77 464.67 1283.88 459.97 C 1284.62 446.66 1284.56 433.26 1282.38 420.08 C 1280.86 410.07 1280.71 399.87 1278.69 389.94 C 1277.32 383.26 1272.80 377.93 1269.96 371.88 C 1265.60 362.81 1263.19 352.96 1261.07 343.17 C 1256.24 347.61 1253.04 353.36 1249.57 358.83 M 871.30 347.75 C 868.89 351.30 866.69 354.99 864.03 358.36 C 866.89 358.92 869.70 359.76 872.41 360.87 C 874.31 356.84 876.64 353.05 879.15 349.38 C 876.61 348.48 873.98 347.86 871.30 347.75 M 457.93 356.03 C 459.90 365.01 462.23 373.95 465.98 382.38 C 469.58 382.31 473.17 382.14 476.76 381.79 C 473.35 372.53 471.99 362.68 468.47 353.46 C 464.92 354.20 461.43 355.13 457.93 356.03 M 600.55 361.74 C 595.87 364.26 590.81 365.87 585.90 367.87 C 584.47 382.46 586.59 397.30 583.36 411.72 C 585.33 408.40 589.38 407.38 593.01 407.41 C 601.34 407.38 609.68 407.38 618.02 407.41 C 624.53 407.12 629.93 411.95 636.50 411.36 C 635.66 407.27 634.72 403.21 634.18 399.07 C 633.47 392.36 629.62 386.59 627.98 380.13 C 625.30 371.66 626.04 362.64 624.22 354.01 C 615.79 354.84 608.77 360.17 600.55 361.74 M 1098.62 358.05 C 1097.24 360.15 1095.90 362.30 1094.16 364.13 C 1091.64 366.97 1088.04 368.76 1086.22 372.21 C 1082.79 377.75 1077.60 383.03 1077.78 389.98 C 1077.66 396.48 1076.07 403.03 1072.65 408.60 C 1071.17 411.22 1068.03 412.73 1065.06 412.30 C 1060.58 411.63 1056.59 408.63 1051.90 409.22 C 1049.58 411.55 1048.56 414.91 1046.44 417.45 C 1043.47 421.82 1038.74 424.59 1033.81 426.20 C 1029.51 426.73 1025.49 423.63 1024.28 419.57 C 1021.01 419.67 1017.75 419.26 1014.50 419.34 C 1012.46 420.78 1010.83 422.71 1009.01 424.40 C 1008.73 429.57 1007.08 436.67 1001.03 437.61 C 995.79 438.33 993.44 432.91 990.91 429.46 C 985.77 427.79 981.92 424.06 978.08 420.48 C 972.13 424.26 964.83 428.38 963.66 436.04 C 962.86 440.47 960.74 445.88 955.68 446.62 C 948.09 447.07 940.45 445.97 932.88 446.84 C 927.88 448.21 923.98 451.80 920.29 455.25 C 918.25 457.17 916.93 459.69 916.45 462.46 C 919.65 462.36 922.88 462.39 926.07 461.94 C 930.16 461.06 934.27 462.31 938.37 462.67 C 943.58 466.90 950.85 464.81 956.91 466.70 C 963.74 469.00 970.99 467.49 978.02 468.15 C 984.96 469.14 992.00 468.36 998.99 468.81 C 1006.68 469.29 1014.41 468.68 1022.10 469.18 C 1027.02 470.10 1032.05 469.62 1037.04 469.76 C 1042.05 470.03 1046.95 468.56 1051.97 468.73 C 1057.10 468.99 1062.06 467.43 1067.13 466.91 C 1072.37 466.12 1077.66 467.12 1082.93 466.80 C 1091.94 466.31 1100.95 465.83 1109.96 465.52 C 1112.22 463.73 1115.00 462.36 1117.94 463.50 C 1124.66 465.61 1131.64 464.47 1138.42 463.36 C 1137.73 463.84 1136.35 464.79 1135.67 465.26 C 1147.10 465.40 1158.58 464.69 1169.97 466.02 C 1178.71 466.54 1187.51 466.02 1196.22 467.15 C 1194.26 459.00 1193.43 450.19 1196.60 442.22 C 1194.87 441.01 1192.91 440.01 1191.78 438.17 C 1189.05 433.99 1185.34 430.42 1183.72 425.59 C 1182.27 425.89 1180.87 426.22 1179.49 426.64 C 1172.18 429.20 1164.44 426.91 1156.96 426.66 C 1154.68 426.63 1152.40 425.83 1150.77 424.23 C 1146.64 419.98 1143.62 414.76 1139.42 410.60 C 1136.13 409.06 1131.91 410.73 1128.80 408.42 C 1124.00 405.04 1120.67 399.93 1117.96 394.82 C 1113.95 384.64 1120.30 374.17 1118.26 363.82 C 1116.30 360.01 1111.49 360.83 1107.96 360.67 C 1104.63 360.80 1101.58 359.36 1098.62 358.05 M 860.28 363.79 C 856.57 369.35 853.77 375.41 850.16 381.02 C 852.76 382.00 855.17 383.59 857.90 384.20 C 861.04 378.67 864.47 373.31 867.90 367.94 C 865.34 366.58 862.83 365.15 860.28 363.79 M 562.67 379.26 C 564.40 386.04 563.76 393.10 563.92 400.03 C 564.23 409.00 561.08 417.55 559.46 426.27 C 563.18 424.45 568.89 424.99 570.60 420.47 C 578.15 405.86 575.75 388.93 576.36 373.11 C 571.81 375.20 567.32 377.43 562.67 379.26 M 545.52 390.36 C 537.92 393.16 533.11 400.23 525.89 403.71 C 521.16 405.91 516.85 408.82 513.02 412.36 C 514.58 416.37 519.44 417.26 523.13 418.36 C 526.25 418.95 528.42 421.40 530.87 423.20 C 537.03 425.81 544.03 424.36 550.09 427.30 C 551.12 420.82 552.95 414.51 554.18 408.07 C 555.86 400.11 555.06 391.91 554.39 383.89 C 551.80 386.50 549.01 389.01 545.52 390.36 M 829.07 385.18 C 829.48 387.25 830.05 389.31 830.67 391.34 C 831.08 390.61 831.89 389.14 832.30 388.41 C 831.23 387.31 830.16 386.23 829.07 385.18 M 836.19 404.85 C 838.62 405.15 840.97 405.94 843.18 407.01 C 845.78 402.47 848.55 398.03 851.03 393.42 C 848.92 392.05 846.94 390.49 844.99 388.91 C 842.07 394.23 838.41 399.17 836.19 404.85 M 470.62 393.34 C 472.92 398.59 475.99 403.46 478.20 408.76 C 478.81 409.81 479.02 411.27 480.15 411.95 C 482.60 411.77 484.95 410.97 487.33 410.35 C 484.41 404.57 481.85 398.61 480.17 392.35 C 476.99 392.73 473.80 393.01 470.62 393.34 M 825.71 421.04 C 827.39 421.81 829.02 422.71 830.60 423.70 C 832.64 420.71 834.68 417.73 836.95 414.92 C 835.62 413.30 834.33 411.66 833.04 410.04 C 830.48 413.62 827.97 417.25 825.71 421.04 M 484.16 422.57 C 484.50 423.61 484.86 424.65 485.22 425.70 C 486.46 424.24 487.72 422.79 489.00 421.35 C 487.38 421.76 485.76 422.16 484.16 422.57 M 655.10 428.19 C 651.25 431.55 645.93 432.83 640.92 432.34 C 635.42 431.84 633.06 425.37 627.47 424.89 C 618.61 424.61 609.84 422.97 600.96 423.07 C 597.67 422.88 595.42 425.70 592.90 427.35 C 594.85 431.40 596.68 436.19 594.86 440.63 C 593.92 443.12 591.46 444.38 589.23 445.51 C 583.87 445.88 580.80 440.54 575.93 439.65 C 567.78 443.46 558.59 441.72 549.92 442.00 C 546.44 441.77 542.75 442.69 539.45 441.34 C 538.47 441.02 537.50 440.69 536.54 440.36 C 536.05 440.07 535.05 439.50 534.56 439.21 C 529.47 437.55 524.01 437.66 518.96 435.89 C 514.89 434.39 510.43 434.76 506.19 435.07 C 504.14 437.04 502.70 439.61 500.42 441.35 C 497.33 443.89 493.36 444.83 489.88 446.65 C 486.77 448.23 483.56 449.79 480.04 450.10 C 472.02 450.79 463.97 451.01 455.93 450.88 C 453.11 450.96 450.16 450.50 447.50 451.64 C 446.49 451.99 445.49 452.37 444.50 452.76 C 443.10 453.00 441.63 453.07 440.42 453.90 C 437.26 454.10 434.07 453.83 430.92 454.13 C 427.69 455.24 424.16 457.55 424.05 461.34 C 431.73 461.23 439.54 462.16 447.08 460.24 C 451.69 459.06 456.33 461.33 460.96 460.30 C 466.65 458.98 472.34 461.02 478.07 460.36 C 482.66 459.62 486.47 463.24 491.04 462.66 C 504.49 462.43 517.94 463.09 531.38 462.88 C 532.55 462.00 534.04 462.02 535.42 461.74 C 538.78 460.48 542.58 462.59 546.08 461.31 C 551.51 459.37 557.41 459.69 562.96 460.92 C 573.63 461.10 584.31 460.77 594.96 461.74 C 604.96 462.82 615.02 462.28 625.05 462.37 C 630.23 463.03 635.48 463.58 640.67 462.60 C 640.21 460.66 639.74 458.73 639.29 456.80 C 648.84 459.02 658.71 457.51 668.43 458.10 C 668.83 458.30 669.63 458.70 670.03 458.90 C 684.68 459.16 699.35 458.91 714.01 458.99 C 718.17 458.85 721.89 461.29 726.06 461.21 C 734.06 461.30 742.16 462.02 750.07 460.41 C 757.04 459.08 764.17 459.65 771.22 459.57 C 768.52 453.98 767.36 447.75 764.09 442.41 C 759.20 444.68 756.74 450.57 751.19 451.61 C 743.80 452.72 736.22 452.00 728.91 450.59 C 724.77 449.83 721.67 446.59 719.90 442.93 C 716.47 442.10 713.11 441.01 709.88 439.59 C 702.46 439.20 693.55 442.01 687.22 436.73 C 684.53 433.34 681.70 430.06 678.97 426.70 C 676.21 426.25 673.37 425.69 671.04 424.04 C 669.46 423.16 667.87 421.38 665.88 422.21 C 661.91 423.41 658.23 425.48 655.10 428.19 M 1318.26 431.14 C 1318.32 437.43 1319.62 444.05 1317.10 450.07 C 1315.57 453.80 1312.44 457.46 1308.17 457.76 C 1303.04 458.07 1297.89 457.69 1292.80 458.40 C 1292.88 461.89 1292.33 465.62 1293.94 468.87 C 1295.30 471.54 1297.38 473.75 1299.27 476.06 C 1301.32 475.29 1303.67 474.84 1305.57 476.28 C 1308.97 478.54 1313.14 478.14 1317.03 478.35 C 1329.17 480.18 1341.51 479.47 1353.75 479.78 C 1350.48 478.45 1350.95 474.59 1349.52 471.95 C 1347.95 467.41 1343.48 464.87 1341.44 460.63 C 1340.09 457.96 1338.59 455.37 1337.19 452.73 C 1335.04 448.56 1335.35 443.74 1335.09 439.20 C 1331.48 435.94 1329.28 431.48 1325.86 428.08 C 1323.19 427.33 1319.98 429.08 1318.26 431.14 M 820.50 429.79 C 818.25 433.89 815.94 437.95 813.60 442.00 C 815.00 442.37 816.45 442.77 817.86 443.20 C 819.97 439.83 822.14 436.51 824.30 433.17 C 823.01 432.06 821.75 430.93 820.50 429.79 M 424.15 438.32 C 423.04 439.84 421.97 441.38 420.94 442.95 C 424.22 441.42 427.63 440.22 431.09 439.19 C 428.84 438.48 426.49 438.38 424.15 438.32 M 803.74 459.29 C 806.63 457.87 808.37 454.99 809.79 452.22 C 806.79 453.52 805.42 456.71 803.74 459.29 M 269.90 458.74 C 268.26 459.55 266.38 459.83 264.85 460.84 C 264.12 461.92 263.80 463.21 263.26 464.39 C 262.53 466.06 261.91 467.78 261.32 469.51 C 260.99 470.55 260.63 471.57 260.22 472.58 C 260.11 473.05 259.89 473.99 259.78 474.46 C 258.79 476.02 259.04 477.89 258.94 479.65 C 258.62 480.13 257.97 481.08 257.65 481.56 C 256.27 481.65 253.50 481.83 252.12 481.92 L 254.29 483.64 C 253.61 483.46 252.94 483.24 252.29 483.02 C 247.20 490.26 243.16 498.18 238.50 505.70 C 238.86 505.89 239.56 506.28 239.91 506.47 C 237.80 508.62 235.64 510.77 234.21 513.45 C 233.94 517.90 229.76 520.75 226.01 522.34 C 221.35 524.39 216.13 522.98 211.30 524.07 C 210.65 529.85 209.34 535.57 206.81 540.84 C 203.62 547.56 202.78 555.04 200.23 561.98 C 206.36 562.22 212.63 561.61 218.67 562.69 C 217.99 563.62 217.43 564.61 216.96 565.67 C 221.92 566.59 227.00 565.99 232.01 566.15 C 263.35 566.15 294.70 566.24 326.05 566.22 C 337.08 566.40 347.99 564.46 358.95 563.47 C 368.99 562.76 379.06 562.86 389.13 562.85 C 389.59 562.51 390.50 561.81 390.96 561.46 C 394.07 561.72 397.21 561.76 400.31 561.29 C 397.89 560.88 395.41 560.90 393.00 560.42 C 387.75 558.73 383.93 554.54 379.74 551.18 C 375.13 547.34 368.80 546.62 364.16 542.81 C 359.43 539.84 358.24 534.03 357.07 529.00 C 355.88 531.02 354.67 533.16 352.63 534.46 C 350.67 536.07 347.99 535.51 345.64 535.71 C 343.51 536.47 342.06 534.60 340.37 533.69 C 338.64 532.79 337.04 531.69 335.37 530.71 C 331.22 527.54 327.20 524.17 323.55 520.43 C 320.29 517.49 319.22 513.04 317.72 509.08 C 315.95 502.38 316.07 495.36 314.75 488.57 C 314.33 487.52 314.01 486.44 313.80 485.33 C 312.14 482.18 308.38 481.28 306.15 478.67 C 303.28 475.38 300.63 471.44 300.53 466.93 C 300.35 464.00 300.55 460.17 297.60 458.49 C 294.05 456.62 290.54 454.47 286.62 453.48 C 283.11 453.18 279.56 453.21 276.05 453.46 C 273.68 454.78 272.50 457.70 269.90 458.74 M 394.51 473.48 C 394.48 474.02 394.43 475.11 394.41 475.65 C 398.58 474.37 402.93 473.93 407.25 473.46 C 403.00 473.45 398.74 472.85 394.51 473.48 M 492.70 477.48 C 501.49 477.77 510.30 477.87 519.09 477.48 C 510.30 477.12 501.49 477.25 492.70 477.48 M 259.95 603.52 C 271.31 604.69 282.53 608.07 294.05 607.06 C 300.53 606.38 307.06 606.22 313.53 605.37 C 306.38 605.19 299.23 605.32 292.08 605.25 C 281.36 604.78 270.67 603.84 259.95 603.52 Z" />
<path fill="#e1c25e" opacity="1.00" d=" M 428.76 91.80 C 430.80 89.87 433.66 90.25 436.22 90.42 C 437.63 91.82 438.90 93.37 440.11 94.95 C 442.02 95.86 444.22 96.59 445.36 98.53 C 448.75 104.00 453.32 108.87 455.45 115.05 C 456.89 121.98 461.63 127.61 463.27 134.48 C 464.37 139.35 466.94 143.70 468.45 148.43 C 470.99 156.89 475.44 164.63 477.98 173.10 C 480.23 180.64 484.88 187.27 486.49 195.02 C 488.16 203.05 492.61 210.96 490.18 219.35 C 488.97 222.12 486.00 223.29 483.54 224.67 C 476.99 228.11 471.72 233.42 465.58 237.48 C 457.74 242.54 449.22 246.42 441.28 251.28 C 434.17 256.73 425.25 258.64 417.44 262.77 C 410.85 266.09 404.03 268.93 397.62 272.59 C 394.43 274.40 390.88 275.38 387.45 276.59 C 376.03 280.63 365.80 287.18 355.26 293.02 C 350.52 295.83 344.71 295.24 339.82 297.63 C 335.71 299.45 331.46 301.28 326.90 301.47 C 320.95 301.68 314.99 301.45 309.03 301.51 C 306.60 301.58 304.26 302.62 301.81 302.36 C 300.04 301.89 298.79 300.46 297.46 299.30 C 296.28 293.73 298.29 288.26 297.84 282.69 C 299.30 278.47 301.39 274.45 301.48 269.85 C 304.71 258.20 306.73 246.26 309.72 234.55 C 312.80 223.38 318.73 213.18 321.44 201.90 C 323.18 192.77 326.32 183.99 328.33 174.93 C 328.94 170.63 331.76 167.15 333.00 163.09 C 333.58 157.14 334.59 151.02 337.69 145.80 C 338.46 144.50 339.90 143.91 341.09 143.09 C 342.79 138.02 344.58 132.48 349.04 129.12 C 353.64 125.64 356.96 120.75 361.83 117.60 C 366.67 114.43 371.39 110.92 376.88 108.93 C 385.91 105.36 395.08 101.45 404.88 100.79 C 413.35 99.61 422.00 97.30 428.76 91.80 M 404.91 112.99 C 404.90 121.10 404.92 129.21 404.89 137.32 C 411.48 135.28 418.19 133.56 425.00 132.42 C 432.72 131.51 440.52 131.85 448.28 131.83 C 443.94 123.46 439.85 114.97 435.92 106.41 C 425.26 106.94 415.22 110.61 404.91 112.99 M 365.26 131.20 C 360.87 134.36 354.88 137.08 353.83 142.95 C 353.35 150.65 354.17 158.36 353.77 166.06 C 359.29 160.92 366.20 157.67 371.98 152.86 C 378.91 148.54 386.37 145.06 393.75 141.57 C 393.89 132.60 393.76 123.63 393.79 114.66 C 382.84 117.35 374.21 124.83 365.26 131.20 M 423.49 152.63 C 417.41 155.20 411.81 158.77 405.68 161.22 C 405.48 169.56 407.01 177.79 408.09 186.02 C 409.08 193.33 411.59 200.31 413.93 207.26 C 427.31 203.08 440.31 197.76 453.15 192.15 C 456.82 190.62 460.80 190.08 464.45 188.52 C 466.81 187.38 469.45 187.71 471.97 187.78 C 467.73 179.90 465.87 171.08 461.99 163.05 C 458.99 157.11 457.82 150.45 454.72 144.55 C 452.44 144.50 450.21 144.11 447.96 143.84 C 439.43 145.60 431.49 149.31 423.49 152.63 M 371.93 173.52 C 367.05 175.49 362.08 177.23 357.23 179.26 C 355.38 180.19 353.26 181.23 352.29 183.14 C 352.03 189.43 352.30 195.73 352.19 202.02 C 352.26 205.60 351.67 209.36 353.24 212.72 C 355.46 218.25 357.28 223.93 358.38 229.80 C 371.48 219.76 387.35 214.60 402.90 209.70 C 400.84 203.26 398.55 196.84 397.40 190.16 C 396.23 182.23 395.03 174.30 394.50 166.30 C 387.25 169.54 379.29 170.60 371.93 173.52 M 454.92 205.33 C 446.87 206.64 439.59 210.49 431.94 213.11 C 427.28 214.67 422.64 216.27 418.00 217.87 C 421.54 225.18 425.62 232.22 428.79 239.71 C 437.38 234.76 446.67 231.15 455.47 226.66 C 462.88 221.20 471.72 218.31 479.35 213.24 C 479.04 209.62 478.05 206.12 476.99 202.66 C 473.98 202.90 470.96 202.83 467.95 202.91 C 463.50 203.01 459.26 204.56 454.92 205.33 M 336.80 204.91 C 335.05 211.67 332.65 218.24 330.94 225.01 C 329.58 230.35 327.28 235.40 326.11 240.79 C 332.06 238.83 337.62 235.92 343.48 233.76 C 343.06 229.73 341.69 225.89 341.22 221.88 C 341.07 215.92 337.45 210.80 336.80 204.91 M 387.47 227.36 C 377.96 231.25 369.84 237.87 360.10 241.29 C 360.55 243.88 361.04 246.48 361.75 249.02 C 363.22 254.79 366.76 259.73 368.52 265.40 C 375.98 263.04 382.67 258.88 389.88 255.92 C 399.18 251.29 409.28 248.64 418.82 244.59 C 415.17 236.27 410.54 228.44 406.71 220.21 C 400.43 222.94 393.75 224.63 387.47 227.36 M 326.15 263.42 C 323.21 265.27 319.86 266.37 316.39 266.63 C 315.48 269.07 314.66 271.54 313.84 274.01 C 316.87 278.66 314.77 284.33 311.32 288.08 C 325.68 282.24 340.86 278.56 354.94 272.01 C 354.33 269.10 354.21 266.00 352.58 263.43 C 350.01 259.23 348.36 254.57 346.59 250.00 C 339.97 254.77 333.13 259.22 326.15 263.42 Z" />
<path fill="#e1c25e" opacity="1.00" d=" M 375.36 343.48 C 377.21 341.93 379.75 342.63 381.94 342.67 C 386.15 343.10 390.51 342.25 394.60 343.60 C 397.45 344.86 399.51 347.30 401.95 349.17 C 404.06 350.93 406.60 352.87 406.78 355.87 C 407.43 361.81 407.12 368.51 403.08 373.30 C 399.95 377.26 394.67 378.51 389.90 379.17 C 385.48 379.58 380.22 379.80 376.95 376.21 C 372.80 371.75 368.19 366.56 368.27 360.07 C 367.83 353.86 370.23 347.22 375.36 343.48 M 382.20 353.93 C 381.23 355.91 379.58 357.70 379.37 359.96 C 379.89 363.13 382.29 365.56 384.33 367.89 C 387.40 368.73 390.76 368.04 393.66 366.86 C 396.27 365.19 395.76 361.62 396.20 358.97 C 394.92 357.86 393.66 356.72 392.40 355.60 C 389.85 352.64 385.58 354.19 382.20 353.93 Z" />
<path fill="#e1c25e" opacity="1.00" d=" M 915.53 382.78 C 920.21 380.93 925.41 381.73 930.19 382.78 C 935.76 384.25 941.72 387.88 942.79 394.00 C 944.36 400.40 940.97 407.06 935.79 410.78 C 930.18 415.32 922.49 416.54 915.53 415.23 C 911.56 414.45 908.02 411.26 907.44 407.16 C 906.76 401.69 907.90 396.22 909.06 390.90 C 909.75 387.35 912.22 384.23 915.53 382.78 M 920.30 392.81 C 919.70 396.72 919.07 400.64 918.56 404.57 C 921.90 404.44 925.64 404.66 928.41 402.40 C 930.31 400.94 932.56 398.88 932.03 396.21 C 929.08 393.03 924.34 392.84 920.30 392.81 Z" />
<path fill="#e1c25e" opacity="1.00" d=" M 745.05 478.40 C 759.02 476.85 773.52 476.68 786.96 481.34 C 801.44 486.32 816.94 483.86 831.93 485.00 C 815.65 485.65 799.35 485.65 783.14 483.93 C 770.79 483.17 758.40 484.14 746.05 483.39 C 743.27 483.17 740.49 482.60 738.15 481.02 C 739.98 479.21 742.55 478.59 745.05 478.40 Z" />
<path fill="#e1c25e" opacity="1.00" d=" M 606.08 489.72 C 620.89 486.87 636.02 486.67 651.02 485.65 C 663.68 485.28 676.37 485.02 689.02 485.63 C 702.32 486.98 715.56 489.26 728.97 489.16 C 736.33 488.93 743.66 489.86 751.02 489.57 C 759.41 489.25 767.86 488.75 776.23 489.78 C 770.13 490.61 763.96 490.57 757.83 490.85 C 750.90 491.55 743.91 491.53 736.99 490.75 C 730.31 490.55 723.60 490.52 716.92 490.90 C 706.31 492.21 695.60 491.85 684.94 491.63 C 675.97 491.60 667.00 491.61 658.04 491.74 C 642.00 491.94 625.95 494.17 609.92 492.71 C 606.57 492.56 603.21 492.64 599.88 492.25 C 601.65 490.78 603.84 490.10 606.08 489.72 Z" />
<path fill="#e1c25e" opacity="1.00" d=" M 1420.51 489.67 C 1424.30 488.51 1428.48 489.20 1432.29 490.08 C 1428.38 489.55 1424.43 489.55 1420.51 489.67 Z" />
<path fill="#e1c25e" opacity="1.00" d=" M 926.27 492.41 C 935.86 491.93 945.37 490.31 954.99 490.25 C 970.61 489.45 986.29 489.65 1001.92 490.17 C 1010.26 490.29 1018.67 489.98 1026.95 491.23 C 1034.97 492.25 1042.93 493.83 1051.02 494.13 C 1061.35 494.45 1071.70 494.06 1082.03 494.54 C 1069.69 494.86 1057.34 494.72 1044.99 494.79 C 1005.42 493.92 965.64 497.91 926.27 492.41 Z" />
<path fill="#e1c25e" opacity="1.00" d=" M 836.07 509.41 C 848.95 507.94 862.08 507.66 874.87 510.08 C 879.80 511.08 884.82 511.50 889.76 512.48 C 885.14 512.67 880.59 513.55 875.96 513.57 C 869.92 513.77 863.95 512.65 857.93 512.32 C 848.83 511.15 839.63 511.87 830.49 511.60 C 832.17 510.49 833.99 509.49 836.07 509.41 Z" />
<path fill="#e1c25e" opacity="1.00" d=" M 1077.01 520.77 C 1094.53 518.55 1112.21 519.14 1129.79 520.02 C 1129.77 520.20 1129.73 520.56 1129.70 520.74 C 1119.72 522.06 1110.10 525.24 1100.13 526.66 C 1078.09 530.33 1055.51 530.68 1033.77 536.13 C 1032.68 536.07 1031.64 535.72 1030.60 535.53 C 1029.43 533.85 1029.25 531.84 1029.35 529.86 C 1031.29 528.22 1033.52 526.95 1036.05 526.49 C 1049.51 523.43 1063.31 522.28 1077.01 520.77 Z" />
<path fill="#e1c25e" opacity="1.00" d=" M 751.73 528.65 C 755.69 526.21 760.56 527.55 764.96 527.18 C 781.64 526.64 798.33 526.49 815.02 526.76 C 824.04 527.13 833.08 527.66 842.12 527.50 C 843.53 527.50 844.83 528.12 846.16 528.56 C 846.72 529.45 847.28 530.35 847.86 531.25 C 870.14 531.24 892.49 532.96 914.33 537.43 C 914.35 536.14 914.39 534.86 914.46 533.58 C 919.29 532.78 924.20 533.37 929.07 533.26 C 947.38 533.57 965.64 531.96 983.96 532.29 C 997.12 532.01 1010.25 532.89 1023.38 533.46 C 1000.97 535.23 978.44 534.45 956.05 536.57 C 947.15 537.45 938.21 537.78 929.28 538.28 C 931.93 539.53 932.33 543.67 928.90 544.07 C 924.26 544.06 919.67 543.23 915.08 542.70 C 896.77 540.81 878.35 540.52 859.95 540.28 C 851.60 540.17 843.23 540.34 834.90 539.61 C 831.85 539.38 830.47 535.48 827.15 536.04 C 804.12 535.35 781.04 535.60 758.01 536.21 C 755.23 536.29 752.18 535.81 750.58 533.29 C 750.58 532.41 750.60 531.53 750.62 530.67 C 750.90 530.17 751.45 529.16 751.73 528.65 Z" />
<path fill="#e1c25e" opacity="1.00" d=" M 1075.82 630.75 C 1082.41 627.26 1089.59 624.85 1096.93 623.53 C 1101.67 622.99 1106.90 622.44 1111.14 625.16 C 1108.03 630.06 1101.98 631.06 1096.85 632.57 C 1088.69 635.42 1080.44 638.07 1071.95 639.70 C 1060.71 643.01 1049.21 645.54 1038.31 649.89 C 1038.39 652.01 1039.41 653.79 1040.92 655.24 C 1049.66 651.66 1058.06 657.76 1066.14 660.39 C 1059.42 659.53 1052.67 661.25 1045.99 660.22 C 1043.06 659.86 1041.62 656.90 1038.93 656.01 C 1035.87 654.98 1034.45 651.83 1034.36 648.81 C 1036.46 645.74 1040.21 644.88 1043.51 643.72 C 1053.31 640.51 1063.32 638.00 1073.22 635.13 C 1073.78 633.53 1074.09 631.52 1075.82 630.75 Z" />
<path fill="#e1c25e" opacity="1.00" d=" M 1457.24 652.67 C 1468.09 650.72 1478.03 645.34 1489.09 644.26 C 1484.54 650.12 1476.76 651.35 1469.83 651.70 C 1465.60 651.76 1461.44 652.54 1457.24 652.67 Z" />
<path fill="#e1c25e" opacity="1.00" d=" M 1172.92 675.31 C 1179.88 673.80 1186.83 671.77 1194.02 671.87 C 1198.82 672.04 1203.53 673.09 1208.14 674.37 C 1197.56 677.82 1186.91 681.04 1176.10 683.69 C 1162.33 687.16 1148.01 685.90 1133.97 685.82 C 1130.93 685.80 1127.96 686.42 1124.97 686.78 C 1114.68 688.32 1104.28 686.47 1093.96 687.38 C 1088.91 687.60 1083.55 688.50 1078.78 686.38 C 1076.28 685.24 1073.66 682.94 1074.22 679.90 C 1074.14 677.58 1077.21 677.10 1078.98 677.48 C 1086.11 679.62 1093.62 679.42 1101.00 679.57 C 1110.19 679.26 1119.42 679.13 1128.54 677.80 C 1143.29 676.27 1158.35 678.77 1172.92 675.31 Z" />
<path fill="#e1c25e" opacity="1.00" d=" M 1278.00 691.63 C 1280.24 691.79 1282.02 690.33 1284.05 689.65 C 1296.71 689.35 1309.35 690.34 1321.99 691.00 C 1312.02 693.40 1302.33 697.36 1292.00 697.92 C 1288.51 698.27 1284.63 698.47 1281.72 696.20 C 1281.33 694.99 1280.93 693.79 1280.55 692.61 C 1267.91 692.18 1255.40 694.39 1242.80 694.64 C 1254.46 692.92 1266.23 692.16 1278.00 691.63 Z" />
</g>
<g id="#a492613a">
<path fill="#e1c25e" opacity="" d=" M 285.24 526.21 C 285.83 526.80 285.83 526.80 285.24 526.21 Z" />
</g>
</svg>
