<?xml version="1.0" encoding="UTF-8" ?>
<!DOCTYPE svg PUBLIC "-//W3C//DTD SVG 1.1//EN" "http://www.w3.org/Graphics/SVG/1.1/DTD/svg11.dtd">
<svg width="262pt" height="417pt" viewBox="0 0 262 417" version="1.1" xmlns="http://www.w3.org/2000/svg">
<g id="#000000ff">
<path fill="#000000" opacity="1.00" d=" M 111.40 9.38 C 113.05 6.96 115.61 5.38 118.10 3.94 C 120.50 4.73 122.62 6.78 125.32 6.15 C 128.46 5.48 131.28 6.91 133.73 8.72 C 136.96 7.71 140.45 8.97 143.57 7.53 C 145.82 6.69 148.26 6.97 150.56 7.40 C 154.94 8.35 159.45 7.96 163.89 7.98 C 164.38 8.94 164.87 9.90 165.36 10.86 C 167.81 10.97 170.30 11.10 172.66 11.84 C 177.00 13.14 181.75 12.57 185.84 14.72 C 186.44 14.12 187.03 13.53 187.64 12.93 C 189.37 13.62 191.11 14.36 192.97 14.66 C 196.54 14.45 199.73 12.43 203.31 12.38 C 205.66 12.22 207.94 11.55 210.25 11.12 C 211.05 16.08 206.22 18.39 204.34 22.31 C 200.71 29.23 195.45 35.77 194.85 43.84 C 193.87 50.42 190.08 56.13 188.57 62.57 C 186.15 72.09 185.31 81.93 183.58 91.58 C 182.48 97.44 179.70 102.84 178.73 108.73 C 177.05 117.30 175.41 125.88 173.33 134.36 C 171.23 140.50 168.44 146.48 167.01 152.82 C 168.42 156.84 173.11 156.82 176.60 157.43 C 180.48 157.93 183.11 161.18 186.78 162.20 C 191.71 163.86 195.32 167.94 200.18 169.75 C 204.15 171.10 206.85 174.42 210.22 176.72 C 216.53 181.01 221.68 186.79 225.95 193.08 C 230.08 197.94 233.39 203.52 235.40 209.59 C 237.16 215.15 239.58 220.50 240.79 226.23 C 241.88 234.80 239.98 243.31 239.75 251.86 C 239.44 257.49 236.54 263.78 240.03 268.94 C 243.32 273.79 245.10 279.55 248.99 284.01 C 251.39 287.26 255.13 289.88 255.80 294.12 C 256.33 298.08 258.68 301.74 257.98 305.84 C 256.52 313.57 252.48 320.55 247.72 326.72 C 245.51 329.27 242.66 331.26 239.59 332.66 C 235.73 333.08 231.84 333.33 227.99 333.90 C 223.56 333.52 219.11 332.71 214.94 331.11 C 216.58 335.56 215.37 340.45 217.12 344.88 C 218.35 348.28 217.99 351.93 218.00 355.48 C 220.47 355.65 222.02 357.68 221.90 360.11 C 221.85 365.31 223.73 370.21 224.77 375.24 C 225.66 384.56 224.89 394.08 222.05 403.01 C 221.30 405.78 218.16 404.95 216.01 405.08 C 212.66 405.23 209.52 403.80 206.83 401.92 C 200.78 404.16 197.62 410.85 191.07 412.07 C 182.71 415.25 175.15 408.16 166.87 408.14 C 163.77 408.20 160.83 404.61 157.89 406.79 C 153.48 409.61 148.37 411.52 143.15 411.93 C 138.75 410.36 134.67 407.98 130.53 405.84 C 127.19 406.99 124.05 408.64 120.75 409.90 C 119.16 410.45 117.74 409.29 116.40 408.63 C 112.62 406.29 108.41 404.55 103.96 404.10 C 100.32 403.65 96.47 403.36 93.28 401.36 C 91.85 406.16 86.97 409.24 82.06 409.04 C 77.66 408.95 72.79 409.80 68.99 407.00 C 65.03 404.08 61.48 400.39 59.10 396.05 C 58.81 391.44 64.12 389.72 65.98 386.06 C 69.12 380.54 74.64 376.30 75.80 369.79 C 76.54 365.04 80.91 361.24 79.90 356.22 C 79.07 350.99 79.03 345.03 74.94 341.10 C 70.87 337.86 65.88 336.07 61.31 333.68 C 51.22 328.97 40.12 335.23 29.73 332.27 C 24.60 331.20 20.53 327.63 16.71 324.28 C 13.31 321.37 12.53 316.66 9.63 313.38 C 8.31 311.76 6.44 310.23 6.50 307.94 C 6.64 303.52 7.07 299.02 8.87 294.92 C 13.74 281.97 19.11 268.46 17.68 254.34 C 18.05 245.63 15.91 236.89 11.75 229.23 C 8.70 223.99 9.06 217.65 6.87 212.09 C 4.40 205.67 6.57 198.60 10.03 192.99 C 11.30 190.52 14.27 189.94 16.23 188.21 C 19.81 185.15 23.34 182.01 26.37 178.40 C 32.74 172.93 39.13 167.11 47.10 164.07 C 52.74 162.00 58.30 159.71 63.98 157.73 C 65.40 153.55 63.37 149.27 64.47 145.07 C 65.02 142.42 65.02 139.71 65.07 137.03 C 66.69 136.19 68.32 135.37 69.97 134.60 C 69.35 122.08 75.37 110.66 77.65 98.62 C 79.07 93.67 82.16 89.44 84.10 84.72 C 84.22 82.97 83.99 81.21 84.33 79.48 C 87.22 74.04 90.49 68.78 93.30 63.30 C 95.28 56.14 96.10 48.71 97.38 41.40 C 98.88 37.25 103.58 35.24 104.91 30.95 C 106.83 23.72 106.89 15.67 111.40 9.38 M 116.01 12.64 C 113.96 16.73 116.67 20.96 116.90 25.15 C 117.35 32.11 118.11 39.05 118.13 46.03 C 119.83 57.94 118.65 70.02 119.03 82.02 C 119.45 88.28 117.18 94.45 118.35 100.70 C 119.29 105.50 118.74 110.45 119.73 115.25 C 120.41 122.18 119.32 129.21 120.93 136.06 C 123.13 145.78 121.09 155.81 122.41 165.59 C 124.20 170.82 123.55 176.46 125.29 181.68 C 126.56 186.12 126.57 191.20 129.97 194.72 C 129.79 187.01 127.78 179.21 129.76 171.55 C 130.88 172.48 132.01 173.43 133.13 174.36 C 132.96 179.57 132.99 184.79 133.00 190.00 C 133.48 190.01 134.44 190.01 134.92 190.01 C 134.83 185.96 135.36 181.95 135.89 177.95 C 135.96 172.67 136.34 167.34 137.95 162.28 C 138.00 169.90 135.51 177.72 137.73 185.26 C 139.03 188.14 139.05 191.31 139.17 194.42 C 140.98 191.77 144.00 189.73 144.27 186.30 C 146.42 174.96 149.21 163.58 149.08 151.98 L 150.00 152.00 C 150.67 165.65 147.58 179.10 144.12 192.21 C 145.38 192.60 146.64 192.96 147.91 193.31 C 147.45 183.12 149.89 172.65 156.13 164.43 C 154.47 170.39 153.45 176.50 152.92 182.66 C 155.36 177.38 157.26 171.88 159.44 166.49 C 161.22 157.54 163.49 148.68 165.90 139.87 C 170.94 125.83 171.37 110.62 176.55 96.62 C 178.91 89.60 179.23 82.13 181.00 74.98 C 183.96 65.87 184.60 56.16 188.19 47.23 C 190.35 41.26 190.56 34.56 194.11 29.14 C 195.73 26.84 195.99 24.02 196.16 21.30 C 195.01 22.11 193.34 22.63 193.18 24.27 C 191.31 31.03 189.43 38.01 184.94 43.59 C 184.65 42.14 183.87 40.69 184.19 39.18 C 185.34 33.67 187.39 28.40 189.20 23.08 C 185.76 22.17 182.25 20.41 178.72 22.08 C 178.08 21.48 177.44 20.89 176.80 20.29 C 174.67 21.30 172.39 22.10 170.01 21.55 C 170.17 25.40 169.06 29.15 169.03 32.99 C 169.12 39.35 167.64 45.64 165.52 51.61 C 164.11 46.64 163.45 41.41 164.28 36.28 C 165.29 31.06 164.76 25.68 166.14 20.51 C 161.39 20.08 157.79 14.45 152.79 16.80 C 150.70 16.26 148.56 15.98 146.43 15.71 C 146.28 16.59 145.99 18.37 145.85 19.25 C 144.97 18.45 144.11 17.65 143.24 16.85 C 142.14 17.53 141.09 18.30 139.91 18.85 C 137.94 18.56 136.03 18.01 134.06 17.70 C 134.01 23.75 133.70 29.81 134.16 35.85 C 135.30 42.25 135.44 48.87 134.28 55.28 C 133.67 59.83 134.07 64.43 134.02 69.00 L 133.05 69.00 C 133.04 64.56 133.21 60.09 132.32 55.72 C 131.61 48.84 132.20 41.90 132.04 35.00 C 132.12 29.42 131.51 23.73 133.11 18.30 C 130.91 17.75 128.68 17.29 126.54 16.55 C 125.49 15.46 124.58 14.25 123.62 13.09 C 121.08 12.99 118.54 12.82 116.01 12.64 M 106.72 36.72 C 104.06 40.13 103.41 44.54 102.63 48.67 C 101.88 51.74 99.86 55.08 101.82 58.13 C 103.72 61.44 103.06 65.37 103.16 69.00 C 102.90 77.05 103.84 85.20 102.18 93.15 C 101.96 99.06 101.87 105.03 100.16 110.76 C 99.73 97.65 100.32 84.52 99.88 71.41 C 98.62 72.88 97.42 74.41 96.34 76.02 C 95.89 74.56 95.44 73.10 94.81 71.71 C 92.66 72.17 92.20 74.63 91.41 76.35 C 91.42 81.57 93.14 86.70 93.03 91.95 C 92.95 97.55 93.23 103.16 92.84 108.75 C 90.62 101.75 91.23 94.39 90.67 87.18 C 88.18 89.05 86.83 91.90 85.77 94.74 C 84.42 98.81 83.34 103.24 84.93 107.40 C 83.32 108.38 81.67 109.33 80.28 110.61 C 79.09 112.32 78.86 114.45 78.44 116.43 C 76.99 127.96 79.21 139.44 80.16 150.91 C 80.00 153.24 82.47 154.25 83.90 155.62 C 85.88 150.66 84.23 145.28 85.40 140.20 C 86.26 144.80 85.64 149.94 88.47 153.97 C 89.52 147.37 88.78 140.66 89.02 134.01 L 89.99 134.02 C 90.03 138.95 89.74 143.91 90.10 148.84 C 90.38 151.97 93.84 152.74 96.20 153.88 C 99.58 153.51 103.28 152.06 106.02 154.95 C 106.08 148.96 106.03 142.96 105.79 136.97 C 109.16 142.49 108.88 149.33 109.06 155.59 C 112.56 158.56 115.17 162.36 117.14 166.49 C 114.83 156.09 117.14 145.37 115.11 134.94 C 114.84 122.62 115.14 110.29 115.02 97.96 C 112.63 80.06 115.28 61.86 113.08 43.92 C 113.14 38.00 112.99 32.07 111.42 26.31 C 109.77 29.74 109.12 33.66 106.72 36.72 M 79.69 164.40 C 73.42 166.15 67.78 169.56 61.49 171.23 C 56.08 172.80 50.30 172.84 45.03 174.92 C 41.22 176.56 37.89 179.16 34.97 182.08 C 38.60 182.47 42.29 182.71 45.93 182.31 C 50.09 181.64 54.20 179.73 58.49 180.58 C 62.23 182.05 62.04 186.90 62.94 190.20 C 69.29 191.21 75.95 192.53 82.21 190.29 C 82.47 187.80 82.32 185.04 83.94 182.96 C 85.17 181.14 87.71 181.54 89.57 180.93 C 88.85 179.24 88.12 177.56 87.36 175.89 C 91.77 171.66 98.08 170.14 103.97 169.42 C 101.99 174.23 96.18 174.32 92.08 176.28 C 93.54 176.89 95.01 177.46 96.49 178.03 C 96.54 179.57 96.60 181.10 96.68 182.63 C 93.29 183.58 89.86 184.37 86.40 184.99 C 87.83 190.60 87.61 196.39 87.57 202.13 C 92.08 203.23 96.72 203.78 101.19 205.04 C 104.81 206.01 107.45 211.57 104.01 214.20 C 102.41 212.13 101.21 209.78 99.90 207.53 C 96.38 207.33 92.54 208.48 89.29 206.66 C 87.66 205.75 85.59 205.18 84.58 203.50 C 84.25 200.34 84.47 197.16 84.44 193.99 C 75.90 194.79 67.14 195.05 58.64 193.76 C 58.08 190.43 59.54 186.27 56.91 183.64 C 51.84 184.05 47.06 186.31 41.94 186.52 C 39.01 186.64 36.08 186.55 33.15 186.57 C 27.64 193.74 21.65 200.55 15.18 206.87 C 21.85 214.67 24.41 224.98 25.77 234.92 C 26.25 238.07 28.82 240.63 28.56 243.94 C 28.58 254.32 28.50 264.69 28.59 275.06 C 28.54 277.01 28.71 279.10 27.69 280.87 C 24.72 286.83 19.79 291.72 17.69 298.14 C 16.67 303.30 18.60 308.38 21.08 312.82 C 23.01 315.81 26.44 317.16 29.48 318.73 C 33.73 320.77 37.97 323.33 42.80 323.57 C 47.93 324.20 52.97 322.61 58.09 322.66 C 63.18 322.32 67.89 325.00 73.00 324.45 C 81.92 323.68 89.25 329.96 95.79 335.13 C 94.84 335.82 93.86 336.47 92.85 337.08 C 89.02 335.78 85.49 333.70 81.57 332.66 C 84.00 337.51 86.23 342.50 87.36 347.84 C 92.13 348.13 97.08 347.41 101.60 349.36 C 100.62 351.40 99.39 353.31 98.13 355.19 C 95.25 354.50 92.33 353.98 89.37 353.79 C 89.84 355.20 90.34 356.60 90.83 358.01 C 95.38 357.78 100.01 357.79 104.23 359.74 C 111.65 359.47 119.10 356.67 126.55 358.41 C 129.98 359.57 133.38 362.58 137.17 361.20 C 141.58 359.88 146.25 359.70 150.81 360.13 C 153.53 360.85 155.74 362.72 158.21 363.99 C 163.72 361.68 169.61 359.52 175.71 360.20 C 179.47 360.86 183.29 361.17 187.09 361.54 C 191.40 359.18 195.93 357.26 200.73 356.12 C 198.00 355.73 195.25 355.52 192.52 355.27 C 194.45 352.62 196.82 349.85 200.22 349.23 C 204.21 348.45 208.11 347.27 212.08 346.39 C 210.64 342.41 209.71 338.27 209.89 334.01 C 210.13 330.74 206.81 328.99 204.91 326.84 C 202.47 327.18 200.30 328.43 198.15 329.55 C 198.10 327.81 198.03 326.07 197.97 324.33 C 205.13 321.50 212.96 320.74 220.56 321.73 C 224.33 322.35 227.56 324.54 231.18 325.57 C 234.72 326.00 238.78 326.14 241.73 323.79 C 244.57 322.11 245.64 318.78 246.82 315.89 C 248.93 309.57 251.65 302.96 250.15 296.18 C 248.20 289.73 242.38 285.76 238.36 280.69 C 235.46 277.30 231.74 274.16 230.56 269.71 C 230.35 261.49 230.11 253.19 231.26 245.02 C 232.13 238.04 230.74 231.12 230.13 224.19 C 228.36 216.42 224.87 209.16 220.76 202.37 C 217.75 196.80 215.05 190.98 210.95 186.09 C 203.28 177.01 191.63 172.95 181.07 168.30 C 176.70 170.34 172.00 171.77 167.14 171.73 C 167.04 175.72 166.48 179.69 165.68 183.60 C 164.31 186.33 159.55 185.81 159.14 189.18 C 159.23 194.96 157.53 200.66 154.64 205.64 C 152.75 208.74 149.18 210.11 145.81 210.89 C 143.48 211.17 141.46 209.29 139.14 209.43 C 134.10 210.31 129.24 207.54 125.28 204.74 C 122.79 200.01 121.87 194.68 120.79 189.50 C 119.77 183.83 116.11 179.18 114.16 173.85 C 113.02 171.20 112.20 168.07 109.65 166.38 C 106.60 164.26 103.36 162.28 99.80 161.16 C 97.20 160.82 94.57 160.91 91.96 160.98 C 87.62 160.99 83.78 163.25 79.69 164.40 M 199.80 355.66 C 202.77 356.03 205.77 356.06 208.76 355.89 C 206.04 353.67 202.71 353.97 199.80 355.66 M 197.29 363.23 C 194.42 364.77 197.02 368.23 197.48 370.51 C 199.02 377.61 200.49 384.78 201.21 392.01 C 202.29 391.99 203.38 391.97 204.46 391.96 C 205.68 390.33 207.16 388.98 209.17 388.50 C 210.34 390.73 211.59 392.93 213.05 395.00 C 213.79 395.00 215.28 395.01 216.02 395.02 C 217.55 389.87 217.39 384.32 215.80 379.20 C 214.30 374.31 215.70 369.07 214.07 364.20 C 208.57 363.03 202.89 362.49 197.29 363.23 M 102.73 367.69 C 101.15 369.89 99.63 372.58 100.48 375.38 C 101.50 380.98 100.97 386.86 98.08 391.85 C 104.86 392.43 110.50 396.71 117.11 397.83 C 120.31 397.56 123.49 396.67 126.41 395.36 C 128.83 387.33 129.82 378.72 128.86 370.37 C 126.52 367.45 123.21 365.04 119.42 364.56 C 113.69 363.24 107.96 365.57 102.73 367.69 M 135.17 369.29 C 134.86 378.15 134.76 387.04 135.71 395.87 C 136.25 399.80 139.66 402.46 143.25 403.58 C 147.32 402.21 151.06 399.89 154.72 397.68 C 156.56 388.12 156.18 378.27 155.75 368.61 C 153.71 367.04 151.82 364.64 148.97 364.94 C 143.86 364.15 139.56 367.27 135.17 369.29 M 88.17 365.93 C 83.83 369.61 84.61 375.92 81.16 380.14 C 78.78 383.08 75.59 385.34 73.68 388.67 C 72.16 391.40 69.58 393.40 68.42 396.35 C 70.23 397.73 72.10 399.05 74.00 400.31 C 77.53 398.69 81.29 397.59 84.66 395.64 C 87.63 393.97 87.51 390.16 88.28 387.26 C 89.82 380.97 91.22 374.66 92.19 368.26 C 90.85 367.49 89.50 366.72 88.17 365.93 M 169.40 368.32 C 165.14 369.41 162.98 373.37 159.86 376.05 C 161.67 381.43 160.54 387.13 161.28 392.64 C 164.96 399.08 172.45 403.30 179.93 403.16 C 183.83 403.81 187.94 403.41 191.41 401.38 C 194.49 400.03 196.62 396.56 195.94 393.18 C 194.79 386.54 193.51 379.63 189.63 373.97 C 184.11 369.44 176.50 366.93 169.40 368.32 Z" />
<path fill="#000000" opacity="1.00" d=" M 180.24 33.29 C 180.81 33.86 180.81 33.86 180.24 33.29 Z" />
<path fill="#000000" opacity="1.00" d=" M 177.13 48.16 C 177.83 44.15 178.45 40.07 180.02 36.29 C 179.84 42.65 177.57 48.75 177.12 55.09 C 176.96 62.42 175.97 69.69 174.97 76.94 C 174.88 78.95 173.52 80.51 172.36 82.02 C 173.42 70.67 175.33 59.41 177.13 48.16 Z" />
<path fill="#000000" opacity="1.00" d=" M 108.24 40.25 C 108.81 40.82 108.81 40.82 108.24 40.25 Z" />
<path fill="#000000" opacity="1.00" d=" M 108.04 47.98 L 109.01 48.02 C 109.01 53.10 109.00 58.19 108.99 63.27 L 108.02 63.25 C 108.05 58.16 108.04 53.07 108.04 47.98 Z" />
<path fill="#000000" opacity="1.00" d=" M 107.01 75.00 C 107.05 71.05 106.62 67.02 107.62 63.15 C 108.14 68.10 108.09 73.10 108.89 78.02 C 109.09 89.68 108.88 101.34 108.98 113.00 C 109.18 117.98 108.10 122.96 109.05 127.91 L 108.20 128.03 C 107.73 125.05 106.99 122.08 107.02 119.04 C 107.03 104.36 107.07 89.68 107.01 75.00 Z" />
<path fill="#000000" opacity="1.00" d=" M 156.07 86.99 L 157.00 87.00 C 157.47 95.91 156.28 104.73 155.56 113.58 C 154.44 119.61 154.70 125.94 152.72 131.78 C 152.87 121.18 154.92 110.74 155.23 100.15 C 156.02 95.81 156.16 91.40 156.07 86.99 Z" />
<path fill="#000000" opacity="1.00" d=" M 171.09 87.27 C 174.39 87.44 169.56 90.29 171.09 87.27 Z" />
<path fill="#000000" opacity="1.00" d=" M 141.07 122.99 C 142.62 111.44 141.96 99.60 144.88 88.24 C 145.57 94.82 143.64 101.27 143.77 107.85 C 142.55 113.60 143.43 119.52 142.28 125.28 C 141.33 131.39 143.30 138.02 140.10 143.69 C 141.34 136.85 140.98 129.90 141.07 122.99 Z" />
<path fill="#000000" opacity="1.00" d=" M 84.97 115.08 C 87.29 118.49 87.50 122.73 88.06 126.68 C 86.23 123.09 85.27 119.09 84.97 115.08 Z" />
<path fill="#000000" opacity="1.00" d=" M 88.10 128.26 C 91.40 128.45 86.55 131.28 88.10 128.26 Z" />
<path fill="#000000" opacity="1.00" d=" M 99.15 133.27 C 101.56 138.06 100.93 143.55 101.61 148.72 C 99.34 143.90 100.02 138.40 99.15 133.27 Z" />
<path fill="#000000" opacity="1.00" d=" M 140.24 189.41 C 140.81 189.98 140.81 189.98 140.24 189.41 Z" />
<path fill="#000000" opacity="1.00" d=" M 75.56 240.55 C 79.16 237.82 83.78 237.21 88.09 236.36 C 92.96 237.14 97.90 236.86 102.81 237.14 C 107.06 238.38 110.52 241.36 113.92 244.09 C 115.92 245.71 118.33 247.15 119.32 249.66 C 122.57 257.17 124.71 265.31 123.99 273.56 C 118.81 277.19 117.82 284.06 113.30 288.29 C 109.48 291.99 104.54 295.12 99.04 295.03 C 94.47 294.97 89.65 295.61 85.35 293.65 C 75.77 289.35 68.62 280.58 65.16 270.78 C 64.79 263.30 64.32 255.46 67.39 248.43 C 69.68 245.41 72.48 242.75 75.56 240.55 Z" />
<path fill="#000000" opacity="1.00" d=" M 182.38 239.36 C 186.22 238.64 190.17 239.04 194.06 238.97 C 198.79 238.70 202.78 241.91 205.96 245.04 C 209.29 248.33 208.95 253.30 210.67 257.38 C 212.89 263.09 213.86 269.42 212.46 275.45 C 210.58 283.86 204.68 291.52 196.42 294.42 C 188.93 296.45 181.10 294.37 174.66 290.33 C 167.48 287.07 163.36 279.66 161.74 272.25 C 160.31 267.29 161.28 262.11 161.49 257.07 C 161.48 254.03 164.40 252.30 166.05 250.10 C 169.85 244.56 176.14 241.36 182.38 239.36 Z" />
<path fill="#000000" opacity="1.00" d=" M 221.15 241.21 C 224.13 239.16 228.44 241.34 228.83 244.89 C 227.62 249.60 225.18 254.02 224.97 258.96 C 224.96 261.58 223.55 263.83 222.42 266.09 C 223.29 268.58 224.21 271.06 224.83 273.63 C 219.07 270.06 216.15 263.36 215.05 256.91 C 214.23 251.16 215.92 244.39 221.15 241.21 Z" />
<path fill="#000000" opacity="1.00" d=" M 40.85 247.07 C 41.61 245.08 43.32 243.77 44.91 242.49 C 51.12 246.75 55.75 253.07 58.96 259.80 C 60.81 266.45 60.68 273.96 57.03 280.01 C 55.69 280.01 54.36 280.01 53.02 280.03 C 52.18 278.56 50.52 277.15 51.25 275.29 C 52.24 270.01 53.08 263.97 49.63 259.37 C 47.42 254.70 41.70 252.47 40.85 247.07 Z" />
<path fill="#000000" opacity="1.00" d=" M 151.32 252.37 C 152.34 250.20 155.15 251.26 157.04 250.81 C 158.31 253.01 158.86 255.45 157.98 257.90 C 156.68 261.89 157.83 266.56 155.08 270.03 C 156.12 274.19 157.83 278.13 159.99 281.82 C 159.39 282.23 158.18 283.06 157.58 283.47 C 155.55 281.02 154.15 278.17 152.49 275.49 C 151.34 273.62 149.60 272.00 149.11 269.81 C 148.48 263.93 149.44 257.95 151.32 252.37 Z" />
<path fill="#000000" opacity="1.00" d=" M 134.95 287.94 C 136.54 285.55 139.19 284.23 141.41 282.52 C 142.86 284.24 144.19 286.11 144.58 288.39 C 145.83 294.44 147.67 300.50 147.33 306.74 C 145.62 311.85 143.50 317.15 144.98 322.63 C 146.02 325.76 143.32 328.30 141.00 329.93 C 137.06 333.47 130.31 333.37 126.74 329.29 C 122.65 326.35 122.30 320.91 123.31 316.40 C 125.64 311.78 129.50 307.90 130.75 302.76 C 131.74 297.75 131.70 292.16 134.95 287.94 Z" />
<path fill="#000000" opacity="1.00" d=" M 151.02 286.28 C 153.60 283.11 157.54 286.17 159.55 288.41 C 163.14 293.22 167.14 297.83 169.67 303.33 C 173.21 311.02 179.78 317.46 180.57 326.25 C 181.14 329.34 178.91 331.78 177.45 334.24 C 174.02 334.13 170.67 335.30 167.24 334.92 C 163.90 333.82 160.85 331.94 157.99 329.92 C 158.43 320.34 157.42 310.69 154.49 301.54 C 153.63 296.39 151.16 291.53 151.02 286.28 Z" />
<path fill="#000000" opacity="1.00" d=" M 214.84 295.68 C 216.63 295.93 218.63 295.68 220.23 296.68 C 224.48 299.30 228.78 301.81 233.16 304.21 C 232.79 304.68 232.05 305.61 231.68 306.07 C 226.52 304.57 220.39 305.66 216.11 301.83 C 214.12 300.38 214.86 297.75 214.84 295.68 Z" />
<path fill="#000000" opacity="1.00" d=" M 65.21 300.19 C 69.30 299.82 73.45 299.40 77.53 300.10 C 76.39 304.64 72.11 307.15 68.35 309.34 C 63.12 312.51 56.91 313.15 50.99 313.95 C 45.58 313.20 39.69 312.32 35.39 308.66 C 35.47 307.31 35.79 305.98 36.02 304.65 C 40.54 306.38 45.20 310.29 50.27 308.44 C 55.44 306.08 59.48 301.34 65.21 300.19 Z" />
<path fill="#000000" opacity="1.00" d=" M 111.97 320.21 C 113.07 317.63 115.09 315.27 118.05 315.05 C 119.27 320.01 119.29 325.39 121.88 329.93 C 125.36 335.23 131.04 338.76 137.19 340.13 C 134.06 340.49 130.87 340.62 127.76 340.09 C 123.82 339.35 121.54 335.74 118.70 333.29 C 116.92 331.40 114.09 330.33 113.38 327.63 C 112.68 325.21 111.88 322.75 111.97 320.21 Z" />
<path fill="#000000" opacity="1.00" d=" M 189.50 320.46 C 190.78 319.13 193.08 320.45 192.99 322.17 C 193.16 325.74 192.33 329.44 190.66 332.60 C 185.62 335.66 183.07 341.13 179.94 345.89 C 180.93 343.50 181.97 341.15 182.97 338.77 C 181.81 338.26 180.65 337.76 179.49 337.25 C 180.73 335.88 182.04 334.58 183.21 333.14 C 186.16 329.35 186.00 323.87 189.50 320.46 Z" />
<path fill="#000000" opacity="1.00" d=" M 104.05 354.29 C 109.31 349.74 116.64 347.57 123.43 349.57 C 127.17 350.70 130.08 353.49 132.73 356.24 C 131.80 356.88 130.86 357.48 129.89 358.05 C 126.34 356.67 123.00 354.26 119.02 354.48 C 114.91 354.09 110.94 355.24 107.17 356.75 C 106.13 355.92 105.09 355.11 104.05 354.29 Z" />
<path fill="#000000" opacity="1.00" d=" M 168.74 350.78 C 175.10 348.34 182.99 348.50 188.35 353.29 C 186.56 354.62 185.05 357.75 182.42 356.64 C 177.62 355.07 172.54 354.52 167.68 356.21 C 167.25 354.24 166.31 351.79 168.74 350.78 Z" />
<path fill="#000000" opacity="1.00" d=" M 141.78 353.87 C 142.86 351.35 145.81 352.04 148.00 351.92 C 152.80 351.69 157.60 353.54 160.81 357.15 C 157.39 361.17 153.11 356.84 149.10 356.59 C 146.81 355.92 145.74 358.50 144.19 359.63 C 142.71 358.12 140.31 356.18 141.78 353.87 Z" />
</g>
</svg>
