<?xml version="1.0" encoding="UTF-8" ?>
<!DOCTYPE svg PUBLIC "-//W3C//DTD SVG 1.1//EN" "http://www.w3.org/Graphics/SVG/1.1/DTD/svg11.dtd">
<svg width="701pt" height="333pt" viewBox="0 0 701 333" version="1.1" xmlns="http://www.w3.org/2000/svg">
<g id="#000000ff">
<path fill="#000000" opacity="1.00" d=" M 68.63 12.60 C 72.58 8.62 78.58 7.55 83.89 9.01 C 98.39 12.39 113.26 13.73 127.74 17.14 C 142.37 20.94 156.58 26.28 171.45 29.17 C 182.63 31.22 193.87 32.96 205.05 35.02 C 207.41 35.45 210.10 36.74 210.58 39.36 C 211.58 44.09 211.28 49.01 212.53 53.71 C 213.95 59.22 214.06 64.99 215.69 70.44 C 215.91 71.72 217.31 72.03 218.31 72.49 C 235.69 79.48 253.60 85.06 270.98 92.06 C 290.73 100.15 310.89 107.19 331.25 113.58 C 348.82 119.12 366.44 124.58 383.57 131.41 C 390.75 134.38 398.01 137.14 405.35 139.68 C 406.61 140.27 408.38 140.57 408.64 142.23 C 410.83 148.58 412.01 155.21 413.68 161.70 C 423.76 163.95 433.61 167.07 443.68 169.35 C 456.08 173.44 469.05 175.42 481.50 179.35 C 489.25 181.18 497.12 182.55 504.72 184.99 C 519.55 190.02 535.44 190.40 550.49 194.51 C 556.44 197.56 562.09 202.03 564.77 208.34 C 572.42 210.36 580.25 211.55 587.93 213.39 C 594.49 215.80 601.38 217.19 608.26 218.33 C 611.89 218.91 616.74 218.25 618.96 221.89 C 619.94 225.62 619.51 229.61 620.18 233.43 C 629.09 233.89 638.01 234.18 646.93 234.49 C 650.05 234.34 651.92 237.19 654.07 238.97 C 657.71 238.18 661.46 237.85 665.07 236.94 C 668.78 232.12 674.60 228.16 680.97 229.56 C 689.94 232.11 694.28 243.14 691.48 251.58 C 689.40 256.63 686.03 261.75 680.67 263.68 C 677.04 265.20 672.50 266.57 669.00 264.00 C 665.55 262.15 664.02 258.40 662.28 255.13 C 656.03 255.47 650.36 258.71 644.07 258.58 C 633.89 259.05 623.67 260.53 613.48 259.40 C 611.49 261.40 609.98 263.96 607.67 265.60 C 595.54 269.74 582.57 269.01 569.98 270.29 C 566.63 270.74 563.36 269.90 560.09 269.39 C 557.79 270.69 556.22 272.99 553.92 274.30 C 549.59 275.12 545.34 273.08 541.00 273.76 C 533.04 274.78 525.00 274.67 517.02 274.19 C 507.05 272.97 496.95 273.24 486.99 274.30 C 478.33 274.91 469.63 274.25 460.98 274.99 C 456.30 275.52 451.64 274.70 446.97 274.65 C 440.03 274.34 433.08 275.21 426.16 274.50 C 420.17 273.89 414.11 273.05 408.10 273.80 C 405.26 275.97 405.88 281.15 402.04 282.12 C 397.81 284.04 393.21 284.51 388.67 283.58 C 387.57 283.38 386.49 283.43 385.42 283.72 C 379.59 284.92 373.59 284.48 367.72 285.36 C 346.53 287.87 325.35 290.90 304.00 291.63 C 291.02 292.61 278.02 293.39 265.00 293.85 C 251.00 295.24 236.78 293.25 222.92 296.14 C 214.77 296.50 206.66 297.44 198.51 297.57 C 195.39 302.36 191.02 306.21 188.14 311.17 C 185.24 315.68 183.58 320.97 180.03 325.06 C 178.09 327.62 174.63 325.94 171.99 325.94 C 162.63 325.44 153.25 325.21 143.88 325.21 C 147.49 324.73 151.13 324.66 154.77 324.52 C 151.55 323.84 148.26 324.82 145.01 324.71 C 135.84 324.43 126.61 324.41 117.55 322.80 C 112.03 322.12 106.65 320.33 101.04 320.52 C 90.62 320.56 80.25 319.47 70.00 317.75 C 60.65 318.00 52.88 311.52 47.18 304.76 C 43.84 300.48 39.25 297.20 36.75 292.29 C 32.65 284.89 29.24 277.15 25.54 269.55 C 20.76 255.49 17.19 241.03 14.32 226.46 C 13.03 219.68 11.17 212.95 11.19 206.00 C 10.38 189.82 9.22 173.42 12.19 157.39 C 13.01 151.61 12.33 145.77 12.62 139.96 C 13.52 132.72 14.02 125.39 16.15 118.37 C 18.36 111.54 16.75 104.10 19.44 97.39 C 22.42 89.90 25.06 82.20 29.29 75.30 C 32.83 69.62 33.68 62.80 36.96 56.99 C 39.58 50.01 43.46 43.63 47.27 37.25 C 50.42 31.90 55.38 27.98 58.94 22.94 C 61.63 19.02 65.14 15.79 68.63 12.60 M 74.57 17.32 C 69.05 22.24 64.64 28.22 59.45 33.46 C 57.95 35.29 55.70 36.77 55.07 39.15 L 54.16 39.23 L 53.64 40.17 L 54.05 40.99 C 53.85 41.31 53.46 41.95 53.26 42.27 L 52.35 42.28 L 51.75 43.18 L 52.10 44.02 C 48.50 47.78 46.42 52.72 44.35 57.42 C 42.10 62.62 38.61 67.19 36.67 72.54 C 33.11 80.88 30.06 89.42 26.90 97.92 C 25.71 100.84 27.07 104.09 25.91 107.02 C 24.35 111.59 22.32 116.09 22.25 121.01 C 19.27 140.24 16.53 159.56 15.75 179.00 C 16.70 186.31 16.57 193.69 17.45 201.00 C 17.29 209.33 19.30 217.42 21.19 225.45 C 21.34 236.26 27.18 245.84 28.63 256.41 C 30.44 264.63 35.12 271.77 38.61 279.33 C 42.01 284.36 45.60 289.32 48.08 294.91 C 49.11 297.72 51.81 299.22 53.74 301.32 C 56.25 303.77 58.35 306.76 61.46 308.50 C 64.80 310.10 69.11 310.54 72.27 308.31 C 78.32 304.48 84.57 300.80 89.65 295.66 C 96.08 290.10 99.97 282.40 104.12 275.13 C 107.59 269.32 109.39 262.72 112.66 256.80 C 116.51 249.69 118.51 241.82 121.45 234.33 C 123.61 228.76 125.14 222.97 126.03 217.06 C 128.27 208.19 129.54 199.11 129.80 189.97 C 131.78 177.72 129.59 165.31 130.72 153.01 C 130.78 149.00 130.62 144.98 130.98 140.97 C 130.84 129.95 129.69 118.97 129.26 107.95 C 129.05 102.52 125.96 97.88 124.34 92.84 C 123.08 88.83 121.44 84.95 119.69 81.13 C 117.52 76.39 116.71 71.19 114.69 66.39 C 111.88 58.99 107.43 52.40 103.36 45.66 C 100.02 40.09 95.22 35.57 92.08 29.87 C 88.98 24.45 84.29 19.97 78.66 17.26 C 77.38 16.62 75.64 15.91 74.57 17.32 M 92.19 18.07 C 94.66 21.21 97.12 24.38 99.21 27.79 C 101.96 32.28 105.59 36.12 108.52 40.47 C 112.21 46.20 115.59 52.12 118.85 58.09 C 122.48 65.01 123.70 72.85 126.93 79.93 C 129.91 86.47 132.09 93.32 134.80 99.97 C 137.36 106.02 136.01 112.72 137.16 119.04 C 137.90 133.00 138.13 147.02 137.36 161.00 C 137.66 171.32 138.22 181.71 136.73 191.98 C 136.49 200.71 135.15 209.38 133.02 217.85 C 131.53 227.44 128.44 236.72 124.67 245.64 C 121.91 252.94 121.10 261.05 116.77 267.70 C 109.42 279.27 101.87 290.73 93.80 301.79 C 89.57 306.04 84.59 309.40 80.09 313.34 C 90.41 315.40 101.11 313.33 111.40 315.70 C 119.84 317.31 128.40 318.48 137.02 318.41 C 141.36 318.36 145.64 319.28 149.99 319.27 C 158.97 319.13 167.94 320.16 176.93 319.53 C 179.02 315.24 181.10 310.91 184.06 307.14 C 188.72 297.72 194.63 288.94 199.60 279.65 C 203.69 272.15 204.78 263.55 207.31 255.49 C 208.66 248.59 211.84 242.18 212.80 235.20 C 214.06 224.15 215.49 213.10 215.67 201.97 C 216.12 196.65 217.23 191.41 217.61 186.08 C 218.75 176.77 218.14 167.38 218.44 158.03 C 217.03 137.20 216.74 116.15 211.88 95.74 C 210.03 81.69 208.72 67.46 204.84 53.79 C 204.44 50.01 204.51 46.17 203.62 42.45 C 189.10 38.58 173.95 37.72 159.46 33.67 C 145.61 30.42 132.42 24.48 118.25 22.67 C 109.61 20.87 100.91 19.35 92.19 18.07 M 217.33 79.26 C 217.25 92.31 221.57 104.82 222.67 117.75 C 223.84 130.82 224.35 143.94 225.34 157.02 C 225.39 169.72 225.56 182.48 223.51 195.05 C 222.49 200.66 222.53 206.35 222.29 212.02 C 221.00 221.42 220.75 230.96 218.98 240.30 C 217.35 246.18 215.14 251.89 213.85 257.86 C 211.20 266.43 209.88 275.51 205.55 283.48 C 204.42 285.55 203.46 287.71 202.98 290.03 C 206.22 290.72 209.46 289.99 212.65 289.40 C 215.21 283.04 220.11 277.87 222.09 271.25 C 225.14 261.09 227.07 250.62 230.33 240.51 C 232.26 232.44 234.94 224.58 236.63 216.46 C 239.41 207.57 240.13 198.22 240.45 188.96 C 240.35 184.29 241.69 179.66 240.84 175.00 C 239.97 156.56 238.03 138.17 235.94 119.83 C 234.96 114.86 233.09 110.13 232.04 105.17 C 230.25 97.28 227.24 89.71 223.34 82.63 C 221.56 81.14 219.37 80.31 217.33 79.26 M 233.63 85.62 C 235.29 91.78 237.62 97.75 238.92 104.00 C 240.14 109.92 242.57 115.56 243.21 121.60 C 245.16 142.02 247.80 162.44 247.94 182.98 C 247.05 192.12 246.92 201.36 245.27 210.40 C 242.19 224.17 238.14 237.69 234.36 251.26 C 232.66 258.76 230.86 266.25 228.54 273.58 C 226.92 278.82 223.52 283.23 221.48 288.29 C 234.58 286.65 247.81 287.94 260.97 287.31 C 292.57 285.40 324.27 284.45 355.64 279.86 C 362.84 278.68 370.17 278.66 377.35 277.38 C 380.39 271.58 383.12 265.60 385.38 259.45 C 389.68 246.95 391.77 233.83 393.40 220.75 C 395.70 202.50 392.49 184.24 391.51 166.02 C 391.37 157.17 386.91 149.12 386.54 140.29 C 359.31 128.58 330.43 121.41 302.56 111.47 C 284.68 105.41 267.32 97.93 249.63 91.37 C 244.29 89.47 239.21 86.82 233.63 85.62 M 393.30 142.96 C 395.36 150.21 398.14 157.40 398.43 165.02 C 398.70 175.73 400.61 186.32 400.74 197.03 C 402.07 204.34 400.57 211.71 400.52 219.06 C 399.33 231.21 397.19 243.29 393.98 255.08 C 392.77 260.25 390.17 264.99 389.11 270.18 L 388.20 270.36 L 387.78 271.36 L 388.29 272.13 C 387.25 273.53 386.55 275.13 385.80 276.69 C 389.95 276.79 394.11 276.55 398.26 276.27 C 400.59 272.25 402.98 268.23 404.66 263.88 C 408.02 255.62 409.01 246.71 411.06 238.09 C 411.81 233.58 411.91 228.97 412.75 224.47 C 414.46 216.05 413.22 207.43 412.60 198.96 C 412.08 188.20 410.80 177.41 407.75 167.05 C 405.88 160.32 405.18 153.20 402.21 146.82 C 399.80 144.62 396.31 144.04 393.30 142.96 M 416.04 169.43 C 417.11 176.57 418.53 183.67 419.02 190.89 C 419.87 202.87 421.91 215.08 419.41 227.00 C 418.67 230.76 418.73 234.61 418.13 238.39 C 415.97 247.78 414.70 257.42 411.16 266.44 C 418.12 266.75 425.05 267.42 431.98 268.13 C 450.30 267.13 468.67 268.26 487.00 267.33 C 496.96 266.18 507.07 266.04 517.03 267.27 C 526.36 267.90 535.72 267.45 545.02 266.61 C 548.17 266.10 552.34 267.58 554.50 264.51 C 559.31 259.06 560.92 251.76 562.55 244.88 C 563.07 234.34 561.92 223.67 559.48 213.42 C 556.71 207.93 552.81 201.49 546.17 200.52 C 535.35 198.29 524.40 196.72 513.54 194.69 C 503.87 192.11 494.30 189.02 484.43 187.26 C 476.09 185.15 467.88 182.52 459.45 180.76 C 450.47 178.99 441.89 175.66 432.89 174.00 C 427.10 173.09 421.84 170.25 416.04 169.43 M 567.50 216.00 C 568.52 226.40 570.91 236.87 569.21 247.33 C 567.58 252.91 566.47 258.75 563.46 263.80 C 572.31 263.43 581.14 262.53 590.00 262.22 C 594.20 262.05 598.28 260.95 602.36 259.98 C 603.65 259.55 605.37 259.52 605.96 258.04 C 609.30 252.02 612.59 245.71 613.31 238.76 C 613.58 234.39 613.14 230.02 612.44 225.71 C 605.44 225.30 598.66 223.36 591.81 221.98 C 583.99 218.95 575.58 218.13 567.50 216.00 M 669.09 237.96 C 671.16 238.76 673.78 238.87 675.23 240.77 C 676.56 243.94 676.60 247.52 676.20 250.89 C 674.92 252.98 672.43 253.61 670.35 254.58 C 670.36 255.09 670.38 256.10 670.38 256.61 C 672.05 257.63 673.91 259.23 675.96 258.08 C 684.18 256.25 688.58 244.80 682.61 238.43 C 679.12 234.32 673.41 237.02 669.09 237.96 M 619.91 240.43 C 619.47 245.01 617.68 249.27 616.17 253.56 C 626.34 252.78 636.53 252.37 646.68 251.44 C 647.70 248.25 649.18 244.80 647.44 241.57 C 638.28 240.61 629.09 240.84 619.91 240.43 M 655.45 244.52 C 655.17 246.10 654.88 247.67 654.61 249.25 C 659.26 248.52 664.00 248.32 668.58 247.18 C 668.93 246.85 669.63 246.18 669.98 245.85 C 665.41 243.76 660.31 244.30 655.45 244.52 Z" />
<path fill="#000000" opacity="1.00" d=" M 83.39 49.24 C 88.05 48.30 91.02 52.43 92.99 55.96 C 100.53 66.06 103.92 78.38 108.18 90.05 C 113.31 108.72 117.65 127.71 119.36 147.03 C 119.53 153.69 120.87 160.26 120.83 166.93 C 120.83 177.61 120.96 188.37 118.60 198.85 C 116.75 205.98 115.18 213.23 112.20 220.01 C 110.33 226.66 107.75 233.13 103.89 238.89 C 100.10 245.03 96.41 251.25 91.99 256.98 C 86.32 265.06 78.38 271.59 69.23 275.34 C 64.57 277.46 59.31 275.77 54.85 273.99 C 47.49 268.63 41.33 261.60 37.59 253.25 C 32.69 245.68 32.14 236.54 30.41 227.96 C 27.44 216.13 24.73 204.19 23.57 192.04 C 23.52 185.00 22.30 178.04 22.39 170.99 C 21.11 158.01 20.54 144.62 24.23 131.95 C 25.69 127.14 27.10 122.30 27.60 117.28 C 29.48 106.90 33.67 97.04 39.00 87.99 C 43.19 78.19 47.81 68.13 55.91 60.89 C 59.34 57.98 62.30 54.37 66.45 52.43 C 71.72 49.95 77.67 49.67 83.39 49.24 M 73.42 57.57 C 69.44 58.19 66.14 60.58 63.51 63.51 C 56.50 69.35 51.05 77.04 47.68 85.50 C 44.69 92.12 40.34 98.11 38.12 105.08 C 36.47 110.30 34.70 115.53 34.05 120.99 C 33.16 127.51 30.60 133.63 29.49 140.10 C 27.95 147.61 28.44 155.34 28.72 162.95 C 32.08 177.82 29.53 193.25 32.51 208.17 C 34.85 218.28 38.50 228.11 39.82 238.44 C 42.49 247.88 47.13 256.67 51.99 265.13 C 56.23 267.69 60.81 270.96 66.02 270.34 C 70.56 268.91 74.41 265.98 78.20 263.19 C 84.09 259.02 87.65 252.55 91.97 246.93 C 95.38 242.65 96.94 237.33 99.63 232.63 C 103.72 225.16 107.79 217.46 109.36 209.02 C 109.21 203.75 111.68 198.91 112.37 193.76 C 114.40 181.96 113.92 169.89 112.97 158.02 C 111.81 130.26 104.96 103.14 97.96 76.37 C 96.89 72.26 95.95 67.97 93.62 64.36 C 90.84 61.63 87.53 59.50 84.82 56.68 C 81.03 56.03 77.15 56.85 73.42 57.57 Z" />
<path fill="#000000" opacity="1.00" d=" M 56.72 84.74 C 63.11 83.10 69.30 86.27 74.88 89.02 C 83.00 93.24 88.10 101.44 91.27 109.76 C 95.61 121.87 98.34 135.17 95.57 147.94 C 95.16 147.77 94.34 147.44 93.93 147.27 C 90.33 133.21 89.79 118.13 82.68 105.17 C 79.41 99.01 73.77 94.25 67.20 91.94 C 63.69 90.47 59.80 90.25 56.37 88.59 C 56.49 87.31 56.61 86.03 56.72 84.74 Z" />
<path fill="#000000" opacity="1.00" d=" M 49.31 116.12 C 49.22 114.05 49.98 112.29 52.07 111.65 C 56.82 110.78 61.16 113.49 65.00 115.91 C 71.11 119.74 76.58 124.90 79.61 131.54 C 81.12 134.49 80.94 137.97 80.28 141.12 C 76.51 138.57 74.88 134.21 72.34 130.63 C 66.82 123.15 58.61 117.50 49.31 116.12 Z" />
</g>
<g id="#e6cc68ff">
<path fill="#e6cc68" opacity="1.00" d=" M 74.57 17.32 C 75.64 15.91 77.38 16.62 78.66 17.26 C 84.29 19.97 88.98 24.45 92.08 29.87 C 95.22 35.57 100.02 40.09 103.36 45.66 C 107.43 52.40 111.88 58.99 114.69 66.39 C 116.71 71.19 117.52 76.39 119.69 81.13 C 121.44 84.95 123.08 88.83 124.34 92.84 C 125.96 97.88 129.05 102.52 129.26 107.95 C 129.69 118.97 130.84 129.95 130.98 140.97 C 130.62 144.98 130.78 149.00 130.72 153.01 C 129.59 165.31 131.78 177.72 129.80 189.97 C 129.54 199.11 128.27 208.19 126.03 217.06 C 125.14 222.97 123.61 228.76 121.45 234.33 C 118.51 241.82 116.51 249.69 112.66 256.80 C 109.39 262.72 107.59 269.32 104.12 275.13 C 99.97 282.40 96.08 290.10 89.65 295.66 C 84.57 300.80 78.32 304.48 72.27 308.31 C 69.11 310.54 64.80 310.10 61.46 308.50 C 58.35 306.76 56.25 303.77 53.74 301.32 C 51.81 299.22 49.11 297.72 48.08 294.91 C 45.60 289.32 42.01 284.36 38.61 279.33 C 35.12 271.77 30.44 264.63 28.63 256.41 C 27.18 245.84 21.34 236.26 21.19 225.45 C 19.30 217.42 17.29 209.33 17.45 201.00 C 16.57 193.69 16.70 186.31 15.75 179.00 C 16.53 159.56 19.27 140.24 22.25 121.01 C 22.32 116.09 24.35 111.59 25.91 107.02 C 27.07 104.09 25.71 100.84 26.90 97.92 C 30.06 89.42 33.11 80.88 36.67 72.54 C 38.61 67.19 42.10 62.62 44.35 57.42 C 46.42 52.72 48.50 47.78 52.10 44.02 C 52.39 43.58 52.97 42.71 53.26 42.27 C 53.46 41.95 53.85 41.31 54.05 40.99 C 54.30 40.53 54.81 39.61 55.07 39.15 C 55.70 36.77 57.95 35.29 59.45 33.46 C 64.64 28.22 69.05 22.24 74.57 17.32 M 83.39 49.24 C 77.67 49.67 71.72 49.95 66.45 52.43 C 62.30 54.37 59.34 57.98 55.91 60.89 C 47.81 68.13 43.19 78.19 39.00 87.99 C 33.67 97.04 29.48 106.90 27.60 117.28 C 27.10 122.30 25.69 127.14 24.23 131.95 C 20.54 144.62 21.11 158.01 22.39 170.99 C 22.30 178.04 23.52 185.00 23.57 192.04 C 24.73 204.19 27.44 216.13 30.41 227.96 C 32.14 236.54 32.69 245.68 37.59 253.25 C 41.33 261.60 47.49 268.63 54.85 273.99 C 59.31 275.77 64.57 277.46 69.23 275.34 C 78.38 271.59 86.32 265.06 91.99 256.98 C 96.41 251.25 100.10 245.03 103.89 238.89 C 107.75 233.13 110.33 226.66 112.20 220.01 C 115.18 213.23 116.75 205.98 118.60 198.85 C 120.96 188.37 120.83 177.61 120.83 166.93 C 120.87 160.26 119.53 153.69 119.36 147.03 C 117.65 127.71 113.31 108.72 108.18 90.05 C 103.92 78.38 100.53 66.06 92.99 55.96 C 91.02 52.43 88.05 48.30 83.39 49.24 Z" />
<path fill="#e6cc68" opacity="1.00" d=" M 92.19 18.07 C 100.91 19.35 109.61 20.87 118.25 22.67 C 132.42 24.48 145.61 30.42 159.46 33.67 C 173.95 37.72 189.10 38.58 203.62 42.45 C 204.51 46.17 204.44 50.01 204.84 53.79 C 208.72 67.46 210.03 81.69 211.88 95.74 C 216.74 116.15 217.03 137.20 218.44 158.03 C 218.14 167.38 218.75 176.77 217.61 186.08 C 217.23 191.41 216.12 196.65 215.67 201.97 C 215.49 213.10 214.06 224.15 212.80 235.20 C 211.84 242.18 208.66 248.59 207.31 255.49 C 204.78 263.55 203.69 272.15 199.60 279.65 C 194.63 288.94 188.72 297.72 184.06 307.14 C 181.10 310.91 179.02 315.24 176.93 319.53 C 167.94 320.16 158.97 319.13 149.99 319.27 C 145.64 319.28 141.36 318.36 137.02 318.41 C 128.40 318.48 119.84 317.31 111.40 315.70 C 101.11 313.33 90.41 315.40 80.09 313.34 C 84.59 309.40 89.57 306.04 93.80 301.79 C 101.87 290.73 109.42 279.27 116.77 267.70 C 121.10 261.05 121.91 252.94 124.67 245.64 C 128.44 236.72 131.53 227.44 133.02 217.85 C 135.15 209.38 136.49 200.71 136.73 191.98 C 138.22 181.71 137.66 171.32 137.36 161.00 C 138.13 147.02 137.90 133.00 137.16 119.04 C 136.01 112.72 137.36 106.02 134.80 99.97 C 132.09 93.32 129.91 86.47 126.93 79.93 C 123.70 72.85 122.48 65.01 118.85 58.09 C 115.59 52.12 112.21 46.20 108.52 40.47 C 105.59 36.12 101.96 32.28 99.21 27.79 C 97.12 24.38 94.66 21.21 92.19 18.07 Z" />
<path fill="#e6cc68" opacity="1.00" d=" M 217.33 79.26 C 219.37 80.31 221.56 81.14 223.34 82.63 C 227.24 89.71 230.25 97.28 232.04 105.17 C 233.09 110.13 234.96 114.86 235.94 119.83 C 238.03 138.17 239.97 156.56 240.84 175.00 C 241.69 179.66 240.35 184.29 240.45 188.96 C 240.13 198.22 239.41 207.57 236.63 216.46 C 234.94 224.58 232.26 232.44 230.33 240.51 C 227.07 250.62 225.14 261.09 222.09 271.25 C 220.11 277.87 215.21 283.04 212.65 289.40 C 209.46 289.99 206.22 290.72 202.98 290.03 C 203.46 287.71 204.42 285.55 205.55 283.48 C 209.88 275.51 211.20 266.43 213.85 257.86 C 215.14 251.89 217.35 246.18 218.98 240.30 C 220.75 230.96 221.00 221.42 222.29 212.02 C 222.53 206.35 222.49 200.66 223.51 195.05 C 225.56 182.48 225.39 169.72 225.34 157.02 C 224.35 143.94 223.84 130.82 222.67 117.75 C 221.57 104.82 217.25 92.31 217.33 79.26 Z" />
<path fill="#e6cc68" opacity="1.00" d=" M 393.30 142.96 C 396.31 144.04 399.80 144.62 402.21 146.82 C 405.18 153.20 405.88 160.32 407.75 167.05 C 410.80 177.41 412.08 188.20 412.60 198.96 C 413.22 207.43 414.46 216.05 412.75 224.47 C 411.91 228.97 411.81 233.58 411.06 238.09 C 409.01 246.71 408.02 255.62 404.66 263.88 C 402.98 268.23 400.59 272.25 398.26 276.27 C 394.11 276.55 389.95 276.79 385.80 276.69 C 386.55 275.13 387.25 273.53 388.29 272.13 C 388.50 271.65 388.91 270.67 389.11 270.18 C 390.17 264.99 392.77 260.25 393.98 255.08 C 397.19 243.29 399.33 231.21 400.52 219.06 C 400.57 211.71 402.07 204.34 400.74 197.03 C 400.61 186.32 398.70 175.73 398.43 165.02 C 398.14 157.40 395.36 150.21 393.30 142.96 Z" />
<path fill="#e6cc68" opacity="1.00" d=" M 416.04 169.43 C 421.84 170.25 427.10 173.09 432.89 174.00 C 441.89 175.66 450.47 178.99 459.45 180.76 C 467.88 182.52 476.09 185.15 484.43 187.26 C 494.30 189.02 503.87 192.11 513.54 194.69 C 524.40 196.72 535.35 198.29 546.17 200.52 C 552.81 201.49 556.71 207.93 559.48 213.42 C 561.92 223.67 563.07 234.34 562.55 244.88 C 560.92 251.76 559.31 259.06 554.50 264.51 C 552.34 267.58 548.17 266.10 545.02 266.61 C 535.72 267.45 526.36 267.90 517.03 267.27 C 507.07 266.04 496.96 266.18 487.00 267.33 C 468.67 268.26 450.30 267.13 431.98 268.13 C 425.05 267.42 418.12 266.75 411.16 266.44 C 414.70 257.42 415.97 247.78 418.13 238.39 C 418.73 234.61 418.67 230.76 419.41 227.00 C 421.91 215.08 419.87 202.87 419.02 190.89 C 418.53 183.67 417.11 176.57 416.04 169.43 Z" />
<path fill="#e6cc68" opacity="1.00" d=" M 567.50 216.00 C 575.58 218.13 583.99 218.95 591.81 221.98 C 598.66 223.36 605.44 225.30 612.44 225.71 C 613.14 230.02 613.58 234.39 613.31 238.76 C 612.59 245.71 609.30 252.02 605.96 258.04 C 605.37 259.52 603.65 259.55 602.36 259.98 C 598.28 260.95 594.20 262.05 590.00 262.22 C 581.14 262.53 572.31 263.43 563.46 263.80 C 566.47 258.75 567.58 252.91 569.21 247.33 C 570.91 236.87 568.52 226.40 567.50 216.00 Z" />
<path fill="#e6cc68" opacity="1.00" d=" M 669.09 237.96 C 673.41 237.02 679.12 234.32 682.61 238.43 C 688.58 244.80 684.18 256.25 675.96 258.08 C 673.91 259.23 672.05 257.63 670.38 256.61 C 670.38 256.10 670.36 255.09 670.35 254.58 C 672.43 253.61 674.92 252.98 676.20 250.89 C 676.60 247.52 676.56 243.94 675.23 240.77 C 673.78 238.87 671.16 238.76 669.09 237.96 Z" />
<path fill="#e6cc68" opacity="1.00" d=" M 619.91 240.43 C 629.09 240.84 638.28 240.61 647.44 241.57 C 649.18 244.80 647.70 248.25 646.68 251.44 C 636.53 252.37 626.34 252.78 616.17 253.56 C 617.68 249.27 619.47 245.01 619.91 240.43 Z" />
<path fill="#e6cc68" opacity="1.00" d=" M 655.45 244.52 C 660.31 244.30 665.41 243.76 669.98 245.85 C 669.63 246.18 668.93 246.85 668.58 247.18 C 664.00 248.32 659.26 248.52 654.61 249.25 C 654.88 247.67 655.17 246.10 655.45 244.52 Z" />
</g>
<g id="#8b7142ff">
<path fill="#8b7142" opacity="1.00" d=" M 54.16 39.23 L 55.07 39.15 C 54.81 39.61 54.30 40.53 54.05 40.99 L 53.64 40.17 L 54.16 39.23 Z" />
<path fill="#8b7142" opacity="1.00" d=" M 52.35 42.28 L 53.26 42.27 C 52.97 42.71 52.39 43.58 52.10 44.02 L 51.75 43.18 L 52.35 42.28 Z" />
<path fill="#8b7142" opacity="1.00" d=" M 233.63 85.62 C 239.21 86.82 244.29 89.47 249.63 91.37 C 267.32 97.93 284.68 105.41 302.56 111.47 C 330.43 121.41 359.31 128.58 386.54 140.29 C 386.91 149.12 391.37 157.17 391.51 166.02 C 392.49 184.24 395.70 202.50 393.40 220.75 C 391.77 233.83 389.68 246.95 385.38 259.45 C 383.12 265.60 380.39 271.58 377.35 277.38 C 370.17 278.66 362.84 278.68 355.64 279.86 C 324.27 284.45 292.57 285.40 260.97 287.31 C 247.81 287.94 234.58 286.65 221.48 288.29 C 223.52 283.23 226.92 278.82 228.54 273.58 C 230.86 266.25 232.66 258.76 234.36 251.26 C 238.14 237.69 242.19 224.17 245.27 210.40 C 246.92 201.36 247.05 192.12 247.94 182.98 C 247.80 162.44 245.16 142.02 243.21 121.60 C 242.57 115.56 240.14 109.92 238.92 104.00 C 237.62 97.75 235.29 91.78 233.63 85.62 Z" />
<path fill="#8b7142" opacity="1.00" d=" M 385.42 283.72 C 386.49 283.43 387.57 283.38 388.67 283.58 C 389.18 285.38 385.11 285.52 385.42 283.72 Z" />
</g>
<g id="#ffffffff">
<path fill="#ffffff" opacity="1.00" d=" M 73.42 57.57 C 77.15 56.85 81.03 56.03 84.82 56.68 C 87.53 59.50 90.84 61.63 93.62 64.36 C 95.95 67.97 96.89 72.26 97.96 76.37 C 104.96 103.14 111.81 130.26 112.97 158.02 C 113.92 169.89 114.40 181.96 112.37 193.76 C 111.68 198.91 109.21 203.75 109.36 209.02 C 107.79 217.46 103.72 225.16 99.63 232.63 C 96.94 237.33 95.38 242.65 91.97 246.93 C 87.65 252.55 84.09 259.02 78.20 263.19 C 74.41 265.98 70.56 268.91 66.02 270.34 C 60.81 270.96 56.23 267.69 51.99 265.13 C 47.13 256.67 42.49 247.88 39.82 238.44 C 38.50 228.11 34.85 218.28 32.51 208.17 C 29.53 193.25 32.08 177.82 28.72 162.95 C 28.44 155.34 27.95 147.61 29.49 140.10 C 30.60 133.63 33.16 127.51 34.05 120.99 C 34.70 115.53 36.47 110.30 38.12 105.08 C 40.34 98.11 44.69 92.12 47.68 85.50 C 51.05 77.04 56.50 69.35 63.51 63.51 C 66.14 60.58 69.44 58.19 73.42 57.57 M 56.72 84.74 C 56.61 86.03 56.49 87.31 56.37 88.59 C 59.80 90.25 63.69 90.47 67.20 91.94 C 73.77 94.25 79.41 99.01 82.68 105.17 C 89.79 118.13 90.33 133.21 93.93 147.27 C 94.34 147.44 95.16 147.77 95.57 147.94 C 98.34 135.17 95.61 121.87 91.27 109.76 C 88.10 101.44 83.00 93.24 74.88 89.02 C 69.30 86.27 63.11 83.10 56.72 84.74 M 49.31 116.12 C 58.61 117.50 66.82 123.15 72.34 130.63 C 74.88 134.21 76.51 138.57 80.28 141.12 C 80.94 137.97 81.12 134.49 79.61 131.54 C 76.58 124.90 71.11 119.74 65.00 115.91 C 61.16 113.49 56.82 110.78 52.07 111.65 C 49.98 112.29 49.22 114.05 49.31 116.12 Z" />
</g>
</svg>
