<?xml version="1.0" encoding="UTF-8" ?>
<!DOCTYPE svg PUBLIC "-//W3C//DTD SVG 1.1//EN" "http://www.w3.org/Graphics/SVG/1.1/DTD/svg11.dtd">
<svg width="291pt" height="718pt" viewBox="0 0 291 718" version="1.1" xmlns="http://www.w3.org/2000/svg">
<g id="#000000ff">
<path fill="#000000" opacity="1.00" d=" M 94.87 15.81 C 99.40 10.80 107.24 10.49 113.12 13.04 C 118.22 15.32 120.82 20.62 124.89 24.16 C 126.88 25.89 128.81 27.76 129.98 30.17 C 132.37 34.88 135.86 39.02 137.49 44.10 C 140.13 51.44 140.00 59.33 140.98 66.97 C 141.59 71.56 143.31 75.89 144.46 80.35 C 144.92 75.17 145.85 70.07 146.93 65.00 C 147.73 58.14 148.68 51.30 149.76 44.49 C 151.56 35.42 155.62 26.69 161.76 19.75 C 167.31 13.38 177.51 13.65 184.26 17.85 C 192.34 23.14 201.03 28.67 205.41 37.65 C 207.87 42.01 208.44 47.11 208.36 52.03 C 208.25 67.70 208.69 83.38 207.79 99.02 C 208.38 109.75 206.63 120.36 206.51 131.06 C 206.25 135.03 205.69 138.97 205.44 142.94 C 211.52 139.03 217.88 135.07 225.11 133.78 C 228.85 132.98 232.30 131.21 236.05 130.48 C 240.33 129.86 244.66 130.18 248.97 130.10 C 254.05 130.16 259.40 129.64 264.14 131.91 C 270.29 134.43 274.04 140.34 276.97 146.00 C 278.89 149.67 279.79 153.81 279.67 157.95 C 279.58 164.14 280.13 170.50 278.29 176.50 C 277.22 180.01 275.05 183.02 272.99 186.00 C 269.95 190.33 267.82 195.28 264.27 199.25 C 258.81 205.51 252.61 211.10 247.32 217.52 C 244.05 222.42 240.63 227.22 237.28 232.06 C 237.51 237.28 235.60 242.29 232.50 246.42 C 230.27 249.09 230.70 252.71 230.14 255.93 C 229.32 263.08 226.64 269.81 224.88 276.75 C 223.67 282.78 223.17 288.93 222.41 295.04 C 221.67 300.73 219.51 306.23 219.82 312.04 C 220.28 319.09 218.14 325.94 218.15 332.97 C 218.07 347.63 218.15 362.30 218.20 376.97 C 218.56 380.54 215.66 383.39 216.05 386.98 C 216.00 400.35 215.93 413.71 216.08 427.07 C 217.18 431.45 217.00 435.93 217.17 440.41 C 219.05 444.38 217.45 449.09 218.14 453.35 C 220.28 456.38 217.74 460.49 219.82 463.54 C 220.04 465.22 219.87 467.04 220.80 468.57 C 220.90 469.03 221.10 469.96 221.20 470.42 C 221.94 472.03 222.09 473.84 222.73 475.50 C 223.14 477.57 223.60 479.68 224.77 481.49 C 225.30 484.00 226.58 486.25 227.82 488.47 C 228.22 490.88 228.76 493.29 229.83 495.51 C 229.92 495.99 230.09 496.95 230.18 497.43 C 230.59 498.39 230.98 499.37 231.37 500.35 C 232.43 502.75 231.96 505.44 232.06 507.98 C 231.90 514.07 232.59 520.26 231.09 526.24 C 229.72 528.38 231.13 531.35 229.26 533.23 C 224.91 538.43 221.50 545.08 214.92 547.79 C 208.69 549.98 202.44 552.12 196.18 554.19 C 188.52 556.78 180.38 555.74 172.46 556.04 C 171.45 564.67 172.21 573.35 172.18 582.01 C 172.39 588.19 171.92 594.41 172.47 600.58 C 173.24 605.56 174.47 610.45 175.41 615.40 C 176.41 620.61 180.47 624.33 184.03 627.94 C 190.56 633.47 197.80 638.16 204.06 644.01 C 208.59 649.69 213.23 655.39 216.63 661.85 C 219.35 667.14 218.36 673.27 218.45 679.00 C 218.45 687.47 215.19 696.09 208.72 701.72 C 204.93 704.90 199.76 705.60 194.98 705.49 C 190.90 705.39 186.69 705.14 182.93 703.41 C 177.67 700.95 171.64 700.94 166.39 698.50 C 156.71 691.72 146.56 685.64 136.36 679.66 C 133.60 677.75 130.06 678.62 126.93 678.43 C 119.84 678.19 112.88 679.88 106.18 682.05 C 97.33 684.59 88.49 680.31 79.54 680.89 C 78.56 680.40 77.55 680.02 76.50 679.75 C 73.25 678.22 71.45 675.16 69.20 672.55 C 67.35 667.75 66.31 662.49 67.64 657.41 C 68.46 655.17 70.34 653.54 71.40 651.43 C 75.55 642.46 80.80 633.80 87.95 626.89 C 96.49 619.29 106.67 613.04 112.55 602.93 C 113.20 586.66 112.45 570.35 113.15 554.07 C 105.44 554.00 97.43 553.68 90.41 550.20 C 89.93 550.10 88.99 549.90 88.51 549.80 C 87.51 549.40 86.51 549.02 85.51 548.66 C 84.50 548.35 83.49 548.06 82.47 547.78 C 81.50 547.27 80.53 546.76 79.56 546.25 C 77.27 545.01 74.76 544.27 72.40 543.18 C 71.92 543.10 70.96 542.93 70.48 542.85 C 69.14 542.28 67.78 541.73 66.46 541.14 C 65.96 541.08 64.96 540.98 64.47 540.92 C 59.14 537.94 54.88 533.52 49.79 530.18 C 46.08 527.60 45.84 522.67 45.83 518.58 C 46.15 512.92 48.54 507.68 50.41 502.41 C 52.47 495.51 53.14 488.27 52.73 481.09 C 54.75 463.38 57.84 445.78 59.17 427.99 C 59.10 414.64 59.58 401.26 58.44 387.94 C 57.71 364.98 58.52 341.98 57.88 319.02 C 58.20 301.47 52.32 284.52 52.27 266.99 C 52.27 258.61 50.67 250.35 49.50 242.09 C 49.20 235.72 48.12 229.43 47.40 223.10 C 47.23 207.96 40.56 193.98 36.41 179.66 C 34.31 174.31 31.65 169.20 28.73 164.26 C 22.26 150.88 17.15 136.76 14.46 122.11 C 13.37 115.37 10.68 108.92 10.67 102.02 C 10.64 86.69 10.65 71.36 10.68 56.03 C 10.61 49.26 12.41 42.59 15.52 36.61 C 17.96 31.71 22.12 26.76 28.01 26.50 C 33.72 26.51 39.72 27.28 44.68 30.32 C 48.60 32.68 52.84 34.67 56.12 37.93 C 62.95 44.97 68.94 52.83 73.42 61.58 C 76.59 68.26 80.55 74.53 83.53 81.31 C 83.59 68.17 83.61 55.01 84.59 41.90 C 85.51 32.53 88.34 22.84 94.87 15.81 M 99.88 56.00 C 99.63 76.66 99.61 97.32 99.75 117.97 C 100.87 126.04 104.85 133.62 104.84 141.90 C 104.81 149.85 105.06 157.81 104.72 165.75 C 104.72 168.72 102.33 170.71 100.35 172.56 C 97.29 172.71 93.66 173.38 91.23 171.00 C 87.95 167.83 87.17 163.09 85.81 158.92 C 83.22 151.55 84.55 143.65 83.89 136.03 C 83.45 131.40 83.73 126.75 83.29 122.13 C 80.67 106.36 71.15 93.13 64.08 79.14 C 62.05 74.69 59.92 70.23 57.35 66.06 C 54.09 59.58 49.25 53.99 44.16 48.88 C 40.16 46.20 35.92 43.11 30.97 42.74 C 27.81 46.06 26.84 51.41 26.74 55.98 C 26.74 70.96 26.70 85.94 26.76 100.92 C 26.78 106.08 28.67 110.93 29.63 115.93 C 31.25 124.32 33.06 132.69 36.24 140.65 C 39.87 152.48 47.00 162.72 51.67 174.11 C 57.08 193.10 66.22 211.82 65.00 232.02 C 66.16 239.90 66.27 248.01 68.30 255.74 C 74.50 267.33 86.43 275.90 99.50 277.68 C 112.12 280.73 125.19 279.42 138.03 279.69 C 140.98 279.75 144.13 280.54 146.13 282.88 C 148.40 284.96 148.37 289.02 146.08 291.09 C 143.28 294.17 138.80 294.18 134.96 294.21 C 126.62 294.03 118.28 294.39 109.96 293.77 C 103.38 293.51 97.00 291.80 90.57 290.58 C 82.80 288.55 75.61 284.48 69.58 279.21 C 71.16 291.48 74.15 303.62 74.17 316.06 C 74.50 337.38 74.37 358.72 74.53 380.04 C 75.41 383.67 75.32 387.35 75.09 391.05 C 75.78 404.05 75.57 417.07 75.62 430.09 C 74.19 447.20 71.14 464.16 69.43 481.25 C 74.82 479.68 80.34 478.37 85.98 478.33 C 91.04 478.24 95.98 477.03 101.02 476.66 C 107.06 476.29 112.89 474.18 118.98 474.44 C 136.35 474.65 153.77 473.79 171.08 475.50 C 184.23 476.57 197.60 475.53 210.55 478.57 C 209.59 473.33 209.30 467.99 208.25 462.76 C 207.39 458.21 206.29 453.69 206.08 449.05 C 205.47 437.97 203.11 427.06 202.74 415.96 C 202.60 408.62 201.34 401.35 201.46 394.00 C 201.47 376.96 201.62 359.91 200.56 342.90 C 202.09 335.72 201.19 328.30 202.64 321.09 C 204.06 314.16 202.67 306.97 204.63 300.12 C 206.53 292.89 206.85 285.40 207.88 278.03 C 208.72 270.74 211.93 264.02 213.32 256.85 C 214.27 252.67 214.08 248.31 215.27 244.17 C 215.70 242.23 216.59 239.99 215.04 238.28 C 217.72 233.25 220.02 227.96 223.38 223.32 C 228.02 217.23 232.11 210.73 236.50 204.47 C 240.78 200.11 244.85 195.53 249.36 191.41 C 254.38 186.78 256.85 180.26 260.91 174.89 C 263.86 171.23 263.23 166.33 263.36 161.95 C 263.29 158.68 263.72 155.13 261.91 152.21 C 260.49 149.86 259.02 146.68 255.92 146.38 C 251.29 146.01 246.63 146.25 242.00 146.21 C 237.46 146.20 233.49 148.72 229.11 149.53 C 225.36 150.13 221.96 151.86 218.73 153.78 C 212.79 157.22 206.28 160.95 203.55 167.64 C 200.59 172.43 199.34 178.26 195.22 182.26 C 189.04 189.63 186.20 199.04 183.12 207.98 C 181.28 213.31 181.30 219.00 180.31 224.48 C 178.70 228.46 174.34 229.26 170.54 228.50 C 168.70 226.72 166.64 224.77 166.60 222.01 C 166.24 215.98 167.69 210.00 169.17 204.20 C 172.23 195.04 175.32 185.74 180.73 177.64 C 182.51 175.27 182.82 172.26 183.59 169.49 C 185.54 163.05 185.99 156.28 187.70 149.78 C 190.65 138.08 189.86 125.92 191.35 114.04 C 191.94 105.71 191.23 97.34 192.09 89.02 C 192.26 75.67 192.21 62.32 192.13 48.97 C 191.24 41.55 184.11 37.38 178.57 33.43 C 175.87 30.90 171.30 32.93 169.95 35.96 C 163.93 46.23 164.77 58.55 162.47 69.87 C 160.06 79.40 160.61 89.38 158.17 98.92 C 156.31 106.48 155.96 114.27 155.88 122.02 C 154.16 136.97 155.32 152.06 154.59 167.06 C 154.55 171.54 150.78 176.35 145.95 175.69 C 141.38 175.94 137.94 171.41 138.10 167.10 C 138.10 157.71 138.01 148.32 138.31 138.94 C 139.13 123.32 134.08 108.27 131.42 93.06 C 130.00 85.58 126.45 78.66 125.33 71.11 C 124.13 64.75 124.41 58.21 123.00 51.89 C 121.82 46.56 118.21 42.27 115.02 38.00 C 111.95 34.56 109.28 30.76 105.97 27.54 C 100.03 35.80 100.48 46.34 99.88 56.00 M 92.97 495.86 C 85.38 496.58 79.34 501.52 72.58 504.51 C 69.79 505.88 66.87 507.34 64.86 509.79 C 63.01 513.14 62.07 517.18 62.80 520.98 C 65.01 526.03 70.33 528.91 75.39 530.41 C 80.95 531.78 86.47 533.34 92.12 534.35 C 96.80 535.29 101.40 537.00 106.22 536.95 C 106.72 536.70 107.71 536.20 108.21 535.95 C 101.68 532.75 93.62 533.12 88.01 528.08 C 84.09 524.92 84.91 519.20 85.83 514.86 C 86.93 509.76 92.13 507.79 95.50 504.48 C 98.76 501.34 103.41 500.50 107.25 498.30 C 112.61 495.23 118.93 494.77 124.98 494.81 C 132.62 494.90 140.32 494.47 147.90 495.62 C 155.21 497.04 162.85 495.74 170.01 498.12 C 178.82 500.81 189.11 500.38 196.50 506.56 C 201.46 510.52 200.70 517.45 199.91 523.03 C 199.50 530.06 193.67 535.39 187.52 537.94 C 185.58 537.99 183.60 538.23 181.78 538.98 C 184.75 539.64 187.74 538.77 190.52 537.77 C 193.51 537.24 195.96 535.08 199.02 534.84 C 205.84 534.26 211.74 530.14 216.44 525.42 C 219.23 521.98 219.42 517.26 219.58 513.02 C 215.54 509.31 210.99 506.07 205.95 503.88 C 202.92 502.86 200.60 500.45 197.48 499.67 C 194.18 498.65 190.69 498.32 187.44 497.13 C 182.98 494.87 177.48 496.83 172.81 494.74 C 172.64 494.39 172.31 493.68 172.14 493.33 C 153.12 493.04 134.10 493.59 115.07 493.24 C 107.58 492.71 100.36 495.05 92.97 495.86 M 120.41 504.55 C 115.05 504.38 110.62 507.62 105.86 509.53 C 102.05 510.78 99.58 514.12 96.26 516.21 C 94.46 517.20 94.94 519.48 94.59 521.18 C 98.33 523.48 102.87 523.56 106.86 525.26 C 109.57 526.36 112.46 526.84 115.34 527.26 C 115.74 522.32 114.26 516.69 117.40 512.38 C 119.72 508.94 123.95 507.51 127.94 507.33 C 133.98 506.97 140.05 507.11 146.08 507.59 C 151.74 508.42 157.14 510.86 161.71 514.28 C 163.90 516.28 167.35 515.28 169.47 517.47 C 172.92 520.02 172.95 524.60 172.82 528.47 C 177.08 528.93 181.56 529.19 185.67 527.77 C 190.66 525.38 191.11 518.92 190.00 514.23 C 184.34 509.75 176.42 510.38 169.80 508.14 C 163.43 505.67 156.51 506.67 149.90 505.66 C 140.18 503.81 130.24 504.57 120.41 504.55 M 132.12 523.74 C 132.23 528.53 131.92 533.31 131.53 538.08 C 131.52 539.39 130.96 540.57 130.07 541.52 C 130.13 549.68 129.56 557.81 129.50 565.97 C 129.47 578.65 129.72 591.34 129.36 604.03 C 129.46 607.09 128.08 609.87 127.13 612.71 C 122.71 616.76 119.63 622.00 115.21 626.04 C 109.54 630.76 103.68 635.27 98.19 640.19 C 92.67 646.82 87.24 654.24 85.68 662.90 C 91.64 666.55 99.38 666.46 105.80 664.09 C 116.47 660.86 127.79 660.55 138.81 661.65 C 144.51 663.62 149.44 667.29 154.80 670.01 C 161.00 674.22 167.56 677.87 173.58 682.34 C 175.44 683.34 177.55 683.74 179.41 684.74 C 181.77 685.78 184.42 686.18 186.54 687.77 C 187.68 687.86 188.70 688.25 189.61 688.94 C 192.40 688.82 195.16 688.31 197.93 687.90 C 202.60 683.13 201.05 675.82 201.07 669.80 C 199.36 665.53 196.07 662.19 193.48 658.46 C 190.07 653.21 184.32 650.34 179.77 646.26 C 173.07 641.98 167.65 636.01 163.01 629.62 C 159.39 623.53 158.50 616.49 156.91 609.74 C 156.23 605.50 155.21 601.30 155.34 596.99 C 155.43 586.28 155.10 575.57 155.33 564.87 C 156.08 560.96 156.14 557.00 155.96 553.05 C 155.75 550.22 156.44 547.19 155.18 544.54 C 154.96 542.72 154.99 540.81 154.12 539.15 C 154.64 539.23 155.68 539.40 156.20 539.48 C 156.34 534.45 156.21 529.43 155.43 524.46 C 147.81 522.64 139.88 524.25 132.12 523.74 Z" />
<path fill="#000000" opacity="1.00" d=" M 123.04 643.92 C 122.92 639.88 128.15 639.76 131.04 639.45 C 138.55 638.95 144.28 644.36 149.31 649.15 C 147.76 650.07 146.17 651.52 144.23 651.11 C 140.32 650.43 137.00 647.74 132.93 647.66 C 129.56 647.06 124.80 647.50 123.04 643.92 Z" />
</g>
<g id="#8bc258ff">
<path fill="#8bc258" opacity="1.00" d=" M 99.88 56.00 C 100.48 46.34 100.03 35.80 105.97 27.54 C 109.28 30.76 111.95 34.56 115.02 38.00 C 118.21 42.27 121.82 46.56 123.00 51.89 C 124.41 58.21 124.13 64.75 125.33 71.11 C 126.45 78.66 130.00 85.58 131.42 93.06 C 134.08 108.27 139.13 123.32 138.31 138.94 C 138.01 148.32 138.10 157.71 138.10 167.10 C 137.94 171.41 141.38 175.94 145.95 175.69 C 150.78 176.35 154.55 171.54 154.59 167.06 C 155.32 152.06 154.16 136.97 155.88 122.02 C 155.96 114.27 156.31 106.48 158.17 98.92 C 160.61 89.38 160.06 79.40 162.47 69.87 C 164.77 58.55 163.93 46.23 169.95 35.96 C 171.30 32.93 175.87 30.90 178.57 33.43 C 184.11 37.38 191.24 41.55 192.13 48.97 C 192.21 62.32 192.26 75.67 192.09 89.02 C 191.23 97.34 191.94 105.71 191.35 114.04 C 189.86 125.92 190.65 138.08 187.70 149.78 C 185.99 156.28 185.54 163.05 183.59 169.49 C 182.82 172.26 182.51 175.27 180.73 177.64 C 175.32 185.74 172.23 195.04 169.17 204.20 C 167.69 210.00 166.24 215.98 166.60 222.01 C 166.64 224.77 168.70 226.72 170.54 228.50 C 174.34 229.26 178.70 228.46 180.31 224.48 C 181.30 219.00 181.28 213.31 183.12 207.98 C 186.20 199.04 189.04 189.63 195.22 182.26 C 199.34 178.26 200.59 172.43 203.55 167.64 C 206.28 160.95 212.79 157.22 218.73 153.78 C 221.96 151.86 225.36 150.13 229.11 149.53 C 233.49 148.72 237.46 146.20 242.00 146.21 C 246.63 146.25 251.29 146.01 255.92 146.38 C 259.02 146.68 260.49 149.86 261.91 152.21 C 263.72 155.13 263.29 158.68 263.36 161.95 C 263.23 166.33 263.86 171.23 260.91 174.89 C 256.85 180.26 254.38 186.78 249.36 191.41 C 244.85 195.53 240.78 200.11 236.50 204.47 C 232.11 210.73 228.02 217.23 223.38 223.32 C 220.02 227.96 217.72 233.25 215.04 238.28 C 216.59 239.99 215.70 242.23 215.27 244.17 C 214.08 248.31 214.27 252.67 213.32 256.85 C 211.93 264.02 208.72 270.74 207.88 278.03 C 206.85 285.40 206.53 292.89 204.63 300.12 C 202.67 306.97 204.06 314.16 202.64 321.09 C 201.19 328.30 202.09 335.72 200.56 342.90 C 201.62 359.91 201.47 376.96 201.46 394.00 C 201.34 401.35 202.60 408.62 202.74 415.96 C 203.11 427.06 205.47 437.97 206.08 449.05 C 206.29 453.69 207.39 458.21 208.25 462.76 C 209.30 467.99 209.59 473.33 210.55 478.57 C 197.60 475.53 184.23 476.57 171.08 475.50 C 153.77 473.79 136.35 474.65 118.98 474.44 C 112.89 474.18 107.06 476.29 101.02 476.66 C 95.98 477.03 91.04 478.24 85.98 478.33 C 80.34 478.37 74.82 479.68 69.43 481.25 C 71.14 464.16 74.19 447.20 75.62 430.09 C 75.57 417.07 75.78 404.05 75.09 391.05 C 75.32 387.35 75.41 383.67 74.53 380.04 C 74.37 358.72 74.50 337.38 74.17 316.06 C 74.15 303.62 71.16 291.48 69.58 279.21 C 75.61 284.48 82.80 288.55 90.57 290.58 C 97.00 291.80 103.38 293.51 109.96 293.77 C 118.28 294.39 126.62 294.03 134.96 294.21 C 138.80 294.18 143.28 294.17 146.08 291.09 C 148.37 289.02 148.40 284.96 146.13 282.88 C 144.13 280.54 140.98 279.75 138.03 279.69 C 125.19 279.42 112.12 280.73 99.50 277.68 C 86.43 275.90 74.50 267.33 68.30 255.74 C 66.27 248.01 66.16 239.90 65.00 232.02 C 66.22 211.82 57.08 193.10 51.67 174.11 C 47.00 162.72 39.87 152.48 36.24 140.65 C 33.06 132.69 31.25 124.32 29.63 115.93 C 28.67 110.93 26.78 106.08 26.76 100.92 C 26.70 85.94 26.74 70.96 26.74 55.98 C 26.84 51.41 27.81 46.06 30.97 42.74 C 35.92 43.11 40.16 46.20 44.16 48.88 C 49.25 53.99 54.09 59.58 57.35 66.06 C 57.11 71.45 61.60 74.88 64.08 79.14 C 71.15 93.13 80.67 106.36 83.29 122.13 C 83.73 126.75 83.45 131.40 83.89 136.03 C 84.55 143.65 83.22 151.55 85.81 158.92 C 87.17 163.09 87.95 167.83 91.23 171.00 C 93.66 173.38 97.29 172.71 100.35 172.56 C 102.33 170.71 104.72 168.72 104.72 165.75 C 105.06 157.81 104.81 149.85 104.84 141.90 C 104.85 133.62 100.87 126.04 99.75 117.97 C 99.61 97.32 99.63 76.66 99.88 56.00 Z" />
</g>
<g id="#e3958dff">
<path fill="#e3958d" opacity="1.00" d=" M 92.97 495.86 C 100.36 495.05 107.58 492.71 115.07 493.24 C 134.10 493.59 153.12 493.04 172.14 493.33 C 172.31 493.68 172.64 494.39 172.81 494.74 C 177.48 496.83 182.98 494.87 187.44 497.13 C 190.69 498.32 194.18 498.65 197.48 499.67 C 200.60 500.45 202.92 502.86 205.95 503.88 C 210.99 506.07 215.54 509.31 219.58 513.02 C 219.42 517.26 219.23 521.98 216.44 525.42 C 211.74 530.14 205.84 534.26 199.02 534.84 C 195.96 535.08 193.51 537.24 190.52 537.77 C 189.77 537.82 188.27 537.90 187.52 537.94 C 193.67 535.39 199.50 530.06 199.91 523.03 C 200.70 517.45 201.46 510.52 196.50 506.56 C 189.11 500.38 178.82 500.81 170.01 498.12 C 162.85 495.74 155.21 497.04 147.90 495.62 C 140.32 494.47 132.62 494.90 124.98 494.81 C 118.93 494.77 112.61 495.23 107.25 498.30 C 103.41 500.50 98.76 501.34 95.50 504.48 C 92.13 507.79 86.93 509.76 85.83 514.86 C 84.91 519.20 84.09 524.92 88.01 528.08 C 93.62 533.12 101.68 532.75 108.21 535.95 C 107.71 536.20 106.72 536.70 106.22 536.95 C 101.40 537.00 96.80 535.29 92.12 534.35 C 86.47 533.34 80.95 531.78 75.39 530.41 C 70.33 528.91 65.01 526.03 62.80 520.98 C 62.07 517.18 63.01 513.14 64.86 509.79 C 66.87 507.34 69.79 505.88 72.58 504.51 C 79.34 501.52 85.38 496.58 92.97 495.86 Z" />
<path fill="#e3958d" opacity="1.00" d=" M 120.41 504.55 C 130.24 504.57 140.18 503.81 149.90 505.66 C 156.51 506.67 163.43 505.67 169.80 508.14 C 176.42 510.38 184.34 509.75 190.00 514.23 C 191.11 518.92 190.66 525.38 185.67 527.77 C 181.56 529.19 177.08 528.93 172.82 528.47 C 172.95 524.60 172.92 520.02 169.47 517.47 C 167.35 515.28 163.90 516.28 161.71 514.28 C 157.14 510.86 151.74 508.42 146.08 507.59 C 140.05 507.11 133.98 506.97 127.94 507.33 C 123.95 507.51 119.72 508.94 117.40 512.38 C 114.26 516.69 115.74 522.32 115.34 527.26 C 112.46 526.84 109.57 526.36 106.86 525.26 C 102.87 523.56 98.33 523.48 94.59 521.18 C 94.94 519.48 94.46 517.20 96.26 516.21 C 99.58 514.12 102.05 510.78 105.86 509.53 C 110.62 507.62 115.05 504.38 120.41 504.55 Z" />
</g>
<g id="#ffffffff">
<path fill="#ffffff" opacity="1.00" d=" M 132.12 523.74 C 139.88 524.25 147.81 522.64 155.43 524.46 C 156.21 529.43 156.34 534.45 156.20 539.48 C 155.68 539.40 154.64 539.23 154.12 539.15 C 154.99 540.81 154.96 542.72 155.18 544.54 C 156.44 547.19 155.75 550.22 155.96 553.05 C 156.14 557.00 156.08 560.96 155.33 564.87 C 155.10 575.57 155.43 586.28 155.34 596.99 C 155.21 601.30 156.23 605.50 156.91 609.74 C 157.93 616.26 158.35 623.00 156.57 629.44 C 158.71 629.49 160.86 629.53 163.01 629.62 C 167.65 636.01 173.07 641.98 179.77 646.26 C 184.32 650.34 190.07 653.21 193.48 658.46 C 196.07 662.19 199.36 665.53 201.07 669.80 C 201.05 675.82 202.60 683.13 197.93 687.90 C 195.16 688.31 192.40 688.82 189.61 688.94 C 188.70 688.25 187.68 687.86 186.54 687.77 C 184.42 686.18 181.77 685.78 179.41 684.74 C 177.55 683.74 175.44 683.34 173.58 682.34 C 167.56 677.87 161.00 674.22 154.80 670.01 C 149.44 667.29 144.51 663.62 138.81 661.65 C 127.79 660.55 116.47 660.86 105.80 664.09 C 99.38 666.46 91.64 666.55 85.68 662.90 C 87.24 654.24 92.67 646.82 98.19 640.19 C 103.68 635.27 109.54 630.76 115.21 626.04 C 120.69 623.40 125.65 618.79 127.13 612.71 C 128.08 609.87 129.46 607.09 129.36 604.03 C 129.72 591.34 129.47 578.65 129.50 565.97 C 129.56 557.81 130.13 549.68 130.07 541.52 C 130.96 540.57 131.52 539.39 131.53 538.08 C 131.92 533.31 132.23 528.53 132.12 523.74 M 123.04 643.92 C 124.80 647.50 129.56 647.06 132.93 647.66 C 137.00 647.74 140.32 650.43 144.23 651.11 C 146.17 651.52 147.76 650.07 149.31 649.15 C 144.28 644.36 138.55 638.95 131.04 639.45 C 128.15 639.76 122.92 639.88 123.04 643.92 Z" />
</g>
</svg>
